<svg id="Icon_24_Search_Line" data-name="Icon/24/Search_Line" xmlns="http://www.w3.org/2000/svg" width="18" height="18" viewBox="0 0 18 18">
  <rect id="guidebox" width="18" height="18" fill="none"/>
  <path id="Combined_Shape" data-name="Combined Shape" d="M13.279,12.91l-.052-.039-3.264-2.8a5.939,5.939,0,0,1-4.051,1.586A5.877,5.877,0,0,1,0,5.827,5.877,5.877,0,0,1,5.913,0a5.877,5.877,0,0,1,5.913,5.827A5.741,5.741,0,0,1,10.658,9.3l3.255,2.8a.509.509,0,0,1,.051.726.528.528,0,0,1-.685.089ZM1.043,5.827a4.84,4.84,0,0,0,4.87,4.8,4.84,4.84,0,0,0,4.87-4.8,4.84,4.84,0,0,0-4.87-4.8A4.84,4.84,0,0,0,1.043,5.827Z" transform="translate(2.25 2.25)" fill="#858585"/>
</svg>
