<svg xmlns="http://www.w3.org/2000/svg" width="60" height="60" viewBox="0 0 60 60">
    <defs>
        <style>
            .cls-2{fill:none;stroke:#333;stroke-linecap:round;stroke-linejoin:round;stroke-width:1.5px}
        </style>
    </defs>
    <g id="icon_60_document" transform="translate(-568 -19)">
        <g id="그룹_11" transform="translate(-420.373 -6178.731)">
            <g id="그룹_9">
                <g id="그룹_8">
                    <path id="패스_12" d="M1030.183 6215.319l-6.286-6.286a4.446 4.446 0 0 0-3.142-1.3h-15.937a4.445 4.445 0 0 0-4.445 4.445v31.111a4.444 4.444 0 0 0 4.445 4.444h22.222a4.443 4.443 0 0 0 4.444-4.444v-24.826a4.445 4.445 0 0 0-1.301-3.144z" class="cls-2"/>
                </g>
                <path id="패스_13" d="M1031.484 6218.843h-8.884a2.222 2.222 0 0 1-2.223-2.223v-8.889" class="cls-2"/>
            </g>
            <path id="선_5" d="M0 0L16.409 0" class="cls-2" transform="translate(1005.262 6223.953)"/>
            <path id="선_6" d="M0 0L16.409 0" class="cls-2" transform="translate(1005.262 6232.158)"/>
            <path id="선_7" d="M0 0L11.851 0" class="cls-2" transform="translate(1005.262 6240.363)"/>
            <circle id="타원_3" cx="6.988" cy="6.988" r="6.988" fill="#fff" stroke="#333" stroke-linecap="round" stroke-linejoin="round" stroke-width="1.5px" transform="translate(1020.589 6225.481)"/>
            <g id="그룹_10">
                <path id="선_8" d="M3.933 3.933L0 0" class="cls-2" transform="translate(1032.519 6237.411)"/>
            </g>
        </g>
    </g>
</svg>
