<svg xmlns="http://www.w3.org/2000/svg" width="60" height="60" viewBox="0 0 60 60">
    <defs>
        <style>
            .cls-2,.cls-3{fill:none;stroke:#333;stroke-linecap:round;stroke-linejoin:round;stroke-width:1.5px}.cls-3{fill:#fff}
        </style>
    </defs>
    <g id="icon_60_advice" transform="translate(-568 -19)">
        <g id="그룹_3" transform="translate(679.376 -184.455)">
            <path id="패스_2" d="M-96.8 243.635v-14.1a15.085 15.085 0 0 1 15.085-15.085 15.086 15.086 0 0 1 15.085 15.09v14.1" class="cls-2"/>
            <path id="패스_3" d="M-74.05 217.422l-1.316 2.022a11.854 11.854 0 0 0-6.349-1.834 11.865 11.865 0 0 0-5.434 1.31l-1.491-2.487" class="cls-2"/>
            <path id="패스_4" d="M-101.376 242.352a3.8 3.8 0 0 0 3.8 3.8 3.8 3.8 0 0 0 3.8-3.8v-9.644a3.8 3.8 0 0 0-3.8-3.8 3.8 3.8 0 0 0-3.8 3.8z" class="cls-3"/>
            <path id="패스_5" d="M-92.516 244.149a2.06 2.06 0 0 1-2.059 2.059 2.06 2.06 0 0 1-2.06-2.059v-13.238a2.06 2.06 0 0 1 2.06-2.059 2.06 2.06 0 0 1 2.059 2.059z" class="cls-3"/>
            <path id="패스_6" d="M-61.376 242.181a3.778 3.778 0 0 1-3.8 3.753 3.777 3.777 0 0 1-3.8-3.753v-9.522a3.777 3.777 0 0 1 3.8-3.753 3.778 3.778 0 0 1 3.8 3.753z" class="cls-3"/>
            <path id="패스_7" d="M-70.238 244.149a2.06 2.06 0 0 0 2.06 2.059 2.06 2.06 0 0 0 2.059-2.059v-13.238a2.06 2.06 0 0 0-2.059-2.059 2.06 2.06 0 0 0-2.06 2.059z" class="cls-3"/>
            <path id="패스_8" fill="#333" d="M-79.719 253.209a.97.97 0 0 1-1.015-.919.97.97 0 0 1 1.015-.919h3.937a.97.97 0 0 1 1.014.919.97.97 0 0 1-1.014.919z"/>
            <path id="패스_9" d="M-66.684 245.934a6.591 6.591 0 0 1-6.59 6.591 6.572 6.572 0 0 1-2.305-.415" class="cls-2"/>
        </g>
    </g>
</svg>
