<svg xmlns="http://www.w3.org/2000/svg" id="icon_60_store" width="60" height="60" viewBox="0 0 60 60">
    <defs>
        <style>
            .cls-4{fill:none;stroke:#333;stroke-width:1.5px;stroke-linejoin:round;stroke-linecap:round}
        </style>
    </defs>
    <g id="그룹_18" transform="translate(-845 -8487.916)">
        <g id="그룹_16" stroke="#333" stroke-width="1.5px">
            <path id="패스_17" fill="none" d="M858.164 8515.8h33.672v20.089a2.638 2.638 0 0 1-2.571 2.7h-28.529a2.639 2.639 0 0 1-2.572-2.7V8515.8z"/>
            <path id="패스_18" fill="#fff" fill-rule="evenodd" stroke-linejoin="round" d="M882.834 8497.916a7.565 7.565 0 0 1 6.566 3.811l4.556 7.974a2.559 2.559 0 0 1 .251.615 6.667 6.667 0 1 1-12.54 3.156 6.667 6.667 0 0 1-13.334 0 6.667 6.667 0 1 1-12.537-3.161 2.477 2.477 0 0 1 .248-.61l4.556-7.974a7.565 7.565 0 0 1 6.566-3.811z"/>
        </g>
        <g id="그룹_17">
            <rect id="사각형_4" width="9.333" height="8" class="cls-4" rx="2" transform="translate(870.737 8527.009)"/>
            <path id="선_11" d="M0 1.728L0 0" class="cls-4" transform="translate(875.404 8530.676)"/>
            <circle id="타원_4" cx=".5" cy=".5" r=".5" class="cls-4" transform="translate(874.904 8529.676)"/>
            <path id="패스_19" d="M872.737 8527.009v-1.334a2.667 2.667 0 0 1 2.667-2.666 2.667 2.667 0 0 1 2.667 2.666v1.334" class="cls-4"/>
        </g>
    </g>
</svg>
