<svg xmlns="http://www.w3.org/2000/svg" id="Icon_24_Close_Line" width="20" height="20" viewBox="0 0 20 20">
    <defs>
        <clipPath id="clip-path">
            <path id="Mask" fill="#adadad" d="M5.5 11.5v-5h-5a.5.5 0 1 1 0-1h5v-5a.5.5 0 1 1 1 0v5h5a.5.5 0 0 1 0 1h-5v5a.5.5 0 0 1-1 0z" transform="rotate(45 3.221 12.707)"/>
        </clipPath>
        <style>
        </style>
    </defs>
    <g id="Group_2">
        <path id="Mask-2" fill="#858585" d="M5.5 11.5v-5h-5a.5.5 0 1 1 0-1h5v-5a.5.5 0 1 1 1 0v5h5a.5.5 0 0 1 0 1h-5v5a.5.5 0 0 1-1 0z" transform="rotate(45 3.221 12.707)"/>
    </g>
</svg>
