<svg xmlns="http://www.w3.org/2000/svg" width="60" height="60" viewBox="0 0 60 60">
    <defs>
        <style>
            .cls-2{fill:none;stroke:#333;stroke-linecap:round;stroke-linejoin:round;stroke-width:1.5px}
        </style>
    </defs>
    <g id="icon_60_contract" transform="translate(-568 -19)">
        <g id="그룹_15" transform="translate(-1005.178 -5756.788)">
            <g id="그룹_14">
                <g id="그룹_12">
                    <path id="선_9" d="M0 0L14.836 0" class="cls-2" transform="translate(1589.536 5808.31)"/>
                    <path id="선_10" d="M0 0L8.379 0" class="cls-2" transform="translate(1589.634 5814.766)"/>
                    <path id="패스_14" d="M1598.014 5825.527h-10.6a4.272 4.272 0 0 1-4.239-4.3v-30.131a4.272 4.272 0 0 1 4.239-4.3h21.653a4.271 4.271 0 0 1 4.238 4.3V5804" class="cls-2"/>
                </g>
                <g id="그룹_13">
                    <path id="패스_16" d="M1618.243 5807.679l-13.543 13.544v4.3h4.3l13.543-13.543a2.152 2.152 0 0 0 0-3.044l-1.26-1.261a2.153 2.153 0 0 0-3.04.004z" class="cls-2"/>
                </g>
            </g>
            <path id="사각형_3" d="M0 0h4.957a1.5 1.5 0 0 1 1.5 1.5v3.457a1.5 1.5 0 0 1-1.5 1.5H0V0z" class="cls-2" transform="translate(1589.634 5793.244)"/>
        </g>
    </g>
</svg>
