<svg xmlns="http://www.w3.org/2000/svg" width="28" height="28" viewBox="0 0 28 28">
    <g fill="none" fill-rule="evenodd">
        <g>
            <g>
                <g>
                    <g>
                        <g>
                            <path d="M0 0H28V28H0z" transform="translate(-1169 -313) translate(136 232) translate(240) translate(781 70) translate(12 11)"/>
                            <g fill="#FFF">
                                <path d="M16.267.444c.918 0 1.662.744 1.662 1.662v10.23c0 .918-.744 1.662-1.662 1.662h-4.689L9.45 16.141c-.28.282-.723.307-1.032.074l-.081-.07-2.162-2.147H1.81c-.875 0-1.592-.675-1.658-1.532l-.005-.13V2.106c0-.918.744-1.662 1.663-1.662zm0 1.05H1.81c-.339 0-.613.274-.613.612v10.23c0 .338.274.612.613.612h4.507c.185 0 .362.073.493.203l2.079 2.063 2.047-2.059c.105-.106.24-.175.386-.198l.11-.009h4.834c.338 0 .612-.274.612-.612V2.106c0-.338-.274-.612-.612-.612zm-10.095 3.7c.285 0 .522.211.562.485l.006.084v3.209c0 .314-.254.568-.568.568-.286 0-.522-.21-.563-.484l-.006-.084V5.763c0-.314.255-.568.569-.568zm5.746 0c.285 0 .521.211.562.485l.006.084v3.209c0 .314-.254.568-.568.568-.286 0-.522-.21-.563-.484l-.006-.084V5.763c0-.314.254-.568.569-.568zm-2.876 2.74c.314 0 .568.255.568.57v.087c0 .314-.254.569-.568.569-.314 0-.57-.255-.57-.569v-.087c0-.315.256-.57.57-.57zm0-2.362c.314 0 .568.255.568.569 0 .314-.254.569-.568.569-.314 0-.57-.255-.57-.569 0-.314.256-.569.57-.569z" transform="translate(-1169 -313) translate(136 232) translate(240) translate(781 70) translate(12 11) translate(4.958 5.542)"/>
                            </g>
                        </g>
                    </g>
                </g>
            </g>
        </g>
    </g>
</svg>
