<svg xmlns="http://www.w3.org/2000/svg" width="48" height="48" viewBox="0 0 48 48">
    <g fill="none" fill-rule="evenodd">
        <g>
            <g>
                <g>
                    <path d="M0 0H48V48H0z" opacity=".2" transform="translate(-33 -197) translate(16 197) translate(17)"/>
                    <path fill="#333" d="M24.02 39.136c.414 0 .75.336.75.75v4.5c0 .414-.336.75-.75.75-.415 0-.75-.336-.75-.75v-4.5c0-.414.335-.75.75-.75zM19 37.886c-3.176 0-5.75-2.574-5.75-5.75v-4c0-.699.41-1.302 1.002-1.583-.636-.988-1.002-2.163-1.002-3.417v-4c0-.966.784-1.75 1.75-1.75h4c2.15 0 4.025 1.18 5.011 2.928.959-1.798 2.853-3.022 5.033-3.022h3.95c.966 0 1.75.784 1.75 1.75v3.95c0 1.3-.397 2.516-1.082 3.524.638.26 1.088.887 1.088 1.62v4c0 3.176-2.574 5.75-5.75 5.75zm14-10h-4c-2.347 0-4.25 1.903-4.25 4.25v-.022 4.272H29c2.278 0 4.138-1.792 4.245-4.044l.005-.206v-4c0-.138-.112-.25-.25-.25zm-9.75 4.229c-.011-2.269-1.8-4.117-4.044-4.224L19 27.886h-4c-.138 0-.25.112-.25.25v4c0 2.347 1.903 4.25 4.25 4.25h4.249zM19 18.886h-4c-.138 0-.25.112-.25.25v4c0 1.244.472 2.388 1.255 3.25H19c1.684 0 3.199.724 4.25 1.877v-5.127c0-2.278-1.793-4.138-4.044-4.245L19 18.886zm13.994-.094h-3.95c-2.32 0-4.2 1.88-4.2 4.2v5.171c1.046-1.095 2.521-1.777 4.156-1.777h2.83c.828-.822 1.353-1.941 1.409-3.174l.005-.22v-3.95c0-.138-.112-.25-.25-.25zM22.763 4.312c.683-.683 1.791-.683 2.474 0l2.475 2.476c2.05 2.05 2.05 5.374 0 7.424l-2.475 2.475c-.683.684-1.791.684-2.474 0l-2.475-2.475c-2.05-2.05-2.05-5.374 0-7.424zm1.414 1.061c-.098-.097-.256-.097-.354 0l-2.475 2.475c-1.464 1.465-1.464 3.84 0 5.304l2.475 2.475c.098.097.256.097.354 0l2.475-2.475c1.464-1.465 1.464-3.84 0-5.304z" transform="translate(-33 -197) translate(16 197) translate(17)"/>
                </g>
            </g>
        </g>
    </g>
</svg>
