<svg xmlns="http://www.w3.org/2000/svg" width="48" height="48" viewBox="0 0 48 48">
    <g fill="none" fill-rule="evenodd">
        <g>
            <g>
                <g>
                    <g>
                        <g>
                            <path d="M0 0H48V48H0z" opacity=".2" transform="translate(-33 -401) translate(16 197) translate(0 102) translate(0 102) translate(17)"/>
                            <path fill="#009333" d="M26.699 6.655c3.066 0 5.551 2.486 5.551 5.551v4.553c0 .124.01.248.03.37l2.407 14.432c.794 4.767-2.426 9.275-7.192 10.07-.476.08-.957.119-1.44.119H14.863c-1.519 0-2.75-1.231-2.75-2.75 0-.152.012-.303.037-.453l3.57-21.37c.02-.123.031-.247.031-.37V12.23c0-3.079 2.496-5.575 5.575-5.575zm4.164 11.094h-13.72L13.63 38.794c-.006.034-.01.068-.013.103l-.004.103c0 .69.56 1.25 1.25 1.25h11.194c.4 0 .798-.033 1.192-.099 3.95-.658 6.618-4.394 5.96-8.343l-2.345-14.059zM25.45 8.154h-3v2.456c0 .414-.336.75-.75.75-.38 0-.693-.283-.743-.649l-.007-.101V8.172c-2.075.19-3.7 1.934-3.7 4.058v4.02h13.5v-4.044c0-2.152-1.68-3.913-3.8-4.043v2.447c0 .414-.336.75-.75.75-.38 0-.693-.283-.743-.649l-.007-.101V8.154z" transform="translate(-33 -401) translate(16 197) translate(0 102) translate(0 102) translate(17)"/>
                        </g>
                    </g>
                </g>
            </g>
        </g>
    </g>
</svg>
