<svg xmlns="http://www.w3.org/2000/svg" width="48" height="48" viewBox="0 0 48 48">
    <g fill="none" fill-rule="evenodd">
        <g>
            <g>
                <g>
                    <g>
                        <path fill="#333" d="M24 5.75c2.862 0 5.483 1.387 7.106 3.643l.17.245.074.114.15-.002c4.388 0 7.975 3.425 8.235 7.747l.011.25.004.253c0 .77-.106 1.525-.31 2.25l-.112.36-.1.279.105.144c.792 1.12 1.276 2.433 1.39 3.821l.02.322.007.324c0 2.942-1.655 5.574-4.19 6.886l-.247.122-.21.094-.094.21c-1.186 2.508-3.64 4.214-6.444 4.418l-.281.015-.284.005c-.691 0-1.368-.091-2.017-.265l.022.197.104 1.103.033.452.008.23c0 1.804-1.4 3.283-3.15 3.283s-3.15-1.48-3.15-3.284v-.046l.008-.183.033-.452.072-.783.055-.518c-.444.12-.9.2-1.365.239l-.352.021-.301.006c-2.942 0-5.574-1.655-6.886-4.19l-.122-.247-.095-.21-.21-.094c-2.507-1.186-4.213-3.64-4.417-6.444l-.015-.281-.005-.284c0-1.517.438-2.968 1.239-4.205l.177-.262.105-.144-.1-.28c-.198-.594-.328-1.213-.386-1.845l-.026-.38L8.25 18c0-4.472 3.558-8.113 7.998-8.246l.252-.004.15.002.074-.114c1.495-2.235 3.943-3.679 6.667-3.867l.303-.016L24 5.75zm0 18.794l-.25 2.027-.776 6.419-.362 3.161-.17 1.62-.072.812-.02.34.006.198c.073.92.79 1.629 1.644 1.629.902 0 1.65-.79 1.65-1.784l-.005-.155-.015-.228-.102-1.116-.397-3.58L24 24.544zM24 7.25c-2.626 0-5.007 1.408-6.291 3.644-.144.25-.418.396-.705.374-.167-.012-.335-.018-.504-.018-3.728 0-6.75 3.022-6.75 6.75 0 .946.194 1.863.565 2.71.115.26.072.564-.111.782C9.27 22.61 8.75 24.013 8.75 25.5c0 2.603 1.605 4.905 3.992 5.83.197.077.352.232.428.429.926 2.386 3.228 3.991 5.83 3.991.763 0 1.503-.137 2.193-.396l.383-3.317.393-3.193-3.973-3.157-.082-.075c-.25-.267-.273-.684-.039-.979.258-.324.73-.378 1.054-.12l3.255 2.586 1.072-8.693c.105-.835 1.265-.873 1.466-.114l.022.114.936 7.502.142 1.185 3.249-2.58.092-.063.097-.047c.3-.12.654-.035.865.23.257.325.203.797-.12 1.054l-3.973 3.156.666 5.54.106.97c.691.26 1.432.397 2.196.397 2.603 0 4.905-1.605 5.83-3.992.077-.197.232-.352.429-.428 2.386-.926 3.991-3.228 3.991-5.83 0-1.487-.52-2.891-1.454-4.007-.183-.219-.226-.522-.112-.783.372-.846.566-1.764.566-2.71 0-3.728-3.022-6.75-6.75-6.75-.17 0-.337.006-.502.019-.288.022-.563-.124-.707-.375C29.007 8.658 26.626 7.25 24 7.25z" transform="translate(-115 -197) translate(16 197) translate(82) translate(17)"/>
                    </g>
                </g>
            </g>
        </g>
    </g>
</svg>
