<svg xmlns="http://www.w3.org/2000/svg" width="48" height="48" viewBox="0 0 48 48">
    <g fill="none" fill-rule="evenodd">
        <g>
            <g>
                <g>
                    <g>
                        <g>
                            <path d="M0 0H48V48H0z" opacity=".2" transform="translate(-197 -401) translate(16 197) translate(0 102) translate(164 102) translate(17)"/>
                            <path fill="#009333" d="M36.714 7.25c1.52 0 2.75 1.231 2.75 2.75 0 .122-.008.244-.024.365l-3.053 22.797c-.582 4.344-4.29 7.588-8.673 7.588H15.036c-1.378 0-2.543-1.02-2.726-2.385l-3.75-28c-.202-1.505.855-2.89 2.36-3.09.122-.017.244-.025.366-.025zm0 1.5H11.286c-.056 0-.111.004-.166.011-.684.092-1.165.72-1.073 1.405l3.75 28c.083.62.612 1.084 1.239 1.084h12.678c3.632 0 6.704-2.688 7.186-6.288l3.053-22.796c.008-.055.011-.11.011-.166 0-.69-.56-1.25-1.25-1.25zm-17.214 20c-2.9 0-5.25-2.35-5.25-5.25V20c0-.966.784-1.75 1.75-1.75h3.5c1.91 0 3.582 1.02 4.5 2.545.918-1.525 2.59-2.545 4.5-2.545H32c.966 0 1.75.784 1.75 1.75v3.5c0 2.9-2.35 5.25-5.25 5.25h-9zm12.5-9h-3.5c-2.071 0-3.75 1.679-3.75 3.75v3.75h3.75c2.004 0 3.641-1.572 3.745-3.55l.005-.2V20c0-.138-.112-.25-.25-.25zm-12.5 0H16c-.138 0-.25.112-.25.25v3.5l.005.2c.104 1.978 1.74 3.55 3.745 3.55h3.75V23.5c0-2.071-1.679-3.75-3.75-3.75z" transform="translate(-197 -401) translate(16 197) translate(0 102) translate(164 102) translate(17)"/>
                        </g>
                    </g>
                </g>
            </g>
        </g>
    </g>
</svg>
