<svg xmlns="http://www.w3.org/2000/svg" width="48" height="48" viewBox="0 0 48 48">
    <g fill="none" fill-rule="evenodd">
        <g>
            <g>
                <g>
                    <g>
                        <path fill="#AA8153" d="M35.063 6.75c1.256 0 2.352.85 2.664 2.067 1.31 5.11 1.966 9.67 1.966 13.683 0 1.66-.112 3.556-.337 5.689l-.134 1.186c-.096.807-.207 1.645-.334 2.514l-.2 1.328-.108.681c-.687 4.238-4.345 7.352-8.638 7.352H13.219c-1.302 0-2.426-.913-2.692-2.188-.096-.458-.188-.91-.278-1.355l-.26-1.316-.24-1.276-.223-1.236-.204-1.197-.095-.584-.176-1.137-.157-1.098C8.498 26.988 8.3 24.534 8.3 22.5c0-3.885.722-8.458 2.16-13.725.328-1.196 1.414-2.025 2.654-2.025zm0 1.5h-21.95c-.563 0-1.057.377-1.205.92C10.5 14.317 9.8 18.762 9.8 22.5c0 .862.037 1.806.112 2.832l.073.9c.082.919.192 1.898.329 2.937l.146 1.059c.026.18.052.361.08.544l.173 1.119.192 1.159.21 1.198c.074.406.15.819.23 1.238l.246 1.278.13.654.275 1.338c.12.579.631.994 1.223.994h16.723c3.557 0 6.588-2.58 7.157-6.091.174-1.074.327-2.103.46-3.087l.148-1.16.067-.563.119-1.095c.2-1.969.3-3.72.3-5.254 0-3.877-.639-8.315-1.92-13.31-.141-.553-.64-.94-1.21-.94zm-11.93 6.262c.482-.482 1.263-.482 1.745 0l1.482 1.482c1.075 1.075 1.217 2.728.426 3.956h1.73c.682 0 1.234.552 1.234 1.234V23.2c0 .57-.147 1.107-.405 1.573.25.223.405.549.405.911V27.7c0 1.795-1.455 3.25-3.25 3.25l-1.753-.001.004 1.95c0 .414-.335.75-.75.751-.38 0-.693-.281-.743-.647l-.007-.102-.004-1.952-1.827.001c-1.69 0-3.072-1.323-3.165-2.99l-.005-.18v-2.096c0-.351.147-.669.383-.893-.244-.449-.383-.964-.383-1.511v-2.096c0-.682.552-1.234 1.234-1.234h1.741c-.79-1.228-.649-2.881.426-3.956zm5.118 11.437l-1.831.001c-.922 0-1.67.748-1.67 1.67l.001 1.829 1.749.001c.918 0 1.671-.707 1.744-1.606l.006-.144.001-1.751zm-8.502 0l.001 1.831c0 .922.748 1.67 1.67 1.67l1.829-.001.001-1.829c0-.874-.671-1.59-1.526-1.664l-.144-.006-1.831-.001zm8.502-4.5l-1.831.001c-.922 0-1.67.748-1.67 1.67v-.012 1.817c.437-.272.945-.44 1.49-.47l.18-.005h1.305c.292-.286.484-.674.52-1.106l.005-.144.001-1.751zm-6.671.001l-1.831-.001.001 1.831c0 .456.183.869.479 1.17h1.351c.613 0 1.185.174 1.67.475v-1.818c-.007-.868-.675-1.578-1.526-1.65l-.144-.007zm2.426-5.69l-1.294 1.295c-.653.652-.653 1.71 0 2.361l1.294 1.294 1.294-1.294c.617-.617.65-1.599.097-2.255l-.097-.106-1.294-1.295z" transform="translate(-197.000000, -197.000000) translate(16.000000, 197.000000) translate(164.000000, 0.000000) translate(17.000000, 0.000000)"/>
                    </g>
                </g>
            </g>
        </g>
    </g>
</svg>
