<svg xmlns="http://www.w3.org/2000/svg" width="48" height="48" viewBox="0 0 48 48">
    <g fill="none" fill-rule="evenodd">
        <g>
            <g>
                <g>
                    <g>
                        <g>
                            <path d="M0 0H48V48H0z" opacity=".2" transform="translate(-115 -503) translate(16 197) translate(0 102) translate(82 204) translate(17)"/>
                            <path fill="#009333" d="M41.709 32.162c.257.325.203.797-.122 1.054-4.822 3.826-10.787 5.942-17.073 5.942-.414 0-.75-.335-.75-.75 0-.414.336-.75.75-.75 5.945 0 11.581-2 16.141-5.617.325-.257.796-.203 1.054.121zM23.34 9.31l.283.006.765.036c.977.054 1.776.129 2.403.226 3.913.605 7.099 1.889 10.037 4.897 3.795 3.886 5.574 8.273 4.691 12.3-.562 2.565-3.63 4.729-9.142 6.653-1.493.52-3.12-.22-3.72-1.662l-.056-.146-.087.017c-9.2 1.713-18.322-1.075-21.25-6.141l-.127-.228c-.885-1.659-1.188-3.809-.933-6.444.141-1.463 1.329-2.593 2.78-2.678l.174-.005h4.256c.754 0 1.458-.364 1.895-.97l.095-.144 1.212-1.974c1.437-2.342 3.99-3.755 6.724-3.743zm-5.308 4.313l-.138.215-1.211 1.974c-.659 1.073-1.8 1.75-3.048 1.823l-.221.006H9.159c-.756 0-1.389.574-1.461 1.327-.229 2.364.034 4.226.764 5.593 2.424 4.54 10.998 7.224 19.74 5.609l.228-.045v-9.643c0-.38.283-.693.65-.743l.1-.007c.38 0 .694.282.744.648l.007.102v10.143c0 .165.028.328.082.484.267.766 1.105 1.17 1.87.902 5.056-1.764 7.759-3.67 8.172-5.558.76-3.464-.825-7.373-4.3-10.93-2.669-2.733-5.571-3.903-9.193-4.463-.287-.044-.62-.084-.997-.12l-.6-.049c-.211-.015-.434-.029-.667-.041l-.734-.035c-2.213-.09-4.305.98-5.531 2.808zm2.324 3.063c.829 0 1.5.671 1.5 1.5 0 .828-.671 1.5-1.5 1.5-.828 0-1.5-.672-1.5-1.5 0-.829.672-1.5 1.5-1.5z" transform="translate(-115 -503) translate(16 197) translate(0 102) translate(82 204) translate(17)"/>
                        </g>
                    </g>
                </g>
            </g>
        </g>
    </g>
</svg>
