<svg xmlns="http://www.w3.org/2000/svg" width="360" height="564" viewBox="0 0 360 564">
  <g id="card3" transform="translate(-2 -454)">
    <rect id="사각형_3" data-name="사각형 3" width="360" height="564" transform="translate(2 454)" fill="#c9eaf2"/>
    <g id="tx" transform="translate(-3069.665 -2145.698)">
      <g id="그룹_338" data-name="그룹 338" transform="translate(3165.666 2627.612)">
        <g id="그룹_329" data-name="그룹 329">
          <path id="패스_610" data-name="패스 610" d="M3174.335,2632.578h0c-5.467,7.6-8.011,17.124-8.613,26.465-.264,4.1.323,8.867,3.766,11.1,2.794,1.813,6.629,1.22,9.433-.575a22.261,22.261,0,0,0,6.59-6.53,13.256,13.256,0,0,0,1.715-3.9,3.092,3.092,0,0,0-1-3.174c-1.4-.984-3.407-.087-4.485,1.24s-1.641,3.018-2.751,4.319-3.187,2.1-4.51,1.017c-1.094-.9-1.088-2.538-.988-3.948.371-5.229.78-10.6,3.063-15.323a7.287,7.287,0,0,1,2.55-3.189,3.239,3.239,0,0,1,3.84.179c2.1,2.032-.275,5.775,1.73,7.719,2.873,2.785,6.284-1.587,6.859-4.024,2.2-9.334,1.742-14.226-5.337-16.015A11.291,11.291,0,0,0,3174.335,2632.578Z" transform="translate(-3165.666 -2627.612)" fill="#5caccc"/>
        </g>
        <g id="그룹_330" data-name="그룹 330" transform="translate(24.591 5.459)">
          <path id="패스_611" data-name="패스 611" d="M3210.881,2669.255h0a7.485,7.485,0,0,0-.074,3.381,2.625,2.625,0,0,0,2.429,2.022c1.241-.066,2.083-1.257,2.667-2.354a34.058,34.058,0,0,0,3.353-9.422,48.292,48.292,0,0,0,7.733-1.177,75.348,75.348,0,0,0-2.249,10.5c-.128.915-.1,2.1.755,2.452a1.829,1.829,0,0,0,1.742-.454,10.57,10.57,0,0,0,2.876-4.452,139.612,139.612,0,0,0,7.35-24.963,6.709,6.709,0,0,0,.168-2.874,2.371,2.371,0,0,0-1.922-1.915c-1.4-.115-2.333,1.36-2.916,2.632-1.5,3.282-2.661,7.222-3.94,10.6a1.765,1.765,0,0,1-1.869,1.45l-6.027.663s3.807-10.4,4.155-11.611c.568-1.978,1.353-6.389-1.961-6.13-6.474.507-7.9,12.565-9.068,17.049Q3212.2,2661.891,3210.881,2669.255Z" transform="translate(-3210.638 -2637.596)" fill="#5caccc"/>
        </g>
        <g id="그룹_331" data-name="그룹 331" transform="translate(48.347 9.94)">
          <path id="패스_612" data-name="패스 612" d="M3262.941,2647.393c-3.015,2.353-4.21,6.614-5.076,10.161-1.089,4.459-2.315,8.863-3.476,13.311-1.948,7.468,5.928,7.41,11.208,6.583a6.247,6.247,0,0,0,4.464-2.3,3.042,3.042,0,0,0,.4-2.6c-.426-1.33-1.58-1.662-2.678-1.857a18.31,18.31,0,0,0-4.678-.222c-2.525.2-2.14-3.143-1.332-4.574,1.9-3.365,5.275-.9,8.07-2.415a2.458,2.458,0,0,0,1.343-2.264c-.219-3.7-5.59-.71-6.741-3.629a4.093,4.093,0,0,1,4.1-5.393c2.017.211,7.038.183,6.815-2.935C3275.012,2644.451,3265.409,2645.467,3262.941,2647.393Z" transform="translate(-3254.085 -2645.79)" fill="#5caccc"/>
        </g>
        <g id="그룹_332" data-name="그룹 332" transform="translate(67.683 10.774)">
          <path id="패스_613" data-name="패스 613" d="M3296.277,2649.265c-2.756,2.43-3.621,6.572-4.215,10.012-.748,4.325-1.633,8.6-2.451,12.924-1.374,7.25,6.244,6.716,11.3,5.606a6.02,6.02,0,0,0,4.163-2.47,2.678,2.678,0,0,0-2.508-4.117,18.045,18.045,0,0,0-4.542.072c-2.429.348-2.287-2.871-1.6-4.287,1.608-3.329,5.043-1.177,7.643-2.8a2.327,2.327,0,0,0,1.145-2.245c-.466-3.52-5.458-.338-6.773-3.056a3.9,3.9,0,0,1,3.594-5.4c1.967.08,6.823-.253,6.393-3.217C3307.757,2645.722,3298.534,2647.276,3296.277,2649.265Z" transform="translate(-3289.448 -2647.315)" fill="#5caccc"/>
        </g>
        <g id="그룹_333" data-name="그룹 333" transform="translate(88.696 10.954)">
          <path id="패스_614" data-name="패스 614" d="M3345.15,2673.943a3.69,3.69,0,0,0-.605-1.664,38.208,38.208,0,0,1-3.417-8.34c.1-.047.192-.091.287-.14,3.361-1.757,4.723-5.137,4.554-8.926a7.434,7.434,0,0,0-2.445-5.417,7.663,7.663,0,0,0-2.846-1.408,11.362,11.362,0,0,0-8.585,1.066l-1.282,1.642a167.44,167.44,0,0,0-2.883,21.088,5.312,5.312,0,0,0,.674,3.743,2.079,2.079,0,0,0,1.587.861c1.26.024,1.89-1.116,2.279-2.161a17.821,17.821,0,0,0,1.1-5.627,3.26,3.26,0,0,1,2.155-2.965q1.957,4.146,4.235,8.129c.511.892,1.165,1.868,2.181,2.023C3343.134,2676,3345.165,2674.95,3345.15,2673.943Zm-8.574-13.721-.53-.733a20.965,20.965,0,0,1,.768-6.449,3.651,3.651,0,0,1,2.96.765,2.591,2.591,0,0,1,.566,1.471A4.719,4.719,0,0,1,3336.576,2660.222Z" transform="translate(-3327.877 -2647.645)" fill="#5caccc"/>
        </g>
        <g id="그룹_334" data-name="그룹 334" transform="translate(115.721 8.259)">
          <path id="패스_615" data-name="패스 615" d="M3378.629,2656.765c-1.065,4.379-2.114,9.089-.48,13.289a7.592,7.592,0,0,0,2.793,3.682,7.47,7.47,0,0,0,7.451-.071,16.752,16.752,0,0,0,5.518-5.437,46.549,46.549,0,0,0,7.671-18.746,4.044,4.044,0,0,0-.093-2.356c-.729-1.59-3.176-1.589-4.5-.446s-1.832,2.937-2.362,4.6a35.134,35.134,0,0,1-5.514,10.967,2.776,2.776,0,0,1-1.747,1.265,1.948,1.948,0,0,1-1.853-1.314,5.115,5.115,0,0,1-.173-2.408,32.932,32.932,0,0,1,1.843-8.026h0c1-2.741,3.695-9.078-1.684-9.051C3381.748,2642.736,3379.549,2652.982,3378.629,2656.765Z" transform="translate(-3377.302 -2642.716)" fill="#5caccc"/>
        </g>
        <g id="그룹_335" data-name="그룹 335" transform="translate(139.671 10.832)">
          <path id="패스_616" data-name="패스 616" d="M3442.014,2650.407a7.487,7.487,0,0,0-3.983-2.467c-6.037-1.68-10.485.825-12.221,6a97.705,97.705,0,0,0-4.635,22.2h0a7.06,7.06,0,0,0,.156,2.908,2.815,2.815,0,0,0,2.125,1.95c1.822.258,2.979-1.694,3.547-3.34a80.024,80.024,0,0,0,2.628-9.43,3.717,3.717,0,0,1,.76-1.85,4.51,4.51,0,0,1,2.058-.968,16.833,16.833,0,0,0,8.675-6.05C3443.036,2656.763,3444.026,2653.036,3442.014,2650.407Zm-5.45,6.155c-.492.953-2.751,3.573-4.085,3.321-2.061-.389-1.138-2.982-.913-4.267.25-1.433.723-3.122,2.181-3.54a2.656,2.656,0,0,1,2.9,1.321A3.414,3.414,0,0,1,3436.564,2656.563Z" transform="translate(-3421.101 -2647.422)" fill="#5caccc"/>
        </g>
        <g id="그룹_336" data-name="그룹 336" transform="translate(164.456 10.843)">
          <path id="패스_617" data-name="패스 617" d="M3467.321,2658.9c-.669,2.641-1.334,5.449-.5,8.042a1.333,1.333,0,0,0,2.255.736,8.005,8.005,0,0,0,3.354-3.816,20.563,20.563,0,0,0,1.372-4.972h0c.368-2.063,2.259-11.558-1.346-11.449C3468.612,2647.558,3467.969,2656.339,3467.321,2658.9Z" transform="translate(-3466.43 -2647.441)" fill="#5caccc"/>
        </g>
        <g id="그룹_337" data-name="그룹 337" transform="translate(162.471 37.202)">
          <path id="패스_618" data-name="패스 618" d="M3463.125,2699.707h0a1.762,1.762,0,0,0,2.039,1.11,2.649,2.649,0,0,0,1.219-1.134C3470.191,2694.12,3460.993,2694.481,3463.125,2699.707Z" transform="translate(-3462.8 -2695.648)" fill="#5caccc"/>
        </g>
      </g>
    </g>
    <g id="그룹_353" data-name="그룹 353" transform="translate(-3098.044 -2187.944)">
      <g id="d" transform="translate(3227.044 2755.223)">
        <g id="그룹_346" data-name="그룹 346">
          <path id="패스_620" data-name="패스 620" d="M3320.732,2821.6c0,.719-3.031,64.986-3.031,64.986a6.536,6.536,0,0,0,7.037.24l-2.753-65.425Z" transform="translate(-3269.522 -2784.833)" fill="#9adb45"/>
          <g id="그룹_345" data-name="그룹 345">
            <g id="그룹_344" data-name="그룹 344">
              <g id="그룹_341" data-name="그룹 341" transform="translate(53.459)">
                <g id="그룹_340" data-name="그룹 340">
                  <path id="패스_621" data-name="패스 621" d="M3325.635,2803.887l-.013.008,0-.009-.01,0,.014-.007c.22-.125.51-1.1.606-1.3,4.827-10.133,11.139-21.049,20.232-29.109,4.715-4.18,10.719-7.538,16.831-6.774,9.084,1.135,14.525,8.565,14.735,16.561.344,13-13.468,18.6-25.732,20.316a107.892,107.892,0,0,1-18.171.85q-3.057-.092-6.078-.323C3327.672,2804.073,3326.006,2803.673,3325.635,2803.887Z" transform="translate(-3325.615 -2766.588)" fill="#9adb45"/>
                </g>
              </g>
              <g id="그룹_343" data-name="그룹 343" transform="translate(0 3.405)">
                <g id="그룹_342" data-name="그룹 342">
                  <path id="패스_622" data-name="패스 622" d="M3299.616,2805.554l.015.006-.005-.008h.009l-.014-.006c-.231-.1-.61-1.045-.725-1.235-5.749-9.641-13.049-19.922-22.852-27.1-5.083-3.723-11.375-6.508-17.388-5.179-8.939,1.975-13.665,9.878-13.132,17.859.867,12.971,15.141,17.269,27.511,17.836a107.754,107.754,0,0,0,18.173-.844q3.034-.374,6.021-.885C3297.605,2805.93,3299.227,2805.375,3299.616,2805.554Z" transform="translate(-3245.484 -2771.692)" fill="#9adb45"/>
                </g>
              </g>
            </g>
            <line id="선_3" data-name="선 3" x2="52.375" y2="24.091" transform="translate(1.773 13.183)" fill="none" stroke="#b8e880" stroke-miterlimit="10" stroke-width="4"/>
            <line id="선_4" data-name="선 4" y1="30.511" x2="48.681" transform="translate(53.478 6.787)" fill="none" stroke="#b8e880" stroke-miterlimit="10" stroke-width="4"/>
          </g>
        </g>
        <g id="그룹_347" data-name="그룹 347" transform="translate(27.757 73.494)">
          <path id="패스_623" data-name="패스 623" d="M3330.51,2935.306h-32.738l-4.814-51.031h42.365Z" transform="translate(-3289.043 -2879.256)" fill="#efede6"/>
          <rect id="사각형_18" data-name="사각형 18" width="50.195" height="8.366" fill="#fff"/>
        </g>
      </g>
      <g id="그룹_358" data-name="그룹 358" transform="translate(3268.044 2732.444)">
        <path id="패스_627" data-name="패스 627" d="M3332.564,2741.713a5.138,5.138,0,0,1-10.277,0c0-2.836,5.138-8.671,5.138-8.671S3332.564,2738.877,3332.564,2741.713Z" transform="translate(-3309.408 -2732.643)" fill="#69cfe0"/>
        <path id="패스_628" data-name="패스 628" d="M3327.722,2776.306a4.458,4.458,0,0,1-8.915,0c0-2.462,4.458-7.523,4.458-7.523S3327.722,2773.844,3327.722,2776.306Z" transform="translate(-3308.25 -2744.54)" fill="#69cfe0"/>
        <path id="패스_629" data-name="패스 629" d="M3307.019,2737.295a2.018,2.018,0,0,1-2.511,2.112c-1.319-.431-1.607-1.237-1.507-2.621.194-2.687,5.1-4.342,5.1-4.342A10.374,10.374,0,0,0,3307.019,2737.295Z" transform="translate(-3302.983 -2732.444)" fill="#69cfe0"/>
      </g>
      <path id="패스_624" data-name="패스 624" d="M3310.53,2840.935a.986.986,0,0,1,.289.372" transform="translate(-40.79 -36.112)" fill="none" stroke="#000" stroke-linecap="round" stroke-linejoin="round" stroke-width="1"/>
      <g id="그룹_349" data-name="그룹 349" transform="translate(3331.726 2804.745)">
        <g id="그룹_348" data-name="그룹 348">
          <path id="패스_625" data-name="패스 625" d="M3423.319,2841.731l.448,2.028a1.167,1.167,0,0,0,.885.886l2.028.447a1.164,1.164,0,0,1,0,2.273l-2.028.447a1.162,1.162,0,0,0-.885.886l-.448,2.028a1.163,1.163,0,0,1-2.272,0l-.448-2.028a1.165,1.165,0,0,0-.886-.886l-2.028-.447a1.164,1.164,0,0,1,0-2.273l2.028-.447a1.169,1.169,0,0,0,.886-.886l.448-2.028a1.163,1.163,0,0,1,2.272,0" transform="translate(-3399.957 -2840.818)" fill="#fff"/>
          <path id="패스_626" data-name="패스 626" d="M3396.461,2861.46a2.448,2.448,0,1,1-2.447-2.448A2.447,2.447,0,0,1,3396.461,2861.46Z" transform="translate(-3391.566 -2846.874)" fill="#fff"/>
        </g>
      </g>
      <path id="패스_630" data-name="패스 630" d="M3458.655,2761.32l.778,3.529a2.033,2.033,0,0,0,1.541,1.542l3.529.778a2.025,2.025,0,0,1,0,3.954l-3.529.777a2.028,2.028,0,0,0-1.541,1.543l-.778,3.527a2.025,2.025,0,0,1-3.953,0l-.781-3.527a2.027,2.027,0,0,0-1.54-1.543l-3.529-.777a2.025,2.025,0,0,1,0-3.954l3.529-.778a2.031,2.031,0,0,0,1.54-1.542l.781-3.529a2.024,2.024,0,0,1,3.953,0" transform="translate(-86.304 -9.083)" fill="#fff"/>
      <path id="패스_631" data-name="패스 631" d="M3486.309,2795.185a2.448,2.448,0,1,1-2.447-2.448A2.447,2.447,0,0,1,3486.309,2795.185Z" transform="translate(-97.671 -20.069)" fill="#fff"/>
      <g id="그룹_350" data-name="그룹 350" transform="translate(3321.354 2740.407)">
        <path id="패스_632" data-name="패스 632" d="M3392.793,2746.828a2.448,2.448,0,1,1-2.448-2.448A2.448,2.448,0,0,1,3392.793,2746.828Z" transform="translate(-3387.897 -2744.38)" fill="#fff"/>
      </g>
      <g id="그룹_351" data-name="그룹 351" transform="translate(3189.586 2772.13)">
        <path id="패스_633" data-name="패스 633" d="M3199.281,2793.171l.608,2.756a1.584,1.584,0,0,0,1.2,1.2l2.757.607a1.582,1.582,0,0,1,0,3.09l-2.757.608a1.579,1.579,0,0,0-1.2,1.2l-.608,2.755a1.581,1.581,0,0,1-3.089,0l-.608-2.755a1.58,1.58,0,0,0-1.2-1.2l-2.757-.608a1.582,1.582,0,0,1,0-3.09l2.757-.607a1.586,1.586,0,0,0,1.2-1.2l.608-2.756a1.582,1.582,0,0,1,3.089,0" transform="translate(-3190.384 -2791.931)" fill="#fff"/>
        <path id="패스_634" data-name="패스 634" d="M3218.041,2820.225a1.912,1.912,0,1,1-1.912-1.912A1.911,1.911,0,0,1,3218.041,2820.225Z" transform="translate(-3198.317 -2800.712)" fill="#fff"/>
      </g>
      <g id="그룹_352" data-name="그룹 352" transform="translate(3187.986 2821.778)">
        <path id="패스_635" data-name="패스 635" d="M3193.4,2867.1l.369,1.678a.966.966,0,0,0,.733.733l1.678.369a.963.963,0,0,1,0,1.881l-1.678.371a.962.962,0,0,0-.733.732l-.369,1.677a.963.963,0,0,1-1.881,0l-.37-1.677a.964.964,0,0,0-.732-.732l-1.678-.371a.963.963,0,0,1,0-1.881l1.678-.369a.968.968,0,0,0,.732-.733l.37-1.678a.963.963,0,0,1,1.881,0" transform="translate(-3187.986 -2866.35)" fill="#fff"/>
        <path id="패스_636" data-name="패스 636" d="M3235.612,2907.918A1.912,1.912,0,1,1,3233.7,2906,1.911,1.911,0,0,1,3235.612,2907.918Z" transform="translate(-3202.566 -2879.549)" fill="#fff"/>
      </g>
    </g>
  </g>
</svg>
