<svg xmlns="http://www.w3.org/2000/svg" width="360" height="564" viewBox="0 0 360 564">
  <g id="card2" transform="translate(-2 -454)">
    <rect id="사각형_3" data-name="사각형 3" width="360" height="564" transform="translate(2 454)" fill="#fff5d2"/>
    <g id="그룹_256" data-name="그룹 256" transform="translate(-424.061 -2206.179)">
      <g id="그룹_255" data-name="그룹 255" transform="translate(553.061 2754.679)">
        <g id="그룹_251" data-name="그룹 251">
          <path id="패스_392" data-name="패스 392" d="M583.453,2860.472l.033.019v-.019Z" transform="translate(-583.453 -2793.626)" fill="#add4de"/>
          <path id="패스_393" data-name="패스 393" d="M752.7,2860.472h-.033v.019Z" transform="translate(-645.746 -2793.626)" fill="#add4de"/>
          <path id="패스_394" data-name="패스 394" d="M690.407,2842.025,636.931,2810.4l-53.476,31.622.039.015h-.007v.019l53.444,31.6,53.443-31.6v-.019h-.006Z" transform="translate(-583.454 -2775.193)" fill="#b6556d"/>
          <g id="그룹_248" data-name="그룹 248" transform="translate(0.686 24.804)">
            <path id="패스_395" data-name="패스 395" d="M628.393,2800.979l.07,2.859-10.118,4.353-6.852-7.363s-1.965-4.195-.234-4.969l.573.77.173-1.162.833,1.417.4-1.612.368,1.132.3-1.238.581,1.126.727-1.332s.566,1.6.691,1.522a9.54,9.54,0,0,0,.684-1.324l.525,1.631.449-1.731.721,1.545.305-1.1s.258,1.178.364,1.133.4-1.945.487-1.791.766,1.427.766,1.427a10.236,10.236,0,0,1,.226-1.668c.075.125.842,1.554.9,1.406s.252-2.2.327-2.072,1.009,1.777,1.009,1.777l.494-1.1,1.18,1.582.868-.8.44,1.9.886-1.162.318,2.215a7.315,7.315,0,0,1,1.345-.156c-.006.082-.428.87-.322.907s.866.167.866.167l-.466.794.768-.065-.2.914-.461.073" transform="translate(-594.113 -2793.934)" fill="#d64076"/>
            <path id="패스_396" data-name="패스 396" d="M605.159,2799.17l1.878,2.271-3.111,10.068-8.727-1.537s-3.842-2.136-3.326-3.878l.825.253-.643-1.053,1.4.608-.8-1.566.941.678-.621-1.195,1.061.537-.429-1.551s1.355.933,1.379.788a12.813,12.813,0,0,0-.45-1.513l1.355.982-.851-1.694,1.415.789-.528-1.088s.9.786.94.679-1.012-1.837-.866-1.765,1.363.663,1.363.663a13.358,13.358,0,0,1-.94-1.5c.126.055,1.491.716,1.43.557s-1.262-1.946-1.138-1.89,1.73.786,1.73.786l-.419-1.21,1.705.521-.008-1.21,1.473,1.248-.229-1.512,1.611,1.589s.631-1.067.68-1,.311.982.4.947.614-.428.614-.428l.238.944.406-.549.47.874-.223.354" transform="translate(-587.221 -2794.855)" fill="#c02c67"/>
            <path id="패스_397" data-name="패스 397" d="M605.8,2805.528l6.451,8.07,8.93-4.377-.913-4.139-1.915-2.556-.028,1.611-.909-1.821.1,1.832-1.431-1.916s.074,2.071-.087,1.917-1.1-1.73-1.1-1.73l-.19,1.636-.876-1.469s-.133,2.284-.265,2.065-.93-1.876-.93-1.876l.219,1.691-1.223-.88-.3,1.357-.739-2.205-.2,1.7-.856-.937-.079,1.383-1.239-1.769.137,1.646-1.5-1.074.329,1.5-1.591-1.3.293,1.323-1.014-.49Z" transform="translate(-592.025 -2796.99)" fill="#dd4d7d"/>
            <path id="패스_398" data-name="패스 398" d="M628.22,2815.9s9.312-1.595,7.821-6.36c0,0,4.764-5.944-.395-9.862l.285,1.4-1.047-1.276-.551,1.161-.48-1.311-.095,1.133-.8-1.527-.413,1.275-.7-1.458-.19,1.239-.664-1.1-.236.976-1.109-1.3-.685,1.046-1.066-1.173.128,1.277-.684-1.189.136.962-.692-.875-.349.682-.386-1.058-.54,1.2-.385-.878a8.086,8.086,0,0,0-1.374,5.446l4.471,11.573" transform="translate(-598.949 -2795.636)" fill="#df6281"/>
            <path id="패스_399" data-name="패스 399" d="M626.258,2836.174" transform="translate(-599.897 -2809.484)" fill="#df618b"/>
            <path id="패스_400" data-name="패스 400" d="M626.935,2822.274s13.035-12.561,15.706-11.423l-1.3,1.409,2.3.005-1.222,1.347,1.944-.6-.284,1.2,1.786-.772-.5,2.091,2.789-.357-.856,1.07,1.6-.421s-1.345,12.509-10.39,8.3c0,0-6.7-2.969-10.191-.509Z" transform="translate(-600.146 -2800.135)" fill="#d64076"/>
            <path id="패스_401" data-name="패스 401" d="M626.258,2836.174" transform="translate(-599.897 -2809.484)" fill="#df618b"/>
            <path id="패스_402" data-name="패스 402" d="M624.118,2819.424l3.2,2.3s8.236,2.174,11.477-2.735c0,0,4.9-3.079,4.659-7.441,0,0,2.51-2.491,1.373-3.569l-1.6.467.131-.889-1.168,1.27.772-1.587-1.593,1.336.226-1.826-1.65,1.817c.813-.147.846-2.619.846-2.619a23.762,23.762,0,0,1-1.986,1.819,14.219,14.219,0,0,1-.459-2.088l-.659,1.3-1.125-2.706-.722,2.764-1.34-2.646-1.029,4.386-.815-3.012-8.6,13.383" transform="translate(-599.088 -2797.743)" fill="#dd4d7d"/>
            <path id="패스_403" data-name="패스 403" d="M609.862,2826.816s-19.086-12.906-21.268-11.279l1.978,1.467-2.338.282,1.867,1.4-2.253-.453.844,1.34-2.175-.677,1.479,2.346-3-.078,1.369,1.131-1.827-.3s7.18,14.234,14.417,8.32c0,0,5.432-4.214,10.121-1.8Z" transform="translate(-584.539 -2801.835)" fill="#dd4e7f"/>
            <path id="패스_404" data-name="패스 404" d="M610.131,2812.625s-5.2-4.579-7.721-3.623l.77,1.625-1.894-1.05.939,1.987-2.286-1.3,1.024,2.167-1.824-1.3s-.756,2.726,0,4.136c0,0,1.726,8.644,9.846,9.42l6.584,1.143.5-.457Z" transform="translate(-589.79 -2799.433)" fill="#df618b"/>
            <path id="패스_405" data-name="패스 405" d="M625.8,2823.342s7.512-7.005,3.219-16.568l-.471,2.033-1.323-2.339-.848,2.682-1.045-2.382-.737,2.4-1.266-2.08-.318,2.732-1.5-2.446a19.531,19.531,0,0,1-1.621,2.4s-4.986,5.614-1.195,11.316a33.484,33.484,0,0,1,3.223,3.648l2.141.839,1.741-2.233" transform="translate(-596.591 -2798.548)" fill="#e27e9e"/>
            <path id="패스_406" data-name="패스 406" d="M627.631,2830.235s.962,10.293-2.421,11.179l-3.943.621s-4.129.837-6.484-8.811l-.558-2.54s3.444,4.2,3.853-1.117c0,0,3.916,5.881,6.015-.621C624.093,2828.947,625.574,2833.4,627.631,2830.235Z" transform="translate(-595.467 -2806.824)" fill="#83c267"/>
            <path id="패스_407" data-name="패스 407" d="M628.678,2849s.16,24.112,10.438,47.427l-2.562.4s-9.429-25.652-10.013-47.5Z" transform="translate(-600.002 -2814.205)" fill="#83c267"/>
          </g>
          <g id="그룹_249" data-name="그룹 249" transform="translate(57.054)">
            <path id="패스_408" data-name="패스 408" d="M691.245,2760.567l.051,2.29,8.26,3.112,5.212-6.146s1.416-3.431,0-3.985l-.431.634-.179-.921-.614,1.162-.385-1.275-.251.919-.287-.978-.422.922-.631-1.04s-.394,1.3-.5,1.244a7.49,7.49,0,0,1-.6-1.034l-.358,1.327-.425-1.369-.518,1.263-.285-.868s-.166.951-.255.918-.394-1.54-.452-1.414l-.562,1.172a8.283,8.283,0,0,0-.243-1.328c-.055.1-.615,1.274-.67,1.159s-.284-1.75-.338-1.646-.744,1.46-.744,1.46l-.435-.863-.887,1.311-.724-.611-.283,1.531-.75-.9-.175,1.786a5.9,5.9,0,0,0-1.082-.076c.008.066.374.678.292.715s-.689.165-.689.165l.4.618-.617-.026.193.725.371.042" transform="translate(-679.982 -2754.68)" fill="#d64076"/>
            <path id="패스_409" data-name="패스 409" d="M711.291,2758.219l-1.419,1.888,2.862,7.942,6.927-1.551s3-1.852,2.517-3.228l-.649.232.475-.866-1.092.539.577-1.285-.725.579.451-.979-.83.469.287-1.259s-1.051.8-1.076.683a10.616,10.616,0,0,1,.308-1.229l-1.047.836.614-1.386-1.1.682.38-.892s-.694.664-.726.58.742-1.509.629-1.445l-1.067.58a10.53,10.53,0,0,0,.694-1.232c-.095.047-1.165.628-1.123.5s.938-1.6.842-1.555-1.357.694-1.357.694l.292-.984-1.347.48-.038-.969-1.131,1.054.126-1.219-1.232,1.33s-.543-.829-.581-.771-.214.8-.282.771-.507-.318-.507-.318l-.153.763-.348-.424-.343.715.192.275" transform="translate(-687.047 -2755.12)" fill="#c02c67"/>
            <path id="패스_410" data-name="패스 410" d="M710.539,2763.376l-4.866,6.7-7.31-3.172.579-3.348,1.439-2.116.08,1.29.662-1.491-.009,1.469,1.074-1.585s.016,1.658.14,1.53.818-1.426.818-1.426l.215,1.3.646-1.208s.19,1.822.289,1.642.674-1.536.674-1.536l-.111,1.362.944-.747.286,1.076.511-1.794.227,1.355.653-.781.114,1.1.924-1.463-.049,1.321,1.158-.913-.21,1.21,1.226-1.1-.183,1.069.793-.43Z" transform="translate(-682.81 -2757.05)" fill="#dd4d7d"/>
            <path id="패스_411" data-name="패스 411" d="M693.858,2772.314s-7.512-.933-6.492-4.8c0,0-4.034-4.582-.05-7.907l-.178,1.124.791-1.058.486.909.334-1.065.119.9.581-1.252.375,1.005.511-1.192.2.984.491-.907.222.771.841-1.081.585.814.809-.981-.052,1.028.5-.977-.071.775.521-.725.306.534.269-.86.476.94.277-.715a6.477,6.477,0,0,1,1.3,4.307l-3.152,9.427" transform="translate(-678.096 -2756.032)" fill="#df6281"/>
            <path id="패스_412" data-name="패스 412" d="M702.754,2788.417" transform="translate(-684.426 -2767.099)" fill="#df618b"/>
            <path id="패스_413" data-name="패스 413" d="M691.565,2777.645s-10.894-9.57-12.989-8.561l1.094,1.08-1.844.089,1.027,1.03-1.577-.406.273.946-1.46-.552.476,1.655-2.244-.183.725.826-1.3-.279s1.537,9.964,8.62,6.262c0,0,5.254-2.626,8.139-.784Z" transform="translate(-673.748 -2759.955)" fill="#d64076"/>
            <path id="패스_414" data-name="패스 414" d="M702.754,2788.417" transform="translate(-684.426 -2767.099)" fill="#df618b"/>
            <path id="패스_415" data-name="패스 415" d="M694.119,2775.2l-2.481,1.966s-6.514,2.043-9.287-1.77c0,0-4.034-2.282-4-5.782,0,0-2.1-1.9-1.233-2.805l1.3.315-.137-.706.981.973-.674-1.242,1.323,1.012-.25-1.456,1.387,1.394c-.655-.088-.772-2.066-.772-2.066a18.724,18.724,0,0,0,1.657,1.383,11.31,11.31,0,0,0,.291-1.687l.573,1.021.8-2.208.679,2.187.977-2.17.982,3.474.542-2.441,7.38,10.392" transform="translate(-674.91 -2757.941)" fill="#dd4d7d"/>
            <path id="패스_416" data-name="패스 416" d="M703.97,2780.42s14.8-11.033,16.6-9.811l-1.529,1.247,1.882.138-1.444,1.192,1.789-.447-.627,1.1,1.715-.623-1.1,1.932,2.4-.172-1.051.956,1.449-.307s-5.224,11.657-11.233,7.191c0,0-4.5-3.171-8.167-1.067Z" transform="translate(-684.874 -2760.509)" fill="#dd4e7f"/>
            <path id="패스_417" data-name="패스 417" d="M707.094,2769.065s3.991-3.856,6.048-3.183l-.554,1.328,1.472-.908-.676,1.625,1.782-1.123-.741,1.771,1.409-1.107s.71,2.152.154,3.31c0,0-1.063,6.984-7.531,7.9l-5.229,1.157-.418-.347Z" transform="translate(-684.447 -2758.774)" fill="#df618b"/>
            <path id="패스_418" data-name="패스 418" d="M696.677,2778.342s-6.269-5.331-3.187-13.141l.454,1.61.971-1.92.777,2.114.747-1.944.681,1.888.934-1.709.358,2.175,1.11-2.011a15.549,15.549,0,0,0,1.385,1.86s4.2,4.309,1.373,9.014a27.045,27.045,0,0,0-2.443,3.039l-1.685.751-1.475-1.725" transform="translate(-680.702 -2758.439)" fill="#e27e9e"/>
            <path id="패스_419" data-name="패스 419" d="M695.2,2783.927s-.389,8.274,2.352,8.854l3.177.355s3.336.518,4.862-7.291l.354-2.053s-2.6,3.492-3.123-.752c0,0-2.918,4.851-4.837-.272C697.986,2782.769,696.967,2786.385,695.2,2783.927Z" transform="translate(-681.639 -2765.02)" fill="#83c267"/>
            <path id="패스_420" data-name="패스 420" d="M693.238,2798.815s.787,19.031-12.109,70.128l2.067.229S694.66,2819,694.961,2799Z" transform="translate(-676.465 -2770.927)" fill="#71a558"/>
          </g>
          <g id="그룹_250" data-name="그룹 250" transform="translate(42.591 57.575)">
            <path id="패스_421" data-name="패스 421" d="M692.055,2854.674l-.472,2.425-9.346,1.784-4.409-7.485s-.871-3.905.731-4.234l.341.753.361-.946.44,1.349.641-1.283.1,1.021.482-.986.279,1.055.862-.987s.181,1.452.3,1.414a8.423,8.423,0,0,0,.821-.99l.14,1.473.7-1.374.318,1.435.463-.868s0,1.041.1,1.021.7-1.564.74-1.418.384,1.345.384,1.345a8.956,8.956,0,0,1,.5-1.363c.041.12.422,1.467.5,1.352s.624-1.8.665-1.683.518,1.686.518,1.686l.622-.838.7,1.555.883-.512.018,1.677.96-.813-.138,1.929a6.279,6.279,0,0,1,1.16.118c-.02.07-.521.651-.442.7s.7.3.7.3l-.544.581.661.09-.341.735-.4-.026" transform="translate(-660.7 -2846.23)" fill="#d64076"/>
            <path id="패스_422" data-name="패스 422" d="M672.122,2848.9l1.156,2.265-4.5,7.91-7.073-2.923s-2.842-2.515-2.081-3.889l.647.366-.346-1.007,1.065.773-.38-1.47.667.747-.3-1.121.8.649-.074-1.388s.969,1.037,1.017.923a11.259,11.259,0,0,0-.1-1.363l.96,1.082-.4-1.586,1.045.926-.243-1.015s.618.832.665.75-.51-1.738-.4-1.651,1.026.813,1.026.813a11.8,11.8,0,0,1-.512-1.437c.095.068,1.122.879,1.1.735s-.7-1.876-.608-1.808l1.31.987-.125-1.1,1.339.756.22-1.021,1.009,1.328.087-1.317,1.063,1.639s.734-.78.76-.712.078.884.159.869.595-.244.595-.244l.025.84.447-.388.232.824-.251.259" transform="translate(-654.038 -2845.798)" fill="#c02c67"/>
            <path id="패스_423" data-name="패스 423" d="M672.307,2854.188l3.936,8.006,8.348-2.026,0-3.662-1.139-2.512-.324,1.355-.428-1.705-.26,1.562-.851-1.883s-.322,1.759-.43,1.6-.608-1.663-.608-1.663l-.465,1.345-.465-1.4s-.536,1.9-.609,1.692-.434-1.755-.434-1.755l-.132,1.466-.867-.968-.5,1.089-.212-2-.489,1.393-.548-.946-.323,1.149-.716-1.723-.192,1.414-1.062-1.185v1.323l-1.1-1.392v1.172l-.764-.6Z" transform="translate(-658.522 -2848.303)" fill="#dd4d7d"/>
            <path id="패스_424" data-name="패스 424" d="M688.96,2866.571s8.15.39,7.776-3.907c0,0,5.127-4.125,1.508-8.391l-.02,1.229-.644-1.269-.682.876-.162-1.194-.291.939-.389-1.439-.583,1-.323-1.359-.389,1.008-.355-1.052-.38.777-.694-1.3-.773.755-.679-1.188-.13,1.1-.354-1.13-.068.837-.419-.867-.423.509-.128-.964-.682.914-.16-.812a6.973,6.973,0,0,0-2.173,4.336l1.616,10.593" transform="translate(-664.29 -2847.912)" fill="#df6281"/>
            <path id="패스_425" data-name="패스 425" d="M684.118,2883.047" transform="translate(-663.103 -2859.511)" fill="#df618b"/>
            <path id="패스_426" data-name="패스 426" d="M686.033,2873.091s13.334-8.166,15.371-6.706l-1.357.945,1.939.434-1.28.905,1.751-.142-.464.957,1.653-.32-.813,1.672,2.419.217-.922.744,1.432-.058s-3.465,10.3-10.308,5.068c0,0-5.1-3.755-8.5-2.331Z" transform="translate(-663.808 -2853.313)" fill="#d64076"/>
            <path id="패스_427" data-name="패스 427" d="M684.118,2883.047" transform="translate(-663.103 -2859.511)" fill="#df618b"/>
            <path id="패스_428" data-name="패스 428" d="M683.82,2869.713l2.273,2.543s6.541,3.367,10.19-.171c0,0,4.706-1.685,5.315-5.406,0,0,2.583-1.633,1.824-2.754l-1.44.1.277-.726-1.22.854.947-1.2-1.593.832.53-1.5-1.728,1.225c.713.029,1.2-2.051,1.2-2.051a21.1,21.1,0,0,1-2.013,1.164,11.9,11.9,0,0,1,0-1.845l-.8.978-.445-2.494-1.122,2.2-.639-2.48-1.685,3.506-.127-2.691-9.748,9.683" transform="translate(-662.993 -2850.651)" fill="#dd4d7d"/>
            <path id="패스_429" data-name="패스 429" d="M671.318,2872.582s-13.69-14.44-15.834-13.474l1.393,1.606-2.022-.2,1.311,1.529-1.813-.8.462,1.29-1.709-.978.811,2.255-2.515-.625.943,1.209-1.485-.591s3.4,13.343,10.61,9.7c0,0,5.364-2.542,8.868.37Z" transform="translate(-650.859 -2850.681)" fill="#dd4e7f"/>
            <path id="패스_430" data-name="패스 430" d="M674.333,2860.627s-3.531-4.83-5.836-4.491l.343,1.511-1.4-1.239.423,1.852-1.687-1.521.459,2.019-1.3-1.435s-1.148,2.157-.77,3.487c0,0-.157,7.614,6.547,9.781l5.341,2.191.507-.293Z" transform="translate(-655.879 -2849.597)" fill="#df618b"/>
            <path id="패스_431" data-name="패스 431" d="M684.942,2873.044s7.64-4.509,5.8-13.375l-.778,1.628-.677-2.219-1.217,2.1-.435-2.2-1.07,1.881-.679-1.991-.779,2.246-.807-2.343a16.877,16.877,0,0,1-1.816,1.724s-5.248,3.806-3.116,9.321a28.827,28.827,0,0,1,2.038,3.678l1.649,1.107,1.886-1.559" transform="translate(-661.167 -2850.575)" fill="#e27e9e"/>
            <path id="패스_432" data-name="패스 432" d="M686.193,2879.02s-1.106,8.859-4.125,8.974l-3.442-.209s-3.635-.063-3.825-8.64l0-2.246s2.118,4.188,3.458-.222c0,0,2.2,5.687,5.187.6C683.449,2877.274,683.866,2881.3,686.193,2879.02Z" transform="translate(-659.673 -2857.166)" fill="#83c267"/>
            <path id="패스_433" data-name="패스 433" d="M682.744,2894.478s-4.36,20.368-.035,41.946l-2.237-.136s-3.169-23.393.406-41.923Z" transform="translate(-661.284 -2863.677)" fill="#83c267"/>
          </g>
        </g>
        <g id="그룹_254" data-name="그룹 254" transform="translate(0.033 66.865)">
          <path id="패스_434" data-name="패스 434" d="M690.391,2860.5v65.778H583.505V2860.5l35.722,21.122,17.722,10.481,17.819-10.537Z" transform="translate(-583.505 -2860.501)" fill="#f3d4dd"/>
          <g id="그룹_252" data-name="그룹 252" transform="translate(0 21.066)">
            <path id="패스_435" data-name="패스 435" d="M690.391,2935.144v3.409H583.505v-3.379l35.722-41.276.01-.012,35.531-.045h.167Z" transform="translate(-583.505 -2893.841)" fill="#efc2ce"/>
          </g>
          <g id="그룹_253" data-name="그룹 253" transform="translate(6.249 21.127)">
            <path id="패스_436" data-name="패스 436" d="M687.783,2938.592l-31.625-44.654H625.022L593.4,2938.592Z" transform="translate(-593.395 -2893.938)" fill="#f3d4dd"/>
          </g>
        </g>
      </g>
      <path id="패스_437" data-name="패스 437" d="M517.283,2836.871c-3.242-5.361-4.4-13.514-4.5-19.726-.061-3.628-2.28-11.379-7.6-7.684-3.4,2.366-2.919,6.443-2.5,9.93-2.742-1.611-5.425-3.68-8.562-4.456-2.724-.669-7.769.146-6.977,4.058,2.452,12.1,22.289,11.4,29.919,17.931" transform="translate(6.79 -19.808)" fill="#e27d9a"/>
      <path id="패스_438" data-name="패스 438" d="M799.839,2761.354a4.387,4.387,0,0,0-3.595.009,4.985,4.985,0,0,0-2.09,2.407c-.3.6-1.228,2.215-1.126,2.884-.361-2.363-.523-6.056-3.634-6.35-2.263-.212-2.912,1.666-3.115,3.376a9.85,9.85,0,0,0,1.488,5.91c1.4,2.588,1.607,5.327,2.567,8.015.1.274,2.873-3.281,3.089-3.508,1.353-1.422,3.039-2.5,4.324-3.991,1.771-2.05,4.432-4.585,3.126-7.683A2.131,2.131,0,0,0,799.839,2761.354Z" transform="translate(-107.025 -2.064)" fill="#dd5576"/>
      <path id="패스_439" data-name="패스 439" d="M806.654,2859.7c3.806-6.295,5.163-15.869,5.288-23.163.071-4.261,2.677-13.361,8.921-9.023,4,2.778,3.429,7.565,2.933,11.66,3.22-1.891,6.371-4.322,10.054-5.233,3.2-.785,9.122.173,8.193,4.767-2.879,14.2-26.173,13.381-35.133,21.055" transform="translate(-117.653 -26.392)" fill="#e27d9a"/>
    </g>
    <g id="tx" transform="translate(-425.052 -2165.469)">
      <path id="패스_384" data-name="패스 384" d="M510.376,2653.043c-1.8.761-3.9,2.387-3.179,4.207a3.021,3.021,0,0,0,1.267,1.366c3.06,1.926,7.008.9,10.619.712a1.635,1.635,0,0,1,1.35.358,1.655,1.655,0,0,1,.278,1.113c.015,7.236-1.838,14.434-1.243,21.646a3.228,3.228,0,0,0,.485,1.7,2.3,2.3,0,0,0,2.968.326,6.005,6.005,0,0,0,2.006-2.538,38.326,38.326,0,0,0,4.161-17.618c-.013-1.7.049-3.767,1.535-4.6a4.884,4.884,0,0,1,2.013-.436,30.614,30.614,0,0,0,7.09-1.444c1.744-.576,3.654-1.56,4.048-3.354h0c1.269-5.8-9.335-6.619-12.912-6.123C523.864,2649.327,516.937,2650.271,510.376,2653.043Z" transform="translate(0 0)" fill="#db3272"/>
      <path id="패스_385" data-name="패스 385" d="M559.089,2676.989h0c-.316,1.978-.632,3.958-.789,5.954a13.565,13.565,0,0,0,1.01,7.263,1.693,1.693,0,0,0,.616.75c.813.455,1.716-.438,2.157-1.26a15.082,15.082,0,0,0,1.78-7.075,1.563,1.563,0,0,1,.192-.942,1.489,1.489,0,0,1,.891-.455l4.231-1.038a28.9,28.9,0,0,0,.236,9.113c.088.471.252,1.015.7,1.171a1.155,1.155,0,0,0,.815-.094c1.514-.648,2.271-2.323,2.825-3.873a58.7,58.7,0,0,0,3.385-17.938,12.135,12.135,0,0,0-.322-3.767c-.274-.941-.98-1.952-1.956-1.875-.852.067-1.393.918-1.769,1.685a37.264,37.264,0,0,0-2.775,7.7,1.287,1.287,0,0,1-.274.625,1.271,1.271,0,0,1-.7.284c-1.564.284-3.863,1.724-4.692.853s1.365-7.294,1.29-8.213c-.182-2.245-2.431-3-4.164-1.519-1.2,1.024-1.214,2.952-1.4,4.387C560.011,2671.486,559.528,2674.236,559.089,2676.989Z" transform="translate(-19.518 -5.601)" fill="#db3272"/>
      <g id="그룹_244" data-name="그룹 244" transform="translate(582.41 2655.596)">
        <path id="패스_386" data-name="패스 386" d="M650.073,2660.688a1.238,1.238,0,0,0-.789-.544c-.717-.1-1.221.666-1.525,1.324a119.844,119.844,0,0,0-5.167,13.219c-.176.54-.511,1.2-1.076,1.14-.418-.043-.671-.468-.862-.841h0c-1.23-2.4-5.544-11.553-9.243-8.936-1.833,1.3-1.64,4.715-1.864,6.694q-.469,4.153-.638,8.333c-.086,2.149-.008,4.566,1.539,6.06,2.723-2.882,2.246-7.554,4.193-11.009l6.676,9.836c.727,1.071,1.8,2.285,3.056,1.955.983-.26,1.462-1.348,1.787-2.312a86.631,86.631,0,0,0,4.381-22.17A4.208,4.208,0,0,0,650.073,2660.688Z" transform="translate(-628.886 -2660.135)" fill="#db3272"/>
        <path id="패스_387" data-name="패스 387" d="M684.932,2687.382a16.411,16.411,0,0,0-1.043-3.965,32.75,32.75,0,0,0-2.686-4.946l-2.713-4.378a41.349,41.349,0,0,0,7.708-8.626,2.607,2.607,0,0,0,.6-2.309,2.014,2.014,0,0,0-2.241-.937,7.417,7.417,0,0,0-3.89,2.627q-1.915,2.039-3.737,4.163c.079-1.011.143-2.025.177-3.039.058-1.719-.015-3.99-1.8-4.878-1.538-.767-2.841.434-3.513,1.759a27.761,27.761,0,0,0-1.837,6.55,70.295,70.295,0,0,0-1.593,15.237c.009,1.518.2,3.282,1.475,4.1a1.455,1.455,0,0,0,1.017.256,1.83,1.83,0,0,0,.968-.64,13.58,13.58,0,0,0,2.7-5.711c.315-1.138.6-2.285.857-3.437l5.378,7.217a5.241,5.241,0,0,0,2.874,2.353,1.163,1.163,0,0,0,1.1-.256A1.423,1.423,0,0,0,684.932,2687.382Z" transform="translate(-643.948 -2660.409)" fill="#db3272"/>
      </g>
      <g id="그룹_245" data-name="그룹 245" transform="translate(558.987 2657.971)">
        <path id="패스_388" data-name="패스 388" d="M609.624,2685.3a33.581,33.581,0,0,0-1.362-17.183c-.6-1.708-1.562-3.56-3.311-4.033a4.289,4.289,0,0,0-2.473.173c-3.643,1.234-5.574,5.127-6.978,8.707h0q-1.523,3.882-2.818,7.848c-.665,2.036-2.133,4.857-1.517,7.027a2.706,2.706,0,0,0,3.751,2c2.123-.986,2.749-3.815,3.63-5.746.32-.7.785-1.449,1.54-1.6a2.645,2.645,0,0,1,.956.05,4.44,4.44,0,0,1,2.982,1.369,5.925,5.925,0,0,1,.617,3.108c.08,1.069.548,2.313,1.6,2.527a2.061,2.061,0,0,0,1.693-.55A6.17,6.17,0,0,0,609.624,2685.3Zm-5-8.62a.515.515,0,0,1-.343.073l-2.438-.059a13.181,13.181,0,0,1-1.708-.116.4.4,0,0,1-.316-.164.408.408,0,0,1,.019-.306,22.782,22.782,0,0,1,2.239-4.75l.5-.293a7.759,7.759,0,0,1,2.166,5.208A.5.5,0,0,1,604.619,2676.684Z" transform="translate(-591.017 -2663.975)" fill="#db3272"/>
      </g>
      <path id="패스_389" data-name="패스 389" d="M726.428,2666.905c.531,1.835.83,4.2,2.563,5,1.917.892,4.171-.527,5.358-2.276s1.8-3.87,3.193-5.465c.782-.9,2.089-1.622,3.128-1.039s1.1,2.005,1.019,3.181c-.618,8.726-1.456,15.335-5.125,23.277-1.089,2.356-3.769,6.756-5.934,8.187a9.326,9.326,0,0,1-4.548,1.442,11.665,11.665,0,0,1-9.223-3.728,12.532,12.532,0,0,1-3.121-7.683c-.143-4.788,4.173-5.7,6.191-1.82,1.222,2.35,1.88,6.482,5.357,6.2,5.822-.466,9.65-9.377,9.191-14.223-2.556,1.542-6.572,3.776-10.752,1.791-3.455-1.641-5.289-8.571-4.807-12.393C719.555,2662.33,724.832,2661.389,726.428,2666.905Z" transform="translate(-78.844 -5.601)" fill="#db3272"/>
      <path id="패스_390" data-name="패스 390" d="M797.184,2684.8h0a18.081,18.081,0,0,0,1.932,7.413,6.566,6.566,0,0,0,3,2.885,6.462,6.462,0,0,0,4.041.159c3.827-.949,6.794-4.121,8.47-7.689s2.253-7.539,2.8-11.443a17.779,17.779,0,0,0,.242-4.588,8.956,8.956,0,0,0-1.81-4.394,2.041,2.041,0,0,0-.987-.788c-.967-.271-1.78.743-2.233,1.64a28.816,28.816,0,0,0-2.74,8.494c-.349,2.216-.469,4.566-1.66,6.467-.576.919-1.651,1.754-2.667,1.373a2.745,2.745,0,0,1-1.385-1.984,18.085,18.085,0,0,1-.409-8.06c.2-1.142.515-2.265.648-3.417a6.189,6.189,0,0,0-.431-3.406c-1.217-2.51-4.99-2.618-5.981.072-1.1,2.989-1,6.963-1.071,10.095A62.348,62.348,0,0,0,797.184,2684.8Z" transform="translate(-110.578 -6.604)" fill="#db3272"/>
      <g id="그룹_246" data-name="그룹 246" transform="translate(664.991 2657.467)">
        <path id="패스_391" data-name="패스 391" d="M776.891,2665.169a8.051,8.051,0,0,0-8.6-1.269c-3.883,1.98-4.892,7.161-5.5,11.064-.81,5.194-.5,10.781,2.131,15.445a8.342,8.342,0,0,0,3.429,3.58,6.7,6.7,0,0,0,5.822-.25,11.726,11.726,0,0,0,4.33-4.108C782.874,2683.052,783.634,2670.62,776.891,2665.169Zm-2.9,17.788a4.472,4.472,0,0,1-1.418,1.6,1.841,1.841,0,0,1-1.853.153,2.744,2.744,0,0,1-1.054-1.323h0a10.454,10.454,0,0,1-.521-5.835c.233-1.487.606-3.461,1.86-4.252a2.191,2.191,0,0,1,2.72.394C775.814,2675.7,775.447,2680.418,773.992,2682.958Z" transform="translate(-762.4 -2663.159)" fill="#db3272"/>
      </g>
    </g>
  </g>
</svg>
