<svg xmlns="http://www.w3.org/2000/svg" width="90" height="54" viewBox="0 0 90 54">
  <g id="thumb02" transform="translate(-181 -330)">
    <rect id="사각형_5" data-name="사각형 5" width="90" height="54" rx="8" transform="translate(181 330)" fill="#fff5d2"/>
    <g id="그룹_256" data-name="그룹 256" transform="translate(194.846 338.331)">
      <g id="그룹_255" data-name="그룹 255" transform="translate(13.52)">
        <g id="그룹_251" data-name="그룹 251">
          <path id="패스_392" data-name="패스 392" d="M583.453,2860.472l.011.006v-.006Z" transform="translate(-583.453 -2841.724)" fill="#add4de"/>
          <path id="패스_393" data-name="패스 393" d="M752.677,2860.472h-.011v.006Z" transform="translate(-716.076 -2841.724)" fill="#add4de"/>
          <path id="패스_394" data-name="패스 394" d="M620.056,2821.087l-18.3-10.685-18.3,10.685.013.005h0v.006l18.29,10.678,18.289-10.678v-.006h0Z" transform="translate(-583.455 -2802.434)" fill="#b6556d"/>
          <g id="그룹_248" data-name="그룹 248" transform="translate(0.235 4.49)">
            <path id="패스_395" data-name="패스 395" d="M616.654,2796.314l.024.966-3.463,1.471-2.345-2.487s-.673-1.417-.08-1.679l.2.26.059-.393.285.479.139-.544.126.382.1-.418.2.38.249-.45s.194.54.237.514a3.23,3.23,0,0,0,.234-.448l.18.551.154-.585.247.522.1-.371s.088.4.125.383.139-.657.167-.605l.262.482a3.429,3.429,0,0,1,.077-.564c.026.042.288.525.309.476s.086-.742.112-.7.345.6.345.6l.169-.372.4.534.3-.271.151.641.3-.393.109.749a2.569,2.569,0,0,1,.46-.053c0,.028-.146.294-.11.307s.3.056.3.056l-.159.269.263-.022-.069.309-.158.024" transform="translate(-604.922 -2793.934)" fill="#d64076"/>
            <path id="패스_396" data-name="패스 396" d="M596.389,2797.36l.643.768-1.065,3.4-2.986-.519s-1.315-.722-1.138-1.311l.282.085-.22-.356.477.206-.273-.529.322.229-.212-.4.363.181-.147-.524s.464.316.472.266a4.286,4.286,0,0,0-.154-.511l.464.332-.291-.573.484.267-.181-.368s.309.266.322.23-.346-.621-.3-.6l.466.224a4.551,4.551,0,0,1-.322-.506c.043.018.51.242.49.188s-.432-.658-.389-.639.592.266.592.266l-.143-.409.584.176,0-.409.5.422-.078-.511.551.536s.216-.36.233-.336.107.332.135.32.21-.145.21-.145l.081.319.139-.186.161.3-.076.12" transform="translate(-590.25 -2795.902)" fill="#c02c67"/>
            <path id="패스_397" data-name="패스 397" d="M605.193,2803.346l2.208,2.727,3.056-1.479-.312-1.4-.655-.864-.01.544-.311-.616.033.619-.49-.647s.025.7-.03.647-.378-.584-.378-.584l-.065.553-.3-.5s-.046.771-.091.7-.318-.634-.318-.634l.075.571-.418-.3-.1.459-.253-.745-.07.574-.293-.316-.027.467-.424-.6.047.556-.512-.363.112.505-.544-.438.1.447-.347-.165Z" transform="translate(-600.478 -2800.461)" fill="#dd4d7d"/>
            <path id="패스_398" data-name="패스 398" d="M625.235,2804.416s3.187-.539,2.676-2.149c0,0,1.63-2.008-.135-3.332l.1.471-.358-.431-.189.393-.164-.443-.032.383-.273-.516-.141.431-.24-.493-.065.418-.227-.373-.081.33-.38-.439-.234.354-.365-.4.044.431-.234-.4.047.325-.237-.3-.12.231-.132-.358-.185.407-.132-.3a2.708,2.708,0,0,0-.47,1.84l1.53,3.91" transform="translate(-615.218 -2797.569)" fill="#df6281"/>
            <path id="패스_399" data-name="패스 399" d="M626.258,2836.174" transform="translate(-617.237 -2827.156)" fill="#df618b"/>
            <path id="패스_400" data-name="패스 400" d="M626.935,2814.663s4.461-4.244,5.375-3.859l-.445.476.788,0-.418.455.665-.2-.1.4.611-.261-.171.707.955-.121-.293.362.548-.142s-.46,4.226-3.556,2.8c0,0-2.293-1-3.487-.172Z" transform="translate(-617.767 -2807.182)" fill="#d64076"/>
            <path id="패스_401" data-name="패스 401" d="M626.258,2836.174" transform="translate(-617.237 -2827.156)" fill="#df618b"/>
            <path id="패스_402" data-name="패스 402" d="M624.079,2809.4l1.1.778s2.819.734,3.928-.924c0,0,1.677-1.041,1.595-2.514,0,0,.859-.842.47-1.206l-.548.158.045-.3-.4.429.264-.536-.545.451.077-.617-.565.614c.278-.05.289-.885.289-.885a8.109,8.109,0,0,1-.68.615,4.753,4.753,0,0,1-.157-.706l-.226.441-.385-.914-.247.934-.459-.894-.352,1.482-.279-1.018-2.944,4.521" transform="translate(-615.513 -2802.072)" fill="#dd4d7d"/>
            <path id="패스_403" data-name="패스 403" d="M593.205,2819.254s-6.532-4.361-7.278-3.811l.677.5-.8.1.639.473-.771-.153.289.453-.744-.229.506.792-1.026-.026.468.382-.625-.1s2.457,4.81,4.934,2.811c0,0,1.859-1.424,3.463-.607Z" transform="translate(-584.539 -2810.813)" fill="#dd4e7f"/>
            <path id="패스_404" data-name="패스 404" d="M602.679,2810.139s-1.778-1.547-2.642-1.225l.264.549-.648-.354.321.671-.782-.438.35.732-.624-.44a2.4,2.4,0,0,0,0,1.4s.591,2.921,3.37,3.183l2.253.386.172-.154Z" transform="translate(-595.718 -2805.681)" fill="#df618b"/>
            <path id="패스_405" data-name="패스 405" d="M620.194,2812.169a5,5,0,0,0,1.1-5.6l-.161.687-.453-.79-.29.906-.358-.8-.252.81-.433-.7-.109.923-.513-.826a6.593,6.593,0,0,1-.555.811s-1.706,1.9-.409,3.823a11.36,11.36,0,0,1,1.1,1.233l.733.284.6-.755" transform="translate(-610.197 -2803.792)" fill="#e27e9e"/>
            <path id="패스_406" data-name="패스 406" d="M618.813,2829.383s.329,3.478-.829,3.777l-1.349.21s-1.413.283-2.219-2.977l-.191-.858s1.178,1.42,1.319-.377c0,0,1.34,1.987,2.058-.21C617.6,2828.947,618.109,2830.451,618.813,2829.383Z" transform="translate(-607.806 -2821.472)" fill="#83c267"/>
            <path id="패스_407" data-name="패스 407" d="M627.273,2849a44.909,44.909,0,0,0,3.572,16.025l-.877.136s-3.227-8.667-3.427-16.048Z" transform="translate(-617.459 -2837.241)" fill="#83c267"/>
          </g>
          <g id="그룹_249" data-name="그룹 249" transform="translate(19.525)">
            <path id="패스_408" data-name="패스 408" d="M690.874,2756.669l.017.773,2.827,1.051,1.784-2.077s.485-1.159,0-1.346l-.147.214-.061-.311-.21.393-.132-.431-.086.311-.1-.331-.144.312-.216-.352s-.135.44-.17.42a2.51,2.51,0,0,1-.2-.35l-.123.448-.145-.463-.177.427-.1-.293s-.057.322-.087.31-.135-.52-.155-.477l-.192.4a2.769,2.769,0,0,0-.083-.448c-.019.035-.211.43-.23.392s-.1-.591-.116-.556-.254.494-.254.494l-.149-.292-.3.443-.248-.206-.1.517-.257-.3-.06.6a2.065,2.065,0,0,0-.37-.026c0,.022.128.229.1.242s-.236.055-.236.055l.138.209-.211-.009.066.245.127.015" transform="translate(-687.019 -2754.679)" fill="#d64076"/>
            <path id="패스_409" data-name="패스 409" d="M710.357,2756.669l-.485.638.979,2.684,2.371-.524s1.025-.625.861-1.091l-.222.078.163-.292-.374.182.2-.434-.248.2.154-.331-.284.158.1-.425s-.36.269-.368.231a3.554,3.554,0,0,1,.105-.415l-.358.283.21-.469-.376.231.13-.3s-.238.224-.248.2.254-.51.215-.488l-.365.2a3.559,3.559,0,0,0,.237-.417c-.033.016-.4.212-.384.168s.321-.541.288-.525l-.464.235.1-.333-.461.162-.013-.327-.387.356.043-.412-.422.449s-.186-.28-.2-.26-.073.269-.1.26-.174-.107-.174-.107l-.052.258-.119-.143-.117.241.066.093" transform="translate(-702.061 -2755.622)" fill="#c02c67"/>
            <path id="패스_410" data-name="패스 410" d="M702.53,2761.881l-1.665,2.262-2.5-1.072.2-1.131.493-.715.027.436.227-.5,0,.5.368-.535s.006.56.048.517.28-.482.28-.482l.074.44.221-.408s.065.616.1.555.231-.519.231-.519l-.038.46.323-.252.1.364.175-.606.078.457.223-.264.039.372.316-.494-.017.447.4-.309-.072.409.42-.371-.063.361.271-.145Z" transform="translate(-693.04 -2759.744)" fill="#dd4d7d"/>
            <path id="패스_411" data-name="패스 411" d="M688.4,2763.072s-2.571-.315-2.222-1.622c0,0-1.38-1.548-.017-2.672l-.061.38.271-.357.166.307.114-.359.041.3.2-.423.128.34.175-.4.068.332.168-.306.076.26.288-.365.2.275.277-.331-.018.347.171-.33-.024.261.178-.245.1.18.092-.291.163.318.095-.242a2.172,2.172,0,0,1,.445,1.456l-1.079,3.185" transform="translate(-683.004 -2757.57)" fill="#df6281"/>
            <path id="패스_412" data-name="패스 412" d="M702.754,2788.417" transform="translate(-696.482 -2781.214)" fill="#df618b"/>
            <path id="패스_413" data-name="패스 413" d="M679.845,2771.927s-3.728-3.234-4.445-2.893l.374.365-.631.03.352.348-.54-.137.093.32-.5-.187.163.559-.768-.062.248.279-.445-.094s.526,3.367,2.95,2.116c0,0,1.8-.887,2.785-.265Z" transform="translate(-673.748 -2765.95)" fill="#d64076"/>
            <path id="패스_414" data-name="패스 414" d="M702.754,2788.417" transform="translate(-696.482 -2781.214)" fill="#df618b"/>
            <path id="패스_415" data-name="패스 415" d="M682.8,2767.479l-.849.665s-2.229.69-3.178-.6c0,0-1.381-.771-1.37-1.954,0,0-.72-.642-.422-.948l.445.107-.047-.239.336.328-.23-.419.453.342-.086-.492.475.471c-.224-.03-.264-.7-.264-.7a6.432,6.432,0,0,0,.567.467,3.787,3.787,0,0,0,.1-.57l.2.345.274-.746.232.739.334-.733.336,1.174.186-.825,2.526,3.511" transform="translate(-676.222 -2761.648)" fill="#dd4d7d"/>
            <path id="패스_416" data-name="패스 416" d="M703.97,2773.862s5.064-3.728,5.682-3.315l-.523.421.644.046-.494.4.612-.15-.215.373.587-.21-.375.653.821-.058-.36.323.5-.1s-1.788,3.939-3.844,2.43c0,0-1.54-1.071-2.795-.36Z" transform="translate(-697.435 -2767.134)" fill="#dd4e7f"/>
            <path id="패스_417" data-name="패스 417" d="M704.276,2766.905s1.366-1.3,2.07-1.075l-.189.448.5-.307-.231.549.61-.379-.253.6.482-.374a1.918,1.918,0,0,1,.053,1.119,3.238,3.238,0,0,1-2.577,2.67l-1.79.391-.143-.117Z" transform="translate(-696.526 -2763.428)" fill="#df618b"/>
            <path id="패스_418" data-name="패스 418" d="M694.02,2769.436a4.012,4.012,0,0,1-1.09-4.44l.155.544.332-.649.266.714.256-.657.233.638.32-.578.123.735.38-.679a5.253,5.253,0,0,0,.474.628,2.606,2.606,0,0,1,.47,3.046,9.18,9.18,0,0,0-.836,1.027l-.577.254-.5-.583" transform="translate(-688.553 -2762.71)" fill="#e27e9e"/>
            <path id="패스_419" data-name="패스 419" d="M695.188,2783.16s-.133,2.8.805,2.992l1.087.12s1.141.175,1.664-2.464l.121-.694s-.889,1.18-1.069-.254c0,0-1,1.639-1.655-.092C696.141,2782.769,695.793,2783.99,695.188,2783.16Z" transform="translate(-690.547 -2776.771)" fill="#83c267"/>
            <path id="패스_420" data-name="패스 420" d="M685.273,2798.814s.27,6.431-4.144,23.7l.707.077s3.923-16.953,4.026-23.708Z" transform="translate(-679.533 -2789.392)" fill="#71a558"/>
          </g>
          <g id="그룹_250" data-name="그룹 250" transform="translate(14.576 11.972)">
            <path id="패스_421" data-name="패스 421" d="M682.541,2849.574l-.161.82-3.2.6-1.509-2.529s-.3-1.32.25-1.43l.117.254.123-.32.151.456.219-.434.034.345.165-.333.1.357.3-.334s.062.491.1.478a2.838,2.838,0,0,0,.281-.334l.048.5.24-.464.109.485.158-.293s0,.352.034.345.24-.529.253-.479l.131.454a3.006,3.006,0,0,1,.171-.46c.014.041.144.5.171.457s.214-.609.227-.569.177.57.177.57l.213-.283.24.525.3-.173.006.567.329-.275-.047.652a2.174,2.174,0,0,1,.4.04c-.007.023-.178.22-.151.238s.241.1.241.1l-.186.2.226.03-.117.249-.138-.009" transform="translate(-671.81 -2846.721)" fill="#d64076"/>
            <path id="패스_422" data-name="패스 422" d="M663.816,2846.844l.4.765-1.54,2.673-2.42-.988s-.973-.85-.712-1.314l.221.124-.118-.34.364.261-.13-.5.228.253-.1-.379.273.219-.025-.469s.332.351.348.312a3.747,3.747,0,0,0-.034-.461l.328.366-.137-.536.358.313-.083-.343s.211.281.228.253-.174-.587-.137-.558l.351.275a3.947,3.947,0,0,1-.175-.485c.032.023.384.3.378.248s-.241-.634-.208-.611l.448.333-.043-.371.458.255.076-.345.345.449.03-.445.364.554s.251-.264.26-.241.027.3.054.293.2-.082.2-.082l.008.284.153-.131.079.279-.086.087" transform="translate(-657.628 -2845.798)" fill="#c02c67"/>
            <path id="패스_423" data-name="패스 423" d="M671.891,2853.138l1.347,2.705,2.857-.685v-1.237l-.39-.849-.111.458-.146-.576-.089.528-.291-.636s-.11.594-.147.54-.208-.562-.208-.562l-.159.454-.159-.474s-.184.642-.208.571-.148-.593-.148-.593l-.045.5-.3-.327-.172.368-.073-.675-.167.471-.188-.32-.111.389-.245-.582-.066.478-.363-.4v.447l-.377-.47v.4l-.261-.2Z" transform="translate(-667.174 -2851.15)" fill="#dd4d7d"/>
            <path id="패스_424" data-name="패스 424" d="M687.9,2856.618s2.789.132,2.661-1.32c0,0,1.755-1.394.516-2.835l-.007.415-.221-.429-.233.3-.055-.4-.1.318-.133-.486-.2.337-.111-.459-.133.34-.121-.355-.13.262-.238-.44-.265.255-.232-.4-.044.372-.121-.382-.023.283-.143-.293-.145.172-.044-.325-.233.309-.055-.274a2.347,2.347,0,0,0-.744,1.465l.553,3.579" transform="translate(-679.455 -2850.313)" fill="#df6281"/>
            <path id="패스_425" data-name="패스 425" d="M684.118,2883.047" transform="translate(-676.926 -2875.094)" fill="#df618b"/>
            <path id="패스_426" data-name="패스 426" d="M686.033,2868.535s4.563-2.759,5.26-2.266l-.464.319.663.146-.438.306.6-.048-.159.323.566-.108-.278.565.828.073-.315.251.49-.02s-1.186,3.481-3.528,1.712c0,0-1.745-1.269-2.91-.788Z" transform="translate(-678.427 -2861.852)" fill="#d64076"/>
            <path id="패스_427" data-name="패스 427" d="M684.118,2883.047" transform="translate(-676.926 -2875.094)" fill="#df618b"/>
            <path id="패스_428" data-name="패스 428" d="M683.82,2862.606l.778.86s2.238,1.138,3.487-.058c0,0,1.611-.569,1.819-1.827,0,0,.884-.552.624-.931l-.493.033.095-.245-.417.289.324-.4-.545.281.181-.507-.591.414c.244.01.411-.693.411-.693a7.235,7.235,0,0,1-.689.393,3.973,3.973,0,0,1,0-.624l-.273.331-.152-.843-.384.742-.219-.838-.577,1.184-.043-.909-3.336,3.272" transform="translate(-676.693 -2856.166)" fill="#dd4d7d"/>
            <path id="패스_429" data-name="패스 429" d="M657.86,2863.63s-4.685-4.879-5.419-4.553l.477.542-.692-.067.449.516-.62-.272.158.436-.585-.33.277.762-.861-.211.323.409-.508-.2s1.164,4.509,3.631,3.279c0,0,1.836-.859,3.035.125Z" transform="translate(-650.859 -2856.23)" fill="#dd4e7f"/>
            <path id="패스_430" data-name="패스 430" d="M667.861,2857.642s-1.208-1.632-2-1.517l.117.51-.479-.418.145.626-.577-.514.157.682-.443-.485a2.074,2.074,0,0,0-.263,1.178,3.472,3.472,0,0,0,2.241,3.3l1.828.74.174-.1Z" transform="translate(-661.546 -2853.916)" fill="#df618b"/>
            <path id="패스_431" data-name="패스 431" d="M680.94,2863.6a4.343,4.343,0,0,0,1.985-4.519l-.266.55-.232-.75-.416.711-.149-.744-.366.636-.232-.673-.267.759-.276-.791a5.759,5.759,0,0,1-.621.583,2.819,2.819,0,0,0-1.066,3.149,9.724,9.724,0,0,1,.7,1.242l.564.374.645-.527" transform="translate(-672.804 -2856.004)" fill="#e27e9e"/>
            <path id="패스_432" data-name="패스 432" d="M678.7,2877.469s-.379,2.993-1.412,3.032l-1.178-.071s-1.244-.021-1.309-2.919v-.759s.725,1.415,1.183-.075c0,0,.755,1.921,1.775.2C677.761,2876.879,677.9,2878.24,678.7,2877.469Z" transform="translate(-669.624 -2870.084)" fill="#83c267"/>
            <path id="패스_433" data-name="패스 433" d="M680.4,2894.4a38.725,38.725,0,0,0-.012,14.173l-.766-.046s-1.085-7.9.139-14.166Z" transform="translate(-673.053 -2883.995)" fill="#83c267"/>
          </g>
        </g>
        <g id="그룹_254" data-name="그룹 254" transform="translate(0.011 15.111)">
          <path id="패스_434" data-name="패스 434" d="M620.084,2860.5v22.226H583.505V2860.5l12.225,7.137,6.065,3.541,6.1-3.561Z" transform="translate(-583.505 -2860.501)" fill="#f3d4dd"/>
          <g id="그룹_252" data-name="그룹 252" transform="translate(0 7.118)">
            <path id="패스_435" data-name="패스 435" d="M620.084,2907.8v1.152H583.505v-1.142l12.225-13.947,0,0,12.159-.015h.057Z" transform="translate(-583.505 -2893.84)" fill="#efc2ce"/>
          </g>
          <g id="그룹_253" data-name="그룹 253" transform="translate(2.139 7.139)">
            <path id="패스_436" data-name="패스 436" d="M625.7,2909.025l-10.823-15.088H604.218L593.4,2909.025Z" transform="translate(-593.395 -2893.937)" fill="#f3d4dd"/>
          </g>
        </g>
      </g>
      <path id="패스_437" data-name="패스 437" d="M497.4,2818.077a14.26,14.26,0,0,1-1.541-6.665c-.021-1.226-.78-3.844-2.6-2.6-1.165.8-1,2.177-.855,3.355a11.632,11.632,0,0,0-2.93-1.506c-.932-.227-2.659.049-2.388,1.371.839,4.087,7.628,3.851,10.239,6.059" transform="translate(-487.061 -2799.44)" fill="#e27d9a"/>
      <path id="패스_438" data-name="패스 438" d="M790.887,2760.648a1.519,1.519,0,0,0-1.23,0,1.69,1.69,0,0,0-.715.813,2.724,2.724,0,0,0-.385.975c-.123-.8-.179-2.047-1.244-2.146-.775-.072-1,.563-1.066,1.141a3.294,3.294,0,0,0,.509,2,17.586,17.586,0,0,1,.878,2.708,10.161,10.161,0,0,0,1.057-1.185c.463-.481,1.04-.845,1.48-1.349.606-.692,1.517-1.549,1.07-2.6A.723.723,0,0,0,790.887,2760.648Z" transform="translate(-737.461 -2759.091)" fill="#dd5576"/>
      <path id="패스_439" data-name="패스 439" d="M806.654,2837.632c1.3-2.126,1.767-5.362,1.81-7.826.024-1.44.916-4.515,3.053-3.049,1.368.939,1.173,2.556,1,3.94a13.662,13.662,0,0,1,3.441-1.769c1.094-.265,3.122.059,2.8,1.611-.985,4.8-8.957,4.521-12.023,7.114" transform="translate(-753.469 -2814.479)" fill="#e27d9a"/>
    </g>
  </g>
</svg>
