<svg xmlns="http://www.w3.org/2000/svg" width="90" height="54" viewBox="0 0 90 54">
  <g id="thumb05" transform="translate(-670 -330)">
    <rect id="사각형_8" data-name="사각형 8" width="90" height="54" rx="8" transform="translate(670 330)" fill="#dad7f4"/>
    <g id="그룹_285" data-name="그룹 285" transform="translate(684.707 335.041)">
      <ellipse id="타원_8" data-name="타원 8" cx="12.137" cy="1.268" rx="12.137" ry="1.268" transform="translate(17.97 41.382)" fill="#45416d" opacity="0.31"/>
      <path id="패스_456" data-name="패스 456" d="M1672.949,2775.782a1.446,1.446,0,0,0,.093-1.149c-.168-.569-.589-.488-.844-.863-.175-.209.015-.72-.11-1.04a1.224,1.224,0,0,0-.809-.684c-2.057-.733-4.161,1.983-3.216,3.65a5.025,5.025,0,0,0,2.647,1.816c.483.211,1.01.408,1.329-.048a1.212,1.212,0,0,0-.185-1.3,1.318,1.318,0,0,0,1.107-.408" transform="translate(-1617.682 -2764.942)" fill="#d18b8a"/>
      <path id="패스_457" data-name="패스 457" d="M1647.708,2743.655a1.233,1.233,0,0,0-.956.063c-.448.2-.332.53-.611.778-.151.165-.594.073-.842.212a.992.992,0,0,0-.466.729c-.359,1.733,2.126,3.094,3.386,2.14a4.045,4.045,0,0,0,1.18-2.335c.116-.411.216-.856-.2-1.058a1.028,1.028,0,0,0-1.051.3,1.055,1.055,0,0,0-.468-.837" transform="translate(-1599.844 -2741.536)" fill="#d18b8a"/>
      <path id="패스_461" data-name="패스 461" d="M1424.8,2761.145a.783.783,0,0,0-.592-.141c-.311.038-.3.259-.52.357-.123.072-.375-.067-.552-.029a.638.638,0,0,0-.423.354c-.552.984.692,2.275,1.64,1.932.534-.176.857-.724,1.166-1.194.15-.228.3-.479.085-.679a.655.655,0,0,0-.7-.014.667.667,0,0,0-.122-.6" transform="translate(-1415.288 -2755.072)" fill="#d18b8a"/>
      <path id="패스_462" data-name="패스 462" d="M1621.722,2822.547c2.467-1.824,6.784-3.953,9.251-1.216-1.85,2.128-6.449,2.072-8.916,1.464" transform="translate(-1579.71 -2803.921)" fill="#6c8f81"/>
      <path id="패스_463" data-name="패스 463" d="M1396.341,2779.98c-2.874-1.1-6.985-3.6-5.929-7.108,2.81.427,5.188,4.309,5.966,6.7" transform="translate(-1390.242 -2765.755)" fill="#6c8f81"/>
      <path id="패스_464" data-name="패스 464" d="M1706.3,2737.429c-.1-1.227.112-3.078,1.673-3.042.352,1.13-.675,2.218-1.461,2.771" transform="translate(-1647.457 -2734.387)" fill="#6c8f81"/>
      <g id="그룹_357" data-name="그룹 357" transform="translate(6.062 4.937)">
        <path id="패스_450" data-name="패스 450" d="M1479.132,2821.5l6.22,6.39,21.123.271,5.6-6.34Z" transform="translate(-1471.567 -2809.845)" fill="#333762"/>
        <path id="패스_455" data-name="패스 455" d="M1546.513,2800.983l-3.594-.039.067-6.127c0-.062.2-.11.44-.108l2.716.03c.242,0,.439.055.438.117Z" transform="translate(-1521.003 -2787.845)" fill="#52569b"/>
        <g id="그룹_261" data-name="그룹 261" transform="translate(13.837)">
          <g id="그룹_259" data-name="그룹 259" transform="translate(9.48)">
            <path id="패스_451" data-name="패스 451" d="M1561.886,2766.265a2.052,2.052,0,0,1-.634,1.265c-2.113,2.371-6.688,4.681-9.4,2.673.337-.027,1.2.068,1.888-.007,1.641-.178,2.86-1.69,3.874-3.056.622-.837,1.008-3.368,2.077-3.611C1560.707,2763.3,1561.9,2765.293,1561.886,2766.265Z" transform="translate(-1551.223 -2761.961)" fill="#3c3781"/>
            <path id="패스_452" data-name="패스 452" d="M1550.508,2761.393a13.906,13.906,0,0,1,2.779-3.29,5.268,5.268,0,0,1,3.892-1.533,1.055,1.055,0,0,1,.485.136,1.31,1.31,0,0,1,.377.454c.57.946,1.716,2.248,1.7,3.493a10.649,10.649,0,0,0-7.246,1.415c-1.605.958-2.7,2.89-2.858,2.872C1548.13,2764.776,1550.1,2762.063,1550.508,2761.393Z" transform="translate(-1549.078 -2756.555)" fill="#333762"/>
          </g>
          <g id="그룹_260" data-name="그룹 260" transform="translate(0 0.181)">
            <path id="패스_453" data-name="패스 453" d="M1507.048,2766.951a2.052,2.052,0,0,0,.607,1.278c2.06,2.416,6.583,4.823,9.343,2.874-.337-.035-1.2.042-1.887-.048-1.637-.213-2.822-1.75-3.806-3.138-.6-.851-.934-3.389-2-3.655C1508.293,2764.008,1507.054,2765.979,1507.048,2766.951Z" transform="translate(-1507.048 -2762.709)" fill="#3c3781"/>
            <path id="패스_454" data-name="패스 454" d="M1516.277,2762.341a13.916,13.916,0,0,0-2.706-3.349,5.267,5.267,0,0,0-3.858-1.616,1.066,1.066,0,0,0-.488.125,1.328,1.328,0,0,0-.387.446c-.59.934-1.765,2.211-1.778,3.456a10.643,10.643,0,0,1,7.213,1.57c1.584.992,2.635,2.947,2.794,2.933C1518.579,2765.774,1516.671,2763.021,1516.277,2762.341Z" transform="translate(-1507.057 -2757.368)" fill="#333762"/>
          </g>
        </g>
        <path id="패스_637" data-name="패스 637" d="M0,0,20.576.13l.024,6.1L.024,6.1Z" transform="matrix(1, 0.011, -0.011, 1, 13.659, 6.749)" fill="#95a6d3"/>
        <path id="패스_465" data-name="패스 465" d="M1440.432,2897.99s-6.8-7.065-16.347-1.268l-5.327,3.441,2.755,2.174s7.347-7.97,16.164-2.717Z" transform="translate(-1418.758 -2871.243)" fill="#333762"/>
        <g id="그룹_264" data-name="그룹 264" transform="translate(12.599 4.457)">
          <path id="패스_466" data-name="패스 466" d="M1523.146,2815.2c-4.982,7.815-9.395,15.246-14.673,22.872-.848,1.209-3.237,4.682-1.555,3.006.574-.632,2.389-3.472,2.968-4.352,4.783-7.193,9.5-14.681,14.243-21.9" transform="translate(-1506.332 -2813.788)" fill="#6c8f81"/>
          <g id="그룹_263" data-name="그룹 263" transform="translate(14.14)">
            <path id="패스_467" data-name="패스 467" d="M1578.405,2783.813c0-2.506-3.632-.666-5.3-2.19-1.313-1.1-1.015-4.732-3.281-2.33-1.069,1.148-.958,5.1-.3,7.436l-.09-.223c.763,5.325,8.276,3.142,10.644.919C1582.09,2785.614,1582.185,2780.782,1578.405,2783.813Z" transform="translate(-1569.024 -2778.061)" fill="#edc4c2"/>
            <path id="패스_468" data-name="패스 468" d="M1576.75,2776.7c-2.752.323-1.072,1.9-.928,3.507.053,1.33-.887,2.693.383,3.732,1.133.86,2.078.209,3.167,1.168.906.64,1.865,2.371,3.214,1.545.719-.393.49-1.089.848-1.642.582-.81.764-.492,1.483-1.123,1.258-1.1,1.749-1.954.522-3.33-.319-.5-1.042-.581-1.405-.98-.546-.717-.687-1.611-1.186-2.188-1.546-1.873-2.889.143-5.014-.444" transform="translate(-1573.794 -2776.571)" fill="#d18b8a"/>
            <g id="그룹_262" data-name="그룹 262" transform="translate(5.468 3.072)">
              <path id="패스_469" data-name="패스 469" d="M1594.408,2790.6c-.312-.389-1.448-.338-1.058.431.348.492,1.009.186,1.093-.388" transform="translate(-1593.269 -2790.364)" fill="#723b26"/>
              <path id="패스_470" data-name="패스 470" d="M1600.535,2793.166c-.312-.389-1.449-.338-1.059.431.349.491,1.009.186,1.093-.388" transform="translate(-1598.014 -2792.357)" fill="#723b26"/>
              <path id="패스_471" data-name="패스 471" d="M1595.119,2796.986c-.312-.39-1.448-.338-1.058.43.348.492,1.009.186,1.093-.387" transform="translate(-1593.82 -2795.326)" fill="#723b26"/>
            </g>
          </g>
        </g>
        <g id="그룹_267" data-name="그룹 267" transform="translate(12.266 5.049)">
          <path id="패스_472" data-name="패스 472" d="M1518.4,2816.73c1.8,7.954,3.713,15.317,5.206,23.333.23,1.277.919,4.919.918,2.838-.038-.748-.689-3.641-.88-4.548-1.531-7.441-3.292-15.024-4.862-22.458" transform="translate(-1512.393 -2815.212)" fill="#6c8f81"/>
          <g id="그룹_266" data-name="그룹 266">
            <path id="패스_473" data-name="패스 473" d="M1500,2785.03c-1.582-1.572-2.7,1.81-4.709,1.875-1.517.115-3.621-2.35-3.53.549.053,1.376,2.615,3.792,4.5,4.857l-.2-.085c3.837,2.877,7.179-3.1,7.265-5.95C1503.454,2783.9,1500.468,2780.809,1500,2785.03Z" transform="translate(-1491.762 -2782.113)" fill="#edc4c2"/>
            <path id="패스_474" data-name="패스 474" d="M1492.825,2782.552c-1.525,1.89.524,1.85,1.628,2.771.872.8,1.141,2.235,2.594,2.109,1.254-.156,1.437-1.143,2.725-1.208.973-.154,2.666.345,2.993-1,.2-.688-.379-.984-.5-1.551-.145-.866.17-.778.224-1.615.094-1.465-.134-2.3-1.771-2.412-.515-.117-1.021.274-1.5.246-.8-.115-1.447-.59-2.125-.647-2.152-.229-1.724,1.862-3.429,2.8" transform="translate(-1492.164 -2779.227)" fill="#d18b8a"/>
            <g id="그룹_265" data-name="그룹 265" transform="translate(4.246 2.592)">
              <path id="패스_475" data-name="패스 475" d="M1511.3,2793.064c-.442-.053-1.123.676-.393.92.529.095.751-.5.442-.914" transform="translate(-1510.586 -2792.573)" fill="#723b26"/>
              <path id="패스_476" data-name="패스 476" d="M1516.745,2790.869c-.441-.053-1.123.677-.393.92.529.095.751-.5.442-.914" transform="translate(-1514.803 -2790.866)" fill="#723b26"/>
              <path id="패스_477" data-name="패스 477" d="M1515.722,2796.633c-.442-.053-1.123.676-.393.92.529.095.751-.5.442-.914" transform="translate(-1514.011 -2795.347)" fill="#723b26"/>
            </g>
          </g>
        </g>
        <g id="그룹_270" data-name="그룹 270" transform="translate(8.528 8.445)">
          <path id="패스_478" data-name="패스 478" d="M1481.1,2833.356c5.022,3.154,9.8,5.949,14.7,9.289.777.536,3.007,2.048,1.933.987-.406-.362-2.23-1.511-2.8-1.878-4.622-3.026-9.433-6.011-14.071-9.015" transform="translate(-1475.383 -2827.227)" fill="#6c8f81"/>
          <g id="그룹_269" data-name="그룹 269" transform="translate(0)">
            <path id="패스_479" data-name="패스 479" d="M1461.159,2809.9c-1.616-.007-.443,2.276-1.432,3.316-.714.82-3.056.619-1.515,2.05.737.675,3.287.62,4.795.218l-.144.056c3.437-.459,2.057-5.18.632-6.673C1462.334,2807.594,1459.218,2807.516,1461.159,2809.9Z" transform="translate(-1457.442 -2807.988)" fill="#edc4c2"/>
            <path id="패스_480" data-name="패스 480" d="M1456.632,2814.062c.2,1.727,1.221.68,2.258.595.858-.028,1.734.566,2.408-.227.559-.708.143-1.3.765-1.982.416-.567,1.536-1.161,1.008-2.011-.251-.452-.7-.311-1.056-.538-.521-.368-.315-.481-.719-.934-.708-.793-1.254-1.1-2.146-.34-.322.2-.379.651-.637.878-.464.34-1.041.425-1.416.736-1.214.963.082,1.812-.3,3.143" transform="translate(-1456.566 -2808.141)" fill="#d18b8a"/>
            <g id="그룹_268" data-name="그룹 268" transform="translate(1.975 2.755)">
              <path id="패스_481" data-name="패스 481" d="M1465.48,2824.263c-.252.195-.223.907.274.666.318-.217.124-.633-.246-.687" transform="translate(-1465.324 -2823.377)" fill="#723b26"/>
              <path id="패스_482" data-name="패스 482" d="M1467.135,2820.38c-.252.195-.223.908.274.666.318-.216.123-.632-.246-.687" transform="translate(-1466.607 -2820.358)" fill="#723b26"/>
              <path id="패스_483" data-name="패스 483" d="M1469.549,2823.835c-.252.194-.224.907.274.666.318-.217.123-.632-.246-.687" transform="translate(-1468.475 -2823.044)" fill="#723b26"/>
            </g>
          </g>
        </g>
        <rect id="사각형_16" data-name="사각형 16" width="29.037" height="24.152" transform="matrix(1, 0.011, -0.011, 1, 9.609, 13.184)" fill="#6167a6"/>
        <path id="패스_484" data-name="패스 484" d="M1540.331,2892.264h3.307s3.673-9.148,11.02-12.862c3.082-1.558,6.6-1.446,9.956-1.74a39.692,39.692,0,0,0,8.779-1.883l-.368-2.808a122.664,122.664,0,0,1-14.232,2.031,16.552,16.552,0,0,0-6.954,1.854,20.544,20.544,0,0,0-6,4.432c-2.483,2.779-4.478,7.866-6.149,11.156" transform="translate(-1524.873 -2854.565)" fill="#333762"/>
        <path id="패스_485" data-name="패스 485" d="M1547.361,2805.892l-1.129,1.957c.062-.019.121-.039.183-.06-.022-.217.326-.581,2.555-1.383a.911.911,0,0,1,.948.228c.121.254-.084.483-.289.617-.831.541-2.868.986-3.168.653l-.323.106-.438.759-.115-.061.436-.754a.04.04,0,0,1,.026-.044l.057-.1c-.028-.085-.055-.17-.084-.255h-.028c-.356-.018-.832-1.717-.9-2.866,0-.095-.007-.188,0-.273s0-.141.007-.207c.019-.257.118-.557.385-.553a.479.479,0,0,1,.255.146,1.2,1.2,0,0,1,.153.174,1.111,1.111,0,0,1,.2.493c.288,2.257.194,2.881.035,3.038l.052.172,1.1-1.895c-.024-.091-.043-.181-.067-.272l-.038,0c-.278-.015-.626-1.039-.8-2.035-.017-.105-.035-.211-.048-.314a4.9,4.9,0,0,1-.049-1,1,1,0,0,1,.069-.308.336.336,0,0,1,.316-.242.217.217,0,0,1,.1.031,1,1,0,0,1,.37.379,1.063,1.063,0,0,1,.117.267.959.959,0,0,1,.026.135c.284,2.219.2,2.861.043,3.03.016.061.029.122.045.182l1.079-1.869a.034.034,0,0,1,.013-.023c-.034-.09-.066-.181-.094-.275,0,0,0,0-.006,0-.339-.016-.78-1.53-.884-2.668a4.235,4.235,0,0,1-.013-.681,1.2,1.2,0,0,1,.017-.131c.042-.206.14-.4.341-.418h.029a1,1,0,0,1,.61.813q.02.163.04.316c.249,2.083.141,2.618-.024,2.738.019.062.037.122.057.181l.705-1.22a3.454,3.454,0,0,1,.338-1.7,7.96,7.96,0,0,1,1.4-2.409.8.8,0,0,1,.988-.268,1.2,1.2,0,0,1,.141,1.366c-.353.61-.658,1.109-.924,1.519-1.19,1.826-1.591,1.832-1.828,1.673a.2.2,0,0,1-.044-.037l-.662,1.145c.047-.013.094-.028.143-.042.052-.225.522-.59,2.548-1.319a.9.9,0,0,1,.949.227c.121.253-.085.482-.288.615-.856.56-2.989,1.013-3.188.624a.17.17,0,0,1-.011-.021c-.063.019-.127.04-.19.058,0,.036-.034.051-.068.043l-1.091,1.89.153-.03c0-.219.391-.584,2.556-1.362a.9.9,0,0,1,.949.227c.121.253-.085.482-.289.616-.844.55-2.927,1-3.179.637-.085.017-.169.034-.255.049A.042.042,0,0,1,1547.361,2805.892Z" transform="translate(-1523.201 -2790.719)" fill="#6c8f81"/>
        <g id="그룹_271" data-name="그룹 271" transform="translate(12.321 14.187)">
          <path id="패스_486" data-name="패스 486" d="M1525.718,2849.963l.6.232,2.739-7-.633-.023Z" transform="translate(-1518.179 -2843.169)" fill="#3d1b16"/>
          <path id="패스_768" data-name="패스 768" d="M0,0,12.294.053l.037,8.566L.037,8.566Z" transform="translate(0 13.876) rotate(-68.586)" fill="#fff"/>
        </g>
      </g>
      <g id="그룹_284" data-name="그룹 284" transform="translate(9.786 2.765)">
        <g id="그룹_278" data-name="그룹 278" transform="translate(0 3.85)">
          <path id="패스_487" data-name="패스 487" d="M1446.838,2769.432a2.379,2.379,0,0,1-.651.571.846.846,0,0,1-.835.007.831.831,0,0,1-.222-1.009,2.459,2.459,0,0,1,.729-.845,2.18,2.18,0,0,1-1.036-.2.727.727,0,0,1-.367-.886.967.967,0,0,1,.36-.356,5.023,5.023,0,0,1,1.567-.69c-.331.03-.549-.4-.438-.706a1.315,1.315,0,0,1,.716-.65,7.124,7.124,0,0,1,3.576-.552c1.376,2.75-.162,4.583-.45,4.735a.649.649,0,0,1-.853-.208,2.556,2.556,0,0,1-.411,1.462.99.99,0,0,1-.632.488.823.823,0,0,1-.752-.373,2.372,2.372,0,0,1-.317-.811" transform="translate(-1444.405 -2764.092)" fill="#8cb0ab"/>
          <g id="그룹_277" data-name="그룹 277" transform="translate(1.507 0.426)">
            <g id="그룹_272" data-name="그룹 272">
              <path id="패스_488" data-name="패스 488" d="M1451.107,2770.636l.2-.173c.063-.054.137-.122.22-.2s.179-.167.28-.267.208-.209.32-.327.228-.243.346-.375.238-.27.356-.413.234-.291.352-.438.231-.3.34-.447l.322-.437.563-.781.228-.31.181-.237c.1-.132.163-.2.163-.2h0a.062.062,0,0,1,.085-.006.059.059,0,0,1,.016.068s-.037.087-.112.236c-.036.075-.085.163-.141.264s-.123.214-.2.334-.164.248-.257.383-.2.271-.306.413-.224.286-.347.427-.246.287-.372.429-.257.282-.387.416-.256.269-.38.4l-.363.364c-.116.115-.226.223-.33.32-.2.2-.38.36-.5.473l-.191.177a.061.061,0,0,1-.085,0,.058.058,0,0,1,0-.083Z" transform="translate(-1451.087 -2766.006)" fill="#fff"/>
            </g>
            <g id="그룹_273" data-name="그룹 273" transform="translate(1.755 2.924)">
              <path id="패스_489" data-name="패스 489" d="M1458.985,2779.184s.005.027.017.074.03.116.046.2c.011.041.019.085.03.132s.02.1.031.148c.02.1.042.215.059.328.007.056.015.114.018.17a1.639,1.639,0,0,1,0,.165,1.274,1.274,0,0,1-.04.29.7.7,0,0,1-.13.263.068.068,0,0,1-.095.006.066.066,0,0,1-.02-.032v0a.491.491,0,0,1-.013-.078,1.332,1.332,0,0,1,0-.2c0-.039.006-.083.011-.127s.011-.093.018-.142c.012-.1.026-.2.04-.31a2.2,2.2,0,0,0,.015-.316,1.967,1.967,0,0,0-.03-.275,1.643,1.643,0,0,0-.046-.19c-.014-.046-.024-.072-.024-.072a.059.059,0,0,1,.036-.076.06.06,0,0,1,.077.036A.029.029,0,0,1,1458.985,2779.184Z" transform="translate(-1458.866 -2779.135)" fill="#fff"/>
            </g>
            <g id="그룹_274" data-name="그룹 274" transform="translate(0.039 2.232)">
              <path id="패스_490" data-name="패스 490" d="M1453.443,2776.253s-.033-.01-.09-.024a.779.779,0,0,0-.1-.021c-.039-.007-.084-.015-.134-.02a2.079,2.079,0,0,0-.342-.006,2.748,2.748,0,0,0-.389.056l-.384.083c-.123.026-.238.05-.339.061a1.581,1.581,0,0,1-.25.01.727.727,0,0,1-.1-.009h0a.063.063,0,0,1-.025-.114,1.181,1.181,0,0,1,.319-.143,2.262,2.262,0,0,1,.347-.071c.065-.007.132-.016.2-.02s.139,0,.209-.006.14,0,.209,0,.137.007.2.01.128.009.188.016.115.011.167.02c.1.011.193.031.25.042s.092.018.092.018a.059.059,0,0,1,.049.068.06.06,0,0,1-.069.048Z" transform="translate(-1451.259 -2776.029)" fill="#fff"/>
            </g>
            <g id="그룹_275" data-name="그룹 275" transform="translate(3.309 0.881)">
              <path id="패스_491" data-name="패스 491" d="M1465.877,2770.013s0,.026.013.071.024.111.041.188l.132.575c.011.053.023.106.03.159s.014.1.018.155a1.339,1.339,0,0,1-.006.277.692.692,0,0,1-.089.263.069.069,0,0,1-.093.02.065.065,0,0,1-.024-.028v0a.394.394,0,0,1-.025-.073,1.03,1.03,0,0,1-.034-.189,2.363,2.363,0,0,1,0-.262c0-.1.009-.2.015-.3a2.67,2.67,0,0,0,0-.306,2.313,2.313,0,0,0-.031-.265c-.015-.077-.028-.139-.041-.184s-.02-.069-.02-.069a.058.058,0,0,1,.038-.075.06.06,0,0,1,.076.037Z" transform="translate(-1465.758 -2769.963)" fill="#fff"/>
            </g>
            <g id="그룹_276" data-name="그룹 276" transform="translate(0.721 0.823)">
              <path id="패스_492" data-name="패스 492" d="M1456.716,2770.076a.917.917,0,0,0-.092-.042,1.36,1.36,0,0,0-.257-.07,2.908,2.908,0,0,0-.382-.033c-.143,0-.293,0-.445.011l-.441.03c-.141.007-.271.017-.384.014a2.121,2.121,0,0,1-.275-.017.809.809,0,0,1-.106-.018h0a.063.063,0,0,1-.045-.077.066.066,0,0,1,.031-.039.857.857,0,0,1,.1-.042,1.474,1.474,0,0,1,.275-.067,2.515,2.515,0,0,1,.4-.024,3.971,3.971,0,0,1,.455.031c.154.019.308.042.45.061s.277.037.392.063a2.046,2.046,0,0,1,.275.074c.068.024.1.038.1.038l0,0a.059.059,0,0,1,.032.077.06.06,0,0,1-.079.031Z" transform="translate(-1454.285 -2769.702)" fill="#fff"/>
            </g>
          </g>
        </g>
        <g id="그룹_283" data-name="그룹 283" transform="translate(3.319)">
          <path id="패스_493" data-name="패스 493" d="M1463.161,2748.465c1.423-2.114-2.546-2.209-1.844-.3-.366-.754-1.925-1.088-2.18.007-.152.8.912,1.541,1.609,1.533-2.094,1.258.6,3.906,1.592,1.621.25,3.064,4.914,1.46,2.6-.752.779-.679,1.79-1.36.953-2.567-.671-.856-1.828-.385-2.589.206" transform="translate(-1459.121 -2746.803)" fill="#fff"/>
          <g id="그룹_282" data-name="그룹 282" transform="translate(1.848 1.588)">
            <g id="그룹_279" data-name="그룹 279" transform="translate(0.804)">
              <path id="패스_494" data-name="패스 494" d="M1472.522,2754.094a1.607,1.607,0,0,0-1.237-.058.936.936,0,0,0-.365,1.11c.018.085.153.065.135-.021-.074-.358-.073-.794.308-.977a1.472,1.472,0,0,1,1.108.071.068.068,0,0,0,.05-.125Z" transform="translate(-1470.881 -2753.934)" fill="#cfa093"/>
            </g>
            <g id="그룹_280" data-name="그룹 280" transform="translate(0 0.818)">
              <path id="패스_495" data-name="패스 495" d="M1469.622,2757.735a1.294,1.294,0,0,1,.948,1.18.809.809,0,0,1-.94.763,3.212,3.212,0,0,1-1.259-.356,1.662,1.662,0,0,1-.891-.836.671.671,0,0,1,.08-.562c.045-.074-.064-.156-.109-.081-.488.811.463,1.448,1.124,1.719a2.967,2.967,0,0,0,1.2.25.916.916,0,0,0,.92-.776,1.4,1.4,0,0,0-1.027-1.427c-.084-.025-.135.1-.05.125Z" transform="translate(-1467.316 -2757.607)" fill="#cfa093"/>
            </g>
            <g id="그룹_281" data-name="그룹 281" transform="translate(0.479 1.455)">
              <path id="패스_496" data-name="패스 496" d="M1469.467,2760.592a4.119,4.119,0,0,0,1.284.765,1.076,1.076,0,0,0,.668.012.943.943,0,0,0,.512-.528c.037-.079-.09-.128-.127-.05-.483,1.037-1.672.15-2.254-.308-.069-.055-.151.053-.082.108Z" transform="translate(-1469.441 -2760.469)" fill="#cfa093"/>
            </g>
            <path id="패스_497" data-name="패스 497" d="M1475.153,2758.9c-.09.08-.31-.016-.493-.215s-.257-.425-.168-.505.31.016.493.216S1475.242,2758.816,1475.153,2758.9Z" transform="translate(-1472.844 -2757.209)" fill="#807444"/>
          </g>
        </g>
      </g>
    </g>
  </g>
</svg>
