<svg xmlns="http://www.w3.org/2000/svg" width="24" height="24" viewBox="0 0 24 24">
    <g fill="none" fill-rule="evenodd">
        <path fill="#E6843E" d="M16.363 10.62l.128.004c.387.032.725.273.88.63.155.355.101.767-.139 1.072l-.54.755-2.367 2.792c-.06.099-.081.217-.058.331.003.023.016.047.016.072.18.779.004 1.598-.48 2.233-.79 1.103-2.103 1.502-2.939.915-.835-.586-.871-1.97-.085-3.076.432-.645 1.12-1.074 1.889-1.18h.144c.106-.018.204-.07.276-.15l1.892-3.162.54-.755c.211-.326.584-.51.97-.477zm-4.229-1.472c.31-.002.608.12.828.34.22.22.343.517.342.827 0 .645-.522 1.167-1.166 1.168-.645 0-1.167-.522-1.169-1.166 0-.644.52-1.168 1.165-1.17zM9.65 4c1.409 0 2.563 1.095 2.655 2.482l.006.168c0 1.408-1.096 2.56-2.482 2.65l-.168.006C8.197 9.309 7.006 8.126 7 6.66c-.001-1.41 1.095-2.564 2.482-2.655L9.65 4zm.003 1.42c-.684.002-1.235.558-1.234 1.241.003.64.49 1.163 1.113 1.225l.126.006c.64-.001 1.165-.488 1.228-1.11l.006-.126c-.001-.641-.489-1.167-1.113-1.23l-.126-.007z"/>
    </g>
</svg>
