<svg xmlns="http://www.w3.org/2000/svg" width="120" height="44" viewBox="0 0 120 44">
    <g fill="none" fill-rule="evenodd">
        <path d="M0 0H120V44H0z"/>
        <path fill="#DDD" d="M78.504 30.472c2.615 0 4.268 1.568 4.381 4.196.076 2.042-.69 4.161-2.021 5.538-1.08 1.119-2.575 1.732-4.22 1.712-2.669-.047-4.322-1.603-4.431-4.18-.107-2.534 1.22-5.8 3.881-6.863.691-.27 1.445-.403 2.41-.403zm26.693.006c.155-.011.306-.004.456 0 .723.044 1.413.232 1.937.538.007 0 1.338.689 1.241 2.206-.087 1.207-.584 1.85-1.417 2.547-1.297 1.086-3.614 1.74-6.211 1.74-.113 0-.243 0-.36-.004 0 .474.155 2.195 2.092 2.528.22.035.443.043.665.05 1.667-.072 3.164-1.109 3.385-1.268l.028-.02.081.11c.398.609.203 1.58-.4 2.026-1.225.9-2.953.995-3.714.987h-.124c-.197 0-.342-.008-.408-.013l-.04-.003c-1.172-.078-2.297-.474-3.07-1.29-.85-.904-1.251-2.123-1.177-3.518.164-2.771 1.912-5.19 4.464-6.153.87-.326 1.744-.478 2.572-.463zm-82.09-.004c.907-.036 1.218.42 1.218.42.35.458.415.899.254 2.067-.23 1.683-.746 3.94-.86 4.748-.088.59-.088 1.115-.022 1.44.116.505.355.695.563.74.658.149 2.413-.75 3.72-3.83.419-.983.673-1.795.85-2.532.092-.436.181-.881.254-1.29l.226-1.322s.927-.076 1.686-.121c.673-.04.835.405.741.866l-.326 1.883-.734 4.267h.012c-.057.262-.097.546-.137.812-.282 1.954-.282 2.588.02 2.933-.525.181-.94.238-1.262.23-.904.032-1.219-.425-1.219-.425-.358-.46-.415-.902-.253-2.058.003-.053.016-.118.025-.178-.937 1.6-2.353 2.984-4.416 2.774-1.304-.133-2.25-1.068-2.348-2.43-.09-1.1.125-2.31.323-3.43.181-.986.266-1.237.451-2.385.306-1.9.27-2.613-.024-2.948.52-.178.935-.238 1.259-.23zm39.675 0c.917-.036 1.227.42 1.227.42.354.458.416.899.25 2.067-.238 1.683-.747 3.94-.86 4.748-.092.59-.092 1.115-.02 1.44.114.505.347.695.566.74.657.149 2.411-.75 3.71-3.83.423-.983.666-1.795.855-2.532.093-.436.178-.881.258-1.29l.222-1.322s.932-.076 1.678-.121c.682-.04.84.405.755.866l-.335 1.883-.735 4.267h.012c-.052.262-.088.546-.137.812-.266 1.954-.278 2.588.025 2.933-.529.181-.944.238-1.263.23-.907.032-1.218-.425-1.218-.425-.35-.46-.42-.902-.25-2.058.004-.053.012-.118.02-.178-.936 1.6-2.351 2.984-4.417 2.774-1.302-.133-2.25-1.068-2.347-2.43-.081-1.1.125-2.31.322-3.43.182-.986.266-1.237.452-2.385.311-1.9.271-2.613-.028-2.948.525-.178.936-.238 1.258-.23zm-23.807-7.633c.499 0 .449.437.362.886l-3 15.796c-.254 1.397.053 2.288.053 2.288s-.484.118-1.077.105c-.317.013-.679-.012-1.027-.11-.323-.096-.63-.28-.807-.6-.198-.36-.258-.73-.104-1.658l3.092-16.245 2.263-.429c.1-.024.178-.033.245-.033zm16.787 7.633l.251.012c.538.037 1.71.34 2.205 1.51.416.962.275 2.532-.113 4.35 0 0-.267 1.243-.458 2.396-.312 1.897-.284 2.609.025 2.949-.542.186-.962.233-1.304.226-.934.036-1.25-.425-1.25-.425-.372-.457-.434-.898-.267-2.055.241-1.69.766-3.944.879-4.752.105-.591.096-1.117.025-1.44-.113-.526-.417-.68-.584-.736-.683-.218-2.296.942-3.492 3.725 0 0-.625 1.46-1.067 4.044l-.262 1.49h-2.075c-.534 0-.454-.49-.454-.49l1.241-6.889c.13-.821.108-1.42-.108-1.662-.642-.7-2.76.563-4.11 3.648-.657 1.5-.837 2.561-1.07 3.588-.055.259-.313 1.804-.313 1.804h-2.084c-.533 0-.454-.49-.454-.49s1.33-7.38 1.347-7.506c.287-1.958.287-2.597-.026-2.937.542-.173.976-.234 1.313-.222l.178-.001c.794.025 1.077.43 1.077.43.367.449.433.885.266 2.05l-.037.194c.946-1.646 2.192-2.847 4.12-2.807.706.008 1.31.219 1.743.64.446.42.721 1.05.804 1.852.817-1.274 2.088-2.654 4.305-2.484zm37.513 0l.231.013c.456.036 1.628.34 2.116 1.509.396.962.264 2.532-.104 4.35 0 0-.268 1.243-.449 2.396-.307 1.897-.27 2.609.02 2.949-.511.186-.923.233-1.243.226-.9.036-1.212-.425-1.212-.425-.348-.457-.403-.898-.248-2.055.236-1.69.74-3.943.84-4.752.105-.59.096-1.117.028-1.44-.076-.369-.252-.615-.483-.72-.589-.263-2.477.696-3.76 3.81-.612 1.505-.872 2.601-1.096 3.628-.048.26-.312 1.804-.312 1.804H85.62c-.512 0-.436-.49-.436-.49l1.151-6.693c.048-.26.093-.546.128-.813.272-1.958.272-2.597-.024-2.937.52-.173 1.84-.497 2.464.206.324.356.408.886.252 2.051-.008.073-.024.142-.028.223.932-1.651 2.267-2.997 4.379-2.827zm-77.971-7.633c3.385.04 6.35 1.683 5.678 5.3-.48 2.54-2.951 5.102-7.064 5.113-.659.004-1.231-.015-1.843-.05-.06.313-.947 5.317-1.062 5.98-.15.864-.65 1.209-1.385 1.209H8.105l3.054-17.249s1.397-.303 3.675-.303zm63.071 9.34c-.05 0-.09 0-.15.004-2.585.231-3.583 3.813-3.418 5.756.055.68.37 2.233 1.951 2.288.051-.008.094-.008.142-.012 2.536-.219 3.56-3.887 3.403-5.791-.075-.825-.42-2.202-1.928-2.245zm27.692.347c-.916-.666-2.414 0-3.074.435-.44.29-1.57 1.344-1.97 3.002.083 0 .192.008.33.011.803-.01 2.166-.145 3.476-.834.954-.498 1.514-1.149 1.564-1.783.038-.33-.1-.678-.326-.83zm-91.222-7.863c-.828 0-1.282.126-1.282.126l-1.14 6.444c.497.062 2.514.223 3.84-.541.911-.526 1.696-1.574 1.917-2.64.537-2.538-1.25-3.294-2.904-3.38-.158-.01-.289-.01-.43-.01zm102.357-21.41c.058.153.029.34-.114.443-.082.078-.18.149-.282.215-13.832 8.695-34.293 14.35-57.187 14.35-22.912 0-43.36-5.664-57.196-14.35-.102-.066-.192-.137-.294-.215-.127-.104-.164-.29-.094-.443.061-.161.22-.285.404-.248.115.029.258.07.36.107 15.335 5.262 35.194 8.236 56.82 8.236 21.614 0 41.477-2.974 56.81-8.236.107-.037.238-.078.373-.107.167-.037.323.087.4.248z"/>
    </g>
</svg>
