<svg xmlns="http://www.w3.org/2000/svg" width="24" height="24" viewBox="0 0 24 24">
    <g fill="none" fill-rule="evenodd">
        <path fill="#7FC241" d="M7.097 13.134v2.804c0 .246-.201.448-.45.448H6.21v-2.49H1.847v-.762h5.25zm3.19-.246v.978h3.234v-.978h.885v3.449H9.401v-3.45h.887zm3.234 1.74h-3.233v.945h3.233v-.946zm8.058-2.259c.196.14.35.341.433.588.135.385.057.786-.164 1.091-.14.196-.337.35-.583.436-.38.129-.788.057-1.092-.163-.131-.096-.246-.218-.332-.366l-1.65.568c-.076.023-.16.012-.222-.032v-.002c-.04-.028-.068-.07-.087-.119-.026-.079-.011-.16.035-.221.027-.037.068-.068.117-.087l1.648-.564c-.037-.311.045-.612.219-.858.14-.194.34-.348.583-.433.386-.13.789-.057 1.095.162zm-1.682-3.624l.03.002.012.027c.363.733.436 1.568.158 2.316-.07.182-.156.356-.267.519-.506.788-1.37 1.214-2.291 1.244l-.998 1.533c-.064.096-.186.134-.29.095-.017-.007-.033-.012-.05-.022-.094-.064-.129-.186-.093-.288.006-.016.017-.031.022-.049l1.003-1.533c-.27-.672-.3-1.414-.052-2.08.067-.182.154-.355.261-.521.559-.856 1.538-1.293 2.555-1.243zM2.78 7.055v2.49h4.447v.367c0 .22-.178.395-.396.395H4.93v1.139h3.023v.378c0 .219-.177.395-.395.395H1v-.773h3.05v-1.139H1.895V7.055h.887zm12.48 4.391v.366c0 .22-.176.397-.395.397h-6.32v-.763h6.716zm-.8-4.273v.368c0 .219-.177.395-.396.395h-1.7v.316c0 .181 0 .335.172.477.83.529 1.52 1.026 2.33 1.545l-.436.65L11.935 9.2l-2.512 1.724-.434-.65c.808-.52 1.5-1.016 2.33-1.545.17-.142.17-.296.17-.477v-.316H9.403v-.763h5.058z"/>
    </g>
</svg>
