<svg xmlns="http://www.w3.org/2000/svg" xmlns:xlink="http://www.w3.org/1999/xlink" width="136" height="34" viewBox="0 0 136 34">
    <defs>
        <path id="k9pi6tlubb" d="M0.017 0.019L11.161 0.019 11.161 12.278 0.017 12.278z"/>
        <path id="h6ku3b9tqd" d="M0.224 0.012L11.105 0.012 11.105 12.249 0.224 12.249z"/>
        <path id="yn0sbsnr8f" d="M0 0.004L9.303 0.004 9.303 22.555 0 22.555z"/>
        <filter id="8ujot0hxoa">
            <feColorMatrix in="SourceGraphic" values="0 0 0 0 1.000000 0 0 0 0 1.000000 0 0 0 0 1.000000 0 0 0 1.000000 0"/>
        </filter>
    </defs>
    <g fill="none" fill-rule="evenodd">
        <g>
            <g>
                <g>
                    <g filter="url(#8ujot0hxoa)" transform="translate(-1160 -142) translate(0 88) translate(1126 36) translate(34 18)">
                        <g>
                            <g>
                                <g transform="translate(2.833 5.667) translate(91.611 10.389)">
                                    <mask id="la4ib8dq0c" fill="#fff">
                                        <use xlink:href="#k9pi6tlubb"/>
                                    </mask>
                                    <path fill="#231F20" d="M2.73 8.023c-.17-2.082.875-5.926 3.565-6.173.055-.005.106-.006.158-.007 1.573.053 1.934 1.526 2.007 2.413.167 2.036-.904 5.961-3.546 6.204-.05.004-.097.005-.146.007-1.658-.055-1.978-1.72-2.038-2.444M6.587.019c-1.007 0-1.79.142-2.513.434C1.294 1.589-.088 5.083.023 7.794c.112 2.765 1.838 4.438 4.619 4.483 1.719.028 3.28-.633 4.407-1.83 1.387-1.475 2.194-3.747 2.105-5.93C11.039 1.7 9.314.02 6.587.02" mask="url(#la4ib8dq0c)"/>
                                </g>
                                <g transform="translate(2.833 5.667) translate(118.056 10.389)">
                                    <mask id="34p8c1859e" fill="#fff">
                                        <use xlink:href="#h6ku3b9tqd"/>
                                    </mask>
                                    <path fill="#231F20" d="M3.147 5.88c.412-1.77 1.56-2.9 2.004-3.205.678-.465 2.2-1.171 3.135-.471.23.172.37.544.343.892-.054.682-.636 1.377-1.598 1.908-1.338.74-2.725.879-3.545.888-.136-.002-.252-.007-.339-.012M9.837.592C9.31.274 8.61.072 7.866.022c-.154-.01-.309-.01-.464-.008-.848-.016-1.735.15-2.622.5C2.18 1.544.396 4.125.234 7.09c-.081 1.495.333 2.795 1.2 3.759.787.878 1.928 1.29 3.122 1.382 0 0 .228.021.59.017.774.01 2.533-.085 3.782-1.059.646-.503.837-1.644.323-2.284l-.005.005-.004-.005s-1.629 1.3-3.473 1.38c-.22-.003-.445-.018-.678-.059-1.966-.345-2.127-2.193-2.127-2.696.125.001.25.003.374 0 2.641.005 5.001-.688 6.321-1.854.847-.747 1.354-1.432 1.44-2.721.107-1.618-1.256-2.36-1.262-2.363" mask="url(#34p8c1859e)"/>
                                </g>
                                <path fill="#231F20" d="M29.268 11.866c.005.002 1.245-6.938 1.245-6.938s.497-.129 1.408-.137c.145.002.3.006.463.014 1.81.095 3.763.909 3.176 3.644-.245 1.143-1.096 2.266-2.093 2.832-1.455.826-3.658.654-4.2.585m3.148-9.031c-.175-.002-.345-.002-.511 0-2.486 0-4.012.324-4.012.324l-3.336 18.563h1.664c.798 0 1.345-.368 1.512-1.298l1.155-6.442c.674.037 1.293.059 2.011.057 4.498-.011 7.196-2.768 7.717-5.502.742-3.89-2.494-5.664-6.2-5.702M73.992 10.404c-2.274-.182-3.571 1.3-4.409 2.664-.085-.857-.357-1.525-.815-1.987-.447-.45-1.07-.674-1.787-.689-1.97-.04-3.24 1.25-4.207 3.014l.03-.205c.168-1.249.102-1.718-.268-2.208 0 0-.332-.492-1.288-.452-.344-.012-.781.045-1.333.241.315.362.313 1.047.02 3.147-.018.138-1.374 8.046-1.374 8.046s-.088.537.461.537h2.122s.278-1.664.329-1.935c.239-1.103.422-2.25 1.095-3.859 1.382-3.305 3.544-4.666 4.2-3.908.223.258.248.895.118 1.782l-1.271 7.383s-.088.537.461.537h2.12l.271-1.611c.452-2.765 1.094-4.33 1.094-4.33 1.221-2.984 2.866-4.237 3.568-3.995.17.058.473.225.599.786.071.347.075.913-.029 1.545-.113.869-.653 3.285-.903 5.098-.169 1.248-.102 1.718.268 2.208 0 0 .332.491 1.288.451.343.013.78-.045 1.333-.24-.315-.362-.353-1.128-.03-3.16.196-1.239.476-2.566.476-2.566.397-1.962.53-3.64.114-4.67-.51-1.26-1.71-1.58-2.253-1.624M113.665 10.404c-2.24-.18-3.66 1.26-4.65 3.028.01-.078.022-.157.033-.233.168-1.249.074-1.82-.267-2.208-.657-.749-2.059-.407-2.609-.21.313.36.312 1.046.02 3.147-.04.285-.085.588-.136.87h.005l-1.223 7.177s-.087.537.46.537h2.107s.277-1.665.327-1.935c.238-1.104.51-2.283 1.166-3.899 1.361-3.349 3.365-4.372 3.984-4.088.252.115.44.375.52.77.072.348.076.913-.028 1.546-.113.869-.65 3.285-.899 5.098-.168 1.25-.102 1.719.267 2.209 0 0 .33.492 1.282.451.342.013.777-.045 1.327-.24-.313-.362-.35-1.128-.03-3.161.196-1.238.475-2.566.475-2.566.394-1.963.537-3.643.113-4.672-.519-1.257-1.76-1.582-2.244-1.62M49.235 10.727c-.794.05-1.782.135-1.782.135l-.24 1.417c-.076.438-.172.915-.267 1.387-.198.785-.46 1.655-.902 2.708-1.388 3.304-3.246 4.265-3.944 4.111-.23-.05-.475-.25-.598-.795-.072-.347-.076-.913.028-1.545.115-.868.657-3.283.907-5.095.17-1.248.103-1.718-.268-2.207 0 0-.333-.492-1.293-.452-.345-.012-.783.045-1.338.241.316.361.354 1.127.03 3.159-.198 1.237-.29 1.506-.479 2.564-.213 1.202-.435 2.491-.347 3.675.109 1.468 1.11 2.472 2.496 2.614 2.187.225 3.686-1.264 4.681-2.977l-.027.184c-.17 1.248-.103 1.717.27 2.207 0 0 .332.491 1.292.451.345.013.783-.045 1.338-.24-.316-.362-.315-1.047-.02-3.146.039-.285.086-.588.137-.87h-.005l.778-4.574.35-2.018c.092-.508-.077-.98-.797-.934M88.901 10.727c-.794.05-1.781.135-1.781.135l-.241 1.417c-.076.438-.17.915-.267 1.387-.197.785-.46 1.655-.901 2.708-1.389 3.304-3.246 4.265-3.945 4.111-.23-.05-.475-.25-.597-.795-.072-.347-.076-.913.028-1.545.114-.868.657-3.283.907-5.095.17-1.248.103-1.718-.269-2.207 0 0-.333-.492-1.292-.452-.345-.012-.784.045-1.338.241.316.361.354 1.127.03 3.159-.198 1.237-.291 1.506-.479 2.564-.214 1.202-.435 2.491-.347 3.675.109 1.468 1.11 2.472 2.496 2.614 2.186.225 3.685-1.264 4.681-2.977l-.027.184c-.17 1.248-.103 1.717.269 2.207 0 0 .333.491 1.292.451.345.013.784-.045 1.339-.24-.317-.362-.315-1.047-.021-3.146.04-.285.087-.588.137-.87h-.004l.778-4.574.35-2.018c.092-.508-.077-.98-.798-.934M57.228 2.834c-.065-.002-.14.004-.228.021l-2.106.432-2.867 16.083c-.145.918-.09 1.286.09 1.647.176.312.451.49.753.587.324.1.66.125.95.117.555.015 1.003-.106 1.003-.106s-.284-.882-.047-2.273L57.56 3.705c.08-.447.126-.872-.332-.871" transform="translate(2.833 5.667)"/>
                                <g transform="translate(2.833 5.667)">
                                    <mask id="yaqa97dl6g" fill="#fff">
                                        <use xlink:href="#yn0sbsnr8f"/>
                                    </mask>
                                    <path fill="#80C342" d="M8.381 5.78l.236-2.577c.101-1.172.172-1.996.184-2.17.006-.097 0-.195-.022-.284-.057-.237-.228-.385-.228-.385-.205-.199-.694-.487-1.733-.299-.036.006-.431.081-.773.279-.12.07-.396.25-.54.492-.086.154-.24.504-.3 1.112l-.222 3.68-.187 2.94s-.128 1.852-.174 2.388c-.09.999-.2 2.288-.31 3.657l-3.075.138c-.195.01-1.224.096-1.237.706 0 .035.003.071.008.11.054.433.268.73.542.932.064.047.158.104.18.117.675.394 1.642.377 1.642.377h1.767l-.256 3.576c-.015.25-.03.488-.041.712-.02.366-.031.775.105 1.01.107.183.276.21.435.228.639.074 1.358.104 1.91-.668.497-.697.666-1.486.814-2.525.033-.235.097-.787.166-1.403l.756-8.271c.112-.922.808-1.053 1.076-1.07 0 0 .087-.003.2-.002l-.923-2.8z" mask="url(#yaqa97dl6g)"/>
                                </g>
                                <path fill="#009333" d="M19.602 6.354L16.8 6.222l.287-4.227.038-.715c.02-.368.03-.779-.1-1.015-.101-.184-.262-.21-.413-.23-.607-.074-1.291-.104-1.816.673-.473.7-.633 1.493-.773 2.537-.032.236-.093.792-.159 1.41l-.123 1.422c-4.739-.224-10.677-.503-11.506-.54 0 0-.477-.012-.77.018-.855.122-1.205.591-1.349.954-.002.007-.151.473-.108 1.018 0 0 .028.403.165.618.13.185.419.44 1.027.463h6.88s2.035.031 2.071.033c0 0 3.489-.016 3.512 2.788 0 0 .086 2.177-2.286 2.803 0 0-.382.122-1.026.157l2.44 2.688-.205 2.375c-.097 1.178-.164 2.005-.175 2.18-.006.098 0 .196.02.286.055.238.218.387.218.387.194.2.659.49 1.647.3.034-.006.41-.081.735-.28.113-.07.376-.252.513-.495.082-.154.23-.506.285-1.117l.208-3.636.182-3.019c.062-.99.12-1.861.164-2.4.074-.85.16-1.91.248-3.05h1.892s.919.017 1.561-.379c.021-.013.11-.07.17-.117.262-.204.465-.502.516-.936.005-.04.007-.077.008-.112-.012-.612-.99-.699-1.176-.71" transform="translate(2.833 5.667)"/>
                                <path fill="#80C342" d="M20.662 15.064c-.143-.334-.492-.767-1.343-.88-.293-.026-.767-.015-.767-.015l-2.32.1c-1.55.066-5.84.253-5.84.253-.361.02-.695.01-.782.017-.279.013-.894.104-.945.666L8.5 17h11.082c.606-.022.894-.257 1.023-.427.137-.199.165-.57.165-.57.043-.503-.106-.932-.108-.939" transform="translate(2.833 5.667)"/>
                            </g>
                        </g>
                    </g>
                </g>
            </g>
        </g>
    </g>
</svg>
