<svg xmlns="http://www.w3.org/2000/svg" width="112" height="68" viewBox="0 0 112 68">
    <g fill="none" fill-rule="evenodd">
        <g>
            <g>
                <g>
                    <g>
                        <path fill="#718735" d="M16.442 45.111l1.105.392.016.008c-.838 2.157-1.62 4.307-2.345 6.363-.726 2.056-1.097 3.172-1.133 3.262h-1.033c-.027-.09-.295-.877-.797-2.35-.464-1.359-1.09-3.005-1.812-4.96l-.182-.495c-.726 1.798-1.396 3.525-1.994 5.165-.598 1.641-.933 2.522-.977 2.624H6.16c-.014-.07-.102-.344-.262-.823l-.162-.485-.525-1.562c-.594-1.774-1.396-3.998-2.393-6.657l1.22-.466c0 .07.316.924.874 2.588.558 1.664 1.196 3.524 1.91 5.584l.044-.05c.77-1.892 1.428-3.623 1.994-5.197.566-1.574.862-2.397.885-2.475h1.165c0 .09.315.975.897 2.682.437 1.281.892 2.53 1.339 3.763l.444 1.226c.797-2.13 1.462-3.998 1.994-5.603.405-1.19.668-1.959.786-2.313l.042-.127.03-.094zm4.156 0v4.346h5.909V45.11h1.192v.676c-.002.586-.006 1.229-.02 1.935-.017.88-.003 1.62 0 2.195v3.821l.001.411c.001.445.005.767.019.963l-.02.024h-1.192v-4.658h-5.89v4.658h-1.191V45.11h1.192zm14.49 0c.608-.003 1.212.112 1.777.338.531.221 1.013.548 1.415.96.464.479.824 1.048 1.058 1.672l-.019-.015c.242.655.363 1.35.358 2.048.014.721-.115 1.438-.38 2.109-.233.59-.58 1.128-1.024 1.581-.425.436-.934.782-1.496 1.017-.54.21-1.114.318-1.693.315-.572.005-1.139-.1-1.67-.308-.527-.201-1.008-.507-1.413-.899-.481-.458-.86-1.012-1.11-1.627-.294-.697-.44-1.447-.427-2.203-.009-.679.106-1.354.339-1.991.224-.598.564-1.146 1-1.612.414-.439.92-.782 1.48-1.005.57-.248 1.184-.377 1.805-.38zm8.511 0c0 .644-.025 1.389-.036 2.237-.002.212-.004.414-.004.607v.548l.004.715v4.885h3.46l.948-.02v1.053l-.007-.008h-5.522c0-.857.008-1.728.022-2.613V45.11h1.135zm25.555 0v.961h-4.396c0 .566 0 1.203-.021 1.852-.022.649 0 1.258 0 1.759h4.348v1.053h-4.36v2.5c0 .782.019 1.423.022 1.9h-1.111V45.11h5.518zm6.456 0c.609-.004 1.213.11 1.778.337.533.218 1.016.544 1.417.957.468.474.828 1.042 1.056 1.667v.015c.24.655.361 1.346.361 2.042.007.72-.129 1.435-.399 2.103-.23.59-.58 1.126-1.026 1.576-.421.435-.926.78-1.485 1.014-.542.212-1.12.318-1.702.314-.569.005-1.132-.1-1.66-.307-.526-.2-1.006-.506-1.41-.896-.484-.453-.86-1.007-1.102-1.622-.298-.694-.444-1.443-.43-2.197-.011-.677.102-1.35.335-1.985.224-.598.566-1.144 1.007-1.607.406-.45.909-.802 1.47-1.033.565-.245 1.174-.373 1.79-.378zm11.062 0c.61-.003 1.213.112 1.778.338.534.22 1.018.546 1.42.96.467.476.826 1.046 1.055 1.672l-.008-.015c.245.655.368 1.349.362 2.048.014.72-.115 1.438-.381 2.108-.234.589-.58 1.126-1.02 1.582-.833.87-1.992 1.352-3.198 1.331-.57.004-1.134-.1-1.664-.307-.528-.198-1.01-.504-1.412-.899-.482-.459-.862-1.013-1.116-1.627-.29-.698-.434-1.448-.422-2.203-.01-.679.103-1.353.331-1.992.224-.598.566-1.146 1.005-1.611.41-.437.91-.78 1.466-1.006.57-.246 1.183-.375 1.804-.379zm8.688 0c.91-.008 1.818.08 2.71.264.745.176 1.458.47 2.111.874.668.412 1.221.989 1.608 1.677l.027-.008c.354.694.533 1.466.52 2.247.02.815-.205 1.616-.642 2.3-.418.658-.985 1.206-1.654 1.596-.617.357-1.28.626-1.97.799-.803.192-1.625.285-2.45.275-.343 0-.686-.02-1.005-.02h-.547V48.15c0-.838-.024-1.84-.024-3.037zm12.587.02l.51.027.105 1.054c-.173-.03-.347-.05-.521-.062-.3-.032-.671-.04-1.125-.04-.27.001-.54.03-.805.086-.264.049-.518.145-.75.285-.193.117-.356.28-.476.477-.138.21-.209.46-.202.714.003.24.074.475.202.675.211.287.478.524.783.695.192.113.45.258.75.414.3.156.63.332.933.52.42.238.78.573 1.057.979.24.377.37.82.375 1.273l.004.02c.013.467-.109.927-.349 1.322-.231.374-.545.684-.914.906-.379.227-.788.392-1.215.488-.492.116-.994.174-1.499.172-.292 0-.61 0-.918-.043l-.577-.043-.056-1.027c.183.035.368.059.554.07.3.032.656.04 1.065.04.32-.006.64-.043.955-.11.314-.038.62-.126.907-.261.248-.117.466-.292.637-.512.157-.226.236-.501.225-.78.01-.295-.07-.586-.225-.832-.204-.269-.46-.492-.75-.656-.224-.132-.501-.289-.854-.456-.328-.152-.646-.326-.951-.524-.413-.235-.763-.573-1.02-.983-.206-.362-.315-.774-.315-1.195-.006-.409.09-.812.278-1.17.189-.33.437-.617.73-.848.34-.249.721-.428 1.125-.527.473-.114.957-.17 1.443-.168.288 0 .592 0 .884.02zm-51.8-.02v1.044h-5.09v3.295h5.102v1.04h-1.247c-.81 0-1.515-.02-2.17-.02h-1.693v3.646h5.207v.967l-6.442.001v-.277c.002-.343.007-.878.028-1.596.029-.956 0-1.96 0-2.992v-2.227c0-.917 0-1.897-.028-2.88h6.333zm-21.044.967c-.409-.005-.814.074-1.191.232-.382.152-.726.385-1.009.682-.393.395-.695.872-.883 1.396-.21.558-.317 1.15-.315 1.745-.012.622.099 1.24.327 1.82.202.517.514.984.913 1.37.274.262.594.473.944.622.376.156.78.236 1.187.235.407.006.812-.071 1.187-.228.37-.156.708-.381.994-.663.381-.368.68-.813.875-1.305l.015.004c.236-.551.353-1.146.343-1.745-.004-.616-.106-1.227-.305-1.81-.194-.563-.518-1.074-.947-1.49-.278-.265-.6-.48-.952-.633-.374-.158-.777-.237-1.183-.232zm51.573-.003c-.409-.005-.814.074-1.192.23-.375.156-.714.389-.993.684-.397.393-.702.87-.891 1.395-.44 1.148-.44 2.417 0 3.565.203.517.514.984.914 1.37.281.264.61.476.967.625.377.159.782.239 1.191.235.405.006.807-.071 1.18-.227.371-.16.71-.385 1.002-.664.378-.37.676-.815.875-1.305.235-.552.35-1.146.343-1.744-.001-.616-.104-1.227-.305-1.81-.196-.562-.52-1.072-.948-1.49-.277-.266-.599-.48-.951-.633-.377-.158-.783-.237-1.192-.231zm8.991.023h-.394c-.014.564-.018 1.055-.02 1.48v6.583h.37c.65-.004 1.297-.079 1.931-.223.572-.134 1.122-.35 1.635-.64.54-.317 1-.757 1.347-1.284h.02c.346-.553.523-1.198.508-1.853.01-.608-.124-1.209-.394-1.752-.309-.564-.76-1.034-1.308-1.361-.564-.358-1.187-.608-1.84-.739-.61-.134-1.23-.205-1.855-.211zm-20.057-.026c-.407-.003-.81.075-1.186.23-.376.155-.715.387-.995.681-.393.396-.696.87-.89 1.392-.21.555-.319 1.145-.318 1.739-.012.621.102 1.238.334 1.815.195.517.504.983.904 1.365.283.263.61.474.965.624.376.156.779.236 1.186.234.406.007.81-.07 1.185-.226.37-.157.706-.382.992-.662.375-.373.673-.815.877-1.3.23-.552.344-1.144.335-1.74 0-.615-.103-1.225-.308-1.804-.19-.563-.511-1.072-.939-1.486-.277-.265-.6-.48-.953-.632-.376-.159-.781-.238-1.19-.23z" transform="translate(-136 -130) translate(0 88) translate(0 32) translate(136 10)"/>
                        <path fill="#000" fill-rule="nonzero" d="M40.156 12.19c1.137 0 2.274.068 3.405.2 1.122.139 2.22.438 3.26.89 1.3.538 2.426 1.435 3.248 2.59.813 1.184 1.237 2.598 1.21 4.04.047 1.834-.607 3.615-1.824 4.973-.923 1.04-1.976 1.95-3.134 2.709 1.752 2.082 3.683 4.257 5.771 6.47l3.684 3.913-2.691 2.276-.203.19-3.29-3.712-8.272-9.57.046-.507.194-.05c.68-.21 1.335-.497 1.951-.856.74-.385 1.432-.86 2.058-1.417.493-.471.91-1.02 1.232-1.625.371-.798.543-1.677.5-2.558.022-.898-.246-1.778-.763-2.508-.526-.713-1.249-1.251-2.077-1.548-.752-.285-1.542-.458-2.343-.515l-2.321-.089h-1.363c-.01.493-.076 5.812-.083 6.419l-.001 4.197.046 7.512.053 6.246h-3.867l.061-4.98.042-8.662v-3.72l-.103-9.922v-.279l2.264-.065.008.004zm57.807 0l8.016 17.454-.016.012 4.18 8.943-3.426 1.7-.28.119-1.413-3.221-3.107-6.896h-11.55c-.14.321-3.2 7.014-3.2 7.014l-1.406 3.126-3.022-1.57-.24-.13 4.446-9.36 8.008-17.192h3.01zm-88.414.147c3.31-1.39 7.036-1.413 10.364-.062 1.54.64 2.936 1.586 4.103 2.78 1.35 1.386 2.391 3.042 3.055 4.86l.02-.015c.698 1.898 1.05 3.906 1.04 5.93.018 2.099-.376 4.18-1.16 6.127-.673 1.721-1.687 3.287-2.982 4.604-2.405 2.52-5.749 3.926-9.23 3.878-1.644.007-3.276-.291-4.812-.88-1.518-.59-2.905-1.476-4.08-2.606-1.394-1.339-2.494-2.953-3.233-4.74-.834-2.03-1.25-4.21-1.223-6.407-.016-1.967.318-3.921.987-5.77.648-1.738 1.63-3.33 2.892-4.686 1.193-1.293 2.644-2.32 4.259-3.013zm68.78-.148l.294 3.405h-1.851c-1.849-.017-3.694.153-5.509.506-1.51.285-2.97.78-4.34 1.472-1.6.817-2.95 2.045-3.909 3.556-.92 1.42-1.411 3.073-1.416 4.762 0 2.13.496 3.907 1.466 5.295.977 1.395 2.289 2.528 3.817 3.295 1.408.709 2.908 1.218 4.459 1.513l.042.008s2.603.518 4.58.06c-.007-.18-.011-.553-.014-.954l-.002-.346-.002-.492v-.276-.337l-.085-8.341h3.875l-.065 3.6-.03 3.148V36.5l.022 2.436c-3.714.93-7.775.488-7.775.488-1.393-.16-2.77-.433-4.12-.813-2.401-.649-4.604-1.878-6.408-3.579-1.163-1.101-2.085-2.429-2.707-3.9-.71-1.675-1.06-3.478-1.03-5.295-.031-2.338.653-4.63 1.962-6.574 1.369-1.977 3.22-3.58 5.382-4.657 1.667-.844 3.443-1.455 5.28-1.815 2.017-.405 4.071-.606 6.13-.602h1.954zm-60.333 3.053c-2.088-.836-4.416-.836-6.504 0-1.027.434-1.958 1.067-2.74 1.861-1.079 1.107-1.912 2.428-2.448 3.879-1.18 3.218-1.173 6.754.024 9.967.554 1.433 1.41 2.728 2.512 3.797.77.727 1.663 1.311 2.637 1.726 2.082.87 4.424.877 6.511.02 1.018-.436 1.946-1.056 2.738-1.831 1.044-1.026 1.866-2.257 2.415-3.615l-.002.004-.013.023c.59-1.413.91-2.924.943-4.454l.001-.417c0-1.724-.291-3.434-.859-5.061-.523-1.569-1.414-2.99-2.598-4.142-.757-.742-1.644-1.337-2.617-1.757zm78.196 2.234c-.38.814-2.225 4.875-2.225 4.875l-2.175 4.814h8.726c-.183-.417-.919-2.075-1.462-3.296l-.164-.37-.443-.999z" transform="translate(-136 -130) translate(0 88) translate(0 32) translate(136 10)"/>
                    </g>
                </g>
            </g>
        </g>
    </g>
</svg>
