<svg xmlns="http://www.w3.org/2000/svg" width="24" height="24" viewBox="0 0 24 24">
    <g fill="none" fill-rule="evenodd">
        <path d="M0 0H24V24H0z"/>
        <g>
            <path fill="#B0FF67" d="M1.414 7.946c1.781 3.862 6.359 5.516 10.224 3.695 3.866-1.822 5.556-6.43 3.775-10.291-.518-.795-1.206-.99-2.063-.587L2.33 5.956c-.99.466-1.295 1.13-.916 1.99z" transform="translate(2 4)"/>
            <path fill="#E6FFEE" d="M6 9.238C6 12.973 8.91 16 12.5 16S19 12.973 19 9.238C18.884 8.413 18.428 8 17.632 8H7.399C6.48 8 6.014 8.413 6 9.238z" style="mix-blend-mode:screen" transform="translate(2 4)"/>
        </g>
    </g>
</svg>
