<svg xmlns="http://www.w3.org/2000/svg" width="32" height="32" viewBox="0 0 32 32">
    <g fill="none" fill-rule="evenodd">
        <path d="M0 0H32V32H0z"/>
        <path fill="#333" d="M8.596 16.25l15.533.002c.791.015 1.232.113 1.689.357.46.246.827.613 1.073 1.073.267.499.359.978.359 1.914v3.808c0 .936-.092 1.415-.36 1.914-.245.46-.612.827-1.072 1.073-.499.267-.978.359-1.914.359H8.596c-.936 0-1.415-.092-1.914-.36-.46-.245-.827-.612-1.073-1.072-.267-.499-.359-.978-.359-1.914l.002-4.033c.015-.791.113-1.232.357-1.689.246-.46.613-.827 1.073-1.073.499-.267.978-.359 1.914-.359zm15.308 1.5l-15.49.001c-.572.008-.796.059-1.024.18-.2.107-.352.26-.458.459-.135.251-.182.496-.182 1.206v3.808c0 .71.047.955.182 1.206.106.2.258.352.458.458.205.11.407.162.862.177l.344.005h15.308c.71 0 .955-.047 1.206-.182.2-.106.352-.258.458-.458.11-.205.162-.407.177-.862l.005-.344v-3.808c0-.71-.047-.955-.182-1.206-.106-.2-.258-.352-.458-.458-.251-.135-.496-.182-1.206-.182zM16 5.25c2.624 0 4.751 2.127 4.751 4.75 0 2.624-2.127 4.75-4.75 4.75s-4.75-2.127-4.75-4.75S13.377 5.25 16 5.25zm0 1.5c-1.793 0-3.249 1.456-3.249 3.25 0 1.795 1.455 3.25 3.25 3.25s3.25-1.455 3.25-3.25c0-1.794-1.456-3.25-3.25-3.25z"/>
    </g>
</svg>
