<svg xmlns="http://www.w3.org/2000/svg" xmlns:xlink="http://www.w3.org/1999/xlink" width="144" height="36" viewBox="0 0 144 36">
    <defs>
        <path id="gflo0kzv8a" d="M0.018 0.02L11.817 0.02 11.817 13 0.018 13z"/>
        <path id="r7nvx04f0c" d="M0.237 0.013L11.758 0.013 11.758 12.969 0.237 12.969z"/>
        <path id="bxlwsudgne" d="M0 0.004L9.85 0.004 9.85 23.881 0 23.881z"/>
    </defs>
    <g fill="none" fill-rule="evenodd">
        <g>
            <g>
                <g>
                    <g transform="translate(-912 -663) translate(912 663) translate(3 6) translate(97 11)">
                        <mask id="5l05jok2xb" fill="#fff">
                            <use xlink:href="#gflo0kzv8a"/>
                        </mask>
                        <path fill="#231F20" d="M2.891 8.495C2.71 6.29 3.817 2.22 6.665 1.959c.058-.006.112-.006.168-.008 1.665.056 2.048 1.617 2.125 2.556.177 2.155-.958 6.311-3.755 6.568-.053.005-.103.005-.154.007-1.756-.058-2.095-1.82-2.158-2.587M6.975.02C5.908.02 5.08.17 4.313.48 1.371 1.681-.093 5.381.024 8.252c.12 2.927 1.947 4.698 4.891 4.746 1.82.03 3.472-.67 4.666-1.938 1.47-1.561 2.323-3.967 2.229-6.278C11.689 1.8 9.862.02 6.975.02" mask="url(#5l05jok2xb)"/>
                    </g>
                    <g transform="translate(-912 -663) translate(912 663) translate(3 6) translate(125 11)">
                        <mask id="p6x3c3jnpd" fill="#fff">
                            <use xlink:href="#r7nvx04f0c"/>
                        </mask>
                        <path fill="#231F20" d="M3.332 6.226c.436-1.873 1.652-3.072 2.122-3.394.718-.492 2.33-1.24 3.32-.499.243.183.392.576.363.945-.058.722-.674 1.458-1.692 2.02-1.417.783-2.886.931-3.754.94-.144-.001-.267-.006-.359-.012M10.416.627C9.858.29 9.116.076 8.328.024c-.162-.01-.326-.012-.49-.01-.899-.017-1.837.16-2.776.53C2.309 1.635.42 4.367.248 7.508c-.086 1.583.352 2.96 1.27 3.98.834.93 2.042 1.367 3.306 1.463 0 0 .241.023.625.018.82.011 2.681-.09 4.004-1.12.684-.534.887-1.742.343-2.419l-.006.005-.004-.005s-1.725 1.377-3.678 1.462c-.232-.004-.47-.02-.718-.063-2.082-.366-2.252-2.323-2.252-2.856.133.002.265.004.396.002 2.797.005 5.296-.73 6.693-1.964.897-.791 1.434-1.516 1.525-2.882.114-1.712-1.33-2.498-1.336-2.5" mask="url(#p6x3c3jnpd)"/>
                    </g>
                    <path fill="#231F20" d="M30.99 12.564c.005.002 1.318-7.346 1.318-7.346s.526-.136 1.49-.145c.155.001.318.006.49.015 1.917.1 3.985.962 3.364 3.858-.26 1.21-1.16 2.4-2.217 3-1.54.873-3.873.691-4.446.618m3.333-9.562C34.137 3 33.956 3 33.78 3c-2.633.001-4.249.344-4.249.344L26 23h1.762c.845 0 1.425-.39 1.602-1.374.135-.759 1.157-6.456 1.223-6.822.713.04 1.368.063 2.129.06 4.763-.01 7.62-2.93 8.17-5.825.787-4.118-2.64-5.997-6.564-6.037M78.344 11.016c-2.408-.193-3.78 1.377-4.667 2.82-.09-.907-.379-1.614-.864-2.103-.473-.477-1.132-.714-1.892-.73-2.086-.042-3.431 1.325-4.455 3.192l.032-.217c.179-1.323.108-1.82-.284-2.338 0 0-.351-.521-1.363-.479-.364-.013-.827.048-1.412.255.334.383.332 1.11.022 3.333-.02.145-1.456 8.519-1.456 8.519s-.092.568.489.568h2.247s.294-1.762.348-2.048c.253-1.169.446-2.382 1.16-4.086 1.463-3.5 3.752-4.941 4.446-4.139.236.273.264.949.126 1.887l-1.346 7.818s-.093.568.488.568h2.244l.288-1.706c.479-2.927 1.158-4.584 1.158-4.584 1.293-3.16 3.035-4.487 3.778-4.23.18.062.5.238.634.832.075.368.08.966-.03 1.636-.12.92-.692 3.478-.956 5.398-.18 1.322-.11 1.819.283 2.338 0 0 .351.52 1.363.478.364.013.827-.048 1.412-.256-.333-.382-.373-1.193-.032-3.345.208-1.311.505-2.717.505-2.717.42-2.078.561-3.853.12-4.945-.54-1.334-1.81-1.672-2.386-1.719M120.351 11.016c-2.372-.191-3.875 1.334-4.924 3.206l.035-.246c.179-1.323.079-1.928-.282-2.339-.696-.793-2.18-.43-2.763-.223.332.383.331 1.11.022 3.333-.042.302-.09.623-.145.921h.005l-1.294 7.6s-.092.568.487.568h2.23s.294-1.762.347-2.049c.252-1.169.54-2.417 1.235-4.128 1.44-3.546 3.563-4.629 4.218-4.329.267.122.465.398.551.816.076.368.08.967-.03 1.637-.12.92-.688 3.478-.951 5.398-.179 1.322-.109 1.82.281 2.338 0 0 .35.521 1.358.479.362.013.823-.048 1.406-.256-.332-.382-.372-1.193-.032-3.346.207-1.311.502-2.717.502-2.717.418-2.078.57-3.858.12-4.946-.55-1.332-1.864-1.675-2.376-1.717M52.13 11.358c-.84.053-1.886.143-1.886.143l-.254 1.5c-.08.464-.181.97-.283 1.469-.209.831-.487 1.752-.955 2.867-1.47 3.498-3.436 4.516-4.176 4.353-.243-.053-.503-.265-.633-.842-.075-.368-.08-.966.03-1.636.121-.919.695-3.476.96-5.394.18-1.322.11-1.82-.284-2.338 0 0-.352-.52-1.368-.478-.366-.013-.83.048-1.417.256.334.382.375 1.192.032 3.344-.21 1.31-.308 1.595-.507 2.715-.226 1.273-.461 2.638-.368 3.891.115 1.554 1.176 2.617 2.643 2.768 2.315.238 3.902-1.338 4.957-3.153l-.029.195c-.18 1.322-.11 1.819.284 2.337 0 0 .353.52 1.369.478.365.014.83-.048 1.417-.255-.335-.382-.333-1.108-.022-3.33.042-.302.092-.623.146-.921h-.005l.824-4.843.371-2.137c.097-.538-.082-1.037-.845-.99M94.13 11.358c-.84.053-1.886.143-1.886.143l-.254 1.5c-.08.464-.181.97-.283 1.469-.209.831-.487 1.752-.955 2.867-1.47 3.498-3.436 4.516-4.176 4.353-.243-.053-.503-.265-.633-.842-.075-.368-.08-.966.03-1.636.121-.919.695-3.476.96-5.394.18-1.322.11-1.82-.284-2.338 0 0-.352-.52-1.368-.478-.366-.013-.83.048-1.417.256.334.382.375 1.192.032 3.344-.21 1.31-.308 1.595-.507 2.715-.226 1.273-.461 2.638-.368 3.891.115 1.554 1.176 2.617 2.643 2.768 2.315.238 3.902-1.338 4.957-3.153l-.029.195c-.18 1.322-.11 1.819.284 2.337 0 0 .353.52 1.369.478.365.014.83-.048 1.417-.255-.335-.382-.333-1.108-.022-3.33.042-.302.092-.623.146-.921h-.005l.824-4.843.371-2.137c.097-.538-.082-1.037-.845-.99M60.594 3c-.068-.002-.148.005-.241.023l-2.23.457-3.036 17.03c-.153.972-.094 1.36.096 1.743.186.33.478.52.797.622.343.106.699.132 1.006.124.588.015 1.062-.112 1.062-.112s-.301-.934-.05-2.407l2.948-16.557C61.03 3.45 61.08 3 60.594 3" transform="translate(-912 -663) translate(912 663) translate(3 6)"/>
                    <g transform="translate(-912 -663) translate(912 663) translate(3 6)">
                        <mask id="oqtj6z2abf" fill="#fff">
                            <use xlink:href="#bxlwsudgne"/>
                        </mask>
                        <path fill="#80C342" d="M8.874 6.12l.25-2.729c.107-1.241.182-2.113.194-2.297.008-.103 0-.206-.022-.3-.06-.252-.242-.409-.242-.409C8.837.175 8.32-.13 7.219.07c-.038.007-.456.086-.818.295-.127.074-.42.266-.572.521-.09.163-.255.534-.317 1.178L5.277 5.96l-.2 3.112s-.134 1.961-.183 2.528c-.096 1.058-.212 2.424-.328 3.872l-3.256.146c-.207.012-1.297.103-1.31.748 0 .037.003.076.009.118.057.457.283.77.573.986.068.05.167.11.19.124.716.417 1.74.399 1.74.399h1.87l-.27 3.786c-.017.265-.031.517-.044.754-.021.388-.033.82.112 1.07.112.193.292.221.46.24.676.08 1.438.11 2.022-.707.527-.738.705-1.573.862-2.673.035-.249.103-.834.176-1.485l.8-8.758c.12-.976.856-1.115 1.14-1.133 0 0 .092-.003.21-.002l-.976-2.966z" mask="url(#oqtj6z2abf)"/>
                    </g>
                    <path fill="#009333" d="M20.755 6.728l-2.967-.14.304-4.475.04-.758c.02-.39.032-.824-.106-1.074-.107-.195-.277-.223-.437-.243-.643-.08-1.367-.11-1.923.711-.5.742-.67 1.581-.819 2.687-.034.25-.098.838-.167 1.493l-.13 1.505c-5.018-.236-11.306-.532-12.184-.57 0 0-.504-.014-.815.017-.905.13-1.276.627-1.428 1.01-.002.009-.16.501-.115 1.079 0 0 .03.426.175.654.138.196.443.466 1.088.49l7.285.001 2.192.034s3.694-.016 3.719 2.952c0 0 .09 2.306-2.42 2.968 0 0-.406.13-1.087.166l2.584 2.846-.218 2.515c-.102 1.247-.173 2.124-.185 2.308-.007.105 0 .208.022.303.057.253.23.41.23.41.206.212.697.518 1.744.318.036-.006.434-.086.778-.296.12-.075.398-.267.543-.524.087-.164.243-.537.302-1.184l.22-3.85.193-3.196c.066-1.048.128-1.97.174-2.54.078-.9.169-2.023.262-3.23h2.004s.972.018 1.653-.402c.022-.013.116-.074.18-.124.276-.216.492-.531.546-.99.006-.043.008-.082.008-.12-.013-.648-1.049-.74-1.245-.75" transform="translate(-912 -663) translate(912 663) translate(3 6)"/>
                    <path fill="#80C342" d="M21.877 15.95c-.151-.354-.52-.812-1.422-.93-.31-.03-.812-.017-.812-.017-.294.011-1.197.05-2.456.105-1.642.07-6.184.269-6.184.269-.382.021-.735.01-.828.017-.295.013-.946.11-1 .705L9 18h11.734c.642-.023.946-.272 1.083-.453.145-.21.175-.602.175-.602.045-.533-.112-.987-.115-.995" transform="translate(-912 -663) translate(912 663) translate(3 6)"/>
                </g>
            </g>
        </g>
    </g>
</svg>
