<svg xmlns="http://www.w3.org/2000/svg" xmlns:xlink="http://www.w3.org/1999/xlink" width="360" height="564" viewBox="0 0 360 564">
  <defs>
    <radialGradient id="radial-gradient" cx="0.5" cy="0.5" r="0.965" gradientTransform="translate(0.303) scale(0.394 1)" gradientUnits="objectBoundingBox">
      <stop offset="0.574" stop-color="#181415"/>
      <stop offset="0.798" stop-color="#181415"/>
      <stop offset="1" stop-color="#181415"/>
    </radialGradient>
    <clipPath id="clip-path">
      <path id="패스_297" data-name="패스 297" d="M635.177,3734.455s-.439,4.431-4.5,4.431-4.062-4.431-4.062-4.431v-42.014h8.564Z" transform="translate(-626.613 -3692.441)" fill="none"/>
    </clipPath>
    <clipPath id="clip-path-2">
      <path id="패스_308" data-name="패스 308" d="M562.143,3755.723s-.45-2.243.6-2.108c0,0,.151.9,1.957,1.807s8.582,1.053,8.733-1.807c0,0,.3-.151.3,2.108s-1.957,4.065-5.42,4.215C566.455,3760.019,561.39,3758.734,562.143,3755.723Z" transform="translate(-562.047 -3753.609)" fill="none"/>
    </clipPath>
    <clipPath id="clip-path-3">
      <path id="패스_318" data-name="패스 318" d="M590.3,3778.968s-.492-2.453.659-2.306c0,0,.164.988,2.141,1.976s9.388,1.153,9.553-1.976c0,0,.329-.166.329,2.306s-2.141,4.447-5.929,4.611C595.013,3783.668,589.472,3782.262,590.3,3778.968Z" transform="translate(-590.191 -3776.656)" fill="none"/>
    </clipPath>
    <clipPath id="clip-path-4">
      <path id="패스_328" data-name="패스 328" d="M644.439,3781.307s-.492-2.453.659-2.306c0,0,.164.988,2.141,1.977s9.388,1.153,9.553-1.977c0,0,.329-.165.329,2.306s-2.141,4.448-5.929,4.612C649.157,3786.008,643.616,3784.6,644.439,3781.307Z" transform="translate(-644.335 -3778.995)" fill="none"/>
    </clipPath>
    <clipPath id="clip-path-5">
      <path id="패스_338" data-name="패스 338" d="M684.035,3762.775s-.442-2.2.59-2.068c0,0,.148.886,1.921,1.773s8.421,1.034,8.568-1.773c0,0,.3-.147.3,2.068s-1.921,3.989-5.319,4.137C688.266,3766.991,683.3,3765.73,684.035,3762.775Z" transform="translate(-683.941 -3760.701)" fill="none"/>
    </clipPath>
    <clipPath id="clip-path-6">
      <path id="패스_348" data-name="패스 348" d="M602.837,3738.841s-.422-2.1.564-1.976c0,0,.141.847,1.834,1.693s8.046.989,8.187-1.693c0,0,.283-.141.283,1.976s-1.835,3.811-5.081,3.952C606.88,3742.87,602.132,3741.665,602.837,3738.841Z" transform="translate(-602.747 -3736.86)" fill="none"/>
    </clipPath>
    <clipPath id="clip-path-7">
      <path id="패스_358" data-name="패스 358" d="M650.3,3740.512s-.422-2.1.565-1.976c0,0,.141.847,1.834,1.693s8.046.988,8.187-1.693c0,0,.283-.141.283,1.976s-1.835,3.811-5.081,3.953C654.34,3744.541,649.591,3743.335,650.3,3740.512Z" transform="translate(-650.207 -3738.531)" fill="none"/>
    </clipPath>
    <clipPath id="clip-path-8">
      <path id="패스_368" data-name="패스 368" d="M656.166,3757.219c0,12.8-22.984,23.184-51.336,23.184s-51.335-10.38-51.335-23.184,22.983-23.183,51.335-23.183S656.166,3744.416,656.166,3757.219Z" transform="translate(-553.496 -3734.036)" fill="none"/>
    </clipPath>
  </defs>
  <g id="card1" transform="translate(-2 -454)">
    <rect id="사각형_3" data-name="사각형 3" width="360" height="564" transform="translate(2 454)" fill="#d8f8be"/>
    <g id="그룹_177" data-name="그룹 177" transform="translate(-370.87 -3072.825)">
      <path id="패스_236" data-name="패스 236" d="M423.868,3572.247h0c-2.3,5.741-2.425,12.254-1.327,18.341.482,2.668,1.617,5.636,4.184,6.523,2.083.72,4.453-.27,5.969-1.867a14.7,14.7,0,0,0,3.2-5.233,8.735,8.735,0,0,0,.481-2.777,2.042,2.042,0,0,0-1.149-1.876c-1.055-.409-2.2.485-2.684,1.507s-.575,2.2-1.081,3.206-1.714,1.854-2.736,1.369c-.845-.4-1.1-1.455-1.262-2.375-.593-3.413-1.185-6.925-.468-10.315a4.8,4.8,0,0,1,1.131-2.449,2.147,2.147,0,0,1,2.5-.5c1.672.97.741,3.748,2.339,4.676,2.289,1.33,3.785-2.015,3.767-3.67-.069-6.336-1.142-9.4-5.974-9.425A7.472,7.472,0,0,0,423.868,3572.247Z" transform="translate(0 -1.041)" fill="#48b896"/>
      <g id="그룹_168" data-name="그룹 168" transform="translate(438.443 3566.575)">
        <g id="그룹_167" data-name="그룹 167">
          <path id="패스_237" data-name="패스 237" d="M462.873,3568.94a7.626,7.626,0,0,0-8.217.105c-3.329,2.427-3.494,7.407-3.477,11.137.023,4.963,1.152,10.124,4.307,14.078a7.888,7.888,0,0,0,3.739,2.823,6.342,6.342,0,0,0,5.4-1.1,11.077,11.077,0,0,0,3.427-4.478C471.142,3584.714,469.987,3573.011,462.873,3568.94Zm-.038,17.016a4.221,4.221,0,0,1-1.084,1.7,1.742,1.742,0,0,1-1.707.42,2.6,2.6,0,0,1-1.183-1.075h0a9.868,9.868,0,0,1-1.362-5.361c-.006-1.421.046-3.318,1.1-4.242a2.075,2.075,0,0,1,2.6-.04C463.447,3578.914,463.813,3583.371,462.834,3585.957Z" transform="translate(-451.178 -3567.792)" fill="#48b896"/>
        </g>
      </g>
      <path id="패스_238" data-name="패스 238" d="M530.676,3569.2a15.664,15.664,0,0,0-2.654,6.171,48.431,48.431,0,0,0-1.307,13.242c.137,3.049.552,6.817,3.666,8.3,5.762,2.745,10.1-5.046,10.961-9.6.434-2.3.731-5.44-1.876-6.549a6.054,6.054,0,0,0-3.478-.671,2.993,2.993,0,0,0-2.727,2.547,2.02,2.02,0,0,0,1.7,2.053c.31.089,1.153.006,1.371.213.874.84.061,3.893-.43,4.7-.867,1.421-3.227,1.974-4.159.594a3.514,3.514,0,0,1-.465-1.544,26.782,26.782,0,0,1,1.1-11.661,6.528,6.528,0,0,1,2.512-3.8,1.246,1.246,0,0,1,1.19-.16c.689.377.742,1.3.92,2.063.483,2.07,3.319,1.378,4.084.308a7.821,7.821,0,0,0,.594-5.656C539.835,3564.749,533.392,3565.734,530.676,3569.2Z" transform="translate(-45.634 -0.567)" fill="#48b896"/>
      <g id="그룹_170" data-name="그룹 170" transform="translate(496.016 3567.813)">
        <g id="그룹_169" data-name="그룹 169">
          <path id="패스_239" data-name="패스 239" d="M571.89,3597.385a3.875,3.875,0,0,0-.592-1.732,39.986,39.986,0,0,1-3.354-8.68c.1-.05.2-.1.291-.15,3.4-1.871,4.811-5.417,4.68-9.374a7.735,7.735,0,0,0-2.406-5.635,7.42,7.42,0,0,0-2.852-1.441,11.155,11.155,0,0,0-8.656,1.2l-1.307,1.729a182.635,182.635,0,0,0-3.124,22.067,5.671,5.671,0,0,0,.64,3.905,2.023,2.023,0,0,0,1.59.882c1.268.012,1.915-1.185,2.317-2.282a19.465,19.465,0,0,0,1.166-5.892,3.485,3.485,0,0,1,2.2-3.12q1.927,4.311,4.179,8.45c.506.927,1.154,1.94,2.175,2.091C569.838,3599.556,571.894,3598.438,571.89,3597.385Zm-8.49-14.249-.526-.761a22.841,22.841,0,0,1,.84-6.746c1.063-.056,2.275-.05,2.973.769a2.712,2.712,0,0,1,.555,1.531A5.026,5.026,0,0,1,563.4,3583.136Z" transform="translate(-554.506 -3569.981)" fill="#48b896"/>
        </g>
      </g>
      <g id="그룹_172" data-name="그룹 172" transform="translate(516.467 3568.122)">
        <g id="그룹_171" data-name="그룹 171" transform="translate(0)">
          <path id="패스_240" data-name="패스 240" d="M609.674,3593.1a36.455,36.455,0,0,0-3.456-18.516c-.857-1.789-2.117-3.694-4.086-4.013a4.746,4.746,0,0,0-2.688.463c-3.846,1.747-5.515,6.193-6.643,10.239h0q-1.222,4.387-2.187,8.841c-.5,2.286-1.779,5.514-.857,7.8.718,1.781,2.579,2.79,4.336,1.751,2.211-1.308,2.573-4.451,3.317-6.647a2.7,2.7,0,0,1,1.5-1.906,2.934,2.934,0,0,1,1.053-.052,4.923,4.923,0,0,1,3.421,1.154c.787.875.82,2.156,1.03,3.309s.865,2.451,2.039,2.567a2.27,2.27,0,0,0,1.79-.786A6.69,6.69,0,0,0,609.674,3593.1Zm-6.464-8.807a.563.563,0,0,1-.368.118l-2.676.207a14.573,14.573,0,0,1-1.883.065.334.334,0,0,1-.38-.478,24.675,24.675,0,0,1,1.908-5.41l.519-.375a8.477,8.477,0,0,1,2.966,5.417A.543.543,0,0,1,603.21,3584.294Z" transform="translate(-589.432 -3570.527)" fill="#48b896"/>
        </g>
      </g>
      <path id="패스_241" data-name="패스 241" d="M657.488,3591.119h0a16.42,16.42,0,0,0,2.708,6.383,5.913,5.913,0,0,0,3.054,2.183,5.79,5.79,0,0,0,3.621-.4c3.283-1.363,5.5-4.6,6.521-8.025s1-7.057.972-10.628a16.15,16.15,0,0,0-.4-4.142,8.115,8.115,0,0,0-2.2-3.694,1.83,1.83,0,0,0-.984-.574c-.9-.114-1.486.9-1.771,1.769a26.219,26.219,0,0,0-1.31,7.977c-.016,2.032.189,4.153-.618,6.017-.39.9-1.237,1.793-2.193,1.587-.738-.158-1.187-.9-1.5-1.592a16.46,16.46,0,0,1-1.438-7.166c.028-1.05.157-2.1.122-3.149a5.625,5.625,0,0,0-.837-2.993,2.937,2.937,0,0,0-5.318.865c-.584,2.826.038,6.373.39,9.188A56.838,56.838,0,0,0,657.488,3591.119Z" transform="translate(-101.815 -3.139)" fill="#48b896"/>
      <path id="패스_242" data-name="패스 242" d="M690.408,3589.125h0a14.52,14.52,0,0,0,.468,4.812,4.174,4.174,0,0,0,1,1.778,4.062,4.062,0,0,0,1.562.865,13.237,13.237,0,0,0,6.554.132c1.994-.37,4.194-.6,5.974-1.625s1.545-.7,3.136-2.874a5.988,5.988,0,0,0,.223-2.291c-.063-.332-.362-.959-.672-1.073-1.814-.671-3.912.561-5.845.939a59.221,59.221,0,0,0-6.248,1.476c.418-.137,1.5-6.728,1.612-7.379.377-2.1,1.016-4.925,1.428-7.26.546-3.09,2.9-7.462.05-9.575-3.78-2.8-6.561,6.666-7.269,9.033A51.079,51.079,0,0,0,690.408,3589.125Z" transform="translate(-116.927 -0.671)" fill="#48b896"/>
      <g id="그룹_174" data-name="그룹 174" transform="translate(593.59 3565.375)">
        <g id="그룹_173" data-name="그룹 173">
          <path id="패스_243" data-name="패스 243" d="M746.285,3588.243a36.452,36.452,0,0,0-3.456-18.517c-.857-1.789-2.117-3.694-4.086-4.013a4.749,4.749,0,0,0-2.688.464c-3.846,1.747-5.515,6.192-6.642,10.238h0q-1.223,4.388-2.188,8.841c-.495,2.287-1.779,5.514-.857,7.8.718,1.781,2.579,2.791,4.336,1.752,2.211-1.308,2.574-4.451,3.317-6.647a2.7,2.7,0,0,1,1.5-1.905,2.918,2.918,0,0,1,1.053-.052,4.916,4.916,0,0,1,3.421,1.154c.787.875.82,2.156,1.03,3.308s.865,2.451,2.039,2.568a2.272,2.272,0,0,0,1.79-.786A6.69,6.69,0,0,0,746.285,3588.243Zm-6.464-8.807a.564.564,0,0,1-.367.119l-2.676.207a14.571,14.571,0,0,1-1.883.064.333.333,0,0,1-.38-.477,24.647,24.647,0,0,1,1.908-5.41l.519-.376a8.477,8.477,0,0,1,2.966,5.417A.543.543,0,0,1,739.821,3579.436Z" transform="translate(-726.044 -3565.669)" fill="#48b896"/>
        </g>
      </g>
      <path id="패스_244" data-name="패스 244" d="M792.151,3593.123a2.168,2.168,0,0,0,2.232.949,2.589,2.589,0,0,0,1.662-.429,3.629,3.629,0,0,0,.909-2.25c.636-4.011,1.086-8.068,1.35-12.145.161-2.492.268-4.991.375-7.488.075-1.737.668-4.466-.861-5.65a2.051,2.051,0,0,0-2.145-.134,4.987,4.987,0,0,0-2.336,3.1,18.064,18.064,0,0,0-.614,4.207q-.353,5.288-.705,10.574C791.846,3586.428,790.768,3590.8,792.151,3593.123Z" transform="translate(-160.99 -0.325)" fill="#48b896"/>
      <path id="패스_245" data-name="패스 245" d="M778.944,3566.635a2.277,2.277,0,0,0-.619-1.048,2.083,2.083,0,0,0-1.27-.354,80.3,80.3,0,0,0-11.364-.06c-1.035.093-2.465.094-3.156,1.138-.6.911-.73,3.5-.012,4.345h0a1.441,1.441,0,0,0,1.23.349c.851-.039,1.7-.092,2.551-.152-.116.8-.174,1.623-.228,2.438q-.352,5.287-.7,10.575c-.171,2.57-1.249,6.939.133,9.266a2.171,2.171,0,0,0,2.232.95,2.592,2.592,0,0,0,1.662-.43,3.627,3.627,0,0,0,.908-2.25q.954-6.018,1.35-12.146c.161-2.492.267-4.99.375-7.488.019-.442.072-.948.114-1.477q2.215-.263,4.424-.579c1.06-.151,2.353-.546,2.551-1.748A2.787,2.787,0,0,0,778.944,3566.635Z" transform="translate(-148.12 0)" fill="#48b896"/>
      <path id="패스_246" data-name="패스 246" d="M865.425,3566.822a1.845,1.845,0,0,0-2.024-.142,4.9,4.9,0,0,0-2.191,3.09,19.015,19.015,0,0,0-.564,4.2c-.186,3.146-.4,7.109-.583,10.255-2.468-4.317-4.66-8.709-7.128-13.027-.587-1.027-1.45-2.823-2.369-3.528l-.077.251a2.246,2.246,0,0,0-.553-.692,1.844,1.844,0,0,0-2.023-.141,4.9,4.9,0,0,0-2.191,3.089,18.992,18.992,0,0,0-.563,4.2q-.313,5.284-.625,10.57c-.152,2.569-1.152,6.932.161,9.264a2.022,2.022,0,0,0,2.108.957,2.324,2.324,0,0,0,1.566-.424,3.714,3.714,0,0,0,.848-2.246q.808-5.545,1.163-11.188a94.043,94.043,0,0,0,6.359,10.217,8.981,8.981,0,0,0,2.39,2.464,3.642,3.642,0,0,0,1.809.543,2.583,2.583,0,0,0,1.354.223,2.325,2.325,0,0,0,1.566-.424,3.716,3.716,0,0,0,.848-2.246c.585-4.008.994-8.062,1.228-12.137.143-2.492.234-4.988.326-7.485C866.322,3570.738,866.871,3568.011,865.425,3566.822Z" transform="translate(-183.832 -0.632)" fill="#48b896"/>
      <g id="그룹_176" data-name="그룹 176" transform="translate(639.899 3565.43)">
        <g id="그룹_175" data-name="그룹 175">
          <path id="패스_247" data-name="패스 247" d="M819.831,3566.917a7.625,7.625,0,0,0-8.217.105c-3.329,2.427-3.494,7.407-3.477,11.137.023,4.963,1.152,10.124,4.307,14.077a7.884,7.884,0,0,0,3.739,2.823,6.343,6.343,0,0,0,5.4-1.1,11.078,11.078,0,0,0,3.426-4.478C828.1,3582.69,826.945,3570.987,819.831,3566.917Zm-.039,17.016a4.221,4.221,0,0,1-1.084,1.705,1.747,1.747,0,0,1-1.708.42,2.6,2.6,0,0,1-1.182-1.076h0a9.859,9.859,0,0,1-1.362-5.361c-.006-1.42.046-3.317,1.1-4.242a2.075,2.075,0,0,1,2.6-.04C820.4,3576.89,820.77,3581.347,819.792,3583.932Z" transform="translate(-808.136 -3565.768)" fill="#48b896"/>
        </g>
      </g>
      <path id="패스_248" data-name="패스 248" d="M504.108,3568.986a1.482,1.482,0,0,0-1.79-.157,4.818,4.818,0,0,0-1.914,3.072,21.173,21.173,0,0,0-.466,4.2c-.141,3.143-.3,7.1-.438,10.245-2.216-4.334-4.187-8.741-6.4-13.074a13.8,13.8,0,0,0-2.122-3.545l-.066.25a2.281,2.281,0,0,0-.494-.7,1.483,1.483,0,0,0-1.79-.157,4.821,4.821,0,0,0-1.914,3.072,21.225,21.225,0,0,0-.466,4.2q-.236,5.28-.472,10.56c-.115,2.567-.966,6.92.213,9.261a1.759,1.759,0,0,0,1.871.973,1.863,1.863,0,0,0,1.381-.411,3.95,3.95,0,0,0,.733-2.239q.674-5.537.943-11.174a98.474,98.474,0,0,0,5.7,10.26,8.773,8.773,0,0,0,2.132,2.481,3,3,0,0,0,1.6.557,2.079,2.079,0,0,0,1.2.233,1.862,1.862,0,0,0,1.382-.411,3.952,3.952,0,0,0,.733-2.24c.486-4,.818-8.05.993-12.122.107-2.489.169-4.983.231-7.479C504.931,3572.906,505.4,3570.185,504.108,3568.986Z" transform="translate(-27.592 -1.569)" fill="#48b896"/>
      <path id="패스_249" data-name="패스 249" d="M642.333,3571.493a2.273,2.273,0,0,0-.619-1.048,2.081,2.081,0,0,0-1.27-.354,80.19,80.19,0,0,0-11.364-.059c-1.035.092-2.465.093-3.156,1.137-.6.911-.73,3.5-.012,4.345h0a1.439,1.439,0,0,0,1.23.348c.851-.038,1.7-.091,2.551-.152-.116.8-.174,1.624-.228,2.438q-.352,5.287-.7,10.575c-.171,2.571-1.249,6.939.133,9.266a2.17,2.17,0,0,0,2.232.949,2.585,2.585,0,0,0,1.663-.43,3.625,3.625,0,0,0,.908-2.25c.636-4.012,1.086-8.068,1.35-12.145.161-2.493.268-4.991.375-7.489.019-.442.071-.948.114-1.477q2.215-.263,4.424-.579c1.06-.15,2.353-.545,2.551-1.747A2.788,2.788,0,0,0,642.333,3571.493Z" transform="translate(-88.634 -2.11)" fill="#48b896"/>
    </g>
    <g id="그룹_243" data-name="그룹 243" transform="translate(-393.844 -3111.108)">
      <g id="l">
        <g id="그룹_178" data-name="그룹 178" transform="translate(498.054 3675.779)">
          <path id="패스_250" data-name="패스 250" d="M529.924,3689.49a3.209,3.209,0,0,1-2.648.759l-.647-.372a1.316,1.316,0,0,1-.5-2.066q2.309-1.715,3.172-1.218l.647.372Q530.568,3688.926,529.924,3689.49Z" transform="translate(-525.828 -3686.482)" fill="#e48bdf"/>
        </g>
        <g id="그룹_179" data-name="그룹 179" transform="translate(468.306 3677.716)">
          <path id="패스_251" data-name="패스 251" d="M483.327,3689.542a2.679,2.679,0,0,0,.45.037,1.594,1.594,0,0,1,.825.15l.225.225.225.225a.736.736,0,0,1,.187.263.736.736,0,0,0,.187.262,4.731,4.731,0,0,1,.413.937,3.088,3.088,0,0,1,.038,1.463,4.7,4.7,0,0,1-2.476,1.725.461.461,0,0,1-.336.149,1.271,1.271,0,0,1-.563-.225q-.149,0-.3-.3a.719.719,0,0,0-.338-.374,1,1,0,0,1-.336-.226,2.066,2.066,0,0,0-.451-1.5c-.349-.25-.525-.424-.525-.525a3.574,3.574,0,0,1,.226-.976,9.908,9.908,0,0,1,.524-1.274,5.147,5.147,0,0,1,.976-.15,3.484,3.484,0,0,1,.675.075A2.316,2.316,0,0,1,483.327,3689.542Z" transform="translate(-480.552 -3689.429)" fill="#d2375b"/>
        </g>
        <g id="그룹_180" data-name="그룹 180" transform="translate(488.799 3689.236)">
          <path id="패스_252" data-name="패스 252" d="M513.483,3707.033a1.708,1.708,0,0,0,.282.023,1.009,1.009,0,0,1,.518.094l.141.141.141.141a.459.459,0,0,1,.118.165.461.461,0,0,0,.117.165,2.952,2.952,0,0,1,.26.587,1.944,1.944,0,0,1,.024.918,2.943,2.943,0,0,1-1.552,1.081.288.288,0,0,1-.212.094.8.8,0,0,1-.353-.141c-.062,0-.125-.062-.188-.188a.453.453,0,0,0-.212-.235.63.63,0,0,1-.211-.141,1.3,1.3,0,0,0-.283-.941c-.219-.157-.329-.266-.329-.329a2.233,2.233,0,0,1,.142-.612,6.233,6.233,0,0,1,.328-.8,3.211,3.211,0,0,1,.612-.094,2.181,2.181,0,0,1,.423.047A1.363,1.363,0,0,1,513.483,3707.033Z" transform="translate(-511.742 -3706.962)" fill="#fff"/>
        </g>
        <g id="그룹_181" data-name="그룹 181" transform="translate(496.126 3658.29)">
          <path id="패스_253" data-name="패스 253" d="M524.634,3659.935a1.691,1.691,0,0,0,.283.023,1,1,0,0,1,.517.094c.064.063.11.111.141.141l.141.141a.449.449,0,0,1,.117.165.48.48,0,0,0,.118.164,2.9,2.9,0,0,1,.259.588,1.924,1.924,0,0,1,.024.917,2.94,2.94,0,0,1-1.553,1.082.29.29,0,0,1-.211.094.8.8,0,0,1-.353-.142c-.062,0-.125-.062-.188-.188a.452.452,0,0,0-.212-.235.63.63,0,0,1-.212-.141,1.3,1.3,0,0,0-.283-.94c-.219-.157-.329-.266-.329-.33a2.255,2.255,0,0,1,.141-.612,6.218,6.218,0,0,1,.329-.8,3.247,3.247,0,0,1,.612-.094,2.164,2.164,0,0,1,.423.047A1.482,1.482,0,0,1,524.634,3659.935Z" transform="translate(-522.894 -3659.864)" fill="#fff"/>
        </g>
        <g id="그룹_182" data-name="그룹 182" transform="translate(461.363 3701.514)">
          <path id="패스_254" data-name="패스 254" d="M471.727,3725.721a1.609,1.609,0,0,0,.282.023,1.007,1.007,0,0,1,.518.095l.141.141.141.141a.454.454,0,0,1,.118.165.454.454,0,0,0,.118.164,3,3,0,0,1,.259.588,1.942,1.942,0,0,1,.024.918,2.945,2.945,0,0,1-1.553,1.082.29.29,0,0,1-.212.094.8.8,0,0,1-.353-.141c-.062,0-.125-.062-.188-.188a.455.455,0,0,0-.212-.235.621.621,0,0,1-.211-.14,1.294,1.294,0,0,0-.283-.941c-.219-.157-.329-.266-.329-.329a2.239,2.239,0,0,1,.142-.612,6.353,6.353,0,0,1,.329-.8,3.258,3.258,0,0,1,.612-.094,2.216,2.216,0,0,1,.422.047A1.491,1.491,0,0,1,471.727,3725.721Z" transform="translate(-469.986 -3725.65)" fill="#c5c5f6"/>
        </g>
        <g id="그룹_183" data-name="그룹 183" transform="translate(510.103 3672.735)">
          <path id="패스_255" data-name="패스 255" d="M545.9,3681.919a1.63,1.63,0,0,0,.281.023.992.992,0,0,1,.515.094l.141.14.141.14a.484.484,0,0,1,.117.164.445.445,0,0,0,.117.164,2.972,2.972,0,0,1,.258.585,1.945,1.945,0,0,1,.024.914,2.93,2.93,0,0,1-1.546,1.076.285.285,0,0,1-.21.094.8.8,0,0,1-.351-.14c-.062,0-.124-.062-.187-.187a.453.453,0,0,0-.211-.234.626.626,0,0,1-.21-.14,1.293,1.293,0,0,0-.281-.937c-.217-.156-.327-.265-.327-.328a2.243,2.243,0,0,1,.14-.609,6.284,6.284,0,0,1,.328-.8,3.248,3.248,0,0,1,.608-.093,2.232,2.232,0,0,1,.421.046A1.552,1.552,0,0,1,545.9,3681.919Z" transform="translate(-544.166 -3681.849)" fill="#fff"/>
        </g>
        <g id="그룹_184" data-name="그룹 184" transform="translate(444.844 3746.457)">
          <path id="패스_256" data-name="패스 256" d="M446.576,3794.121a1.6,1.6,0,0,0,.281.024,1.006,1.006,0,0,1,.515.093l.141.141.141.14a.484.484,0,0,1,.117.164.444.444,0,0,0,.117.164,3.051,3.051,0,0,1,.258.585,1.937,1.937,0,0,1,.023.914,2.929,2.929,0,0,1-1.545,1.076.286.286,0,0,1-.21.094.813.813,0,0,1-.352-.14c-.062,0-.124-.063-.187-.187a.456.456,0,0,0-.211-.234.617.617,0,0,1-.211-.141,1.29,1.29,0,0,0-.281-.936c-.217-.157-.328-.266-.328-.329a2.251,2.251,0,0,1,.141-.609,6.2,6.2,0,0,1,.328-.795,3.215,3.215,0,0,1,.608-.094,2.239,2.239,0,0,1,.421.047A1.528,1.528,0,0,1,446.576,3794.121Z" transform="translate(-444.844 -3794.051)" fill="#fff"/>
        </g>
        <g id="그룹_185" data-name="그룹 185" transform="translate(463.49 3655.502)">
          <path id="패스_257" data-name="패스 257" d="M474.955,3655.69a1.624,1.624,0,0,0,.281.024,1,1,0,0,1,.515.094l.14.14.142.14a.481.481,0,0,1,.117.164.443.443,0,0,0,.117.164,3,3,0,0,1,.257.585,1.926,1.926,0,0,1,.024.914A2.929,2.929,0,0,1,475,3658.99a.286.286,0,0,1-.211.094.805.805,0,0,1-.351-.141c-.062,0-.124-.062-.187-.187a.453.453,0,0,0-.21-.233.621.621,0,0,1-.211-.14,1.29,1.29,0,0,0-.281-.936c-.217-.157-.328-.266-.328-.329a2.25,2.25,0,0,1,.141-.609,6.125,6.125,0,0,1,.328-.795,3.2,3.2,0,0,1,.608-.094,2.237,2.237,0,0,1,.421.046A1.56,1.56,0,0,1,474.955,3655.69Z" transform="translate(-473.223 -3655.62)" fill="#ebc5c5"/>
        </g>
        <g id="그룹_186" data-name="그룹 186" transform="translate(471.954 3747.135)">
          <path id="패스_258" data-name="패스 258" d="M488.165,3795.786a.8.8,0,0,1,.023-.187.787.787,0,0,0,.024-.187.671.671,0,0,1,.21-.21.413.413,0,0,1,.164-.07.527.527,0,0,1,.234-.047,1.981,1.981,0,0,1,1.076.327,1.281,1.281,0,0,1,.562,1.077l.093.187a.414.414,0,0,1,.047.187,1.192,1.192,0,0,1,.07.164.37.37,0,0,1,.024.117,2.852,2.852,0,0,1-.024.375,2.959,2.959,0,0,1-.07.375,2.133,2.133,0,0,1-.047.421,2.479,2.479,0,0,0-.047.468q0,.608-.749.749a6.68,6.68,0,0,1-1.03.141,2.045,2.045,0,0,1-.538-.07,1.889,1.889,0,0,1-.538-.258c-.188-.094-.382-.2-.586-.327l-.679-.421a.764.764,0,0,0-.047-.235c-.03-.093-.062-.187-.093-.281l-.094-.187a.424.424,0,0,1-.047-.187,1.84,1.84,0,0,1,.4-1.193A2.8,2.8,0,0,1,488.165,3795.786Z" transform="translate(-486.105 -3795.084)" fill="#d2375b"/>
        </g>
        <g id="그룹_187" data-name="그룹 187" transform="translate(476.81 3728.229)">
          <path id="패스_259" data-name="패스 259" d="M498.365,3768.642a2.174,2.174,0,0,1-1.522,2.1h-.913a2.366,2.366,0,0,1-2.435-1.632q.3-2.8,1.522-2.8h.913Q498.365,3767.781,498.365,3768.642Z" transform="translate(-493.495 -3766.309)" fill="#6fb0b1"/>
        </g>
        <g id="그룹_188" data-name="그룹 188" transform="translate(455.53 3778.3)">
          <path id="패스_260" data-name="패스 260" d="M465.977,3844.847a2.174,2.174,0,0,1-1.522,2.1h-.913a2.367,2.367,0,0,1-2.435-1.632q.3-2.8,1.522-2.8h.913Q465.977,3843.988,465.977,3844.847Z" transform="translate(-461.107 -3842.515)" fill="#6fb0b1"/>
        </g>
        <g id="그룹_190" data-name="그룹 190" transform="translate(490.746 3735.355)">
          <g id="그룹_189" data-name="그룹 189">
            <path id="패스_261" data-name="패스 261" d="M518.795,3779.112a1.825,1.825,0,0,1-1.277,1.762h-.767a1.987,1.987,0,0,1-2.045-1.37q.255-2.35,1.278-2.35h.767Q518.795,3778.391,518.795,3779.112Z" transform="translate(-514.706 -3777.154)" fill="#fdfb86"/>
          </g>
        </g>
        <g id="그룹_192" data-name="그룹 192" transform="translate(470.676 3769.271)">
          <g id="그룹_191" data-name="그룹 191">
            <path id="패스_262" data-name="패스 262" d="M488.249,3830.732a1.826,1.826,0,0,1-1.278,1.762H486.2a1.988,1.988,0,0,1-2.045-1.371q.255-2.35,1.278-2.35h.767Q488.249,3830.01,488.249,3830.732Z" transform="translate(-484.16 -3828.774)" fill="#fdfb86"/>
          </g>
        </g>
        <g id="그룹_193" data-name="그룹 193" transform="translate(481.964 3713.098)">
          <path id="패스_263" data-name="패스 263" d="M506.76,3745.436q0,1.348-1.694,1.94h-1.016a2.67,2.67,0,0,1-2.71-1.509q.339-2.586,1.695-2.586h1.016Q506.761,3744.642,506.76,3745.436Z" transform="translate(-501.339 -3743.281)" fill="#e48bdf"/>
        </g>
      </g>
      <g id="r" transform="translate(7)">
        <g id="그룹_194" data-name="그룹 194" transform="translate(673.632 3733.046)">
          <path id="패스_264" data-name="패스 264" d="M794.746,3773.708a1.674,1.674,0,0,0,.275.022.976.976,0,0,1,.5.091l.137.137.137.137a.448.448,0,0,1,.114.16.447.447,0,0,0,.114.16,2.837,2.837,0,0,1,.252.572,1.889,1.889,0,0,1,.023.892,2.864,2.864,0,0,1-1.51,1.052.281.281,0,0,1-.206.091.777.777,0,0,1-.343-.137c-.06,0-.122-.061-.183-.184a.441.441,0,0,0-.206-.228.619.619,0,0,1-.206-.137,1.26,1.26,0,0,0-.275-.915c-.213-.152-.32-.259-.32-.32a2.2,2.2,0,0,1,.137-.6,6.087,6.087,0,0,1,.32-.777,3.131,3.131,0,0,1,.6-.092,2.1,2.1,0,0,1,.411.046A1.4,1.4,0,0,1,794.746,3773.708Z" transform="translate(-793.053 -3773.639)" fill="#fff"/>
        </g>
        <g id="그룹_195" data-name="그룹 195" transform="translate(661.949 3713.852)">
          <path id="패스_265" data-name="패스 265" d="M776.964,3744.5a1.591,1.591,0,0,0,.274.022.98.98,0,0,1,.5.092l.137.137.137.137a.429.429,0,0,1,.114.16.465.465,0,0,0,.114.16,2.859,2.859,0,0,1,.252.572,1.888,1.888,0,0,1,.023.892,2.867,2.867,0,0,1-1.51,1.052.283.283,0,0,1-.206.091.78.78,0,0,1-.343-.136c-.061,0-.122-.061-.183-.184a.437.437,0,0,0-.206-.228.62.62,0,0,1-.206-.137,1.26,1.26,0,0,0-.275-.915c-.213-.153-.321-.259-.321-.321a2.17,2.17,0,0,1,.138-.595,6.072,6.072,0,0,1,.319-.778,3.177,3.177,0,0,1,.6-.091,2.106,2.106,0,0,1,.411.046A1.455,1.455,0,0,1,776.964,3744.5Z" transform="translate(-775.271 -3744.427)" fill="#c5c5f6"/>
        </g>
        <g id="그룹_196" data-name="그룹 196" transform="translate(671.906 3667.083)">
          <path id="패스_266" data-name="패스 266" d="M792.166,3673.318a1.707,1.707,0,0,0,.282.023,1.011,1.011,0,0,1,.518.094l.141.141.141.141a.453.453,0,0,1,.118.165.457.457,0,0,0,.118.164,2.968,2.968,0,0,1,.259.588,1.941,1.941,0,0,1,.024.917,2.947,2.947,0,0,1-1.553,1.082.289.289,0,0,1-.212.094.8.8,0,0,1-.353-.141c-.062,0-.125-.062-.188-.188a.449.449,0,0,0-.212-.234.639.639,0,0,1-.211-.142,1.292,1.292,0,0,0-.283-.94c-.219-.157-.329-.267-.329-.33a2.237,2.237,0,0,1,.142-.612,6.316,6.316,0,0,1,.329-.8,3.25,3.25,0,0,1,.612-.094,2.223,2.223,0,0,1,.423.047A1.439,1.439,0,0,1,792.166,3673.318Z" transform="translate(-790.425 -3673.247)" fill="#fff"/>
        </g>
        <g id="그룹_197" data-name="그룹 197" transform="translate(622.585 3655.275)">
          <path id="패스_267" data-name="패스 267" d="M717.1,3655.346a1.7,1.7,0,0,0,.282.023,1,1,0,0,1,.518.095l.141.141.141.141a.461.461,0,0,1,.118.165.46.46,0,0,0,.117.164,2.957,2.957,0,0,1,.26.588,1.941,1.941,0,0,1,.024.917,2.948,2.948,0,0,1-1.553,1.082.291.291,0,0,1-.212.094.8.8,0,0,1-.353-.141c-.062,0-.125-.062-.189-.189a.453.453,0,0,0-.212-.234.641.641,0,0,1-.212-.142,1.294,1.294,0,0,0-.283-.94c-.219-.157-.329-.266-.329-.33a2.236,2.236,0,0,1,.142-.611,6.139,6.139,0,0,1,.328-.8,3.243,3.243,0,0,1,.612-.094,2.215,2.215,0,0,1,.423.047A1.5,1.5,0,0,1,717.1,3655.346Z" transform="translate(-715.36 -3655.275)" fill="#c5c5f6"/>
        </g>
        <g id="그룹_198" data-name="그룹 198" transform="translate(660.883 3746.911)">
          <path id="패스_268" data-name="패스 268" d="M775.389,3794.813a1.614,1.614,0,0,0,.282.023,1,1,0,0,1,.518.095l.141.141.141.141a.463.463,0,0,1,.118.165.463.463,0,0,0,.118.165,2.923,2.923,0,0,1,.259.588,1.934,1.934,0,0,1,.024.917,2.944,2.944,0,0,1-1.553,1.082.289.289,0,0,1-.212.094.8.8,0,0,1-.353-.141c-.062,0-.125-.062-.188-.187a.452.452,0,0,0-.212-.235.622.622,0,0,1-.211-.141,1.3,1.3,0,0,0-.282-.941c-.219-.157-.33-.266-.33-.329a2.239,2.239,0,0,1,.142-.612,6.3,6.3,0,0,1,.328-.8,3.229,3.229,0,0,1,.612-.093,2.146,2.146,0,0,1,.423.047A1.477,1.477,0,0,1,775.389,3794.813Z" transform="translate(-773.648 -3794.743)" fill="#c5c5f6"/>
        </g>
        <g id="그룹_199" data-name="그룹 199" transform="translate(685.128 3744.528)">
          <path id="패스_269" data-name="패스 269" d="M812.29,3791.187a1.689,1.689,0,0,0,.282.023,1,1,0,0,1,.518.095c.063.063.11.11.141.14l.141.142a.455.455,0,0,1,.118.165.465.465,0,0,0,.118.164,2.907,2.907,0,0,1,.259.588,1.93,1.93,0,0,1,.024.917,2.945,2.945,0,0,1-1.553,1.082.29.29,0,0,1-.212.094.8.8,0,0,1-.353-.141c-.062,0-.125-.062-.188-.188a.449.449,0,0,0-.212-.235.636.636,0,0,1-.211-.141,1.3,1.3,0,0,0-.282-.94c-.22-.157-.33-.266-.33-.33a2.228,2.228,0,0,1,.142-.612,6.314,6.314,0,0,1,.328-.8,3.273,3.273,0,0,1,.612-.094,2.132,2.132,0,0,1,.423.048A1.455,1.455,0,0,1,812.29,3791.187Z" transform="translate(-810.549 -3791.116)" fill="#c5c5f6"/>
        </g>
        <g id="그룹_200" data-name="그룹 200" transform="translate(684.14 3658.059)">
          <path id="패스_270" data-name="패스 270" d="M810.786,3659.583a1.639,1.639,0,0,0,.282.023,1,1,0,0,1,.517.095l.141.141.141.141a.447.447,0,0,1,.117.164.479.479,0,0,0,.118.165,2.931,2.931,0,0,1,.259.587,1.928,1.928,0,0,1,.024.918,2.942,2.942,0,0,1-1.553,1.082.289.289,0,0,1-.211.094.794.794,0,0,1-.353-.142c-.062,0-.125-.062-.189-.188a.454.454,0,0,0-.212-.235.614.614,0,0,1-.212-.14,1.3,1.3,0,0,0-.283-.941c-.219-.157-.329-.266-.329-.329a2.258,2.258,0,0,1,.141-.612,6.236,6.236,0,0,1,.329-.8,3.25,3.25,0,0,1,.612-.093,2.182,2.182,0,0,1,.423.047A1.448,1.448,0,0,1,810.786,3659.583Z" transform="translate(-809.046 -3659.513)" fill="#c5c5f6"/>
        </g>
        <g id="그룹_201" data-name="그룹 201" transform="translate(645.159 3657.7)">
          <path id="패스_271" data-name="패스 271" d="M753.438,3660.112a.873.873,0,0,1,.19-.09.872.872,0,0,0,.191-.09.769.769,0,0,1,.325.072.458.458,0,0,1,.164.113.585.585,0,0,1,.185.192,2.213,2.213,0,0,1,.337,1.213,1.434,1.434,0,0,1-.678,1.177l-.121.2a.467.467,0,0,1-.148.157,1.383,1.383,0,0,1-.113.165.4.4,0,0,1-.1.092,3.173,3.173,0,0,1-.368.2,3.415,3.415,0,0,1-.395.159,2.416,2.416,0,0,1-.427.209,2.685,2.685,0,0,0-.47.236q-.574.365-1.157-.257a7.542,7.542,0,0,1-.751-.888,2.289,2.289,0,0,1-.257-.55,2.127,2.127,0,0,1-.08-.663c-.024-.233-.037-.482-.041-.749s-.007-.564-.01-.894a.837.837,0,0,0,.193-.185l.209-.257c.04-.066.08-.133.12-.2a.476.476,0,0,1,.149-.156,2.052,2.052,0,0,1,1.365-.34A3.135,3.135,0,0,1,753.438,3660.112Z" transform="translate(-749.718 -3658.967)" fill="#d2375b"/>
        </g>
        <g id="그룹_202" data-name="그룹 202" transform="translate(650.124 3725.816)">
          <path id="패스_272" data-name="패스 272" d="M760.993,3763.781a.913.913,0,0,1,.191-.09.822.822,0,0,0,.19-.09.765.765,0,0,1,.325.072.452.452,0,0,1,.164.113.587.587,0,0,1,.185.193,2.217,2.217,0,0,1,.337,1.212,1.433,1.433,0,0,1-.679,1.177c-.041.067-.08.134-.121.2a.46.46,0,0,1-.148.157,1.478,1.478,0,0,1-.112.164.414.414,0,0,1-.1.093,3.326,3.326,0,0,1-.368.2,3.455,3.455,0,0,1-.395.159,2.379,2.379,0,0,1-.426.209,2.66,2.66,0,0,0-.47.237c-.382.243-.768.158-1.156-.258a7.545,7.545,0,0,1-.75-.888,2.318,2.318,0,0,1-.258-.55,2.111,2.111,0,0,1-.079-.664c-.024-.232-.037-.482-.042-.748s-.007-.564-.01-.894a.87.87,0,0,0,.193-.185l.209-.257c.041-.066.08-.134.12-.2a.479.479,0,0,1,.149-.156,2.059,2.059,0,0,1,1.365-.341A3.138,3.138,0,0,1,760.993,3763.781Z" transform="translate(-757.274 -3762.635)" fill="#d2375b"/>
        </g>
        <g id="그룹_203" data-name="그룹 203" transform="translate(662.422 3714.861)">
          <path id="패스_273" data-name="패스 273" d="M777.723,3746.034a1.619,1.619,0,0,0,.281.024,1,1,0,0,1,.514.094l.141.14.141.14a.462.462,0,0,1,.117.164.456.456,0,0,0,.118.164,3,3,0,0,1,.257.585,1.944,1.944,0,0,1,.024.914,2.931,2.931,0,0,1-1.545,1.076.289.289,0,0,1-.211.094.812.812,0,0,1-.351-.14q-.093,0-.187-.187a.452.452,0,0,0-.21-.234.622.622,0,0,1-.211-.14,1.289,1.289,0,0,0-.281-.936c-.218-.157-.328-.266-.328-.329a2.225,2.225,0,0,1,.141-.609,6.092,6.092,0,0,1,.327-.795,3.21,3.21,0,0,1,.609-.094,2.225,2.225,0,0,1,.421.046A1.568,1.568,0,0,1,777.723,3746.034Z" transform="translate(-775.991 -3745.964)" fill="#6fb0b1"/>
        </g>
        <g id="그룹_204" data-name="그룹 204" transform="translate(653.213 3680.766)">
          <path id="패스_274" data-name="패스 274" d="M763.613,3694.629a.613.613,0,0,1,.018-.149.634.634,0,0,0,.018-.148.535.535,0,0,1,.168-.168.329.329,0,0,1,.13-.056.419.419,0,0,1,.186-.037,1.573,1.573,0,0,1,.855.26,1.016,1.016,0,0,1,.446.856l.074.149a.325.325,0,0,1,.037.148,1.1,1.1,0,0,1,.056.13.289.289,0,0,1,.018.093,2.257,2.257,0,0,1-.018.3,2.483,2.483,0,0,1-.056.3,1.7,1.7,0,0,1-.037.334,1.943,1.943,0,0,0-.037.372q0,.483-.6.6a5.36,5.36,0,0,1-.817.111,1.6,1.6,0,0,1-.428-.056,1.484,1.484,0,0,1-.428-.2c-.149-.074-.3-.161-.465-.26l-.539-.335a.6.6,0,0,0-.037-.186c-.024-.075-.05-.149-.075-.224l-.074-.148a.334.334,0,0,1-.037-.149,1.461,1.461,0,0,1,.316-.948A2.226,2.226,0,0,1,763.613,3694.629Z" transform="translate(-761.976 -3694.071)" fill="#fff"/>
        </g>
        <g id="그룹_205" data-name="그룹 205" transform="translate(703.199 3743.492)">
          <path id="패스_275" data-name="패스 275" d="M839.69,3790.1a.643.643,0,0,1,.018-.148.6.6,0,0,0,.019-.149.535.535,0,0,1,.167-.167.318.318,0,0,1,.13-.056.418.418,0,0,1,.186-.038,1.576,1.576,0,0,1,.856.26,1.019,1.019,0,0,1,.446.856l.074.148a.329.329,0,0,1,.037.149.876.876,0,0,1,.056.13.286.286,0,0,1,.019.093,2.473,2.473,0,0,1-.075.6,1.7,1.7,0,0,1-.037.334,1.937,1.937,0,0,0-.037.372c0,.321-.2.521-.595.595a5.365,5.365,0,0,1-.818.111,1.646,1.646,0,0,1-.428-.056,1.5,1.5,0,0,1-.427-.2c-.15-.075-.3-.162-.466-.261s-.34-.21-.539-.335a.611.611,0,0,0-.037-.186c-.024-.075-.049-.149-.074-.223l-.074-.148a.336.336,0,0,1-.037-.149,1.462,1.462,0,0,1,.316-.948A2.226,2.226,0,0,1,839.69,3790.1Z" transform="translate(-838.053 -3789.538)" fill="#fff"/>
        </g>
        <g id="그룹_206" data-name="그룹 206" transform="translate(684.993 3773.946)">
          <path id="패스_276" data-name="패스 276" d="M811.981,3836.447a.64.64,0,0,1,.018-.148.6.6,0,0,0,.018-.148.523.523,0,0,1,.168-.167.321.321,0,0,1,.13-.056.418.418,0,0,1,.186-.038,1.565,1.565,0,0,1,.855.261,1.013,1.013,0,0,1,.446.855c.026.049.051.1.075.149a.329.329,0,0,1,.037.149.91.91,0,0,1,.056.13.281.281,0,0,1,.018.092,2.243,2.243,0,0,1-.018.3,2.349,2.349,0,0,1-.056.3,1.7,1.7,0,0,1-.037.334,1.941,1.941,0,0,0-.037.372c0,.321-.2.521-.595.595a5.384,5.384,0,0,1-.818.112,1.621,1.621,0,0,1-.428-.056,1.512,1.512,0,0,1-.428-.2c-.149-.074-.3-.162-.465-.26l-.539-.335a.6.6,0,0,0-.037-.186q-.036-.112-.074-.223c-.024-.049-.049-.1-.075-.148a.342.342,0,0,1-.037-.149,1.464,1.464,0,0,1,.316-.948A2.233,2.233,0,0,1,811.981,3836.447Z" transform="translate(-810.344 -3835.888)" fill="#fff"/>
        </g>
        <g id="그룹_207" data-name="그룹 207" transform="translate(621.592 3676.088)">
          <path id="패스_277" data-name="패스 277" d="M717.946,3689.961a3.211,3.211,0,0,1-2.648.759l-.647-.373a1.315,1.315,0,0,1-.5-2.065q2.308-1.715,3.171-1.218l.647.372Q718.59,3689.4,717.946,3689.961Z" transform="translate(-713.85 -3686.952)" fill="#e48bdf"/>
        </g>
        <g id="그룹_208" data-name="그룹 208" transform="translate(694.433 3687.454)">
          <path id="패스_278" data-name="패스 278" d="M828.808,3707.26a3.213,3.213,0,0,1-2.649.759l-.646-.372a1.316,1.316,0,0,1-.5-2.066q2.309-1.715,3.172-1.218l.646.372Q829.452,3706.7,828.808,3707.26Z" transform="translate(-824.711 -3704.251)" fill="#e48bdf"/>
        </g>
        <g id="그룹_209" data-name="그룹 209" transform="translate(674.43 3762.362)">
          <path id="패스_279" data-name="패스 279" d="M798.364,3821.267a3.211,3.211,0,0,1-2.648.759l-.647-.372a1.316,1.316,0,0,1-.5-2.065q2.309-1.715,3.172-1.219l.647.372Q799.007,3820.7,798.364,3821.267Z" transform="translate(-794.267 -3818.258)" fill="#e48bdf"/>
        </g>
        <g id="그룹_210" data-name="그룹 210" transform="translate(699.19 3725.253)">
          <path id="패스_280" data-name="패스 280" d="M836.048,3764.788a3.209,3.209,0,0,1-2.648.759l-.646-.372a1.316,1.316,0,0,1-.5-2.065q2.309-1.715,3.172-1.219l.646.372Q836.692,3764.223,836.048,3764.788Z" transform="translate(-831.951 -3761.779)" fill="#e48bdf"/>
        </g>
        <g id="그룹_211" data-name="그룹 211" transform="translate(650.499 3697.425)">
          <path id="패스_281" data-name="패스 281" d="M761.933,3721.384a1.826,1.826,0,0,1-1.278,1.762h-.766a1.988,1.988,0,0,1-2.045-1.371q.255-2.349,1.278-2.349h.767Q761.933,3720.662,761.933,3721.384Z" transform="translate(-757.844 -3719.426)" fill="#f6e6e4"/>
        </g>
        <g id="그룹_212" data-name="그룹 212" transform="translate(684.499 3699.853)">
          <path id="패스_282" data-name="패스 282" d="M813.681,3725.08a1.826,1.826,0,0,1-1.278,1.762h-.767a1.987,1.987,0,0,1-2.044-1.371q.255-2.35,1.277-2.35h.767Q813.681,3724.358,813.681,3725.08Z" transform="translate(-809.592 -3723.122)" fill="#f6e6e4"/>
        </g>
        <g id="그룹_214" data-name="그룹 214" transform="translate(672.708 3780.941)">
          <g id="그룹_213" data-name="그룹 213">
            <path id="패스_283" data-name="패스 283" d="M795.735,3848.493a1.827,1.827,0,0,1-1.278,1.762h-.767a1.988,1.988,0,0,1-2.044-1.371q.255-2.35,1.278-2.35h.766Q795.735,3847.771,795.735,3848.493Z" transform="translate(-791.646 -3846.534)" fill="#fdfb86"/>
          </g>
        </g>
      </g>
      <g id="c" transform="translate(8.741)">
        <ellipse id="타원_6" data-name="타원 6" cx="56.987" cy="22.44" rx="56.987" ry="22.44" transform="translate(510.103 3753.329)" opacity="0.19" fill="url(#radial-gradient)"/>
        <g id="그룹_242" data-name="그룹 242" transform="translate(515.743 3656.728)">
          <g id="그룹_238" data-name="그룹 238" transform="translate(0 22.966)">
            <path id="패스_284" data-name="패스 284" d="M554.745,3768.065v38.023c0,12.6,22.616,22.812,50.514,22.812s50.514-10.214,50.514-22.812v-38.023Z" transform="translate(-553.435 -3718.376)" fill="#fff"/>
            <path id="패스_285" data-name="패스 285" d="M656.166,3757.219c0,12.8-22.984,23.184-51.336,23.184s-51.335-10.38-51.335-23.184,22.983-23.183,51.335-23.183S656.166,3744.416,656.166,3757.219Z" transform="translate(-553.006 -3706.706)" fill="#715c42"/>
            <rect id="사각형_14" data-name="사각형 14" width="8.564" height="42.014" transform="translate(48.531 0)" fill="#d15f60"/>
            <path id="패스_286" data-name="패스 286" d="M635.177,3755.432a4.32,4.32,0,1,1-4.282-3.747A4.041,4.041,0,0,1,635.177,3755.432Z" transform="translate(-578.082 -3712.758)" fill="#d15f60"/>
            <path id="패스_287" data-name="패스 287" d="M623.1,3753.1" transform="translate(-576.879 -3713.246)" fill="#725b47"/>
            <g id="그룹_217" data-name="그룹 217" transform="translate(48.531)">
              <g id="그룹_216" data-name="그룹 216" clip-path="url(#clip-path)">
                <g id="그룹_215" data-name="그룹 215" transform="translate(-2.965 -1.646)">
                  <path id="패스_288" data-name="패스 288" d="M622.1,3757.169s12.847-.329,13.176-7.576" transform="translate(-622.101 -3710.395)" fill="none" stroke="#db7e83" stroke-miterlimit="10" stroke-width="4"/>
                  <path id="패스_289" data-name="패스 289" d="M622.1,3748.647s12.847-.33,13.176-7.576" transform="translate(-622.101 -3707.473)" fill="none" stroke="#db7e83" stroke-miterlimit="10" stroke-width="4"/>
                  <path id="패스_290" data-name="패스 290" d="M622.1,3740.125s12.847-.33,13.176-7.577" transform="translate(-622.101 -3704.549)" fill="none" stroke="#db7e83" stroke-miterlimit="10" stroke-width="4"/>
                  <path id="패스_291" data-name="패스 291" d="M622.1,3731.6s12.847-.329,13.176-7.575" transform="translate(-622.101 -3701.627)" fill="none" stroke="#db7e83" stroke-miterlimit="10" stroke-width="4"/>
                  <path id="패스_292" data-name="패스 292" d="M622.1,3723.078s12.847-.329,13.176-7.575" transform="translate(-622.101 -3698.704)" fill="none" stroke="#db7e83" stroke-miterlimit="10" stroke-width="4"/>
                  <path id="패스_293" data-name="패스 293" d="M622.1,3714.556s12.847-.33,13.176-7.576" transform="translate(-622.101 -3695.781)" fill="none" stroke="#db7e83" stroke-miterlimit="10" stroke-width="4"/>
                  <path id="패스_294" data-name="패스 294" d="M622.1,3706.033s12.847-.33,13.176-7.577" transform="translate(-622.101 -3692.857)" fill="none" stroke="#db7e83" stroke-miterlimit="10" stroke-width="4"/>
                  <path id="패스_295" data-name="패스 295" d="M622.1,3697.511s12.847-.329,13.176-7.576" transform="translate(-622.101 -3689.935)" fill="none" stroke="#db7e83" stroke-miterlimit="10" stroke-width="4"/>
                </g>
                <path id="패스_296" data-name="패스 296" d="M635.637,3694.752v44.578l3.294-2.855.44-43.7Z" transform="translate(-629.708 -3692.555)" fill="#c83f47" opacity="0.5"/>
              </g>
            </g>
            <path id="패스_298" data-name="패스 298" d="M644.326,3766.639" transform="translate(-584.157 -3717.888)" fill="none"/>
            <g id="그룹_220" data-name="그룹 220" transform="translate(6.108 33.889)">
              <path id="패스_299" data-name="패스 299" d="M573.723,3749.439a5.42,5.42,0,1,1-5.42-5.42A5.42,5.42,0,0,1,573.723,3749.439Z" transform="translate(-562.334 -3744.019)" fill="#d15356"/>
              <path id="패스_300" data-name="패스 300" d="M566.088,3752.7s8.381-.4,6.976-6.022l-.4-1a5.311,5.311,0,0,1,1.806,5.822C573.264,3755.11,566.74,3753.9,566.088,3752.7Z" transform="translate(-563.433 -3744.586)" fill="#c83f47"/>
              <path id="패스_301" data-name="패스 301" d="M562.143,3755.723s-.45-2.243.6-2.108c0,0,.151.9,1.957,1.807s8.582,1.053,8.733-1.807c0,0,.3-.151.3,2.108s-1.957,4.065-5.42,4.215C566.455,3760.019,561.39,3758.734,562.143,3755.723Z" transform="translate(-562.047 -3747.308)" fill="#fff"/>
              <path id="패스_302" data-name="패스 302" d="M568.3,3746.092a.953.953,0,1,1-.953-.953A.952.952,0,0,1,568.3,3746.092Z" transform="translate(-563.538 -3744.403)" fill="#fff" opacity="0.5"/>
              <path id="패스_303" data-name="패스 303" d="M571.816,3745.425a.476.476,0,1,1-.476-.477A.476.476,0,0,1,571.816,3745.425Z" transform="translate(-565.071 -3744.337)" fill="#fff" opacity="0.5"/>
              <g id="그룹_219" data-name="그룹 219" transform="translate(0 6.301)">
                <g id="그룹_218" data-name="그룹 218" clip-path="url(#clip-path-2)">
                  <path id="패스_304" data-name="패스 304" d="M562.346,3758.785s3.011.1,4.115-1.806" transform="translate(-562.15 -3754.764)" fill="none" stroke="#dbdbdb" stroke-linecap="round" stroke-linejoin="round" stroke-width="3"/>
                  <path id="패스_305" data-name="패스 305" d="M560.3,3755.523s2.93.7,4.395-.942" transform="translate(-561.448 -3753.942)" fill="none" stroke="#dbdbdb" stroke-linecap="round" stroke-linejoin="round" stroke-width="3"/>
                  <path id="패스_306" data-name="패스 306" d="M565.95,3760.736a5.807,5.807,0,0,0,5.16-3.758" transform="translate(-563.386 -3754.764)" fill="none" stroke="#dbdbdb" stroke-linecap="round" stroke-linejoin="round" stroke-width="3"/>
                  <path id="패스_307" data-name="패스 307" d="M572.218,3760.926a7.311,7.311,0,0,0,4.02-5.791" transform="translate(-565.536 -3754.132)" fill="none" stroke="#dbdbdb" stroke-linecap="round" stroke-linejoin="round" stroke-width="3"/>
                </g>
              </g>
            </g>
            <g id="그룹_223" data-name="그룹 223" transform="translate(24.6 48.44)">
              <path id="패스_309" data-name="패스 309" d="M602.963,3772.093a5.929,5.929,0,1,1-5.929-5.928A5.929,5.929,0,0,1,602.963,3772.093Z" transform="translate(-590.504 -3766.165)" fill="#d15356"/>
              <path id="패스_310" data-name="패스 310" d="M594.611,3775.661s9.168-.438,7.632-6.587l-.44-1.1a5.812,5.812,0,0,1,1.976,6.368C602.462,3778.3,595.325,3776.979,594.611,3775.661Z" transform="translate(-591.707 -3766.786)" fill="#c83f47"/>
              <path id="패스_311" data-name="패스 311" d="M590.3,3778.968s-.492-2.453.659-2.306c0,0,.164.988,2.141,1.976s9.388,1.153,9.553-1.976c0,0,.329-.166.329,2.306s-2.141,4.447-5.929,4.611C595.013,3783.668,589.472,3782.262,590.3,3778.968Z" transform="translate(-590.191 -3769.763)" fill="#fff"/>
              <path id="패스_312" data-name="패스 312" d="M597.031,3768.433a1.042,1.042,0,1,1-1.043-1.042A1.042,1.042,0,0,1,597.031,3768.433Z" transform="translate(-591.822 -3766.585)" fill="#fff" opacity="0.5"/>
              <path id="패스_313" data-name="패스 313" d="M600.877,3767.7a.521.521,0,1,1-.521-.521A.521.521,0,0,1,600.877,3767.7Z" transform="translate(-593.498 -3766.514)" fill="#fff" opacity="0.5"/>
              <g id="그룹_222" data-name="그룹 222" transform="translate(0 6.893)">
                <g id="그룹_221" data-name="그룹 221" clip-path="url(#clip-path-3)">
                  <path id="패스_314" data-name="패스 314" d="M590.517,3782.318s3.294.11,4.5-1.976" transform="translate(-590.303 -3777.92)" fill="none" stroke="#dbdbdb" stroke-linecap="round" stroke-linejoin="round" stroke-width="3"/>
                  <path id="패스_315" data-name="패스 315" d="M588.28,3778.75s3.205.77,4.807-1.031" transform="translate(-589.536 -3777.021)" fill="none" stroke="#dbdbdb" stroke-linecap="round" stroke-linejoin="round" stroke-width="3"/>
                  <path id="패스_316" data-name="패스 316" d="M594.46,3784.452a6.352,6.352,0,0,0,5.645-4.11" transform="translate(-591.655 -3777.92)" fill="none" stroke="#dbdbdb" stroke-linecap="round" stroke-linejoin="round" stroke-width="3"/>
                  <path id="패스_317" data-name="패스 317" d="M601.317,3784.66a8,8,0,0,0,4.4-6.335" transform="translate(-594.007 -3777.229)" fill="none" stroke="#dbdbdb" stroke-linecap="round" stroke-linejoin="round" stroke-width="3"/>
                </g>
              </g>
            </g>
            <g id="그룹_226" data-name="그룹 226" transform="translate(60.175 49.977)">
              <path id="패스_319" data-name="패스 319" d="M657.107,3774.433a5.929,5.929,0,1,1-5.929-5.928A5.929,5.929,0,0,1,657.107,3774.433Z" transform="translate(-644.648 -3768.505)" fill="#d15356"/>
              <path id="패스_320" data-name="패스 320" d="M648.756,3778s9.168-.438,7.631-6.588l-.44-1.1a5.813,5.813,0,0,1,1.976,6.369C656.606,3780.637,649.469,3779.319,648.756,3778Z" transform="translate(-645.851 -3769.125)" fill="#c83f47"/>
              <path id="패스_321" data-name="패스 321" d="M644.439,3781.307s-.492-2.453.659-2.306c0,0,.164.988,2.141,1.977s9.388,1.153,9.553-1.977c0,0,.329-.165.329,2.306s-2.141,4.448-5.929,4.612C649.157,3786.008,643.616,3784.6,644.439,3781.307Z" transform="translate(-644.335 -3772.102)" fill="#fff"/>
              <path id="패스_322" data-name="패스 322" d="M651.174,3770.773a1.042,1.042,0,1,1-1.042-1.042A1.042,1.042,0,0,1,651.174,3770.773Z" transform="translate(-645.966 -3768.925)" fill="#fff" opacity="0.5"/>
              <path id="패스_323" data-name="패스 323" d="M655.022,3770.043a.521.521,0,1,1-.521-.521A.521.521,0,0,1,655.022,3770.043Z" transform="translate(-647.642 -3768.854)" fill="#fff" opacity="0.5"/>
              <g id="그룹_225" data-name="그룹 225" transform="translate(0 6.893)">
                <g id="그룹_224" data-name="그룹 224" clip-path="url(#clip-path-4)">
                  <path id="패스_324" data-name="패스 324" d="M644.661,3784.657s3.3.11,4.5-1.976" transform="translate(-644.447 -3780.26)" fill="none" stroke="#dbdbdb" stroke-linecap="round" stroke-linejoin="round" stroke-width="3"/>
                  <path id="패스_325" data-name="패스 325" d="M642.424,3781.089s3.205.77,4.807-1.03" transform="translate(-643.68 -3779.36)" fill="none" stroke="#dbdbdb" stroke-linecap="round" stroke-linejoin="round" stroke-width="3"/>
                  <path id="패스_326" data-name="패스 326" d="M648.6,3786.792a6.352,6.352,0,0,0,5.645-4.11" transform="translate(-645.799 -3780.26)" fill="none" stroke="#dbdbdb" stroke-linecap="round" stroke-linejoin="round" stroke-width="3"/>
                  <path id="패스_327" data-name="패스 327" d="M655.461,3787a8,8,0,0,0,4.4-6.334" transform="translate(-648.151 -3779.568)" fill="none" stroke="#dbdbdb" stroke-linecap="round" stroke-linejoin="round" stroke-width="3"/>
                </g>
              </g>
            </g>
            <g id="그룹_229" data-name="그룹 229" transform="translate(86.197 38.668)">
              <path id="패스_329" data-name="패스 329" d="M695.4,3756.609a5.318,5.318,0,1,1-5.318-5.317A5.318,5.318,0,0,1,695.4,3756.609Z" transform="translate(-684.222 -3751.292)" fill="#d15356"/>
              <path id="패스_330" data-name="패스 330" d="M687.9,3759.811s8.224-.394,6.845-5.909l-.394-.985a5.214,5.214,0,0,1,1.773,5.712C694.947,3762.175,688.546,3760.991,687.9,3759.811Z" transform="translate(-685.3 -3751.849)" fill="#c83f47"/>
              <path id="패스_331" data-name="패스 331" d="M684.035,3762.775s-.442-2.2.59-2.068c0,0,.148.886,1.921,1.773s8.421,1.034,8.568-1.773c0,0,.3-.147.3,2.068s-1.921,3.989-5.319,4.137C688.266,3766.991,683.3,3765.73,684.035,3762.775Z" transform="translate(-683.941 -3754.519)" fill="#fff"/>
              <path id="패스_332" data-name="패스 332" d="M690.075,3753.326a.935.935,0,1,1-.934-.934A.934.934,0,0,1,690.075,3753.326Z" transform="translate(-685.403 -3751.669)" fill="#fff" opacity="0.5"/>
              <path id="패스_333" data-name="패스 333" d="M693.526,3752.671a.467.467,0,1,1-.468-.467A.468.468,0,0,1,693.526,3752.671Z" transform="translate(-686.907 -3751.604)" fill="#fff" opacity="0.5"/>
              <g id="그룹_228" data-name="그룹 228" transform="translate(0 6.182)">
                <g id="그룹_227" data-name="그룹 227" clip-path="url(#clip-path-5)">
                  <path id="패스_334" data-name="패스 334" d="M684.233,3765.78s2.955.1,4.038-1.773" transform="translate(-684.041 -3761.835)" fill="none" stroke="#dbdbdb" stroke-linecap="round" stroke-linejoin="round" stroke-width="3"/>
                  <path id="패스_335" data-name="패스 335" d="M682.227,3762.579s2.875.69,4.312-.925" transform="translate(-683.353 -3761.028)" fill="none" stroke="#dbdbdb" stroke-linecap="round" stroke-linejoin="round" stroke-width="3"/>
                  <path id="패스_336" data-name="패스 336" d="M687.77,3767.695a5.7,5.7,0,0,0,5.063-3.687" transform="translate(-685.254 -3761.835)" fill="none" stroke="#dbdbdb" stroke-linecap="round" stroke-linejoin="round" stroke-width="3"/>
                  <path id="패스_337" data-name="패스 337" d="M693.92,3767.881a7.174,7.174,0,0,0,3.945-5.682" transform="translate(-687.363 -3761.215)" fill="none" stroke="#dbdbdb" stroke-linecap="round" stroke-linejoin="round" stroke-width="3"/>
                </g>
              </g>
            </g>
            <g id="그룹_232" data-name="그룹 232" transform="translate(32.85 23.279)">
              <path id="패스_339" data-name="패스 339" d="M613.693,3732.951a5.081,5.081,0,1,1-5.082-5.081A5.081,5.081,0,0,1,613.693,3732.951Z" transform="translate(-603.016 -3727.87)" fill="#d15356"/>
              <path id="패스_340" data-name="패스 340" d="M606.535,3736.008s7.858-.376,6.54-5.645l-.376-.942a4.982,4.982,0,0,1,1.694,5.458C613.263,3738.267,607.147,3737.137,606.535,3736.008Z" transform="translate(-604.046 -3728.402)" fill="#c83f47"/>
              <path id="패스_341" data-name="패스 341" d="M602.837,3738.841s-.422-2.1.564-1.976c0,0,.141.847,1.834,1.693s8.046.989,8.187-1.693c0,0,.283-.141.283,1.976s-1.835,3.811-5.081,3.952C606.88,3742.87,602.132,3741.665,602.837,3738.841Z" transform="translate(-602.747 -3730.953)" fill="#fff"/>
              <path id="패스_342" data-name="패스 342" d="M608.608,3729.814a.893.893,0,1,1-.893-.893A.893.893,0,0,1,608.608,3729.814Z" transform="translate(-604.145 -3728.23)" fill="#fff" opacity="0.5"/>
              <path id="패스_343" data-name="패스 343" d="M611.905,3729.188a.447.447,0,1,1-.447-.447A.447.447,0,0,1,611.905,3729.188Z" transform="translate(-605.582 -3728.169)" fill="#fff" opacity="0.5"/>
              <g id="그룹_231" data-name="그룹 231" transform="translate(0 5.907)">
                <g id="그룹_230" data-name="그룹 230" clip-path="url(#clip-path-6)">
                  <path id="패스_344" data-name="패스 344" d="M603.027,3741.713s2.824.094,3.858-1.694" transform="translate(-602.843 -3737.943)" fill="none" stroke="#dbdbdb" stroke-linecap="round" stroke-linejoin="round" stroke-width="3"/>
                  <path id="패스_345" data-name="패스 345" d="M601.109,3738.654s2.747.661,4.12-.883" transform="translate(-602.186 -3737.173)" fill="none" stroke="#dbdbdb" stroke-linecap="round" stroke-linejoin="round" stroke-width="3"/>
                  <path id="패스_346" data-name="패스 346" d="M606.406,3743.542a5.444,5.444,0,0,0,4.837-3.523" transform="translate(-604.002 -3737.943)" fill="none" stroke="#dbdbdb" stroke-linecap="round" stroke-linejoin="round" stroke-width="3"/>
                  <path id="패스_347" data-name="패스 347" d="M612.283,3743.72a6.854,6.854,0,0,0,3.768-5.428" transform="translate(-606.018 -3737.351)" fill="none" stroke="#dbdbdb" stroke-linecap="round" stroke-linejoin="round" stroke-width="3"/>
                </g>
              </g>
            </g>
            <g id="그룹_235" data-name="그룹 235" transform="translate(64.033 24.376)">
              <path id="패스_349" data-name="패스 349" d="M661.152,3734.621a5.081,5.081,0,1,1-5.081-5.081A5.081,5.081,0,0,1,661.152,3734.621Z" transform="translate(-650.475 -3729.54)" fill="#d15356"/>
              <path id="패스_350" data-name="패스 350" d="M653.995,3737.679s7.858-.376,6.54-5.645l-.376-.941a4.981,4.981,0,0,1,1.694,5.458C660.723,3739.938,654.607,3738.807,653.995,3737.679Z" transform="translate(-651.506 -3730.072)" fill="#c83f47"/>
              <path id="패스_351" data-name="패스 351" d="M650.3,3740.512s-.422-2.1.565-1.976c0,0,.141.847,1.834,1.693s8.046.988,8.187-1.693c0,0,.283-.141.283,1.976s-1.835,3.811-5.081,3.953C654.34,3744.541,649.591,3743.335,650.3,3740.512Z" transform="translate(-650.207 -3732.623)" fill="#fff"/>
              <path id="패스_352" data-name="패스 352" d="M656.068,3731.485a.893.893,0,1,1-.892-.893A.893.893,0,0,1,656.068,3731.485Z" transform="translate(-651.604 -3729.9)" fill="#fff" opacity="0.5"/>
              <path id="패스_353" data-name="패스 353" d="M659.366,3730.859a.447.447,0,1,1-.446-.447A.446.446,0,0,1,659.366,3730.859Z" transform="translate(-653.041 -3729.839)" fill="#fff" opacity="0.5"/>
              <g id="그룹_234" data-name="그룹 234" transform="translate(0 5.908)">
                <g id="그룹_233" data-name="그룹 233" clip-path="url(#clip-path-7)">
                  <path id="패스_354" data-name="패스 354" d="M650.487,3743.384s2.824.094,3.858-1.694" transform="translate(-650.303 -3739.614)" fill="none" stroke="#dbdbdb" stroke-linecap="round" stroke-linejoin="round" stroke-width="3"/>
                  <path id="패스_355" data-name="패스 355" d="M648.569,3740.326s2.747.66,4.12-.883" transform="translate(-649.645 -3738.844)" fill="none" stroke="#dbdbdb" stroke-linecap="round" stroke-linejoin="round" stroke-width="3"/>
                  <path id="패스_356" data-name="패스 356" d="M653.866,3745.213a5.445,5.445,0,0,0,4.838-3.523" transform="translate(-651.462 -3739.614)" fill="none" stroke="#dbdbdb" stroke-linecap="round" stroke-linejoin="round" stroke-width="3"/>
                  <path id="패스_357" data-name="패스 357" d="M659.743,3745.391a6.853,6.853,0,0,0,3.768-5.428" transform="translate(-653.477 -3739.022)" fill="none" stroke="#dbdbdb" stroke-linecap="round" stroke-linejoin="round" stroke-width="3"/>
                </g>
              </g>
            </g>
            <path id="패스_359" data-name="패스 359" d="M552.751,3778.855c0,1.977,0,7.467,1.53,9,3.936,3.953,2.842-4.392,3.936-5.49,2.406-3.074,3.061.659,3.28,2.636.438,5.051-1.312,5.6-.656,10.65.656,3.953,5.029,7.466,6.56,2.635.6-1.884-.874-9.773,3.281-6.7,1.749,1.317.219,6.586,3.279,6.367,2.469-.176.675-5.759,4.394-4.127,1.753.77,2.039,3.254,2.233,4.9.236,1.979,1.813,10.008,5.181,10.431,7,.879,7.823-9.755,8.779-11.216,1.93-2.952,5.241-1.514,6.151,1.056a5.087,5.087,0,0,0,4.751,3.242c4.591,0,1.8-3.891,6.342-4.062,3.3-.124,4.282,1.069,5.248,3.294,1.192,2.744,3.93,4.039,5.915,1.019s1.061-9.731,5.237-10.462c4.279-.748,4.386,3.317,8.31,4.832,4.127,1.593,5.849-10.422,8.966-10.322,2.218-.676,2.406,13.177,5.507,12.05,4.148-1.3,5.655-11.12,5.645-14.9-.012-5.043-.875-9.452-.875-14.494,0,0,2.513,5.49-11.919,13.286-15.127,8.172-34.223,11.529-58.058,6.917s-31.707-17.239-32.363-20.752Z" transform="translate(-552.751 -3718.575)" fill="#725b47"/>
            <path id="패스_360" data-name="패스 360" d="M597.034,3811.258c0,2.965,1.647,9.552,3.953,10.541" transform="translate(-567.938 -3733.19)" fill="none" stroke="#5f4938" stroke-miterlimit="10" stroke-width="1"/>
            <path id="패스_361" data-name="패스 361" d="M566.648,3802.569c.219,2.195-1.317,5.379,1.208,8.015" transform="translate(-557.426 -3730.21)" fill="none" stroke="#5f4938" stroke-miterlimit="10" stroke-width="0.75"/>
            <path id="패스_362" data-name="패스 362" d="M554.282,3784.52c.219,2.2-1.317,5.38,1.208,8.016" transform="translate(-553.185 -3724.02)" fill="none" stroke="#5f4938" stroke-miterlimit="10" stroke-width="0.75"/>
            <g id="그룹_237" data-name="그룹 237" transform="translate(0.489 27.33)">
              <g id="그룹_236" data-name="그룹 236" clip-path="url(#clip-path-8)">
                <path id="패스_363" data-name="패스 363" d="M595.638,3786.909c-24.212-1.865-42.643-11.386-42.643-22.853" transform="translate(-553.324 -3744.331)" fill="none" stroke="#9f8c76" stroke-linecap="round" stroke-linejoin="round" stroke-width="4"/>
                <path id="패스_364" data-name="패스 364" d="M649.924,3798.432a109.3,109.3,0,0,1-11.785.9" transform="translate(-582.525 -3756.121)" fill="none" stroke="#9f8c76" stroke-linecap="round" stroke-linejoin="round" stroke-width="4"/>
                <path id="패스_365" data-name="패스 365" d="M625.105,3798.848a1.042,1.042,0,1,1-1.041-1.042A1.041,1.041,0,0,1,625.105,3798.848Z" transform="translate(-577.34 -3755.907)" fill="#fff" opacity="0.5"/>
                <path id="패스_366" data-name="패스 366" d="M634.129,3799.182a1.042,1.042,0,1,1-1.041-1.042A1.042,1.042,0,0,1,634.129,3799.182Z" transform="translate(-580.435 -3756.021)" fill="#fff" opacity="0.5"/>
                <path id="패스_367" data-name="패스 367" d="M703.082,3765.97s2.2,9.662-12.3,14.6" transform="translate(-600.58 -3744.988)" fill="none" stroke="#5f4938" stroke-linecap="round" stroke-linejoin="round" stroke-width="4"/>
              </g>
            </g>
            <path id="패스_369" data-name="패스 369" d="M694.126,3794.38c4.172.878,2.416,9.662,5.71,11.858.44-.22.44-.659.658-1.318" transform="translate(-601.236 -3727.401)" fill="none" stroke="#5f4938" stroke-miterlimit="10" stroke-width="0.75"/>
            <path id="패스_370" data-name="패스 370" d="M669.728,3802.379c3.952-.659,6.149,7.027,8.125,3.953" transform="translate(-592.869 -3730.131)" fill="none" stroke="#5f4938" stroke-miterlimit="10" stroke-width="0.75"/>
            <path id="패스_371" data-name="패스 371" d="M648,3813.095c2.2.22,2.855,5.709,5.051,5.051" transform="translate(-585.418 -3733.82)" fill="none" stroke="#5f4938" stroke-miterlimit="10" stroke-width="0.75"/>
            <path id="패스_372" data-name="패스 372" d="M621.6,3810.065c3.733-.659,3.074,6.588,8.124,5.27" transform="translate(-576.363 -3732.766)" fill="none" stroke="#5f4938" stroke-miterlimit="10" stroke-width="0.75"/>
            <path id="패스_373" data-name="패스 373" d="M606.559,3826.464" transform="translate(-571.205 -3738.405)" fill="none" stroke="#5f4938" stroke-miterlimit="10" stroke-width="0.75"/>
            <path id="패스_374" data-name="패스 374" d="M595.2,3808.416" transform="translate(-567.308 -3732.215)" fill="none" stroke="#5f4938" stroke-miterlimit="10" stroke-width="0.75"/>
            <path id="패스_375" data-name="패스 375" d="M584.166,3810.421" transform="translate(-563.525 -3732.903)" fill="none" stroke="#5f4938" stroke-miterlimit="10" stroke-width="0.75"/>
            <path id="패스_376" data-name="패스 376" d="M571.132,3815.1" transform="translate(-559.055 -3734.508)" fill="none" stroke="#5f4938" stroke-miterlimit="10" stroke-width="0.75"/>
            <path id="패스_377" data-name="패스 377" d="M558.431,3796.718" transform="translate(-554.699 -3728.203)" fill="none" stroke="#5f4938" stroke-miterlimit="10" stroke-width="0.75"/>
            <path id="패스_378" data-name="패스 378" d="M617.923,3809.753" transform="translate(-575.102 -3732.674)" fill="none" stroke="#5f4938" stroke-miterlimit="10" stroke-width="0.75"/>
          </g>
          <g id="그룹_241" data-name="그룹 241" transform="translate(46.088)">
            <path id="패스_379" data-name="패스 379" d="M635.307,3691.127a4.321,4.321,0,1,1-4.164-3.877A4.042,4.042,0,0,1,635.307,3691.127Z" transform="translate(-624.215 -3667.693)" fill="#db7e83"/>
            <line id="선_1" data-name="선 1" y1="10.536" x2="0.326" transform="translate(6.482 12.755)" fill="none" stroke="#6c5c55" stroke-miterlimit="10" stroke-width="3"/>
            <path id="패스_380" data-name="패스 380" d="M635.846,3673.171h.015a3.246,3.246,0,0,0-.154-.834h0c-.031-.11-.07-.235-.115-.371-.021-.065-.041-.128-.066-.193a14.488,14.488,0,0,0-.581-1.387c-.986-2.081-4.193-7.017-4.193-7.017a54.872,54.872,0,0,0-5.243,7.821,5.238,5.238,0,0,0-.338.811c-.022.062-.039.119-.057.179-.031.1-.059.211-.082.32-.007.031-.02.07-.026.1h.005a5.619,5.619,0,0,0-.112.836,5.495,5.495,0,1,0,10.949-.265Z" transform="translate(-623.579 -3659.504)" fill="#df9146"/>
            <path id="패스_381" data-name="패스 381" d="M634.942,3678.04h.011a2.129,2.129,0,0,0-.1-.547h0c-.02-.073-.046-.155-.076-.244-.014-.042-.027-.084-.043-.126a9.755,9.755,0,0,0-.381-.91c-.647-1.365-2.75-4.6-2.75-4.6a35.877,35.877,0,0,0-3.438,5.129,3.411,3.411,0,0,0-.222.531c-.014.041-.026.08-.037.118q-.03.1-.053.209c0,.021-.014.046-.017.066h0a3.754,3.754,0,0,0-.073.548,3.6,3.6,0,0,0,7.2.359A3.491,3.491,0,0,0,634.942,3678.04Z" transform="translate(-624.563 -3662.331)" fill="#cb5721"/>
            <g id="그룹_240" data-name="그룹 240">
              <g id="그룹_239" data-name="그룹 239">
                <path id="패스_382" data-name="패스 382" d="M629.62,3657.487l.43,6.295,6.295.43-6.295.43-.43,6.295-.43-6.295-6.295-.43,6.295-.43Z" transform="translate(-622.895 -3657.487)" fill="#fff"/>
                <path id="패스_383" data-name="패스 383" d="M635.015,3661.723l-3.437,3.942,3.437,3.942-3.942-3.437-3.942,3.437,3.437-3.942-3.437-3.942,3.942,3.437Z" transform="translate(-624.348 -3658.94)" fill="#fff"/>
              </g>
              <circle id="타원_7" data-name="타원 7" cx="3.212" cy="3.212" r="3.212" transform="translate(2.859 9.263) rotate(-76.66)" fill="#fff" opacity="0.5"/>
            </g>
          </g>
        </g>
      </g>
    </g>
  </g>
</svg>
