<svg xmlns="http://www.w3.org/2000/svg" width="360" height="564" viewBox="0 0 360 564">
  <g id="card5" transform="translate(-2 -454)">
    <rect id="사각형_3" data-name="사각형 3" width="360" height="564" transform="translate(2 454)" fill="#dad7f4"/>
    <g id="t" transform="translate(96 486.5)">
      <g id="그룹_257" data-name="그룹 257" transform="translate(0 0)">
        <path id="패스_440" data-name="패스 440" d="M1436.59,2643.929c-.236-.011-.473-.022-.708-.035-3.413-.206-7.925-.31-11.211.732-4.578,1.451-3.568,6.076-3.957,9.849-.368,3.567-.6,7.147-.849,10.723q-.3,4.371-.52,8.746c-.116,2.277-.653,5.037-.149,7.281.642,2.858,3.449,4.274,5.609,2.1.825-.832,1.083-3.132,1.3-4.234a66.354,66.354,0,0,0,.871-9.531c.174-.4,5.794-.235,6.36-.279a5.237,5.237,0,0,0,4.484-2.493c2.6-5.092-4.283-4.566-7.25-4.729-3.6-.2-2.1-2.917-1.79-5.654q.3-2.7.739-5.392c.1-.573,5.909-.518,6.425-.536.609-.021,2.312.246,2.83-.1.892-.595,1.234-3.544,1.028-4.546C1439.459,2644.142,1438.05,2644,1436.59,2643.929Z" transform="translate(-1418.985 -2643.759)" fill="#333762"/>
        <path id="패스_441" data-name="패스 441" d="M1453.99,2683.1a2.336,2.336,0,0,0,2.39,1.057,2.782,2.782,0,0,0,1.8-.438,3.917,3.917,0,0,0,1.012-2.415c.745-4.319,1.29-8.688,1.634-13.083.211-2.687.362-5.38.515-8.073.106-1.873.786-4.809-.844-6.109a2.206,2.206,0,0,0-2.308-.176,5.378,5.378,0,0,0-2.562,3.309,19.513,19.513,0,0,0-.723,4.53l-.916,11.4C1453.76,2675.873,1452.535,2680.57,1453.99,2683.1Z" transform="translate(-1431.693 -2647.413)" fill="#333762"/>
        <path id="패스_442" data-name="패스 442" d="M1577.936,2684.639a2.334,2.334,0,0,0,2.389,1.057,2.783,2.783,0,0,0,1.8-.439,3.917,3.917,0,0,0,1.012-2.414c.744-4.319,1.289-8.688,1.634-13.083.211-2.687.363-5.381.515-8.073.106-1.873.786-4.809-.844-6.108a2.207,2.207,0,0,0-2.308-.176,5.376,5.376,0,0,0-2.562,3.31,19.48,19.48,0,0,0-.724,4.53q-.458,5.7-.916,11.4C1577.707,2677.411,1576.481,2682.108,1577.936,2684.639Z" transform="translate(-1477.61 -2647.982)" fill="#333762"/>
        <path id="패스_443" data-name="패스 443" d="M1476.954,2651.218a20.117,20.117,0,0,0-2.985,8.083,62.275,62.275,0,0,0-.793,17.052c.378,3.9,1.159,8.7,5.241,10.391,7.553,3.136,12.585-7.134,13.384-13.031.4-2.975.574-7.018-2.834-8.266a7.746,7.746,0,0,0-4.493-.63c-1.707.308-3.335,1.711-3.32,3.445a2.592,2.592,0,0,0,2.307,2.518c.4.093,1.476-.069,1.768.182,1.173,1.019.336,4.984-.238,6.046-1.015,1.877-4,2.743-5.28,1.037a4.517,4.517,0,0,1-.7-1.949,34.416,34.416,0,0,1,.636-15.013c.518-1.921,1.3-3.93,2.963-5.03a1.594,1.594,0,0,1,1.512-.283c.907.438,1.035,1.614,1.314,2.582.755,2.619,4.336,1.545,5.245.124a10.051,10.051,0,0,0,.385-7.285C1488.375,2644.909,1480.2,2646.6,1476.954,2651.218Z" transform="translate(-1438.962 -2644.994)" fill="#333762"/>
        <path id="패스_444" data-name="패스 444" d="M1645.295,2649.353a19.307,19.307,0,0,0-3.08,7.938,58.533,58.533,0,0,0-.852,16.735c.379,3.822,1.168,8.531,5.351,10.185,7.739,3.06,12.923-7.03,13.755-12.818.42-2.92.6-6.887-2.887-8.1a8.255,8.255,0,0,0-4.606-.608c-1.751.306-3.424,1.687-3.412,3.387.01,1.4,1.026,2.173,2.36,2.466.414.091,1.514-.07,1.812.175,1.2,1,.334,4.89-.257,5.933-1.046,1.845-4.106,2.7-5.417,1.029a4.281,4.281,0,0,1-.711-1.911,32.368,32.368,0,0,1,.687-14.732c.536-1.887,1.346-3.859,3.05-4.942a1.7,1.7,0,0,1,1.551-.282c.929.427,1.058,1.582,1.342,2.531.768,2.568,4.444,1.506,5.378.109a9.475,9.475,0,0,0,.412-7.149C1657.021,2643.137,1648.633,2644.813,1645.295,2649.353Z" transform="translate(-1501.27 -2644.325)" fill="#333762"/>
        <path id="패스_445" data-name="패스 445" d="M1529.2,2652.375a2.115,2.115,0,0,0-2.309-.192,5.589,5.589,0,0,0-2.553,3.48,21.533,21.533,0,0,0-.711,4.773l-.185,2.508-6.654.34q.117-2.086.22-4.174c.1-1.975.772-5.067-.861-6.442a2.115,2.115,0,0,0-2.309-.192,5.592,5.592,0,0,0-2.553,3.481,21.521,21.521,0,0,0-.711,4.773q-.442,6.007-.885,12.013c-.215,2.92-1.427,7.868.035,10.541a2.312,2.312,0,0,0,2.393,1.121,2.663,2.663,0,0,0,1.8-.458,4.219,4.219,0,0,0,1.005-2.542q.9-5.6,1.391-11.295l6.652-.626q-.109,1.482-.219,2.964c-.215,2.921-1.428,7.868.035,10.541a2.31,2.31,0,0,0,2.393,1.121,2.666,2.666,0,0,0,1.8-.458,4.221,4.221,0,0,0,1.005-2.542q1.1-6.826,1.6-13.787c.2-2.831.348-5.67.493-8.509C1530.166,2656.842,1530.838,2653.75,1529.2,2652.375Z" transform="translate(-1452.338 -2646.787)" fill="#333762"/>
        <path id="패스_446" data-name="패스 446" d="M1565.315,2653.362a2.464,2.464,0,0,0-.651-1.14,2.243,2.243,0,0,0-1.363-.4,86.339,86.339,0,0,0-12.238-.232c-1.116.085-2.657.064-3.417,1.18-.662.974-.838,3.769-.077,4.688h0a1.55,1.55,0,0,0,1.32.393c.918-.028,1.834-.073,2.75-.126-.137.865-.211,1.749-.281,2.627l-.916,11.4c-.222,2.771-1.448,7.468.007,10a2.336,2.336,0,0,0,2.389,1.058,2.787,2.787,0,0,0,1.8-.439,3.92,3.92,0,0,0,1.012-2.414c.744-4.319,1.289-8.688,1.634-13.084.21-2.686.362-5.38.515-8.073.027-.477.091-1.022.145-1.592q2.389-.251,4.773-.559c1.143-.147,2.542-.553,2.774-1.848A3.011,3.011,0,0,0,1565.315,2653.362Z" transform="translate(-1466.435 -2646.609)" fill="#333762"/>
        <path id="패스_447" data-name="패스 447" d="M1619.215,2653.409a1.983,1.983,0,0,0-2.177-.183,5.293,5.293,0,0,0-2.406,3.3,20.54,20.54,0,0,0-.669,4.527c-.247,3.391-.533,7.664-.78,11.055-2.594-4.694-4.89-9.466-7.484-14.159-.617-1.117-1.521-3.069-2.5-3.842l-.086.27a2.427,2.427,0,0,0-.585-.755,1.983,1.983,0,0,0-2.177-.183,5.293,5.293,0,0,0-2.406,3.3,20.536,20.536,0,0,0-.669,4.526q-.415,5.7-.83,11.394c-.2,2.771-1.343,7.463.036,10a2.175,2.175,0,0,0,2.256,1.064,2.5,2.5,0,0,0,1.693-.433,4.014,4.014,0,0,0,.947-2.411q.953-5.971,1.418-12.054a101.3,101.3,0,0,0,6.7,11.118,9.672,9.672,0,0,0,2.537,2.693,3.918,3.918,0,0,0,1.94.613,2.778,2.778,0,0,0,1.454.261,2.5,2.5,0,0,0,1.694-.434,4.015,4.015,0,0,0,.947-2.41q1.034-6.475,1.5-13.077c.191-2.686.326-5.378.462-8.071C1620.123,2657.646,1620.755,2654.714,1619.215,2653.409Z" transform="translate(-1484.491 -2647.178)" fill="#333762"/>
      </g>
      <path id="패스_448" data-name="패스 448" d="M1681.115,2677.743a2.336,2.336,0,0,0,2.39,1.058,2.785,2.785,0,0,0,1.8-.439,3.92,3.92,0,0,0,1.012-2.414c.744-4.319,1.289-8.688,1.634-13.083.211-2.687.363-5.381.515-8.074.106-1.873.786-4.809-.844-6.109a2.207,2.207,0,0,0-2.308-.175,5.376,5.376,0,0,0-2.562,3.309,19.488,19.488,0,0,0-.724,4.53l-.916,11.4C1680.885,2670.516,1679.66,2675.213,1681.115,2677.743Z" transform="translate(-1515.833 -2645.428)" fill="#333762"/>
      <path id="패스_449" data-name="패스 449" d="M1677.476,2709.255h0a3.276,3.276,0,0,0,1.158,2.525,2.971,2.971,0,0,0,2.572.48,3.669,3.669,0,0,0,2.105-1.609,3.566,3.566,0,0,0,.375-3.12C1682.269,2703.863,1677.42,2705.836,1677.476,2709.255Z" transform="translate(-1514.745 -2666.655)" fill="#333762"/>
    </g>
    <g id="i" transform="translate(44 537.671)">
      <ellipse id="타원_8" data-name="타원 8" cx="50.053" cy="3.5" rx="50.053" ry="3.5" transform="translate(88 147.368)" fill="#45416d" opacity="0.31"/>
      <g id="r" transform="translate(3)">
        <path id="패스_456" data-name="패스 456" d="M1681.781,2782.572a4.037,4.037,0,0,0,.253-3.17c-.458-1.57-1.6-1.348-2.3-2.384-.478-.576.042-1.987-.3-2.869a3.35,3.35,0,0,0-2.2-1.886c-5.6-2.023-11.338,5.472-8.764,10.075,1.36,2.608,4.5,3.812,7.215,5.013,1.315.581,2.752,1.126,3.623-.131a3.38,3.38,0,0,0-.5-3.6,3.569,3.569,0,0,0,3.016-1.128" transform="translate(-1446.384 -2736.451)" fill="#d18b8a"/>
        <path id="패스_457" data-name="패스 457" d="M1652.729,2743.779a3.324,3.324,0,0,0-2.606.172c-1.221.557-.9,1.461-1.664,2.147-.412.456-1.62.2-2.3.585a2.743,2.743,0,0,0-1.271,2.012c-.977,4.783,5.792,8.539,9.226,5.907,1.956-1.413,2.563-4.1,3.216-6.444.316-1.135.588-2.365-.536-2.921a2.778,2.778,0,0,0-2.862.835,2.92,2.92,0,0,0-1.275-2.311" transform="translate(-1437.508 -2725.531)" fill="#d18b8a"/>
        <path id="패스_458" data-name="패스 458" d="M1743.078,2715.417a3.316,3.316,0,0,0-2.018,1.656c-.668,1.164.116,1.714-.1,2.713-.068.61-1.2,1.106-1.524,1.81a2.741,2.741,0,0,0,.14,2.374c1.994,4.457,9.687,3.572,10.944-.566.768-2.287-.306-4.822-1.143-7.108-.4-1.107-.9-2.264-2.139-2.062a2.774,2.774,0,0,0-1.84,2.344,2.928,2.928,0,0,0-2.384-1.137" transform="translate(-1473.897 -2714.211)" fill="#d18b8a"/>
        <path id="패스_462" data-name="패스 462" d="M1621.722,2826.989c6.723-5.036,18.487-10.911,25.21-3.356-5.042,5.875-17.574,5.719-24.3,4.041" transform="translate(-1428.616 -2754.986)" fill="#6c8f81"/>
        <path id="패스_464" data-name="패스 464" d="M1706.335,2742.784c-.272-3.385.305-8.5,4.558-8.4.958,3.12-1.84,6.122-3.981,7.648" transform="translate(-1461.2 -2721.986)" fill="#6c8f81"/>
      </g>
      <g id="L" transform="translate(-7)">
        <path id="패스_459" data-name="패스 459" d="M1318,2737.779a3.318,3.318,0,0,0-2.337-1.164c-1.336-.135-1.519.805-2.521,1.015-.586.186-1.5-.642-2.277-.651a2.747,2.747,0,0,0-2.113,1.1c-3.26,3.637.688,10.292,4.983,9.749,2.4-.234,4.282-2.246,6.031-3.942.846-.821,1.7-1.745,1.012-2.792a2.779,2.779,0,0,0-2.892-.721,2.919,2.919,0,0,0,.067-2.638" transform="translate(-1307.548 -2722.839)" fill="#d18b8a"/>
        <path id="패스_460" data-name="패스 460" d="M1365.1,2719.717a1.888,1.888,0,0,0-.886,1.192c-.208.735.3.931.318,1.512.047.347-.509.776-.592,1.209a1.562,1.562,0,0,0,.405,1.292c1.717,2.187,5.843.639,5.966-1.819.108-1.368-.835-2.62-1.612-3.769-.376-.555-.809-1.126-1.466-.844a1.576,1.576,0,0,0-.692,1.547,1.669,1.669,0,0,0-1.474-.3" transform="translate(-1329.272 -2715.832)" fill="#d18b8a"/>
        <path id="패스_461" data-name="패스 461" d="M1428.639,2761.4a2.112,2.112,0,0,0-1.612-.391c-.847.106-.827.714-1.418.986-.336.2-1.02-.185-1.5-.081a1.745,1.745,0,0,0-1.153.978c-1.5,2.715,1.887,6.279,4.469,5.334,1.456-.485,2.335-2,3.177-3.3.408-.628.807-1.321.231-1.873a1.766,1.766,0,0,0-1.894-.038,1.858,1.858,0,0,0-.333-1.643" transform="translate(-1368.055 -2733.241)" fill="#d18b8a"/>
        <path id="패스_463" data-name="패스 463" d="M1406.861,2792.49c-7.831-3.047-19.035-9.928-16.158-19.618,7.656,1.177,14.137,11.892,16.258,18.482" transform="translate(-1355.592 -2737.817)" fill="#6c8f81"/>
        <g id="그룹_284" data-name="그룹 284" transform="translate(76.479 13.462)">
          <g id="그룹_278" data-name="그룹 278" transform="translate(0 10.627)">
            <path id="패스_487" data-name="패스 487" d="M1451.036,2778.832a6.521,6.521,0,0,1-1.774,1.575,2.283,2.283,0,0,1-2.275.019,2.312,2.312,0,0,1-.606-2.785,6.762,6.762,0,0,1,1.987-2.333,5.9,5.9,0,0,1-2.824-.546,2.018,2.018,0,0,1-1-2.445,2.653,2.653,0,0,1,.98-.984,13.583,13.583,0,0,1,4.271-1.9c-.9.082-1.5-1.093-1.195-1.947a3.6,3.6,0,0,1,1.95-1.793,19.18,19.18,0,0,1,9.744-1.522c3.75,7.59-.443,12.648-1.226,13.067a1.757,1.757,0,0,1-2.326-.576,7.121,7.121,0,0,1-1.121,4.035,2.7,2.7,0,0,1-1.722,1.348,2.236,2.236,0,0,1-2.049-1.029,6.577,6.577,0,0,1-.864-2.238" transform="translate(-1444.405 -2764.093)" fill="#8cb0ab"/>
            <g id="그룹_277" data-name="그룹 277" transform="translate(4.107 1.176)">
              <g id="그룹_272" data-name="그룹 272">
                <path id="패스_488" data-name="패스 488" d="M1451.141,2778.786l.533-.478c.171-.15.372-.336.6-.555s.487-.462.762-.737.566-.578.873-.9.62-.671.943-1.034.647-.745.97-1.14.639-.8.958-1.21.63-.82.927-1.233l.878-1.206c.561-.789,1.085-1.524,1.534-2.155.228-.312.435-.6.621-.855s.355-.473.492-.653c.275-.363.446-.562.446-.562l0,0a.164.164,0,0,1,.232-.017.162.162,0,0,1,.044.188s-.1.242-.305.652c-.1.208-.232.451-.385.731s-.334.591-.546.921-.446.685-.7,1.057-.54.749-.834,1.141-.61.789-.945,1.179-.671.792-1.015,1.185-.7.777-1.055,1.147-.7.744-1.036,1.1l-.99,1c-.315.317-.616.616-.9.884-.554.55-1.036.994-1.365,1.306l-.521.489a.162.162,0,1,1-.222-.237Z" transform="translate(-1451.087 -2766.007)" fill="#fff"/>
              </g>
              <g id="그룹_273" data-name="그룹 273" transform="translate(4.782 8.07)">
                <path id="패스_489" data-name="패스 489" d="M1459.189,2779.269s.015.075.047.2.081.321.125.546c.029.112.052.236.081.366s.055.268.083.41c.053.287.114.594.16.906.019.156.042.314.048.469a4.568,4.568,0,0,1,.009.457,3.556,3.556,0,0,1-.109.8,1.935,1.935,0,0,1-.353.725.184.184,0,0,1-.258.016.18.18,0,0,1-.055-.088l0-.008a1.4,1.4,0,0,1-.035-.218,3.773,3.773,0,0,1-.012-.544c.007-.109.015-.228.03-.352s.029-.256.05-.39c.034-.274.072-.565.109-.856a6.114,6.114,0,0,0,.041-.873,5.512,5.512,0,0,0-.081-.76,4.8,4.8,0,0,0-.124-.525c-.039-.126-.065-.2-.065-.2a.163.163,0,0,1,.307-.11A.073.073,0,0,1,1459.189,2779.269Z" transform="translate(-1458.866 -2779.136)" fill="#fff"/>
              </g>
              <g id="그룹_274" data-name="그룹 274" transform="translate(0.106 6.16)">
                <path id="패스_490" data-name="패스 490" d="M1457.211,2776.649s-.089-.028-.247-.068a2.1,2.1,0,0,0-.281-.059c-.107-.021-.229-.041-.366-.054a5.619,5.619,0,0,0-.933-.017,7.622,7.622,0,0,0-1.06.154l-1.047.232c-.336.071-.649.137-.925.168a4.267,4.267,0,0,1-.68.029,2.053,2.053,0,0,1-.267-.025l0,0a.176.176,0,0,1-.138-.207.172.172,0,0,1,.07-.109,3.18,3.18,0,0,1,.87-.395,5.973,5.973,0,0,1,.946-.2c.177-.021.359-.045.547-.054s.379-.014.57-.018.382,0,.57.013.372.02.551.027.35.025.512.042.315.032.456.057c.281.031.524.085.681.115s.251.05.251.05a.162.162,0,0,1,.133.187.163.163,0,0,1-.188.133Z" transform="translate(-1451.26 -2776.029)" fill="#fff"/>
              </g>
              <g id="그룹_275" data-name="그룹 275" transform="translate(9.018 2.432)">
                <path id="패스_491" data-name="패스 491" d="M1466.083,2770.1s.01.072.037.2.065.305.112.52l.36,1.586c.029.147.061.292.08.438s.037.289.049.428a3.712,3.712,0,0,1-.015.764,1.936,1.936,0,0,1-.242.726.185.185,0,0,1-.255.055.182.182,0,0,1-.066-.075l0-.007a1.194,1.194,0,0,1-.069-.2,2.891,2.891,0,0,1-.092-.521,6.626,6.626,0,0,1-.006-.724c0-.265.025-.549.04-.835a7.418,7.418,0,0,0,0-.844,6.452,6.452,0,0,0-.084-.731c-.041-.212-.076-.385-.112-.508s-.055-.191-.055-.191a.162.162,0,0,1,.1-.206.164.164,0,0,1,.207.1A.2.2,0,0,1,1466.083,2770.1Z" transform="translate(-1465.758 -2769.963)" fill="#fff"/>
              </g>
              <g id="그룹_276" data-name="그룹 276" transform="translate(1.966 2.271)">
                <path id="패스_492" data-name="패스 492" d="M1460.91,2770.737a2.288,2.288,0,0,0-.25-.116,3.612,3.612,0,0,0-.7-.194,7.667,7.667,0,0,0-1.042-.092c-.39-.012-.8.005-1.212.032l-1.2.083c-.383.02-.739.048-1.047.039a5.785,5.785,0,0,1-.75-.047,2.35,2.35,0,0,1-.29-.051h0a.174.174,0,0,1-.123-.213.179.179,0,0,1,.086-.108,2.356,2.356,0,0,1,.277-.116,4.008,4.008,0,0,1,.75-.183,6.691,6.691,0,0,1,1.079-.067,10.7,10.7,0,0,1,1.239.086c.418.05.838.115,1.226.167s.757.1,1.068.174a5.535,5.535,0,0,1,.75.205c.184.067.277.106.277.106l.01,0a.163.163,0,1,1-.129.3Z" transform="translate(-1454.285 -2769.702)" fill="#fff"/>
              </g>
            </g>
          </g>
          <g id="그룹_283" data-name="그룹 283" transform="translate(9.045)">
            <path id="패스_493" data-name="패스 493" d="M1470.129,2751.39c3.878-5.834-6.938-6.1-5.026-.818-1-2.081-5.246-3-5.942.02-.413,2.194,2.484,4.253,4.384,4.23-5.708,3.472,1.634,10.782,4.338,4.475.682,8.458,13.392,4.03,7.087-2.076,2.122-1.873,4.877-3.753,2.6-7.084-1.829-2.363-4.981-1.062-7.056.568" transform="translate(-1459.121 -2746.803)" fill="#fff"/>
            <g id="그룹_282" data-name="그룹 282" transform="translate(5.037 4.383)">
              <g id="그룹_279" data-name="그룹 279" transform="translate(2.192)">
                <path id="패스_494" data-name="패스 494" d="M1475.352,2754.375a4.328,4.328,0,0,0-3.371-.159c-1.162.564-1.222,1.954-.994,3.064.048.234.417.179.368-.057-.2-.99-.2-2.192.84-2.7a3.972,3.972,0,0,1,3.02.2.186.186,0,0,0,.137-.346Z" transform="translate(-1470.882 -2753.935)" fill="#cfa093"/>
              </g>
              <g id="그룹_280" data-name="그룹 280" transform="translate(0 2.257)">
                <path id="패스_495" data-name="패스 495" d="M1473.6,2757.962a3.562,3.562,0,0,1,2.583,3.255,2.213,2.213,0,0,1-2.562,2.108,8.659,8.659,0,0,1-3.432-.981,4.557,4.557,0,0,1-2.428-2.308,1.871,1.871,0,0,1,.218-1.551c.122-.2-.175-.43-.3-.224-1.329,2.239,1.262,4,3.064,4.746a7.976,7.976,0,0,0,3.283.689,2.5,2.5,0,0,0,2.508-2.142,3.864,3.864,0,0,0-2.8-3.938c-.229-.068-.366.277-.136.346Z" transform="translate(-1467.316 -2757.607)" fill="#cfa093"/>
              </g>
              <g id="그룹_281" data-name="그룹 281" transform="translate(1.306 4.017)">
                <path id="패스_496" data-name="패스 496" d="M1469.512,2760.809a11.178,11.178,0,0,0,3.5,2.113,2.9,2.9,0,0,0,1.821.033,2.585,2.585,0,0,0,1.395-1.457c.1-.218-.247-.354-.347-.136-1.315,2.863-4.557.414-6.143-.849-.189-.151-.411.148-.224.3Z" transform="translate(-1469.441 -2760.47)" fill="#cfa093"/>
              </g>
              <path id="패스_497" data-name="패스 497" d="M1476.358,2760.213c-.244.22-.846-.045-1.343-.594s-.7-1.173-.458-1.394.845.046,1.343.594S1476.6,2759.992,1476.358,2760.213Z" transform="translate(-1470.067 -2755.558)" fill="#807444"/>
            </g>
          </g>
        </g>
      </g>
      <g id="b" transform="translate(55 26.026)">
        <path id="패스_450" data-name="패스 450" d="M1479.132,2821.5l16.949,17.637,57.562.75,15.266-17.5Z" transform="translate(-1442.024 -2781.583)" fill="#333762"/>
        <g id="그룹_261" data-name="그룹 261" transform="translate(54.267)">
          <g id="그룹_259" data-name="그룹 259" transform="translate(25.834)">
            <path id="패스_451" data-name="패스 451" d="M1579.2,2771.115a5.69,5.69,0,0,1-1.729,3.49c-5.757,6.543-18.225,12.919-25.627,7.378.92-.076,3.26.187,5.145-.021,4.473-.492,7.792-4.664,10.556-8.434,1.695-2.311,2.747-9.3,5.66-9.968C1575.988,2762.919,1579.248,2768.433,1579.2,2771.115Z" transform="translate(-1550.146 -2759.235)" fill="#3c3781"/>
            <path id="패스_452" data-name="패스 452" d="M1552.974,2769.908a38.262,38.262,0,0,1,7.574-9.08c2.932-2.7,6.743-4.584,10.607-4.231a2.848,2.848,0,0,1,1.322.376,3.611,3.611,0,0,1,1.027,1.253c1.553,2.61,4.676,6.205,4.639,9.641a28.713,28.713,0,0,0-19.747,3.906c-4.375,2.644-7.357,7.975-7.789,7.928C1546.495,2779.244,1551.858,2771.76,1552.974,2769.908Z" transform="translate(-1549.078 -2756.555)" fill="#333762"/>
          </g>
          <g id="그룹_260" data-name="그룹 260" transform="translate(0 0.5)">
            <path id="패스_453" data-name="패스 453" d="M1507.048,2771.724a5.693,5.693,0,0,0,1.654,3.527c5.614,6.667,17.94,13.312,25.46,7.932-.917-.1-3.263.116-5.142-.132-4.461-.589-7.69-4.832-10.371-8.661-1.643-2.347-2.544-9.354-5.442-10.089C1510.442,2763.6,1507.064,2769.042,1507.048,2771.724Z" transform="translate(-1507.048 -2760.016)" fill="#3c3781"/>
            <path id="패스_454" data-name="패스 454" d="M1532.178,2771.094a38.3,38.3,0,0,0-7.375-9.241c-2.874-2.763-6.642-4.729-10.513-4.46a2.871,2.871,0,0,0-1.331.346,3.636,3.636,0,0,0-1.053,1.231c-1.609,2.577-4.81,6.1-4.846,9.537a28.709,28.709,0,0,1,19.657,4.334c4.316,2.738,7.182,8.132,7.615,8.094C1538.453,2780.569,1533.253,2772.97,1532.178,2771.094Z" transform="translate(-1507.052 -2757.368)" fill="#333762"/>
          </g>
        </g>
        <path id="패스_455" data-name="패스 455" d="M1552.713,2812.025l-9.794-.106.184-16.912c0-.173.538-.305,1.2-.3l7.4.081c.661.007,1.195.152,1.192.323Z" transform="translate(-1466.604 -2771.258)" fill="#52569b"/>
        <rect id="사각형_15" data-name="사각형 15" width="89.958" height="16.836" transform="matrix(1, 0.011, -0.011, 1, 37.291, 23.084)" fill="#95a6d3"/>
        <path id="패스_465" data-name="패스 465" d="M1477.821,2904.242s-18.519-19.5-44.547-3.5l-14.515,9.5,7.508,6s20.021-22,44.047-7.5Z" transform="translate(-1418.758 -2809.689)" fill="#333762"/>
        <g id="그룹_264" data-name="그룹 264" transform="translate(53.827 12.303)">
          <path id="패스_466" data-name="패스 466" d="M1552.151,2815.852c-13.576,21.571-25.6,42.079-39.985,63.127-2.31,3.336-8.821,12.921-4.238,8.3,1.564-1.744,6.509-9.583,8.087-12.012,13.035-19.853,25.88-40.518,38.813-60.437" transform="translate(-1506.332 -2791.313)" fill="#6c8f81"/>
          <g id="그룹_263" data-name="그룹 263" transform="translate(38.534)">
            <path id="패스_467" data-name="패스 467" d="M1594.588,2793.185c-.009-6.916-9.9-1.837-14.44-6.043-3.577-3.033-2.765-13.062-8.943-6.43-2.913,3.169-2.612,14.081-.83,20.522l-.245-.616c2.08,14.7,22.553,8.673,29.006,2.538C1604.629,2798.156,1604.888,2784.821,1594.588,2793.185Z" transform="translate(-1569.024 -2777.31)" fill="#edc4c2"/>
            <path id="패스_468" data-name="패스 468" d="M1579.453,2776.927c-7.5.892-2.922,5.241-2.528,9.679.144,3.67-2.417,7.433,1.043,10.3,3.089,2.372,5.663.578,8.63,3.223,2.47,1.767,5.081,6.543,8.76,4.264,1.961-1.084,1.336-3,2.311-4.531,1.587-2.236,2.083-1.358,4.042-3.1,3.428-3.048,4.766-5.394,1.423-9.19-.869-1.375-2.838-1.6-3.829-2.7-1.489-1.979-1.871-4.446-3.233-6.041-4.212-5.17-7.872.4-13.663-1.224" transform="translate(-1571.397 -2776.571)" fill="#d18b8a"/>
            <g id="그룹_262" data-name="그룹 262" transform="translate(14.902 8.478)">
              <path id="패스_469" data-name="패스 469" d="M1596.373,2791.02c-.851-1.073-3.947-.932-2.885,1.189.949,1.357,2.749.512,2.979-1.07" transform="translate(-1593.269 -2790.364)" fill="#723b26"/>
              <path id="패스_470" data-name="패스 470" d="M1602.5,2793.585c-.851-1.074-3.948-.933-2.885,1.188.95,1.357,2.749.512,2.979-1.07" transform="translate(-1595.63 -2791.352)" fill="#723b26"/>
              <path id="패스_471" data-name="패스 471" d="M1597.084,2797.4c-.85-1.075-3.946-.933-2.885,1.189.949,1.356,2.749.512,2.979-1.069" transform="translate(-1593.543 -2792.824)" fill="#723b26"/>
            </g>
          </g>
        </g>
        <g id="그룹_267" data-name="그룹 267" transform="translate(44.872 13.935)">
          <path id="패스_472" data-name="패스 472" d="M1518.4,2818.2c4.9,21.981,10.118,42.331,14.187,64.485.626,3.53,2.5,13.594,2.5,7.842-.1-2.067-1.878-10.062-2.4-12.568-4.173-20.565-8.97-41.523-13.249-62.067" transform="translate(-1502.028 -2793.358)" fill="#6c8f81"/>
          <g id="그룹_266" data-name="그룹 266">
            <path id="패스_473" data-name="패스 473" d="M1514.223,2788.708c-4.312-4.339-7.362,4.994-12.833,5.173-4.135.317-9.869-6.486-9.62,1.516.144,3.8,7.127,10.467,12.256,13.406l-.538-.236c10.456,7.94,19.564-8.561,19.8-16.423C1523.624,2785.595,1515.485,2777.058,1514.223,2788.708Z" transform="translate(-1491.762 -2780.658)" fill="#edc4c2"/>
            <path id="패스_474" data-name="패스 474" d="M1493.764,2788.406c-4.155,5.218,1.427,5.106,4.437,7.649,2.375,2.216,3.109,6.17,7.068,5.821,3.417-.429,3.917-3.154,7.427-3.336,2.651-.425,7.265.953,8.156-2.763.556-1.9-1.032-2.716-1.37-4.281-.4-2.389.462-2.147.609-4.457.255-4.043-.365-6.348-4.827-6.656-1.4-.324-2.781.755-4.089.679-2.167-.318-3.943-1.629-5.791-1.786-5.864-.63-4.7,5.138-9.344,7.718" transform="translate(-1491.962 -2779.227)" fill="#d18b8a"/>
            <g id="그룹_265" data-name="그룹 265" transform="translate(11.57 7.154)">
              <path id="패스_475" data-name="패스 475" d="M1512.533,2793.069c-1.2-.146-3.06,1.866-1.071,2.539,1.441.262,2.045-1.386,1.2-2.523" transform="translate(-1510.586 -2791.713)" fill="#723b26"/>
              <path id="패스_476" data-name="패스 476" d="M1517.978,2790.874c-1.2-.146-3.06,1.866-1.071,2.539,1.441.263,2.046-1.385,1.2-2.522" transform="translate(-1512.685 -2790.866)" fill="#723b26"/>
              <path id="패스_477" data-name="패스 477" d="M1516.955,2796.638c-1.2-.147-3.059,1.865-1.072,2.539,1.441.262,2.046-1.386,1.205-2.521" transform="translate(-1512.29 -2793.088)" fill="#723b26"/>
            </g>
          </g>
        </g>
        <g id="그룹_270" data-name="그룹 270" transform="translate(23.238 31.613)">
          <path id="패스_478" data-name="패스 478" d="M1481.507,2834.443c13.687,8.706,26.7,16.42,40.053,25.636,2.116,1.479,8.2,5.652,5.267,2.723-1.105-1-6.078-4.17-7.62-5.182-12.595-8.354-25.707-16.591-38.344-24.881" transform="translate(-1465.929 -2817.526)" fill="#6c8f81"/>
          <g id="그룹_269" data-name="그룹 269" transform="translate(0)">
            <path id="패스_479" data-name="패스 479" d="M1467.13,2813.26c-4.4-.02-1.207,6.283-3.9,9.153-1.945,2.261-8.329,1.709-4.129,5.658,2.008,1.862,8.958,1.711,13.066.6l-.394.154c9.367-1.267,5.6-14.3,1.723-18.42C1470.333,2806.9,1461.842,2806.687,1467.13,2813.26Z" transform="translate(-1457.002 -2807.988)" fill="#edc4c2"/>
            <path id="패스_480" data-name="패스 480" d="M1456.747,2824.4c.54,4.767,3.327,1.876,6.155,1.642,2.337-.078,4.724,1.563,6.562-.625,1.522-1.954.39-3.6,2.085-5.471,1.133-1.563,4.184-3.2,2.747-5.55-.683-1.25-1.908-.859-2.876-1.485-1.419-1.016-.857-1.329-1.959-2.58-1.928-2.189-3.417-3.047-5.847-.938-.879.547-1.032,1.8-1.736,2.423-1.266.938-2.838,1.172-3.859,2.032-3.307,2.657.223,5-.83,8.675" transform="translate(-1456.566 -2808.064)" fill="#d18b8a"/>
            <g id="그룹_268" data-name="그룹 268" transform="translate(5.383 7.604)">
              <path id="패스_481" data-name="패스 481" d="M1465.748,2824.3c-.687.537-.608,2.5.747,1.837.868-.6.337-1.745-.67-1.9" transform="translate(-1465.324 -2821.855)" fill="#723b26"/>
              <path id="패스_482" data-name="패스 482" d="M1467.4,2820.418c-.687.537-.608,2.5.747,1.838.868-.6.336-1.745-.671-1.9" transform="translate(-1465.962 -2820.359)" fill="#723b26"/>
              <path id="패스_483" data-name="패스 483" d="M1469.818,2823.873c-.688.537-.609,2.5.746,1.837.867-.6.336-1.744-.67-1.9" transform="translate(-1466.892 -2821.69)" fill="#723b26"/>
            </g>
          </g>
        </g>
        <rect id="사각형_16" data-name="사각형 16" width="79.138" height="66.669" transform="matrix(1, 0.011, -0.011, 1, 42.7, 57.14)" fill="#6167a6"/>
        <path id="패스_484" data-name="패스 484" d="M1541.44,2926.217h9.01s10.01-25.248,30.031-35.5c8.4-4.3,17.979-3.992,27.132-4.8a107,107,0,0,0,23.923-5.2l-1-7.75c-12.793,2.331-25.8,4.814-38.784,5.605a44.656,44.656,0,0,0-18.949,5.116,56,56,0,0,0-16.357,12.233c-6.766,7.67-12.2,21.711-16.756,30.791" transform="translate(-1465.359 -2801.417)" fill="#333762"/>
        <path id="패스_485" data-name="패스 485" d="M1551.278,2819.91l-3.076,5.4c.168-.053.33-.109.5-.167-.059-.6.889-1.6,6.963-3.818a2.459,2.459,0,0,1,2.584.63c.331.7-.228,1.332-.787,1.7-2.265,1.494-7.816,2.721-8.632,1.8l-.88.294-1.194,2.1-.313-.169,1.188-2.081a.111.111,0,0,1,.071-.123l.154-.276c-.077-.235-.15-.468-.228-.7-.022,0-.05,0-.077,0-.971-.048-2.267-4.738-2.445-7.911-.013-.261-.019-.519-.013-.753,0-.2.006-.391.02-.57.052-.709.322-1.537,1.049-1.527a1.294,1.294,0,0,1,.694.4,3.3,3.3,0,0,1,.417.479,3.089,3.089,0,0,1,.555,1.361c.785,6.229.53,7.95.095,8.385l.141.475,2.985-5.23c-.064-.25-.117-.5-.181-.75l-.1.005c-.757-.043-1.706-2.868-2.175-5.617-.047-.291-.095-.582-.13-.867a13.7,13.7,0,0,1-.133-2.762,2.768,2.768,0,0,1,.187-.85.917.917,0,0,1,.861-.669.593.593,0,0,1,.263.087,2.724,2.724,0,0,1,1.008,1.047,2.934,2.934,0,0,1,.32.737,2.774,2.774,0,0,1,.071.371c.773,6.127.543,7.9.117,8.364.043.167.079.336.122.5l2.94-5.158a.094.094,0,0,1,.036-.065c-.093-.248-.179-.5-.256-.757-.009-.005-.013-.006-.015,0-.923-.045-2.125-4.223-2.409-7.364a11.845,11.845,0,0,1-.036-1.879,3.4,3.4,0,0,1,.047-.363c.114-.569.382-1.116.929-1.153l0,0c.026,0,.05,0,.076,0a2.742,2.742,0,0,1,1.662,2.242q.055.452.11.872c.678,5.75.385,7.224-.066,7.556.05.172.1.337.156.5l1.921-3.368c-.248-.9.168-2.726.922-4.7a22.028,22.028,0,0,1,3.807-6.649c.664-.705,1.725-1.355,2.693-.739.607.384,1.2,2.331.383,3.77-.962,1.684-1.795,3.06-2.518,4.192-3.242,5.04-4.336,5.057-4.982,4.62a.583.583,0,0,1-.12-.1l-1.8,3.16c.13-.035.258-.077.39-.116.142-.621,1.423-1.628,6.944-3.639a2.442,2.442,0,0,1,2.587.626c.331.7-.232,1.33-.785,1.7-2.333,1.547-8.145,2.8-8.689,1.723a.54.54,0,0,1-.029-.059c-.171.051-.347.111-.519.162.008.1-.091.139-.185.116l-2.972,5.218c.143-.028.275-.056.417-.085.006-.6,1.065-1.611,6.965-3.76a2.433,2.433,0,0,1,2.586.626c.331.7-.232,1.33-.787,1.7-2.3,1.519-7.977,2.754-8.663,1.759-.23.048-.461.094-.693.135C1551.3,2819.914,1551.291,2819.917,1551.278,2819.91Z" transform="translate(-1467.441 -2772.498)" fill="#6c8f81"/>
        <g id="그룹_271" data-name="그룹 271" transform="translate(45.198 53.237)">
          <path id="패스_486" data-name="패스 486" d="M1525.718,2861.922l1.632.64,7.465-19.33-1.726-.063Z" transform="translate(-1505.174 -2843.169)" fill="#3d1b16"/>
          <rect id="사각형_17" data-name="사각형 17" width="33.873" height="23.381" transform="translate(0 38.298) rotate(-68.586)" fill="#fff"/>
        </g>
      </g>
    </g>
  </g>
</svg>
