<svg xmlns="http://www.w3.org/2000/svg" width="360" height="564" viewBox="0 0 360 564">
  <g id="card4" transform="translate(-2 -454)">
    <rect id="사각형_3" data-name="사각형 3" width="360" height="564" transform="translate(2 454)" fill="#fbc6c6"/>
    <g id="t" transform="translate(-2210.121 -2147.052)">
      <path id="패스_498" data-name="패스 498" d="M2346.823,2680.99h0a21.21,21.21,0,0,0,2.786,6.713,6.392,6.392,0,0,0,2.272,2.135,6.563,6.563,0,0,0,2.712.593,21.26,21.26,0,0,0,9.857-2.531,28.063,28.063,0,0,0,7.752-5.219,15.264,15.264,0,0,0,4.437-8.1,2.617,2.617,0,0,0-.12-1.656,2.322,2.322,0,0,0-1.161-.949c-2.777-1.237-6-.059-8.722,1.287a72.106,72.106,0,0,0-7.546,4.306c.565-.37-.882-8.023-.99-9.006q-.523-4.763-1.047-9.525c-.481-4.38.158-12.127-5.02-13.977-6.867-2.454-7.877,12.7-7.91,16.394A73.43,73.43,0,0,0,2346.823,2680.99Z" transform="translate(0 -5.391)" fill="#e82a5e"/>
      <g id="그룹_287" data-name="그룹 287" transform="translate(2367.711 2633.219)">
        <g id="그룹_286" data-name="그룹 286" transform="translate(0)">
          <path id="패스_499" data-name="패스 499" d="M2405.45,2644.357c-.177-5.116-2.806-11.71-9.039-11.1-5.958.585-7.488,7.244-7.918,12.141-.337,3.833-.367,8.334.924,12.2a14.239,14.239,0,0,0,1.689,3.486,5.784,5.784,0,0,0,9.22,1.029C2404.937,2658.01,2405.651,2650.121,2405.45,2644.357Zm-7.607,6.229a1.335,1.335,0,1,1-2.67,0,47.092,47.092,0,0,1,.194-7.891,1.373,1.373,0,0,1,1.335-1.335,1.339,1.339,0,0,1,1.335,1.335A47.092,47.092,0,0,0,2397.844,2650.586Z" transform="translate(-2388.296 -2633.219)" fill="#e82a5e"/>
        </g>
      </g>
      <path id="패스_500" data-name="패스 500" d="M2430.479,2660.5a37.508,37.508,0,0,0,3.369,11.545,2.792,2.792,0,0,0,1.286,1.426c1.093.431,2.212-.515,2.978-1.407,6.478-7.545,10.337-16.978,13.279-26.478.806-2.6,1.509-5.592.084-7.914a3.1,3.1,0,0,0-1.647-1.4,2.988,2.988,0,0,0-2.709.7,8.317,8.317,0,0,0-1.743,2.322,95.186,95.186,0,0,0-6.613,14.064q-.207-6.211-.414-12.422h0c-.088-2.634-.317-5.944-3.026-7.238a3.744,3.744,0,0,0-4.808.961c-2.76,3.674-1.591,10.63-1.3,14.8Q2429.594,2655.011,2430.479,2660.5Z" transform="translate(-39.421 -0.009)" fill="#e82a5e"/>
      <path id="패스_501" data-name="패스 501" d="M2482.571,2640.951h0a6.043,6.043,0,0,0-3.456-.221c-1.659.548-2.539,2.316-3.209,3.93a130.025,130.025,0,0,0-8.187,28.56,5.634,5.634,0,0,0,.141,3.337,5.352,5.352,0,0,0,3.227,2.337,71.213,71.213,0,0,0,12.051,2.873,8.335,8.335,0,0,0,4.255.012,4.2,4.2,0,0,0,2.546-2.646,2.069,2.069,0,0,0,.04-1.338,2.381,2.381,0,0,0-.744-.926c-3.115-2.646-7.519-2.917-11.457-4.008a2.457,2.457,0,0,1-1.457-.826,2.4,2.4,0,0,1-.274-1.44,18.485,18.485,0,0,1,.8-4.786,1.427,1.427,0,0,1,.525-.857,1.486,1.486,0,0,1,1.05-.055l10.267,2a4.16,4.16,0,0,0,1.619.1c1.37-.283,2.072-1.808,2.359-3.177a2.5,2.5,0,0,0-.008-1.437,2.77,2.77,0,0,0-1.884-1.306l-6.581-2.16a5.519,5.519,0,0,1-1.828-.861c-1.583-1.3-1.258-3.763-.786-5.756a2.011,2.011,0,0,1,.545-1.136,1.985,1.985,0,0,1,1.575-.212,55.233,55.233,0,0,1,6.53,1.4c2.145.6,5.2,1.476,6.978-.409a3.726,3.726,0,0,0,.046-5.155c-1.46-1.432-3.9-1.986-5.742-2.722A83.6,83.6,0,0,0,2482.571,2640.951Z" transform="translate(-57.509 -3.419)" fill="#e82a5e"/>
    </g>
    <g id="i" transform="translate(-2185.256 -2185.595)">
      <path id="패스_502" data-name="패스 502" d="M2513.494,2762.81a4.055,4.055,0,0,0-.25-3.133,3.656,3.656,0,0,0-1.1-1.288,3.773,3.773,0,0,1-5.453-3.959,3.657,3.657,0,0,0-1.569-.65,4.035,4.035,0,0,0-3.049.734,5.663,5.663,0,0,0-2.133,3.939c-.353,2.351.064,4.622,1.194,9.148a.2.2,0,0,0,.077.116.193.193,0,0,0,.135.037c4.649-.326,6.937-.634,9.067-1.7A5.668,5.668,0,0,0,2513.494,2762.81Z" transform="translate(-86.45 -5.869)" fill="#d5284b"/>
      <path id="패스_503" data-name="패스 503" d="M2253.591,2845.26a4.053,4.053,0,0,0-2.658-1.677,3.668,3.668,0,0,0-1.692.111,3.772,3.772,0,0,1-6.435,2,3.659,3.659,0,0,0-1.461.868,4.035,4.035,0,0,0-1.237,2.88,5.659,5.659,0,0,0,1.877,4.067c1.671,1.69,3.74,2.717,8.042,4.523a.2.2,0,0,0,.139.008.191.191,0,0,0,.109-.086c2.523-3.919,3.646-5.936,4.07-8.279A5.665,5.665,0,0,0,2253.591,2845.26Z" transform="translate(0 -35.763)" fill="#d74072"/>
      <g id="그룹_327" data-name="그룹 327" transform="translate(2320.651 2752.646)">
        <path id="패스_504" data-name="패스 504" d="M2368.061,2839.71s9.663-59.747,26.856-78.764c0,0,43.143,17.567,65.582,42.565-.2,8.353-18.263,74.049-18.263,74.049Z" transform="translate(-2367.911 -2760.919)" fill="#a8c4b6"/>
        <g id="그룹_302" data-name="그룹 302" transform="translate(44.58 8.629)">
          <g id="그룹_289" data-name="그룹 289" transform="translate(8.671)">
            <path id="패스_505" data-name="패스 505" d="M2447.68,2776.342a2.462,2.462,0,0,0,2.4-.167,1.21,1.21,0,0,0-.014,1.222,1.653,1.653,0,0,0,1.005.937,1.588,1.588,0,0,0-.216-2.26c1.031-.258,1.4-.371,1.784-1.4-.67-.388-1.6.228-2.023.738a1.69,1.69,0,0,0-.892-1.571s-.778.542-.077,1.776c-.482-.412-1.612.279-1.983.755Z" transform="translate(-2447.659 -2773.84)" fill="#fff"/>
            <path id="패스_506" data-name="패스 506" d="M2451.364,2776.736a2.472,2.472,0,0,1,.374-.059.8.8,0,0,0-.335-.031c.006-.133.093-.14.092-.276-.092.064-.083.188-.19.216a1.321,1.321,0,0,1-.327-.078.461.461,0,0,1,.306.126,1.17,1.17,0,0,1-.225.185c.254-.038.319-.215.484.068a1.057,1.057,0,0,1-.154-.18" transform="translate(-2448.764 -2774.682)" fill="#fff"/>
          </g>
          <g id="그룹_290" data-name="그룹 290" transform="translate(5.382 10.627)">
            <path id="패스_507" data-name="패스 507" d="M2442.75,2792.275a2.451,2.451,0,0,0,2.4-.169,1.213,1.213,0,0,0-.021,1.224,1.66,1.66,0,0,0,1.01.933,1.584,1.584,0,0,0-.218-2.258c1.031-.26,1.4-.371,1.785-1.4-.671-.4-1.6.221-2.026.73a1.686,1.686,0,0,0-.891-1.57s-.779.545-.077,1.778c-.486-.413-1.609.284-1.981.752Z" transform="translate(-2442.728 -2789.77)" fill="#fff"/>
            <path id="패스_508" data-name="패스 508" d="M2446.433,2792.671a2.035,2.035,0,0,1,.371-.059.8.8,0,0,0-.336-.036c.008-.127.092-.138.095-.274-.094.062-.084.183-.191.219a1.725,1.725,0,0,1-.329-.083.479.479,0,0,1,.307.126,1.142,1.142,0,0,1-.225.185c.256-.038.316-.212.485.069a1.068,1.068,0,0,1-.157-.18" transform="translate(-2443.832 -2790.613)" fill="#fff"/>
          </g>
          <g id="그룹_291" data-name="그룹 291" transform="translate(6.95 4.206)">
            <path id="패스_509" data-name="패스 509" d="M2445.1,2780.552a1.8,1.8,0,0,0,1.45,1.175c-.414.089-.568.4-.73.714a1.3,1.3,0,0,0,.019,1.095,1.393,1.393,0,0,0,1.207-1.457,1.554,1.554,0,0,0,1.835.114c-.147-.587-1.037-.718-1.577-.639a1.38,1.38,0,0,0,.426-1.407s-.76-.092-1.092,1.019c-.03-.507-1.076-.692-1.563-.607Z" transform="translate(-2445.079 -2780.144)" fill="#fff"/>
            <path id="패스_510" data-name="패스 510" d="M2447.586,2782.238a2.322,2.322,0,0,1,.245.162.6.6,0,0,0-.167-.194c.08-.073.133-.032.215-.115-.092-.015-.157.065-.233.028-.047-.021-.105-.175-.141-.223a.342.342,0,0,1,.1.237,1.026,1.026,0,0,1-.236-.006c.164.111.3.042.232.3a.76.76,0,0,1,.017-.188" transform="translate(-2445.841 -2780.727)" fill="#fff"/>
          </g>
          <g id="그룹_292" data-name="그룹 292" transform="translate(3.681 7.537)">
            <path id="패스_511" data-name="패스 511" d="M2440.21,2785.542a1.8,1.8,0,0,0,1.455,1.174c-.423.088-.575.4-.733.717a1.272,1.272,0,0,0,.018,1.09,1.388,1.388,0,0,0,1.206-1.454,1.553,1.553,0,0,0,1.835.117c-.148-.589-1.041-.716-1.577-.636a1.382,1.382,0,0,0,.425-1.409s-.761-.093-1.093,1.015c-.03-.507-1.078-.692-1.568-.61Z" transform="translate(-2440.179 -2785.138)" fill="#fff"/>
            <path id="패스_512" data-name="패스 512" d="M2442.7,2787.232a1.366,1.366,0,0,1,.245.162.542.542,0,0,0-.171-.2c.08-.073.135-.032.215-.112-.089-.013-.155.064-.231.025-.048-.024-.107-.174-.14-.221a.341.341,0,0,1,.1.238,1.124,1.124,0,0,1-.236-.009c.164.111.3.043.231.3a1,1,0,0,1,.019-.19" transform="translate(-2440.944 -2785.72)" fill="#fff"/>
          </g>
          <g id="그룹_293" data-name="그룹 293" transform="translate(1.967 2.738)">
            <path id="패스_513" data-name="패스 513" d="M2438.512,2777.953a1.7,1.7,0,0,0,.643,1.712,1.143,1.143,0,0,0-1,.293,1.388,1.388,0,0,0-.545.978,1.463,1.463,0,0,0,1.787-.731c.431.691.6.935,1.517.957.181-.59-.521-1.117-1.025-1.3a1.493,1.493,0,0,0,1.09-1.049s-.606-.434-1.462.391c.235-.458-.569-1.109-1.029-1.263Z" transform="translate(-2437.609 -2777.944)" fill="#fff"/>
            <path id="패스_514" data-name="패스 514" d="M2440.258,2780.449a1.407,1.407,0,0,1,.128.26.533.533,0,0,0-.047-.254c.109-.031.136.032.245,0-.071-.055-.167-.021-.214-.087-.028-.041,0-.2-.006-.259a.338.338,0,0,1-.037.255,1.2,1.2,0,0,1-.2-.117c.086.176.24.179.046.368a.977.977,0,0,1,.115-.157" transform="translate(-2438.448 -2778.665)" fill="#fff"/>
          </g>
          <g id="그룹_294" data-name="그룹 294" transform="translate(0 8.828)">
            <path id="패스_515" data-name="패스 515" d="M2434.691,2787.315a1.774,1.774,0,0,0,1.361,1.266c-.419.064-.6.364-.778.67a1.292,1.292,0,0,0-.061,1.093,1.406,1.406,0,0,0,1.306-1.38,1.541,1.541,0,0,0,1.821.234c-.106-.6-.984-.782-1.524-.737a1.4,1.4,0,0,0,.518-1.382s-.748-.136-1.157.948c.007-.505-1.021-.76-1.516-.705Z" transform="translate(-2434.661 -2787.073)" fill="#fff"/>
            <path id="패스_516" data-name="패스 516" d="M2437.05,2789.082a1.878,1.878,0,0,1,.233.18.545.545,0,0,0-.154-.208c.085-.065.136-.026.223-.1-.089-.016-.16.056-.236.012-.043-.021-.091-.182-.122-.229a.336.336,0,0,1,.081.24,1.05,1.05,0,0,1-.23-.02c.152.124.3.06.208.31a.847.847,0,0,1,.033-.188" transform="translate(-2435.387 -2787.627)" fill="#fff"/>
          </g>
          <g id="그룹_295" data-name="그룹 295" transform="translate(8.895 7.054)">
            <path id="패스_517" data-name="패스 517" d="M2449.386,2784.424a1.8,1.8,0,0,0,.416,1.889,1.217,1.217,0,0,0-1.09.176,1.478,1.478,0,0,0-.718.951,1.565,1.565,0,0,0,1.981-.524c.342.783.485,1.057,1.436,1.208.276-.592-.377-1.246-.874-1.506a1.6,1.6,0,0,0,1.295-.952s-.57-.539-1.586.215c.313-.453-.425-1.246-.887-1.468Z" transform="translate(-2447.994 -2784.414)" fill="#fff"/>
            <path id="패스_518" data-name="패스 518" d="M2451.047,2787.243a1.62,1.62,0,0,1,.094.291.55.55,0,0,0-.008-.272c.116-.016.135.052.253.029-.059-.063-.171-.038-.21-.12-.023-.042.031-.208.034-.27a.374.374,0,0,1-.08.264,1,1,0,0,1-.186-.15c.061.2.219.22-.007.4a1.21,1.21,0,0,1,.141-.154" transform="translate(-2448.974 -2785.241)" fill="#fff"/>
          </g>
          <g id="그룹_296" data-name="그룹 296" transform="translate(17.811 8.963)">
            <path id="패스_519" data-name="패스 519" d="M2461.378,2789.779a2.469,2.469,0,0,0,2.4-.168,1.206,1.206,0,0,0-.019,1.222,1.662,1.662,0,0,0,1.009.935,1.585,1.585,0,0,0-.217-2.256c1.032-.261,1.4-.371,1.782-1.4-.669-.392-1.6.23-2.021.736a1.7,1.7,0,0,0-.895-1.57s-.78.543-.076,1.777c-.481-.413-1.61.28-1.98.755Z" transform="translate(-2461.359 -2787.275)" fill="#fff"/>
            <path id="패스_520" data-name="패스 520" d="M2465.06,2790.171a2.06,2.06,0,0,1,.374-.057.706.706,0,0,0-.335-.031c.009-.13.092-.14.095-.28-.1.063-.085.188-.193.219a1.81,1.81,0,0,1-.328-.081.451.451,0,0,1,.309.129,1.578,1.578,0,0,1-.226.182c.255-.038.317-.211.486.068a1.2,1.2,0,0,1-.158-.181" transform="translate(-2462.462 -2788.116)" fill="#fff"/>
          </g>
          <g id="그룹_297" data-name="그룹 297" transform="translate(14.161 5.084)">
            <path id="패스_521" data-name="패스 521" d="M2455.916,2781.866a1.8,1.8,0,0,0,1.449,1.173c-.412.088-.567.4-.728.716a1.293,1.293,0,0,0,.019,1.093,1.4,1.4,0,0,0,1.208-1.458,1.553,1.553,0,0,0,1.833.118c-.146-.59-1.04-.719-1.573-.64a1.383,1.383,0,0,0,.42-1.406s-.76-.092-1.09,1.015c-.031-.5-1.077-.693-1.567-.606Z" transform="translate(-2455.887 -2781.461)" fill="#fff"/>
            <path id="패스_522" data-name="패스 522" d="M2458.4,2783.553a1.674,1.674,0,0,1,.242.161.546.546,0,0,0-.167-.2c.082-.074.135-.032.217-.115-.089-.012-.157.065-.236.026-.047-.019-.105-.173-.139-.218a.326.326,0,0,1,.1.235.95.95,0,0,1-.239-.009c.167.113.306.042.233.3a.775.775,0,0,1,.02-.19" transform="translate(-2456.65 -2782.044)" fill="#fff"/>
          </g>
          <g id="그룹_298" data-name="그룹 298" transform="translate(14.394 1.071)">
            <path id="패스_523" data-name="패스 523" d="M2457.139,2775.456a1.708,1.708,0,0,0,.643,1.711,1.124,1.124,0,0,0-.994.295,1.365,1.365,0,0,0-.551.973,1.469,1.469,0,0,0,1.79-.727c.429.69.6.933,1.514.956.178-.588-.518-1.116-1.023-1.3a1.477,1.477,0,0,0,1.088-1.045s-.606-.434-1.459.391c.234-.458-.569-1.111-1.034-1.264Z" transform="translate(-2456.237 -2775.445)" fill="#fff"/>
            <path id="패스_524" data-name="패스 524" d="M2458.888,2777.95a1.6,1.6,0,0,1,.125.257.5.5,0,0,0-.044-.252c.109-.025.134.035.245,0-.069-.052-.167-.015-.218-.084a1.293,1.293,0,0,1,0-.26.339.339,0,0,1-.04.257,1,1,0,0,1-.2-.117c.083.176.241.179.046.368a.879.879,0,0,1,.117-.157" transform="translate(-2457.076 -2776.166)" fill="#fff"/>
          </g>
          <g id="그룹_299" data-name="그룹 299" transform="translate(19.163 2.886)">
            <path id="패스_525" data-name="패스 525" d="M2463.414,2778.408a1.777,1.777,0,0,0,1.364,1.266c-.421.065-.6.365-.78.668a1.281,1.281,0,0,0-.057,1.093,1.4,1.4,0,0,0,1.3-1.379,1.541,1.541,0,0,0,1.816.237c-.1-.6-.982-.787-1.523-.742a1.388,1.388,0,0,0,.52-1.38s-.749-.139-1.158.947c.008-.506-1.02-.758-1.516-.705Z" transform="translate(-2463.385 -2778.166)" fill="#fff"/>
            <path id="패스_526" data-name="패스 526" d="M2465.776,2780.174a1.4,1.4,0,0,1,.229.182.5.5,0,0,0-.152-.211c.086-.067.138-.021.225-.1-.093-.021-.161.051-.239.011-.043-.026-.092-.184-.123-.232a.345.345,0,0,1,.083.245.892.892,0,0,1-.231-.024c.152.124.3.061.207.311a.665.665,0,0,1,.032-.188" transform="translate(-2464.112 -2778.719)" fill="#fff"/>
          </g>
          <g id="그룹_300" data-name="그룹 300" transform="translate(13.47 9.448)">
            <path id="패스_527" data-name="패스 527" d="M2454.879,2788.244a1.771,1.771,0,0,0,1.362,1.266c-.421.065-.6.364-.779.67a1.305,1.305,0,0,0-.06,1.095,1.4,1.4,0,0,0,1.3-1.382,1.541,1.541,0,0,0,1.818.237c-.1-.6-.98-.785-1.52-.74a1.4,1.4,0,0,0,.521-1.381s-.751-.139-1.159.947c0-.508-1.023-.762-1.515-.707Z" transform="translate(-2454.852 -2788.002)" fill="#fff"/>
            <path id="패스_528" data-name="패스 528" d="M2457.237,2790.01a1.773,1.773,0,0,1,.233.182.576.576,0,0,0-.155-.21c.089-.067.134-.022.225-.1-.09-.019-.162.056-.239.012-.043-.026-.091-.182-.121-.23a.347.347,0,0,1,.082.242,1.024,1.024,0,0,1-.233-.023c.157.123.3.063.209.312a1.026,1.026,0,0,1,.031-.186" transform="translate(-2455.577 -2788.556)" fill="#fff"/>
          </g>
          <g id="그룹_301" data-name="그룹 301" transform="translate(21.325 5.387)">
            <path id="패스_529" data-name="패스 529" d="M2468.017,2781.926a1.8,1.8,0,0,0,.416,1.891,1.2,1.2,0,0,0-1.087.174,1.466,1.466,0,0,0-.72.953,1.551,1.551,0,0,0,1.975-.524c.346.781.487,1.06,1.44,1.206.277-.593-.375-1.241-.874-1.5a1.6,1.6,0,0,0,1.3-.952s-.571-.54-1.587.214c.314-.452-.426-1.245-.887-1.469Z" transform="translate(-2466.626 -2781.915)" fill="#fff"/>
            <path id="패스_530" data-name="패스 530" d="M2469.676,2784.748a1.518,1.518,0,0,1,.094.289.609.609,0,0,0-.01-.274c.117-.017.135.052.258.03-.067-.067-.176-.039-.214-.12-.023-.042.029-.212.032-.274a.369.369,0,0,1-.074.265,1.07,1.07,0,0,1-.191-.147c.06.193.222.219-.006.394a.9.9,0,0,1,.142-.149" transform="translate(-2467.604 -2782.742)" fill="#fff"/>
          </g>
        </g>
        <g id="그룹_316" data-name="그룹 316" transform="translate(72.153 30.606)">
          <g id="그룹_303" data-name="그룹 303" transform="translate(3.6 4.367)">
            <path id="패스_531" data-name="패스 531" d="M2481.74,2818.023a2.454,2.454,0,0,0,1.566-1.82c.087.511.472.687.858.872a1.655,1.655,0,0,0,1.375-.057,1.588,1.588,0,0,0-1.758-1.434c.54-.914.722-1.258.259-2.256-.749.2-.964,1.3-.9,1.958a1.691,1.691,0,0,0-1.746-.474s-.162.936,1.209,1.308c-.633.051-.934,1.342-.858,1.94Z" transform="translate(-2481.388 -2813.328)" fill="#fff"/>
            <path id="패스_532" data-name="패스 532" d="M2483.942,2816.972a2.47,2.47,0,0,1,.22-.308.815.815,0,0,0-.258.217c-.089-.1-.033-.165-.129-.261-.021.111.073.191.02.289-.03.052-.228.135-.287.177a.449.449,0,0,1,.3-.128,1.1,1.1,0,0,1-.029.287c.153-.206.075-.376.389-.3a1.133,1.133,0,0,1-.236-.017" transform="translate(-2482.094 -2814.424)" fill="#fff"/>
          </g>
          <g id="그룹_304" data-name="그룹 304" transform="translate(8.835 14.187)">
            <path id="패스_533" data-name="패스 533" d="M2489.588,2832.743a2.462,2.462,0,0,0,1.565-1.825c.086.51.466.689.854.878a1.678,1.678,0,0,0,1.378-.06,1.586,1.586,0,0,0-1.759-1.434c.541-.917.719-1.258.263-2.255-.753.2-.97,1.3-.9,1.955a1.693,1.693,0,0,0-1.745-.472s-.159.939,1.212,1.306c-.637.055-.934,1.342-.862,1.938Z" transform="translate(-2489.236 -2828.047)" fill="#fff"/>
            <path id="패스_534" data-name="패스 534" d="M2491.791,2831.689a1.939,1.939,0,0,1,.22-.3.741.741,0,0,0-.261.209c-.086-.094-.032-.161-.129-.259-.021.111.073.188.021.29-.03.052-.226.133-.285.175a.464.464,0,0,1,.3-.129,1.448,1.448,0,0,1-.025.29c.15-.208.069-.375.388-.3a.99.99,0,0,1-.238-.016" transform="translate(-2489.941 -2829.143)" fill="#fff"/>
          </g>
          <g id="그룹_305" data-name="그룹 305" transform="translate(4.228 9.616)">
            <path id="패스_535" data-name="패스 535" d="M2482.343,2823.348a1.8,1.8,0,0,0,1.857-.2,1.09,1.09,0,0,0-.007,1.022,1.3,1.3,0,0,0,.791.76,1.4,1.4,0,0,0-.186-1.888c.794-.245,1.081-.351,1.373-1.221-.521-.307-1.242.231-1.563.673a1.379,1.379,0,0,0-.7-1.294s-.6.477-.046,1.491c-.379-.336-1.245.278-1.529.685Z" transform="translate(-2482.33 -2821.196)" fill="#fff"/>
            <path id="패스_536" data-name="패스 536" d="M2485.192,2823.6a1.918,1.918,0,0,1,.287-.062.619.619,0,0,0-.259-.02c.006-.105.071-.115.071-.234-.073.058-.065.16-.146.188-.048.018-.2-.045-.256-.056a.317.317,0,0,1,.236.094.987.987,0,0,1-.168.163c.193-.038.241-.184.372.045a1.02,1.02,0,0,1-.12-.146" transform="translate(-2483.182 -2821.891)" fill="#fff"/>
          </g>
          <g id="그룹_306" data-name="그룹 306" transform="translate(4.291 14.277)">
            <path id="패스_537" data-name="패스 537" d="M2482.443,2830.334a1.8,1.8,0,0,0,1.858-.206,1.07,1.07,0,0,0-.007,1.024,1.28,1.28,0,0,0,.787.757,1.393,1.393,0,0,0-.184-1.884c.8-.245,1.083-.351,1.373-1.219-.521-.309-1.24.231-1.562.669a1.376,1.376,0,0,0-.7-1.292s-.6.473-.047,1.489c-.382-.333-1.253.28-1.537.687Z" transform="translate(-2482.424 -2828.183)" fill="#fff"/>
            <path id="패스_538" data-name="패스 538" d="M2485.294,2830.588a1.5,1.5,0,0,1,.288-.06.563.563,0,0,0-.26-.019c0-.107.073-.118.071-.231-.071.054-.064.155-.145.184-.051.015-.2-.047-.254-.057a.336.336,0,0,1,.239.1,1.32,1.32,0,0,1-.172.161c.193-.039.241-.186.373.044a1.082,1.082,0,0,1-.122-.148" transform="translate(-2483.279 -2828.88)" fill="#fff"/>
          </g>
          <g id="그룹_307" data-name="그룹 307" transform="translate(0 12.226)">
            <path id="패스_539" data-name="패스 539" d="M2476.019,2826.253a1.7,1.7,0,0,0,1.667.748,1.139,1.139,0,0,0-.492.918,1.379,1.379,0,0,0,.309,1.073,1.462,1.462,0,0,0,.741-1.781c.794.178,1.085.232,1.744-.406-.288-.54-1.157-.416-1.641-.183a1.491,1.491,0,0,0,.021-1.513s-.734.125-.751,1.314c-.16-.489-1.187-.376-1.623-.157Z" transform="translate(-2475.992 -2825.109)" fill="#fff"/>
            <path id="패스_540" data-name="패스 540" d="M2478.759,2827.573a1.318,1.318,0,0,1,.274.093.5.5,0,0,0-.212-.146c.056-.1.118-.075.174-.173-.089.012-.134.106-.213.087-.045-.008-.145-.139-.187-.177a.367.367,0,0,1,.156.208,1.427,1.427,0,0,1-.228.06c.189.06.3-.046.3.224a1.094,1.094,0,0,1-.029-.192" transform="translate(-2476.834 -2825.824)" fill="#fff"/>
          </g>
          <g id="그룹_308" data-name="그룹 308" transform="translate(2.503 17.796)">
            <path id="패스_541" data-name="패스 541" d="M2479.761,2835.5a1.767,1.767,0,0,0,1.855-.075,1.1,1.1,0,0,0-.069,1.023,1.275,1.275,0,0,0,.735.811,1.406,1.406,0,0,0-.062-1.9c.81-.189,1.1-.273,1.448-1.127-.5-.346-1.25.146-1.6.563a1.39,1.39,0,0,0-.615-1.34s-.626.436-.146,1.488c-.354-.361-1.258.192-1.566.58Z" transform="translate(-2479.744 -2833.457)" fill="#fff"/>
            <path id="패스_542" data-name="패스 542" d="M2482.641,2835.908a1.4,1.4,0,0,1,.291-.036.523.523,0,0,0-.254-.038c.013-.107.078-.115.084-.23-.073.052-.073.153-.155.176-.05.015-.2-.061-.251-.074a.339.339,0,0,1,.228.113.981.981,0,0,1-.178.151c.2-.025.254-.171.368.071a.988.988,0,0,1-.108-.157" transform="translate(-2480.613 -2834.172)" fill="#fff"/>
          </g>
          <g id="그룹_309" data-name="그룹 309" transform="translate(8.286 10.277)">
            <path id="패스_543" data-name="패스 543" d="M2488.439,2823.052a1.8,1.8,0,0,0,1.635,1.033c-.411.166-.521.527-.642.9a1.484,1.484,0,0,0,.171,1.176,1.557,1.557,0,0,0,1.021-1.774,1.5,1.5,0,0,0,1.87-.168c-.229-.614-1.153-.609-1.688-.438a1.59,1.59,0,0,0,.236-1.591s-.784.027-.963,1.278c-.1-.541-1.184-.572-1.669-.4Z" transform="translate(-2488.412 -2822.187)" fill="#fff"/>
            <path id="패스_544" data-name="패스 544" d="M2491.177,2824.68a1.592,1.592,0,0,1,.271.135.54.54,0,0,0-.2-.186c.071-.092.131-.057.2-.159-.087,0-.146.095-.233.068-.047-.016-.125-.171-.17-.218a.387.387,0,0,1,.132.242.868.868,0,0,1-.235.024c.179.1.308,0,.275.288a.949.949,0,0,1-.009-.209" transform="translate(-2489.255 -2822.898)" fill="#fff"/>
          </g>
          <g id="그룹_310" data-name="그룹 310" transform="translate(16.4 4.185)">
            <path id="패스_545" data-name="패스 545" d="M2500.925,2817.751a2.471,2.471,0,0,0,1.568-1.823c.088.511.467.687.854.873a1.672,1.672,0,0,0,1.376-.057,1.583,1.583,0,0,0-1.759-1.432c.544-.917.722-1.258.261-2.256-.749.2-.967,1.3-.9,1.957a1.686,1.686,0,0,0-1.743-.473s-.166.935,1.208,1.305c-.633.05-.935,1.345-.859,1.94Z" transform="translate(-2500.575 -2813.055)" fill="#fff"/>
            <path id="패스_546" data-name="패스 546" d="M2503.125,2816.7a1.973,1.973,0,0,1,.221-.306.751.751,0,0,0-.259.214c-.087-.1-.034-.164-.129-.263-.023.113.072.193.019.293a1.915,1.915,0,0,1-.288.173.462.462,0,0,1,.3-.129,1.127,1.127,0,0,1-.026.29c.152-.208.072-.373.39-.3a.926.926,0,0,1-.239-.017" transform="translate(-2501.279 -2814.149)" fill="#fff"/>
          </g>
          <g id="그룹_311" data-name="그룹 311" transform="translate(9.926 5.109)">
            <path id="패스_547" data-name="패스 547" d="M2490.886,2816.591a1.794,1.794,0,0,0,1.853-.2,1.1,1.1,0,0,0,0,1.021,1.282,1.282,0,0,0,.789.756,1.4,1.4,0,0,0-.183-1.886c.8-.242,1.079-.349,1.371-1.217-.518-.311-1.24.233-1.559.667a1.384,1.384,0,0,0-.706-1.286s-.6.474-.044,1.49c-.379-.335-1.252.277-1.532.685Z" transform="translate(-2490.871 -2814.441)" fill="#fff"/>
            <path id="패스_548" data-name="패스 548" d="M2493.736,2816.842a1.372,1.372,0,0,1,.285-.059.568.568,0,0,0-.258-.02c.005-.107.073-.116.072-.234-.073.054-.064.157-.148.185-.046.019-.2-.048-.254-.053a.335.335,0,0,1,.24.1,1.026,1.026,0,0,1-.176.16c.2-.035.246-.186.375.044a.869.869,0,0,1-.12-.148" transform="translate(-2491.723 -2815.136)" fill="#fff"/>
          </g>
          <g id="그룹_312" data-name="그룹 312" transform="translate(7.563 2.224)">
            <path id="패스_549" data-name="패스 549" d="M2487.351,2811.262a1.712,1.712,0,0,0,1.672.747,1.125,1.125,0,0,0-.49.915,1.362,1.362,0,0,0,.305,1.078,1.469,1.469,0,0,0,.74-1.784c.794.181,1.083.23,1.747-.4-.293-.542-1.16-.417-1.644-.187a1.491,1.491,0,0,0,.025-1.511s-.738.129-.751,1.313c-.164-.487-1.191-.378-1.627-.154Z" transform="translate(-2487.328 -2810.115)" fill="#fff"/>
            <path id="패스_550" data-name="패스 550" d="M2490.1,2812.583a1.566,1.566,0,0,1,.271.092.515.515,0,0,0-.212-.145c.059-.1.118-.073.173-.175-.085.013-.13.106-.214.092-.043-.008-.143-.142-.186-.18a.342.342,0,0,1,.154.208.841.841,0,0,1-.219.058c.18.064.294-.046.292.226a1.034,1.034,0,0,1-.03-.193" transform="translate(-2488.173 -2810.831)" fill="#fff"/>
          </g>
          <g id="그룹_313" data-name="그룹 313" transform="translate(11.77)">
            <path id="패스_551" data-name="패스 551" d="M2493.649,2808.825a1.778,1.778,0,0,0,1.857-.076,1.1,1.1,0,0,0-.072,1.025,1.277,1.277,0,0,0,.736.809,1.4,1.4,0,0,0-.061-1.9c.807-.187,1.1-.271,1.445-1.125-.5-.346-1.248.144-1.6.559a1.389,1.389,0,0,0-.613-1.337s-.627.433-.144,1.488c-.356-.361-1.257.191-1.567.58Z" transform="translate(-2493.634 -2806.782)" fill="#fff"/>
            <path id="패스_552" data-name="패스 552" d="M2496.53,2809.235a1.261,1.261,0,0,1,.291-.035.513.513,0,0,0-.259-.041c.013-.109.082-.115.089-.228-.078.051-.076.151-.159.176-.05.015-.2-.064-.252-.075a.35.35,0,0,1,.232.111,1.023,1.023,0,0,1-.178.151c.191-.021.251-.167.364.07a.725.725,0,0,1-.108-.156" transform="translate(-2494.501 -2807.497)" fill="#fff"/>
          </g>
          <g id="그룹_314" data-name="그룹 314" transform="translate(12.421 8.663)">
            <path id="패스_553" data-name="패스 553" d="M2494.629,2821.813a1.777,1.777,0,0,0,1.857-.078,1.094,1.094,0,0,0-.072,1.026,1.312,1.312,0,0,0,.735.811,1.4,1.4,0,0,0-.063-1.9c.81-.188,1.1-.274,1.446-1.126-.494-.35-1.248.145-1.6.563a1.4,1.4,0,0,0-.614-1.342s-.626.436-.144,1.488c-.356-.358-1.261.193-1.569.58Z" transform="translate(-2494.61 -2819.767)" fill="#fff"/>
            <path id="패스_554" data-name="패스 554" d="M2497.507,2822.221a2.621,2.621,0,0,1,.295-.039.583.583,0,0,0-.26-.035c.015-.109.08-.111.09-.229-.077.052-.075.152-.159.174-.048.015-.2-.06-.249-.072a.347.347,0,0,1,.229.11,1.01,1.01,0,0,1-.18.151c.2-.025.25-.167.369.068a.713.713,0,0,1-.11-.153" transform="translate(-2495.48 -2820.483)" fill="#fff"/>
          </g>
          <g id="그룹_315" data-name="그룹 315" transform="translate(15.848 0.274)">
            <path id="패스_555" data-name="패스 555" d="M2499.779,2808.06a1.79,1.79,0,0,0,1.634,1.032,1.186,1.186,0,0,0-.64.9,1.452,1.452,0,0,0,.17,1.178,1.557,1.557,0,0,0,1.017-1.773c.8.307,1.094.4,1.871-.17-.227-.616-1.148-.608-1.685-.437a1.6,1.6,0,0,0,.238-1.593s-.786.024-.966,1.276c-.1-.539-1.183-.571-1.67-.4Z" transform="translate(-2499.748 -2807.193)" fill="#fff"/>
            <path id="패스_556" data-name="패스 556" d="M2502.515,2809.69a1.364,1.364,0,0,1,.269.133.613.613,0,0,0-.2-.183c.071-.094.131-.058.2-.163-.094,0-.149.1-.235.07-.048-.013-.128-.172-.17-.218a.373.373,0,0,1,.133.243,1.277,1.277,0,0,1-.24.031c.181.091.313,0,.278.279a.846.846,0,0,1-.007-.206" transform="translate(-2500.589 -2807.904)" fill="#fff"/>
          </g>
        </g>
        <path id="패스_557" data-name="패스 557" d="M2409.3,2867.711s22.328,8.344,26.772,17.065" transform="translate(-2381.638 -2796.458)" fill="none" stroke="#679760" stroke-miterlimit="10" stroke-width="1"/>
        <path id="패스_558" data-name="패스 558" d="M2421.547,2805.717s24.852,40.649,24.854,66.9" transform="translate(-2385.716 -2775.822)" fill="none" stroke="#679760" stroke-miterlimit="10" stroke-width="1"/>
        <path id="패스_559" data-name="패스 559" d="M2469.986,2834.949s-.739,23.2-3.785,33.491" transform="translate(-2400.58 -2785.552)" fill="none" stroke="#679760" stroke-miterlimit="10" stroke-width="1"/>
        <line id="선_2" data-name="선 2" x2="12.426" y2="13.165" transform="translate(42.499 57.297)" fill="none" stroke="#679760" stroke-miterlimit="10" stroke-width="1"/>
        <path id="패스_560" data-name="패스 560" d="M2388.548,2838.147c-4.16,5.73-3.222,13.508,2.1,17.375s13.006,2.355,17.169-3.37,3.222-13.509-2.1-17.375S2392.714,2832.42,2388.548,2838.147Z" transform="translate(-2373.867 -2784.782)" fill="#d6385b"/>
        <path id="패스_561" data-name="패스 561" d="M2375.85,2848.712c-3.231,7.387-.959,15.514,5.07,18.148s13.53-1.226,16.754-8.615.959-15.51-5.068-18.141S2379.079,2841.323,2375.85,2848.712Z" transform="translate(-2370.015 -2786.992)" fill="#d42a3f"/>
        <path id="패스_562" data-name="패스 562" d="M2369.541,2840.776c-3.231,7.388-.96,15.512,5.068,18.144s13.533-1.218,16.76-8.609.955-15.515-5.069-18.146S2372.771,2833.387,2369.541,2840.776Z" transform="translate(-2367.915 -2784.35)" fill="#d6385b"/>
        <path id="패스_563" data-name="패스 563" d="M2375.825,2851.579c-.694-5.621,4.156-10.848,10.83-11.671s12.647,3.061,13.341,8.686-4.152,10.843-10.827,11.667S2376.518,2857.2,2375.825,2851.579Z" transform="translate(-2370.474 -2787.167)" fill="#d5284b"/>
        <path id="패스_564" data-name="패스 564" d="M2388.208,2855.1c-.248-1.032,1.269-2.281,3.387-2.793s4.04-.083,4.289.952-1.268,2.282-3.39,2.792S2388.457,2856.131,2388.208,2855.1Z" transform="translate(-2374.609 -2791.259)" fill="#dfd5a8"/>
        <path id="패스_565" data-name="패스 565" d="M2394.315,2771.608c-2.636,8,1.245,16.463,8.67,18.916s15.582-2.045,18.22-10.038-1.244-16.465-8.666-18.911S2396.957,2763.615,2394.315,2771.608Z" transform="translate(-2376.376 -2760.906)" fill="#d74072"/>
        <path id="패스_566" data-name="패스 566" d="M2384.188,2788.007c-.98,9.535,4.535,17.916,12.316,18.719s14.88-6.29,15.853-15.827-4.533-17.909-12.312-18.708S2385.168,2778.471,2384.188,2788.007Z" transform="translate(-2373.242 -2764.641)" fill="#cf2b60"/>
        <path id="패스_567" data-name="패스 567" d="M2374.173,2781.309c-.983,9.534,4.531,17.913,12.311,18.711s14.879-6.284,15.861-15.822-4.538-17.913-12.315-18.706S2375.15,2771.77,2374.173,2781.309Z" transform="translate(-2369.908 -2762.412)" fill="#cf2b60"/>
        <path id="패스_568" data-name="패스 568" d="M2384.41,2791.437c-2.825-6.114.773-13.788,8.032-17.137s15.435-1.116,18.254,5-.774,13.783-8.033,17.135S2387.229,2797.553,2384.41,2791.437Z" transform="translate(-2373.033 -2764.846)" fill="#d74072"/>
        <path id="패스_569" data-name="패스 569" d="M2398.375,2792.577c-.656-1.083.648-3.068,2.9-4.436s4.619-1.606,5.279-.53-.648,3.069-2.907,4.438S2399.031,2793.656,2398.375,2792.577Z" transform="translate(-2377.946 -2769.57)" fill="#dfd5a8"/>
        <path id="패스_570" data-name="패스 570" d="M2460.408,2798.676c-6.139,4.38-7.822,12.55-3.754,18.254s12.336,6.775,18.474,2.4,7.821-12.555,3.757-18.251S2466.549,2794.3,2460.408,2798.676Z" transform="translate(-2396.663 -2772.583)" fill="#d43460"/>
        <path id="패스_571" data-name="패스 571" d="M2443.451,2805.271c-5.759,6.366-6.209,15.34-1.019,20.038s14.077,3.339,19.835-3.033,6.209-15.334,1.015-20.031S2449.211,2798.9,2443.451,2805.271Z" transform="translate(-2391.464 -2773.734)" fill="#d24468"/>
        <path id="패스_572" data-name="패스 572" d="M2439.765,2795.124c-5.762,6.369-6.213,15.338-1.018,20.035s14.076,3.342,19.835-3.029,6.209-15.34,1.014-20.033S2445.526,2788.753,2439.765,2795.124Z" transform="translate(-2390.237 -2770.356)" fill="#d6385b"/>
        <path id="패스_573" data-name="패스 573" d="M2443.943,2811.181c-1.192-5.914,3.536-11.852,10.555-13.264s13.679,2.235,14.87,8.147-3.539,11.847-10.561,13.26S2445.129,2817.093,2443.943,2811.181Z" transform="translate(-2393.109 -2773.125)" fill="#d5284b"/>
        <path id="패스_574" data-name="패스 574" d="M2457.161,2814.518c.1-1.129,1.839-1.895,3.883-1.716s3.626,1.239,3.529,2.366-1.841,1.893-3.886,1.715S2457.062,2815.645,2457.161,2814.518Z" transform="translate(-2397.569 -2778.172)" fill="#dfd5a8"/>
        <path id="패스_575" data-name="패스 575" d="M2483.026,2825.932l-4.249,70.423-46.31-14.056Z" transform="translate(-2389.35 -2782.551)" fill="#b1ccbd"/>
        <path id="패스_576" data-name="패스 576" d="M2367.837,2878.5l87.572,87.382,4.071-79.115S2428.144,2896.343,2367.837,2878.5Z" transform="translate(-2367.837 -2800.05)" fill="#b7d4c6"/>
        <path id="패스_577" data-name="패스 577" d="M2399.624,2885.366s14.447-6.11,23.345-6.57C2422.969,2878.8,2409.432,2867.1,2399.624,2885.366Z" transform="translate(-2378.418 -2798.921)" fill="#679760" stroke="#679760" stroke-miterlimit="10" stroke-width="1"/>
        <path id="패스_578" data-name="패스 578" d="M2454.226,2870.713s8.634-18.465,16.822-26.65C2471.047,2844.063,2447.814,2844.551,2454.226,2870.713Z" transform="translate(-2396.221 -2788.586)" fill="#679760" stroke="#679760" stroke-miterlimit="10" stroke-width="1"/>
        <path id="패스_579" data-name="패스 579" d="M2429.1,2813.722s3.5-10.354,7.515-14.959C2436.62,2798.763,2423.538,2799.095,2429.1,2813.722Z" transform="translate(-2387.772 -2773.507)" fill="#679760" stroke="#679760" stroke-miterlimit="10" stroke-width="1"/>
        <path id="패스_580" data-name="패스 580" d="M2404.786,2827.474s14.572,1.66,22.29,5.1C2427.076,2832.574,2420.06,2818.245,2404.786,2827.474Z" transform="translate(-2380.136 -2782.033)" fill="#679760" stroke="#679760" stroke-miterlimit="10" stroke-width="1"/>
        <g id="그룹_326" data-name="그룹 326" transform="translate(28.044 41.641)">
          <g id="그룹_317" data-name="그룹 317" transform="translate(0 12.299)">
            <path id="패스_581" data-name="패스 581" d="M2412.289,2848.467a3.167,3.167,0,0,0,.6-3.028,1.548,1.548,0,0,0,1.509.434,2.132,2.132,0,0,0,1.5-.929,2.039,2.039,0,0,0-2.873-.5c.026-1.366.014-1.865-1.133-2.687-.71.7-.262,2.059.226,2.758a2.171,2.171,0,0,0-2.25.574s.411,1.149,2.181.7c-.678.458-.2,2.093.262,2.714Z" transform="translate(-2409.874 -2841.759)" fill="#fff"/>
            <path id="패스_582" data-name="패스 582" d="M2413.765,2846.555a2.683,2.683,0,0,1,.053-.481.982.982,0,0,0-.153.4c-.16-.056-.14-.16-.312-.209.046.138.205.167.206.311,0,.078-.17.294-.209.38a.568.568,0,0,1,.259-.336,1.566,1.566,0,0,1,.153.34c.038-.328-.156-.465.246-.577a1.391,1.391,0,0,1-.275.13" transform="translate(-2411.031 -2843.195)" fill="#fff"/>
          </g>
          <g id="그룹_318" data-name="그룹 318" transform="translate(4.442 17.722)">
            <path id="패스_583" data-name="패스 583" d="M2416.533,2854.017a2.31,2.31,0,0,0,1.949-1.4,1.413,1.413,0,0,0,.642,1.15,1.65,1.65,0,0,0,1.36.35,1.793,1.793,0,0,0-1.4-1.992c.735-.779.993-1.079.768-2.234-.779-.018-1.246,1.04-1.329,1.739a1.777,1.777,0,0,0-1.6-1.009s-.369.912.891,1.7c-.638-.134-1.223,1.1-1.284,1.734Z" transform="translate(-2416.533 -2849.889)" fill="#fff"/>
            <path id="패스_584" data-name="패스 584" d="M2419.241,2853.238a2.578,2.578,0,0,1,.283-.248.7.7,0,0,0-.3.141c-.064-.121,0-.175-.072-.3-.048.109.028.217-.043.3-.044.05-.252.07-.321.1a.433.433,0,0,1,.327-.045,1.465,1.465,0,0,1-.09.29c.194-.166.153-.36.446-.186a1.164,1.164,0,0,1-.229-.087" transform="translate(-2417.284 -2850.867)" fill="#fff"/>
          </g>
          <g id="그룹_319" data-name="그룹 319" transform="translate(8.585 15.968)">
            <path id="패스_585" data-name="패스 585" d="M2422.763,2849.87a2.314,2.314,0,0,0,2.485.126,1.555,1.555,0,0,0-.152,1.407,1.908,1.908,0,0,0,.936,1.215,2.007,2.007,0,0,0,.021-2.63c1.087-.162,1.477-.24,1.988-1.372-.645-.541-1.675.044-2.164.572a2.054,2.054,0,0,0-.742-1.928s-.862.525-.273,2.039c-.453-.542-1.687.105-2.12.6Z" transform="translate(-2422.742 -2847.259)" fill="#fff"/>
            <path id="패스_586" data-name="패스 586" d="M2426.636,2850.722a2.4,2.4,0,0,1,.391-.022.7.7,0,0,0-.34-.08c.023-.149.111-.146.126-.3-.1.057-.106.2-.22.223-.063.011-.251-.113-.325-.136a.5.5,0,0,1,.3.187,1.161,1.161,0,0,1-.249.181c.262-.008.347-.2.488.144a1.489,1.489,0,0,1-.143-.228" transform="translate(-2423.916 -2848.277)" fill="#fff"/>
          </g>
          <g id="그룹_320" data-name="그룹 320" transform="translate(14.213 4.02)">
            <path id="패스_587" data-name="패스 587" d="M2433.589,2836.055a3.159,3.159,0,0,0,.607-3.029,1.558,1.558,0,0,0,1.508.438,2.136,2.136,0,0,0,1.5-.933,2.042,2.042,0,0,0-2.871-.495c.028-1.368.014-1.861-1.128-2.685-.719.693-.263,2.06.222,2.753a2.173,2.173,0,0,0-2.25.573s.406,1.15,2.175.7c-.677.462-.2,2.095.263,2.715Z" transform="translate(-2431.179 -2829.35)" fill="#fff"/>
            <path id="패스_588" data-name="패스 588" d="M2435.063,2834.139a2.954,2.954,0,0,1,.058-.48.928.928,0,0,0-.156.405c-.157-.055-.143-.164-.308-.212.042.137.2.169.2.308,0,.084-.17.3-.212.382a.6.6,0,0,1,.261-.336,1.562,1.562,0,0,1,.153.339c.042-.324-.155-.464.248-.573a1.18,1.18,0,0,1-.276.126" transform="translate(-2432.334 -2830.784)" fill="#fff"/>
          </g>
          <g id="그룹_321" data-name="그룹 321" transform="translate(7.979 9.077)">
            <path id="패스_589" data-name="패스 589" d="M2421.836,2841.059a2.289,2.289,0,0,0,1.942-1.4,1.413,1.413,0,0,0,.644,1.149,1.659,1.659,0,0,0,1.359.348,1.789,1.789,0,0,0-1.394-1.993,2,2,0,0,0,.767-2.234c-.778-.019-1.242,1.044-1.327,1.735a1.781,1.781,0,0,0-1.6-1s-.372.913.89,1.7c-.636-.135-1.222,1.1-1.283,1.732Z" transform="translate(-2421.834 -2836.93)" fill="#fff"/>
            <path id="패스_590" data-name="패스 590" d="M2424.537,2840.281a2.3,2.3,0,0,1,.284-.246.719.719,0,0,0-.3.139c-.063-.123,0-.175-.069-.305-.045.106.027.216-.047.3-.041.048-.252.07-.321.1a.443.443,0,0,1,.329-.043,1.438,1.438,0,0,1-.093.288c.195-.162.158-.36.446-.183a1.308,1.308,0,0,1-.227-.093" transform="translate(-2422.583 -2837.908)" fill="#fff"/>
          </g>
          <g id="그룹_322" data-name="그룹 322" transform="translate(2.871 7.573)">
            <path id="패스_591" data-name="패스 591" d="M2414.2,2837.439a2.189,2.189,0,0,0,2.34-.214,1.46,1.46,0,0,0,.029,1.334,1.762,1.762,0,0,0,1.019,1.011,1.884,1.884,0,0,0-.293-2.464c1-.294,1.359-.426,1.7-1.553-.669-.421-1.56.266-1.957.829a1.91,1.91,0,0,0-.929-1.705s-.744.6-.01,1.946c-.49-.45-1.572.327-1.919.85Z" transform="translate(-2414.177 -2834.676)" fill="#fff"/>
            <path id="패스_592" data-name="패스 592" d="M2417.78,2837.835a2.019,2.019,0,0,1,.359-.068.652.652,0,0,0-.329-.033c.006-.14.088-.151.085-.3-.088.068-.077.2-.18.237-.056.018-.249-.066-.324-.084a.456.456,0,0,1,.307.138,1.248,1.248,0,0,1-.212.2c.244-.044.3-.236.474.07a1.17,1.17,0,0,1-.157-.2" transform="translate(-2415.246 -2835.594)" fill="#fff"/>
          </g>
          <g id="그룹_323" data-name="그룹 323" transform="translate(6.748 2.321)">
            <path id="패스_593" data-name="패스 593" d="M2419.994,2830.687a2.294,2.294,0,0,0,2.033-1.255,1.413,1.413,0,0,0,.563,1.192,1.646,1.646,0,0,0,1.333.441,1.8,1.8,0,0,0-1.264-2.088c.789-.721,1.055-1,.91-2.17-.777-.074-1.309.949-1.437,1.637a1.776,1.776,0,0,0-1.531-1.114s-.428.88.776,1.755c-.623-.179-1.284,1.01-1.388,1.639Z" transform="translate(-2419.989 -2826.803)" fill="#fff"/>
            <path id="패스_594" data-name="패스 594" d="M2422.862,2830a1.669,1.669,0,0,1,.3-.225.6.6,0,0,0-.31.119c-.056-.13.018-.181-.048-.311-.053.105.013.217-.066.3-.045.044-.259.051-.323.075a.435.435,0,0,1,.329-.022,1.338,1.338,0,0,1-.111.283c.2-.15.18-.352.454-.152a1.222,1.222,0,0,1-.219-.1" transform="translate(-2420.796 -2827.729)" fill="#fff"/>
          </g>
          <g id="그룹_324" data-name="그룹 324" transform="translate(12.946 11.607)">
            <path id="패스_595" data-name="패스 595" d="M2429.286,2844.609a2.284,2.284,0,0,0,2.031-1.259,1.405,1.405,0,0,0,.567,1.191,1.66,1.66,0,0,0,1.332.444,1.806,1.806,0,0,0-1.263-2.085c.784-.724,1.053-1,.905-2.173-.776-.076-1.307.95-1.434,1.635a1.8,1.8,0,0,0-1.534-1.117s-.426.885.776,1.76c-.62-.177-1.286,1.01-1.387,1.636Z" transform="translate(-2429.279 -2840.723)" fill="#fff"/>
            <path id="패스_596" data-name="패스 596" d="M2432.149,2843.92a2.842,2.842,0,0,1,.3-.23.823.823,0,0,0-.313.122c-.055-.129.02-.173-.047-.308-.053.1.015.217-.064.294-.046.048-.257.054-.327.077a.436.436,0,0,1,.328-.023,1.309,1.309,0,0,1-.107.281c.2-.149.177-.345.458-.151a1.087,1.087,0,0,1-.221-.1" transform="translate(-2430.086 -2841.649)" fill="#fff"/>
          </g>
          <g id="그룹_325" data-name="그룹 325" transform="translate(10.739)">
            <path id="패스_597" data-name="패스 597" d="M2426,2825.936a2.307,2.307,0,0,0,2.481.123,1.564,1.564,0,0,0-.151,1.408,1.885,1.885,0,0,0,.937,1.214,2,2,0,0,0,.02-2.63c1.087-.159,1.48-.243,1.987-1.372-.643-.544-1.671.044-2.162.572a2.053,2.053,0,0,0-.743-1.929s-.859.521-.275,2.037c-.45-.543-1.684.1-2.119.6Z" transform="translate(-2425.971 -2823.324)" fill="#fff"/>
            <path id="패스_598" data-name="패스 598" d="M2429.871,2826.781a2.277,2.277,0,0,1,.389-.02.8.8,0,0,0-.341-.08c.019-.147.109-.148.125-.309-.1.062-.107.2-.219.226-.061.012-.254-.111-.33-.135a.462.462,0,0,1,.3.183,1.322,1.322,0,0,1-.249.189c.26-.012.347-.2.487.141a1.336,1.336,0,0,1-.136-.229" transform="translate(-2427.144 -2824.339)" fill="#fff"/>
          </g>
        </g>
      </g>
      <path id="패스_599" data-name="패스 599" d="M2309.472,2894.429a7.575,7.575,0,0,0,.938,2.951,1.488,1.488,0,1,1,0,2.806,7.513,7.513,0,0,0-.937,2.955,6.272,6.272,0,0,0-.941-2.955,2.853,2.853,0,0,0-1.982-1.4,2.934,2.934,0,0,0,1.982-1.405A6.45,6.45,0,0,0,2309.472,2894.429Z" transform="translate(-22.117 -52.705)" fill="none" stroke="#fcfcfc" stroke-linejoin="round" stroke-width="1"/>
      <path id="패스_600" data-name="패스 600" d="M2567.845,2736.1a12.768,12.768,0,0,0,1.576,4.949,5.883,5.883,0,0,0,3.323,2.354,5.821,5.821,0,0,0-3.323,2.354,12.6,12.6,0,0,0-1.576,4.95,10.457,10.457,0,0,0-1.579-4.95,4.767,4.767,0,0,0-3.321-2.354,4.912,4.912,0,0,0,3.321-2.354A10.763,10.763,0,0,0,2567.845,2736.1Z" transform="translate(-107.464 0)" fill="none" stroke="#fcfcfc" stroke-linejoin="round" stroke-width="1"/>
      <path id="패스_601" data-name="패스 601" d="M2614.813,2789.87a8.617,8.617,0,0,0,1.06,3.338,3.98,3.98,0,0,0,2.242,1.587,3.925,3.925,0,0,0-2.242,1.585,8.48,8.48,0,0,0-1.06,3.337,7.06,7.06,0,0,0-1.065-3.337,3.217,3.217,0,0,0-2.24-1.585,3.314,3.314,0,0,0,2.24-1.587A7.266,7.266,0,0,0,2614.813,2789.87Z" transform="translate(-123.629 -17.9)" fill="none" stroke="#fcfcfc" stroke-linejoin="round" stroke-width="1"/>
      <path id="패스_602" data-name="패스 602" d="M2303.725,2814.672a15.826,15.826,0,0,0,1.952,6.134,7.3,7.3,0,0,0,4.116,2.916,7.213,7.213,0,0,0-4.116,2.914,15.622,15.622,0,0,0-1.952,6.134,12.962,12.962,0,0,0-1.956-6.134c-1.864-2.782-4.114-2.914-4.114-2.914a6.094,6.094,0,0,0,4.114-2.916A13.342,13.342,0,0,0,2303.725,2814.672Z" transform="translate(-19.156 -26.156)" fill="none" stroke="#fcfcfc" stroke-linejoin="round" stroke-width="1"/>
      <path id="패스_603" data-name="패스 603" d="M2332.123,2864.232a7.844,7.844,0,0,0,.964,3.034,1.527,1.527,0,1,1,0,2.881,7.7,7.7,0,0,0-.964,3.034,6.4,6.4,0,0,0-.966-3.034,2.925,2.925,0,0,0-2.035-1.442,3.01,3.01,0,0,0,2.035-1.438A6.6,6.6,0,0,0,2332.123,2864.232Z" transform="translate(-29.631 -42.653)" fill="none" stroke="#fcfcfc" stroke-linejoin="round" stroke-width="1"/>
      <path id="패스_604" data-name="패스 604" d="M2581.7,2820.452a6.344,6.344,0,0,0,.782,2.46,1.241,1.241,0,1,1,0,2.34,6.275,6.275,0,0,0-.782,2.463,5.19,5.19,0,0,0-.784-2.463,2.373,2.373,0,0,0-1.652-1.171,2.443,2.443,0,0,0,1.652-1.168A5.343,5.343,0,0,0,2581.7,2820.452Z" transform="translate(-112.897 -28.08)" fill="none" stroke="#fcfcfc" stroke-linejoin="round" stroke-width="1"/>
      <path id="패스_605" data-name="패스 605" d="M2528.081,2875.412a7.823,7.823,0,0,0,.962,3.029,1.525,1.525,0,1,1,0,2.876,7.7,7.7,0,0,0-.962,3.029,6.391,6.391,0,0,0-.964-3.029,2.923,2.923,0,0,0-2.032-1.44,3.006,3.006,0,0,0,2.032-1.436A6.6,6.6,0,0,0,2528.081,2875.412Z" transform="translate(-94.861 -46.375)" fill="none" stroke="#fcfcfc" stroke-linejoin="round" stroke-width="1"/>
      <path id="패스_606" data-name="패스 606" d="M2540.095,2799.886a7.228,7.228,0,0,0,.89,2.8,1.41,1.41,0,1,1,0,2.66,7.126,7.126,0,0,0-.89,2.8,5.906,5.906,0,0,0-.891-2.8,2.7,2.7,0,0,0-1.88-1.332,2.781,2.781,0,0,0,1.88-1.329A6.087,6.087,0,0,0,2540.095,2799.886Z" transform="translate(-98.935 -21.234)" fill="none" stroke="#fcfcfc" stroke-linejoin="round" stroke-width="1"/>
      <path id="패스_607" data-name="패스 607" d="M2314.061,2747.042a6.222,6.222,0,0,0,.764,2.4,2.86,2.86,0,0,0,1.613,1.142,2.823,2.823,0,0,0-1.613,1.14,6.118,6.118,0,0,0-.764,2.4,5.09,5.09,0,0,0-.765-2.4,2.32,2.32,0,0,0-1.612-1.14,2.4,2.4,0,0,0,1.612-1.142A5.244,5.244,0,0,0,2314.061,2747.042Z" transform="translate(-23.826 -3.644)" fill="none" stroke="#fcfcfc" stroke-linejoin="round" stroke-width="1"/>
      <path id="패스_608" data-name="패스 608" d="M2278.923,2770.848a7.127,7.127,0,0,0,.878,2.768,1.394,1.394,0,1,1,0,2.628,7.032,7.032,0,0,0-.878,2.769,5.855,5.855,0,0,0-.883-2.769,2.671,2.671,0,0,0-1.857-1.316,2.746,2.746,0,0,0,1.857-1.312A6.024,6.024,0,0,0,2278.923,2770.848Z" transform="translate(-12.009 -11.568)" fill="none" stroke="#fcfcfc" stroke-linejoin="round" stroke-width="1"/>
      <path id="패스_609" data-name="패스 609" d="M2361.01,2917.245a2.963,2.963,0,0,0-1.494-1.747,2.68,2.68,0,0,0-1.206-.289,2.758,2.758,0,0,1-4.928,0,2.665,2.665,0,0,0-1.208.29,2.949,2.949,0,0,0-1.489,1.744,4.143,4.143,0,0,0,.431,3.248c.8,1.543,2.023,2.708,4.637,4.9a.146.146,0,0,0,.1.035.141.141,0,0,0,.095-.036c2.612-2.191,3.833-3.356,4.637-4.9A4.144,4.144,0,0,0,2361.01,2917.245Z" transform="translate(-40.967 -57.416)" fill="#d24468"/>
    </g>
  </g>
</svg>
