<svg xmlns="http://www.w3.org/2000/svg" width="90" height="54" viewBox="0 0 90 54">
  <g id="thumb03" transform="translate(-344 -330)">
    <rect id="사각형_6" data-name="사각형 6" width="90" height="54" rx="8" transform="translate(344 330)" fill="#c9eaf2"/>
    <g id="그룹_353" data-name="그룹 353" transform="translate(360.2 334.785)">
      <g id="그룹_355" data-name="그룹 355" transform="translate(12.967 7.836)">
        <g id="그룹_346" data-name="그룹 346">
          <path id="패스_620" data-name="패스 620" d="M3318.762,2821.469c0,.249-1.061,22.461-1.061,22.461a2.312,2.312,0,0,0,2.463.083l-.964-22.614Z" transform="translate(-3300.835 -2816.243)" fill="#9adb45"/>
          <g id="그룹_345" data-name="그룹 345">
            <g id="그룹_344" data-name="그룹 344">
              <g id="그룹_341" data-name="그룹 341" transform="translate(18.714)">
                <g id="그룹_340" data-name="그룹 340">
                  <path id="패스_621" data-name="패스 621" d="M3325.622,2779.479l0,0v0h0l0,0c.077-.043.179-.379.213-.449a31.187,31.187,0,0,1,7.082-10.061c1.651-1.445,3.752-2.606,5.892-2.341a5.807,5.807,0,0,1,5.158,5.724c.121,4.492-4.715,6.43-9.008,7.022a38.221,38.221,0,0,1-6.361.294q-1.07-.032-2.128-.111A2.884,2.884,0,0,0,3325.622,2779.479Z" transform="translate(-3325.615 -2766.588)" fill="#9adb45"/>
                </g>
              </g>
              <g id="그룹_343" data-name="그룹 343" transform="translate(0 1.177)">
                <g id="그룹_342" data-name="그룹 342">
                  <path id="패스_622" data-name="패스 622" d="M3264.434,2783.4l.005,0,0,0h0l-.005,0c-.081-.036-.213-.361-.253-.427a31.291,31.291,0,0,0-8-9.367c-1.78-1.287-3.982-2.25-6.087-1.79a5.791,5.791,0,0,0-4.6,6.172c.3,4.483,5.3,5.969,9.631,6.165a38.249,38.249,0,0,0,6.362-.292c.708-.086,1.411-.187,2.107-.306C3263.729,2783.526,3264.3,2783.334,3264.434,2783.4Z" transform="translate(-3245.484 -2771.692)" fill="#9adb45"/>
                </g>
              </g>
            </g>
            <line id="선_3" data-name="선 3" x2="18.335" y2="8.326" transform="translate(0.621 4.557)" fill="none" stroke="#b8e880" stroke-miterlimit="10" stroke-width="4"/>
            <line id="선_4" data-name="선 4" y1="10.546" x2="17.042" transform="translate(18.721 2.346)" fill="none" stroke="#b8e880" stroke-miterlimit="10" stroke-width="4"/>
          </g>
        </g>
        <g id="그룹_347" data-name="그룹 347" transform="translate(9.717 17.92)">
          <path id="패스_623" data-name="패스 623" d="M3306.1,2901.913h-11.46l-1.685-17.638h14.83Z" transform="translate(-3291.588 -2882.54)" fill="#efede6"/>
          <rect id="사각형_18" data-name="사각형 18" width="17.571" height="2.892" fill="#fff"/>
        </g>
      </g>
      <path id="패스_624" data-name="패스 624" d="M3310.53,2840.935a.335.335,0,0,1,.1.128" transform="translate(-3281.911 -2819.5)" fill="none" stroke="#000" stroke-linecap="round" stroke-linejoin="round" stroke-width="1"/>
      <g id="그룹_349" data-name="그룹 349" transform="translate(47.544 20.971)">
        <g id="그룹_348" data-name="그룹 348">
          <path id="패스_625" data-name="패스 625" d="M3419.064,2841.133l.157.7a.406.406,0,0,0,.31.306l.71.154a.4.4,0,0,1,0,.786l-.71.155a.4.4,0,0,0-.31.306l-.157.7a.409.409,0,0,1-.8,0l-.157-.7a.4.4,0,0,0-.31-.306l-.71-.155a.4.4,0,0,1,0-.786l.71-.154a.407.407,0,0,0,.31-.306l.157-.7a.408.408,0,0,1,.8,0" transform="translate(-3410.886 -2840.818)" fill="#fff"/>
          <path id="패스_626" data-name="패스 626" d="M3393.28,2859.858a.857.857,0,1,1-.856-.846A.851.851,0,0,1,3393.28,2859.858Z" transform="translate(-3391.566 -2854.816)" fill="#fff"/>
        </g>
      </g>
      <g id="그룹_356" data-name="그룹 356" transform="translate(26.857)">
        <path id="패스_627" data-name="패스 627" d="M3325.885,2736.039a1.8,1.8,0,0,1-3.6,0c0-.981,1.8-3,1.8-3S3325.885,2735.059,3325.885,2736.039Z" transform="translate(-3317.779 -2732.905)" fill="#69cfe0"/>
        <path id="패스_628" data-name="패스 628" d="M3321.928,2771.383a1.561,1.561,0,0,1-3.121,0c0-.851,1.561-2.6,1.561-2.6S3321.928,2770.532,3321.928,2771.383Z" transform="translate(-3315.112 -2760.403)" fill="#69cfe0"/>
        <path id="패스_629" data-name="패스 629" d="M3304.4,2734.121a.7.7,0,0,1-.879.729c-.462-.149-.563-.427-.528-.905.068-.929,1.786-1.5,1.786-1.5A3.549,3.549,0,0,0,3304.4,2734.121Z" transform="translate(-3302.983 -2732.444)" fill="#69cfe0"/>
      </g>
      <path id="패스_630" data-name="패스 630" d="M3451.253,2760.281l.272,1.219a.707.707,0,0,0,.54.532l1.235.269a.7.7,0,0,1,0,1.367l-1.235.268a.706.706,0,0,0-.54.533l-.272,1.219a.711.711,0,0,1-1.384,0l-.273-1.219a.7.7,0,0,0-.539-.533l-1.236-.268a.7.7,0,0,1,0-1.367l1.236-.269a.706.706,0,0,0,.539-.532l.273-1.219a.711.711,0,0,1,1.384,0" transform="translate(-3386.713 -2753.439)" fill="#fff"/>
      <path id="패스_631" data-name="패스 631" d="M3483.128,2793.583a.857.857,0,1,1-.857-.847A.851.851,0,0,1,3483.128,2793.583Z" transform="translate(-3412.886 -2780.885)" fill="#fff"/>
      <g id="그룹_350" data-name="그룹 350" transform="translate(46.688 2.752)">
        <path id="패스_632" data-name="패스 632" d="M3389.611,2745.226a.857.857,0,1,1-.857-.846A.852.852,0,0,1,3389.611,2745.226Z" transform="translate(-3387.897 -2744.38)" fill="#fff"/>
      </g>
      <g id="그룹_351" data-name="그룹 351" transform="translate(0.56 11.437)">
        <path id="패스_633" data-name="패스 633" d="M3193.5,2792.359l.213.952a.55.55,0,0,0,.421.416l.965.21a.546.546,0,0,1,0,1.068l-.965.21a.549.549,0,0,0-.421.416l-.213.952a.555.555,0,0,1-1.081,0l-.213-.952a.549.549,0,0,0-.421-.416l-.965-.21a.546.546,0,0,1,0-1.068l.965-.21a.55.55,0,0,0,.421-.416l.213-.952a.555.555,0,0,1,1.081,0" transform="translate(-3190.384 -2791.931)" fill="#fff"/>
        <path id="패스_634" data-name="패스 634" d="M3215.556,2818.973a.669.669,0,1,1-.669-.661A.665.665,0,0,1,3215.556,2818.973Z" transform="translate(-3208.651 -2812.229)" fill="#fff"/>
      </g>
      <g id="그룹_352" data-name="그룹 352" transform="translate(0 25.373)">
        <path id="패스_635" data-name="패스 635" d="M3189.882,2866.61l.129.58a.337.337,0,0,0,.257.253l.587.128a.332.332,0,0,1,0,.65l-.587.128a.336.336,0,0,0-.257.253l-.129.58a.338.338,0,0,1-.659,0l-.13-.58a.335.335,0,0,0-.256-.253l-.588-.128a.332.332,0,0,1,0-.65l.588-.128a.337.337,0,0,0,.256-.253l.13-.58a.338.338,0,0,1,.659,0" transform="translate(-3187.986 -2866.349)" fill="#fff"/>
        <path id="패스_636" data-name="패스 636" d="M3233.126,2906.666a.669.669,0,1,1-.669-.661A.665.665,0,0,1,3233.126,2906.666Z" transform="translate(-3221.558 -2896.861)" fill="#fff"/>
      </g>
    </g>
  </g>
</svg>
