<svg xmlns="http://www.w3.org/2000/svg" width="90" height="54" viewBox="0 0 90 54">
  <g id="thumb04" transform="translate(-507 -330)">
    <rect id="사각형_7" data-name="사각형 7" width="90" height="54" rx="8" transform="translate(507 330)" fill="#fbc6c6"/>
    <g id="그룹_328" data-name="그룹 328" transform="translate(515.764 337.325)">
      <path id="패스_502" data-name="패스 502" d="M2503.686,2756.263a1.121,1.121,0,0,0-.071-.876,1.027,1.027,0,0,0-.312-.36,1.11,1.11,0,0,0-1.116-.083,1.077,1.077,0,0,0-.427-1.022,1.037,1.037,0,0,0-.444-.182,1.151,1.151,0,0,0-.863.2,1.579,1.579,0,0,0-.6,1.1,6.423,6.423,0,0,0,.338,2.556.054.054,0,0,0,.022.032.052.052,0,0,0,.038.01,6.64,6.64,0,0,0,2.565-.474A1.592,1.592,0,0,0,2503.686,2756.263Z" transform="translate(-2452.903 -2752.48)" fill="#d5284b"/>
      <path id="패스_503" data-name="패스 503" d="M2244.958,2844.146a1.459,1.459,0,0,0-.957-.6,1.328,1.328,0,0,0-.609.039,1.385,1.385,0,0,0-.936,1.059,1.409,1.409,0,0,0-1.38-.35,1.328,1.328,0,0,0-.526.308,1.426,1.426,0,0,0-.445,1.023,2,2,0,0,0,.676,1.445,8.378,8.378,0,0,0,2.893,1.606.072.072,0,0,0,.09-.027,8.224,8.224,0,0,0,1.465-2.941A1.993,1.993,0,0,0,2244.958,2844.146Z" transform="translate(-2240.106 -2824.6)" fill="#d74072"/>
      <g id="그룹_327" data-name="그룹 327" transform="translate(23.01 2.518)">
        <path id="패스_504" data-name="패스 504" d="M2368.061,2782.949s2.734-16.69,7.6-22c0,0,12.207,4.907,18.555,11.891-.057,2.333-5.167,20.686-5.167,20.686Z" transform="translate(-2368.019 -2760.938)" fill="#a8c4b6"/>
        <g id="그룹_302" data-name="그룹 302" transform="translate(12.613 2.411)">
          <g id="그룹_289" data-name="그룹 289" transform="translate(2.453)">
            <path id="패스_505" data-name="패스 505" d="M2447.665,2774.539a.7.7,0,0,0,.678-.047.335.335,0,0,0,0,.341.464.464,0,0,0,.285.262.44.44,0,0,0-.061-.631c.292-.072.4-.1.5-.391-.19-.109-.453.063-.573.206a.472.472,0,0,0-.252-.439s-.22.151-.022.5c-.136-.115-.456.078-.561.211Z" transform="translate(-2447.659 -2773.84)" fill="#fff"/>
            <path id="패스_506" data-name="패스 506" d="M2451.087,2776.471a.707.707,0,0,1,.106-.016.227.227,0,0,0-.095-.009c0-.037.026-.039.026-.077-.026.018-.023.052-.054.061a.372.372,0,0,1-.093-.022.134.134,0,0,1,.087.035.329.329,0,0,1-.064.052c.072-.01.09-.06.137.019a.325.325,0,0,1-.043-.05" transform="translate(-2450.351 -2775.897)" fill="#fff"/>
          </g>
          <g id="그룹_290" data-name="그룹 290" transform="translate(1.523 2.969)">
            <path id="패스_507" data-name="패스 507" d="M2442.734,2790.469a.7.7,0,0,0,.678-.047.335.335,0,0,0-.006.342.466.466,0,0,0,.286.26.438.438,0,0,0-.062-.631c.292-.073.4-.1.505-.39-.19-.111-.454.062-.573.2a.471.471,0,0,0-.252-.439s-.22.152-.022.5c-.137-.115-.455.079-.561.21Z" transform="translate(-2442.728 -2789.77)" fill="#fff"/>
            <path id="패스_508" data-name="패스 508" d="M2446.153,2792.406a.589.589,0,0,1,.105-.017.227.227,0,0,0-.095-.01c0-.035.026-.039.027-.077-.027.017-.024.051-.054.061a.434.434,0,0,1-.093-.023.137.137,0,0,1,.087.036.323.323,0,0,1-.064.051c.072-.01.089-.059.137.02a.316.316,0,0,1-.044-.051" transform="translate(-2445.417 -2791.831)" fill="#fff"/>
          </g>
          <g id="그룹_291" data-name="그룹 291" transform="translate(1.966 1.175)">
            <path id="패스_509" data-name="패스 509" d="M2445.086,2780.258a.507.507,0,0,0,.41.328c-.117.025-.161.111-.207.2a.358.358,0,0,0,.005.306.391.391,0,0,0,.342-.407.444.444,0,0,0,.519.031c-.042-.163-.293-.2-.446-.178a.382.382,0,0,0,.121-.393s-.215-.025-.309.285c-.008-.142-.3-.193-.442-.17Z" transform="translate(-2445.079 -2780.144)" fill="#fff"/>
            <path id="패스_510" data-name="패스 510" d="M2447.429,2781.991a.659.659,0,0,1,.07.045.162.162,0,0,0-.048-.054c.023-.021.038-.009.061-.032-.026,0-.045.018-.066.008s-.03-.049-.04-.062a.1.1,0,0,1,.029.066.319.319,0,0,1-.067,0c.046.031.085.011.065.083a.213.213,0,0,1,0-.052" transform="translate(-2446.936 -2781.57)" fill="#fff"/>
          </g>
          <g id="그룹_292" data-name="그룹 292" transform="translate(1.042 2.106)">
            <path id="패스_511" data-name="패스 511" d="M2440.188,2785.25a.508.508,0,0,0,.412.328c-.12.024-.163.112-.208.2a.352.352,0,0,0,.005.3.39.39,0,0,0,.341-.407.444.444,0,0,0,.519.033c-.042-.165-.294-.2-.446-.178a.382.382,0,0,0,.12-.394s-.215-.025-.309.284c-.008-.142-.305-.194-.444-.171Z" transform="translate(-2440.179 -2785.138)" fill="#fff"/>
            <path id="패스_512" data-name="패스 512" d="M2442.539,2786.982a.378.378,0,0,1,.069.046.144.144,0,0,0-.048-.056c.023-.021.038-.009.061-.032-.026,0-.044.018-.065.007s-.031-.049-.04-.062a.094.094,0,0,1,.028.066.321.321,0,0,1-.067,0c.047.031.085.012.065.083a.286.286,0,0,1,.006-.053" transform="translate(-2442.043 -2786.56)" fill="#fff"/>
          </g>
          <g id="그룹_293" data-name="그룹 293" transform="translate(0.556 0.765)">
            <path id="패스_513" data-name="패스 513" d="M2437.864,2777.946a.471.471,0,0,0,.182.478.325.325,0,0,0-.283.082.387.387,0,0,0-.154.273.416.416,0,0,0,.506-.2c.122.193.169.261.429.267.051-.165-.147-.312-.29-.362a.419.419,0,0,0,.308-.293s-.171-.121-.413.109c.066-.128-.161-.31-.291-.353Z" transform="translate(-2437.609 -2777.944)" fill="#fff"/>
            <path id="패스_514" data-name="패스 514" d="M2440.165,2780.2a.379.379,0,0,1,.037.072.147.147,0,0,0-.013-.071c.031-.009.038.009.069,0-.02-.015-.047-.006-.06-.024s0-.057,0-.073a.093.093,0,0,1-.011.071.362.362,0,0,1-.056-.032c.024.049.068.05.013.1a.281.281,0,0,1,.032-.044" transform="translate(-2439.653 -2779.705)" fill="#fff"/>
          </g>
          <g id="그룹_294" data-name="그룹 294" transform="translate(0 2.466)">
            <path id="패스_515" data-name="패스 515" d="M2434.669,2787.14a.5.5,0,0,0,.385.354c-.119.018-.169.1-.22.187a.356.356,0,0,0-.018.305.4.4,0,0,0,.369-.386.44.44,0,0,0,.515.066c-.03-.167-.278-.219-.431-.206a.387.387,0,0,0,.147-.386s-.212-.038-.327.265c0-.141-.289-.212-.429-.2Z" transform="translate(-2434.661 -2787.073)" fill="#fff"/>
            <path id="패스_516" data-name="패스 516" d="M2436.9,2788.834a.5.5,0,0,1,.065.05.147.147,0,0,0-.043-.058c.024-.018.039-.007.063-.028-.025,0-.045.016-.066,0s-.026-.051-.035-.063a.093.093,0,0,1,.023.067.311.311,0,0,1-.065-.006c.043.035.084.017.059.086a.232.232,0,0,1,.009-.052" transform="translate(-2436.431 -2788.428)" fill="#fff"/>
          </g>
          <g id="그룹_295" data-name="그룹 295" transform="translate(2.517 1.971)">
            <path id="패스_517" data-name="패스 517" d="M2448.388,2784.417a.5.5,0,0,0,.118.528.349.349,0,0,0-.309.049.413.413,0,0,0-.2.266.446.446,0,0,0,.561-.146c.1.219.137.3.406.337.078-.165-.107-.348-.247-.42a.451.451,0,0,0,.366-.266s-.161-.15-.449.06c.089-.126-.12-.348-.251-.41Z" transform="translate(-2447.994 -2784.414)" fill="#fff"/>
            <path id="패스_518" data-name="패스 518" d="M2450.968,2787a.471.471,0,0,1,.026.081.153.153,0,0,0,0-.076c.033,0,.038.015.072.008-.017-.018-.048-.011-.06-.034s.009-.058.01-.075a.1.1,0,0,1-.022.074.29.29,0,0,1-.052-.042c.017.055.062.062,0,.111a.341.341,0,0,1,.04-.043" transform="translate(-2450.381 -2786.437)" fill="#fff"/>
          </g>
          <g id="그룹_296" data-name="그룹 296" transform="translate(5.039 2.504)">
            <path id="패스_519" data-name="패스 519" d="M2461.365,2787.974a.706.706,0,0,0,.678-.047.335.335,0,0,0-.005.342.467.467,0,0,0,.285.261.439.439,0,0,0-.061-.63c.292-.073.4-.1.5-.392-.189-.11-.453.064-.572.206a.473.473,0,0,0-.253-.438s-.22.152-.022.5c-.136-.115-.455.078-.56.211Z" transform="translate(-2461.359 -2787.275)" fill="#fff"/>
            <path id="패스_520" data-name="패스 520" d="M2464.782,2789.906a.592.592,0,0,1,.106-.016.209.209,0,0,0-.095-.009c0-.037.026-.039.027-.078-.027.017-.024.052-.054.061a.535.535,0,0,1-.093-.023.129.129,0,0,1,.087.036.446.446,0,0,1-.064.051c.072-.011.09-.059.138.019a.344.344,0,0,1-.045-.051" transform="translate(-2464.047 -2789.332)" fill="#fff"/>
          </g>
          <g id="그룹_297" data-name="그룹 297" transform="translate(4.006 1.42)">
            <path id="패스_521" data-name="패스 521" d="M2455.9,2781.574a.506.506,0,0,0,.41.328c-.117.025-.16.112-.206.2a.358.358,0,0,0,.005.305.391.391,0,0,0,.342-.407.444.444,0,0,0,.519.033c-.041-.165-.294-.2-.445-.179a.383.383,0,0,0,.119-.393s-.215-.026-.308.283c-.009-.141-.305-.193-.444-.169Z" transform="translate(-2455.887 -2781.462)" fill="#fff"/>
            <path id="패스_522" data-name="패스 522" d="M2458.241,2783.306a.493.493,0,0,1,.068.045.156.156,0,0,0-.047-.055c.023-.02.038-.009.062-.032-.025,0-.045.018-.067.008s-.03-.048-.039-.061a.09.09,0,0,1,.028.066.277.277,0,0,1-.067,0c.047.032.086.012.066.083a.2.2,0,0,1,.006-.053" transform="translate(-2457.747 -2782.885)" fill="#fff"/>
          </g>
          <g id="그룹_298" data-name="그룹 298" transform="translate(4.073 0.299)">
            <path id="패스_523" data-name="패스 523" d="M2456.492,2775.448a.474.474,0,0,0,.182.478.322.322,0,0,0-.281.082.381.381,0,0,0-.156.272.418.418,0,0,0,.507-.2c.121.193.169.261.428.267.05-.165-.147-.312-.29-.363a.416.416,0,0,0,.308-.292s-.172-.121-.413.109c.066-.128-.161-.31-.293-.353Z" transform="translate(-2456.237 -2775.445)" fill="#fff"/>
            <path id="패스_524" data-name="패스 524" d="M2458.795,2777.7a.417.417,0,0,1,.035.072.138.138,0,0,0-.012-.07c.031-.007.038.01.069,0-.019-.014-.047,0-.061-.023a.361.361,0,0,1,0-.073.094.094,0,0,1-.011.072.326.326,0,0,1-.056-.032c.023.049.068.05.013.1a.252.252,0,0,1,.033-.044" transform="translate(-2458.282 -2777.206)" fill="#fff"/>
          </g>
          <g id="그룹_299" data-name="그룹 299" transform="translate(5.422 0.806)">
            <path id="패스_525" data-name="패스 525" d="M2463.393,2778.234a.5.5,0,0,0,.386.353.313.313,0,0,0-.221.187.355.355,0,0,0-.016.306.394.394,0,0,0,.369-.385.44.44,0,0,0,.514.066c-.029-.167-.278-.22-.431-.207a.384.384,0,0,0,.146-.385s-.212-.039-.327.265c0-.141-.289-.212-.429-.2Z" transform="translate(-2463.385 -2778.167)" fill="#fff"/>
            <path id="패스_526" data-name="패스 526" d="M2465.627,2779.924a.407.407,0,0,1,.065.051.144.144,0,0,0-.043-.059c.024-.019.039-.006.063-.027-.026-.006-.045.014-.067,0s-.026-.051-.035-.065a.1.1,0,0,1,.023.068.253.253,0,0,1-.065-.007c.043.035.084.017.059.087a.176.176,0,0,1,.009-.053" transform="translate(-2465.156 -2779.518)" fill="#fff"/>
          </g>
          <g id="그룹_300" data-name="그룹 300" transform="translate(3.811 2.639)">
            <path id="패스_527" data-name="패스 527" d="M2454.859,2788.07a.5.5,0,0,0,.385.354.309.309,0,0,0-.22.188.36.36,0,0,0-.017.306.394.394,0,0,0,.369-.386.441.441,0,0,0,.514.066c-.028-.167-.277-.219-.43-.207a.389.389,0,0,0,.147-.386s-.212-.039-.328.265c0-.142-.289-.213-.429-.2Z" transform="translate(-2454.852 -2788.002)" fill="#fff"/>
            <path id="패스_528" data-name="패스 528" d="M2457.089,2789.762a.538.538,0,0,1,.066.051.164.164,0,0,0-.044-.059c.025-.019.038-.006.064-.027-.025-.006-.046.016-.067,0s-.026-.051-.034-.064a.1.1,0,0,1,.023.068.316.316,0,0,1-.066-.007c.044.034.083.017.059.087a.335.335,0,0,1,.009-.052" transform="translate(-2456.619 -2789.356)" fill="#fff"/>
          </g>
          <g id="그룹_301" data-name="그룹 301" transform="translate(6.033 1.505)">
            <path id="패스_529" data-name="패스 529" d="M2467.02,2781.918a.5.5,0,0,0,.118.528.342.342,0,0,0-.308.049.41.41,0,0,0-.2.266.442.442,0,0,0,.559-.146c.1.218.138.3.407.337.079-.165-.106-.346-.247-.419a.452.452,0,0,0,.367-.267s-.161-.15-.449.06c.089-.126-.121-.348-.251-.41Z" transform="translate(-2466.626 -2781.915)" fill="#fff"/>
            <path id="패스_530" data-name="패스 530" d="M2469.6,2784.5a.414.414,0,0,1,.027.08.167.167,0,0,0,0-.076c.033,0,.038.015.073.009-.019-.019-.05-.011-.061-.034s.008-.059.009-.076a.1.1,0,0,1-.021.074.3.3,0,0,1-.054-.041c.017.054.063.061,0,.11a.253.253,0,0,1,.04-.042" transform="translate(-2469.009 -2783.937)" fill="#fff"/>
          </g>
        </g>
        <g id="그룹_316" data-name="그룹 316" transform="translate(20.414 6.954)">
          <g id="그룹_303" data-name="그룹 303" transform="translate(1.019 1.22)">
            <path id="패스_531" data-name="패스 531" d="M2481.488,2814.639a.688.688,0,0,0,.443-.508c.025.143.134.192.243.243a.476.476,0,0,0,.389-.016.448.448,0,0,0-.5-.4c.153-.255.2-.351.074-.63-.212.057-.273.362-.255.547a.483.483,0,0,0-.494-.132s-.046.261.342.365c-.179.015-.264.375-.243.542Z" transform="translate(-2481.388 -2813.328)" fill="#fff"/>
            <path id="패스_532" data-name="패스 532" d="M2483.63,2816.719a.691.691,0,0,1,.063-.086.229.229,0,0,0-.073.061c-.025-.028-.009-.046-.037-.073-.006.031.021.053.005.081s-.064.038-.081.05a.129.129,0,0,1,.086-.036.3.3,0,0,1-.008.081c.043-.058.021-.105.11-.083a.313.313,0,0,1-.067,0" transform="translate(-2483.107 -2816.007)" fill="#fff"/>
          </g>
          <g id="그룹_304" data-name="그룹 304" transform="translate(2.5 3.963)">
            <path id="패스_533" data-name="패스 533" d="M2489.335,2829.359a.69.69,0,0,0,.443-.51c.024.142.132.192.242.246a.482.482,0,0,0,.39-.017.447.447,0,0,0-.5-.4c.153-.256.2-.351.074-.63-.213.056-.275.362-.256.546a.483.483,0,0,0-.494-.132s-.045.262.343.365c-.18.015-.264.375-.244.542Z" transform="translate(-2489.235 -2828.047)" fill="#fff"/>
            <path id="패스_534" data-name="패스 534" d="M2491.479,2831.436a.549.549,0,0,1,.062-.084.21.21,0,0,0-.074.059c-.025-.027-.009-.045-.037-.073-.006.031.021.053.006.081s-.064.037-.081.049a.133.133,0,0,1,.086-.036.435.435,0,0,1-.007.081c.042-.058.019-.1.11-.083a.275.275,0,0,1-.068,0" transform="translate(-2490.955 -2830.725)" fill="#fff"/>
          </g>
          <g id="그룹_305" data-name="그룹 305" transform="translate(1.196 2.686)">
            <path id="패스_535" data-name="패스 535" d="M2482.333,2821.8a.514.514,0,0,0,.526-.057.3.3,0,0,0,0,.286.364.364,0,0,0,.224.212.388.388,0,0,0-.053-.527c.224-.069.306-.1.388-.341-.147-.086-.352.064-.442.188a.385.385,0,0,0-.2-.362s-.169.133-.013.417c-.107-.094-.352.078-.433.191Z" transform="translate(-2482.33 -2821.196)" fill="#fff"/>
            <path id="패스_536" data-name="패스 536" d="M2484.974,2823.372a.545.545,0,0,1,.081-.017.182.182,0,0,0-.073-.005c0-.03.02-.032.02-.065-.021.016-.018.045-.042.052s-.055-.013-.073-.016a.09.09,0,0,1,.067.027.273.273,0,0,1-.047.045c.054-.01.068-.051.105.013a.333.333,0,0,1-.034-.041" transform="translate(-2484.406 -2822.895)" fill="#fff"/>
          </g>
          <g id="그룹_306" data-name="그룹 306" transform="translate(1.214 3.988)">
            <path id="패스_537" data-name="패스 537" d="M2482.429,2828.784a.514.514,0,0,0,.526-.058.3.3,0,0,0,0,.286.359.359,0,0,0,.223.211.386.386,0,0,0-.052-.526c.226-.068.306-.1.388-.341-.147-.086-.351.064-.442.187a.384.384,0,0,0-.2-.361s-.17.132-.014.416c-.108-.093-.354.078-.435.192Z" transform="translate(-2482.424 -2828.183)" fill="#fff"/>
            <path id="패스_538" data-name="패스 538" d="M2485.079,2830.365a.4.4,0,0,1,.082-.016.16.16,0,0,0-.073-.005c0-.03.02-.033.02-.065-.02.015-.018.043-.041.051s-.055-.013-.072-.016a.1.1,0,0,1,.068.027.418.418,0,0,1-.049.045c.054-.011.068-.052.105.012a.307.307,0,0,1-.034-.042" transform="translate(-2484.509 -2829.888)" fill="#fff"/>
          </g>
          <g id="그룹_307" data-name="그룹 307" transform="translate(0 3.415)">
            <path id="패스_539" data-name="패스 539" d="M2476,2825.429a.484.484,0,0,0,.471.209.318.318,0,0,0-.139.256.381.381,0,0,0,.087.3.407.407,0,0,0,.21-.5c.224.05.307.065.493-.114-.082-.151-.327-.116-.464-.051a.413.413,0,0,0,.006-.423s-.208.035-.213.367c-.045-.137-.336-.1-.459-.044Z" transform="translate(-2475.992 -2825.109)" fill="#fff"/>
            <path id="패스_540" data-name="패스 540" d="M2478.59,2827.346a.382.382,0,0,1,.078.026.138.138,0,0,0-.06-.041c.016-.028.033-.021.049-.048-.025,0-.038.03-.06.024s-.041-.039-.053-.049a.1.1,0,0,1,.044.058.348.348,0,0,1-.064.017c.053.017.085-.012.084.063a.33.33,0,0,1-.009-.054" transform="translate(-2478.045 -2826.857)" fill="#fff"/>
          </g>
          <g id="그룹_308" data-name="그룹 308" transform="translate(0.708 4.971)">
            <path id="패스_541" data-name="패스 541" d="M2479.749,2834.028a.505.505,0,0,0,.525-.021.3.3,0,0,0-.02.286.357.357,0,0,0,.208.227.39.39,0,0,0-.017-.53c.229-.053.311-.076.41-.315-.142-.1-.354.041-.452.157a.388.388,0,0,0-.174-.374s-.177.122-.041.416c-.1-.1-.356.053-.443.162Z" transform="translate(-2479.744 -2833.457)" fill="#fff"/>
            <path id="패스_542" data-name="패스 542" d="M2482.436,2835.689a.383.383,0,0,1,.083-.01.154.154,0,0,0-.072-.011c0-.03.022-.032.024-.064-.021.014-.021.043-.044.049s-.055-.017-.071-.021a.1.1,0,0,1,.064.031.273.273,0,0,1-.051.042c.056-.007.072-.048.1.02a.282.282,0,0,1-.031-.044" transform="translate(-2481.862 -2835.203)" fill="#fff"/>
          </g>
          <g id="그룹_309" data-name="그룹 309" transform="translate(2.344 2.871)">
            <path id="패스_543" data-name="패스 543" d="M2488.419,2822.428a.512.512,0,0,0,.463.289c-.117.046-.147.147-.182.25a.409.409,0,0,0,.048.329.434.434,0,0,0,.289-.5.429.429,0,0,0,.53-.047c-.065-.171-.326-.17-.478-.122a.439.439,0,0,0,.066-.444s-.222.007-.272.357c-.028-.151-.334-.16-.472-.112Z" transform="translate(-2488.412 -2822.187)" fill="#fff"/>
            <path id="패스_544" data-name="패스 544" d="M2491.009,2824.422a.477.477,0,0,1,.077.038.148.148,0,0,0-.056-.052c.02-.026.037-.016.057-.044-.025,0-.042.026-.066.019s-.035-.048-.048-.061a.107.107,0,0,1,.037.068.264.264,0,0,1-.067.007c.051.028.087,0,.078.08a.224.224,0,0,1,0-.058" transform="translate(-2490.465 -2823.924)" fill="#fff"/>
          </g>
          <g id="그룹_310" data-name="그룹 310" transform="translate(4.64 1.169)">
            <path id="패스_545" data-name="패스 545" d="M2500.674,2814.366a.692.692,0,0,0,.444-.509c.025.143.132.192.242.244a.478.478,0,0,0,.389-.016.447.447,0,0,0-.5-.4c.154-.256.2-.351.074-.63-.212.055-.273.363-.255.547a.481.481,0,0,0-.493-.132s-.047.261.342.364c-.179.014-.265.376-.243.542Z" transform="translate(-2500.576 -2813.055)" fill="#fff"/>
            <path id="패스_546" data-name="패스 546" d="M2502.812,2816.441a.571.571,0,0,1,.063-.085.223.223,0,0,0-.073.06c-.025-.027-.009-.046-.036-.073-.007.032.02.054.005.082a.585.585,0,0,1-.082.048.131.131,0,0,1,.086-.036.309.309,0,0,1-.007.081c.043-.058.021-.1.11-.083a.277.277,0,0,1-.068,0" transform="translate(-2502.29 -2815.729)" fill="#fff"/>
          </g>
          <g id="그룹_311" data-name="그룹 311" transform="translate(2.808 1.427)">
            <path id="패스_547" data-name="패스 547" d="M2490.875,2815.041a.513.513,0,0,0,.524-.057.3.3,0,0,0,0,.286.36.36,0,0,0,.223.211.387.387,0,0,0-.052-.527c.225-.068.305-.1.388-.34-.147-.087-.351.065-.441.186a.386.386,0,0,0-.2-.359s-.17.132-.013.416c-.107-.094-.354.077-.433.191Z" transform="translate(-2490.871 -2814.441)" fill="#fff"/>
            <path id="패스_548" data-name="패스 548" d="M2493.518,2816.615a.356.356,0,0,1,.08-.016.157.157,0,0,0-.073-.006c0-.03.021-.032.02-.065-.02.015-.018.044-.042.052s-.056-.013-.072-.015a.1.1,0,0,1,.068.027.3.3,0,0,1-.05.045c.056-.01.069-.052.106.012a.245.245,0,0,1-.034-.042" transform="translate(-2492.948 -2816.139)" fill="#fff"/>
          </g>
          <g id="그룹_312" data-name="그룹 312" transform="translate(2.14 0.621)">
            <path id="패스_549" data-name="패스 549" d="M2487.334,2810.435a.487.487,0,0,0,.473.209.313.313,0,0,0-.138.256.376.376,0,0,0,.086.3.409.409,0,0,0,.21-.5.415.415,0,0,0,.494-.113c-.083-.151-.328-.116-.465-.052a.413.413,0,0,0,.007-.422s-.209.036-.212.367c-.046-.136-.337-.106-.461-.043Z" transform="translate(-2487.327 -2810.115)" fill="#fff"/>
            <path id="패스_550" data-name="패스 550" d="M2489.933,2812.354a.382.382,0,0,1,.077.026.146.146,0,0,0-.06-.041c.017-.028.033-.021.049-.049-.024,0-.037.03-.061.025s-.041-.04-.053-.05a.092.092,0,0,1,.043.058.232.232,0,0,1-.062.016c.051.018.083-.013.083.063a.367.367,0,0,1-.008-.054" transform="translate(-2489.387 -2811.865)" fill="#fff"/>
          </g>
          <g id="그룹_313" data-name="그룹 313" transform="translate(3.33)">
            <path id="패스_551" data-name="패스 551" d="M2493.638,2807.353a.508.508,0,0,0,.525-.021.3.3,0,0,0-.021.286.357.357,0,0,0,.208.226.389.389,0,0,0-.017-.53c.229-.052.311-.075.409-.314-.141-.1-.353.04-.452.156a.388.388,0,0,0-.173-.374s-.178.121-.041.416c-.1-.1-.356.053-.443.162Z" transform="translate(-2493.634 -2806.781)" fill="#fff"/>
            <path id="패스_552" data-name="패스 552" d="M2496.322,2809.016a.359.359,0,0,1,.082-.01.148.148,0,0,0-.073-.011c0-.031.023-.032.025-.064-.022.014-.021.042-.045.049s-.056-.018-.071-.021a.1.1,0,0,1,.066.031.325.325,0,0,1-.05.042c.054-.006.071-.047.1.019a.2.2,0,0,1-.031-.043" transform="translate(-2495.748 -2808.53)" fill="#fff"/>
          </g>
          <g id="그룹_314" data-name="그룹 314" transform="translate(3.514 2.42)">
            <path id="패스_553" data-name="패스 553" d="M2494.615,2820.339a.509.509,0,0,0,.526-.022.3.3,0,0,0-.021.287.369.369,0,0,0,.208.226.388.388,0,0,0-.018-.53c.229-.052.312-.076.409-.315-.14-.1-.353.041-.451.157a.389.389,0,0,0-.174-.375s-.177.122-.041.416c-.1-.1-.357.054-.444.162Z" transform="translate(-2494.61 -2819.767)" fill="#fff"/>
            <path id="패스_554" data-name="패스 554" d="M2497.3,2822a.749.749,0,0,1,.083-.011.162.162,0,0,0-.074-.009c0-.031.023-.032.025-.064-.021.015-.021.043-.045.049s-.055-.017-.07-.02a.1.1,0,0,1,.064.031.27.27,0,0,1-.051.042c.056-.006.071-.046.1.019a.213.213,0,0,1-.031-.042" transform="translate(-2496.731 -2821.517)" fill="#fff"/>
          </g>
          <g id="그룹_315" data-name="그룹 315" transform="translate(4.484 0.077)">
            <path id="패스_555" data-name="패스 555" d="M2499.757,2807.435a.507.507,0,0,0,.463.288.331.331,0,0,0-.181.251.4.4,0,0,0,.048.329.434.434,0,0,0,.288-.5.429.429,0,0,0,.529-.048c-.064-.172-.325-.17-.477-.122a.443.443,0,0,0,.067-.445s-.222.007-.273.356c-.029-.151-.334-.159-.472-.112Z" transform="translate(-2499.748 -2807.193)" fill="#fff"/>
            <path id="패스_556" data-name="패스 556" d="M2502.342,2809.43a.423.423,0,0,1,.076.037.177.177,0,0,0-.057-.051c.02-.026.037-.016.057-.045-.027,0-.042.027-.067.019s-.036-.048-.048-.061a.1.1,0,0,1,.037.068.362.362,0,0,1-.068.009c.052.025.089,0,.079.078a.254.254,0,0,1,0-.057" transform="translate(-2501.797 -2808.931)" fill="#fff"/>
          </g>
        </g>
        <path id="패스_557" data-name="패스 557" d="M2409.3,2867.71s6.317,2.331,7.575,4.767" transform="translate(-2401.472 -2851.407)" fill="none" stroke="#679760" stroke-miterlimit="10" stroke-width="1"/>
        <path id="패스_558" data-name="패스 558" d="M2421.547,2805.716s7.031,11.356,7.032,18.689" transform="translate(-2411.409 -2799.637)" fill="none" stroke="#679760" stroke-miterlimit="10" stroke-width="1"/>
        <path id="패스_559" data-name="패스 559" d="M2467.272,2834.949s-.209,6.482-1.071,9.356" transform="translate(-2447.635 -2823.957)" fill="none" stroke="#679760" stroke-miterlimit="10" stroke-width="1"/>
        <line id="선_2" data-name="선 2" x2="3.516" y2="3.678" transform="translate(12.024 13.184)" fill="none" stroke="#679760" stroke-miterlimit="10" stroke-width="1"/>
        <path id="패스_560" data-name="패스 560" d="M2386.686,2834.174a3.434,3.434,0,0,0,.594,4.854,3.534,3.534,0,0,0,4.857-.941,3.433,3.433,0,0,0-.593-4.854A3.535,3.535,0,0,0,2386.686,2834.174Z" transform="translate(-2382.532 -2821.823)" fill="#d6385b"/>
        <path id="패스_561" data-name="패스 561" d="M2374.8,2841.911c-.914,2.063-.271,4.334,1.435,5.07s3.828-.342,4.74-2.406.271-4.332-1.434-5.067S2375.709,2839.847,2374.8,2841.911Z" transform="translate(-2373.145 -2827.53)" fill="#d42a3f"/>
        <path id="패스_562" data-name="패스 562" d="M2368.487,2833.973c-.914,2.064-.272,4.334,1.434,5.069s3.829-.341,4.742-2.405.27-4.334-1.434-5.069S2369.4,2831.91,2368.487,2833.973Z" transform="translate(-2368.027 -2820.782)" fill="#d6385b"/>
        <path id="패스_563" data-name="패스 563" d="M2375.777,2843.089a3.5,3.5,0,1,1,3.776,2.425A3.184,3.184,0,0,1,2375.777,2843.089Z" transform="translate(-2374.264 -2827.819)" fill="#d5284b"/>
        <path id="패스_564" data-name="패스 564" d="M2388.188,2852.933c-.07-.288.359-.637.958-.781s1.143-.023,1.214.266-.359.638-.959.78S2388.259,2853.221,2388.188,2852.933Z" transform="translate(-2384.341 -2837.928)" fill="#dfd5a8"/>
        <path id="패스_565" data-name="패스 565" d="M2393.722,2763.9a4.1,4.1,0,0,0,2.453,5.284,4.177,4.177,0,0,0,5.155-2.8,4.1,4.1,0,0,0-2.452-5.283A4.177,4.177,0,0,0,2393.722,2763.9Z" transform="translate(-2388.647 -2760.905)" fill="#d74072"/>
        <path id="패스_566" data-name="패스 566" d="M2384.107,2776.565c-.277,2.664,1.283,5,3.485,5.229s4.21-1.757,4.485-4.421-1.282-5-3.484-5.226S2384.384,2773.9,2384.107,2776.565Z" transform="translate(-2381.01 -2770.038)" fill="#cf2b60"/>
        <path id="패스_567" data-name="패스 567" d="M2374.092,2769.865c-.278,2.663,1.282,5,3.483,5.227s4.209-1.756,4.488-4.42-1.284-5-3.485-5.226S2374.368,2767.2,2374.092,2769.865Z" transform="translate(-2372.885 -2764.586)" fill="#cf2b60"/>
        <path id="패스_568" data-name="패스 568" d="M2383.719,2777.965c-.8-1.708.219-3.852,2.272-4.787s4.367-.312,5.165,1.4-.219,3.85-2.273,4.787S2384.517,2779.674,2383.719,2777.965Z" transform="translate(-2380.5 -2770.537)" fill="#d74072"/>
        <path id="패스_569" data-name="패스 569" d="M2398.253,2788.511c-.186-.3.183-.857.822-1.239s1.307-.449,1.493-.148-.183.857-.823,1.24S2398.439,2788.813,2398.253,2788.511Z" transform="translate(-2392.473 -2782.084)" fill="#dfd5a8"/>
        <path id="패스_570" data-name="패스 570" d="M2456.125,2796.738a3.657,3.657,0,0,0-1.062,5.1,3.765,3.765,0,0,0,5.227.671,3.657,3.657,0,0,0,1.063-5.1A3.765,3.765,0,0,0,2456.125,2796.738Z" transform="translate(-2438.089 -2789.456)" fill="#d43460"/>
        <path id="패스_571" data-name="패스 571" d="M2440.128,2801.073c-1.629,1.778-1.757,4.285-.288,5.6s3.983.933,5.612-.847,1.756-4.284.287-5.6S2441.758,2799.293,2440.128,2801.073Z" transform="translate(-2425.419 -2793.666)" fill="#d24468"/>
        <path id="패스_572" data-name="패스 572" d="M2436.441,2790.925c-1.63,1.779-1.758,4.285-.288,5.6s3.983.934,5.612-.846,1.757-4.285.287-5.6S2438.071,2789.146,2436.441,2790.925Z" transform="translate(-2422.427 -2784.006)" fill="#d6385b"/>
        <path id="패스_573" data-name="패스 573" d="M2443.811,2801.4c-.337-1.652,1-3.311,2.986-3.7s3.87.624,4.207,2.276-1,3.31-2.988,3.7S2444.147,2803.055,2443.811,2801.4Z" transform="translate(-2429.429 -2790.781)" fill="#d5284b"/>
        <path id="패스_574" data-name="패스 574" d="M2457.157,2813.262c.028-.315.52-.529,1.1-.479s1.026.346,1,.661-.521.529-1.1.479S2457.13,2813.577,2457.157,2813.262Z" transform="translate(-2440.297 -2804.718)" fill="#dfd5a8"/>
        <path id="패스_575" data-name="패스 575" d="M2446.771,2825.932l-1.2,19.673-13.1-3.927Z" transform="translate(-2420.268 -2817.232)" fill="#b1ccbd"/>
        <path id="패스_576" data-name="패스 576" d="M2367.837,2878.5l24.777,24.41,1.152-22.1S2384.9,2883.485,2367.837,2878.5Z" transform="translate(-2367.837 -2864.105)" fill="#b7d4c6"/>
        <path id="패스_577" data-name="패스 577" d="M2399.624,2877.975a26.532,26.532,0,0,1,6.605-1.835S2402.4,2872.874,2399.624,2877.975Z" transform="translate(-2393.624 -2857.509)" fill="#679760" stroke="#679760" stroke-miterlimit="10" stroke-width="1"/>
        <path id="패스_578" data-name="패스 578" d="M2453.423,2851.507s2.443-5.158,4.76-7.444C2458.182,2844.063,2451.609,2844.2,2453.423,2851.507Z" transform="translate(-2437.012 -2831.562)" fill="#679760" stroke="#679760" stroke-miterlimit="10" stroke-width="1"/>
        <path id="패스_579" data-name="패스 579" d="M2428.115,2802.942a16.016,16.016,0,0,1,2.126-4.179S2426.541,2798.855,2428.115,2802.942Z" transform="translate(-2416.421 -2792.96)" fill="#679760" stroke="#679760" stroke-miterlimit="10" stroke-width="1"/>
        <path id="패스_580" data-name="패스 580" d="M2404.786,2825.241a28.389,28.389,0,0,1,6.306,1.424S2409.107,2822.663,2404.786,2825.241Z" transform="translate(-2397.812 -2814.567)" fill="#679760" stroke="#679760" stroke-miterlimit="10" stroke-width="1"/>
        <g id="그룹_326" data-name="그룹 326" transform="translate(7.935 9.456)">
          <g id="그룹_317" data-name="그룹 317" transform="translate(0 3.436)">
            <path id="패스_581" data-name="패스 581" d="M2410.557,2843.633a.875.875,0,0,0,.17-.846.443.443,0,0,0,.427.122.6.6,0,0,0,.425-.26.581.581,0,0,0-.813-.139c.008-.382,0-.521-.32-.751-.2.2-.074.575.063.771a.619.619,0,0,0-.637.16s.116.321.617.195c-.192.128-.057.585.074.758Z" transform="translate(-2409.874 -2841.759)" fill="#fff"/>
            <path id="패스_582" data-name="패스 582" d="M2413.467,2846.208a.739.739,0,0,1,.015-.135.281.281,0,0,0-.043.112c-.045-.016-.04-.045-.088-.059.013.039.058.047.059.087,0,.022-.048.082-.059.106a.159.159,0,0,1,.073-.094.43.43,0,0,1,.043.1c.011-.092-.044-.13.07-.161a.389.389,0,0,1-.078.036" transform="translate(-2412.694 -2845.27)" fill="#fff"/>
          </g>
          <g id="그룹_318" data-name="그룹 318" transform="translate(1.257 4.951)">
            <path id="패스_583" data-name="패스 583" d="M2416.533,2851.042a.653.653,0,0,0,.552-.392.394.394,0,0,0,.181.321.472.472,0,0,0,.385.1.5.5,0,0,0-.4-.557c.208-.217.281-.3.217-.624-.22,0-.352.291-.376.486a.5.5,0,0,0-.452-.282s-.1.255.252.475c-.18-.038-.346.307-.363.484Z" transform="translate(-2416.533 -2849.888)" fill="#fff"/>
            <path id="패스_584" data-name="패스 584" d="M2418.917,2852.942a.743.743,0,0,1,.08-.07.2.2,0,0,0-.085.04c-.018-.034,0-.049-.02-.085-.014.03.008.061-.012.084s-.071.02-.091.027a.124.124,0,0,1,.093-.012.406.406,0,0,1-.025.081c.055-.046.043-.1.126-.052a.39.39,0,0,1-.065-.024" transform="translate(-2418.363 -2852.279)" fill="#fff"/>
          </g>
          <g id="그룹_319" data-name="그룹 319" transform="translate(2.429 4.461)">
            <path id="패스_585" data-name="패스 585" d="M2422.748,2847.988a.662.662,0,0,0,.7.035.429.429,0,0,0-.043.393.534.534,0,0,0,.264.34.555.555,0,0,0,.006-.735c.308-.046.418-.067.563-.383-.182-.151-.474.012-.612.16a.57.57,0,0,0-.21-.539s-.244.146-.077.569c-.128-.151-.477.03-.6.169Z" transform="translate(-2422.742 -2847.259)" fill="#fff"/>
            <path id="패스_586" data-name="패스 586" d="M2426.373,2850.429a.657.657,0,0,1,.11-.006.2.2,0,0,0-.1-.022c.007-.042.032-.041.036-.085-.029.016-.03.055-.062.062s-.071-.031-.092-.038a.141.141,0,0,1,.084.052.34.34,0,0,1-.07.051c.074,0,.1-.056.138.04a.4.4,0,0,1-.04-.064" transform="translate(-2425.604 -2849.746)" fill="#fff"/>
          </g>
          <g id="그룹_320" data-name="그룹 320" transform="translate(4.021 1.123)">
            <path id="패스_587" data-name="패스 587" d="M2431.861,2831.223a.873.873,0,0,0,.172-.846.444.444,0,0,0,.427.122.6.6,0,0,0,.425-.261.583.583,0,0,0-.812-.138c.009-.382,0-.52-.319-.75-.2.194-.074.576.063.769a.619.619,0,0,0-.636.16s.115.321.616.195c-.192.129-.057.585.074.758Z" transform="translate(-2431.179 -2829.35)" fill="#fff"/>
            <path id="패스_588" data-name="패스 588" d="M2434.765,2833.793a.8.8,0,0,1,.016-.134.255.255,0,0,0-.044.113c-.045-.015-.041-.046-.087-.059.011.038.056.047.057.086,0,.023-.048.083-.06.106a.169.169,0,0,1,.074-.094.452.452,0,0,1,.043.095c.012-.09-.044-.13.07-.16a.361.361,0,0,1-.078.035" transform="translate(-2433.993 -2832.856)" fill="#fff"/>
          </g>
          <g id="그룹_321" data-name="그룹 321" transform="translate(2.257 2.536)">
            <path id="패스_589" data-name="패스 589" d="M2421.834,2838.084a.646.646,0,0,0,.549-.391.4.4,0,0,0,.182.321.473.473,0,0,0,.385.1.5.5,0,0,0-.394-.557c.209-.217.279-.3.217-.624-.22-.005-.352.292-.375.485a.506.506,0,0,0-.453-.28s-.105.255.252.475c-.18-.037-.346.308-.363.484Z" transform="translate(-2421.834 -2836.931)" fill="#fff"/>
            <path id="패스_590" data-name="패스 590" d="M2424.213,2839.984a.647.647,0,0,1,.08-.069.2.2,0,0,0-.085.039c-.018-.035,0-.049-.02-.086-.012.03.008.06-.013.084s-.071.02-.091.027a.125.125,0,0,1,.093-.012.385.385,0,0,1-.026.081c.055-.045.045-.1.127-.051a.369.369,0,0,1-.064-.026" transform="translate(-2423.66 -2839.321)" fill="#fff"/>
          </g>
          <g id="그룹_322" data-name="그룹 322" transform="translate(0.812 2.116)">
            <path id="패스_591" data-name="패스 591" d="M2414.183,2835.448a.626.626,0,0,0,.662-.06.4.4,0,0,0,.008.373.5.5,0,0,0,.288.282.522.522,0,0,0-.083-.688c.282-.082.385-.119.48-.434-.189-.118-.441.074-.553.231a.534.534,0,0,0-.263-.477s-.211.169,0,.544c-.138-.126-.445.091-.543.237Z" transform="translate(-2414.177 -2834.676)" fill="#fff"/>
            <path id="패스_592" data-name="패스 592" d="M2417.5,2837.545a.554.554,0,0,1,.1-.019.186.186,0,0,0-.093-.01c0-.039.025-.042.024-.084-.025.019-.022.056-.051.066s-.071-.019-.092-.024a.131.131,0,0,1,.087.038.354.354,0,0,1-.06.057c.069-.012.086-.066.134.02a.359.359,0,0,1-.045-.055" transform="translate(-2416.783 -2836.919)" fill="#fff"/>
          </g>
          <g id="그룹_323" data-name="그룹 323" transform="translate(1.909 0.648)">
            <path id="패스_593" data-name="패스 593" d="M2419.99,2827.888a.65.65,0,0,0,.575-.351.394.394,0,0,0,.159.333.468.468,0,0,0,.377.123.5.5,0,0,0-.357-.583c.223-.2.3-.278.257-.606-.22-.021-.37.265-.407.457a.5.5,0,0,0-.433-.311s-.121.245.219.49c-.176-.05-.364.282-.393.458Z" transform="translate(-2419.989 -2826.804)" fill="#fff"/>
            <path id="패스_594" data-name="패스 594" d="M2422.54,2829.7a.47.47,0,0,1,.084-.063.173.173,0,0,0-.087.033c-.016-.036,0-.051-.014-.087-.015.03,0,.061-.019.083s-.073.014-.092.021a.125.125,0,0,1,.093-.006.367.367,0,0,1-.031.079c.057-.042.051-.1.129-.042a.346.346,0,0,1-.062-.029" transform="translate(-2421.955 -2829.067)" fill="#fff"/>
          </g>
          <g id="그룹_324" data-name="그룹 324" transform="translate(3.663 3.242)">
            <path id="패스_595" data-name="패스 595" d="M2429.281,2841.808a.647.647,0,0,0,.575-.351.39.39,0,0,0,.16.332.474.474,0,0,0,.377.124.5.5,0,0,0-.358-.583c.222-.2.3-.28.256-.607-.219-.021-.37.265-.406.457a.508.508,0,0,0-.434-.312s-.12.248.219.491c-.176-.05-.364.282-.392.457Z" transform="translate(-2429.279 -2840.723)" fill="#fff"/>
            <path id="패스_596" data-name="패스 596" d="M2431.829,2843.62a.8.8,0,0,1,.086-.064.235.235,0,0,0-.089.034c-.015-.036.006-.049-.013-.086-.015.029,0,.061-.018.082s-.073.015-.093.021a.126.126,0,0,1,.093-.006.349.349,0,0,1-.031.079c.058-.042.051-.1.13-.042a.3.3,0,0,1-.063-.029" transform="translate(-2431.244 -2842.985)" fill="#fff"/>
          </g>
          <g id="그룹_325" data-name="그룹 325" transform="translate(3.038)">
            <path id="패스_597" data-name="패스 597" d="M2425.978,2824.054a.66.66,0,0,0,.7.034.432.432,0,0,0-.043.394.525.525,0,0,0,.265.339.552.552,0,0,0,.006-.734c.308-.044.419-.068.563-.383-.182-.152-.473.013-.612.16a.571.571,0,0,0-.21-.539s-.243.146-.078.569c-.127-.152-.476.029-.6.168Z" transform="translate(-2425.971 -2823.324)" fill="#fff"/>
            <path id="패스_598" data-name="패스 598" d="M2429.6,2826.487a.62.62,0,0,1,.11-.006.226.226,0,0,0-.1-.022c.006-.041.031-.041.035-.086-.029.018-.03.056-.062.063s-.072-.031-.093-.038a.133.133,0,0,1,.086.051.383.383,0,0,1-.07.053c.073,0,.1-.057.137.04a.42.42,0,0,1-.038-.064" transform="translate(-2428.829 -2825.804)" fill="#fff"/>
          </g>
        </g>
      </g>
      <path id="패스_600" data-name="패스 600" d="M2564.746,2736.095a4.589,4.589,0,0,0,.579,1.8,2.164,2.164,0,0,0,1.221.854,2.143,2.143,0,0,0-1.221.854,4.531,4.531,0,0,0-.579,1.8,3.76,3.76,0,0,0-.58-1.8,1.754,1.754,0,0,0-1.22-.854,1.806,1.806,0,0,0,1.22-.854A3.867,3.867,0,0,0,2564.746,2736.095Z" transform="translate(-2505.972 -2729.076)" fill="none" stroke="#fcfcfc" stroke-linejoin="round" stroke-width="1"/>
      <path id="패스_601" data-name="패스 601" d="M2612.723,2789.87a3.093,3.093,0,0,0,.39,1.211,1.463,1.463,0,0,0,.824.576,1.445,1.445,0,0,0-.824.575,3.046,3.046,0,0,0-.39,1.211,2.539,2.539,0,0,0-.392-1.211,1.185,1.185,0,0,0-.823-.575,1.22,1.22,0,0,0,.823-.576A2.615,2.615,0,0,0,2612.723,2789.87Z" transform="translate(-2541.936 -2777.583)" fill="none" stroke="#fcfcfc" stroke-linejoin="round" stroke-width="1"/>
      <path id="패스_602" data-name="패스 602" d="M2299.839,2814.672a5.57,5.57,0,0,0,.7,2.179,2.631,2.631,0,0,0,1.481,1.036,2.6,2.6,0,0,0-1.481,1.035,5.5,5.5,0,0,0-.7,2.179,4.561,4.561,0,0,0-.7-2.179,2.128,2.128,0,0,0-1.48-1.035,2.2,2.2,0,0,0,1.48-1.036A4.694,4.694,0,0,0,2299.839,2814.672Z" transform="translate(-2290.071 -2805.194)" fill="none" stroke="#fcfcfc" stroke-linejoin="round" stroke-width="1"/>
      <path id="패스_603" data-name="패스 603" d="M2330.2,2864.232a2.758,2.758,0,0,0,.347,1.078.545.545,0,1,1,0,1.023,2.719,2.719,0,0,0-.347,1.078,2.252,2.252,0,0,0-.347-1.078,1.055,1.055,0,0,0-.732-.512,1.084,1.084,0,0,0,.732-.511A2.321,2.321,0,0,0,2330.2,2864.232Z" transform="translate(-2312.165 -2840.822)" fill="none" stroke="#fcfcfc" stroke-linejoin="round" stroke-width="1"/>
      <path id="패스_604" data-name="패스 604" d="M2580.163,2820.452a2.284,2.284,0,0,0,.288.893,1.083,1.083,0,0,0,.608.424,1.072,1.072,0,0,0-.608.425,2.256,2.256,0,0,0-.288.894,1.865,1.865,0,0,0-.288-.894.874.874,0,0,0-.607-.425.9.9,0,0,0,.607-.424A1.918,1.918,0,0,0,2580.163,2820.452Z" transform="translate(-2515.924 -2800.053)" fill="none" stroke="#fcfcfc" stroke-linejoin="round" stroke-width="1"/>
      <path id="패스_605" data-name="패스 605" d="M2526.186,2875.412a2.81,2.81,0,0,0,.354,1.1.556.556,0,1,1,0,1.044,2.766,2.766,0,0,0-.354,1.1,2.289,2.289,0,0,0-.354-1.1,1.075,1.075,0,0,0-.747-.523,1.107,1.107,0,0,0,.747-.521A2.37,2.37,0,0,0,2526.186,2875.412Z" transform="translate(-2471.696 -2850.682)" fill="none" stroke="#fcfcfc" stroke-linejoin="round" stroke-width="1"/>
      <path id="패스_607" data-name="패스 607" d="M2312.539,2747.042a2.189,2.189,0,0,0,.275.854,1.031,1.031,0,0,0,.581.406,1.018,1.018,0,0,0-.581.405,2.151,2.151,0,0,0-.275.853,1.785,1.785,0,0,0-.275-.853.837.837,0,0,0-.58-.405.864.864,0,0,0,.58-.406A1.848,1.848,0,0,0,2312.539,2747.042Z" transform="translate(-2297.09 -2747.042)" fill="none" stroke="#fcfcfc" stroke-linejoin="round" stroke-width="1"/>
      <path id="패스_609" data-name="패스 609" d="M2354.3,2915.932a1.056,1.056,0,0,0-.538-.62.966.966,0,0,0-.434-.1,1,1,0,0,1-1.773,0,.967.967,0,0,0-.435.1,1.052,1.052,0,0,0-.536.619,1.454,1.454,0,0,0,.155,1.154,6.074,6.074,0,0,0,1.668,1.741.054.054,0,0,0,.034.012.051.051,0,0,0,.034-.013,6.07,6.07,0,0,0,1.668-1.741A1.458,1.458,0,0,0,2354.3,2915.932Z" transform="translate(-2326.633 -2884.233)" fill="#d24468"/>
    </g>
  </g>
</svg>
