<svg xmlns="http://www.w3.org/2000/svg" xmlns:xlink="http://www.w3.org/1999/xlink" width="90" height="54" viewBox="0 0 90 54">
  <defs>
    <radialGradient id="radial-gradient" cx="0.5" cy="0.5" r="0.965" gradientTransform="translate(0.303) scale(0.394 1)" gradientUnits="objectBoundingBox">
      <stop offset="0.574" stop-color="#181415"/>
      <stop offset="0.798" stop-color="#181415"/>
      <stop offset="1" stop-color="#181415"/>
    </radialGradient>
    <clipPath id="clip-path">
      <path id="패스_297" data-name="패스 297" d="M629.449,3706.179s-.146,1.449-1.491,1.449-1.345-1.449-1.345-1.449v-13.738h2.836Z" transform="translate(-626.613 -3692.441)" fill="none"/>
    </clipPath>
    <clipPath id="clip-path-2">
      <path id="패스_308" data-name="패스 308" d="M562.079,3754.3s-.149-.733.2-.689c0,0,.05.3.648.591s2.842.344,2.892-.591c0,0,.1-.049.1.689s-.648,1.329-1.795,1.379C563.507,3755.7,561.83,3755.284,562.079,3754.3Z" transform="translate(-562.047 -3753.608)" fill="none"/>
    </clipPath>
    <clipPath id="clip-path-3">
      <path id="패스_318" data-name="패스 318" d="M590.225,3777.412s-.163-.8.218-.754c0,0,.054.323.709.646s3.109.377,3.164-.646c0,0,.109-.054.109.754s-.709,1.454-1.964,1.508C591.788,3778.949,589.953,3778.489,590.225,3777.412Z" transform="translate(-590.191 -3776.656)" fill="none"/>
    </clipPath>
    <clipPath id="clip-path-4">
      <path id="패스_328" data-name="패스 328" d="M644.369,3779.75s-.163-.8.218-.754c0,0,.054.323.709.646s3.109.377,3.164-.646c0,0,.109-.054.109.754s-.709,1.454-1.964,1.508C645.932,3781.287,644.1,3780.828,644.369,3779.75Z" transform="translate(-644.335 -3778.995)" fill="none"/>
    </clipPath>
    <clipPath id="clip-path-5">
      <path id="패스_338" data-name="패스 338" d="M683.972,3761.379s-.146-.719.2-.676c0,0,.049.29.636.58s2.789.338,2.838-.58c0,0,.1-.048.1.676s-.636,1.3-1.761,1.353C685.373,3762.758,683.727,3762.345,683.972,3761.379Z" transform="translate(-683.941 -3760.7)" fill="none"/>
    </clipPath>
    <clipPath id="clip-path-6">
      <path id="패스_348" data-name="패스 348" d="M602.777,3737.508s-.14-.687.187-.646c0,0,.047.277.608.553s2.665.324,2.711-.553c0,0,.094-.046.094.646s-.608,1.247-1.683,1.292C604.116,3738.825,602.544,3738.431,602.777,3737.508Z" transform="translate(-602.747 -3736.86)" fill="none"/>
    </clipPath>
    <clipPath id="clip-path-7">
      <path id="패스_358" data-name="패스 358" d="M650.236,3739.179s-.14-.687.187-.646c0,0,.047.277.608.553s2.665.323,2.711-.553c0,0,.094-.046.094.646s-.608,1.246-1.683,1.292C651.575,3740.5,650,3740.1,650.236,3739.179Z" transform="translate(-650.207 -3738.531)" fill="none"/>
    </clipPath>
    <clipPath id="clip-path-8">
      <path id="패스_368" data-name="패스 368" d="M587.5,3741.616c0,4.186-7.612,7.58-17,7.58s-17-3.394-17-7.58,7.612-7.581,17-7.581S587.5,3737.429,587.5,3741.616Z" transform="translate(-553.496 -3734.035)" fill="none"/>
    </clipPath>
  </defs>
  <g id="thumb01" transform="translate(-18 -330)">
    <g data-type="innerShadowGroup">
      <rect id="사각형_4" data-name="사각형 4" width="90" height="56" rx="8" transform="translate(18 330)" fill="#d8f8be"/>
    </g>
    <g id="그룹_354" data-name="그룹 354" transform="translate(28.615 337.391)">
      <g id="L" transform="translate(0 0.074)">
        <g id="그룹_178" data-name="그룹 178" transform="translate(17.622 6.623)">
          <path id="패스_250" data-name="패스 250" d="M527.184,3687.465a1.073,1.073,0,0,1-.877.249l-.214-.122a.428.428,0,0,1-.167-.675q.765-.561,1.05-.4l.214.121Q527.4,3687.281,527.184,3687.465Z" transform="translate(-525.828 -3686.482)" fill="#e48bdf"/>
        </g>
        <g id="그룹_179" data-name="그룹 179" transform="translate(7.77 5.891)">
          <path id="패스_251" data-name="패스 251" d="M481.471,3689.466a.926.926,0,0,0,.149.012.537.537,0,0,1,.273.049l.075.073.074.074a.238.238,0,0,1,.062.086.24.24,0,0,0,.062.085,1.538,1.538,0,0,1,.137.307,1,1,0,0,1,.013.478,1.557,1.557,0,0,1-.82.564.153.153,0,0,1-.111.049.43.43,0,0,1-.186-.074c-.033,0-.066-.032-.1-.1a.237.237,0,0,0-.112-.122.32.32,0,0,1-.111-.074.671.671,0,0,0-.149-.49c-.116-.082-.174-.138-.174-.171a1.155,1.155,0,0,1,.075-.319,3.23,3.23,0,0,1,.173-.417,1.743,1.743,0,0,1,.323-.049,1.161,1.161,0,0,1,.223.024A.779.779,0,0,1,481.471,3689.466Z" transform="translate(-480.552 -3689.429)" fill="#d2375b"/>
        </g>
        <g id="그룹_180" data-name="그룹 180" transform="translate(14.557 8.981)">
          <path id="패스_252" data-name="패스 252" d="M512.319,3706.985a.6.6,0,0,0,.093.008.339.339,0,0,1,.171.031l.047.046.047.046a.155.155,0,0,1,.039.054.15.15,0,0,0,.039.054.971.971,0,0,1,.086.192.629.629,0,0,1,.008.3.976.976,0,0,1-.514.354.1.1,0,0,1-.07.031.268.268,0,0,1-.117-.046c-.021,0-.041-.02-.062-.062a.149.149,0,0,0-.07-.077.2.2,0,0,1-.07-.046.42.42,0,0,0-.094-.307c-.072-.051-.109-.087-.109-.108a.719.719,0,0,1,.047-.2,2,2,0,0,1,.109-.261,1.089,1.089,0,0,1,.2-.031.749.749,0,0,1,.14.016A.471.471,0,0,1,512.319,3706.985Z" transform="translate(-511.742 -3706.961)" fill="#fff"/>
        </g>
        <g id="그룹_181" data-name="그룹 181" transform="translate(16.983 0.912)">
          <path id="패스_253" data-name="패스 253" d="M523.47,3659.887a.548.548,0,0,0,.094.008.338.338,0,0,1,.171.031l.047.046.047.046a.148.148,0,0,1,.039.054.156.156,0,0,0,.039.053.941.941,0,0,1,.086.192.621.621,0,0,1,.008.3.973.973,0,0,1-.514.354.1.1,0,0,1-.07.031.265.265,0,0,1-.117-.046c-.021,0-.042-.02-.062-.062a.151.151,0,0,0-.07-.077.2.2,0,0,1-.07-.046.419.419,0,0,0-.094-.307c-.072-.051-.109-.087-.109-.108a.729.729,0,0,1,.047-.2,2.028,2.028,0,0,1,.109-.261,1.1,1.1,0,0,1,.2-.031.71.71,0,0,1,.14.015A.5.5,0,0,1,523.47,3659.887Z" transform="translate(-522.894 -3659.864)" fill="#fff"/>
        </g>
        <g id="그룹_182" data-name="그룹 182" transform="translate(5.471 12.25)">
          <path id="패스_254" data-name="패스 254" d="M470.563,3725.673a.545.545,0,0,0,.093.008.339.339,0,0,1,.171.031l.047.046.047.046a.148.148,0,0,1,.039.054.148.148,0,0,0,.039.054.98.98,0,0,1,.086.192.628.628,0,0,1,.008.3.977.977,0,0,1-.514.354.1.1,0,0,1-.07.031.269.269,0,0,1-.117-.046q-.031,0-.062-.062a.15.15,0,0,0-.07-.077.2.2,0,0,1-.07-.046.42.42,0,0,0-.094-.307c-.072-.051-.109-.087-.109-.108a.722.722,0,0,1,.047-.2,2.026,2.026,0,0,1,.109-.261,1.082,1.082,0,0,1,.2-.031.768.768,0,0,1,.14.015A.5.5,0,0,1,470.563,3725.673Z" transform="translate(-469.986 -3725.65)" fill="#c5c5f6"/>
        </g>
        <g id="그룹_183" data-name="그룹 183" transform="translate(21.612 5.635)">
          <path id="패스_255" data-name="패스 255" d="M544.739,3681.872a.57.57,0,0,0,.093.007.334.334,0,0,1,.17.031l.047.046.047.046a.155.155,0,0,1,.039.053.149.149,0,0,0,.039.054.969.969,0,0,1,.085.191.628.628,0,0,1,.008.3.971.971,0,0,1-.512.352.1.1,0,0,1-.07.031.265.265,0,0,1-.116-.046c-.021,0-.041-.02-.062-.061a.15.15,0,0,0-.07-.077.2.2,0,0,1-.07-.046.418.418,0,0,0-.093-.306c-.072-.051-.108-.087-.108-.107a.727.727,0,0,1,.046-.2,2.035,2.035,0,0,1,.109-.26,1.085,1.085,0,0,1,.2-.031.782.782,0,0,1,.14.015A.494.494,0,0,1,544.739,3681.872Z" transform="translate(-544.166 -3681.849)" fill="#fff"/>
        </g>
        <g id="그룹_184" data-name="그룹 184" transform="translate(0 24.215)">
          <path id="패스_256" data-name="패스 256" d="M445.418,3794.073a.543.543,0,0,0,.093.008.339.339,0,0,1,.171.031l.047.046.047.046a.16.16,0,0,1,.039.054.147.147,0,0,0,.039.054,1,1,0,0,1,.085.191.628.628,0,0,1,.008.3.968.968,0,0,1-.512.352.1.1,0,0,1-.07.031.273.273,0,0,1-.116-.046c-.02,0-.041-.021-.062-.061a.149.149,0,0,0-.07-.077.2.2,0,0,1-.07-.046.417.417,0,0,0-.093-.306c-.072-.051-.109-.087-.109-.108a.727.727,0,0,1,.047-.2,2.03,2.03,0,0,1,.109-.26,1.091,1.091,0,0,1,.2-.031.722.722,0,0,1,.139.015A.517.517,0,0,1,445.418,3794.073Z" transform="translate(-444.844 -3794.051)" fill="#fff"/>
        </g>
        <g id="그룹_185" data-name="그룹 185" transform="translate(6.175)">
          <path id="패스_257" data-name="패스 257" d="M473.8,3655.642a.5.5,0,0,0,.093.008.333.333,0,0,1,.171.031l.046.046.047.045a.16.16,0,0,1,.039.054.144.144,0,0,0,.039.053.992.992,0,0,1,.085.191.624.624,0,0,1,.008.3.966.966,0,0,1-.512.351.1.1,0,0,1-.07.031.265.265,0,0,1-.116-.046c-.02,0-.041-.02-.062-.061a.149.149,0,0,0-.07-.076.209.209,0,0,1-.07-.045.419.419,0,0,0-.093-.306c-.072-.051-.109-.087-.109-.108a.734.734,0,0,1,.047-.2,2.008,2.008,0,0,1,.109-.26,1.058,1.058,0,0,1,.2-.03.72.72,0,0,1,.139.015A.579.579,0,0,1,473.8,3655.642Z" transform="translate(-473.223 -3655.62)" fill="#ebc5c5"/>
        </g>
        <g id="그룹_186" data-name="그룹 186" transform="translate(8.978 24.345)">
          <path id="패스_258" data-name="패스 258" d="M486.787,3795.313a.257.257,0,0,1,.008-.061.254.254,0,0,0,.008-.061.221.221,0,0,1,.07-.069.141.141,0,0,1,.054-.023.18.18,0,0,1,.077-.015.663.663,0,0,1,.356.107.417.417,0,0,1,.186.352l.031.061a.135.135,0,0,1,.016.062.368.368,0,0,1,.023.053.119.119,0,0,1,.008.038.922.922,0,0,1-.008.122.941.941,0,0,1-.023.122.7.7,0,0,1-.016.138.8.8,0,0,0-.015.153q0,.2-.248.245a2.265,2.265,0,0,1-.341.046.69.69,0,0,1-.178-.023.634.634,0,0,1-.178-.084c-.062-.031-.127-.066-.194-.107l-.225-.137a.245.245,0,0,0-.015-.077l-.031-.092-.031-.062a.134.134,0,0,1-.016-.061.6.6,0,0,1,.132-.39A.936.936,0,0,1,486.787,3795.313Z" transform="translate(-486.105 -3795.083)" fill="#d2375b"/>
        </g>
        <g id="그룹_187" data-name="그룹 187" transform="translate(10.586 19.328)">
          <path id="패스_259" data-name="패스 259" d="M495.108,3767.071a.712.712,0,0,1-.5.686h-.3a.783.783,0,0,1-.806-.534q.1-.915.5-.915h.3Q495.108,3766.79,495.108,3767.071Z" transform="translate(-493.495 -3766.309)" fill="#6fb0b1"/>
        </g>
        <g id="그룹_188" data-name="그룹 188" transform="translate(3.539 32.635)">
          <path id="패스_260" data-name="패스 260" d="M462.72,3843.277a.712.712,0,0,1-.5.686h-.3a.783.783,0,0,1-.806-.534q.1-.915.5-.915h.3Q462.72,3843,462.72,3843.277Z" transform="translate(-461.107 -3842.514)" fill="#6fb0b1"/>
        </g>
        <g id="그룹_190" data-name="그룹 190" transform="translate(15.202 21.25)">
          <g id="그룹_189" data-name="그룹 189">
            <path id="패스_261" data-name="패스 261" d="M516.06,3777.794a.6.6,0,0,1-.423.576h-.254a.658.658,0,0,1-.677-.448q.085-.769.423-.769h.254Q516.06,3777.558,516.06,3777.794Z" transform="translate(-514.706 -3777.154)" fill="#fdfb86"/>
          </g>
        </g>
        <g id="그룹_192" data-name="그룹 192" transform="translate(8.555 29.682)">
          <g id="그룹_191" data-name="그룹 191">
            <path id="패스_262" data-name="패스 262" d="M485.514,3829.414a.6.6,0,0,1-.423.576h-.254a.658.658,0,0,1-.677-.448q.085-.768.423-.768h.254Q485.514,3829.178,485.514,3829.414Z" transform="translate(-484.16 -3828.774)" fill="#fdfb86"/>
          </g>
        </g>
        <g id="그룹_193" data-name="그룹 193" transform="translate(12.293 15.316)">
          <path id="패스_263" data-name="패스 263" d="M503.134,3743.986q0,.44-.561.634h-.337a.887.887,0,0,1-.9-.493q.112-.846.561-.846h.336Q503.134,3743.726,503.134,3743.986Z" transform="translate(-501.339 -3743.281)" fill="#e48bdf"/>
        </g>
      </g>
      <g id="R" transform="translate(41.227)">
        <g id="그룹_194" data-name="그룹 194" transform="translate(17.235 20.789)">
          <path id="패스_264" data-name="패스 264" d="M793.613,3773.662a.6.6,0,0,0,.091.007.33.33,0,0,1,.166.03l.045.045.045.045a.147.147,0,0,1,.038.052.147.147,0,0,0,.038.052.929.929,0,0,1,.084.187.611.611,0,0,1,.008.292.949.949,0,0,1-.5.344.093.093,0,0,1-.068.03.262.262,0,0,1-.114-.045c-.02,0-.04-.02-.06-.06a.144.144,0,0,0-.068-.074.211.211,0,0,1-.068-.045.409.409,0,0,0-.091-.3c-.071-.05-.106-.084-.106-.1a.71.71,0,0,1,.045-.195,1.967,1.967,0,0,1,.106-.254,1.02,1.02,0,0,1,.2-.03.7.7,0,0,1,.136.015A.467.467,0,0,1,793.613,3773.662Z" transform="translate(-793.053 -3773.64)" fill="#fff"/>
        </g>
        <g id="그룹_195" data-name="그룹 195" transform="translate(13.365 15.658)">
          <path id="패스_265" data-name="패스 265" d="M775.832,3744.45a.516.516,0,0,0,.091.008.331.331,0,0,1,.167.03l.045.045.046.045a.138.138,0,0,1,.038.052.151.151,0,0,0,.038.052.924.924,0,0,1,.084.187.611.611,0,0,1,.008.292.948.948,0,0,1-.5.343.1.1,0,0,1-.068.03.262.262,0,0,1-.114-.045c-.02,0-.04-.02-.061-.06a.146.146,0,0,0-.068-.075.2.2,0,0,1-.068-.044.409.409,0,0,0-.091-.3c-.07-.05-.106-.085-.106-.1a.7.7,0,0,1,.046-.194,1.948,1.948,0,0,1,.106-.254,1.057,1.057,0,0,1,.2-.03.725.725,0,0,1,.136.015A.492.492,0,0,1,775.832,3744.45Z" transform="translate(-775.271 -3744.427)" fill="#c5c5f6"/>
        </g>
        <g id="그룹_196" data-name="그룹 196" transform="translate(16.663 3.861)">
          <path id="패스_266" data-name="패스 266" d="M791,3673.27a.571.571,0,0,0,.093.008.337.337,0,0,1,.172.031l.047.046.047.046a.148.148,0,0,1,.039.054.152.152,0,0,0,.039.054.964.964,0,0,1,.086.192.629.629,0,0,1,.008.3.977.977,0,0,1-.514.354.1.1,0,0,1-.07.031.269.269,0,0,1-.117-.046q-.031,0-.062-.062a.149.149,0,0,0-.07-.077.213.213,0,0,1-.07-.046.42.42,0,0,0-.094-.307c-.073-.051-.109-.087-.109-.108a.723.723,0,0,1,.047-.2,2.045,2.045,0,0,1,.109-.261,1.06,1.06,0,0,1,.2-.031.73.73,0,0,1,.14.016A.494.494,0,0,1,791,3673.27Z" transform="translate(-790.425 -3673.247)" fill="#fff"/>
        </g>
        <g id="그룹_197" data-name="그룹 197" transform="translate(0.329)">
          <path id="패스_267" data-name="패스 267" d="M715.937,3655.3a.568.568,0,0,0,.093.007.335.335,0,0,1,.172.031l.047.046.047.046a.15.15,0,0,1,.039.054.15.15,0,0,0,.039.053.957.957,0,0,1,.086.192.626.626,0,0,1,.008.3.976.976,0,0,1-.514.354.1.1,0,0,1-.07.031.269.269,0,0,1-.117-.046c-.021,0-.041-.021-.062-.062a.149.149,0,0,0-.07-.077.208.208,0,0,1-.07-.046.418.418,0,0,0-.094-.307c-.073-.052-.109-.087-.109-.108a.721.721,0,0,1,.047-.2,2.011,2.011,0,0,1,.109-.262,1.1,1.1,0,0,1,.2-.031.746.746,0,0,1,.14.015A.5.5,0,0,1,715.937,3655.3Z" transform="translate(-715.36 -3655.275)" fill="#c5c5f6"/>
        </g>
        <g id="그룹_198" data-name="그룹 198" transform="translate(13.012 24.491)">
          <path id="패스_268" data-name="패스 268" d="M774.225,3794.766a.572.572,0,0,0,.093.007.335.335,0,0,1,.171.031l.047.046.047.046a.149.149,0,0,1,.039.054.15.15,0,0,0,.039.053.966.966,0,0,1,.086.192.625.625,0,0,1,.008.3.974.974,0,0,1-.514.354.1.1,0,0,1-.07.031.264.264,0,0,1-.117-.046c-.021,0-.041-.02-.062-.061a.149.149,0,0,0-.07-.077.213.213,0,0,1-.07-.046.422.422,0,0,0-.094-.308c-.073-.051-.109-.087-.109-.107a.719.719,0,0,1,.047-.2,2.087,2.087,0,0,1,.109-.262,1.092,1.092,0,0,1,.2-.03.712.712,0,0,1,.14.016A.491.491,0,0,1,774.225,3794.766Z" transform="translate(-773.648 -3794.743)" fill="#c5c5f6"/>
        </g>
        <g id="그룹_199" data-name="그룹 199" transform="translate(21.042 23.855)">
          <path id="패스_269" data-name="패스 269" d="M811.126,3791.138a.524.524,0,0,0,.093.008.333.333,0,0,1,.171.031l.047.046.047.047a.146.146,0,0,1,.039.053.147.147,0,0,0,.039.054.941.941,0,0,1,.086.192.623.623,0,0,1,.008.3.976.976,0,0,1-.514.354.1.1,0,0,1-.07.031.265.265,0,0,1-.117-.046c-.021,0-.041-.021-.062-.062a.148.148,0,0,0-.07-.077.214.214,0,0,1-.07-.046.421.421,0,0,0-.094-.308c-.073-.051-.109-.087-.109-.108a.721.721,0,0,1,.047-.2,2.041,2.041,0,0,1,.109-.261,1.084,1.084,0,0,1,.2-.031.692.692,0,0,1,.14.015A.52.52,0,0,1,811.126,3791.138Z" transform="translate(-810.549 -3791.116)" fill="#c5c5f6"/>
        </g>
        <g id="그룹_200" data-name="그룹 200" transform="translate(20.714 0.911)">
          <path id="패스_270" data-name="패스 270" d="M809.622,3659.536a.574.574,0,0,0,.094.007.34.34,0,0,1,.171.031l.047.046.047.046a.151.151,0,0,1,.039.054.156.156,0,0,0,.039.054.957.957,0,0,1,.086.192.622.622,0,0,1,.008.3.973.973,0,0,1-.514.354.1.1,0,0,1-.07.031.266.266,0,0,1-.117-.046c-.021,0-.042-.02-.062-.062a.15.15,0,0,0-.07-.077.2.2,0,0,1-.07-.046.421.421,0,0,0-.094-.308c-.072-.051-.109-.087-.109-.108a.734.734,0,0,1,.047-.2,2,2,0,0,1,.109-.261,1.1,1.1,0,0,1,.2-.031.748.748,0,0,1,.14.015A.5.5,0,0,1,809.622,3659.536Z" transform="translate(-809.046 -3659.512)" fill="#c5c5f6"/>
        </g>
        <g id="그룹_201" data-name="그룹 201" transform="translate(7.805 0.793)">
          <path id="패스_271" data-name="패스 271" d="M750.95,3659.341a.3.3,0,0,1,.063-.029.287.287,0,0,0,.063-.03.254.254,0,0,1,.108.023.152.152,0,0,1,.054.037.189.189,0,0,1,.061.063.717.717,0,0,1,.112.4.467.467,0,0,1-.225.385l-.04.065a.148.148,0,0,1-.049.051.448.448,0,0,1-.037.054.133.133,0,0,1-.032.03,1.081,1.081,0,0,1-.122.066,1.1,1.1,0,0,1-.131.052.761.761,0,0,1-.141.068.957.957,0,0,0-.156.077.282.282,0,0,1-.383-.084,2.506,2.506,0,0,1-.249-.29.74.74,0,0,1-.085-.18.684.684,0,0,1-.026-.216c-.008-.076-.012-.158-.014-.245s0-.184,0-.292a.27.27,0,0,0,.064-.06l.069-.084.04-.066a.155.155,0,0,1,.049-.051.687.687,0,0,1,.452-.112A1.041,1.041,0,0,1,750.95,3659.341Z" transform="translate(-749.718 -3658.967)" fill="#d2375b"/>
        </g>
        <g id="그룹_202" data-name="그룹 202" transform="translate(9.449 18.792)">
          <path id="패스_272" data-name="패스 272" d="M758.505,3763.01a.322.322,0,0,1,.063-.03.26.26,0,0,0,.063-.029.265.265,0,0,1,.108.023.154.154,0,0,1,.054.037.2.2,0,0,1,.061.063.719.719,0,0,1,.112.4.468.468,0,0,1-.225.385l-.04.065a.157.157,0,0,1-.049.051.506.506,0,0,1-.037.054.135.135,0,0,1-.032.03,1.038,1.038,0,0,1-.122.066,1.167,1.167,0,0,1-.131.052.811.811,0,0,1-.141.068.886.886,0,0,0-.156.077.282.282,0,0,1-.383-.084,2.522,2.522,0,0,1-.249-.291.744.744,0,0,1-.085-.18.682.682,0,0,1-.026-.217c-.008-.076-.012-.158-.014-.245s0-.185,0-.292a.288.288,0,0,0,.064-.06l.069-.084.04-.065a.156.156,0,0,1,.049-.051.687.687,0,0,1,.452-.111A1.037,1.037,0,0,1,758.505,3763.01Z" transform="translate(-757.274 -3762.635)" fill="#d2375b"/>
        </g>
        <g id="그룹_203" data-name="그룹 203" transform="translate(13.522 15.926)">
          <path id="패스_273" data-name="패스 273" d="M776.565,3745.987a.541.541,0,0,0,.093.008.335.335,0,0,1,.17.03l.047.046.047.046a.15.15,0,0,1,.039.054.146.146,0,0,0,.039.053.976.976,0,0,1,.085.191.627.627,0,0,1,.008.3.969.969,0,0,1-.512.352.1.1,0,0,1-.07.031.271.271,0,0,1-.116-.046q-.031,0-.062-.061a.148.148,0,0,0-.07-.077.206.206,0,0,1-.07-.046.419.419,0,0,0-.093-.306c-.072-.051-.109-.087-.109-.107a.719.719,0,0,1,.047-.2,1.969,1.969,0,0,1,.108-.26,1.047,1.047,0,0,1,.2-.031.756.756,0,0,1,.14.015A.561.561,0,0,1,776.565,3745.987Z" transform="translate(-775.991 -3745.964)" fill="#6fb0b1"/>
        </g>
        <g id="그룹_204" data-name="그룹 204" transform="translate(10.473 6.811)">
          <path id="패스_274" data-name="패스 274" d="M762.518,3694.253a.194.194,0,0,1,.006-.049.212.212,0,0,0,.006-.049.185.185,0,0,1,.055-.055.108.108,0,0,1,.043-.019.143.143,0,0,1,.062-.012.525.525,0,0,1,.283.085.331.331,0,0,1,.148.28l.025.048a.106.106,0,0,1,.012.049.344.344,0,0,1,.019.042.093.093,0,0,1,.006.03.731.731,0,0,1-.006.1.819.819,0,0,1-.019.1.54.54,0,0,1-.012.109.631.631,0,0,0-.012.122c0,.105-.066.17-.2.195a1.829,1.829,0,0,1-.271.036.521.521,0,0,1-.142-.019.5.5,0,0,1-.142-.066c-.049-.024-.1-.053-.154-.085l-.179-.11a.2.2,0,0,0-.012-.061l-.025-.073-.025-.049a.108.108,0,0,1-.012-.049.475.475,0,0,1,.1-.31A.735.735,0,0,1,762.518,3694.253Z" transform="translate(-761.976 -3694.071)" fill="#fff"/>
        </g>
        <g id="그룹_205" data-name="그룹 205" transform="translate(27.026 23.571)">
          <path id="패스_275" data-name="패스 275" d="M838.595,3789.72a.207.207,0,0,1,.006-.049.2.2,0,0,0,.006-.049.178.178,0,0,1,.055-.054.1.1,0,0,1,.043-.018.14.14,0,0,1,.062-.012.528.528,0,0,1,.283.085.332.332,0,0,1,.148.28l.025.049a.1.1,0,0,1,.012.049.285.285,0,0,1,.018.042.1.1,0,0,1,.006.03.747.747,0,0,1-.006.1.728.728,0,0,1-.018.1.542.542,0,0,1-.012.109.624.624,0,0,0-.012.122q0,.158-.2.195a1.787,1.787,0,0,1-.271.037.563.563,0,0,1-.142-.018.5.5,0,0,1-.142-.067c-.049-.024-.1-.053-.154-.085l-.178-.11a.2.2,0,0,0-.012-.061l-.025-.073-.025-.049a.109.109,0,0,1-.012-.049.475.475,0,0,1,.1-.31A.741.741,0,0,1,838.595,3789.72Z" transform="translate(-838.053 -3789.538)" fill="#fff"/>
        </g>
        <g id="그룹_206" data-name="그룹 206" transform="translate(20.997 31.285)">
          <path id="패스_276" data-name="패스 276" d="M810.886,3836.071a.2.2,0,0,1,.006-.049.193.193,0,0,0,.006-.049.176.176,0,0,1,.056-.055.107.107,0,0,1,.043-.018.139.139,0,0,1,.062-.012.527.527,0,0,1,.283.085.331.331,0,0,1,.148.28l.025.048a.107.107,0,0,1,.012.049.3.3,0,0,1,.018.043.089.089,0,0,1,.006.03.723.723,0,0,1-.006.1.76.76,0,0,1-.018.1.544.544,0,0,1-.012.109.628.628,0,0,0-.012.122q0,.158-.2.195a1.808,1.808,0,0,1-.271.036.539.539,0,0,1-.142-.018.522.522,0,0,1-.142-.067c-.049-.025-.1-.053-.154-.085l-.179-.11a.19.19,0,0,0-.012-.06l-.025-.073-.025-.048a.112.112,0,0,1-.012-.049.474.474,0,0,1,.1-.31A.742.742,0,0,1,810.886,3836.071Z" transform="translate(-810.344 -3835.888)" fill="#fff"/>
        </g>
        <g id="그룹_207" data-name="그룹 207" transform="translate(0 6.798)">
          <path id="패스_277" data-name="패스 277" d="M715.206,3687.935a1.072,1.072,0,0,1-.877.248l-.214-.122a.428.428,0,0,1-.166-.675q.764-.561,1.05-.4l.214.121Q715.419,3687.751,715.206,3687.935Z" transform="translate(-713.85 -3686.952)" fill="#e48bdf"/>
        </g>
        <g id="그룹_208" data-name="그룹 208" transform="translate(24.123 8.596)">
          <path id="패스_278" data-name="패스 278" d="M826.068,3705.234a1.073,1.073,0,0,1-.877.248l-.214-.122a.428.428,0,0,1-.167-.675q.765-.561,1.05-.4l.214.122Q826.281,3705.05,826.068,3705.234Z" transform="translate(-824.711 -3704.251)" fill="#e48bdf"/>
        </g>
        <g id="그룹_209" data-name="그룹 209" transform="translate(17.499 27.504)">
          <path id="패스_279" data-name="패스 279" d="M795.624,3819.241a1.072,1.072,0,0,1-.877.248l-.214-.121a.428.428,0,0,1-.166-.676q.765-.561,1.05-.4l.214.122Q795.837,3819.057,795.624,3819.241Z" transform="translate(-794.267 -3818.258)" fill="#e48bdf"/>
        </g>
        <g id="그룹_210" data-name="그룹 210" transform="translate(25.699 18.692)">
          <path id="패스_280" data-name="패스 280" d="M833.308,3762.763a1.073,1.073,0,0,1-.877.248l-.214-.122a.428.428,0,0,1-.166-.675q.765-.56,1.05-.4l.214.122Q833.521,3762.578,833.308,3762.763Z" transform="translate(-831.951 -3761.78)" fill="#e48bdf"/>
        </g>
        <g id="그룹_211" data-name="그룹 211" transform="translate(9.573 11.26)">
          <path id="패스_281" data-name="패스 281" d="M759.2,3720.066a.6.6,0,0,1-.423.576h-.254a.658.658,0,0,1-.677-.448q.085-.768.423-.768h.254Q759.2,3719.829,759.2,3720.066Z" transform="translate(-757.844 -3719.425)" fill="#f6e6e4"/>
        </g>
        <g id="그룹_212" data-name="그룹 212" transform="translate(20.833 11.909)">
          <path id="패스_282" data-name="패스 282" d="M810.946,3723.762a.6.6,0,0,1-.423.576h-.254a.658.658,0,0,1-.677-.448q.085-.768.423-.768h.254Q810.946,3723.526,810.946,3723.762Z" transform="translate(-809.592 -3723.122)" fill="#f6e6e4"/>
        </g>
        <g id="그룹_214" data-name="그룹 214" transform="translate(16.928 33.572)">
          <g id="그룹_213" data-name="그룹 213">
            <path id="패스_283" data-name="패스 283" d="M793,3847.174a.6.6,0,0,1-.423.576h-.254a.658.658,0,0,1-.677-.448q.085-.768.423-.769h.254Q793,3846.939,793,3847.174Z" transform="translate(-791.646 -3846.534)" fill="#fdfb86"/>
          </g>
        </g>
      </g>
      <g id="c" transform="translate(15.739 0.475)">
        <ellipse id="타원_6" data-name="타원 6" cx="18.873" cy="7.338" rx="18.873" ry="7.338" transform="translate(0 24.068)" opacity="0.19" fill="url(#radial-gradient)"/>
        <g id="그룹_242" data-name="그룹 242" transform="translate(1.868)">
          <g id="그룹_238" data-name="그룹 238" transform="translate(0 7.51)">
            <path id="패스_284" data-name="패스 284" d="M554.745,3768.065V3780.5c0,4.119,7.49,7.459,16.729,7.459s16.729-3.34,16.729-7.459v-12.433Z" transform="translate(-554.311 -3759.337)" fill="#fff"/>
            <path id="패스_285" data-name="패스 285" d="M587.5,3741.616c0,4.186-7.612,7.58-17,7.58s-17-3.394-17-7.58,7.612-7.581,17-7.581S587.5,3737.429,587.5,3741.616Z" transform="translate(-551.334 -3728.302)" fill="#715c42"/>
            <rect id="사각형_14" data-name="사각형 14" width="2.836" height="13.738" transform="translate(16.072 0)" fill="#d15f60"/>
            <path id="패스_286" data-name="패스 286" d="M629.449,3752.91a1.433,1.433,0,1,1-1.418-1.225A1.332,1.332,0,0,1,629.449,3752.91Z" transform="translate(-610.541 -3741.797)" fill="#d15f60"/>
            <path id="패스_287" data-name="패스 287" d="M623.1,3753.1" transform="translate(-607.795 -3742.781)" fill="#725b47"/>
            <g id="그룹_217" data-name="그룹 217" transform="translate(16.072)">
              <g id="그룹_216" data-name="그룹 216" clip-path="url(#clip-path)">
                <g id="그룹_215" data-name="그룹 215" transform="translate(-0.982 -0.538)">
                  <path id="패스_288" data-name="패스 288" d="M622.1,3752.07s4.255-.108,4.364-2.478" transform="translate(-622.101 -3736.775)" fill="none" stroke="#db7e83" stroke-miterlimit="10" stroke-width="4"/>
                  <path id="패스_289" data-name="패스 289" d="M622.1,3743.548s4.255-.108,4.364-2.477" transform="translate(-622.101 -3730.085)" fill="none" stroke="#db7e83" stroke-miterlimit="10" stroke-width="4"/>
                  <path id="패스_290" data-name="패스 290" d="M622.1,3735.025s4.255-.108,4.364-2.478" transform="translate(-622.101 -3723.392)" fill="none" stroke="#db7e83" stroke-miterlimit="10" stroke-width="4"/>
                  <path id="패스_291" data-name="패스 291" d="M622.1,3726.5s4.255-.108,4.364-2.477" transform="translate(-622.101 -3716.701)" fill="none" stroke="#db7e83" stroke-miterlimit="10" stroke-width="4"/>
                  <path id="패스_292" data-name="패스 292" d="M622.1,3717.979s4.255-.108,4.364-2.477" transform="translate(-622.101 -3710.01)" fill="none" stroke="#db7e83" stroke-miterlimit="10" stroke-width="4"/>
                  <path id="패스_293" data-name="패스 293" d="M622.1,3709.457s4.255-.108,4.364-2.477" transform="translate(-622.101 -3703.318)" fill="none" stroke="#db7e83" stroke-miterlimit="10" stroke-width="4"/>
                  <path id="패스_294" data-name="패스 294" d="M622.1,3700.934s4.255-.108,4.364-2.477" transform="translate(-622.101 -3696.626)" fill="none" stroke="#db7e83" stroke-miterlimit="10" stroke-width="4"/>
                  <path id="패스_295" data-name="패스 295" d="M622.1,3692.412s4.255-.107,4.364-2.477" transform="translate(-622.101 -3689.935)" fill="none" stroke="#db7e83" stroke-miterlimit="10" stroke-width="4"/>
                </g>
                <path id="패스_296" data-name="패스 296" d="M635.637,3693.422V3708l1.091-.933.146-14.29Z" transform="translate(-633.673 -3692.703)" fill="#c83f47" opacity="0.5"/>
              </g>
            </g>
            <path id="패스_298" data-name="패스 298" d="M644.326,3766.639" transform="translate(-624.399 -3754.015)" fill="none"/>
            <g id="그룹_220" data-name="그룹 220" transform="translate(2.023 8.478)">
              <path id="패스_299" data-name="패스 299" d="M566.473,3745.791a1.8,1.8,0,1,1-1.795-1.772A1.784,1.784,0,0,1,566.473,3745.791Z" transform="translate(-562.701 -3744.018)" fill="#d15356"/>
              <path id="패스_300" data-name="패스 300" d="M566.088,3747.972s2.776-.131,2.31-1.969l-.133-.328a1.727,1.727,0,0,1,.6,1.9C568.465,3748.76,566.3,3748.365,566.088,3747.972Z" transform="translate(-565.209 -3745.318)" fill="#c83f47"/>
              <path id="패스_301" data-name="패스 301" d="M562.079,3754.3s-.149-.733.2-.689c0,0,.05.3.648.591s2.842.344,2.892-.591c0,0,.1-.049.1.689s-.648,1.329-1.795,1.379C563.507,3755.7,561.83,3755.284,562.079,3754.3Z" transform="translate(-562.047 -3751.548)" fill="#fff"/>
              <path id="패스_302" data-name="패스 302" d="M567.025,3745.451a.316.316,0,1,1-.316-.312A.313.313,0,0,1,567.025,3745.451Z" transform="translate(-565.448 -3744.898)" fill="#fff" opacity="0.5"/>
              <path id="패스_303" data-name="패스 303" d="M571.178,3745.1a.158.158,0,1,1-.158-.156A.157.157,0,0,1,571.178,3745.1Z" transform="translate(-568.945 -3744.749)" fill="#fff" opacity="0.5"/>
              <g id="그룹_219" data-name="그룹 219" transform="translate(0 2.06)">
                <g id="그룹_218" data-name="그룹 218" clip-path="url(#clip-path-2)">
                  <path id="패스_304" data-name="패스 304" d="M562.346,3757.569s1,.033,1.363-.591" transform="translate(-562.281 -3756.254)" fill="none" stroke="#dbdbdb" stroke-linecap="round" stroke-linejoin="round" stroke-width="3"/>
                  <path id="패스_305" data-name="패스 305" d="M560.3,3754.888a1.675,1.675,0,0,0,1.456-.308" transform="translate(-560.68 -3754.372)" fill="none" stroke="#dbdbdb" stroke-linecap="round" stroke-linejoin="round" stroke-width="3"/>
                  <path id="패스_306" data-name="패스 306" d="M565.95,3758.208a1.925,1.925,0,0,0,1.709-1.229" transform="translate(-565.101 -3756.254)" fill="none" stroke="#dbdbdb" stroke-linecap="round" stroke-linejoin="round" stroke-width="3"/>
                  <path id="패스_307" data-name="패스 307" d="M572.218,3757.03a2.4,2.4,0,0,0,1.331-1.893" transform="translate(-570.005 -3754.808)" fill="none" stroke="#dbdbdb" stroke-linecap="round" stroke-linejoin="round" stroke-width="3"/>
                </g>
              </g>
            </g>
            <g id="그룹_223" data-name="그룹 223" transform="translate(8.147 12.073)">
              <path id="패스_309" data-name="패스 309" d="M595.032,3768.1a1.964,1.964,0,1,1-1.964-1.938A1.951,1.951,0,0,1,595.032,3768.1Z" transform="translate(-590.906 -3766.164)" fill="#d15356"/>
              <path id="패스_310" data-name="패스 310" d="M594.611,3770.489s3.036-.143,2.527-2.154l-.146-.359a1.889,1.889,0,0,1,.655,2.083C597.211,3771.351,594.848,3770.92,594.611,3770.489Z" transform="translate(-593.649 -3767.587)" fill="#c83f47"/>
              <path id="패스_311" data-name="패스 311" d="M590.225,3777.412s-.163-.8.218-.754c0,0,.054.323.709.646s3.109.377,3.164-.646c0,0,.109-.054.109.754s-.709,1.454-1.964,1.508C591.788,3778.949,589.953,3778.489,590.225,3777.412Z" transform="translate(-590.191 -3774.402)" fill="#fff"/>
              <path id="패스_312" data-name="패스 312" d="M595.636,3767.731a.345.345,0,1,1-.345-.341A.343.343,0,0,1,595.636,3767.731Z" transform="translate(-593.911 -3767.127)" fill="#fff" opacity="0.5"/>
              <path id="패스_313" data-name="패스 313" d="M600.179,3767.352a.173.173,0,1,1-.173-.17A.172.172,0,0,1,600.179,3767.352Z" transform="translate(-597.736 -3766.963)" fill="#fff" opacity="0.5"/>
              <g id="그룹_222" data-name="그룹 222" transform="translate(0 2.254)">
                <g id="그룹_221" data-name="그룹 221" clip-path="url(#clip-path-3)">
                  <path id="패스_314" data-name="패스 314" d="M590.517,3780.988s1.091.035,1.491-.646" transform="translate(-590.446 -3779.549)" fill="none" stroke="#dbdbdb" stroke-linecap="round" stroke-linejoin="round" stroke-width="3"/>
                  <path id="패스_315" data-name="패스 315" d="M588.28,3778.056a1.832,1.832,0,0,0,1.592-.337" transform="translate(-588.696 -3777.49)" fill="none" stroke="#dbdbdb" stroke-linecap="round" stroke-linejoin="round" stroke-width="3"/>
                  <path id="패스_316" data-name="패스 316" d="M594.46,3781.685a2.105,2.105,0,0,0,1.869-1.344" transform="translate(-593.531 -3779.549)" fill="none" stroke="#dbdbdb" stroke-linecap="round" stroke-linejoin="round" stroke-width="3"/>
                  <path id="패스_317" data-name="패스 317" d="M601.317,3780.4a2.621,2.621,0,0,0,1.456-2.071" transform="translate(-598.896 -3777.967)" fill="none" stroke="#dbdbdb" stroke-linecap="round" stroke-linejoin="round" stroke-width="3"/>
                </g>
              </g>
            </g>
            <g id="그룹_226" data-name="그룹 226" transform="translate(19.929 12.456)">
              <path id="패스_319" data-name="패스 319" d="M649.176,3770.443a1.964,1.964,0,1,1-1.964-1.939A1.951,1.951,0,0,1,649.176,3770.443Z" transform="translate(-645.05 -3768.504)" fill="#d15356"/>
              <path id="패스_320" data-name="패스 320" d="M648.756,3772.828s3.036-.143,2.527-2.154l-.146-.359a1.89,1.89,0,0,1,.655,2.083C651.356,3773.69,648.992,3773.259,648.756,3772.828Z" transform="translate(-647.794 -3769.926)" fill="#c83f47"/>
              <path id="패스_321" data-name="패스 321" d="M644.369,3779.75s-.163-.8.218-.754c0,0,.054.323.709.646s3.109.377,3.164-.646c0,0,.109-.054.109.754s-.709,1.454-1.964,1.508C645.932,3781.287,644.1,3780.828,644.369,3779.75Z" transform="translate(-644.335 -3776.741)" fill="#fff"/>
              <path id="패스_322" data-name="패스 322" d="M649.78,3770.071a.345.345,0,1,1-.345-.341A.343.343,0,0,1,649.78,3770.071Z" transform="translate(-648.055 -3769.467)" fill="#fff" opacity="0.5"/>
              <path id="패스_323" data-name="패스 323" d="M654.324,3769.692a.173.173,0,1,1-.173-.17A.171.171,0,0,1,654.324,3769.692Z" transform="translate(-651.88 -3769.303)" fill="#fff" opacity="0.5"/>
              <g id="그룹_225" data-name="그룹 225" transform="translate(0 2.254)">
                <g id="그룹_224" data-name="그룹 224" clip-path="url(#clip-path-4)">
                  <path id="패스_324" data-name="패스 324" d="M644.661,3783.327s1.091.036,1.491-.646" transform="translate(-644.59 -3781.889)" fill="none" stroke="#dbdbdb" stroke-linecap="round" stroke-linejoin="round" stroke-width="3"/>
                  <path id="패스_325" data-name="패스 325" d="M642.424,3780.4a1.831,1.831,0,0,0,1.592-.337" transform="translate(-642.84 -3779.83)" fill="none" stroke="#dbdbdb" stroke-linecap="round" stroke-linejoin="round" stroke-width="3"/>
                  <path id="패스_326" data-name="패스 326" d="M648.6,3784.026a2.107,2.107,0,0,0,1.869-1.344" transform="translate(-647.675 -3781.889)" fill="none" stroke="#dbdbdb" stroke-linecap="round" stroke-linejoin="round" stroke-width="3"/>
                  <path id="패스_327" data-name="패스 327" d="M655.461,3782.736a2.62,2.62,0,0,0,1.456-2.071" transform="translate(-653.04 -3780.306)" fill="none" stroke="#dbdbdb" stroke-linecap="round" stroke-linejoin="round" stroke-width="3"/>
                </g>
              </g>
            </g>
            <g id="그룹_229" data-name="그룹 229" transform="translate(28.547 9.681)">
              <path id="패스_329" data-name="패스 329" d="M688.282,3753.03a1.761,1.761,0,1,1-1.761-1.739A1.75,1.75,0,0,1,688.282,3753.03Z" transform="translate(-684.582 -3751.292)" fill="#d15356"/>
              <path id="패스_330" data-name="패스 330" d="M687.9,3755.17s2.724-.128,2.267-1.932l-.13-.322a1.7,1.7,0,0,1,.587,1.868C690.237,3755.943,688.117,3755.557,687.9,3755.17Z" transform="translate(-687.042 -3752.567)" fill="#c83f47"/>
              <path id="패스_331" data-name="패스 331" d="M683.972,3761.379s-.146-.719.2-.676c0,0,.049.29.636.58s2.789.338,2.838-.58c0,0,.1-.048.1.676s-.636,1.3-1.761,1.353C685.373,3762.758,683.727,3762.345,683.972,3761.379Z" transform="translate(-683.941 -3758.679)" fill="#fff"/>
              <path id="패스_332" data-name="패스 332" d="M688.825,3752.7a.31.31,0,1,1-.309-.306A.308.308,0,0,1,688.825,3752.7Z" transform="translate(-687.278 -3752.155)" fill="#fff" opacity="0.5"/>
              <path id="패스_333" data-name="패스 333" d="M692.9,3752.356a.155.155,0,1,1-.155-.153A.154.154,0,0,1,692.9,3752.356Z" transform="translate(-690.709 -3752.008)" fill="#fff" opacity="0.5"/>
              <g id="그룹_228" data-name="그룹 228" transform="translate(0 2.022)">
                <g id="그룹_227" data-name="그룹 227" clip-path="url(#clip-path-5)">
                  <path id="패스_334" data-name="패스 334" d="M684.233,3764.587s.979.032,1.337-.58" transform="translate(-684.169 -3763.297)" fill="none" stroke="#dbdbdb" stroke-linecap="round" stroke-linejoin="round" stroke-width="3"/>
                  <path id="패스_335" data-name="패스 335" d="M682.227,3761.957a1.641,1.641,0,0,0,1.428-.3" transform="translate(-682.6 -3761.449)" fill="none" stroke="#dbdbdb" stroke-linecap="round" stroke-linejoin="round" stroke-width="3"/>
                  <path id="패스_336" data-name="패스 336" d="M687.77,3765.213a1.889,1.889,0,0,0,1.677-1.206" transform="translate(-686.937 -3763.297)" fill="none" stroke="#dbdbdb" stroke-linecap="round" stroke-linejoin="round" stroke-width="3"/>
                  <path id="패스_337" data-name="패스 337" d="M693.92,3764.057a2.35,2.35,0,0,0,1.306-1.857" transform="translate(-691.748 -3761.878)" fill="none" stroke="#dbdbdb" stroke-linecap="round" stroke-linejoin="round" stroke-width="3"/>
                </g>
              </g>
            </g>
            <g id="그룹_232" data-name="그룹 232" transform="translate(10.879 5.838)">
              <path id="패스_339" data-name="패스 339" d="M606.9,3729.531a1.683,1.683,0,1,1-1.683-1.662A1.672,1.672,0,0,1,606.9,3729.531Z" transform="translate(-603.36 -3727.869)" fill="#d15356"/>
              <path id="패스_340" data-name="패스 340" d="M606.535,3731.575s2.6-.123,2.166-1.846l-.125-.308a1.62,1.62,0,0,1,.561,1.785C608.763,3732.314,606.738,3731.944,606.535,3731.575Z" transform="translate(-605.711 -3729.088)" fill="#c83f47"/>
              <path id="패스_341" data-name="패스 341" d="M602.777,3737.508s-.14-.687.187-.646c0,0,.047.277.608.553s2.665.324,2.711-.553c0,0,.094-.046.094.646s-.608,1.247-1.683,1.292C604.116,3738.825,602.544,3738.431,602.777,3737.508Z" transform="translate(-602.747 -3734.929)" fill="#fff"/>
              <path id="패스_342" data-name="패스 342" d="M607.414,3729.213a.3.3,0,1,1-.3-.292A.293.293,0,0,1,607.414,3729.213Z" transform="translate(-605.935 -3728.695)" fill="#fff" opacity="0.5"/>
              <path id="패스_343" data-name="패스 343" d="M611.308,3728.887a.148.148,0,1,1-.148-.146A.147.147,0,0,1,611.308,3728.887Z" transform="translate(-609.214 -3728.554)" fill="#fff" opacity="0.5"/>
              <g id="그룹_231" data-name="그룹 231" transform="translate(0 1.932)">
                <g id="그룹_230" data-name="그룹 230" clip-path="url(#clip-path-6)">
                  <path id="패스_344" data-name="패스 344" d="M603.027,3740.573s.935.031,1.278-.554" transform="translate(-602.966 -3739.34)" fill="none" stroke="#dbdbdb" stroke-linecap="round" stroke-linejoin="round" stroke-width="3"/>
                  <path id="패스_345" data-name="패스 345" d="M601.109,3738.06a1.57,1.57,0,0,0,1.365-.289" transform="translate(-601.465 -3737.575)" fill="none" stroke="#dbdbdb" stroke-linecap="round" stroke-linejoin="round" stroke-width="3"/>
                  <path id="패스_346" data-name="패스 346" d="M606.406,3741.171a1.8,1.8,0,0,0,1.6-1.152" transform="translate(-605.61 -3739.34)" fill="none" stroke="#dbdbdb" stroke-linecap="round" stroke-linejoin="round" stroke-width="3"/>
                  <path id="패스_347" data-name="패스 347" d="M612.283,3740.067a2.246,2.246,0,0,0,1.248-1.775" transform="translate(-610.208 -3737.984)" fill="none" stroke="#dbdbdb" stroke-linecap="round" stroke-linejoin="round" stroke-width="3"/>
                </g>
              </g>
            </g>
            <g id="그룹_235" data-name="그룹 235" transform="translate(21.206 6.113)">
              <path id="패스_349" data-name="패스 349" d="M654.356,3731.2a1.683,1.683,0,1,1-1.683-1.661A1.672,1.672,0,0,1,654.356,3731.2Z" transform="translate(-650.819 -3729.539)" fill="#d15356"/>
              <path id="패스_350" data-name="패스 350" d="M653.995,3733.246s2.6-.123,2.166-1.846l-.125-.308a1.619,1.619,0,0,1,.561,1.785C656.223,3733.984,654.2,3733.615,653.995,3733.246Z" transform="translate(-653.171 -3730.758)" fill="#c83f47"/>
              <path id="패스_351" data-name="패스 351" d="M650.236,3739.179s-.14-.687.187-.646c0,0,.047.277.608.553s2.665.323,2.711-.553c0,0,.094-.046.094.646s-.608,1.246-1.683,1.292C651.575,3740.5,650,3740.1,650.236,3739.179Z" transform="translate(-650.207 -3736.6)" fill="#fff"/>
              <path id="패스_352" data-name="패스 352" d="M654.874,3730.883a.3.3,0,1,1-.3-.292A.294.294,0,0,1,654.874,3730.883Z" transform="translate(-653.395 -3730.365)" fill="#fff" opacity="0.5"/>
              <path id="패스_353" data-name="패스 353" d="M658.768,3730.558a.148.148,0,1,1-.148-.146A.147.147,0,0,1,658.768,3730.558Z" transform="translate(-656.673 -3730.224)" fill="#fff" opacity="0.5"/>
              <g id="그룹_234" data-name="그룹 234" transform="translate(0 1.932)">
                <g id="그룹_233" data-name="그룹 233" clip-path="url(#clip-path-7)">
                  <path id="패스_354" data-name="패스 354" d="M650.487,3742.243s.935.031,1.278-.554" transform="translate(-650.426 -3741.011)" fill="none" stroke="#dbdbdb" stroke-linecap="round" stroke-linejoin="round" stroke-width="3"/>
                  <path id="패스_355" data-name="패스 355" d="M648.569,3739.731a1.57,1.57,0,0,0,1.365-.289" transform="translate(-648.925 -3739.247)" fill="none" stroke="#dbdbdb" stroke-linecap="round" stroke-linejoin="round" stroke-width="3"/>
                  <path id="패스_356" data-name="패스 356" d="M653.866,3742.841a1.805,1.805,0,0,0,1.6-1.152" transform="translate(-653.07 -3741.011)" fill="none" stroke="#dbdbdb" stroke-linecap="round" stroke-linejoin="round" stroke-width="3"/>
                  <path id="패스_357" data-name="패스 357" d="M659.743,3741.738a2.246,2.246,0,0,0,1.248-1.775" transform="translate(-657.668 -3739.656)" fill="none" stroke="#dbdbdb" stroke-linecap="round" stroke-linejoin="round" stroke-width="3"/>
                </g>
              </g>
            </g>
            <path id="패스_359" data-name="패스 359" d="M552.751,3771.982c0,.646,0,2.442.507,2.944,1.3,1.292.941-1.436,1.3-1.8.8-1.005,1.014.215,1.086.862.145,1.652-.435,1.831-.217,3.483.217,1.292,1.665,2.441,2.172.862.2-.616-.289-3.2,1.086-2.19.579.431.072,2.154,1.086,2.082.818-.057.224-1.883,1.455-1.349.581.251.675,1.064.74,1.6.078.647.6,3.272,1.716,3.411,2.317.287,2.591-3.19,2.907-3.667a1.119,1.119,0,0,1,2.037.345,1.684,1.684,0,0,0,1.573,1.06c1.521,0,.6-1.272,2.1-1.328a1.506,1.506,0,0,1,1.738,1.077c.395.9,1.3,1.321,1.959.333s.351-3.182,1.734-3.421c1.417-.245,1.452,1.084,2.752,1.58,1.367.521,1.937-3.408,2.969-3.375.735-.221.8,4.309,1.824,3.94,1.374-.427,1.873-3.636,1.87-4.873,0-1.649-.29-3.091-.29-4.74,0,0,.832,1.8-3.947,4.344-5.01,2.672-11.334,3.77-19.228,2.262s-10.5-5.637-10.718-6.786Z" transform="translate(-552.751 -3757.653)" fill="#725b47"/>
            <path id="패스_360" data-name="패스 360" d="M597.034,3811.258c0,.969.546,3.123,1.309,3.447" transform="translate(-587.398 -3791.601)" fill="none" stroke="#5f4938" stroke-miterlimit="10" stroke-width="1"/>
            <path id="패스_361" data-name="패스 361" d="M566.47,3802.569c.073.718-.436,1.759.4,2.621" transform="translate(-563.417 -3784.216)" fill="none" stroke="#5f4938" stroke-miterlimit="10" stroke-width="0.75"/>
            <path id="패스_362" data-name="패스 362" d="M554.1,3784.519c.073.718-.436,1.759.4,2.621" transform="translate(-553.741 -3769.174)" fill="none" stroke="#5f4938" stroke-miterlimit="10" stroke-width="0.75"/>
            <g id="그룹_237" data-name="그룹 237" transform="translate(0.162 5.733)">
              <g id="그룹_236" data-name="그룹 236" clip-path="url(#clip-path-8)">
                <path id="패스_363" data-name="패스 363" d="M567.117,3771.529c-8.018-.609-14.123-3.723-14.123-7.473" transform="translate(-553.104 -3757.606)" fill="none" stroke="#9f8c76" stroke-linecap="round" stroke-linejoin="round" stroke-width="4"/>
                <path id="패스_364" data-name="패스 364" d="M642.042,3798.431a36.621,36.621,0,0,1-3.9.294" transform="translate(-619.721 -3784.596)" fill="none" stroke="#9f8c76" stroke-linecap="round" stroke-linejoin="round" stroke-width="4"/>
                <path id="패스_365" data-name="패스 365" d="M623.711,3798.147a.345.345,0,1,1-.345-.341A.343.343,0,0,1,623.711,3798.147Z" transform="translate(-607.892 -3784.106)" fill="#fff" opacity="0.5"/>
                <path id="패스_366" data-name="패스 366" d="M632.735,3798.481a.345.345,0,1,1-.345-.341A.343.343,0,0,1,632.735,3798.481Z" transform="translate(-614.953 -3784.367)" fill="#fff" opacity="0.5"/>
                <path id="패스_367" data-name="패스 367" d="M694.857,3765.969s.727,3.16-4.073,4.775" transform="translate(-660.91 -3759.108)" fill="none" stroke="#5f4938" stroke-linecap="round" stroke-linejoin="round" stroke-width="4"/>
              </g>
            </g>
            <path id="패스_369" data-name="패스 369" d="M694.126,3794.38c1.382.287.8,3.159,1.891,3.877.146-.072.146-.215.218-.431" transform="translate(-663.363 -3777.583)" fill="none" stroke="#5f4938" stroke-miterlimit="10" stroke-width="0.75"/>
            <path id="패스_370" data-name="패스 370" d="M669.728,3802.351c1.309-.215,2.036,2.3,2.691,1.293" transform="translate(-644.274 -3783.859)" fill="none" stroke="#5f4938" stroke-miterlimit="10" stroke-width="0.75"/>
            <path id="패스_371" data-name="패스 371" d="M648,3813.095c.727.072.946,1.867,1.673,1.651" transform="translate(-627.276 -3792.827)" fill="none" stroke="#5f4938" stroke-miterlimit="10" stroke-width="0.75"/>
            <path id="패스_372" data-name="패스 372" d="M621.6,3810.036c1.236-.216,1.018,2.154,2.691,1.723" transform="translate(-606.618 -3790.29)" fill="none" stroke="#5f4938" stroke-miterlimit="10" stroke-width="0.75"/>
            <path id="패스_373" data-name="패스 373" d="M606.559,3826.464" transform="translate(-594.85 -3803.661)" fill="none" stroke="#5f4938" stroke-miterlimit="10" stroke-width="0.75"/>
            <path id="패스_374" data-name="패스 374" d="M595.2,3808.416" transform="translate(-585.96 -3788.683)" fill="none" stroke="#5f4938" stroke-miterlimit="10" stroke-width="0.75"/>
            <path id="패스_375" data-name="패스 375" d="M584.166,3810.421" transform="translate(-577.33 -3790.347)" fill="none" stroke="#5f4938" stroke-miterlimit="10" stroke-width="0.75"/>
            <path id="패스_376" data-name="패스 376" d="M571.132,3815.1" transform="translate(-567.132 -3794.23)" fill="none" stroke="#5f4938" stroke-miterlimit="10" stroke-width="0.75"/>
            <path id="패스_377" data-name="패스 377" d="M558.431,3796.718" transform="translate(-557.195 -3778.976)" fill="none" stroke="#5f4938" stroke-miterlimit="10" stroke-width="0.75"/>
            <path id="패스_378" data-name="패스 378" d="M617.923,3809.753" transform="translate(-603.742 -3789.793)" fill="none" stroke="#5f4938" stroke-miterlimit="10" stroke-width="0.75"/>
          </g>
          <g id="그룹_241" data-name="그룹 241" transform="translate(15.263)">
            <path id="패스_379" data-name="패스 379" d="M629.58,3688.516a1.433,1.433,0,1,1-1.379-1.268A1.334,1.334,0,0,1,629.58,3688.516Z" transform="translate(-625.907 -3680.853)" fill="#db7e83"/>
            <line id="선_1" data-name="선 1" y1="3.445" x2="0.108" transform="translate(2.147 4.171)" fill="none" stroke="#6c5c55" stroke-miterlimit="10" stroke-width="3"/>
            <path id="패스_380" data-name="패스 380" d="M628.519,3666.574h0a1.046,1.046,0,0,0-.051-.273h0c-.01-.036-.023-.077-.038-.121-.007-.021-.014-.042-.022-.063a4.72,4.72,0,0,0-.193-.454c-.327-.681-1.389-2.295-1.389-2.295a17.931,17.931,0,0,0-1.736,2.558,1.713,1.713,0,0,0-.112.265c-.007.021-.013.039-.019.059s-.02.069-.027.1c0,.01-.007.022-.009.032h0a1.829,1.829,0,0,0-.037.273,1.82,1.82,0,0,0,3.635.178A1.768,1.768,0,0,0,628.519,3666.574Z" transform="translate(-624.456 -3662.105)" fill="#df9146"/>
            <path id="패스_381" data-name="패스 381" d="M630.137,3673.713h0a.69.69,0,0,0-.034-.179h0c-.007-.023-.015-.05-.025-.08,0-.014-.009-.027-.014-.041a3.186,3.186,0,0,0-.126-.3c-.214-.446-.911-1.5-.911-1.5a11.725,11.725,0,0,0-1.139,1.677,1.106,1.106,0,0,0-.074.174c0,.013-.009.026-.012.039s-.013.045-.018.069c0,.007,0,.015-.006.021h0a1.211,1.211,0,0,0-.024.179,1.193,1.193,0,0,0,2.384.117A1.13,1.13,0,0,0,630.137,3673.713Z" transform="translate(-626.7 -3668.577)" fill="#cb5721"/>
            <g id="그룹_240" data-name="그룹 240">
              <g id="그룹_239" data-name="그룹 239">
                <path id="패스_382" data-name="패스 382" d="M625.122,3657.486l.143,2.058,2.085.141-2.085.14-.143,2.059-.142-2.059-2.085-.14,2.085-.141Z" transform="translate(-622.895 -3657.486)" fill="#fff"/>
                <path id="패스_383" data-name="패스 383" d="M629.742,3661.723l-1.138,1.289,1.138,1.289-1.306-1.124-1.305,1.124,1.138-1.289-1.138-1.289,1.305,1.124Z" transform="translate(-626.209 -3660.813)" fill="#fff"/>
              </g>
              <path id="패스_769" data-name="패스 769" d="M1.048,0A1.064,1.064,0,0,1,2.1,1.066a1.05,1.05,0,0,1-1.048,1.06A1.064,1.064,0,0,1,0,1.06,1.05,1.05,0,0,1,1.048,0Z" transform="translate(0.95 3.027) rotate(-76.66)" fill="#fff" opacity="0.5"/>
            </g>
          </g>
        </g>
      </g>
    </g>
  </g>
</svg>
