<svg xmlns="http://www.w3.org/2000/svg" width="48" height="48" viewBox="0 0 48 48">
    <g fill="none" fill-rule="evenodd">
        <g>
            <g>
                <g>
                    <path d="M0 0H48V48H0z" transform="translate(-156 -101) translate(136 101) translate(20)"/>
                    <g fill="#FFF">
                        <path d="M30.38.444c1.519 0 2.75 1.232 2.75 2.75V25.83c0 .296-.048.59-.141.87-.48 1.44-2.037 2.22-3.478 1.74l-10.06-3.352c-1.266 2.597-4.309 3.882-7.094 2.89-2.71-.965-4.246-3.753-3.72-6.493l-2.14-.713c-1.123-.374-1.88-1.425-1.88-2.609v-7.301c0-1.184.757-2.235 1.88-2.61L29.511.586c.28-.093.574-.14.869-.14zm0 1.5c-.134 0-.268.022-.395.065L6.972 9.676c-.51.17-.855.648-.855 1.186v7.301c0 .538.344 1.016.855 1.186l23.013 7.667c.655.219 1.363-.135 1.58-.79.043-.128.065-.261.065-.396V3.194c0-.69-.56-1.25-1.25-1.25zM12.86 26.565c1.993.71 4.165-.158 5.15-1.956l-7.933-2.644c-.28 1.96.846 3.91 2.783 4.6zM1.63 8.93c.38 0 .693.282.743.648l.007.102v9.655c0 .415-.336.75-.75.75-.38 0-.693-.282-.743-.648l-.007-.102V9.68c0-.414.336-.75.75-.75z" transform="translate(-156 -101) translate(136 101) translate(20) translate(7 9.32)"/>
                    </g>
                </g>
            </g>
        </g>
    </g>
</svg>
