<svg xmlns="http://www.w3.org/2000/svg" width="48" height="48" viewBox="0 0 48 48">
    <g fill="none" fill-rule="evenodd">
        <g>
            <g>
                <g>
                    <path d="M0 0H48V48H0z" transform="translate(-56 -101) translate(36 101) translate(20)"/>
                    <g fill="#FFF">
                        <path d="M19.136.605c1.19 0 2.165.925 2.245 2.096l.005.154-.001 8.499 13.277.001c1.191 0 2.166.925 2.245 2.096l.005.154v13.454c0 1.19-.925 2.166-2.096 2.245l-.154.005-5.619-.001-2.32 2.34c-.36.362-.926.392-1.32.09l-.094-.083-2.371-2.347h-5.072c-1.19 0-2.165-.924-2.244-2.095l-.006-.154v-8.501h-2.099l-2.32 2.34c-.33.332-.833.385-1.218.158l-.102-.069-.094-.082-2.371-2.347H2.34c-1.137 0-2.077-.842-2.229-1.937l-.016-.158-.005-.154V2.855c0-1.19.925-2.166 2.096-2.245L2.34.605h16.796zm2.249 12.249v3.455c0 1.19-.924 2.166-2.095 2.245l-.154.005-2.02-.001v8.5c0 .38.282.694.649.744l.101.007h5.298c.209 0 .41.068.575.193l.094.082 2.176 2.152 2.13-2.146c.15-.15.343-.245.55-.273l.125-.008h5.848c.38 0 .694-.282.743-.648l.007-.102V13.605c0-.38-.282-.693-.648-.743l-.102-.007-13.277-.001zm4.88 9.976c.483 0 .875.392.875.875s-.392.875-.875.875-.875-.392-.875-.875.392-.875.875-.875zm0-5.5c.414 0 .75.336.75.75v3c0 .414-.336.75-.75.75s-.75-.336-.75-.75v-3c0-.414.336-.75.75-.75zm-7.13-15.225H2.34c-.38 0-.693.282-.743.648l-.007.102v13.454c0 .38.282.693.648.743l.102.007h5.298c.209 0 .41.068.574.193l.094.082 2.176 2.153 2.132-2.147c.118-.12.266-.205.426-.248l.122-.025.126-.008h5.848c.38 0 .693-.282.743-.648l.007-.102V2.855c0-.414-.336-.75-.75-.75zM7.24 9.13c.483 0 .875.392.875.875s-.392.875-.875.875-.875-.392-.875-.875.392-.875.875-.875zm3.5 0c.483 0 .875.392.875.875s-.392.875-.875.875-.875-.392-.875-.875.392-.875.875-.875zm3.5 0c.483 0 .875.392.875.875s-.392.875-.875.875-.875-.392-.875-.875.392-.875.875-.875z" transform="translate(-56 -101) translate(36 101) translate(20) translate(5.5 7.3)"/>
                    </g>
                </g>
            </g>
        </g>
    </g>
</svg>
