<svg xmlns="http://www.w3.org/2000/svg" width="360" height="34" viewBox="0 0 360 34">
    <g fill="none" fill-rule="evenodd" transform="translate(-120 -2330)">
        <path fill="#FFF" d="M479.915 2330.77c.163.45.106 1-.299 1.322L480 2332v396H120v-396l.338.08-.034-.03c-.326-.325-.387-.85-.197-1.28.194-.5.694-.864 1.26-.749.38.079.81.214 1.141.331 47.891 16.19 109.949 25.35 177.489 25.35 67.545 0 129.597-9.16 177.504-25.35.308-.117.74-.252 1.15-.33.533-.116 1.026.248 1.264.748z"/>
    </g>
</svg>
