<svg xmlns="http://www.w3.org/2000/svg" id="icon_40_advice" width="40" height="40" viewBox="0 0 40 40">
    <defs>
        <style>
            .cls-2,.cls-3{fill:none;stroke:#333;stroke-linecap:round;stroke-linejoin:round;stroke-width:1.5px}.cls-3{fill:#fff}
        </style>
    </defs>
    <g id="그룹_3" transform="translate(6.333 6.999)">
        <path id="패스_2" d="M-96.8 234.395v-9.632a10.308 10.308 0 0 1 10.308-10.308 10.309 10.309 0 0 1 10.308 10.308v9.632" class="cls-2" transform="translate(99.927 -214.455)"/>
        <path id="패스_3" d="M-78.67 217.109l-.9 1.382a8.1 8.1 0 0 0-4.338-1.253 8.108 8.108 0 0 0-3.713.9l-1.019-1.7" class="cls-2" transform="translate(97.343 -215.081)"/>
        <path id="패스_4" d="M-101.376 238.094a2.6 2.6 0 0 0 2.6 2.6 2.6 2.6 0 0 0 2.6-2.6V231.5a2.6 2.6 0 0 0-2.6-2.6 2.6 2.6 0 0 0-2.6 2.6z" class="cls-3" transform="translate(101.376 -219.031)"/>
        <path id="패스_5" d="M-93.82 239.3a1.408 1.408 0 0 1-1.407 1.407 1.408 1.408 0 0 1-1.408-1.407v-9.046a1.408 1.408 0 0 1 1.408-1.407 1.408 1.408 0 0 1 1.407 1.407z" class="cls-3" transform="translate(99.875 -219.014)"/>
        <path id="패스_6" d="M-63.784 237.977a2.582 2.582 0 0 1-2.6 2.565 2.581 2.581 0 0 1-2.6-2.565v-6.507a2.581 2.581 0 0 1 2.6-2.565 2.582 2.582 0 0 1 2.6 2.565z" class="cls-3" transform="translate(91.117 -219.031)"/>
        <path id="패스_7" d="M-70.238 239.3a1.408 1.408 0 0 0 1.408 1.407 1.408 1.408 0 0 0 1.407-1.407v-9.046a1.408 1.408 0 0 0-1.407-1.407 1.408 1.408 0 0 0-1.408 1.407z" class="cls-3" transform="translate(91.516 -219.014)"/>
        <path id="패스_8" fill="#333" d="M-80.04 252.627a.663.663 0 0 1-.694-.628.663.663 0 0 1 .694-.628h2.69a.663.663 0 0 1 .693.628.663.663 0 0 1-.693.628z" transform="translate(94.839 -226.145)"/>
        <path id="패스_9" d="M-69.5 245.934a4.5 4.5 0 0 1-4.5 4.5 4.491 4.491 0 0 1-1.575-.284" class="cls-2" transform="translate(93.207 -224.423)"/>
    </g>
</svg>
