<svg xmlns="http://www.w3.org/2000/svg" width="40" height="40" viewBox="0 0 40 40">
    <defs>
        <style>
            .cls-2{fill:none;stroke:#333;stroke-linecap:round;stroke-linejoin:round;stroke-width:1.5px}
        </style>
    </defs>
    <g id="icon_40_shopping" transform="translate(-568 -19)">
        <g id="그룹_31" transform="translate(575.394 25.722)">
            <path id="패스_22" d="M1653.534 447.7l-.2-2.933a1.419 1.419 0 0 0-1.416-1.325h-17.208a1.419 1.419 0 0 0-1.416 1.325l-1.129 16.935a2.838 2.838 0 0 0 2.832 3.027h5.676" class="cls-2" transform="translate(-1632.158 -437.766)"/>
            <g id="그룹_28" transform="translate(13.127 18.981)">
                <path id="패스_23" fill="none" fill-rule="evenodd" stroke="#333" stroke-linecap="round" stroke-linejoin="round" stroke-width="1.5px" d="M1663.431 471.217h-11.073a.673.673 0 0 1-.672-.672v-6.638a.673.673 0 0 1 .672-.672h11.073a.672.672 0 0 1 .672.672v6.638a.672.672 0 0 1-.672.672z" transform="translate(-1651.686 -463.234)"/>
            </g>
            <g id="그룹_29" transform="translate(19.336 14.191)">
                <path id="패스_24" d="M1661.018 460.905a5.057 5.057 0 0 0 3.44-1.332 2.094 2.094 0 0 0 0-2.87 1.888 1.888 0 0 0-2.751 0c-1.162 1.214-.689 4.202-.689 4.202z" class="cls-2" transform="translate(-1660.923 -456.109)"/>
            </g>
            <g id="그룹_30" transform="translate(15.231 14.191)">
                <path id="패스_25" d="M1658.826 460.905a5.057 5.057 0 0 1-3.44-1.332 2.093 2.093 0 0 1 0-2.87 1.888 1.888 0 0 1 2.75 0c1.164 1.214.69 4.202.69 4.202z" class="cls-2" transform="translate(-1654.815 -456.109)"/>
            </g>
            <path id="패스_26" d="M1642.423 443.512v-4.257a4.257 4.257 0 0 1 4.258-4.257 4.257 4.257 0 0 1 4.257 4.257v4.257" class="cls-2" transform="translate(-1635.523 -434.998)"/>
        </g>
    </g>
</svg>
