<svg xmlns="http://www.w3.org/2000/svg" width="40" height="40" viewBox="0 0 40 40">
    <defs>
        <style>
            .cls-2{fill:none;stroke:#333;stroke-linecap:round;stroke-linejoin:round;stroke-width:1.5px}
        </style>
    </defs>
    <g id="icon_40_document" transform="translate(-568 -19)">
        <g id="그룹_11" transform="translate(576 25.667)">
            <g id="그룹_9">
                <g id="그룹_8">
                    <path id="패스_12" d="M1020.246 6212.79l-4.191-4.19a2.964 2.964 0 0 0-2.095-.868h-10.625a2.964 2.964 0 0 0-2.963 2.963v20.741a2.963 2.963 0 0 0 2.963 2.963h14.815a2.962 2.962 0 0 0 2.963-2.963v-16.551a2.964 2.964 0 0 0-.867-2.095z" class="cls-2" transform="translate(-1000.373 -6207.731)"/>
                </g>
                <path id="패스_13" d="M1027.78 6215.139h-5.925a1.482 1.482 0 0 1-1.482-1.482v-5.926" class="cls-2" transform="translate(-1007.04 -6207.731)"/>
            </g>
            <path id="선_5" d="M0 0L10.94 0" class="cls-2" transform="translate(3.26 10.815)"/>
            <path id="선_6" d="M0 0L10.94 0" class="cls-2" transform="translate(3.26 16.285)"/>
            <path id="선_7" d="M0 0L7.901 0" class="cls-2" transform="translate(3.26 21.755)"/>
            <circle id="타원_3" cx="4.659" cy="4.659" r="4.659" fill="#fff" stroke="#333" stroke-linecap="round" stroke-linejoin="round" stroke-width="1.5px" transform="translate(13.477 11.834)"/>
            <path id="선_8" d="M2.622 2.622L0 0" class="cls-2" transform="translate(21.43 19.787)"/>
        </g>
    </g>
</svg>
