<svg xmlns="http://www.w3.org/2000/svg" width="40" height="40" viewBox="0 0 40 40">
    <defs>
        <style>
            .cls-2{fill:none;stroke:#333;stroke-linecap:round;stroke-linejoin:round;stroke-width:1.5px}
        </style>
    </defs>
    <g id="icon_40_web" transform="translate(-568 -19)">
        <path id="사각형_2" fill="#ffefef" d="M0 0H40V40H0z" opacity="0.15" transform="translate(568 19)"/>
        <g id="그룹_27" transform="translate(572.445 25)">
            <circle id="타원_5" cx="7.667" cy="7.667" r="7.667" class="cls-2" transform="translate(15.555 12.666)"/>
            <path id="Shape_3077" d="M185.587 4543.721a.008.008 0 0 0-.008.008.008.008 0 0 0 .008.008.008.008 0 0 0 .008-.008.008.008 0 0 0-.008-.008" class="cls-2" transform="translate(-173.35 -4539.84)"/>
            <path id="Shape_3077-2" d="M180.509 4543.721a.008.008 0 0 0-.008.008.008.008 0 0 0 .008.008.008.008 0 0 0 .008-.008.008.008 0 0 0-.008-.008" class="cls-2" transform="translate(-172.222 -4539.84)"/>
            <path id="Shape_3077-3" d="M175.412 4543.711a.008.008 0 0 0-.008.008.008.008 0 0 0 .008.008.008.008 0 0 0 .008-.008.008.008 0 0 0-.008-.008" class="cls-2" transform="translate(-171.089 -4539.837)"/>
            <g id="그룹_23" transform="translate(.222 8)">
                <g id="그룹_22">
                    <g id="그룹_21">
                        <g id="그룹_20">
                            <g id="그룹_19">
                                <path id="선_12" d="M0 0L26 0" class="cls-2"/>
                            </g>
                        </g>
                    </g>
                </g>
            </g>
            <path id="패스_20" d="M196.3 4551.824v-9.981a3.111 3.111 0 0 0-3.111-3.111h-20.222a3.111 3.111 0 0 0-3.111 3.111v17.11a3.11 3.11 0 0 0 3.111 3.111h13.094" class="cls-2" transform="translate(-169.856 -4538.731)"/>
            <g id="그룹_26" transform="translate(19.876 18.494)">
                <g id="그룹_25">
                    <g id="그룹_24">
                        <path id="패스_21" d="M202.325 4562.509l-4.325 4.322-2.593-2.593" class="cls-2" transform="translate(-195.412 -4562.509)"/>
                    </g>
                </g>
            </g>
        </g>
    </g>
</svg>
