<svg xmlns="http://www.w3.org/2000/svg" id="icon_40_store" width="40" height="40" viewBox="0 0 40 40">
    <defs>
        <style>
            .cls-4{fill:none;stroke:#333;stroke-width:1.5px;stroke-linejoin:round;stroke-linecap:round}
        </style>
    </defs>
    <g id="그룹_18" transform="translate(6.667 6.667)">
        <g id="그룹_16" stroke="#333" stroke-width="1.5px">
            <path id="패스_17" fill="none" d="M858.164 8515.8h22.448v13.4a1.758 1.758 0 0 1-1.714 1.8h-19.019a1.759 1.759 0 0 1-1.715-1.8v-13.4z" transform="translate(-856.055 -8503.879)"/>
            <path id="패스_18" fill="#fff" fill-rule="evenodd" stroke-linejoin="round" d="M873.556 8497.916a5.044 5.044 0 0 1 4.377 2.541l3.037 5.315a1.712 1.712 0 0 1 .167.41 4.445 4.445 0 1 1-8.36 2.1 4.445 4.445 0 0 1-8.889 0 4.444 4.444 0 1 1-8.358-2.107 1.638 1.638 0 0 1 .165-.407l3.037-5.315a5.044 5.044 0 0 1 4.377-2.541z" transform="translate(-855 -8497.916)"/>
        </g>
        <g id="그룹_17" transform="translate(10.492 16.729)">
            <rect id="사각형_4" width="6.222" height="5.333" class="cls-4" rx="2" transform="translate(0 2.667)"/>
            <path id="선_11" d="M0 1.152L0 0" class="cls-4" transform="translate(3.111 5.111)"/>
            <circle id="타원_4" cx=".333" cy=".333" r=".333" class="cls-4" transform="translate(2.778 4.445)"/>
            <path id="패스_19" d="M872.737 8525.676v-.89a1.778 1.778 0 0 1 1.778-1.777 1.778 1.778 0 0 1 1.778 1.777v.89" class="cls-4" transform="translate(-871.404 -8523.009)"/>
        </g>
    </g>
</svg>
