<svg xmlns="http://www.w3.org/2000/svg" width="40" height="40" viewBox="0 0 40 40">
    <defs>
        <style>
            .cls-2{fill:none;stroke:#333;stroke-linecap:round;stroke-linejoin:round;stroke-width:1.5px}
        </style>
    </defs>
    <g id="icon_40_contract" transform="translate(-568 -19)">
        <g id="그룹_15" transform="translate(574.667 26.333)">
            <g id="그룹_14">
                <path id="선_9" d="M0 0L9.891 0" class="cls-2" transform="translate(4.239 14.348)"/>
                <path id="선_10" d="M0 0L5.586 0" class="cls-2" transform="translate(4.304 18.652)"/>
                <path id="패스_14" d="M1593.069 5812.614H1586a2.848 2.848 0 0 1-2.826-2.869v-20.087a2.848 2.848 0 0 1 2.826-2.869h14.435a2.847 2.847 0 0 1 2.825 2.869v8.609" class="cls-2" transform="translate(-1583.178 -5786.788)"/>
                <path id="패스_16" d="M1613.729 5807.469l-9.029 9.029v2.869h2.869l9.029-9.029a1.434 1.434 0 0 0 0-2.029l-.84-.84a1.436 1.436 0 0 0-2.029 0z" class="cls-2" transform="translate(-1590.352 -5793.542)"/>
            </g>
            <path id="사각형_3" d="M0 0h2.8a1.5 1.5 0 0 1 1.5 1.5v1.3a1.5 1.5 0 0 1-1.5 1.5H0V0z" class="cls-2" transform="translate(4.304 4.304)"/>
        </g>
    </g>
</svg>
