<svg xmlns="http://www.w3.org/2000/svg" width="48" height="48" viewBox="0 0 48 48">
    <g fill="none" fill-rule="evenodd">
        <g>
            <g>
                <g>
                    <path d="M0 0H48V48H0z" transform="translate(-256 -101) translate(236 101) translate(20)"/>
                    <g fill="#FFF">
                        <path d="M27.85.91c1.519 0 2.75 1.231 2.75 2.75v17.449c0 1.519-1.231 2.75-2.75 2.75l-8.078-.001-3.64 3.662c-.455.455-1.173.488-1.665.096l-.102-.09-3.695-3.668H3.15c-1.463 0-2.658-1.14-2.745-2.582L.4 21.11V3.66C.4 2.141 1.631.91 3.15.91zm0 1.5H3.15c-.69 0-1.25.56-1.25 1.25v17.449c0 .69.56 1.25 1.25 1.25h7.748c.25 0 .49.099.669.276l3.677 3.649 3.626-3.645c.148-.15.341-.244.548-.272l.125-.008h8.307c.69 0 1.25-.56 1.25-1.25V3.66c0-.69-.56-1.25-1.25-1.25zm-7.72 6.72c.414 0 .75.336.75.75v5.5c0 .414-.336.75-.75.75s-.75-.336-.75-.75v-5.5c0-.414.336-.75.75-.75zm-9.25 0c.414 0 .75.336.75.75v5.5c0 .414-.336.75-.75.75s-.75-.336-.75-.75v-5.5c0-.414.336-.75.75-.75zm4.62 4.5c.483 0 .875.392.875.875s-.392.875-.875.875-.875-.392-.875-.875.392-.875.875-.875zm0-3.75c.483 0 .875.392.875.875s-.392.875-.875.875-.875-.392-.875-.875.392-.875.875-.875z" transform="translate(-256 -101) translate(236 101) translate(20) translate(8.5 9.5)"/>
                    </g>
                </g>
            </g>
        </g>
    </g>
</svg>
