<svg xmlns="http://www.w3.org/2000/svg" width="16" height="16" viewBox="0 0 16 16">
    <g fill="none" fill-rule="evenodd">
        <path fill="#FFF" d="M11.896 2.4c.844 0 1.528.684 1.528 1.529 0 .326-.104.643-.296.904l-.103.126-4.273 4.683c-.078.086-.129.193-.146.306l-.006.086V13c0 .331-.269.6-.6.6-.298 0-.546-.218-.592-.503L7.4 13v-2.966c0-.388.127-.765.36-1.073l.106-.128 4.273-4.683c.055-.06.085-.14.085-.221 0-.16-.112-.292-.262-.322l-.066-.007H4.055c-.08 0-.157.03-.217.082-.117.103-.144.27-.073.401l.043.063 2.454 2.787c.219.249.195.628-.054.847-.22.195-.545.197-.768.02l-.079-.074L2.907 4.94c-.557-.634-.496-1.6.138-2.158.239-.21.537-.34.851-.373l.159-.008h7.84z"/>
    </g>
</svg>
