<svg xmlns="http://www.w3.org/2000/svg" width="28" height="28" viewBox="0 0 28 28">
    <g fill="none" fill-rule="evenodd">
        <path d="M0 0H28V28H0z"/>
        <path fill="#333" d="M7.521 14.219l13.592.001c.692.013 1.078.1 1.478.313.403.216.723.536.939.939.233.436.314.855.314 1.674v3.333c0 .819-.081 1.238-.314 1.674-.216.403-.536.723-.94.939-.436.233-.855.314-1.674.314H7.521c-.819 0-1.238-.08-1.674-.314-.403-.216-.723-.536-.939-.939-.233-.436-.314-.855-.314-1.674l.001-3.53c.013-.692.1-1.077.313-1.477.216-.403.536-.723.939-.939.436-.233.855-.314 1.674-.314zm13.395 1.312l-13.554.001c-.5.007-.696.051-.896.158-.174.094-.307.227-.4.4-.118.221-.16.435-.16 1.056v3.333c0 .62.042.835.16 1.055.093.174.226.307.4.4.18.097.356.142.755.155l.3.005h13.395c.621 0 .835-.042 1.056-.16.174-.093.307-.226.4-.4.096-.18.142-.356.155-.755l.004-.3v-3.333c0-.62-.041-.835-.159-1.055-.093-.174-.226-.307-.4-.4-.22-.118-.435-.16-1.056-.16zM14 4.594c2.296 0 4.157 1.86 4.157 4.156 0 2.296-1.86 4.156-4.157 4.156-2.294 0-4.155-1.86-4.155-4.156 0-2.295 1.86-4.156 4.155-4.156zm0 1.312c-1.57 0-2.843 1.274-2.843 2.844 0 1.57 1.274 2.844 2.843 2.844 1.571 0 2.845-1.273 2.845-2.844 0-1.57-1.274-2.844-2.845-2.844z"/>
    </g>
</svg>
