<svg xmlns="http://www.w3.org/2000/svg" width="80" height="80" viewBox="0 0 80 80">
    <defs>
        <clipPath id="clip-path">
            <path id="Clip_10" d="M0 16.823h28.012V0H0z" class="cls-1"/>
        </clipPath>
        <style>
            .cls-1{fill:none}.cls-2,.cls-4{fill:#fff;opacity:0}.cls-4{fill:#ececec}.cls-5{fill:#80c342}.cls-7{fill:#004f18}.cls-8{fill:#9c970b}.cls-9{fill:#39291e}.cls-13{stroke:none}
        </style>
    </defs>
    <g id="icon80_member_line_1" transform="translate(-26 -38)">
        <path id="Rectangle" d="M0 0H80V80H0z" class="cls-2" transform="translate(26 38)"/>
        <g id="그룹_45" transform="translate(0 -5.5)">
            <g id="그룹_43" transform="translate(4.411 -.5)">
                <g id="사각형_15" fill="#fff" stroke="#858585" transform="translate(23.588 83.5)">
                    <rect width="76" height="32" class="cls-13" rx="16"/>
                    <rect width="75" height="31" x=".5" y=".5" class="cls-1" rx="15.5"/>
                </g>
                <g id="logo" transform="translate(31.089 90.5)">
                    <g id="logo_pulmuone" transform="translate(-1)">
                        <path id="사각형_6" d="M0 0H32V18H0z" class="cls-4" transform="translate(-.5)"/>
                        <g id="_Header" transform="translate(.315)">
                            <g id="_Logo">
                                <g id="logo_Pulmuone_Shop">
                                    <path id="Rectangle-2" d="M0 0H29.35V17.611H0z" class="cls-2"/>
                                    <g id="pulmuone_green_new" transform="translate(1.359 .444)">
                                        <path id="Fill_1" d="M2.2 5.345a3.44 3.44 0 0 1-1.165-.2A3.079 3.079 0 0 1 0 4.513L.675 3.7a3.374 3.374 0 0 0 .731.46 1.951 1.951 0 0 0 .82.171 1 1 0 0 0 .553-.13.409.409 0 0 0 .2-.36V3.83a.452.452 0 0 0-.041-.2.415.415 0 0 0-.156-.16 1.649 1.649 0 0 0-.32-.148q-.2-.074-.532-.156a6.511 6.511 0 0 1-.715-.215 2.013 2.013 0 0 1-.543-.293 1.182 1.182 0 0 1-.346-.434A1.507 1.507 0 0 1 .2 1.581v-.015A1.5 1.5 0 0 1 .333.924 1.461 1.461 0 0 1 .705.43a1.674 1.674 0 0 1 .573-.319A2.3 2.3 0 0 1 2.012 0a3.106 3.106 0 0 1 1.05.171 3.046 3.046 0 0 1 .88.49l-.594.861a3.786 3.786 0 0 0-.683-.375A1.744 1.744 0 0 0 2 1.009a.808.808 0 0 0-.5.13.4.4 0 0 0-.167.323v.015a.466.466 0 0 0 .048.219.436.436 0 0 0 .175.167A1.646 1.646 0 0 0 1.9 2q.219.067.555.156a5.339 5.339 0 0 1 .7.234 1.968 1.968 0 0 1 .521.312A1.19 1.19 0 0 1 4 3.133a1.449 1.449 0 0 1 .108.587v.015a1.608 1.608 0 0 1-.14.687 1.412 1.412 0 0 1-.391.5 1.764 1.764 0 0 1-.6.312 2.6 2.6 0 0 1-.771.108" class="cls-5" transform="translate(9.36 11.464)"/>
                                        <path id="Fill_3" d="M2.754 5.374a2.85 2.85 0 0 1-1.106-.211 2.766 2.766 0 0 1-.872-.572A2.566 2.566 0 0 1 .2 3.745 2.687 2.687 0 0 1 0 2.7v-.013a2.635 2.635 0 0 1 .208-1.043A2.659 2.659 0 0 1 1.659.211 2.876 2.876 0 0 1 2.769 0a2.85 2.85 0 0 1 1.106.211 2.767 2.767 0 0 1 .872.572 2.572 2.572 0 0 1 .572.846 2.681 2.681 0 0 1 .2 1.043v.015a2.635 2.635 0 0 1-.204 1.043 2.656 2.656 0 0 1-1.451 1.433 2.875 2.875 0 0 1-1.11.211zm0-4.32a1.56 1.56 0 0 0-.635.126 1.463 1.463 0 0 0-.49.349 1.654 1.654 0 0 0-.32.516 1.714 1.714 0 0 0-.115.627v.015a1.742 1.742 0 0 0 .115.631 1.565 1.565 0 0 0 .824.872 1.52 1.52 0 0 0 .635.13 1.561 1.561 0 0 0 .632-.126 1.448 1.448 0 0 0 .494-.349 1.652 1.652 0 0 0 .319-.516 1.711 1.711 0 0 0 .115-.629v-.013a1.741 1.741 0 0 0-.115-.631 1.558 1.558 0 0 0-.828-.872 1.528 1.528 0 0 0-.631-.13z" class="cls-5" transform="translate(18.129 11.449)"/>
                                        <path id="Fill_5" d="M3.161 0v2.15H1.138V0H0v5.185h.281a.825.825 0 0 0 .857-.713V3.161h2.023v2.024h.3a.8.8 0 0 0 .839-.713V0z" class="cls-5" transform="translate(13.78 11.524)"/>
                                        <path id="Fill_7" d="M.268 5.184H0V0h1.966a2.57 2.57 0 0 1 .847.137 1.844 1.844 0 0 1 .635.374 1.66 1.66 0 0 1 .416.568 1.92 1.92 0 0 1 .183.731v.015a1.769 1.769 0 0 1-.209.78 1.689 1.689 0 0 1-.494.558 1.913 1.913 0 0 1-.668.318 1.887 1.887 0 0 1-.554.061h-.984v.916a.856.856 0 0 1-.87.726zm.871-4.173v1.644h.754a1.085 1.085 0 0 0 .723-.237.834.834 0 0 0 .293-.571v-.014a.78.78 0 0 0-.3-.6 1.227 1.227 0 0 0-.735-.218z" class="cls-5" transform="translate(23.965 11.524)"/>
                                        <path id="Clip_10-2" d="M0 16.823h28.012V0H0z" class="cls-1"/>
                                        <g id="pulmuone_green_new-2" clip-path="url(#clip-path)">
                                            <path id="Fill_9" d="M6.2 4.64H0V3.567h1.1V1.074H.007V0h6.811v.52a.554.554 0 0 1-.553.554h-.726v2.493h1.218v.52a.554.554 0 0 1-.557.553zM2.371 1.074v2.493h1.857V1.074z" class="cls-7" transform="translate(1.143 .371)"/>
                                            <path id="Fill_11" d="M7.157 7.791H3.593c-1.4 0-2.111-.667-2.111-1.982v-1.5h4.567V3.257H1.482v-1.1h2.292V1.071H0V0h8.146v.518a.554.554 0 0 1-.554.554H5.027v1.083h2.292V5.4H2.737v.437c0 .706.187.869 1 .869h3.974v.534a.554.554 0 0 1-.553.554" class="cls-7" transform="translate(0 6.02)"/>
                                            <path id="Fill_12" d="M2.5 7.006h-.62V5.737H0v-.974h1.875V0h1.254v6.372a.635.635 0 0 1-.635.634" class="cls-7" transform="translate(20.027 1.843)"/>
                                            <path id="Fill_13" d="M2.255 4.252a2.3 2.3 0 0 1-1.644-.615A2.083 2.083 0 0 1 0 2.126 2.085 2.085 0 0 1 .611.615 2.294 2.294 0 0 1 2.255 0 2.3 2.3 0 0 1 3.9.615a2.085 2.085 0 0 1 .611 1.512 2.083 2.083 0 0 1-.611 1.51 2.3 2.3 0 0 1-1.645.615zm0-3.1a.94.94 0 0 0-1.005.98.939.939 0 0 0 1.006.968.939.939 0 0 0 1.005-.978.94.94 0 0 0-1.005-.975z" class="cls-7" transform="translate(16.409)"/>
                                            <path id="Fill_14" d="M2.652 2.558h-.619V1.007H0V0h5.442v.453a.554.554 0 0 1-.553.553h-1.6v.917a.635.635 0 0 1-.634.634" class="cls-7" transform="translate(15.927 4.844)"/>
                                            <path id="Fill_15" d="M1.255 0v1.139c0 .4.217.593.722.593h3.461V2.2a.554.554 0 0 1-.553.554H1.744C.527 2.75 0 2.29 0 1.159V0z" class="cls-7" transform="translate(17.962 7.953)"/>
                                            <path id="Fill_16" d="M3.379 4.705H2.76V1.072H0V0h6.808v.518a.554.554 0 0 1-.553.553H4.013v3a.635.635 0 0 1-.634.634" class="cls-7" transform="translate(8.791 6.02)"/>
                                            <path id="Fill_17" d="M5.054 4.445H0V0h5.054v4.444zM1.27 1.055v2.337h2.513V1.055z" class="cls-7" transform="translate(9.603 .473)"/>
                                        </g>
                                    </g>
                                </g>
                            </g>
                        </g>
                    </g>
                    <g id="logo_orga" transform="translate(31.5)">
                        <path id="사각형_7" d="M0 0H30V18H0z" class="cls-4"/>
                        <g id="그룹_14" transform="translate(.167 3)">
                            <path id="패스_3" d="M101.439 372.145c-.218.574-.422 1.14-.613 1.692s-.286.842-.294.867h-.271c-.007-.025-.076-.233-.208-.621s-.308-.872-.525-1.448c-.189.477-.364.936-.525 1.371s-.244.671-.256.7h-.277c-.007-.038-.092-.292-.248-.763s-.365-1.063-.627-1.771l.319-.123c0 .018.082.246.226.687s.313.936.5 1.485l.012-.013c.2-.5.373-.963.522-1.382s.223-.637.23-.657h.3c.005.024.083.259.236.712s.3.893.462 1.327c.208-.566.382-1.064.524-1.489s.217-.653.221-.673l.289.1z" class="cls-8" transform="translate(-96.928 -362.944)"/>
                            <path id="패스_4" d="M201.579 375.593h-.319v-.431-.779h-1.579c0 .361 0 .632.005.816s0 .317 0 .394h-.318v-.415-1-.523-.662h.318v.582c0 .189-.006.374-.006.547h1.579v-.542-.587h.319q0 .293-.005.677V375.177c0 .204 0 .343.005.42z" class="cls-8" transform="translate(-194.334 -363.846)"/>
                            <path id="패스_5" d="M266.726 373.129a1.032 1.032 0 0 1-.24.357.853.853 0 0 1-.271.181.853.853 0 0 1-.649 0 .844.844 0 0 1-.262-.171 1.054 1.054 0 0 1-.25-.376 1.314 1.314 0 0 1-.09-.5 1.366 1.366 0 0 1 .087-.478 1.05 1.05 0 0 1 .242-.383.806.806 0 0 1 .275-.187.871.871 0 0 1 .649 0 .882.882 0 0 1 .261.175 1.02 1.02 0 0 1 .258.409 1.53 1.53 0 0 1 .084.5 1.174 1.174 0 0 1-.094.48zm.33-1.073a1.294 1.294 0 0 0-.29-.457 1.163 1.163 0 0 0-.386-.263 1.285 1.285 0 0 0-.488-.093 1.272 1.272 0 0 0-.492.1 1.154 1.154 0 0 0-.4.284 1.362 1.362 0 0 0-.274.442 1.554 1.554 0 0 0-.092.547 1.535 1.535 0 0 0 .116.6 1.292 1.292 0 0 0 .3.446 1.135 1.135 0 0 0 .386.247 1.211 1.211 0 0 0 1.328-.282 1.311 1.311 0 0 0 .281-.434 1.515 1.515 0 0 0 .106-.579 1.6 1.6 0 0 0-.1-.562z" class="cls-8" transform="translate(-256.779 -362.174)"/>
                            <path id="패스_6" d="M339.348 375.593h-1.589c0-.223 0-.449.007-.679v-.674-.844-.406h.325c0 .167-.007.361-.008.58v1.757h.994l.272-.005v.273z" class="cls-8" transform="translate(-326.759 -363.846)"/>
                            <path id="패스_7" d="M387.4 375.593H385.744c0-.074 0-.24.007-.489s0-.513 0-.781v-.582c0-.24 0-.495-.007-.752h1.623v.273l-.244-.005h-1.058v.864H387.377v.271h-1.311v.59c0 .148 0 .262.005.361.077 0 .167 0 .275.005h1.059v.267z" class="cls-8" transform="translate(-372.683 -363.846)"/>
                            <path id="패스_8" d="M473.743 373.263l-.256-.005h-1.014c0 .149 0 .308-.005.48s0 .327 0 .458h1.259v.273h-1.258v.65c0 .203.006.369.006.493h-.32v-.418-.859-.581-.745H473.746v.273z" class="cls-8" transform="translate(-455.366 -363.846)"/>
                            <path id="패스_9" d="M520 373.129a1.092 1.092 0 0 1-.24.357.852.852 0 0 1-.272.181.821.821 0 0 1-.325.063.841.841 0 0 1-.326-.065.927.927 0 0 1-.262-.171 1.029 1.029 0 0 1-.249-.376 1.283 1.283 0 0 1-.09-.5 1.352 1.352 0 0 1 .086-.478 1.112 1.112 0 0 1 .244-.383.823.823 0 0 1 .273-.187.842.842 0 0 1 .326-.063.8.8 0 0 1 .323.063.865.865 0 0 1 .262.175 1.036 1.036 0 0 1 .256.409 1.492 1.492 0 0 1 .085.5 1.214 1.214 0 0 1-.092.48zm.326-1.073a1.255 1.255 0 0 0-.287-.457 1.128 1.128 0 0 0-.388-.263 1.278 1.278 0 0 0-.485-.093 1.256 1.256 0 0 0-.491.1 1.159 1.159 0 0 0-.4.284 1.343 1.343 0 0 0-.275.442 1.531 1.531 0 0 0-.092.547 1.482 1.482 0 0 0 .119.6 1.231 1.231 0 0 0 .3.446 1.168 1.168 0 0 0 .387.247 1.211 1.211 0 0 0 1.328-.282 1.273 1.273 0 0 0 .281-.434 1.545 1.545 0 0 0 .109-.579 1.6 1.6 0 0 0-.1-.562z" class="cls-8" transform="translate(-499.146 -362.174)"/>
                            <path id="패스_10" d="M588.052 373.129a1.076 1.076 0 0 1-.24.357.941.941 0 0 1-.274.181.849.849 0 0 1-.648 0 .877.877 0 0 1-.264-.171 1.062 1.062 0 0 1-.249-.376 1.285 1.285 0 0 1-.091-.5 1.3 1.3 0 0 1 .089-.478 1.03 1.03 0 0 1 .243-.383.811.811 0 0 1 .271-.187.836.836 0 0 1 .326-.063.808.808 0 0 1 .323.063.884.884 0 0 1 .262.175 1.054 1.054 0 0 1 .258.409 1.513 1.513 0 0 1 .084.5 1.209 1.209 0 0 1-.092.48zm.326-1.073a1.271 1.271 0 0 0-.288-.457 1.147 1.147 0 0 0-.388-.263 1.292 1.292 0 0 0-.978.007 1.171 1.171 0 0 0-.4.284 1.332 1.332 0 0 0-.275.442 1.59 1.59 0 0 0-.09.547 1.544 1.544 0 0 0 .116.6 1.267 1.267 0 0 0 .305.446 1.107 1.107 0 0 0 .386.247 1.213 1.213 0 0 0 1.328-.282 1.29 1.29 0 0 0 .278-.434 1.479 1.479 0 0 0 .109-.579 1.576 1.576 0 0 0-.1-.562z" class="cls-8" transform="translate(-564.27 -362.174)"/>
                            <path id="패스_11" d="M660.762 374.64a1.073 1.073 0 0 1-.355.335 1.6 1.6 0 0 1-.432.166 2.317 2.317 0 0 1-.51.058h-.1c0-.371 0-.659-.006-.867v-.724c0-.136 0-.3.006-.509h.1a2.468 2.468 0 0 1 .487.054 1.375 1.375 0 0 1 .487.194.936.936 0 0 1 .347.355.987.987 0 0 1 .105.457.854.854 0 0 1-.133.482zm.331-1.066a1.212 1.212 0 0 0-.425-.436 1.845 1.845 0 0 0-.557-.227 3.324 3.324 0 0 0-.716-.069h-.348q.008.464.008.79v1.365c0 .291-.005.441-.005.448s.058 0 .145 0h.265a2.637 2.637 0 0 0 .646-.072 1.969 1.969 0 0 0 .521-.211 1.274 1.274 0 0 0 .438-.416 1.059 1.059 0 0 0 .17-.6 1.207 1.207 0 0 0-.138-.586z" class="cls-8" transform="translate(-634.216 -363.704)"/>
                            <path id="패스_12" d="M720.951 374.247a.631.631 0 0 1-.1.352.729.729 0 0 1-.254.242 1.192 1.192 0 0 1-.336.129 1.769 1.769 0 0 1-.422.046c-.08 0-.169 0-.256-.011s-.144-.011-.159-.011l-.016-.273c.021 0 .07.012.153.018s.184.011.3.011a1.569 1.569 0 0 0 .266-.029.92.92 0 0 0 .252-.07.526.526 0 0 0 .177-.136.348.348 0 0 0 .062-.205.392.392 0 0 0-.062-.221.709.709 0 0 0-.2-.176c-.063-.035-.141-.076-.237-.12a2.415 2.415 0 0 1-.265-.14.786.786 0 0 1-.283-.263.636.636 0 0 1-.009-.627.808.808 0 0 1 .2-.226.927.927 0 0 1 .308-.14 1.734 1.734 0 0 1 .4-.045c.079 0 .163 0 .244.005l.142.007.029.28c-.01 0-.058-.008-.144-.016s-.185-.01-.309-.01a1.191 1.191 0 0 0-.222.022.657.657 0 0 0-.2.077.365.365 0 0 0-.133.127.322.322 0 0 0-.054.19.329.329 0 0 0 .055.18.685.685 0 0 0 .216.185c.054.03.125.069.211.11s.177.088.261.138a.887.887 0 0 1 .293.263.613.613 0 0 1 .1.337z" class="cls-8" transform="translate(-691.983 -363.235)"/>
                            <g id="그룹_12">
                                <path id="패스_13" d="M89.11 162.9a3.67 3.67 0 0 0-.822-1.3 3.327 3.327 0 0 0-1.1-.747 3.649 3.649 0 0 0-2.784.017 3.363 3.363 0 0 0-1.147.807 3.8 3.8 0 0 0-.777 1.257 4.438 4.438 0 0 0-.262 1.548 4.354 4.354 0 0 0 .329 1.719 3.743 3.743 0 0 0 .869 1.271 3.307 3.307 0 0 0 1.1.7 3.553 3.553 0 0 0 1.293.236 3.36 3.36 0 0 0 2.479-1.036 3.638 3.638 0 0 0 .8-1.234 4.265 4.265 0 0 0 .309-1.643 4.536 4.536 0 0 0-.279-1.59zm-1.057 2.984a2.857 2.857 0 0 1-.648.97 2.356 2.356 0 0 1-.736.49 2.24 2.24 0 0 1-.871.171 2.182 2.182 0 0 1-.874-.176 2.351 2.351 0 0 1-.708-.461 2.857 2.857 0 0 1-.675-1.019 3.861 3.861 0 0 1-.006-2.672 2.937 2.937 0 0 1 .655-1.045 2.306 2.306 0 0 1 .738-.5 2.351 2.351 0 0 1 1.748 0 2.306 2.306 0 0 1 .7.474 2.744 2.744 0 0 1 .7 1.109 4.128 4.128 0 0 1 .231 1.357 3.239 3.239 0 0 1-.254 1.307z" class="cls-9" transform="translate(-82.215 -160.584)"/>
                            </g>
                            <path id="패스_14" d="M286.983 164.387l-.617.018v.075l.028 2.667v1l-.011 2.328-.017 1.339h1.053l-.015-1.679-.011-2.018v-1.115s.018-1.6.021-1.739h.372l.632.024a2.2 2.2 0 0 1 .638.138 1.207 1.207 0 0 1 .567.415 1.109 1.109 0 0 1 .2.673 1.454 1.454 0 0 1-.137.687 1.716 1.716 0 0 1-.335.437 2.775 2.775 0 0 1-.561.382 2.72 2.72 0 0 1-.532.23l-.053.013-.013.135 2.255 2.573.9 1 .055-.051.734-.611-1-1.051c-.569-.6-1.1-1.18-1.573-1.74a4.234 4.234 0 0 0 .853-.73 1.91 1.91 0 0 0 .5-1.338 1.838 1.838 0 0 0-.328-1.085 2.039 2.039 0 0 0-.885-.7 3.321 3.321 0 0 0-.888-.24 8.322 8.322 0 0 0-.927-.052l-.9.011z" class="cls-9" transform="translate(-277.576 -164.213)"/>
                            <path id="패스_15" d="M433.067 169.932a4.532 4.532 0 0 1-1.215-.414 2.823 2.823 0 0 1-1.041-.906 2.515 2.515 0 0 1-.4-1.457 2.444 2.444 0 0 1 .385-1.309 2.747 2.747 0 0 1 1.07-.978 4.39 4.39 0 0 1 1.183-.405 7.453 7.453 0 0 1 1.5-.139h.5l-.079-.933h-.532a8.289 8.289 0 0 0-1.672.167 5.515 5.515 0 0 0-1.438.5 3.92 3.92 0 0 0-1.466 1.281 3.176 3.176 0 0 0-.537 1.808 3.617 3.617 0 0 0 .282 1.46 3.162 3.162 0 0 0 .74 1.073 4.075 4.075 0 0 0 1.745.985 7.164 7.164 0 0 0 1.116.214 6.867 6.867 0 0 0 2.119-.135l-.006-.671v-1.22l.008-.866.017-.991h-1.056l.021 2.293.008.662a3.526 3.526 0 0 1-1.252-.017z" class="cls-9" transform="translate(-414.388 -163.269)"/>
                            <g id="그룹_13" transform="translate(21.718 .094)">
                                <path id="패스_16" d="M593.026 167.514l-2.147-4.754h-.807l-2.145 4.679-1.19 2.548.064.036.81.429.377-.852.857-1.91h3.092c.04.086.836 1.877.836 1.877l.381.878.075-.032.918-.464-1.12-2.435zm-3.8-.675l.581-1.31.6-1.328.605 1.367s.474 1.086.552 1.271z" class="cls-9" transform="translate(-586.737 -162.76)"/>
                            </g>
                        </g>
                    </g>
                </g>
            </g>
            <g id="icon64_member_line_1" transform="translate(35 38.5)">
                <path id="Combined_Shape" fill="#858585" d="M0 31.5a15.6 15.6 0 0 1 12.172-15.222 8.5 8.5 0 1 1 6.854 0 15.59 15.59 0 0 1 9.247 6.122.6.6 0 1 1-.974.7A14.4 14.4 0 0 0 1.2 31.5a.6.6 0 1 1-1.2 0zm8.3-23a7.3 7.3 0 1 0 7.3-7.3 7.308 7.308 0 0 0-7.3 7.3z" transform="translate(10 13)"/>
                <g id="그룹_44" stroke="#85c21f" stroke-miterlimit="10" stroke-width="1.2px" transform="translate(9.6 14.5)">
                    <g id="Oval" fill="#fff" transform="translate(26.5 17)">
                        <circle cx="8.75" cy="8.75" r="8.75" class="cls-13"/>
                        <circle cx="8.75" cy="8.75" r="8.15" class="cls-1"/>
                    </g>
                    <path id="Path" fill="none" stroke-linecap="round" stroke-linejoin="round" d="M0 2.495l2.73 2.73L7.955 0" transform="translate(31.273 23.205)"/>
                </g>
            </g>
        </g>
    </g>
</svg>
