<svg xmlns="http://www.w3.org/2000/svg" width="80" height="80" viewBox="0 0 80 80">
    <defs>
        <style>
            .cls-2{fill:#858585;stroke:transparent;stroke-miterlimit:10}
        </style>
    </defs>
    <g id="icon66_member_line_2" transform="translate(7.667 6.667)">
        <g id="icon" transform="translate(-6.458 10.169)">
            <g id="그룹_11">
                <path id="Path" d="M60.783 0a4.8 4.8 0 0 1 4.792 4.544l.007.255v15.915h-1.6V4.8A3.2 3.2 0 0 0 61 1.607l-.217-.007H4.8a3.2 3.2 0 0 0-3.193 2.98L1.6 4.8v35.99a3.2 3.2 0 0 0 2.98 3.19l.219.007h48.957v1.6H4.8a4.8 4.8 0 0 1-4.793-4.544L0 40.788V4.8A4.8 4.8 0 0 1 4.544.007L4.8 0z" class="cls-2"/>
                <path id="Rectangle" d="M0 0H1.6V9.331H0z" class="cls-2" transform="translate(31.458 44.787)"/>
                <rect id="Rectangle-2" width="1.6" height="34.657" class="cls-2" rx=".6" transform="rotate(-90 35.19 20.261)"/>
            </g>
            <path id="Combined_Shape" fill="#85c21f" d="M4.042 35.83A4.016 4.016 0 0 1 0 31.849V18.58a4.018 4.018 0 0 1 4.042-3.98h1.347V7.3a7.409 7.409 0 0 1 14.817 0v7.3h1.346a4.016 4.016 0 0 1 4.04 3.983v13.27a4.015 4.015 0 0 1-4.04 3.981zM1.625 18.382l-.006.2v13.27a2.416 2.416 0 0 0 2.224 2.381l.2.007h17.51a2.424 2.424 0 0 0 2.417-2.192l.007-.2V18.58a2.419 2.419 0 0 0-2.225-2.38l-.2-.005H4.042a2.423 2.423 0 0 0-2.417 2.187zM7.01 7.021v7.538h11.58V7.3a5.735 5.735 0 0 0-5.512-5.7l-.28-.007A5.749 5.749 0 0 0 7.01 7.021zm5.579 23.5a.6.6 0 0 1-.6-.6v-3.493a2.654 2.654 0 1 1 1.616-.025v3.519a.6.6 0 0 1-.6.6z" transform="translate(52.199 19.781)"/>
            <path id="Combined_Shape-2" fill="#d6d6d6" d="M11.157 21.754a.6.6 0 0 1-.6-.6v-1.52a.6.6 0 0 1 .6-.6h30.47a.6.6 0 0 1 .6.6v1.519a.6.6 0 0 1-.6.6zM1 21.514a1 1 0 0 1-1-1V14.6a1 1 0 0 1 1-1h5.917a1 1 0 0 1 1 1v5.918a1 1 0 0 1-1 1zm10.157-5.2a.6.6 0 0 1-.6-.6V14.2a.6.6 0 0 1 .6-.6h30.47a.6.6 0 0 1 .6.6v1.519a.6.6 0 0 1-.6.6zm0-8.158a.6.6 0 0 1-.6-.6V6.038a.6.6 0 0 1 .6-.6h30.47a.6.6 0 0 1 .6.6v1.519a.6.6 0 0 1-.6.6zM1 7.917a1 1 0 0 1-1-1V1a1 1 0 0 1 1-1h5.917a1 1 0 0 1 1 1v5.917a1 1 0 0 1-1 1zm10.157-5.2a.6.6 0 0 1-.6-.6V.6a.6.6 0 0 1 .6-.6h30.47a.6.6 0 0 1 .6.6v1.52a.6.6 0 0 1-.6.6z" transform="translate(11.25 10.824)"/>
        </g>
        <g id="new" transform="translate(-1.605 4.547)">
            <g id="사각형_18" fill="#fff" stroke="#707070" transform="translate(-.063 -.213)">
                <rect width="29" height="12" stroke="none" rx="6"/>
                <rect width="28" height="11" x=".5" y=".5" fill="none" rx="5.5"/>
            </g>
            <text id="new-2" fill="#707070" font-family="Lato-Regular, Lato" font-size="7px" transform="translate(5.938 8.787)">
                <tspan x="0" y="0">NEW</tspan>
            </text>
        </g>
    </g>
</svg>
