<svg xmlns="http://www.w3.org/2000/svg" width="40" height="40" viewBox="0 0 40 40">
    <g fill="none" fill-rule="evenodd">
        <g>
            <g>
                <g>
                    <g fill="#FFF">
                        <path d="M3.316 0c.01 2.539.4 4.344 1.169 5.416S6.495 7.35 8.208 8c.239-2.424.083-4.067-.468-4.929C7.111 2.033 5.636 1.01 3.316 0zM10.636 12.826c-.445-2.13-.593-3.824-.445-5.08.222-1.885 1.127-4.803 4.733-6.92.372 3.086.275 5.44-.47 7.724-.496 1.524-1.769 2.949-3.818 4.276z" transform="translate(-16 -2833) translate(0 2685) translate(16 148) rotate(49 9.514 27.374)"/>
                        <path d="M15.235 23.84c-.475-2.101-.642-3.77-.502-5.005.21-1.852 1.108-4.715 4.779-6.763.409 3.042.332 5.357-.41 7.598-.493 1.495-1.782 2.885-3.867 4.17z" transform="translate(-16 -2833) translate(0 2685) translate(16 148) rotate(49 9.514 27.374) rotate(12 17.221 17.956)"/>
                        <path d="M11 13.148c-1.882-2.292-3.179-3.603-3.89-3.934C6.043 8.718 1.92 8.522 0 8.986c1.217 2.089 1.77 3.011 3.907 4.162 1.424.767 3.789.767 7.093 0z" transform="translate(-16 -2833) translate(0 2685) translate(16 148) rotate(49 9.514 27.374)"/>
                        <path d="M14.721 23.413c-1.833-2.411-3.094-3.793-3.782-4.144-1.032-.528-5.007-.77-6.85-.301 1.191 2.193 1.732 3.162 3.8 4.383 1.379.814 3.656.835 6.832.062z" transform="translate(-16 -2833) translate(0 2685) translate(16 148) rotate(49 9.514 27.374) rotate(11 9.405 21.348)"/>
                        <path d="M8.224 8.694c1.472 2.273 2.676 4.983 3.61 8.13 1.403 4.72 2.462 8.96 2.78 11.878.02 1.23.38 1.133.67.947.288-.186-1.937-13.856-6.593-21.19-1.672-2.341-1.828-2.263-.467.235z" transform="translate(-16 -2833) translate(0 2685) translate(16 148) rotate(49 9.514 27.374)"/>
                    </g>
                </g>
            </g>
        </g>
    </g>
</svg>
