<svg xmlns="http://www.w3.org/2000/svg" xmlns:xlink="http://www.w3.org/1999/xlink" width="40" height="40" viewBox="0 0 40 40">
    <defs>
        <path id="slapxq8pia" d="M13.537.425c5.555 0 10.214 3.833 11.476 9 1.189.492 2.024 1.664 2.024 3.03 0 1.418-.897 2.625-2.155 3.084-1.428 4.917-5.967 8.51-11.345 8.51-5.463 0-10.06-3.708-11.41-8.745-.987-.565-1.652-1.629-1.652-2.848 0-1.167.61-2.192 1.527-2.773C3.169 4.387 7.89.425 13.538.425z"/>
    </defs>
    <g fill="none" fill-rule="evenodd">
        <g>
            <g>
                <g>
                    <g>
                        <g>
                            <g>
                                <g>
                                    <g>
                                        <g transform="translate(-270 -919) translate(0 369) translate(0 526) translate(0 20) translate(16 4) translate(220) translate(34) translate(6.25 6.875) translate(0 .263)">
                                            <mask id="rztnkxxaob" fill="#fff">
                                                <use xlink:href="#slapxq8pia"/>
                                            </mask>
                                            <use fill="#FFF" stroke="#333" stroke-width="1.2" xlink:href="#slapxq8pia"/>
                                            <path stroke="#333" stroke-width="2.4" d="M14.116 1.77C15.19 3.081 15.8 4.16 15.8 5.031c0 .591-.192 1.085-.528 1.43-.349.361-.84.553-1.358.553-.518 0-1.009-.232-1.37-.596-.285-.29-.49-.666-.556-1.092h0z" mask="url(#rztnkxxaob)"/>
                                            <path fill="#333" d="M11.515 5.742c.415 0 .75-.336.75-.75s-.335-.75-.75-.75c-.414 0-.75.336-.75.75s.336.75.75.75zM9.375 14.237c.76 0 1.375-.615 1.375-1.375s-.616-1.375-1.375-1.375c-.76 0-1.375.616-1.375 1.375 0 .76.616 1.375 1.375 1.375z" mask="url(#rztnkxxaob)"/>
                                            <circle cx="18.125" cy="12.862" r="1.375" fill="#333" mask="url(#rztnkxxaob)"/>
                                        </g>
                                    </g>
                                </g>
                            </g>
                        </g>
                    </g>
                </g>
            </g>
        </g>
    </g>
</svg>
