<svg xmlns="http://www.w3.org/2000/svg" xmlns:xlink="http://www.w3.org/1999/xlink" width="24" height="24" viewBox="0 0 24 24">
    <defs>
        <path id="zjnbv4auna" d="M7 6.172l2.353 2.352.725.725.351.351.68.681.893.892 4.987-5.001.081-.068c.229-.158.544-.136.748.068.229.228.229.6 0 .828l-4.994 4.995.435.435.81.81 1.202 1.202.429.43.255.254.456.456.353.353.603.603.45.451c.531.53-.211 1.315-.76.889l-.068-.06-4.995-4.995L7 17.818l-.08.068c-.23.158-.545.135-.748-.068-.23-.229-.23-.6 0-.829l4.994-4.995L6.172 7c-.23-.229-.23-.6 0-.828.228-.23.6-.23.828 0z"/>
    </defs>
    <g fill="none" fill-rule="evenodd">
        <g>
            <g>
                <g transform="translate(-1234 -23) translate(0 -85) translate(1234 108)">
                    <use fill="#000" xlink:href="#zjnbv4auna"/>
                </g>
            </g>
        </g>
    </g>
</svg>
