<svg id="Icon_40_Vegetables_Line_40" data-name="Icon/40/Vegetables_Line_40" xmlns="http://www.w3.org/2000/svg" width="40" height="40" viewBox="0 0 40 40">
  <g id="Icon_40_Vegetables_Line_40-2" data-name="Icon/40/Vegetables_Line_40">
    <rect id="guidebox" width="40" height="40" fill="red" opacity="0"/>
    <path id="Combined_Shape" data-name="Combined Shape" d="M11.835,27.638l0-.092.015-.274.014-.16a6.865,6.865,0,0,1-6.548-2.635l-.132-.171-.11-.007C1.984,24.027-.59,20.485,1.03,16.257l.109-.274-.085-.117c-2.145-3.082-.946-7.96,2.952-9.078l.071-.02L4.09,6.63c.345-2.991,3.445-5.192,6.049-4.4l.2.067.034-.065A4.331,4.331,0,0,1,14.252,0l.163,0,.047,0H14.5l.047,0,.163,0a4.333,4.333,0,0,1,3.878,2.224l.035.065.2-.067c2.6-.788,5.7,1.413,6.049,4.4l.014.138.071.02c3.9,1.119,5.1,6,2.952,9.078l-.086.118.11.273c1.62,4.228-.954,7.771-4.046,8.042l-.109.007-.132.171a6.762,6.762,0,0,1-5.5,2.7q-.408,0-.83-.041l.02.289.007.214a2.752,2.752,0,1,1-5.5,0Zm2.75-11.525-.373,3.2-.679,6.08-.179,1.876-.02.333.006.182A1.29,1.29,0,0,0,14.585,29a1.311,1.311,0,0,0,1.249-1.362l0-.148-.062-.775-.176-1.744-1.006-8.858h0Zm2.369,7.5.208,1.993a5.452,5.452,0,0,0,5.609-2.476.752.752,0,0,1,.64-.32,3.938,3.938,0,0,0,2.793-1.6c.954-1.264,1.077-2.943.067-5.013a.749.749,0,0,1,.112-.825c2.085-2.363,1.052-6.715-2.357-7.264a.749.749,0,0,1-.63-.776c.124-2.612-2.871-4.628-4.729-3.4a.75.75,0,0,1-1.119-.373A2.912,2.912,0,0,0,14.478,1.5,2.911,2.911,0,0,0,11.41,3.566a.75.75,0,0,1-1.119.373c-1.858-1.227-4.854.789-4.729,3.4a.749.749,0,0,1-.63.776c-3.409.549-4.442,4.9-2.357,7.264a.749.749,0,0,1,.112.825c-1.01,2.07-.887,3.749.067,5.013a3.937,3.937,0,0,0,2.793,1.6.752.752,0,0,1,.64.32,5.485,5.485,0,0,0,5.826,2.444l.2-1.96.285-2.525a.733.733,0,0,1-.175-.074l-.092-.063L7.117,16.88a.751.751,0,0,1,.843-1.237l.092.063,4.639,3.7,0-.025.431-3.658-2.81-2.4a.75.75,0,0,1,.886-1.206l.089.066,2.047,1.749.5-4.268a.75.75,0,0,1,1.49,0l.5,4.266,2.044-1.746.09-.066a.75.75,0,0,1,.885,1.206l-2.806,2.4.211,1.782.217,1.905,4.643-3.7.092-.063a.75.75,0,0,1,.842,1.237l-5.116,4.075-.091.063a.733.733,0,0,1-.178.074Z" transform="translate(5.415 5.25)" fill="#333"/>
  </g>
</svg>
