<svg xmlns="http://www.w3.org/2000/svg" width="20" height="20" viewBox="0 0 20 20">
    <g fill="none" fill-rule="evenodd">
        <g>
            <g>
                <g>
                    <g>
                        <g>
                            <path d="M0 0H20V20H0z" transform="translate(-222 -285) translate(12 109) translate(4 32) translate(65 144) translate(141)"/>
                            <g fill="#AA8153">
                                <path d="M9.95.5c1.058 0 1.762.328 2.19 1.143l1.572 2.536.125.22c.207.394.359.852.359 1.311 0 .819-.36 1.666-1.061 2.177l-.002 4.236c0 .746-.585 1.35-1.324 1.42l-.14.006H3.03c-.757 0-1.386-.561-1.458-1.288l-.006-.138V7.865l.003-.045C.92 7.344.5 6.575.5 5.707c.003-.613.17-1.054.502-1.556.015-.023.178-.261.216-.32l1.367-2.19C3.093.831 3.817.511 4.876.5zM5.226 7.245l-.058.079c-.448.568-1.125.949-1.888.997l-.165.005c-.189 0-.373-.02-.55-.058v3.855c0 .205.161.382.38.419l.085.007 3.818-.001.001-2.042c0-.276.224-.5.5-.5s.5.224.5.5l-.001 2.042h3.82c.232 0 .418-.154.457-.35l.007-.075V8.315c-.173.033-.358.05-.553.05-.912 0-1.6-.421-2.042-.998l-.077-.107-.069.096c-.408.524-1.029.911-1.846.964l-.192.006c-.833 0-1.578-.384-2.058-.99l-.069-.091zM9.949 1.5H4.887c-.747.008-1.15.185-1.454.671L2.036 4.406c-.067.102-.195.29-.2.298l-.092.146c-.169.285-.242.526-.244.86 0 .892.724 1.616 1.616 1.616.886 0 1.616-.734 1.616-1.616 0-.667 1-.667 1 0 0 .906.725 1.616 1.622 1.616 1.03 0 1.61-.886 1.61-1.616 0-.667 1-.667 1 0 0 .717.594 1.655 1.616 1.655 1.056 0 1.616-.849 1.616-1.655 0-.303-.144-.681-.31-.964L11.272 2.14c-.25-.475-.603-.64-1.323-.64z" transform="translate(-222 -285) translate(12 109) translate(4 32) translate(65 144) translate(141) translate(2.65 2.853)"/>
                            </g>
                        </g>
                    </g>
                </g>
            </g>
        </g>
    </g>
</svg>
