<svg xmlns="http://www.w3.org/2000/svg" width="72" height="72" viewBox="0 0 72 72">
    <g fill="none" fill-rule="evenodd">
        <g>
            <g>
                <g>
                    <g>
                        <g>
                            <g stroke="#333" stroke-linecap="round" stroke-width="2" transform="translate(-1084 -3619) translate(136 540) translate(100 3059) translate(800) translate(48 20) translate(14 14)">
                                <g>
                                    <path fill="#80C342" d="M17 0H2C.895 0 0 .895 0 2v15c0 1.105.895 2 2 2h15c1.105 0 2-.895 2-2V2c0-1.105-.895-2-2-2z" transform="translate(28 26)"/>
                                    <path stroke-linejoin="round" d="M9.5 0L9.5 5.166" transform="translate(28 26)"/>
                                </g>
                                <circle cx="20" cy="10" r="10"/>
                                <path d="M33.922 25.64C30.322 22.15 25.412 20 20 20 8.954 20 0 28.954 0 40"/>
                            </g>
                        </g>
                    </g>
                </g>
            </g>
        </g>
    </g>
</svg>
