<svg id="Icon_16_Pin_gray_16" data-name="Icon/16/Pin_gray_16" xmlns="http://www.w3.org/2000/svg" width="16" height="16" viewBox="0 0 16 16">
  <defs>
    <style>
      .cls-1 {
        fill: none;
      }

      .cls-2 {
        fill: #adadad;
      }
    </style>
  </defs>
  <g id="Icon_16_Pin_gray_16-2" data-name="Icon/16/Pin_gray_16">
    <rect id="guide_box" data-name="guide box" class="cls-1" width="16" height="16"/>
    <g id="icon" transform="translate(3.5 2)">
      <path id="Shape" class="cls-2" d="M4.5,11.656a.984.984,0,0,1-.677-.269C1.285,9,0,6.7,0,4.548A4.472,4.472,0,0,1,1.26,1.33a4.587,4.587,0,0,1,6.468.008A4.455,4.455,0,0,1,9,4.548c0,2.076-1.195,4.288-3.551,6.575l-.279.266A.982.982,0,0,1,4.5,11.656ZM4.5,2.5a2,2,0,1,0,1.415.585A1.985,1.985,0,0,0,4.5,2.5Z" transform="translate(0 0.4)"/>
    </g>
  </g>
</svg>
