<svg xmlns="http://www.w3.org/2000/svg" width="24" height="24" viewBox="0 0 24 24">
    <g fill="none" fill-rule="evenodd">
        <g>
            <g>
                <g>
                    <path fill="#333" d="M10.073 9.75c.577-.681 1.81-.923 2.828-.623.371.11.694.286.93.52l.096.103L19 15.735c-.679.452-1.588.324-2.116-.298l-4.147-4.894c-.047-.055-.154-.118-.306-.163-.418-.123-.924-.04-1.124.122l-.044.041-4.147 4.894c-.528.622-1.437.75-2.116.298l5.073-5.985z" transform="translate(-171 -1273) translate(16 1271) translate(155 2) rotate(90 12 12.5)"/>
                </g>
            </g>
        </g>
    </g>
</svg>
