<svg xmlns="http://www.w3.org/2000/svg" width="64" height="64" viewBox="0 0 64 64">
    <g fill="none" fill-rule="evenodd">
        <g>
            <g>
                <g>
                    <g>
                        <g>
                            <g>
                                <g>
                                    <g>
                                        <g>
                                            <path stroke="#333" stroke-linecap="round" stroke-linejoin="round" stroke-width="2" d="M39.111 19.556C39.111 8.756 30.356 0 19.556 0 8.756 0 0 8.755 0 19.556c0 10.8 8.755 19.555 19.556 19.555 2.216 0 4.346-.369 6.332-1.048" transform="translate(-429 -2686) translate(136 540) translate(100 1832) translate(0 258) translate(0 56) translate(48) translate(133) translate(12) translate(12.444 12.444)"/>
                                            <path stroke="#333" stroke-linecap="round" stroke-linejoin="round" stroke-width="2" d="M37.333 16L40.286 18.952 37.333 21.905" transform="translate(-429 -2686) translate(136 540) translate(100 1832) translate(0 258) translate(0 56) translate(48) translate(133) translate(12) translate(12.444 12.444) rotate(90 38.81 18.952)"/>
                                            <path stroke="#333" stroke-linecap="round" stroke-linejoin="round" stroke-width="2" d="M12.591 8.889L12.591 19.579 20.057 25.753" transform="translate(-429 -2686) translate(136 540) translate(100 1832) translate(0 258) translate(0 56) translate(48) translate(133) translate(12) translate(12.444 12.444) matrix(-1 0 0 1 32.649 0)"/>
                                            <text fill="#333" font-family="Lato-Bold, Lato" font-size="16" font-weight="bold" letter-spacing="-.2" transform="translate(-429 -2686) translate(136 540) translate(100 1832) translate(0 258) translate(0 56) translate(48) translate(133) translate(12) translate(12.444 12.444)">
                                                <tspan x="30.222" y="34.222">2</tspan>
                                            </text>
                                        </g>
                                    </g>
                                </g>
                            </g>
                        </g>
                    </g>
                </g>
            </g>
        </g>
    </g>
</svg>
