<svg xmlns="http://www.w3.org/2000/svg" width="72" height="72" viewBox="0 0 72 72">
    <g fill="none" fill-rule="evenodd">
        <g>
            <g>
                <g>
                    <g>
                        <g>
                            <g>
                                <g transform="translate(-884 -2392) translate(136 540) translate(100 1832) translate(400) translate(200) translate(48 20) translate(8 14)">
                                    <path fill="#333" fill-rule="nonzero" d="M2.311 37.222h2.168c-.348.68-.544 1.453-.544 2.27 0 2.761 2.238 5 5 5 2.761 0 5-2.239 5-5 0-.488-.07-.96-.201-1.406.443.466.728 1.088.762 1.776l.004.17c.014.541.458.974 1 .974h.27c-.691 3.138-3.49 5.486-6.835 5.486-3.866 0-7-3.134-7-7 0-.795.132-1.558.376-2.27z"/>
                                    <path stroke="#333" stroke-linecap="round" stroke-linejoin="round" stroke-width="2" d="M45.096 11.102l7.56 18.463c-.736-.173-1.505-.265-2.294-.265-5.523 0-10 4.477-10 10 0 .233.008.465.024.694l-.024.012H15.5l-.005-.195c-.101-2-1.755-3.59-3.78-3.59h0H0v-3.548c0-7.18 5.82-13 13-13h13.999l-1.85 7.908c-.07.298-.106.604-.106.911 0 2.21 1.791 4 4 4h7.078c1.374 0 2.652-.705 3.385-1.868h0l3.405-5.408c.288-.458.379-1.012.251-1.538h0l-3.051-12.576h4.985zM39.154 6.1h7.396C47.903 6.1 49 7.197 49 8.55c0 1.358-1.092 2.463-2.45 2.478l-6.221.072h0l-1.175-5z"/>
                                    <circle cx="50.362" cy="39.492" r="6" stroke="#333" stroke-width="2"/>
                                    <path stroke="#333" stroke-linecap="round" stroke-linejoin="round" stroke-width="2" d="M50.362 29.3c2.549 0 4.875.954 6.64 2.523l-2.578 3.062C53.356 33.9 51.93 33.3 50.362 33.3c-3.314 0-6 2.686-6 6 0 .239.014.474.04.706h-4.016c-.016-.233-.024-.469-.024-.706 0-5.523 4.477-10 10-10z"/>
                                    <path fill="#80C342" stroke="#333" stroke-linecap="round" stroke-linejoin="round" stroke-width="2" d="M8 .5h17c1.105 0 2 .895 2 2v17h0H8c-1.105 0-2-.895-2-2v-15c0-1.105.895-2 2-2z"/>
                                    <path stroke="#333" stroke-linecap="round" stroke-linejoin="round" stroke-width="2" d="M16.5 1L16.5 6M40.775 13.902L38.182 3 34 3"/>
                                </g>
                            </g>
                        </g>
                    </g>
                </g>
            </g>
        </g>
    </g>
</svg>
