<svg xmlns="http://www.w3.org/2000/svg" width="72" height="72" viewBox="0 0 72 72">
    <g fill="none" fill-rule="evenodd">
        <g>
            <g>
                <g>
                    <g>
                        <g>
                            <g stroke="#333" stroke-linecap="round" stroke-linejoin="round" stroke-width="2" transform="translate(-884 -774) translate(136 540) translate(100 214) translate(600) translate(48 20) translate(10 14)">
                                <path d="M44.542 40.221h4.387c1.23 0 2.225-.996 2.225-2.225v-11.75c0-.743-.276-1.46-.774-2.011L41.208 14.09c-.569-.629-1.377-.988-2.226-.988H32.33v13.57c0 1.658-1.343 3-3 3H0v8.324c0 1.229.996 2.225 2.225 2.225h5.71m9.315 0h17.722"/>
                                <circle cx="12.525" cy="40.082" r="4.59"/>
                                <circle cx="39.952" cy="40.082" r="4.59"/>
                                <path fill="#80C342" d="M3 0h26.329c1.657 0 3 1.343 3 3v23.673c0 1.657-1.343 3-3 3H0h0V3c0-1.657 1.343-3 3-3z"/>
                                <path d="M16.164 0.217L16.164 7.252"/>
                            </g>
                            <path stroke="#333" stroke-linecap="round" stroke-linejoin="round" stroke-width="1.8" d="M58.19 5c.93 1.03 1.496 2.393 1.496 3.89 0 3.201-2.596 5.797-5.798 5.797-1.496 0-2.86-.566-3.888-1.496.788 2.776 3.343 4.809 6.373 4.809C60.033 18 63 15.033 63 11.374 63 8.344 60.966 5.79 58.19 5zM44.51 1.072c-.062.045-.109.108-.135.18l-.49 1.37c-.04.112-.13.198-.241.234l-1.38.446c-.2.064-.31.279-.246.479.024.073.069.138.129.185l1.145.892c.093.073.148.185.147.303l-.005 1.456c0 .21.169.382.378.383.077 0 .151-.023.215-.066l1.198-.819c.098-.066.22-.084.332-.047l1.377.455c.2.066.414-.043.479-.243.024-.073.025-.151.004-.225l-.405-1.399c-.033-.113-.011-.236.059-.331l.856-1.175c.123-.17.087-.409-.082-.533-.062-.046-.136-.071-.213-.074l-1.448-.045c-.118-.004-.227-.062-.296-.158l-.848-1.182c-.122-.17-.36-.21-.53-.086z" transform="translate(-884 -774) translate(136 540) translate(100 214) translate(600) translate(48 20)"/>
                        </g>
                    </g>
                </g>
            </g>
        </g>
    </g>
</svg>
