<svg xmlns="http://www.w3.org/2000/svg" width="72" height="72" viewBox="0 0 72 72">
    <g fill="none" fill-rule="evenodd">
        <g>
            <g>
                <g>
                    <g>
                        <g>
                            <g stroke="#333" stroke-linecap="round" stroke-linejoin="round" stroke-width="2" transform="translate(-884 -1338) translate(136 540) translate(100 778) translate(600) translate(48 20) translate(10 14)">
                                <path d="M44.542 40.221h4.387c1.23 0 2.225-.996 2.225-2.225v-11.75c0-.743-.276-1.46-.774-2.011L41.208 14.09c-.569-.629-1.377-.988-2.226-.988H32.33v13.57c0 1.658-1.343 3-3 3H0v8.324c0 1.229.996 2.225 2.225 2.225H8h-.065m9.315 0h18"/>
                                <circle cx="12.525" cy="40.082" r="4.59"/>
                                <circle cx="39.952" cy="40.082" r="4.59"/>
                                <path fill="#80C342" d="M3 0h26.329c1.657 0 3 1.343 3 3v23.673c0 1.657-1.343 3-3 3H0h0V3c0-1.657 1.343-3 3-3z"/>
                                <path d="M16.164 0.217L16.164 7.252"/>
                            </g>
                        </g>
                    </g>
                </g>
            </g>
        </g>
    </g>
</svg>
