<svg xmlns="http://www.w3.org/2000/svg" width="32" height="32" viewBox="0 0 32 32">
    <g fill="none" fill-rule="evenodd">
        <g>
            <g>
                <g>
                    <g fill="#80C342">
                        <path d="M5.334 4.975V9.7c0 .967.784 1.751 1.751 1.751h10.303v1.05c0 .46-.343.839-.787.894l-.113.007h-2.834l.005.106c0 .75-.572 1.365-1.303 1.435l-.138.006c-.796 0-1.442-.645-1.442-1.44l.004-.107h-4.9l.006.106c0 .75-.572 1.365-1.303 1.435l-.139.006c-.796 0-1.441-.645-1.441-1.44l.004-.107h-1.82c-.46 0-.838-.343-.894-.788l-.007-.113V9.686c0-.132.03-.262.085-.381l.064-.115 2.514-3.81c.146-.22.38-.365.64-.397l.112-.007 1.633-.001zM11.339.3v2.607l.009.09c.042.234.246.41.492.41s.45-.176.493-.41l.008-.09V.3h3.753c.69 0 1.251.56 1.251 1.252v7.863h6.164c.284 0 .514.23.514.515 0 .284-.23.514-.514.514h-6.164v.006H7.586c-.69 0-1.25-.56-1.25-1.25V1.551C6.335.86 6.895.3 7.585.3h3.753zm13.028 7.056c.284 0 .514.23.514.514 0 .285-.23.515-.514.515H19.39c-.284 0-.514-.23-.514-.515 0-.284.23-.514.514-.514h4.977z" transform="translate(-12 -758) translate(12 319) translate(0 439) translate(4.616 8.429)"/>
                    </g>
                </g>
            </g>
        </g>
    </g>
</svg>
