<svg xmlns="http://www.w3.org/2000/svg" width="16" height="16" viewBox="0 0 16 16">
    <g fill="none" fill-rule="evenodd">
        <g>
            <g>
                <g>
                    <g>
                        <g>
                            <path d="M0 0H16V16H0z" transform="translate(-108 -389) translate(0 369) translate(8 8) translate(16 12) translate(84)"/>
                            <g fill="#FFF">
                                <path d="M4.494.4c1.21 0 2.386.481 3.234 1.338C8.504 2.522 9 3.622 9 4.948c0 2.085-1.184 4.277-3.552 6.575l-.278.266c-.38.357-.972.356-1.351 0C1.273 9.391 0 7.111 0 4.947 0 3.61.49 2.51 1.26 1.73 2.105.873 3.281.4 4.494.4zm.005 2.5c-.551 0-1.05.224-1.412.585C2.723 3.85 2.5 4.35 2.5 4.9c0 .553.223 1.053.587 1.415.361.361.861.585 1.412.585.553 0 1.053-.224 1.414-.585.362-.362.587-.862.587-1.415 0-.551-.225-1.051-.587-1.415C5.552 3.124 5.052 2.9 4.5 2.9z" transform="translate(-108 -389) translate(0 369) translate(8 8) translate(16 12) translate(84) translate(3.5 2)"/>
                            </g>
                        </g>
                    </g>
                </g>
            </g>
        </g>
    </g>
</svg>
