<svg xmlns="http://www.w3.org/2000/svg" width="56" height="56" viewBox="0 0 56 56">
    <g>
        <g>
            <path fill="#7fc241" d="M14.19 28.168H4.324a2.35 2.35 0 0 1-2.374-2.32v-8.68a6.848 6.848 0 0 0 3.034.7h.252a6.857 6.857 0 0 0 4.69-2.098l.028-.031.14.143a6.892 6.892 0 0 0 4.87 1.987l.294-.006a6.619 6.619 0 0 0 4.574-1.963l.087-.093.035.04a6.574 6.574 0 0 0 4.962 2.112 7.181 7.181 0 0 0 3.034-.634v8.52a2.35 2.35 0 0 1-2.374 2.32h-9.868v-4.656a.76.76 0 0 0-.655-.752l-.1-.007a.759.759 0 0 0-.751.655l-.008.1v4.658zm5.743-17.148c0 .981-.906 4.951-4.969 4.951a4.953 4.953 0 0 1-5-4.951 4.983 4.983 0 0 1-9.966 0 6.241 6.241 0 0 1 1.511-3.775c.58-.916 3.22-5.124 3.22-5.124C5.771.469 7.242.02 9.142 0h11.934c1.886 0 3.271.449 4.158 2.122Q28.782 7.792 29 8.16a6.3 6.3 0 0 1 .9 2.86c0 1.225-.9 5.043-4.983 5.043s-4.984-4.187-4.984-5.044z" transform="translate(13 14)"/>
        </g>
    </g>
</svg>
