<svg id="Icon_40_Shirimp_Line_40_on" data-name="Icon/40/Shirimp_Line_40_on" xmlns="http://www.w3.org/2000/svg" width="40" height="40" viewBox="0 0 40 40">
  <g id="Icon_40_Shirimp_Line_40" data-name="Icon/40/Shirimp_Line_40">
    <rect id="Rectangle" width="40" height="40" fill="none"/>
    <g id="Shirimp" transform="translate(6.5 6.5)">
      <path id="Combined_Shape" data-name="Combined Shape" d="M4.51,29.311a.75.75,0,0,1-.744-.841A5.5,5.5,0,0,1,5.2,25.084a3.349,3.349,0,0,1,.45-.366,4.056,4.056,0,0,1-1.89-3.656.75.75,0,0,1,.75-.75H9.779a3.87,3.87,0,0,1,2.792,1.021,5.087,5.087,0,0,1,1.339,2.775.868.868,0,0,1,.258-.047H14.2a4.012,4.012,0,0,0,2.092-.726,3.789,3.789,0,0,0,1.393-3.5c-.1-2.493-1.719-3.655-5.085-3.655-.185,0-.38,0-.577.011H8.911a10.093,10.093,0,0,1-7.4-3.877A8.388,8.388,0,0,1,.141,8.836,8.23,8.23,0,0,1,.011,6.93C.063,2.98,2.4.927,6.234.263L6.722.185c.4-.058.793-.1,1.213-.127L8.456.031,9.02.013,9.64,0l.692,0H21.694a.75.75,0,0,1,.1,1.493l-.1.007H9.993l-.668.006-.6.015a15.5,15.5,0,0,0-2.239.219c-2.57.446-4.207,1.528-4.766,3.571H14.606c7.238,0,11.336,3.194,11.849,9.238.27,3.171-.446,5.718-2.127,7.571a9.543,9.543,0,0,1-4.009,2.534,18.615,18.615,0,0,1-5.845.905h-.283a.863.863,0,0,1-.229-.03,4,4,0,0,1-1.487,2.684,5.8,5.8,0,0,1-3.59,1.1Zm3.331-3.747a2.38,2.38,0,0,0-2.372,1.994l-.065.252H8.886c1.823,0,3.1-.749,3.492-2.055l.052-.2H7.992ZM5.393,22.008c.388,1.28,1.62,2.025,3.385,2.054h3.589l-.065-.252A2.38,2.38,0,0,0,9.93,21.815l-.151,0H5.341Zm13.651-3.377a6.614,6.614,0,0,1,.143,1.138,5.987,5.987,0,0,1-.972,3.831l-.077.1.164-.032c4.738-1.01,6.986-3.935,6.681-8.694l-.022-.3a11.252,11.252,0,0,0-.2-1.358Zm-2.986-3.4a5.346,5.346,0,0,1,1.333.731,4.286,4.286,0,0,1,1.063,1.174l5.819-5.406a7.005,7.005,0,0,0-2.439-3.074,11.231,11.231,0,0,0-5.776-1.79Zm-1.5-.4V6.812H1.531l-.009.122A7.98,7.98,0,0,0,1.535,8a6.473,6.473,0,0,0,1.178,3.41,8.606,8.606,0,0,0,6.2,3.28H12c.2-.007.4-.011.585-.011A11.884,11.884,0,0,1,14.557,14.828ZM4.449,9.338a.9.9,0,1,1,.9.9A.9.9,0,0,1,4.449,9.338Z" transform="translate(0.24 0.25)" fill="#aa8153"/>
    </g>
  </g>
</svg>
