<svg xmlns="http://www.w3.org/2000/svg" width="16" height="16" viewBox="0 0 16 16">
    <g fill="none" fill-rule="evenodd">
        <g>
            <g>
                <g>
                    <g>
                        <g>
                            <g>
                                <path fill="#fff" d="M6.293 9.027c.005-.316.088-.567.25-.754.163-.186.388-.28.677-.28.16 0 .336.037.527.11.19.074.392.154.603.24.211.087.43.166.657.237.226.071.455.107.686.107.285 0 .54-.05.767-.147.227-.098.417-.236.57-.413.153-.178.271-.391.353-.64.083-.25.124-.523.124-.82h-.96c-.005.31-.088.56-.25.75-.163.189-.388.283-.677.283-.16 0-.336-.037-.527-.11-.19-.073-.392-.153-.603-.24-.211-.087-.43-.167-.657-.24-.226-.073-.455-.11-.686-.11-.29 0-.546.05-.77.15-.225.1-.414.239-.567.417-.153.177-.271.39-.353.64-.083.249-.124.522-.124.82h.96z" transform="translate(-185 -702) translate(0 199) translate(0 452) translate(16 38) translate(131) translate(38 13)"/>
                            </g>
                        </g>
                    </g>
                </g>
            </g>
        </g>
    </g>
</svg>
