<svg xmlns="http://www.w3.org/2000/svg" width="16" height="16" viewBox="0 0 16 16">
    <g fill="none" fill-rule="evenodd">
        <g>
            <g>
                <g>
                    <g>
                        <g>
                            <path fill="#FFF" d="M10.929 3.429c.276 0 .5.223.5.5v8.142c0 .277-.224.5-.5.5H9.643c-.276 0-.5-.223-.5-.5V3.93c0-.277.224-.5.5-.5h1.286zm-4.572 0c.276 0 .5.223.5.5v8.142c0 .277-.224.5-.5.5H5.071c-.276 0-.5-.223-.5-.5V3.93c0-.277.224-.5.5-.5h1.286z" transform="translate(-449 -3471) translate(136 3399) translate(0 56) translate(309 12) translate(4 4)"/>
                        </g>
                    </g>
                </g>
            </g>
        </g>
    </g>
</svg>
