<svg xmlns="http://www.w3.org/2000/svg" width="32" height="32" viewBox="0 0 32 32">
    <g fill="none" fill-rule="evenodd">
        <g>
            <g>
                <g>
                    <path fill="#AA8153" d="M25.2 16.74c1.937 0 3.509 1.572 3.509 3.51 0 1.874-1.469 3.405-3.317 3.505l-.193.005-9.996.002-.12.003h-3.935v-2.236c0-.245-.177-.45-.41-.492l-.09-.008c-.246 0-.45.177-.492.41l-.008.09v2.235H6.212c-.778 0-1.424-.576-1.498-1.322l-.007-.141v-3.587c.472.258 1.015.405 1.592.405l.188-.005c.673-.038 1.293-.279 1.801-.661l.18-.146.085.074c.574.463 1.305.738 2.099.738l.22-.006c.794-.045 1.442-.335 1.937-.763l.077.07c.534.448 1.239.74 2.107.74.615 0 1.148-.138 1.596-.371l-.001 3.943h8.611c1.371 0 2.482-1.11 2.482-2.482 0-1.316-1.024-2.393-2.319-2.477l-.163-.005h-4.29c-.284 0-.513-.23-.513-.514 0-.252.181-.461.42-.505l.093-.008h4.29zm-11.882-6.07c.943 0 1.567.261 1.974.92l.083.147 1.527 2.462.207.352c.198.377.345.817.345 1.244 0 1.218-.847 2.502-2.461 2.502-.95 0-1.643-.492-2.047-1.127l-.083-.138-.044-.087-.042.081c-.337.6-.926 1.088-1.745 1.204l-.193.02-.187.006c-.863 0-1.624-.436-2.066-1.107L8.496 17l-.028-.055-.02.042c-.422.753-1.229 1.268-2.15 1.268-1.358 0-2.46-1.102-2.46-2.462.003-.508.122-.888.366-1.297l.112-.178.194-.288 1.434-2.295c.445-.71 1.059-1.014 1.966-1.06l.2-.006h5.208zm7.02-2.985c1.616 0 2.927 1.31 2.927 2.927 0 1.323-.868 2.758-2.603 4.304-.162.145-.396.163-.576.055l-.073-.055-.242-.22c-1.574-1.462-2.361-2.824-2.361-4.084 0-1.617 1.31-2.927 2.927-2.927zm0 1.463c-.674 0-1.22.547-1.22 1.22 0 .674.546 1.22 1.22 1.22.673 0 1.219-.546 1.219-1.22 0-.673-.546-1.22-1.22-1.22z" transform="translate(-12 -1126) translate(12 319) translate(0 807)"/>
                </g>
            </g>
        </g>
    </g>
</svg>
