<svg xmlns="http://www.w3.org/2000/svg" width="52" height="52" viewBox="0 0 52 52">
    <g fill="none" fill-rule="evenodd" opacity=".6">
        <g>
            <g>
                <g>
                    <g>
                        <g>
                            <path fill="#FFF" d="M38.534 20.77c.324-.258.796-.204 1.053.12.235.296.211.713-.039.98l-.082.075-12.868 10.214c-.241.191-.57.214-.832.067l-.095-.063L12.54 21.95c-.327-.254-.386-.725-.132-1.052.231-.298.642-.373.96-.193l.092.061 12.666 9.852 12.408-9.847z" transform="translate(-1252 -466) translate(0 88) translate(0 172) translate(136 206) translate(1116) rotate(-90 26 26.464)"/>
                        </g>
                    </g>
                </g>
            </g>
        </g>
    </g>
</svg>
