<svg xmlns="http://www.w3.org/2000/svg" width="32" height="32" viewBox="0 0 32 32">
    <g fill="none" fill-rule="evenodd" opacity=".24">
        <g>
            <g>
                <g>
                    <g>
                        <g>
                            <path fill="#000" d="M23.297 12.152c.33-.25.8-.185 1.05.145.228.3.195.716-.06.977l-.084.074-7.92 6c-.235.179-.551.2-.807.063l-.092-.059-8.081-6c-.333-.247-.402-.716-.155-1.05.224-.301.633-.386.955-.214l.094.06 7.629 5.664 7.471-5.66z" transform="translate(-328 -323) translate(0 37) translate(0 131) translate(0 155) translate(328) rotate(-90 15.75 15.75)"/>
                        </g>
                    </g>
                </g>
            </g>
        </g>
    </g>
</svg>
