<svg xmlns="http://www.w3.org/2000/svg" width="40" height="40" viewBox="0 0 40 40">
    <g fill="none" fill-rule="evenodd">
        <path fill="#333" d="M24.676 10c.543 0 .848.058 1.172.228.304.161.549.402.708.7.153.278.218.547.231.974l.003.193v11.401c.533-.315 1.154-.496 1.816-.496h.094c1.604 0 2.96 1.06 3.43 2.522.04-.015.084-.025.129-.031l.101-.007h1.252l.138-.006c.068-.006.095-.017.125-.034.027-.016.05-.042.07-.085.035-.071.05-.145.054-.385l-.002-4.94c-.001-.03-.003-.053-.006-.072l-.013-.062-.015-.035c-.007-.013-.014-.026-.026-.044l-.14-.187-2.485-3.167c-.05-.06-.073-.083-.094-.1l-.016-.01-.014-.005c-.017-.005-.035-.008-.072-.01l-.185-.003h-1.987c-.415 0-.75-.336-.75-.75 0-.38.282-.694.648-.743l.102-.007h1.987l.269.006c.154.008.268.027.39.062.197.054.373.143.54.27.128.099.228.199.37.375l.092.115 2.386 3.042c.173.221.25.333.325.483.077.153.13.307.158.467.026.134.036.25.038.454l.001 4.747c0 .54-.052.838-.205 1.154-.148.305-.372.553-.657.721-.272.161-.536.23-.944.246l-.184.003h-1.15l-.068-.004c-.163 1.862-1.706 3.326-3.592 3.326h-.094c-1.885 0-3.428-1.463-3.592-3.324l-.038.002H12.292c-.165 1.86-1.708 3.322-3.592 3.322h-.094C6.612 30.306 5 28.668 5 26.653l.004.18c-.1-.048-.196-.108-.286-.18-.254-.201-.44-.477-.56-.809-.088-.242-.136-.5-.152-.804L4 24.802V12.095c0-.54.06-.846.233-1.166.164-.302.407-.542.713-.703.28-.147.548-.21.976-.223L6.115 10h18.561zM8.7 24.5h-.094c-1.16 0-2.106.961-2.106 2.153 0 1.192.946 2.153 2.106 2.153H8.7c1.16 0 2.106-.96 2.106-2.153 0-1.192-.945-2.153-2.106-2.153zm20 0h-.094c-.839 0-1.566.503-1.904 1.232-.023.079-.053.154-.088.227-.075.217-.114.45-.114.694 0 1.192.946 2.153 2.106 2.153h.094c1.16 0 2.106-.96 2.106-2.153 0-1.192-.945-2.153-2.106-2.153zm-3.915-13H6.006c-.23.004-.296.02-.36.053-.044.023-.073.05-.094.09-.034.062-.048.123-.051.346L5.5 23.599l-.001.014v1.185c.597-1.023 1.672-1.727 2.915-1.793L8.606 23H8.7c1.59 0 2.936 1.04 3.417 2.483h12.86c.11 0 .207-.054.263-.136.013-.04.029-.08.045-.12l.005-.043v-13.09c0-.312-.013-.38-.052-.452-.021-.038-.05-.066-.089-.087-.067-.036-.133-.051-.364-.054z"/>
    </g>
</svg>
