<svg xmlns="http://www.w3.org/2000/svg" width="24" height="24" viewBox="0 0 24 24">
    <g fill="none" fill-rule="evenodd">
        <path fill="#70B5D9" d="M14.834 12.314H9.688c-.003.575.12 1.142.362 1.658.406.895 1.274 1.458 2.219 1.44.291.003.581-.036.862-.116.269-.08.524-.202.758-.362.24-.16.47-.337.686-.53.204-.19.471-.446.798-.768.165-.133.37-.198.577-.182.24-.01.474.076.657.24.172.17.263.41.249.657-.018.312-.114.613-.277.873-.223.373-.51.698-.846.96-.428.335-.906.592-1.414.76-.634.213-1.296.316-1.96.305-1.69 0-3.002-.505-3.94-1.516-.938-1.01-1.411-2.386-1.419-4.124-.006-.771.111-1.537.348-2.267.212-.666.557-1.277 1.011-1.792.455-.51 1.016-.901 1.638-1.147.689-.275 1.42-.41 2.158-.4.923-.028 1.836.207 2.642.68.698.415 1.271 1.027 1.654 1.766.355.674.543 1.43.549 2.2 0 .696-.19 1.145-.57 1.349-.501.234-1.048.343-1.596.316zM9.5 11h5c-.067-1.045-.321-1.823-.76-2.344-.455-.524-1.09-.808-1.745-.779-.641-.019-1.259.272-1.691.797-.442.521-.71 1.297-.804 2.326z"/>
    </g>
</svg>
