<svg xmlns="http://www.w3.org/2000/svg" width="48" height="48" viewBox="0 0 48 48">
    <g fill="none" fill-rule="evenodd">
        <path d="M0 0H48V48H0z"/>
        <g transform="translate(2.667 2.667)">
            <circle cx="21.333" cy="21.333" r="20.25" stroke="#EBEBEB" stroke-width="1.5"/>
            <path fill="#EBEBEB" fill-rule="nonzero" d="M21.323 16.95c.174 0 .337-.033.49-.1.154-.067.289-.158.405-.275.117-.117.21-.25.28-.4.07-.15.105-.312.105-.485s-.035-.338-.105-.495c-.07-.157-.163-.293-.28-.41-.116-.117-.251-.208-.405-.275-.153-.067-.316-.1-.49-.1-.173 0-.335.033-.485.1-.15.067-.283.158-.4.275-.116.117-.208.253-.275.41-.066.157-.1.322-.1.495s.034.335.1.485c.067.15.159.283.275.4.117.117.25.208.4.275.15.067.312.1.485.1zm.88 12.05V18.87h-1.78V29h1.78z"/>
        </g>
    </g>
</svg>
