<svg xmlns="http://www.w3.org/2000/svg" width="36" height="36" viewBox="0 0 36 36">
    <g fill="none" fill-rule="evenodd">
        <g>
            <g>
                <g>
                    <g>
                        <g>
                            <path d="M0 0H36V36H0z" transform="translate(-136 -123) translate(0 -190) translate(0 222) translate(136 86) translate(0 5)"/>
                            <path fill="#fff" d="M30.094 23.625c.466 0 .843.378.843.844 0 .466-.377.843-.843.843H6.469c-.466 0-.844-.377-.844-.843 0-.466.378-.844.844-.844h23.625zm0-6.75c.466 0 .843.378.843.844 0 .466-.377.843-.843.843H6.469c-.466 0-.844-.377-.844-.843 0-.466.378-.844.844-.844h23.625zm0-6.75c.466 0 .843.378.843.844 0 .466-.377.844-.843.844H6.469c-.466 0-.844-.378-.844-.844 0-.466.378-.844.844-.844h23.625z" transform="translate(-136 -123) translate(0 -190) translate(0 222) translate(136 86) translate(0 5)"/>
                        </g>
                    </g>
                </g>
            </g>
        </g>
    </g>
</svg>
