<svg xmlns="http://www.w3.org/2000/svg" width="28" height="28" viewBox="0 0 28 28">
    <g fill="none" fill-rule="evenodd">
        <g>
            <g>
                <g>
                    <g>
                        <g>
                            <g>
                                <path fill="#7FC241" d="M19.83 15.747c.46.339.818.822 1.014 1.419.316.926.135 1.895-.384 2.63-.325.47-.789.845-1.363 1.05-.89.31-1.843.137-2.555-.393-.307-.231-.575-.525-.778-.882l-3.858 1.37c-.179.055-.376.027-.52-.078-.093-.071-.159-.173-.203-.291-.062-.19-.027-.385.08-.533.064-.09.16-.165.274-.209l3.856-1.36c-.087-.75.105-1.477.512-2.07.327-.467.794-.84 1.366-1.042.901-.313 1.844-.14 2.56.39zM15.895 7.01l.07.006.029.064c.85 1.768 1.02 3.781.37 5.584-.162.438-.365.858-.624 1.251-1.185 1.9-3.204 2.928-5.361 3.001l-2.335 3.696c-.15.23-.435.32-.676.23-.042-.018-.078-.031-.117-.056-.22-.152-.303-.447-.219-.694.013-.037.039-.075.051-.117l2.347-3.697c-.634-1.62-.703-3.41-.123-5.014.157-.438.362-.856.612-1.257 1.307-2.064 3.599-3.115 5.976-2.997z" transform="translate(-1182 -212) translate(0 -102) translate(0 222) translate(136 86) translate(1036) translate(10 6)"/>
                            </g>
                        </g>
                    </g>
                </g>
            </g>
        </g>
    </g>
</svg>
