<svg xmlns="http://www.w3.org/2000/svg" width="80" height="48" viewBox="0 0 80 48">
    <g fill="#FFF" fill-rule="evenodd">
        <path d="M11.663 32l.784.278.011.005c-.594 1.53-1.148 3.056-1.663 4.514-.515 1.459-.778 2.25-.803 2.314h-.733c-.02-.064-.21-.622-.566-1.667-.32-.94-.751-2.073-1.247-3.414l-.167-.455c-.515 1.275-.99 2.5-1.415 3.664-.424 1.164-.662 1.789-.693 1.861h-.8c-.02-.1-.252-.778-.674-2.036-.421-1.258-.99-2.836-1.697-4.722l.866-.33c0 .05.223.655.62 1.835.395 1.18.848 2.5 1.354 3.961l.031-.036c.546-1.341 1.013-2.57 1.415-3.686.401-1.117.61-1.7.628-1.755h.826c0 .063.223.691.636 1.902.31.909.633 1.795.95 2.67l.315.87c.566-1.512 1.037-2.837 1.414-3.976.39-1.144.594-1.741.608-1.797zm37.392 0l-.001.682h-3.117c0 .4 0 .853-.015 1.313-.016.46 0 .893 0 1.248h3.084v.747h-3.092v1.774c0 .554.013 1.009.015 1.347h-.788V32h3.914zm26.89 0c.206 0 .42 0 .628.014l.362.02.074.747c-.122-.021-.245-.036-.37-.044-.212-.023-.475-.028-.797-.028-.192 0-.383.02-.571.06-.188.035-.368.104-.532.203-.137.083-.253.199-.338.338-.098.149-.148.326-.143.507.002.17.052.337.143.479.15.203.34.37.556.493.136.08.319.182.532.293.212.11.446.235.662.368.297.17.553.408.75.695.17.268.262.582.265.903l.003.014c.01.332-.077.658-.247.939-.165.265-.387.485-.65.642-.267.161-.558.278-.86.346-.35.082-.706.123-1.064.122-.207 0-.433 0-.651-.03l-.41-.03-.04-.73c.13.026.262.042.394.05.213.023.465.028.755.028.228-.004.455-.03.678-.077.222-.027.44-.09.643-.186.176-.082.33-.207.452-.362.111-.161.167-.356.16-.554.006-.21-.05-.415-.16-.59-.145-.19-.326-.35-.531-.465-.16-.094-.357-.205-.607-.324-.233-.107-.458-.231-.675-.371-.292-.167-.54-.407-.723-.698-.146-.257-.223-.55-.223-.847-.005-.29.063-.577.196-.831.134-.233.31-.437.519-.601.24-.177.511-.304.797-.374.336-.08.68-.12 1.024-.119zm-45.017 0c0 .457-.018.985-.026 1.587-.006.501-.002.924 0 1.274v3.518h2.455l.672-.014v.746l-.005-.006h-3.917c0-.607.005-1.225.015-1.853V32h.806zM14.61 32v3.083h4.192V32h.845c0 .537 0 1.15-.013 1.852-.014.702 0 1.279 0 1.705v2.785c0 .351.003.603.013.752l-.013.017h-.846v-3.304h-4.178v3.304h-.845V32h.845zm53.033 0c.646-.006 1.29.057 1.923.187.529.125 1.034.334 1.498.62.473.292.866.701 1.14 1.19l.02-.006c.25.492.377 1.04.368 1.594.014.578-.145 1.146-.455 1.631-.297.467-.7.856-1.174 1.133-.438.253-.908.444-1.397.566-.57.137-1.153.202-1.738.196-.243 0-.486-.015-.713-.015h-.388v-4.94c0-.595-.017-1.306-.017-2.156zm-6.162 0c.432-.002.86.08 1.26.24.38.155.723.387 1.008.68.331.338.586.743.748 1.187l-.005-.011c.174.464.26.957.256 1.453.01.511-.081 1.02-.27 1.495-.165.418-.411.799-.723 1.122-.59.617-1.413.96-2.269.945-.404.003-.804-.071-1.18-.218-.375-.14-.716-.358-1.002-.638-.342-.325-.611-.719-.791-1.154-.206-.495-.308-1.027-.3-1.563-.006-.481.073-.96.235-1.413.16-.424.402-.813.713-1.143.291-.31.646-.553 1.04-.713.404-.174.84-.266 1.28-.269zm-7.848 0c.432-.003.86.078 1.262.239.378.155.72.386 1.005.678.332.337.588.74.75 1.183v.011c.169.464.256.955.255 1.449.005.51-.091 1.017-.283 1.491-.163.418-.41.8-.727 1.118-.3.309-.658.553-1.054.72-.385.15-.795.225-1.208.222-.403.004-.802-.07-1.177-.217-.373-.143-.713-.36-1-.636-.343-.321-.61-.714-.782-1.15-.21-.493-.315-1.024-.304-1.56-.009-.48.072-.956.237-1.407.158-.424.401-.812.714-1.14.288-.32.645-.57 1.043-.733.4-.173.832-.265 1.27-.268zM24.89 32c.431-.002.86.08 1.26.24.378.157.72.388 1.004.68.33.34.585.744.75 1.187l-.013-.011c.172.465.258.957.254 1.453.01.511-.081 1.02-.27 1.496-.164.418-.411.8-.726 1.122-.301.309-.662.554-1.06.72-.383.15-.791.226-1.202.224-.405.004-.808-.07-1.185-.218-.374-.143-.714-.36-1.002-.638-.341-.325-.61-.718-.788-1.154-.208-.494-.31-1.027-.302-1.563-.006-.481.075-.96.24-1.412.16-.424.4-.813.71-1.144.294-.311.652-.554 1.05-.713.404-.175.84-.267 1.28-.269zm14.938 0v.74h-3.61v2.338h3.619v.738h-.885c-.574 0-1.074-.015-1.54-.015h-1.2v2.587h3.694l-.001.686h-4.569v-.282c.002-.243.007-.594.02-1.046.02-.678 0-1.39 0-2.123v-1.58c0-.65 0-1.345-.02-2.043h4.492zm21.656.683c-.29-.003-.577.053-.845.165-.266.11-.506.275-.705.484-.281.28-.497.617-.632.99-.311.814-.311 1.714 0 2.529.144.366.365.697.649.971.2.188.432.338.685.444.268.112.556.17.846.167.287.004.572-.051.837-.162.263-.113.504-.273.71-.47.268-.264.48-.579.621-.926.167-.392.249-.813.243-1.238 0-.436-.073-.87-.216-1.283-.14-.4-.37-.761-.672-1.057-.197-.189-.425-.34-.675-.45-.268-.112-.555-.168-.846-.164zm-36.584.003c-.29-.003-.577.052-.844.164-.271.108-.515.274-.716.485-.279.28-.493.618-.626.99-.15.395-.225.815-.224 1.237-.009.442.07.88.232 1.292.144.366.365.697.648.97.194.187.421.337.67.442.266.111.552.168.842.167.288.005.575-.05.842-.161.262-.111.502-.271.704-.471.271-.261.483-.577.621-.926l.011.003c.168-.391.25-.813.243-1.238-.002-.436-.075-.87-.216-1.283-.138-.4-.368-.763-.672-1.057-.197-.188-.425-.34-.675-.45-.266-.112-.551-.167-.84-.164zm42.962.014h-.28c-.013.56-.013 1.02-.013 1.387v4.333h.263c.46-.003.92-.056 1.369-.159.406-.095.796-.247 1.16-.453.383-.226.71-.538.955-.912h.014c.246-.392.371-.85.36-1.314.008-.43-.088-.857-.279-1.243-.219-.4-.539-.733-.928-.965-.4-.254-.842-.431-1.305-.524-.432-.096-.873-.146-1.316-.15zm-14.228-.019c-.288-.002-.574.054-.84.164-.267.11-.508.274-.707.483-.278.28-.493.617-.63.987-.15.394-.227.812-.227 1.234-.008.44.073.878.238 1.287.138.367.357.698.641.969.2.186.432.336.685.442.266.111.552.168.84.167.289.004.575-.05.841-.161.262-.112.5-.27.704-.47.266-.264.477-.577.622-.922.163-.391.244-.811.237-1.234.001-.436-.072-.869-.218-1.28-.134-.4-.362-.76-.666-1.054-.197-.188-.426-.34-.676-.448-.267-.113-.554-.169-.844-.164zM6.774 8.751c2.348-.986 4.99-1.002 7.351-.044 1.093.455 2.083 1.126 2.911 1.973.958.982 1.696 2.157 2.167 3.447l.014-.011c.495 1.347.745 2.771.738 4.206.013 1.49-.267 2.966-.823 4.347-.477 1.221-1.197 2.332-2.115 3.266-1.706 1.788-4.078 2.785-6.547 2.751-1.167.005-2.324-.207-3.414-.624-1.077-.42-2.06-1.048-2.894-1.85-.989-.949-1.77-2.094-2.293-3.361C1.277 21.41.98 19.864 1 18.306c-.012-1.395.225-2.782.7-4.094.46-1.232 1.157-2.361 2.052-3.323.846-.917 1.875-1.646 3.02-2.138zm21.71-.105c.808.002 1.614.05 2.416.143.797.098 1.575.31 2.313.632.922.381 1.72 1.017 2.304 1.836.577.84.877 1.843.858 2.866.033 1.301-.43 2.565-1.294 3.528-.654.737-1.402 1.383-2.223 1.922 1.243 1.477 2.613 3.02 4.094 4.59l2.613 2.775-1.909 1.614-.143.135-2.334-2.633-5.868-6.789.032-.36.138-.035c.483-.149.947-.352 1.384-.607.525-.273 1.016-.61 1.46-1.005.35-.334.645-.723.874-1.153.263-.566.385-1.19.355-1.814.015-.637-.175-1.262-.542-1.78-.373-.505-.885-.887-1.473-1.097-.534-.202-1.094-.325-1.662-.365l-1.647-.064h-.966c-.009.371-.06 4.593-.06 4.593v2.938l.032 5.328.038 4.431h-2.743l.044-3.533.03-6.144V15.96L24.53 8.92v-.198l1.606-.046.005.002zm41.007 0l5.686 12.382-.01.009 2.963 6.344-2.43 1.206-.198.084-1.003-2.285-2.203-4.891h-8.194c-.099.227-2.27 4.975-2.27 4.975l-.997 2.217-2.143-1.114-.171-.092 3.154-6.64 5.681-12.195h2.135zm-13.927 0l.208 2.415H54.46c-1.312-.011-2.62.11-3.908.36-1.07.202-2.107.553-3.078 1.044-1.136.58-2.094 1.45-2.773 2.522-.653 1.008-1.001 2.18-1.005 3.378 0 1.51.352 2.772 1.04 3.757.693.99 1.624 1.792 2.708 2.337.998.503 2.063.864 3.163 1.073l.03.005s1.846.368 3.249.043c-.009-.216-.012-.828-.013-1.257v-.45l-.06-5.916h2.748l-.046 2.555-.022 2.232v3.148l.017 1.728c-2.635.66-5.516.346-5.516.346-.988-.114-1.965-.307-2.922-.577-1.704-.46-3.266-1.332-4.546-2.538-.825-.782-1.479-1.724-1.92-2.767-.504-1.188-.752-2.468-.731-3.756-.022-1.658.463-3.284 1.392-4.664.97-1.402 2.284-2.538 3.818-3.303 1.182-.599 2.442-1.032 3.744-1.288 1.432-.287 2.889-.43 4.35-.427h1.386zm-42.798 2.166c-1.481-.593-3.133-.593-4.614 0-.728.308-1.389.757-1.944 1.32-.765.785-1.356 1.723-1.736 2.752-.838 2.283-.832 4.79.017 7.07.392 1.016 1 1.935 1.782 2.693.546.516 1.18.93 1.87 1.225 1.477.617 3.139.622 4.62.013.721-.308 1.38-.748 1.94-1.298.742-.728 1.325-1.6 1.714-2.564l-.01.019c.457-1.094.685-2.27.67-3.455-.001-1.223-.207-2.437-.61-3.59-.371-1.113-1.003-2.12-1.843-2.939-.537-.526-1.166-.948-1.856-1.246zm55.469 1.585c-.27.577-1.579 3.458-1.579 3.458l-1.543 3.415h6.19c-.211-.483-1.468-3.31-1.468-3.31z"/>
    </g>
</svg>
