<svg xmlns="http://www.w3.org/2000/svg" width="149" height="22" viewBox="0 0 149 22">
    <g fill="none" fill-rule="evenodd">
        <path fill="#5C5C5C" d="M0 0H360V760H0z" transform="translate(-12 -655)"/>
        <g>
            <path fill="#FAFAFA" d="M223.998 0c11.995 0 8.179 19.999 17.002 19.999l.041.001H350c6.627 0 12 5.373 12 12v348H0V32c0-6.627 5.373-12 12-12h109.055c8.366-.39 5.154-19.585 16.573-19.993l.374-.007z" transform="translate(-12 -655) translate(-1 380)"/>
            <g>
                <path fill="#FF732A" d="M11 22C4.925 22 0 17.075 0 11S4.925 0 11 0h122c6.075 0 11 4.925 11 11v5.049l.005.198c.116 2.861 2.236 5.207 4.995 5.67V22H11z" transform="translate(-12 -655) translate(-1 380) translate(13 275)"/>
            </g>
        </g>
    </g>
</svg>
