<svg xmlns="http://www.w3.org/2000/svg" id="IMG_400_comingsoon_PC" width="400" height="120" viewBox="0 0 400 120">
    <defs>
        <clipPath id="clip-path">
            <path id="사각형_14" fill="#fff" d="M0 0H400V120H0z" transform="translate(7)"/>
        </clipPath>
        <style>
            .cls-3{fill:rgba(128,195,66,.36)}.cls-4{fill:rgba(133,194,31,.43)}.cls-5{fill:#ebeead}
        </style>
    </defs>
    <g id="마스크_그룹_2" clip-path="url(#clip-path)" transform="translate(-7)">
        <g id="그룹_33" transform="translate(314.096 23.333)">
            <g id="그룹_30" transform="translate(27.832 28.032)">
                <path id="패스_27" d="M324.383 198.751c1.545 1.346-.423 8.791-.423 8.791-.007.027-.048.2-.109.2s-.107-.165-.116-.192c0 0-2.215-7.056-.4-8.789a.783.783 0 0 1 .517-.245.832.832 0 0 1 .531.235z" class="cls-3" transform="translate(-313.381 -198.516)"/>
                <path id="패스_28" d="M312.744 203.381c2.044-.142 5.917 6.515 5.917 6.515.014.024.106.175.063.219s-.192-.041-.218-.054c0 0-6.556-3.424-6.5-5.932a.781.781 0 0 1 .193-.538.829.829 0 0 1 .545-.21z" class="cls-3" transform="translate(-309.166 -200.447)"/>
                <path id="패스_29" d="M307.529 214.865c1.345-1.545 8.792.423 8.792.423.026.007.2.048.2.109s-.165.107-.192.116c0 0-7.056 2.216-8.789.4a.783.783 0 0 1-.244-.517.829.829 0 0 1 .233-.531z" class="cls-3" transform="translate(-307.294 -204.774)"/>
                <path id="패스_30" d="M312.158 223.625c-.141-2.044 6.516-5.918 6.516-5.918.023-.014.175-.106.218-.063s-.041.192-.054.218c0 0-3.424 6.556-5.931 6.5a.785.785 0 0 1-.538-.193.828.828 0 0 1-.211-.544z" class="cls-3" transform="translate(-309.225 -206.108)"/>
                <path id="패스_31" d="M323.642 227.194c-1.545-1.346.423-8.792.423-8.792.007-.027.049-.2.11-.2s.107.164.116.192c0 0 2.214 7.056.4 8.789a.788.788 0 0 1-.517.244.831.831 0 0 1-.532-.233z" class="cls-3" transform="translate(-313.551 -206.335)"/>
                <path id="패스_32" d="M332.4 224.2c-2.044.14-5.918-6.516-5.918-6.516-.014-.024-.106-.175-.063-.218s.192.041.217.054c0 0 6.556 3.423 6.5 5.931a.784.784 0 0 1-.193.538.835.835 0 0 1-.543.211z" class="cls-3" transform="translate(-314.886 -206.036)"/>
                <path id="패스_33" d="M335.971 215.606c-1.346 1.545-8.792-.423-8.792-.423-.026-.007-.2-.049-.2-.11s.165-.107.192-.116c0 0 7.056-2.215 8.79-.4a.787.787 0 0 1 .243.517.828.828 0 0 1-.233.532z" class="cls-3" transform="translate(-315.112 -204.603)"/>
                <path id="패스_34" d="M332.974 203.966c.141 2.044-6.515 5.918-6.515 5.918-.025.014-.175.106-.219.063s.041-.192.054-.217c0 0 3.424-6.556 5.931-6.5a.783.783 0 0 1 .538.192.825.825 0 0 1 .211.544z" class="cls-3" transform="translate(-314.814 -200.388)"/>
            </g>
            <g id="그룹_31" transform="translate(11.584 11.644)">
                <path id="패스_35" d="M323.185 185.845c-.764-4.611-1.527-8.8-2.291-13.411-.062-.377 1.01-1.11 2.267-1.1 1.221.008 2.229.737 2.168 1.1-.715 4.61-1.429 8.8-2.144 13.411z" class="cls-3" transform="translate(-296.446 -171.331)"/>
                <path id="패스_36" d="M311.326 188.319c-2.573-3.9-4.975-7.418-7.548-11.32-.21-.318.471-1.425 1.622-1.929 1.119-.49 2.336-.233 2.429.125 1.223 4.505 2.271 8.622 3.497 13.124z" class="cls-3" transform="translate(-289.635 -172.708)"/>
                <path id="패스_37" d="M301.739 195.257c-3.937-2.518-7.562-4.754-11.5-7.272-.322-.206-.15-1.493.7-2.422.822-.9 2.039-1.164 2.27-.874 2.946 3.618 5.581 6.952 8.53 10.568z" class="cls-3" transform="translate(-284.213 -176.592)"/>
                <path id="패스_38" d="M295.953 205.643c-4.621-.7-8.842-1.267-13.464-1.965-.377-.057-.743-1.3-.348-2.5.385-1.159 1.39-1.892 1.719-1.721 4.164 2.107 7.929 4.082 12.093 6.186z" class="cls-3" transform="translate(-280.989 -182.492)"/>
                <path id="패스_39" d="M294.789 217.776c-4.506 1.242-8.592 2.439-13.1 3.681-.368.1-1.21-.888-1.333-2.14-.121-1.215.5-2.294.869-2.271 4.662.229 8.904.502 13.564.73z" class="cls-3" transform="translate(-280.343 -189.487)"/>
                <path id="패스_40" d="M298.441 226.394c-3.612 2.967-6.858 5.724-10.469 8.69-.295.242-1.467-.319-2.088-1.411-.6-1.062-.477-2.3-.13-2.428 4.346-1.688 8.336-3.164 12.687-4.851z" class="cls-3" transform="translate(-282.376 -193.199)"/>
                <path id="패스_41" d="M306.363 232.736c-2.092 4.178-3.937 8.017-6.029 12.2-.171.341-1.47.305-2.481-.44-.984-.724-1.371-1.906-1.106-2.166 3.288-3.314 6.328-6.284 9.616-9.594z" class="cls-3" transform="translate(-286.825 -195.718)"/>
                <path id="패스_42" d="M317.368 236.185c-.212 4.669-.335 8.927-.547 13.6-.017.381-1.218.876-2.446.607-1.193-.262-2.027-1.184-1.891-1.529 1.657-4.363 3.227-8.316 4.884-12.678z" class="cls-3" transform="translate(-293.101 -197.087)"/>
                <path id="패스_43" d="M329.164 236.147c1.7 4.351 3.324 8.291 5.029 12.642.139.355-.757 1.3-1.988 1.549-1.2.247-2.334-.257-2.351-.628-.254-4.658-.431-8.905-.69-13.563z" class="cls-3" transform="translate(-299.732 -197.072)"/>
                <path id="패스_44" d="M336.975 232.626c3.328 3.282 6.408 6.222 9.736 9.5.272.268-.164 1.492-1.185 2.224-.992.712-2.237.715-2.4.383-2.134-4.147-4.019-7.956-6.151-12.107z" class="cls-3" transform="translate(-302.834 -195.674)"/>
                <path id="패스_45" d="M342.68 226.234c4.374 1.643 8.385 3.077 12.76 4.722.357.134.456 1.429-.179 2.514-.618 1.054-1.752 1.562-2.039 1.326-3.635-2.925-6.906-5.639-10.542-8.562z" class="cls-3" transform="translate(-305.099 -193.135)"/>
                <path id="패스_46" d="M345.291 217.495c4.665-.277 8.912-.6 13.577-.877.381-.022 1 1.121.86 2.369-.135 1.214-.965 2.141-1.323 2.042-4.512-1.193-8.605-2.342-13.114-3.534z" class="cls-3" transform="translate(-306.136 -189.316)"/>
                <path id="패스_47" d="M344.356 205.374c4.149-2.151 7.9-4.172 12.047-6.323.339-.175 1.368.617 1.748 1.815.37 1.164-.011 2.348-.378 2.4-4.605.748-8.811 1.363-13.417 2.108z" class="cls-3" transform="translate(-305.765 -182.33)"/>
                <path id="패스_48" d="M340.039 195.049c2.915-3.653 5.518-7.024 8.433-10.677.239-.3 1.5.007 2.335.946.812.913.945 2.15.632 2.349-3.903 2.555-7.495 4.828-11.4 7.382z" class="cls-3" transform="translate(-304.051 -176.467)"/>
                <path id="패스_49" d="M333.085 188.211c1.178-4.523 2.184-8.661 3.362-13.183.1-.37 1.374-.6 2.519-.086 1.112.5 1.737 1.579 1.532 1.889-2.529 3.921-4.885 7.458-7.413 11.38z" class="cls-3" transform="translate(-301.289 -172.646)"/>
            </g>
            <g id="그룹_32">
                <path id="패스_50" d="M324.383 152.252c1.545 1.346-.423 8.791-.423 8.791-.007.027-.048.2-.109.2s-.107-.165-.116-.192c0 0-2.215-7.056-.4-8.789a.783.783 0 0 1 .517-.244.826.826 0 0 1 .531.234z" class="cls-3" transform="translate(-285.549 -152.017)"/>
                <path id="패스_51" d="M311.414 153.551c1.79 1 1.414 8.688 1.414 8.688 0 .027-.006.2-.066.217s-.139-.139-.153-.163c0 0-3.634-6.442-2.22-8.514a.784.784 0 0 1 .455-.346.831.831 0 0 1 .57.118z" class="cls-3" transform="translate(-280.562 -152.574)"/>
                <path id="패스_52" d="M298.9 157.563c1.959.6 3.19 8.2 3.19 8.2 0 .027.036.2-.019.226s-.165-.107-.184-.128c0 0-4.893-5.546-3.941-7.866a.783.783 0 0 1 .373-.433.829.829 0 0 1 .581.001z" class="cls-3" transform="translate(-275.7 -154.198)"/>
                <path id="패스_53" d="M287.443 164.106c2.041.18 4.825 7.361 4.825 7.361.01.026.077.19.028.225s-.184-.071-.207-.087c0 0-5.939-4.407-5.491-6.875a.782.782 0 0 1 .275-.5.825.825 0 0 1 .57-.124z" class="cls-3" transform="translate(-271.234 -156.815)"/>
                <path id="패스_54" d="M277.569 172.884c2.033-.248 6.25 6.2 6.25 6.2.015.023.115.169.075.215s-.194-.031-.22-.043c0 0-6.726-3.076-6.8-5.582a.787.787 0 0 1 .165-.548.834.834 0 0 1 .53-.242z" class="cls-3" transform="translate(-267.38 -160.302)"/>
                <path id="패스_55" d="M269.721 183.517c1.938-.666 7.4 4.762 7.4 4.762.02.02.148.142.118.195s-.2.01-.224 0c0 0-7.219-1.61-7.812-4.046a.784.784 0 0 1 .047-.57.831.831 0 0 1 .471-.341z" class="cls-3" transform="translate(-264.322 -164.504)"/>
                <path id="패스_56" d="M264.257 195.525c1.757-1.054 8.231 3.119 8.231 3.119.023.015.174.107.155.166s-.19.051-.218.051c0 0-7.4-.074-8.483-2.334a.787.787 0 0 1-.072-.567.83.83 0 0 1 .387-.435z" class="cls-3" transform="translate(-262.205 -169.228)"/>
                <path id="패스_57" d="M261.42 208.35c1.5-1.4 8.7 1.34 8.7 1.34.026.01.193.069.187.13s-.175.089-.2.1c0 0-7.249 1.465-8.783-.52a.779.779 0 0 1-.189-.54.826.826 0 0 1 .285-.51z" class="cls-3" transform="translate(-261.127 -174.231)"/>
                <path id="패스_58" d="M261.334 221.314c1.176-1.677 8.787-.5 8.787-.5.028 0 .2.027.209.089s-.152.124-.178.134c0 0-6.786 2.941-8.7 1.318a.787.787 0 0 1-.3-.489.832.832 0 0 1 .182-.552z" class="cls-3" transform="translate(-261.137 -179.18)"/>
                <path id="패스_59" d="M264 233.421c.8-1.885 8.492-2.314 8.492-2.314.028 0 .2-.015.223.043s-.124.153-.147.169c0 0-6.027 4.287-8.235 3.1a.783.783 0 0 1-.392-.417.83.83 0 0 1 .059-.581z" class="cls-3" transform="translate(-262.234 -183.426)"/>
                <path id="패스_60" d="M269.311 244.485c.392-2.011 7.825-4.029 7.825-4.029.027-.008.2-.057.227 0s-.089.175-.109.2c0 0-5 5.447-7.411 4.743a.782.782 0 0 1-.47-.326.826.826 0 0 1-.062-.588z" class="cls-3" transform="translate(-264.367 -187.129)"/>
                <path id="패스_61" d="M277.015 254.3c-.034-2.049 6.816-5.568 6.816-5.568.025-.013.18-.1.221-.052s-.051.189-.065.214c0 0-3.762 6.368-6.263 6.179a.782.782 0 0 1-.527-.22.832.832 0 0 1-.182-.553z" class="cls-3" transform="translate(-267.437 -190.4)"/>
                <path id="패스_62" d="M286.774 262.434c-.459-2 5.51-6.864 5.51-6.864.022-.018.156-.132.206-.1s-.01.2-.019.224c0 0-2.356 7.011-4.841 7.346a.778.778 0 0 1-.562-.106.831.831 0 0 1-.294-.5z" class="cls-3" transform="translate(-271.303 -193.101)"/>
                <path id="패스_63" d="M298.159 268.539c-.864-1.857 3.963-7.859 3.963-7.859.017-.022.125-.163.181-.138s.03.195.027.223c0 0-.846 7.347-3.208 8.192a.784.784 0 0 1-.572.013.831.831 0 0 1-.391-.431z" class="cls-3" transform="translate(-275.793 -195.116)"/>
                <path id="패스_64" d="M310.651 272.347c-1.232-1.637 2.241-8.51 2.241-8.51.013-.025.089-.185.149-.172s.07.184.073.212c0 0 .7 7.363-1.435 8.68a.781.781 0 0 1-.556.132.827.827 0 0 1-.472-.342z" class="cls-3" transform="translate(-280.69 -196.357)"/>
                <path id="패스_65" d="M323.642 273.692c-1.545-1.345.423-8.791.423-8.791.007-.026.049-.2.11-.2s.107.165.116.193c0 0 2.214 7.056.4 8.789a.788.788 0 0 1-.517.244.825.825 0 0 1-.532-.235z" class="cls-3" transform="translate(-285.72 -196.769)"/>
                <path id="패스_66" d="M336.32 272.517c-1.791-.994-1.414-8.687-1.414-8.687 0-.028.005-.2.066-.217s.139.139.153.163c0 0 3.633 6.442 2.22 8.514a.785.785 0 0 1-.455.347.83.83 0 0 1-.57-.12z" class="cls-3" transform="translate(-290.415 -196.336)"/>
                <path id="패스_67" d="M347.858 268.869c-1.959-.6-3.189-8.2-3.189-8.2 0-.028-.037-.2.019-.227s.165.107.185.129c0 0 4.893 5.545 3.941 7.865a.783.783 0 0 1-.373.434.828.828 0 0 1-.583-.001z" class="cls-3" transform="translate(-294.3 -195.075)"/>
                <path id="패스_68" d="M358.353 262.91c-2.04-.18-4.825-7.361-4.825-7.361-.01-.026-.078-.189-.028-.225s.183.071.206.088c0 0 5.94 4.407 5.491 6.874a.787.787 0 0 1-.275.5.831.831 0 0 1-.569.124z" class="cls-3" transform="translate(-297.806 -193.042)"/>
                <path id="패스_69" d="M367.377 254.9c-2.034.248-6.25-6.2-6.25-6.2-.015-.023-.115-.169-.074-.215s.194.031.22.043c0 0 6.726 3.076 6.8 5.583a.786.786 0 0 1-.164.548.832.832 0 0 1-.532.241z" class="cls-3" transform="translate(-300.808 -190.324)"/>
                <path id="패스_70" d="M374.537 245.186c-1.938.666-7.4-4.761-7.4-4.761-.019-.021-.148-.142-.118-.195s.2-.01.225 0c0 0 7.218 1.611 7.812 4.047a.788.788 0 0 1-.048.57.828.828 0 0 1-.471.339z" class="cls-3" transform="translate(-303.179 -187.04)"/>
                <path id="패스_71" d="M379.522 234.189c-1.757 1.054-8.231-3.119-8.231-3.119-.023-.015-.174-.109-.155-.166s.189-.051.218-.051c0 0 7.4.074 8.483 2.334a.782.782 0 0 1 .072.567.838.838 0 0 1-.387.435z" class="cls-3" transform="translate(-304.816 -183.326)"/>
                <path id="패스_72" d="M382.112 222.038c-1.5 1.4-8.7-1.339-8.7-1.339-.026-.01-.192-.069-.186-.13s.175-.089.2-.094c0 0 7.249-1.466 8.783.519a.78.78 0 0 1 .188.539.821.821 0 0 1-.285.505z" class="cls-3" transform="translate(-305.647 -178.998)"/>
                <path id="패스_73" d="M382.2 209.106c-1.176 1.677-8.787.5-8.787.5-.027 0-.2-.028-.209-.089s.152-.124.179-.135c0 0 6.786-2.941 8.7-1.318a.786.786 0 0 1 .3.489.825.825 0 0 1-.183.553z" class="cls-3" transform="translate(-305.636 -174.081)"/>
                <path id="패스_74" d="M379.772 196.283c-.8 1.885-8.492 2.314-8.492 2.314-.028 0-.2.015-.223-.043s.124-.153.147-.169c0 0 6.027-4.287 8.234-3.1a.779.779 0 0 1 .392.416.832.832 0 0 1-.058.582z" class="cls-3" transform="translate(-304.784 -169.119)"/>
                <path id="패스_75" d="M374.942 184.227c-.392 2.011-7.826 4.03-7.826 4.03-.026.007-.2.057-.227 0s.089-.175.109-.2c0 0 5-5.446 7.411-4.742a.783.783 0 0 1 .47.326.829.829 0 0 1 .063.586z" class="cls-3" transform="translate(-303.128 -164.425)"/>
                <path id="패스_76" d="M367.919 173.5c.034 2.048-6.816 5.568-6.816 5.568-.025.013-.181.1-.221.052s.051-.19.065-.215c0 0 3.761-6.368 6.263-6.179a.784.784 0 0 1 .528.221.825.825 0 0 1 .181.553z" class="cls-3" transform="translate(-300.74 -160.24)"/>
                <path id="패스_77" d="M359.009 164.59c.459 2-5.511 6.864-5.511 6.864-.021.017-.155.133-.2.1s.01-.2.019-.223c0 0 2.356-7.011 4.842-7.346a.782.782 0 0 1 .562.106.834.834 0 0 1 .288.499z" class="cls-3" transform="translate(-297.723 -156.763)"/>
                <path id="패스_78" d="M348.6 157.9c.864 1.857-3.963 7.859-3.963 7.859-.017.022-.125.162-.181.137s-.031-.194-.027-.222c0 0 .846-7.348 3.208-8.193a.78.78 0 0 1 .571-.013.831.831 0 0 1 .392.432z" class="cls-3" transform="translate(-294.206 -154.161)"/>
                <path id="패스_79" d="M337.058 153.722c1.232 1.637-2.242 8.512-2.242 8.512-.012.025-.089.184-.149.172s-.07-.184-.073-.212c0 0-.7-7.363 1.435-8.68a.781.781 0 0 1 .556-.131.828.828 0 0 1 .473.339z" class="cls-3" transform="translate(-290.261 -152.554)"/>
            </g>
        </g>
        <g id="그룹_38" transform="translate(19.244 52.28)">
            <g id="그룹_35" transform="translate(8.045 7.58)">
                <g id="그룹_34">
                    <path id="패스_80" d="M105.967 52.084c1.02 3.075-.279 20.094-.279 20.094 0 .061-.032.454-.072.455s-.07-.377-.076-.439c0 0-1.461-16.128-.265-20.089.044-.143.168-.552.341-.558s.303.391.351.537z" class="cls-4" transform="translate(-84.683 -51.547)"/>
                    <path id="패스_81" d="M85.994 57.02c2.332 2.249 9.091 17.922 9.091 17.922.024.056.183.417.147.437s-.237-.3-.272-.354c0 0-8.789-13.6-9.57-17.664-.028-.147-.108-.567.043-.653s.451.206.561.312z" class="cls-4" transform="translate(-74.299 -54.292)"/>
                    <path id="패스_82" d="M69.957 71.011c3.11.908 16.379 11.644 16.379 11.644.048.038.356.285.333.318s-.35-.156-.4-.187c0 0-14.1-7.96-16.683-11.194-.094-.117-.359-.452-.266-.6s.49-.024.637.019z" class="cls-4" transform="translate(-65.736 -61.887)"/>
                    <path id="패스_83" d="M62.241 90.6c3.175-.641 19.914 2.7 19.914 2.7.06.012.447.087.443.127s-.382.024-.445.022c0 0-16.187-.493-19.974-2.159-.138-.06-.528-.233-.513-.406s.424-.249.575-.284z" class="cls-4" transform="translate(-61.664 -72.344)"/>
                    <path id="패스_84" d="M64.641 103.706c2.514-2.044 18.887-6.865 18.887-6.865.059-.017.437-.131.451-.093s-.327.2-.384.227c0 0-14.562 7.086-18.69 7.371-.149.011-.576.039-.643-.121s.26-.425.379-.519z" class="cls-4" transform="translate(-63.046 -75.662)"/>
                    <path id="패스_85" d="M76.6 111.9c1.276-2.978 13.533-14.856 13.533-14.856.044-.043.326-.319.356-.292s-.2.328-.234.379c0 0-9.6 13.041-13.123 15.212-.128.079-.492.3-.625.191s.034-.49.093-.634z" class="cls-4" transform="translate(-69.558 -75.668)"/>
                    <path id="패스_86" d="M95.26 116.624c-.254-3.229 5.08-19.443 5.08-19.443.019-.058.14-.434.179-.424s-.022.382-.031.444c0 0-2.441 16.01-4.55 19.568-.076.13-.3.5-.465.461s-.201-.453-.213-.606z" class="cls-4" transform="translate(-79.586 -75.67)"/>
                    <path id="패스_87" d="M111.108 116.792c-1.725-2.742-4.538-19.577-4.538-19.577-.01-.06-.077-.449-.038-.458s.159.348.179.408c0 0 5.279 15.31 5.065 19.442-.008.15-.031.576-.2.624s-.386-.309-.468-.439z" class="cls-4" transform="translate(-85.598 -75.67)"/>
                    <path id="패스_88" d="M119.905 112.369c-2.8-1.626-13.115-15.226-13.115-15.226-.037-.049-.278-.361-.248-.388s.3.235.348.278c0 0 11.789 11.1 13.52 14.861.063.136.24.525.115.644s-.487-.092-.62-.169z" class="cls-4" transform="translate(-85.609 -75.668)"/>
                    <path id="패스_89" d="M125.633 104.363c-3.236-.138-18.689-7.387-18.689-7.387-.056-.026-.414-.191-.4-.229s.377.067.437.084c0 0 15.6 4.353 18.877 6.876.119.091.457.353.4.517s-.471.145-.625.139z" class="cls-4" transform="translate(-85.612 -75.661)"/>
                    <path id="패스_90" d="M126.986 91.3c-2.93 1.382-19.981 2.145-19.981 2.145-.062 0-.455.023-.46-.017s.365-.116.427-.129c0 0 15.835-3.395 19.911-2.685.147.026.569.1.6.271s-.358.348-.497.415z" class="cls-4" transform="translate(-85.612 -72.34)"/>
                    <path id="패스_91" d="M123.654 71.6c-1.951 2.586-16.7 11.185-16.7 11.185-.053.031-.392.232-.415.2s.27-.272.318-.312c0 0 12.444-10.365 16.382-11.629.143-.046.55-.176.653-.037s-.145.468-.238.593z" class="cls-4" transform="translate(-85.611 -61.895)"/>
                    <path id="패스_92" d="M116.4 57.351c-.527 3.2-9.586 17.662-9.586 17.662-.033.052-.239.388-.275.369s.112-.367.137-.425c0 0 6.2-14.96 9.1-17.911.105-.107.405-.411.562-.336s.086.49.062.641z" class="cls-4" transform="translate(-85.606 -54.296)"/>
                </g>
            </g>
            <g id="그룹_36" transform="translate(3.764 3.257)">
                <path id="패스_93" d="M106.718 43.675a1.4 1.4 0 1 1-1.4-1.4 1.4 1.4 0 0 1 1.4 1.4z" class="cls-4" transform="translate(-79.931 -42.277)"/>
                <path id="패스_94" d="M82.589 48.748a1.4 1.4 0 1 1-1.888-.588 1.4 1.4 0 0 1 1.888.588z" class="cls-4" transform="translate(-67.141 -45.33)"/>
                <path id="패스_95" d="M63.583 64.452a1.4 1.4 0 1 1-1.945.356 1.4 1.4 0 0 1 1.945-.356z" class="cls-4" transform="translate(-57.237 -53.977)"/>
                <path id="패스_96" d="M54.052 87.191a1.4 1.4 0 1 1-1.557 1.22 1.4 1.4 0 0 1 1.557-1.22z" class="cls-4" transform="translate(-52.485 -66.237)"/>
                <path id="패스_97" d="M56.18 111.755a1.4 1.4 0 1 1-.812 1.8 1.4 1.4 0 0 1 .812-1.8z" class="cls-4" transform="translate(-53.975 -79.301)"/>
                <path id="패스_98" d="M69.48 132.516a1.4 1.4 0 1 1 .119 1.974 1.4 1.4 0 0 1-.119-1.974z" class="cls-4" transform="translate(-61.365 -90.176)"/>
                <path id="패스_99" d="M90.9 144.718a1.4 1.4 0 1 1 1.023 1.693 1.4 1.4 0 0 1-1.023-1.693z" class="cls-4" transform="translate(-72.963 -96.371)"/>
                <path id="패스_100" d="M115.543 145.566a1.4 1.4 0 1 1 1.693 1.023 1.4 1.4 0 0 1-1.693-1.023z" class="cls-4" transform="translate(-86.111 -96.466)"/>
                <path id="패스_101" d="M137.757 134.867a1.4 1.4 0 1 1 1.973.119 1.4 1.4 0 0 1-1.973-.119z" class="cls-4" transform="translate(-97.798 -90.441)"/>
                <path id="패스_102" d="M152.452 115.069a1.4 1.4 0 1 1 1.8-.812 1.4 1.4 0 0 1-1.8.812z" class="cls-4" transform="translate(-105.345 -79.674)"/>
                <path id="패스_103" d="M156.265 90.711a1.4 1.4 0 1 1 1.219-1.557 1.4 1.4 0 0 1-1.219 1.557z" class="cls-4" transform="translate(-107.025 -66.634)"/>
                <path id="패스_104" d="M148.321 67.37a1.4 1.4 0 1 1 .356-1.945 1.4 1.4 0 0 1-.356 1.945z" class="cls-4" transform="translate(-102.452 -54.306)"/>
                <path id="패스_105" d="M130.439 50.4a1.4 1.4 0 1 1-.588-1.888 1.4 1.4 0 0 1 .588 1.888z" class="cls-4" transform="translate(-92.673 -45.516)"/>
            </g>
            <g id="그룹_37">
                <path id="패스_106" d="M114.6 35.894c.4 3.225-4.228 19.71-4.228 19.71-.016.059-.121.441-.16.433s0-.384.011-.447c0 0 1.736-16.151 3.692-19.811.071-.133.274-.51.445-.482s.222.444.24.597z" class="cls-4" transform="translate(-79.515 -35.295)"/>
                <path id="패스_107" d="M89.413 36.821c1.851 2.671 5.416 19.417 5.416 19.417.013.061.1.447.059.458s-.174-.342-.2-.4c0 0-5.968-15.108-5.937-19.258 0-.151.006-.579.171-.634s.403.291.491.417z" class="cls-4" transform="translate(-68.072 -35.883)"/>
                <path id="패스_108" d="M63.647 51.437c2.88 1.5 13.819 14.676 13.819 14.676.039.048.294.35.265.378s-.313-.222-.361-.264c0 0-12.306-10.6-14.207-14.293-.069-.134-.264-.515-.144-.64s.492.071.628.143z" class="cls-4" transform="translate(-54.321 -43.811)"/>
                <path id="패스_109" d="M47.549 76.313C50.8 76.307 66.6 82.887 66.6 82.887c.057.023.423.173.41.212s-.381-.051-.442-.066c0 0-15.824-3.67-19.222-6.053-.123-.087-.473-.333-.424-.5s.472-.167.627-.167z" class="cls-4" transform="translate(-45.752 -57.182)"/>
                <path id="패스_110" d="M44.89 102.161c2.874-1.515 19.928-3.035 19.928-3.035.062-.005.455-.043.462 0s-.361.132-.422.148c0 0-15.718 4.1-19.834 3.573-.149-.02-.574-.076-.608-.246s.338-.368.474-.44z" class="cls-4" transform="translate(-44.414 -69.343)"/>
                <path id="패스_111" d="M56.285 119.035c1.841-2.678 16.235-11.949 16.235-11.949.052-.033.383-.25.408-.217s-.258.285-.305.327c0 0-12.011 10.938-15.9 12.38-.141.053-.543.2-.653.066s.13-.48.215-.607z" class="cls-4" transform="translate(-50.618 -73.484)"/>
                <path id="패스_112" d="M79.082 130.784c.386-3.227 8.823-18.125 8.823-18.125.03-.054.223-.4.259-.382s-.1.372-.118.431c0 0-5.551 15.267-8.326 18.352-.1.112-.388.43-.548.361s-.108-.484-.09-.637z" class="cls-4" transform="translate(-62.901 -76.372)"/>
                <path id="패스_113" d="M107.049 134.729c-1.158-3.037-.611-20.148-.611-20.148 0-.062.012-.458.052-.459s.088.375.1.437c0 0 2.18 16.1 1.156 20.12-.037.146-.144.561-.317.574s-.329-.38-.38-.524z" class="cls-4" transform="translate(-77.441 -77.356)"/>
                <path id="패스_114" d="M124.81 129.967c-2.436-2.15-9.9-17.556-9.9-17.556-.027-.056-.2-.41-.167-.431s.251.291.288.342c0 0 9.411 13.241 10.373 17.278.035.146.133.563-.014.656s-.464-.187-.58-.289z" class="cls-4" transform="translate(-81.936 -76.213)"/>
                <path id="패스_115" d="M138.149 117.588c-3.156-.772-16.929-10.943-16.929-10.943-.05-.036-.369-.27-.348-.3s.358.141.414.169c0 0 14.486 7.351 17.215 10.477.1.113.38.437.292.588s-.493.045-.644.009z" class="cls-4" transform="translate(-85.211 -73.202)"/>
                <path id="패스_116" d="M144.207 100.375c-3.154.783-20.075-1.822-20.075-1.822-.061-.009-.452-.067-.45-.107s.382-.042.445-.042c0 0 16.243-.223 20.112 1.277.14.055.54.21.532.384s-.414.273-.564.31z" class="cls-4" transform="translate(-86.711 -68.963)"/>
                <path id="패스_117" d="M141.6 72.731c-2.429 2.159-18.623 7.716-18.623 7.716-.058.02-.431.151-.448.114s.319-.215.375-.244c0 0 14.279-7.746 18.4-8.216.149-.017.575-.064.649.093s-.241.435-.353.537z" class="cls-4" transform="translate(-86.094 -54.924)"/>
                <path id="패스_118" d="M130.916 48.87c-1.147 3.04-12.9 15.487-12.9 15.487-.042.045-.312.334-.344.309s.183-.338.218-.391c0 0 9.044-13.494 12.476-15.826.125-.085.479-.325.618-.22s-.014.496-.068.641z" class="cls-4" transform="translate(-83.5 -42.182)"/>
            </g>
        </g>
        <g id="그룹_40" transform="translate(82.763 32.603)">
            <g id="그룹_39">
                <path id="패스_119" d="M349.5 53.013a.529.529 0 0 1-.551-.509l-.722-18.267a.53.53 0 1 1 1.059-.042l.722 18.267a.529.529 0 0 1-.508.551z" class="cls-5" transform="translate(-339.19 -33.686)"/>
                <path id="패스_120" d="M358.183 43.358l-18.267.723a.53.53 0 0 1-.042-1.06l18.267-.722a.53.53 0 1 1 .042 1.059z" class="cls-5" transform="translate(-339.366 -33.515)"/>
                <path id="패스_121" d="M344.418 48.968a.53.53 0 0 1-.409-.889l9.542-10.329a.53.53 0 0 1 .778.72l-9.542 10.33a.528.528 0 0 1-.369.168z" class="cls-5" transform="translate(-339.277 -33.609)"/>
                <path id="패스_122" d="M354.361 48.567a.529.529 0 0 1-.38-.141l-10.328-9.543a.53.53 0 0 1 .719-.778l10.328 9.544a.53.53 0 0 1-.339.919z" class="cls-5" transform="translate(-339.284 -33.601)"/>
            </g>
        </g>
        <g id="그룹_41" transform="translate(384.921 92.104)">
            <g id="그룹_39-2">
                <path id="패스_119-2" d="M349.2 48.406a.4.4 0 0 1-.419-.388l-.55-13.913a.4.4 0 1 1 .806-.032l.55 13.913a.4.4 0 0 1-.387.42z" class="cls-5" transform="translate(-341.344 -33.686)"/>
                <path id="패스_120-2" d="M353.7 43.105l-13.913.551a.4.4 0 0 1-.032-.807l13.913-.55a.4.4 0 1 1 .032.806z" class="cls-5" transform="translate(-339.366 -35.609)"/>
                <path id="패스_121-2" d="M344.286 46.253a.4.4 0 0 1-.311-.677l7.268-7.867a.4.4 0 0 1 .593.548l-7.268 7.866a.4.4 0 0 1-.282.13z" class="cls-5" transform="translate(-340.371 -34.555)"/>
                <path id="패스_122-2" d="M351.768 46.04a.4.4 0 0 1-.29-.107l-7.866-7.268a.4.4 0 1 1 .548-.593l7.866 7.268a.4.4 0 0 1-.258.7z" class="cls-5" transform="translate(-340.285 -34.641)"/>
            </g>
        </g>
        <g id="그룹_42" transform="translate(266 34.603)">
            <g id="그룹_39-3">
                <path id="패스_119-3" d="M349.368 51.019a.474.474 0 0 1-.494-.456l-.648-16.383a.475.475 0 1 1 .949-.037l.648 16.383a.475.475 0 0 1-.455.493z" class="cls-5" transform="translate(-340.122 -33.686)"/>
                <path id="패스_120-3" d="M356.242 43.248l-16.383.648a.476.476 0 0 1-.037-.95L356.2 42.3a.475.475 0 1 1 .037.949z" class="cls-5" transform="translate(-339.366 -34.421)"/>
                <path id="패스_121-3" d="M344.361 47.793a.475.475 0 0 1-.367-.8l8.558-9.264a.475.475 0 0 1 .7.646l-8.558 9.263a.474.474 0 0 1-.333.155z" class="cls-5" transform="translate(-339.75 -34.018)"/>
                <path id="패스_122-3" d="M353.239 47.474a.474.474 0 0 1-.341-.126l-9.263-8.559a.475.475 0 0 1 .645-.7l9.263 8.559a.475.475 0 0 1-.3.824z" class="cls-5" transform="translate(-339.717 -34.051)"/>
            </g>
        </g>
    </g>
</svg>
