<svg xmlns="http://www.w3.org/2000/svg" width="137" height="33" viewBox="0 0 137 33">
    <defs>
        <clipPath id="clip-path">
            <path id="Clip_2" d="M0 0h11.253v12.019H0z" class="cls-1"/>
        </clipPath>
        <clipPath id="clip-path-2">
            <path id="Clip_5" d="M0 0h10.987v12H0z" class="cls-1"/>
        </clipPath>
        <clipPath id="clip-path-3">
            <path id="Clip_20" d="M0 0h9.394v22.108H0z" class="cls-1"/>
        </clipPath>
        <style>
            .cls-1{fill:none}.cls-4{fill:#231f20}.cls-7{fill:#80c342}
        </style>
    </defs>
    <g id="logo_pulmuone_PC">
        <g id="logo_pulmuone">
            <g id="logo" transform="translate(2.861 5.556)">
                <g id="Group_3" transform="translate(92.526 10.204)">
                    <path id="Clip_2-2" d="M0 0h11.253v12.019H0z" class="cls-1"/>
                    <g id="Group_3-2" clip-path="url(#clip-path)">
                        <path id="Fill_1" d="M4.776 12.018H4.67C1.864 11.973.12 10.331.006 7.623-.105 4.965 1.29 1.539 4.1.425A6.786 6.786 0 0 1 6.635 0a4.261 4.261 0 0 1 4.612 4.41 8.1 8.1 0 0 1-2.126 5.813 5.985 5.985 0 0 1-4.345 1.795zM6.5 1.788h-.035c-.04 0-.081 0-.125.007-2.718.242-3.772 4.01-3.6 6.051.059.7.379 2.342 2.057 2.4h.148C7.614 10 8.7 6.15 8.526 4.154 8.454 3.293 8.094 1.84 6.5 1.788z" class="cls-4"/>
                    </g>
                </g>
                <g id="Group_6" transform="translate(119.439 10.197)">
                    <path id="Clip_5-2" d="M0 0h10.987v12H0z" class="cls-1"/>
                    <g id="Group_6-2" clip-path="url(#clip-path-2)">
                        <path id="Fill_4" d="M5.073 12h-.185c-.316 0-.513-.017-.514-.017a4.655 4.655 0 0 1-3.154-1.359A4.878 4.878 0 0 1 .01 6.938 7.3 7.3 0 0 1 4.6.493 7.076 7.076 0 0 1 7.139 0h.226c.136 0 .247 0 .351.01a4.6 4.6 0 0 1 1.992.558 2.513 2.513 0 0 1 1.274 2.316 3.486 3.486 0 0 1-1.455 2.669 10.151 10.151 0 0 1-6.359 1.818h-.402a2.562 2.562 0 0 0 2.148 2.643 4.394 4.394 0 0 0 .684.058 7.1 7.1 0 0 0 3.509-1.354v.005l.006-.005A1.464 1.464 0 0 1 9.4 9.827a1.679 1.679 0 0 1-.611 1.131A6.405 6.405 0 0 1 5.073 12zM7.162 1.86a4.4 4.4 0 0 0-2.187.75 5.651 5.651 0 0 0-2.024 3.143c.112.005.225.009.343.011a7.836 7.836 0 0 0 3.579-.871 2.672 2.672 0 0 0 1.614-1.87 1.014 1.014 0 0 0-.347-.875 1.627 1.627 0 0 0-.978-.288z" class="cls-4"/>
                    </g>
                </g>
                <path id="Fill_7" d="M1.762 19H0L3.532.327h.006A24.66 24.66 0 0 1 7.78 0h.542c2.542.024 4.636.776 5.744 2.062a4.115 4.115 0 0 1 .82 3.673c-.533 2.658-3.317 5.523-8.171 5.535h-.084c-.661 0-1.292-.018-2.045-.057-.052.276-.7 3.7-1.044 5.533l-.179.947A1.451 1.451 0 0 1 1.762 19zM7.8 1.969a7.2 7.2 0 0 0-1.49.139c0 .017-.09.481-.222 1.183C5.7 5.309 5 9.067 4.989 9.086a10.337 10.337 0 0 0 1.186.063 7.23 7.23 0 0 0 3.26-.649 4.605 4.605 0 0 0 2.216-2.849 2.822 2.822 0 0 0-.4-2.492 4.07 4.07 0 0 0-2.963-1.176c-.159-.008-.32-.013-.49-.015z" class="cls-4" transform="translate(25.139 3.445)"/>
                <path id="Fill_9" d="M15.587.015a4.714 4.714 0 0 0-4.451 2.611 3.073 3.073 0 0 0-.824-1.947A2.583 2.583 0 0 0 8.508 0C6.519-.036 5.236 1.229 4.259 2.958l.03-.2c.171-1.224.1-1.685-.27-2.165a1.474 1.474 0 0 0-1.3-.443 3.737 3.737 0 0 0-1.347.236c.318.354.317 1.027.021 3.086-.019.134-1.388 7.887-1.388 7.887a.436.436 0 0 0 .466.527h2.143s.28-1.631.332-1.9a18.214 18.214 0 0 1 1.105-3.781C5.447 2.965 7.63 1.63 8.293 2.374a2.489 2.489 0 0 1 .12 1.747l-1.285 7.238a.436.436 0 0 0 .466.527h2.14l.275-1.579a20.884 20.884 0 0 1 1.1-4.245c1.233-2.925 2.894-4.154 3.6-3.917a.943.943 0 0 1 .6.771 4.4 4.4 0 0 1-.028 1.515c-.115.851-.66 3.22-.912 5-.171 1.224-.1 1.684.27 2.165a1.474 1.474 0 0 0 1.3.443A3.742 3.742 0 0 0 17.3 11.8c-.318-.354-.356-1.1-.03-3.1.2-1.214.481-2.515.481-2.515a8.712 8.712 0 0 0 .114-4.579A2.7 2.7 0 0 0 15.587.015" class="cls-4" transform="translate(59.13 10.185)"/>
                <path id="Fill_11" d="M8.918.015c-2.262-.178-3.7 1.234-4.7 2.968l.034-.228C4.426 1.531 4.331.971 3.987.59 3.323-.144 1.907.192 1.352.384c.316.354.315 1.027.021 3.086-.04.279-.087.577-.138.853l-1.23 7.036a.436.436 0 0 0 .464.527H2.6s.28-1.631.33-1.9a20.593 20.593 0 0 1 1.17-3.82C5.479 2.883 7.5 1.88 8.128 2.158a1 1 0 0 1 .525.756 4.411 4.411 0 0 1-.028 1.515c-.114.852-.657 3.221-.908 5-.17 1.225-.1 1.685.269 2.165a1.464 1.464 0 0 0 1.295.443 3.711 3.711 0 0 0 1.34-.236c-.316-.354-.354-1.105-.03-3.1.2-1.214.479-2.516.479-2.516.4-1.924.542-3.572.114-4.58A2.759 2.759 0 0 0 8.918.015" class="cls-4" transform="translate(105.861 10.185)"/>
                <path id="Fill_13" d="M10.616.331c-.8.049-1.8.133-1.8.133l-.243 1.39c-.076.429-.173.9-.269 1.359a17.592 17.592 0 0 1-.911 2.655C5.992 9.107 4.116 10.049 3.41 9.9c-.232-.05-.479-.246-.6-.78a4.394 4.394 0 0 1 .026-1.52c.115-.851.663-3.219.916-5 .171-1.224.1-1.684-.271-2.164A1.482 1.482 0 0 0 2.175 0 3.774 3.774 0 0 0 .824.239c.319.354.358 1.1.03 3.1C.655 4.548.56 4.812.371 5.849a14.547 14.547 0 0 0-.351 3.6 2.7 2.7 0 0 0 2.521 2.563c2.208.22 3.722-1.239 4.727-2.919l-.027.18c-.171 1.224-.1 1.684.271 2.164a1.481 1.481 0 0 0 1.305.442 3.773 3.773 0 0 0 1.352-.236c-.32-.354-.318-1.026-.021-3.084.04-.279.087-.576.139-.852l.786-4.484.354-1.979c.092-.5-.079-.96-.806-.916" class="cls-4" transform="translate(39.102 10.185)"/>
                <path id="Fill_15" d="M10.616.331c-.8.049-1.8.133-1.8.133l-.243 1.39c-.076.429-.173.9-.269 1.359a17.592 17.592 0 0 1-.911 2.655C5.992 9.107 4.116 10.049 3.41 9.9c-.232-.05-.479-.246-.6-.78a4.394 4.394 0 0 1 .026-1.52c.115-.851.663-3.219.916-5 .171-1.224.1-1.684-.271-2.164A1.482 1.482 0 0 0 2.175 0 3.774 3.774 0 0 0 .824.239c.319.354.358 1.1.03 3.1C.655 4.548.56 4.812.371 5.849a14.547 14.547 0 0 0-.351 3.6 2.7 2.7 0 0 0 2.521 2.563c2.208.22 3.722-1.239 4.727-2.919l-.027.18c-.171 1.224-.1 1.684.271 2.164a1.481 1.481 0 0 0 1.305.442 3.773 3.773 0 0 0 1.352-.236c-.32-.354-.318-1.026-.021-3.084.04-.279.087-.576.139-.852l.786-4.484.354-1.979c.092-.5-.079-.96-.806-.916" class="cls-4" transform="translate(79.157 10.185)"/>
                <path id="Fill_17" d="M5.335 0A1.048 1.048 0 0 0 5.1.022L2.978.445.083 16.212a2.366 2.366 0 0 0 .092 1.615 1.28 1.28 0 0 0 .759.576 3.08 3.08 0 0 0 .96.115 4.04 4.04 0 0 0 1.012-.1 4.958 4.958 0 0 1-.048-2.229L5.67.855C5.751.416 5.8 0 5.335 0" class="cls-4" transform="translate(52.454 3.704)"/>
                <g id="Group_21" transform="translate(0 .004)">
                    <path id="Clip_20-2" d="M0 0h9.394v22.108H0z" class="cls-1"/>
                    <g id="Group_21-2" clip-path="url(#clip-path-3)">
                        <path id="Fill_19" d="M8.463 5.662L8.7 3.136c.1-1.149.174-1.956.186-2.127a.9.9 0 0 0-.021-.278.788.788 0 0 0-.231-.378A1.947 1.947 0 0 0 6.885.06 2.746 2.746 0 0 0 6.1.333a1.6 1.6 0 0 0-.545.483 2.722 2.722 0 0 0-.3 1.09l-.223 3.608L4.843 8.4s-.129 1.816-.175 2.341c-.092.979-.2 2.244-.313 3.586l-3.105.135c-.2.011-1.236.095-1.249.692a.833.833 0 0 0 .008.109 1.288 1.288 0 0 0 .547.913c.065.046.159.1.181.115a3.808 3.808 0 0 0 1.658.37h1.784l-.259 3.506c-.015.245-.029.478-.041.7a1.955 1.955 0 0 0 .107.99.513.513 0 0 0 .438.224 1.845 1.845 0 0 0 1.929-.655 5.209 5.209 0 0 0 .822-2.475c.034-.231.1-.772.168-1.375l.763-8.109A1.109 1.109 0 0 1 9.193 8.41h.2z" class="cls-7"/>
                    </g>
                </g>
                <path id="Fill_22" fill="#009333" d="M19.794 6.23l-2.83-.13.289-4.143.039-.7a2.068 2.068 0 0 0-.1-1 .479.479 0 0 0-.417-.225 1.7 1.7 0 0 0-1.834.659 5.44 5.44 0 0 0-.781 2.487c-.032.232-.094.776-.16 1.383l-.124 1.394c-4.785-.219-10.782-.493-11.62-.529 0 0-.481-.012-.777.017a1.569 1.569 0 0 0-1.361.936 2.8 2.8 0 0 0-.11 1 1.567 1.567 0 0 0 .167.605 1.253 1.253 0 0 0 1.037.455H8.16s2.054.03 2.09.032c0 0 3.523-.015 3.546 2.733a2.829 2.829 0 0 1-2.308 2.748 4.666 4.666 0 0 1-1.036.154l2.464 2.635-.206 2.329c-.1 1.155-.165 1.967-.177 2.137a.952.952 0 0 0 .021.28.793.793 0 0 0 .219.38 1.774 1.774 0 0 0 1.663.294 2.51 2.51 0 0 0 .742-.274 1.559 1.559 0 0 0 .522-.487 2.852 2.852 0 0 0 .288-1.1l.21-3.565.184-2.96c.063-.971.122-1.824.166-2.352.074-.833.161-1.873.249-2.99H18.7a3.451 3.451 0 0 0 1.577-.372c.021-.013.111-.069.172-.115a1.306 1.306 0 0 0 .52-.917.85.85 0 0 0 .008-.11c-.012-.6-1-.685-1.187-.7"/>
                <path id="Fill_24" d="M12.281.88a1.556 1.556 0 0 0-1.356-.862C10.629-.009 10.15 0 10.15 0L7.808.1 1.91.349c-.364.02-.7.01-.789.016-.281.013-.9.1-.954.653L0 2.778h11.191a1.288 1.288 0 0 0 1.033-.419 1.365 1.365 0 0 0 .166-.559 2.394 2.394 0 0 0-.11-.921" class="cls-7" transform="translate(8.583 13.889)"/>
            </g>
        </g>
    </g>
</svg>
