<svg xmlns="http://www.w3.org/2000/svg" width="64" height="64" viewBox="0 0 64 64">
    <g fill="none" fill-rule="evenodd">
        <g>
            <g>
                <g>
                    <g>
                        <g transform="translate(-54 -195) translate(24 109) translate(0 44) translate(30 42) translate(8 13)">
                            <path fill="#FFF" fill-rule="nonzero" d="M16 0c4.694 0 8.5 3.806 8.5 8.5 0 3.475-2.085 6.462-5.072 7.78 3.715.832 7.002 3.002 9.245 6.12.193.27.132.645-.137.838-.269.194-.644.132-.837-.137C25.009 19.361 20.694 17.1 16 17.1c-7.953 0-14.4 6.447-14.4 14.4 0 .331-.269.6-.6.6-.331 0-.6-.269-.6-.6 0-7.437 5.205-13.66 12.17-15.222C9.584 14.961 7.5 11.974 7.5 8.5 7.5 3.806 11.306 0 16 0zm0 1.2c-4.032 0-7.3 3.268-7.3 7.3s3.268 7.3 7.3 7.3 7.3-3.268 7.3-7.3-3.268-7.3-7.3-7.3z"/>
                            <circle cx="37.5" cy="28" r="10.4" stroke="#FFF" stroke-width="1.2"/>
                            <path stroke="#FFF" stroke-linecap="round" stroke-linejoin="round" stroke-width="1.2" d="M32.5 27.938L35.932 31.369 42.5 24.801"/>
                        </g>
                    </g>
                </g>
            </g>
        </g>
    </g>
</svg>
