<svg xmlns="http://www.w3.org/2000/svg" width="64" height="64" viewBox="0 0 64 64">
    <g fill="none" fill-rule="evenodd">
        <g>
            <g>
                <g>
                    <g>
                        <g>
                            <path fill="#80C342" fill-rule="nonzero" d="M22.154.4c2.39 0 4.332 1.948 4.441 4.384L26.6 5v15h-1.2V5c0-1.818-1.36-3.295-3.062-3.395l-.184-.005H4.846c-1.726 0-3.145 1.414-3.24 3.207L1.6 5v35.397c0 1.818 1.36 3.295 3.062 3.394l.184.006h17.86v1.2H4.846c-2.39 0-4.332-1.948-4.441-4.384L.4 40.397V5C.4 2.537 2.273.518 4.636.405L4.846.4h17.308zM18.25 3c.414 0 .75.336.75.75s-.336.75-.75.75h-9.5c-.414 0-.75-.336-.75-.75S8.336 3 8.75 3h9.5z" transform="translate(-54 -355) translate(24 109) translate(0 204) translate(30 42) translate(12 9)"/>
                            <g fill="#80C342" fill-rule="nonzero">
                                <path d="M9.5 0C12.538 0 15 2.462 15 5.5V11h1c1.657 0 3 1.343 3 3v10c0 1.657-1.343 3-3 3H3c-1.657 0-3-1.343-3-3V14c0-1.657 1.343-3 3-3h1V5.5C4 2.462 6.462 0 9.5 0zM16 12.2H3c-.944 0-1.719.727-1.794 1.652L1.2 14v10c0 .944.727 1.719 1.652 1.794L3 25.8h13c.944 0 1.719-.727 1.794-1.652L17.8 24V14c0-.944-.727-1.719-1.652-1.794L16 12.2zM9.5 16c1.105 0 2 .895 2 2 0 .896-.589 1.654-1.4 1.908V22.4c0 .331-.269.6-.6.6-.331 0-.6-.269-.6-.6v-2.492C8.09 19.654 7.5 18.896 7.5 18c0-1.105.895-2 2-2zm0-14.8c-2.305 0-4.186 1.814-4.295 4.092L5.2 5.5v5.471h8.6V5.5c0-2.305-1.814-4.186-4.092-4.295L9.5 1.2z" transform="translate(-54 -355) translate(24 109) translate(0 204) translate(30 42) translate(12 9) translate(20 18)"/>
                            </g>
                            <path fill="#D4E7C2" d="M10 19c.552 0 1 .448 1 1v4c0 .552-.448 1-1 1H6c-.552 0-1-.448-1-1v-4c0-.552.448-1 1-1h4zm11.4 4c.331 0 .6.269.6.6v.8c0 .331-.269.6-.6.6h-8.8c-.331 0-.6-.269-.6-.6v-.8c0-.331.269-.6.6-.6h8.8zm0-4c.331 0 .6.269.6.6v.8c0 .331-.269.6-.6.6h-8.8c-.331 0-.6-.269-.6-.6v-.8c0-.331.269-.6.6-.6h8.8zM10 9c.552 0 1 .448 1 1v4c0 .552-.448 1-1 1H6c-.552 0-1-.448-1-1v-4c0-.552.448-1 1-1h4zm11.4 4c.331 0 .6.269.6.6v.8c0 .331-.269.6-.6.6h-8.8c-.331 0-.6-.269-.6-.6v-.8c0-.331.269-.6.6-.6h8.8zm0-4c.331 0 .6.269.6.6v.8c0 .331-.269.6-.6.6h-8.8c-.331 0-.6-.269-.6-.6v-.8c0-.331.269-.6.6-.6h8.8z" transform="translate(-54 -355) translate(24 109) translate(0 204) translate(30 42) translate(12 9)"/>
                        </g>
                    </g>
                </g>
            </g>
        </g>
    </g>
</svg>
