<svg xmlns="http://www.w3.org/2000/svg" id="IMG_300_grandopen_MO" width="300" height="90" viewBox="0 0 300 90">
    <defs>
        <clipPath id="clip-path">
            <path id="사각형_14" fill="#fff" d="M0 0H300V90H0z" transform="translate(7 -6)"/>
        </clipPath>
        <style>
            .cls-3{fill:rgba(128,195,66,.36)}.cls-4{fill:rgba(133,194,31,.43)}.cls-5{fill:#ebeead}
        </style>
    </defs>
    <g id="마스크_그룹_2" clip-path="url(#clip-path)" transform="translate(-7 6)">
        <g id="그룹_33" transform="translate(236.322 14)">
            <g id="그룹_30" transform="translate(20.874 21.024)">
                <path id="패스_27" d="M323.943 198.692c1.159 1.009-.317 6.594-.317 6.594-.005.02-.036.149-.082.15s-.081-.124-.087-.144c0 0-1.662-5.292-.3-6.592a.587.587 0 0 1 .388-.184.624.624 0 0 1 .398.176z" class="cls-3" transform="translate(-315.69 -198.516)"/>
                <path id="패스_28" d="M312.56 203.38c1.533-.106 4.438 4.886 4.438 4.886.01.018.08.132.047.164s-.144-.031-.163-.041c0 0-4.917-2.568-4.874-4.449a.586.586 0 0 1 .145-.4.622.622 0 0 1 .407-.16z" class="cls-3" transform="translate(-309.876 -201.18)"/>
                <path id="패스_29" d="M307.47 214.717c1.009-1.159 6.594.317 6.594.317.02.005.149.036.149.082s-.123.08-.144.087c0 0-5.292 1.662-6.592.3a.587.587 0 0 1-.183-.388.622.622 0 0 1 .176-.398z" class="cls-3" transform="translate(-307.294 -207.149)"/>
                <path id="패스_30" d="M312.157 222.126c-.106-1.533 4.887-4.438 4.887-4.438.018-.01.131-.08.164-.047s-.031.144-.041.163c0 0-2.568 4.917-4.448 4.874a.589.589 0 0 1-.4-.145.621.621 0 0 1-.162-.407z" class="cls-3" transform="translate(-309.957 -208.989)"/>
                <path id="패스_31" d="M323.494 224.946c-1.159-1.01.317-6.594.317-6.594.005-.02.037-.149.082-.149s.08.123.087.144c0 0 1.661 5.292.3 6.592a.591.591 0 0 1-.388.183.623.623 0 0 1-.398-.176z" class="cls-3" transform="translate(-315.926 -209.302)"/>
                <path id="패스_32" d="M330.9 222.511c-1.533.105-4.438-4.887-4.438-4.887-.01-.018-.08-.131-.047-.164s.144.031.163.041c0 0 4.917 2.567 4.875 4.449a.588.588 0 0 1-.145.4.626.626 0 0 1-.408.161z" class="cls-3" transform="translate(-317.767 -208.89)"/>
                <path id="패스_33" d="M333.723 215.165c-1.009 1.159-6.594-.317-6.594-.317-.02-.005-.149-.037-.149-.082s.124-.08.144-.087c0 0 5.292-1.661 6.592-.3a.59.59 0 0 1 .183.388.621.621 0 0 1-.176.398z" class="cls-3" transform="translate(-318.079 -206.913)"/>
                <path id="패스_34" d="M331.288 203.782c.106 1.533-4.886 4.438-4.886 4.438-.019.01-.132.08-.164.047s.031-.144.041-.163c0 0 2.568-4.917 4.448-4.874a.587.587 0 0 1 .4.144.619.619 0 0 1 .161.408z" class="cls-3" transform="translate(-317.667 -201.099)"/>
            </g>
            <g id="그룹_31" transform="translate(8.688 8.733)">
                <path id="패스_35" d="M322.611 182.216c-.573-3.458-1.145-6.6-1.719-10.058-.047-.283.757-.833 1.7-.827.916.006 1.672.553 1.626.827-.535 3.458-1.071 6.6-1.607 10.058z" class="cls-3" transform="translate(-302.557 -171.331)"/>
                <path id="패스_36" d="M309.429 184.939c-1.93-2.926-3.731-5.564-5.661-8.49-.158-.239.353-1.069 1.217-1.447.839-.367 1.752-.175 1.822.094.917 3.378 1.705 6.466 2.622 9.843z" class="cls-3" transform="translate(-293.161 -173.231)"/>
                <path id="패스_37" d="M298.826 192.587c-2.953-1.888-5.671-3.566-8.625-5.454-.241-.154-.112-1.12.523-1.816.617-.677 1.529-.873 1.7-.655 2.214 2.713 4.191 5.213 6.402 7.925z" class="cls-3" transform="translate(-285.682 -178.588)"/>
                <path id="패스_38" d="M292.458 204.091c-3.466-.524-6.632-.95-10.1-1.474-.283-.043-.558-.978-.261-1.872.289-.869 1.042-1.419 1.289-1.291 3.125 1.578 5.948 3.059 9.072 4.637z" class="cls-3" transform="translate(-281.235 -186.728)"/>
                <path id="패스_39" d="M291.177 217.594c-3.379.931-6.444 1.829-9.824 2.761-.276.076-.907-.666-1-1.6-.09-.911.374-1.72.652-1.7 3.495.163 6.677.367 10.172.539z" class="cls-3" transform="translate(-280.343 -196.377)"/>
                <path id="패스_40" d="M295.2 226.394c-2.709 2.225-5.144 4.293-7.852 6.517-.221.182-1.1-.239-1.566-1.058-.453-.8-.358-1.724-.1-1.821 3.262-1.266 6.251-2.373 9.518-3.638z" class="cls-3" transform="translate(-283.148 -201.498)"/>
                <path id="패스_41" d="M303.939 232.736c-1.569 3.134-2.953 6.013-4.522 9.147-.128.256-1.1.229-1.861-.33-.738-.543-1.028-1.43-.83-1.625 2.466-2.482 4.747-4.71 7.213-7.192z" class="cls-3" transform="translate(-289.285 -204.972)"/>
                <path id="패스_42" d="M316.143 236.185c-.159 3.5-.251 6.695-.411 10.2-.013.286-.914.657-1.834.455-.895-.2-1.521-.888-1.418-1.147 1.243-3.274 2.42-6.237 3.663-9.508z" class="cls-3" transform="translate(-297.943 -206.862)"/>
                <path id="패스_43" d="M329.164 236.147c1.279 3.263 2.493 6.218 3.772 9.481.1.266-.567.972-1.491 1.162-.9.185-1.75-.193-1.763-.471-.194-3.493-.324-6.678-.518-10.172z" class="cls-3" transform="translate(-307.09 -206.841)"/>
                <path id="패스_44" d="M336.975 232.626c2.5 2.461 4.806 4.667 7.3 7.128.2.2-.123 1.119-.889 1.668-.744.534-1.677.536-1.8.287-1.598-3.109-3.012-5.97-4.611-9.083z" class="cls-3" transform="translate(-311.369 -204.912)"/>
                <path id="패스_45" d="M342.68 226.234c3.281 1.233 6.289 2.308 9.57 3.541.268.1.342 1.072-.134 1.885-.463.79-1.314 1.172-1.529.995-2.727-2.193-5.18-4.229-7.907-6.421z" class="cls-3" transform="translate(-314.495 -201.41)"/>
                <path id="패스_46" d="M345.291 217.276c3.5-.208 6.684-.449 10.183-.658.286-.017.749.841.645 1.777-.1.911-.724 1.606-.992 1.531-3.384-.895-6.453-1.756-9.836-2.65z" class="cls-3" transform="translate(-315.925 -196.142)"/>
                <path id="패스_47" d="M344.356 203.787c3.112-1.613 5.923-3.129 9.036-4.743.254-.132 1.026.463 1.311 1.361.278.873-.009 1.761-.283 1.8-3.455.562-6.61 1.024-10.064 1.582z" class="cls-3" transform="translate(-315.413 -186.504)"/>
                <path id="패스_48" d="M340.039 192.352c2.187-2.74 4.138-5.268 6.325-8.007.179-.224 1.126.005 1.752.71.609.685.709 1.612.474 1.762-2.929 1.915-5.623 3.62-8.551 5.535z" class="cls-3" transform="translate(-313.048 -178.416)"/>
                <path id="패스_49" d="M333.085 184.818c.883-3.392 1.638-6.5 2.521-9.887.072-.278 1.03-.453 1.889-.064.834.378 1.3 1.185 1.149 1.417-1.896 2.94-3.663 5.593-5.559 8.534z" class="cls-3" transform="translate(-309.238 -173.144)"/>
            </g>
            <g id="그룹_32">
                <path id="패스_50" d="M323.943 152.193c1.159 1.009-.317 6.594-.317 6.594-.005.02-.036.149-.082.149s-.081-.123-.087-.144c0 0-1.662-5.292-.3-6.592a.587.587 0 0 1 .388-.183.62.62 0 0 1 .398.176z" class="cls-3" transform="translate(-294.817 -152.017)"/>
                <path id="패스_51" d="M311.076 153.518c1.343.746 1.06 6.516 1.06 6.516 0 .02 0 .153-.05.163s-.1-.1-.114-.123c0 0-2.725-4.832-1.665-6.386a.588.588 0 0 1 .341-.26.623.623 0 0 1 .428.09z" class="cls-3" transform="translate(-287.937 -152.785)"/>
                <path id="패스_52" d="M298.63 157.549c1.469.451 2.392 6.153 2.392 6.153 0 .02.027.151-.014.17s-.123-.08-.138-.1c0 0-3.67-4.159-2.956-5.9a.587.587 0 0 1 .28-.325.622.622 0 0 1 .436.002z" class="cls-3" transform="translate(-281.23 -155.026)"/>
                <path id="패스_53" d="M287.226 164.1c1.53.135 3.619 5.521 3.619 5.521.007.019.058.142.021.169s-.138-.053-.155-.066c0 0-4.454-3.305-4.118-5.156a.587.587 0 0 1 .206-.376.619.619 0 0 1 .427-.092z" class="cls-3" transform="translate(-275.069 -158.636)"/>
                <path id="패스_54" d="M277.395 172.883c1.525-.186 4.687 4.648 4.687 4.648.011.017.086.127.056.161s-.146-.023-.165-.032c0 0-5.045-2.307-5.1-4.187a.59.59 0 0 1 .123-.411.626.626 0 0 1 .399-.179z" class="cls-3" transform="translate(-269.753 -163.446)"/>
                <path id="패스_55" d="M269.584 183.5c1.453-.5 5.551 3.571 5.551 3.571s.111.106.088.146-.147.008-.168 0c0 0-5.414-1.207-5.859-3.035a.588.588 0 0 1 .035-.428.623.623 0 0 1 .353-.254z" class="cls-3" transform="translate(-265.534 -169.243)"/>
                <path id="패스_56" d="M264.153 195.482c1.318-.79 6.173 2.339 6.173 2.339.017.011.13.08.116.124s-.142.038-.164.038c0 0-5.547-.056-6.363-1.751a.59.59 0 0 1-.054-.425.623.623 0 0 1 .292-.325z" class="cls-3" transform="translate(-262.615 -175.76)"/>
                <path id="패스_57" d="M261.347 208.25c1.124-1.047 6.524 1 6.524 1 .019.007.145.052.14.1s-.132.067-.152.071c0 0-5.437 1.1-6.587-.39a.584.584 0 0 1-.142-.405.619.619 0 0 1 .217-.376z" class="cls-3" transform="translate(-261.127 -182.662)"/>
                <path id="패스_58" d="M261.288 221.088c.882-1.258 6.59-.373 6.59-.373.021 0 .152.02.157.066s-.114.093-.134.1c0 0-5.09 2.206-6.524.989a.59.59 0 0 1-.223-.367.624.624 0 0 1 .134-.415z" class="cls-3" transform="translate(-261.141 -189.488)"/>
                <path id="패스_59" d="M263.982 232.841c.6-1.414 6.369-1.736 6.369-1.736.021 0 .153-.011.167.032s-.093.114-.11.127c0 0-4.52 3.216-6.176 2.324a.587.587 0 0 1-.294-.313.622.622 0 0 1 .044-.434z" class="cls-3" transform="translate(-262.654 -195.345)"/>
                <path id="패스_60" d="M269.3 243.471c.294-1.508 5.869-3.022 5.869-3.022.02-.006.147-.043.171 0s-.067.131-.082.147c0 0-3.752 4.085-5.558 3.557a.587.587 0 0 1-.352-.245.619.619 0 0 1-.048-.437z" class="cls-3" transform="translate(-265.597 -200.453)"/>
                <path id="패스_61" d="M277.015 252.89c-.025-1.536 5.112-4.176 5.112-4.176.019-.01.135-.073.166-.039s-.038.142-.049.161c0 0-2.822 4.776-4.7 4.634a.586.586 0 0 1-.4-.165.624.624 0 0 1-.129-.415z" class="cls-3" transform="translate(-269.831 -204.966)"/>
                <path id="패스_62" d="M286.768 260.692c-.345-1.5 4.132-5.148 4.132-5.148.016-.013.117-.1.154-.072s-.008.147-.014.168c0 0-1.767 5.258-3.631 5.509a.583.583 0 0 1-.421-.079.623.623 0 0 1-.22-.378z" class="cls-3" transform="translate(-275.165 -208.693)"/>
                <path id="패스_63" d="M298.133 266.539c-.648-1.393 2.972-5.894 2.972-5.894.013-.016.094-.122.136-.1s.023.146.02.167c0 0-.635 5.51-2.406 6.144a.588.588 0 0 1-.429.01.623.623 0 0 1-.293-.327z" class="cls-3" transform="translate(-281.359 -211.472)"/>
                <path id="패스_64" d="M310.585 270.177c-.924-1.228 1.681-6.383 1.681-6.383.01-.019.067-.139.112-.129s.052.138.055.159c0 0 .525 5.522-1.076 6.51a.586.586 0 0 1-.417.1.621.621 0 0 1-.355-.257z" class="cls-3" transform="translate(-288.114 -213.184)"/>
                <path id="패스_65" d="M323.494 271.445c-1.159-1.009.317-6.594.317-6.594.005-.019.037-.149.082-.149s.08.124.087.145c0 0 1.661 5.292.3 6.592a.591.591 0 0 1-.388.183.618.618 0 0 1-.398-.177z" class="cls-3" transform="translate(-295.052 -213.752)"/>
                <path id="패스_66" d="M335.958 270.29c-1.343-.746-1.06-6.515-1.06-6.515 0-.021 0-.153.049-.163s.1.1.115.123c0 0 2.725 4.832 1.665 6.385a.589.589 0 0 1-.341.26.623.623 0 0 1-.428-.09z" class="cls-3" transform="translate(-301.529 -213.155)"/>
                <path id="패스_67" d="M347.058 266.761c-1.469-.451-2.392-6.153-2.392-6.153 0-.021-.028-.151.014-.17s.123.08.138.1c0 0 3.67 4.159 2.956 5.9a.587.587 0 0 1-.28.325.621.621 0 0 1-.436-.002z" class="cls-3" transform="translate(-306.889 -211.415)"/>
                <path id="패스_68" d="M357.135 261.012c-1.53-.135-3.619-5.521-3.619-5.521-.008-.019-.058-.142-.021-.169s.137.053.155.066c0 0 4.455 3.305 4.119 5.156a.59.59 0 0 1-.206.376.623.623 0 0 1-.428.092z" class="cls-3" transform="translate(-311.725 -208.611)"/>
                <path id="패스_69" d="M365.794 253.293c-1.526.186-4.688-4.648-4.688-4.648-.011-.017-.086-.127-.056-.161s.146.023.165.032c0 0 5.045 2.307 5.1 4.187a.589.589 0 0 1-.123.411.624.624 0 0 1-.398.179z" class="cls-3" transform="translate(-315.867 -204.862)"/>
                <path id="패스_70" d="M372.656 243.941c-1.454.5-5.552-3.571-5.552-3.571-.014-.015-.111-.106-.088-.146s.147-.008.169 0c0 0 5.413 1.208 5.859 3.035a.591.591 0 0 1-.036.428.621.621 0 0 1-.352.254z" class="cls-3" transform="translate(-319.137 -200.331)"/>
                <path id="패스_71" d="M377.425 233.355c-1.318.79-6.173-2.339-6.173-2.339-.018-.011-.131-.081-.116-.124s.142-.038.163-.038c0 0 5.547.056 6.363 1.751a.586.586 0 0 1 .054.425.628.628 0 0 1-.291.325z" class="cls-3" transform="translate(-321.395 -195.208)"/>
                <path id="패스_72" d="M379.891 221.517c-1.124 1.048-6.524-1-6.524-1-.019-.008-.144-.052-.14-.1s.132-.067.152-.071c0 0 5.437-1.1 6.587.389a.585.585 0 0 1 .141.4.616.616 0 0 1-.216.382z" class="cls-3" transform="translate(-322.542 -189.237)"/>
                <path id="패스_73" d="M379.947 208.723c-.882 1.258-6.59.374-6.59.374-.02 0-.152-.021-.157-.066s.114-.093.134-.1c0 0 5.09-2.206 6.524-.988a.59.59 0 0 1 .223.367.619.619 0 0 1-.134.413z" class="cls-3" transform="translate(-322.527 -182.455)"/>
                <path id="패스_74" d="M377.593 195.982c-.6 1.414-6.369 1.736-6.369 1.736-.021 0-.153.011-.167-.032s.093-.114.11-.127c0 0 4.52-3.215 6.176-2.323a.584.584 0 0 1 .294.312.624.624 0 0 1-.044.434z" class="cls-3" transform="translate(-321.352 -175.609)"/>
                <path id="패스_75" d="M372.928 183.985c-.294 1.508-5.869 3.022-5.869 3.022-.019.005-.147.043-.17 0s.067-.131.081-.147c0 0 3.753-4.085 5.558-3.557a.587.587 0 0 1 .353.244.622.622 0 0 1 .047.438z" class="cls-3" transform="translate(-319.068 -169.134)"/>
                <path id="패스_76" d="M366.158 173.307c.026 1.536-5.112 4.176-5.112 4.176-.019.01-.136.073-.166.039s.038-.142.049-.161c0 0 2.821-4.776 4.7-4.634a.588.588 0 0 1 .4.165.619.619 0 0 1 .129.415z" class="cls-3" transform="translate(-315.773 -163.361)"/>
                <path id="패스_77" d="M357.576 164.434c.345 1.5-4.133 5.148-4.133 5.148-.016.013-.117.1-.154.072s.007-.147.014-.167c0 0 1.767-5.258 3.631-5.51a.587.587 0 0 1 .421.08.625.625 0 0 1 .221.377z" class="cls-3" transform="translate(-311.611 -158.564)"/>
                <path id="패스_78" d="M347.553 157.776c.648 1.393-2.972 5.894-2.972 5.894-.013.016-.094.122-.136.1s-.023-.146-.02-.167c0 0 .635-5.511 2.406-6.145a.585.585 0 0 1 .429-.009.624.624 0 0 1 .293.327z" class="cls-3" transform="translate(-306.759 -154.974)"/>
                <path id="패스_79" d="M336.414 153.634c.924 1.228-1.682 6.384-1.682 6.384-.009.019-.066.138-.112.129s-.052-.138-.055-.159c0 0-.525-5.522 1.076-6.51a.586.586 0 0 1 .417-.1.621.621 0 0 1 .356.256z" class="cls-3" transform="translate(-301.317 -152.758)"/>
            </g>
        </g>
        <g id="그룹_38" transform="translate(-31.414 .893)">
            <g id="그룹_35" transform="translate(49.826 40.394)">
                <g id="그룹_34">
                    <path id="패스_80" d="M105.586 51.908c.686 2.068-.188 13.517-.188 13.517 0 .041-.022.306-.049.306s-.047-.254-.051-.3c0 0-.983-10.849-.178-13.513.029-.1.113-.371.23-.375s.204.267.236.365z" class="cls-4" transform="translate(-91.269 -51.547)"/>
                    <path id="패스_81" d="M85.781 56.913C87.35 58.426 91.9 68.968 91.9 68.968c.016.038.123.281.1.294s-.16-.2-.183-.238c0 0-5.912-9.149-6.437-11.882-.019-.1-.072-.381.029-.439s.298.138.372.21z" class="cls-4" transform="translate(-77.915 -55.078)"/>
                    <path id="패스_82" d="M69.741 70.983c2.092.611 11.017 7.833 11.017 7.833.032.026.239.191.224.214s-.236-.1-.272-.126c0 0-9.487-5.354-11.222-7.53-.063-.079-.242-.3-.179-.4s.333-.02.432.009z" class="cls-4" transform="translate(-66.902 -64.845)"/>
                    <path id="패스_83" d="M62.052 90.578c2.136-.431 13.4 1.816 13.4 1.816.04.008.3.058.3.085s-.257.016-.3.015c0 0-10.888-.332-13.436-1.452-.093-.04-.355-.157-.345-.273s.28-.169.381-.191z" class="cls-4" transform="translate(-61.664 -78.295)"/>
                    <path id="패스_84" d="M64.514 101.426c1.691-1.375 12.7-4.618 12.7-4.618.04-.012.294-.088.3-.063s-.22.134-.258.152c0 0-9.8 4.766-12.572 4.958-.1.007-.387.026-.432-.081s.182-.283.262-.348z" class="cls-4" transform="translate(-63.442 -82.562)"/>
                    <path id="패스_85" d="M76.555 106.944c.858-2 9.1-9.993 9.1-9.993.03-.029.219-.215.239-.2s-.132.221-.157.255c0 0-6.458 8.772-8.827 10.233-.086.053-.331.2-.421.129s.025-.33.066-.424z" class="cls-4" transform="translate(-71.817 -82.57)"/>
                    <path id="패스_86" d="M95.257 110.12c-.171-2.172 3.417-13.079 3.417-13.079.013-.039.094-.292.12-.285s-.015.257-.021.3c0 0-1.642 10.769-3.061 13.163-.051.087-.2.334-.312.31s-.135-.305-.143-.409z" class="cls-4" transform="translate(-84.714 -82.573)"/>
                    <path id="패스_87" d="M109.606 110.234c-1.16-1.844-3.053-13.169-3.053-13.169-.007-.04-.052-.3-.026-.308s.107.234.12.275c0 0 3.551 10.3 3.407 13.078-.005.1-.021.387-.133.419s-.26-.208-.315-.295z" class="cls-4" transform="translate(-92.447 -82.573)"/>
                    <path id="패스_88" d="M115.53 107.257c-1.885-1.094-8.822-10.242-8.822-10.242-.025-.033-.187-.243-.167-.261s.2.158.234.187c0 0 7.93 7.469 9.094 10 .042.092.161.353.077.433s-.327-.065-.416-.117z" class="cls-4" transform="translate(-92.461 -82.57)"/>
                    <path id="패스_89" d="M119.385 101.868c-2.177-.093-12.571-4.969-12.571-4.969-.037-.018-.278-.129-.269-.154s.253.045.294.057c0 0 10.492 2.928 12.7 4.625.08.061.307.237.27.348s-.321.097-.424.093z" class="cls-4" transform="translate(-92.464 -82.561)"/>
                    <path id="패스_90" d="M120.295 91.042c-1.971.93-13.44 1.443-13.44 1.443-.041 0-.306.015-.31-.011s.246-.078.287-.087c0 0 10.652-2.284 13.393-1.806.1.018.382.067.4.183s-.237.236-.33.278z" class="cls-4" transform="translate(-92.464 -78.29)"/>
                    <path id="패스_91" d="M118.053 71.382c-1.313 1.739-11.23 7.524-11.23 7.524-.035.021-.264.156-.279.134s.181-.183.214-.21c0 0 8.37-6.972 11.02-7.823.1-.031.37-.118.439-.025s-.102.318-.164.4z" class="cls-4" transform="translate(-92.463 -64.856)"/>
                    <path id="패스_92" d="M113.17 57.138c-.355 2.15-6.448 11.881-6.448 11.881-.022.035-.161.261-.185.248s.076-.247.092-.286c0 0 4.171-10.063 6.122-12.048.071-.072.273-.276.378-.226s.058.329.041.431z" class="cls-4" transform="translate(-92.457 -55.083)"/>
                </g>
            </g>
            <g id="그룹_36" transform="translate(46.946 37.485)">
                <path id="패스_93" d="M105.8 43.218a.941.941 0 1 1-.941-.941.941.941 0 0 1 .941.941z" class="cls-4" transform="translate(-87.784 -42.277)"/>
                <path id="패스_94" d="M81.726 48.5a.941.941 0 1 1-1.27-.4.941.941 0 0 1 1.27.4z" class="cls-4" transform="translate(-71.335 -46.204)"/>
                <path id="패스_95" d="M62.865 64.371a.941.941 0 1 1-1.309.24.941.941 0 0 1 1.309-.24z" class="cls-4" transform="translate(-58.596 -57.325)"/>
                <path id="패스_96" d="M53.539 87.188a.941.941 0 1 1-1.047.82.941.941 0 0 1 1.047-.82z" class="cls-4" transform="translate(-52.485 -73.093)"/>
                <path id="패스_97" d="M55.884 111.725a.941.941 0 1 1-.546 1.213.941.941 0 0 1 .546-1.213z" class="cls-4" transform="translate(-54.401 -89.895)"/>
                <path id="패스_98" d="M69.364 132.362a.941.941 0 1 1 .08 1.328.94.94 0 0 1-.08-1.328z" class="cls-4" transform="translate(-63.906 -103.882)"/>
                <path id="패스_99" d="M90.89 144.37a.941.941 0 1 1 .688 1.139.94.94 0 0 1-.688-1.139z" class="cls-4" transform="translate(-78.822 -111.849)"/>
                <path id="패스_100" d="M115.53 145a.941.941 0 1 1 1.139.688.941.941 0 0 1-1.139-.688z" class="cls-4" transform="translate(-95.732 -111.972)"/>
                <path id="패스_101" d="M137.642 134.106a.941.941 0 1 1 1.327.08.941.941 0 0 1-1.327-.08z" class="cls-4" transform="translate(-110.763 -104.223)"/>
                <path id="패스_102" d="M152.157 114.183a.941.941 0 1 1 1.213-.546.941.941 0 0 1-1.213.546z" class="cls-4" transform="translate(-120.47 -90.375)"/>
                <path id="패스_103" d="M155.752 89.8a.941.941 0 1 1 .82-1.047.941.941 0 0 1-.82 1.047z" class="cls-4" transform="translate(-122.63 -73.604)"/>
                <path id="패스_104" d="M147.6 66.536a.941.941 0 1 1 .239-1.308.941.941 0 0 1-.239 1.308z" class="cls-4" transform="translate(-116.749 -57.748)"/>
                <path id="패스_105" d="M129.576 49.725a.941.941 0 1 1-.4-1.27.941.941 0 0 1 .4 1.27z" class="cls-4" transform="translate(-104.173 -46.442)"/>
            </g>
            <g id="그룹_37" transform="translate(44.414 35.295)">
                <path id="패스_106" d="M113.16 35.7c.267 2.169-2.844 13.258-2.844 13.258-.011.04-.081.3-.108.291s0-.259.008-.3c0 0 1.168-10.864 2.484-13.326.048-.089.184-.343.3-.324s.147.301.16.401z" class="cls-4" transform="translate(-89.558 -35.295)"/>
                <path id="패스_107" d="M89.2 36.683c1.245 1.8 3.643 13.061 3.643 13.061.008.041.066.3.04.308s-.117-.23-.133-.27c0 0-4.015-10.163-3.994-12.954 0-.1 0-.39.115-.426s.266.198.329.281z" class="cls-4" transform="translate(-74.842 -36.052)"/>
                <path id="패스_108" d="M63.429 51.377c1.937 1.012 9.3 9.872 9.3 9.872.026.032.2.235.178.254s-.211-.149-.243-.177c0 0-8.278-7.133-9.556-9.614-.046-.09-.178-.347-.1-.431s.329.048.421.096z" class="cls-4" transform="translate(-57.156 -46.247)"/>
                <path id="패스_109" d="M47.344 76.313c2.186 0 12.818 4.422 12.818 4.422.038.016.285.116.276.142s-.256-.035-.3-.044c0 0-10.644-2.469-12.93-4.072-.083-.058-.318-.224-.285-.336s.317-.112.421-.112z" class="cls-4" transform="translate(-46.135 -63.444)"/>
                <path id="패스_110" d="M44.735 101.16c1.934-1.019 13.4-2.042 13.4-2.042.041 0 .306-.029.311 0s-.243.089-.284.1c0 0-10.573 2.76-13.341 2.4-.1-.013-.386-.051-.409-.165s.231-.244.323-.293z" class="cls-4" transform="translate(-44.414 -79.085)"/>
                <path id="패스_111" d="M56.205 115.051c1.239-1.8 10.92-8.038 10.92-8.038.035-.022.258-.168.274-.146s-.174.191-.205.22c0 0-8.079 7.358-10.7 8.328-.1.035-.365.135-.439.044s.091-.322.15-.408z" class="cls-4" transform="translate(-52.393 -84.411)"/>
                <path id="패스_112" d="M79.075 124.726c.26-2.17 5.935-12.192 5.935-12.192.02-.036.15-.268.174-.257s-.065.25-.079.29c0 0-3.734 10.269-5.6 12.345-.068.075-.261.289-.368.243s-.075-.326-.062-.429z" class="cls-4" transform="translate(-68.19 -88.125)"/>
                <path id="패스_113" d="M106.807 127.983c-.779-2.043-.411-13.553-.411-13.553 0-.042.008-.308.035-.309s.059.252.065.294c0 0 1.466 10.828.777 13.533-.025.1-.1.377-.213.386s-.216-.254-.253-.351z" class="cls-4" transform="translate(-86.891 -89.391)"/>
                <path id="패스_114" d="M121.512 124.079c-1.639-1.446-6.662-11.809-6.662-11.809-.018-.038-.136-.276-.112-.29s.169.2.194.23c0 0 6.33 8.907 6.978 11.622.024.1.089.379-.009.441s-.311-.126-.389-.194z" class="cls-4" transform="translate(-92.673 -87.921)"/>
                <path id="패스_115" d="M132.493 113.9c-2.123-.519-11.387-7.361-11.387-7.361-.034-.024-.248-.181-.234-.2s.241.095.279.114c0 0 9.744 4.945 11.58 7.048.067.076.256.294.2.4s-.337.028-.438-.001z" class="cls-4" transform="translate(-96.884 -84.049)"/>
                <path id="패스_116" d="M137.488 99.726c-2.121.527-13.5-1.225-13.5-1.225-.041-.006-.3-.045-.3-.072s.257-.028.3-.029c0 0 10.926-.15 13.528.859.094.037.363.141.358.258s-.285.183-.386.209z" class="cls-4" transform="translate(-98.813 -78.596)"/>
                <path id="패스_117" d="M135.354 72.519c-1.634 1.452-12.527 5.19-12.527 5.19-.039.013-.29.1-.3.077s.215-.144.252-.164c0 0 9.6-5.21 12.378-5.526.1-.011.387-.043.437.062s-.162.292-.24.361z" class="cls-4" transform="translate(-98.02 -60.54)"/>
                <path id="패스_118" d="M126.579 48.652c-.771 2.045-8.68 10.417-8.68 10.417-.028.03-.21.225-.231.208s.123-.227.147-.263c0 0 6.083-9.077 8.392-10.645.084-.057.323-.218.416-.148s-.008.333-.044.431z" class="cls-4" transform="translate(-94.684 -44.153)"/>
            </g>
        </g>
        <g id="그룹_40" transform="translate(-290.365 -10.734)">
            <g id="그룹_39" transform="translate(339.366 33.686)">
                <path id="패스_119" d="M349.083 46.686a.356.356 0 0 1-.37-.342l-.486-12.287a.356.356 0 1 1 .712-.028l.486 12.287a.356.356 0 0 1-.342.37z" class="cls-5" transform="translate(-342.148 -33.686)"/>
                <path id="패스_120" d="M352.023 43.011l-12.287.486a.357.357 0 0 1-.028-.713l12.287-.486a.356.356 0 1 1 .028.712z" class="cls-5" transform="translate(-339.366 -36.391)"/>
                <path id="패스_121" d="M344.237 45.24a.356.356 0 0 1-.275-.6l6.418-6.948a.357.357 0 0 1 .523.484l-6.418 6.947a.355.355 0 0 1-.248.117z" class="cls-5" transform="translate(-340.779 -34.909)"/>
                <path id="패스_122" d="M350.8 45.1a.356.356 0 0 1-.256-.095l-6.944-6.422a.356.356 0 1 1 .484-.523l6.947 6.419a.356.356 0 0 1-.228.618z" class="cls-5" transform="translate(-340.658 -35.03)"/>
            </g>
        </g>
        <g id="그룹_41" transform="translate(293.94 59.328)">
            <g id="그룹_39-2">
                <path id="패스_119-2" d="M348.954 44.726a.3.3 0 0 1-.315-.291L348.227 34a.3.3 0 1 1 .6-.024l.412 10.435a.3.3 0 0 1-.285.315z" class="cls-5" transform="translate(-343.065 -33.686)"/>
                <path id="패스_120-2" d="M350.115 42.9l-10.435.413a.3.3 0 0 1-.024-.605l10.435-.412a.3.3 0 1 1 .024.6z" class="cls-5" transform="translate(-339.366 -37.281)"/>
                <path id="패스_121-2" d="M344.182 44.085a.3.3 0 0 1-.234-.508l5.451-5.9a.3.3 0 0 1 .444.411l-5.451 5.9a.3.3 0 0 1-.21.097z" class="cls-5" transform="translate(-341.245 -35.311)"/>
                <path id="패스_122-2" d="M349.7 44.021a.3.3 0 0 1-.217-.08l-5.9-5.451a.3.3 0 1 1 .411-.444l5.9 5.451a.3.3 0 0 1-.193.525z" class="cls-5" transform="translate(-341.084 -35.472)"/>
            </g>
        </g>
        <g id="그룹_42" transform="translate(-129.365 -13.734)">
            <g id="그룹_39-3" transform="translate(339.366 33.686)">
                <path id="패스_119-3" d="M349.083 46.686a.356.356 0 0 1-.37-.342l-.486-12.287a.356.356 0 1 1 .712-.028l.486 12.287a.356.356 0 0 1-.342.37z" class="cls-5" transform="translate(-342.148 -33.686)"/>
                <path id="패스_120-3" d="M352.023 43.011l-12.287.486a.357.357 0 0 1-.028-.713l12.287-.486a.356.356 0 1 1 .028.712z" class="cls-5" transform="translate(-339.366 -36.391)"/>
                <path id="패스_121-3" d="M344.237 45.24a.356.356 0 0 1-.275-.6l6.418-6.948a.357.357 0 0 1 .523.484l-6.418 6.947a.355.355 0 0 1-.248.117z" class="cls-5" transform="translate(-340.779 -34.909)"/>
                <path id="패스_122-3" d="M350.8 45.1a.356.356 0 0 1-.256-.095l-6.944-6.422a.356.356 0 1 1 .484-.523l6.947 6.419a.356.356 0 0 1-.228.618z" class="cls-5" transform="translate(-340.658 -35.03)"/>
            </g>
        </g>
    </g>
</svg>
