<svg xmlns="http://www.w3.org/2000/svg" id="logo_pulmuone_MO" width="117" height="29" viewBox="0 0 117 29">
    <defs>
        <clipPath id="clip-path">
            <path id="Clip_2" d="M0 0h9.587v10.456H0z" class="cls-1"/>
        </clipPath>
        <clipPath id="clip-path-2">
            <path id="Clip_5" d="M0 0h9.361v10.437H0z" class="cls-1"/>
        </clipPath>
        <clipPath id="clip-path-3">
            <path id="Clip_20" d="M0 0h8v19.234H0z" class="cls-1"/>
        </clipPath>
        <style>
            .cls-1{fill:none}.cls-4{fill:#231f20}.cls-7{fill:#80c342}
        </style>
    </defs>
    <g id="logo_pulmuone">
        <g id="logo" transform="translate(2.438 4.833)">
            <g id="Group_3" transform="translate(78.827 8.877)">
                <path id="Clip_2-2" d="M0 0h9.587v10.456H0z" class="cls-1"/>
                <g id="Group_3-2" clip-path="url(#clip-path)">
                    <path id="Fill_1" d="M4.069 10.456h-.09A3.72 3.72 0 0 1 .005 6.632C-.09 4.32 1.1 1.339 3.49.37A5.674 5.674 0 0 1 5.653 0a3.665 3.665 0 0 1 3.929 3.837A7.138 7.138 0 0 1 7.77 8.894a5.046 5.046 0 0 1-3.701 1.562zm1.468-8.9h-.03c-.034 0-.069 0-.106.006-2.316.21-3.214 3.488-3.066 5.264.051.611.323 2.038 1.753 2.085h.126c2.273-.211 3.194-3.56 3.05-5.297C7.2 2.865 6.9 1.6 5.537 1.556z" class="cls-4"/>
                </g>
            </g>
            <g id="Group_6" transform="translate(101.755 8.872)">
                <path id="Clip_5-2" d="M0 0h9.361v10.437H0z" class="cls-1"/>
                <g id="Group_6-2" clip-path="url(#clip-path-2)">
                    <path id="Fill_4" d="M4.322 10.437h-.157c-.269 0-.437-.015-.438-.015A3.928 3.928 0 0 1 1.04 9.243 4.3 4.3 0 0 1 .009 6.036 6.344 6.344 0 0 1 3.919.429 5.918 5.918 0 0 1 6.082 0h.193c.116 0 .211 0 .3.009a3.855 3.855 0 0 1 1.7.486 2.19 2.19 0 0 1 1.081 2.014 3.049 3.049 0 0 1-1.239 2.322A8.522 8.522 0 0 1 2.7 6.413h-.344a2.225 2.225 0 0 0 1.83 2.3 3.667 3.667 0 0 0 .583.051 5.983 5.983 0 0 0 2.989-1.179h.005a1.294 1.294 0 0 1 .243.964 1.469 1.469 0 0 1-.52.984 5.371 5.371 0 0 1-3.164.904zM6.1 1.618a3.7 3.7 0 0 0-1.863.653 4.92 4.92 0 0 0-1.723 2.734c.1 0 .191.008.292.009a6.563 6.563 0 0 0 3.049-.758A2.313 2.313 0 0 0 7.231 2.63a.892.892 0 0 0-.3-.761 1.366 1.366 0 0 0-.831-.251z" class="cls-4"/>
                </g>
            </g>
            <path id="Fill_7" d="M1.41 16H0L2.826.276A18.769 18.769 0 0 1 6.224 0h.433a5.952 5.952 0 0 1 4.6 1.736 3.6 3.6 0 0 1 .656 3.093C11.487 7.067 9.259 9.48 5.377 9.49H5.3c-.529 0-1.034-.015-1.636-.048l-.835 4.66-.143.8A1.178 1.178 0 0 1 1.41 16zM6.238 1.658a5.485 5.485 0 0 0-1.192.117c0 .015-.072.405-.178 1-.3 1.7-.871 4.865-.877 4.881a7.861 7.861 0 0 0 .949.044 5.536 5.536 0 0 0 2.608-.549 3.856 3.856 0 0 0 1.773-2.4A2.479 2.479 0 0 0 9 2.658a3.17 3.17 0 0 0-2.37-.988c-.128-.007-.256-.011-.392-.012z" class="cls-4" transform="translate(21.563 3.167)"/>
            <path id="Fill_9" d="M13.279.013a4.007 4.007 0 0 0-3.792 2.272A2.7 2.7 0 0 0 8.785.59 2.175 2.175 0 0 0 7.248 0C5.554-.032 4.461 1.07 3.629 2.574l.026-.175C3.8 1.333 3.743.933 3.424.515A1.244 1.244 0 0 0 2.316.13a3.124 3.124 0 0 0-1.147.205c.271.308.27.893.018 2.684C1.171 3.137 0 9.882 0 9.882a.378.378 0 0 0 .4.458h1.827s.239-1.419.283-1.65a16.1 16.1 0 0 1 .942-3.29C4.641 2.579 6.5 1.418 7.065 2.065a2.207 2.207 0 0 1 .1 1.52l-1.094 6.3a.378.378 0 0 0 .4.458h1.822l.234-1.374a18.471 18.471 0 0 1 .941-3.693c1.05-2.545 2.466-3.614 3.07-3.408a.815.815 0 0 1 .515.671 3.91 3.91 0 0 1-.024 1.318c-.1.741-.562 2.8-.777 4.348-.145 1.065-.088 1.465.23 1.883a1.244 1.244 0 0 0 1.108.385 3.129 3.129 0 0 0 1.147-.205c-.271-.308-.3-.961-.026-2.7.169-1.056.41-2.188.41-2.188a7.735 7.735 0 0 0 .1-3.984A2.3 2.3 0 0 0 13.279.013" class="cls-4" transform="translate(50.375 8.861)"/>
            <path id="Fill_11" d="M7.6.013C5.671-.141 4.449 1.087 3.6 2.6l.029-.2C3.771 1.332 3.689.844 3.4.513 2.831-.125 1.625.167 1.152.334c.269.308.269.893.018 2.685-.034.243-.074.5-.118.742L0 9.882a.378.378 0 0 0 .4.458h1.812s.239-1.419.282-1.65a18.2 18.2 0 0 1 1-3.325c1.171-2.856 2.9-3.729 3.428-3.488a.865.865 0 0 1 .448.658 3.917 3.917 0 0 1-.024 1.318c-.1.741-.56 2.8-.773 4.349-.145 1.065-.088 1.466.229 1.884a1.236 1.236 0 0 0 1.1.385 3.1 3.1 0 0 0 1.142-.206c-.269-.308-.3-.961-.026-2.7.168-1.056.408-2.189.408-2.189a7.687 7.687 0 0 0 .1-3.985A2.349 2.349 0 0 0 7.6.013" class="cls-4" transform="translate(90.187 8.861)"/>
            <path id="Fill_13" d="M9.044.288C8.361.331 7.511.4 7.511.4L7.3 1.613c-.065.373-.147.78-.229 1.182A15.529 15.529 0 0 1 6.3 5.1C5.1 7.923 3.507 8.742 2.906 8.612c-.2-.043-.408-.214-.514-.679a3.9 3.9 0 0 1 .024-1.317c.1-.74.565-2.8.78-4.346C3.342 1.2 3.285.8 2.965.387A1.251 1.251 0 0 0 1.853 0 3.155 3.155 0 0 0 .7.208c.272.308.3.961.026 2.694C.558 3.957.477 4.186.316 5.089a12.914 12.914 0 0 0-.3 3.135 2.323 2.323 0 0 0 2.148 2.23c1.881.192 3.171-1.078 4.027-2.54l-.023.157c-.145 1.064-.088 1.464.232 1.882a1.25 1.25 0 0 0 1.112.385 3.154 3.154 0 0 0 1.151-.205c-.272-.308-.271-.893-.018-2.683.034-.243.075-.5.118-.741l.67-3.9.3-1.721c.078-.433-.067-.836-.687-.8" class="cls-4" transform="translate(33.313 8.861)"/>
            <path id="Fill_15" d="M9.044.288C8.361.331 7.511.4 7.511.4L7.3 1.613c-.065.373-.147.78-.229 1.182A15.529 15.529 0 0 1 6.3 5.1C5.1 7.923 3.507 8.742 2.906 8.612c-.2-.043-.408-.214-.514-.679a3.9 3.9 0 0 1 .024-1.317c.1-.74.565-2.8.78-4.346C3.342 1.2 3.285.8 2.965.387A1.251 1.251 0 0 0 1.853 0 3.155 3.155 0 0 0 .7.208c.272.308.3.961.026 2.694C.558 3.957.477 4.186.316 5.089a12.914 12.914 0 0 0-.3 3.135 2.323 2.323 0 0 0 2.148 2.23c1.881.192 3.171-1.078 4.027-2.54l-.023.157c-.145 1.064-.088 1.464.232 1.882a1.25 1.25 0 0 0 1.112.385 3.154 3.154 0 0 0 1.151-.205c-.272-.308-.271-.893-.018-2.683.034-.243.075-.5.118-.741l.67-3.9.3-1.721c.078-.433-.067-.836-.687-.8" class="cls-4" transform="translate(67.438 8.861)"/>
            <path id="Fill_17" d="M4.545 0a.875.875 0 0 0-.2.018L2.537.387.071 14.1a2.1 2.1 0 0 0 .078 1.4 1.093 1.093 0 0 0 .647.5 2.573 2.573 0 0 0 .818.1 3.374 3.374 0 0 0 .862-.09 4.4 4.4 0 0 1-.041-1.939L4.831.744C4.9.362 4.94 0 4.545 0" class="cls-4" transform="translate(44.688 3.222)"/>
            <g id="Group_21" transform="translate(0 .004)">
                <path id="Clip_20-2" d="M0 0h8v19.234H0z" class="cls-1"/>
                <g id="Group_21-2" clip-path="url(#clip-path-3)">
                    <path id="Fill_19" d="M7.21 4.926l.2-2.2c.088-1 .148-1.7.158-1.85a.8.8 0 0 0-.016-.24.687.687 0 0 0-.2-.329A1.633 1.633 0 0 0 5.866.052 2.306 2.306 0 0 0 5.2.29a1.376 1.376 0 0 0-.464.42 2.4 2.4 0 0 0-.258.948L4.287 4.8l-.161 2.5s-.11 1.58-.149 2.037c-.078.852-.173 1.952-.267 3.119l-2.646.118C.9 12.587.011 12.66 0 13.18a.74.74 0 0 0 .007.095 1.124 1.124 0 0 0 .466.794c.055.04.136.088.154.1a3.186 3.186 0 0 0 1.413.322h1.52l-.22 3.05c-.013.213-.025.416-.035.607a1.734 1.734 0 0 0 .091.862.434.434 0 0 0 .374.195 1.553 1.553 0 0 0 1.643-.57 4.6 4.6 0 0 0 .7-2.153c.029-.2.084-.672.143-1.2l.65-7.055a.952.952 0 0 1 .926-.912h.172z" class="cls-7"/>
                </g>
            </g>
            <path id="Fill_22" fill="#009333" d="M16.863 5.42l-2.411-.113L14.7 1.7l.033-.61a1.835 1.835 0 0 0-.087-.866.406.406 0 0 0-.355-.2A1.432 1.432 0 0 0 12.729.6a4.8 4.8 0 0 0-.665 2.164c-.028.2-.08.675-.136 1.2l-.106 1.213c-4.077-.191-9.186-.429-9.9-.46 0 0-.41-.011-.662.014a1.34 1.34 0 0 0-1.16.821 2.48 2.48 0 0 0-.093.868 1.387 1.387 0 0 0 .142.527 1.059 1.059 0 0 0 .884.4h5.919l1.781.028s3-.013 3.021 2.378a2.457 2.457 0 0 1-1.967 2.391 3.9 3.9 0 0 1-.882.134L11 14.565l-.176 2.026c-.083 1.005-.141 1.711-.151 1.86a.845.845 0 0 0 .018.244.692.692 0 0 0 .187.331 1.488 1.488 0 0 0 1.417.256 2.109 2.109 0 0 0 .632-.239 1.339 1.339 0 0 0 .441-.422 2.522 2.522 0 0 0 .245-.953l.179-3.1.157-2.575c.054-.844.1-1.587.142-2.046.063-.725.137-1.629.213-2.6h1.628a2.888 2.888 0 0 0 1.343-.323c.018-.011.094-.06.147-.1a1.142 1.142 0 0 0 .443-.8.755.755 0 0 0 .007-.1c-.01-.522-.852-.6-1.012-.605"/>
            <path id="Fill_24" d="M10.463.766A1.326 1.326 0 0 0 9.307.015C9.056-.008 8.647 0 8.647 0l-2 .085L1.627.3c-.31.018-.6.009-.673.014C.715.328.186.406.142.885L0 2.417h9.534a1.088 1.088 0 0 0 .88-.365 1.207 1.207 0 0 0 .142-.486 2.123 2.123 0 0 0-.093-.8" class="cls-7" transform="translate(7.313 12.083)"/>
        </g>
    </g>
</svg>
