<svg xmlns="http://www.w3.org/2000/svg" width="24" height="24" viewBox="0 0 24 24">
    <g fill="none" fill-rule="evenodd">
        <g>
            <g>
                <g>
                    <path d="M0 0H24V24H0z" opacity=".2" transform="translate(-156 -188) translate(136 172) translate(20 16)"/>
                    <path fill="#333" d="M11.995 19.568c.277 0 .5.224.5.5v2c0 .276-.223.5-.5.5-.276 0-.5-.224-.5-.5v-2c0-.276.224-.5.5-.5zM9.5 18.5c-1.657 0-3-1.343-3-3v-2c0-.256.096-.49.254-.666-.164-.39-.254-.818-.254-1.266v-2c0-.552.448-1 1-1h2c1.047 0 1.968.536 2.505 1.348.524-.842 1.458-1.402 2.524-1.402h1.975c.553 0 1 .447 1 1v1.975c0 .469-.1.917-.279 1.322.17.179.275.422.275.689v2c0 1.657-1.343 3-3 3zm7-5h-2c-1.105 0-2 .895-2 2v-.014V17.5h2c1.054 0 1.918-.816 1.995-1.85l.005-.15v-2zm-5 1.987c-.007-1.049-.82-1.905-1.85-1.982L9.5 13.5h-2v2c0 1.105.895 2 2 2h1.999zm-2-5.919h-2v2c0 .33.07.647.198.932H9.5c.769 0 1.47.29 2 .765v-1.697c0-1.054-.816-1.918-1.85-1.994l-.15-.006zm7.004-.054H14.53c-1.09 0-1.975.884-1.975 1.975v1.728c.524-.447 1.203-.717 1.946-.717h1.767c.129-.26.21-.546.231-.848l.006-.163V9.514zm-5.211-7.446c.39-.39 1.024-.39 1.414 0l1.238 1.237c1.073 1.074 1.073 2.816 0 3.89l-1.238 1.237c-.39.39-1.024.39-1.414 0l-1.238-1.237c-1.073-1.074-1.073-2.816 0-3.89zm.707.707l-1.237 1.238c-.684.683-.684 1.791 0 2.474L12 7.725l1.237-1.238c.684-.683.684-1.791 0-2.474L12 2.775z" transform="translate(-156 -188) translate(136 172) translate(20 16)"/>
                </g>
            </g>
        </g>
    </g>
</svg>
