<svg xmlns="http://www.w3.org/2000/svg" width="24" height="24" viewBox="0 0 24 24">
    <g fill="none" fill-rule="evenodd">
        <g>
            <g>
                <g>
                    <g>
                        <path d="M0 0H24V24H0z" opacity=".2" transform="translate(-156 -228) translate(136 172) translate(20 16) translate(0 40)"/>
                        <path fill="#333" d="M12 3.5c3.795 0 7.25 4.411 7.25 9.776C19.25 18.198 15.866 21 12 21c-3.73 0-7.25-3.01-7.25-7.724C4.75 8.11 8.282 3.5 12 3.5zm0 1c-3.1 0-6.25 4.113-6.25 8.776C5.75 17.4 8.79 20 12 20c3.351 0 6.25-2.4 6.25-6.724C18.25 8.417 15.182 4.5 12 4.5zm4.25 9.5c.276 0 .5.224.5.5 0 2.21-1.79 4-4 4-.276 0-.5-.224-.5-.5s.224-.5.5-.5c1.657 0 3-1.343 3-3 0-.276.224-.5.5-.5z" transform="translate(-156 -228) translate(136 172) translate(20 16) translate(0 40)"/>
                    </g>
                </g>
            </g>
        </g>
    </g>
</svg>
