<svg xmlns="http://www.w3.org/2000/svg" width="52" height="52" viewBox="0 0 52 52">
    <g fill="none" fill-rule="evenodd">
        <g>
            <g>
                <g>
                    <g>
                        <g>
                            <path d="M0 0H52V52H0z" opacity=".2" transform="translate(-475 -392) translate(136 320) translate(1 56) translate(292) translate(46 16)"/>
                            <g fill="#80C342">
                                <path d="M30.014.25c2.466 0 4.465 1.999 4.465 4.464v6.596c3.078 2.358 5.289 6.823 5.289 11.895 0 6.888-4.74 10.813-10.152 10.813-2.469 0-4.872-.941-6.72-2.63l-18.053-.002c-2.466 0-4.464-1.998-4.464-4.464V4.714C.379 2.25 2.377.25 4.843.25zm-.398 10.786l-.21.004c-4.216.183-8.442 5.804-8.442 12.165 0 2.445.77 4.502 2 6.056.237.292.496.569.774.829.043.04.08.084.11.129 1.58 1.48 3.647 2.299 5.768 2.299 4.64 0 8.652-3.322 8.652-9.313 0-4.708-2.075-8.777-4.826-10.802-.05-.018-.098-.045-.145-.078-1.1-.775-2.263-1.213-3.381-1.28l-.059-.004-.24-.005zm5.92 13.125c.414 0 .75.336.75.75 0 3.106-2.519 5.625-5.625 5.625-.414 0-.75-.336-.75-.75s.336-.75.75-.75c2.278 0 4.125-1.847 4.125-4.125 0-.414.336-.75.75-.75zM30.014 1.75H4.843c-1.637 0-2.964 1.327-2.964 2.964v22.208c0 1.637 1.327 2.964 2.964 2.964l16.705.001-.081-.108c-1.23-1.685-1.934-3.772-1.998-6.206l.012.3-.006-.146-.006-.154v-.029c-.003-.112-.005-.225-.005-.339 0-7.221 4.94-13.67 10.152-13.67.11 0 .219.003.327.008l.03.003c1.035.053 2.048.338 3.006.819v-5.65c0-1.58-1.234-2.87-2.79-2.96l-.175-.005z" transform="translate(-475 -392) translate(136 320) translate(1 56) translate(292) translate(46 16) translate(8.571 11.071)"/>
                            </g>
                        </g>
                    </g>
                </g>
            </g>
        </g>
    </g>
</svg>
