<svg xmlns="http://www.w3.org/2000/svg" width="24" height="24" viewBox="0 0 24 24">
    <g fill="none" fill-rule="evenodd">
        <g>
            <g>
                <g>
                    <g>
                        <path d="M0 0H24V24H0z" opacity=".2" transform="translate(-156 -268) translate(136 172) translate(20 16) translate(0 80)"/>
                        <path fill="#333" d="M12 18.5c.276 0 .5.224.5.5v2c0 .276-.224.5-.5.5s-.5-.224-.5-.5v-2c0-.276.224-.5.5-.5zm3-15.8c.828 0 1.5.672 1.5 1.5v9c0 2.485-2.015 4.5-4.5 4.5H9c-.828 0-1.5-.672-1.5-1.5v-12c0-.828.672-1.5 1.5-1.5zm0 1H9c-.276 0-.5.224-.5.5v12c0 .276.224.5.5.5h3c1.933 0 3.5-1.567 3.5-3.5v-9c0-.276-.224-.5-.5-.5z" transform="translate(-156 -268) translate(136 172) translate(20 16) translate(0 80)"/>
                    </g>
                </g>
            </g>
        </g>
    </g>
</svg>
