<svg xmlns="http://www.w3.org/2000/svg" width="48" height="48" viewBox="0 0 48 48">
    <g fill="none" fill-rule="evenodd">
        <g>
            <g>
                <g>
                    <path d="M0 0H48V48H0z" transform="translate(-33 -197) translate(16 197) translate(17)"/>
                    <path fill="#aa8153" d="M20.9 5.25c2.071 0 3.75 1.679 3.75 3.75v.385c1.313-1.518 3.37-2.297 6.134-2.297.414 0 .75.336.75.75s-.336.75-.75.75c-4.09 0-6.125 1.821-6.328 5.683 2.136.163 4.063 1.258 5.303 2.957l.111.16.043-.012c.42-.102.85-.165 1.286-.186l.328-.008c3.728 0 6.75 3.022 6.75 6.75 0 2.773-1.685 5.207-4.157 6.234l-.231.091.022.1c.054.286.088.578.102.874l.007.296c0 2.726-1.759 5.092-4.267 5.929l-.125.038-.015.161c-.317 2.796-2.639 4.983-5.492 5.09l-.221.005c-2.857 0-5.24-2.088-5.678-4.848l-.031-.217-.253-.047c-2.756-.592-4.823-2.996-4.927-5.882l-.004-.23c0-.412.04-.82.119-1.219l.035-.161-.264-.118c-2.231-1.063-3.744-3.292-3.842-5.832l-.005-.264c0-3.728 3.022-6.75 6.75-6.75.698 0 1.381.106 2.032.312l.021.006.088-.13c1.159-1.672 2.973-2.791 5.012-3.058.025-.557.084-1.083.177-1.577-.075.01-.152.015-.23.015h-2c-2.071 0-3.75-1.679-3.75-3.75V7c0-.966.784-1.75 1.75-1.75h2zm3 10.5c-2.138 0-4.068 1.177-5.065 3.026-.185.343-.6.487-.957.333-.65-.28-1.353-.427-2.078-.427-2.9 0-5.25 2.35-5.25 5.25 0 2.335 1.538 4.37 3.74 5.03.41.123.635.566.49.97-.18.507-.273 1.044-.273 1.595 0 2.508 1.95 4.58 4.44 4.74.387.025.692.34.702.728l.005.19c.097 2.268 1.968 4.065 4.246 4.065 2.347 0 4.25-1.903 4.25-4.23l-.002-.09c-.01-.362.242-.68.597-.753 2.184-.455 3.775-2.39 3.775-4.65 0-.528-.086-1.043-.252-1.528-.142-.417.102-.865.529-.971 2.32-.577 3.98-2.67 3.98-5.096 0-2.9-2.35-5.25-5.25-5.25-.6 0-1.184.1-1.739.294-.34.12-.718-.021-.897-.334-1.02-1.775-2.907-2.892-4.991-2.892zm5.614 6.393c.402.102.644.511.54.912-.572 2.235-2.345 3.983-4.59 4.522-.402.097-.807-.151-.904-.554-.096-.403.152-.808.554-.904 1.704-.41 3.053-1.74 3.488-3.436.102-.401.511-.643.912-.54zM20.9 6.75h-2c-.138 0-.25.112-.25.25v2c0 1.243 1.007 2.25 2.25 2.25h2c.138 0 .25-.112.25-.25V9c0-1.243-1.007-2.25-2.25-2.25z" transform="translate(-33 -197) translate(16 197) translate(17)"/>
                </g>
            </g>
        </g>
    </g>
</svg>
