<svg xmlns="http://www.w3.org/2000/svg" width="24" height="24" viewBox="0 0 24 24">
    <g fill="none" fill-rule="evenodd">
        <g>
            <g>
                <g>
                    <g>
                        <path d="M0 0H24V24H0z" opacity=".2" transform="translate(-156 -388) translate(136 172) translate(20 16) translate(0 200)"/>
                        <path fill="#333" d="M14 19.2c.276 0 .5.224.5.5s-.224.5-.5.5h-4c-.276 0-.5-.224-.5-.5s.224-.5.5-.5h4zM10 4.21c1.533 0 2.914.587 3.834 1.518l-.192.06c.506-.17 1.05-.259 1.608-.259 1.804 0 3.407.931 4.007 2.327.024.057.037.116.04.174.627.126 1.117.647 1.195 1.325l.008.145c0 4.694-3.806 8.5-8.5 8.5-4.596 0-8.356-3.653-8.496-8.243L3.5 9.5C3.5 8.672 4.172 8 5 8h.029C5.299 5.852 7.437 4.21 10 4.21zM19 9H5c-.276 0-.5.224-.5.492l.004.242C4.627 13.776 7.944 17 12 17c4.142 0 7.5-3.358 7.5-7.471l-.003-.088C19.467 9.191 19.254 9 19 9zm-9-3.79C7.968 5.21 6.315 6.439 6.04 8h1.01C7.309 6.82 8.548 5.96 10 5.96c1.453 0 2.691.86 2.95 2.04h1.01C13.685 6.44 12.032 5.21 10 5.21zm0 1.75c-.903 0-1.643.449-1.902 1.04h3.804c-.258-.59-1-1.04-1.902-1.04zm5.25-.43c-.256 0-.508.022-.751.067.246.431.41.903.472 1.403h3.239c-.516-.873-1.658-1.47-2.96-1.47z" transform="translate(-156 -388) translate(136 172) translate(20 16) translate(0 200)"/>
                    </g>
                </g>
            </g>
        </g>
    </g>
</svg>
