<svg xmlns="http://www.w3.org/2000/svg" width="52" height="52" viewBox="0 0 52 52">
    <g fill="none" fill-rule="evenodd">
        <g>
            <g>
                <g>
                    <g>
                        <g>
                            <g fill="#333">
                                <path d="M18.808.254l.216-.003.292.003c2.19.07 3.821.969 4.816 2.655l.126.225.08.155.09-.036c3.342-1.305 7.545 1.587 7.927 5.528l.018.22.14.036c4.938 1.342 6.509 7.446 3.898 11.366l-.136.197-.13.174.074.167c1.238 2.907 1.018 5.484-.384 7.493l-.154.213-.174.22c-1.123 1.365-2.785 2.3-4.218 2.5l-.255.027-.17.223c-2.099 2.686-4.92 3.841-8.372 3.43l.047.618.011.29c0 1.921-1.49 3.495-3.35 3.495-1.798 0-3.25-1.47-3.345-3.304l-.005-.191.002-.096.026-.45.035-.399-.076.012c-3.546.481-6.437-.666-8.578-3.405l-.169-.223h-.019c-1.483-.125-3.269-1.087-4.454-2.528l-.173-.22c-1.54-2.037-1.822-4.694-.54-7.705l.074-.167-.129-.174C-.95 16.691.59 10.402 5.611 9.037l.14-.036c.244-4.053 4.54-7.077 7.945-5.748l.09.036.08-.155c.98-1.832 2.656-2.807 4.942-2.88zM19.2 19.05l-.987 8.49-.488 4.385-.274 2.672-.088 1.055-.012.26.005.201c.074 1.036.88 1.838 1.844 1.838.964 0 1.77-.802 1.844-1.838l.006-.157-.013-.304-.029-.388-.059-.667-.105-1.065-.575-5.27L19.2 19.05zM19.04 1.75h.045c-2.179 0-3.536.917-4.224 2.835-.164.457-.713.64-1.119.372-2.578-1.701-6.666 1.05-6.496 4.62.018.382-.253.716-.63.776-4.622.744-6.018 6.618-3.197 9.814.2.227.244.552.111.825-1.35 2.765-1.182 5.039.11 6.751 1.008 1.334 2.696 2.2 3.818 2.164.253-.009.494.112.64.32 1.847 2.653 4.316 3.742 7.52 3.31l.313-.046c.043-.007.086-.01.128-.01l.21-2.047.47-4.18c-.125-.002-.25-.035-.364-.1l-.091-.063-6.651-5.299c-.324-.258-.378-.73-.12-1.054.235-.294.646-.365.963-.182l.091.063 6.35 5.059.625-5.308-3.745-3.2c-.315-.269-.352-.742-.083-1.057.245-.286.658-.343.968-.149l.09.066 2.98 2.547.703-5.966c.1-.841 1.27-.88 1.468-.115l.022.115.706 5.961 2.977-2.542.09-.066c.31-.194.723-.137.968.149.244.286.236.703-.004.979l-.08.078-3.738 3.195.16 1.353.456 3.961 6.353-5.06.091-.063c.317-.183.728-.112.963.182.234.295.211.712-.038.979l-.082.075-6.65 5.299-.092.063c-.114.065-.239.098-.364.1l.19 1.644.468 4.326.029.291c3.28.489 5.801-.592 7.679-3.287.145-.209.386-.33.64-.321 1.121.036 2.81-.83 3.816-2.164 1.293-1.712 1.46-3.986.11-6.751-.132-.273-.088-.598.112-.825 2.82-3.196 1.425-9.07-3.197-9.814-.377-.06-.648-.394-.63-.776.17-3.57-3.918-6.321-6.496-4.62-.406.268-.955.085-1.12-.372-.687-1.918-2.044-2.835-4.223-2.835z" transform="translate(-474 -392) translate(136 320) translate(0 56) translate(292) translate(46 16) translate(6.8 6.8)"/>
                            </g>
                        </g>
                    </g>
                </g>
            </g>
        </g>
    </g>
</svg>
