<svg xmlns="http://www.w3.org/2000/svg" width="24" height="24" viewBox="0 0 24 24">
    <g fill="none" fill-rule="evenodd">
        <g>
            <g>
                <g>
                    <g>
                        <path d="M0 0H24V24H0z" opacity=".2" transform="translate(-156 -548) translate(136 172) translate(20 16) translate(0 360)"/>
                        <path fill="#333" d="M13.25 6.805c1.869 0 3.395 1.465 3.495 3.308l.005.192v6.023c0 2.842-2.66 5.36-6.248 5.473l-.252.004-.05-.004-.163.08c-.83.381-1.789.596-2.87.642l-.298.009c-.553.008-1.007-.433-1.015-.986-.003-.255.09-.502.263-.69l.793-.869.744-.825.354-.396c.625-.703 1.144-1.555 1.555-2.56.099-.241.16-.495.18-.754l.007-.194v-4.953c0-1.933 1.567-3.5 3.5-3.5zm0 1c-1.325 0-2.41 1.032-2.495 2.336l-.005.164v.53H12c.276 0 .5.224.5.5s-.224.5-.5.5h-1.25v1.37H12c.276 0 .5.224.5.5s-.224.5-.5.5h-1.25v1.053c0 .455-.089.905-.261 1.327-.454 1.106-1.031 2.055-1.734 2.845l-.724.808-1.177 1.294.28-.008c2.389-.104 4.002-1.108 4.914-3.033.118-.25.416-.356.666-.238.25.119.356.417.238.666-.257.542-.563 1.024-.918 1.445l-.236.262.113-.026c2.22-.571 3.739-2.252 3.834-4.088l.005-.184v-6.023c0-1.38-1.12-2.5-2.5-2.5zm3-6.3c.552 0 1 .448 1 1v1.5c0 1.105-.895 2-2 2h-1.5c-.552 0-1-.447-1-1v-1.5c0-1.104.895-2 2-2zm0 1h-1.5c-.552 0-1 .448-1 1v1.5h1.5c.552 0 1-.447 1-1v-1.5z" transform="translate(-156 -548) translate(136 172) translate(20 16) translate(0 360)"/>
                    </g>
                </g>
            </g>
        </g>
    </g>
</svg>
