<svg xmlns="http://www.w3.org/2000/svg" width="52" height="52" viewBox="0 0 52 52">
    <g fill="none" fill-rule="evenodd">
        <g>
            <g>
                <g>
                    <g>
                        <g>
                            <g fill="#AA8153">
                                <path d="M30.792 39.792c.414 0 .75.335.75.75 0 .38-.282.693-.649.743l-.101.007H2.625c-.414 0-.75-.336-.75-.75 0-.38.282-.694.648-.743l.102-.007h28.167zm-1.03-35.75c.329 0 .619.213.717.526 1.713 5.488 2.572 10.618 2.572 15.39 0 4.76-.855 10.596-2.56 17.513-.073.298-.319.517-.615.562l-.113.009h-26c-.341 0-.64-.23-.726-.56C1.18 30.381.25 24.544.25 19.957c0-4.6.935-9.732 2.8-15.4.09-.274.327-.469.606-.509l.107-.007h26zm-.555 1.499H4.308l-.055.173C2.73 10.498 1.905 14.865 1.77 18.813l-.015.589-.005.556c0 3.987.735 9.003 2.207 15.042l.166.675.22.866h24.83l.215-.9c1.33-5.68 2.045-10.567 2.15-14.654l.01-.529.003-.5c0-4.393-.756-9.12-2.271-14.181l-.073-.236zm-13.58 6.42c.465-.464 1.199-.495 1.7-.092l.103.093 1.297 1.297c.888.889 1.127 2.18.716 3.286h1.822c.66 0 1.203.5 1.268 1.144l.007.13v2.07c0 .637-.164 1.238-.453 1.761.233.204.391.492.427.817l.008.141v2.097c0 1.8-1.41 3.271-3.187 3.367l-.185.005h-1.956l.08 1.95c.016.413-.306.762-.72.779-.38.015-.704-.254-.768-.618l-.011-.101-.082-2.01h-1.786c-1.8 0-3.27-1.41-3.367-3.187l-.005-.185v-2.097c0-.326.123-.624.325-.85l.085-.086c-.225-.433-.365-.917-.4-1.428l-.01-.258V17.89c0-.66.502-1.202 1.144-1.268l.13-.006h1.832c-.423-1.058-.242-2.302.544-3.2l.145-.156 1.297-1.297zm5.395 10.872H19.15c-.984 0-1.791.76-1.866 1.726l-.005.146v1.871l1.871.001c.933 0 1.706-.682 1.848-1.575l.018-.15.006-.147v-1.872zm-7.115 0h-1.872v1.872c0 .985.76 1.792 1.726 1.866l.146.006 1.871-.001v-1.87c0-.933-.682-1.707-1.574-1.849l-.15-.018-.147-.005zm0-4.718h-1.872v1.871c0 .506.173.975.466 1.347h1.406c.625 0 1.21.171 1.713.468l.158.1v-1.915c0-.932-.682-1.706-1.574-1.848l-.15-.018-.147-.005zm7.133-.07h-1.846c-.968 0-1.762.745-1.84 1.694l-.005.15v1.966l-.018.011c.459-.295.995-.481 1.57-.523l.25-.01h1.332l.111-.133c.214-.277.36-.608.418-.966l.021-.181.007-.163v-1.846zm-4.511-4.863L15.39 14.32c-.591.592-.626 1.53-.104 2.161l.104.115 1.139 1.138 1.138-1.138c.556-.556.62-1.419.19-2.046l-.091-.122-.1-.108-1.137-1.138zM30.792.792c.414 0 .75.335.75.75 0 .38-.282.693-.649.743l-.101.007H2.625c-.414 0-.75-.336-.75-.75 0-.38.282-.694.648-.743l.102-.007h28.167z" transform="translate(-620 -392) translate(136 320) translate(0 56) translate(438) translate(46 16) translate(9.292 6.042)"/>
                            </g>
                        </g>
                    </g>
                </g>
            </g>
        </g>
    </g>
</svg>
