<svg xmlns="http://www.w3.org/2000/svg" width="52" height="52" viewBox="0 0 52 52">
    <g fill="none" fill-rule="evenodd">
        <g>
            <g>
                <g>
                    <g>
                        <g>
                            <path fill="#333" d="M30.613 11c5.503 0 9.204 1.8 11.476 4.669.721-2.118 2.244-3.184 4.487-3.043 2.15.162 3.535 1.819 3.535 3.807 0 2.007-1.415 3.594-3.592 3.594-.414 0-.75-.336-.75-.75s.336-.75.75-.75c1.307 0 2.092-.88 2.092-2.094 0-1.235-.816-2.211-2.139-2.311-1.871-.117-2.904.88-3.254 3.27.646 1.199 1.106 2.523 1.399 3.938l.1.523c.17.966.265 1.97.292 3.003l.008.566-.005.57c-.01.478-.035.96-.072 1.447l-.05.585-.064.589-.075.591-.043.297-.093.595c-1.02 6.097-4.47 10.51-10.353 13.238-.145.068-.304.103-.465.103-.57 0-1.04-.431-1.1-.986l-.006-.12v-3.149c0-1.169-.907-2.126-2.055-2.207l-.158-.006h-9.166c-.487 0-.917.319-1.059.785-.516 1.699-1.325 3.042-2.427 4.03-.88.788-1.835 1.327-2.868 1.618-.097.028-.198.042-.299.042-.57 0-1.04-.431-1.1-.986l-.007-.12v-5.09c-5.848.857-9.697-.289-11.545-3.435L2 32.941l.005-1.29c.001-.483.315-.904.766-1.05l.116-.03.248-.054c1.781-.416 3.044-2.174 3.788-5.276l.078-.337-3.353-3.34c-.038-.037-.073-.077-.106-.12-.366-.49-.266-1.183.224-1.549 2.516-1.883 5.166-1.878 7.95.014l.873-.884.575-.568c.192-.187.382-.37.572-.55l.57-.532C18.669 13.368 22.99 11 30.613 11zm0 1.5c-7.362 0-11.322 1.946-17.144 7.768l-.68.689c-.508.52-1.316.602-1.917.193-2.031-1.38-3.81-1.527-5.59-.468l-.243.151 3.02 3.008c.328.326.485.782.432 1.236l-.025.15c-.818 3.7-2.362 6.017-4.763 6.692l-.2.051-.001 1.401.027.04c1.534 2.197 4.595 3.049 9.422 2.407l.385-.053c.86-.126 1.636.502 1.711 1.35l.006.136-.002 4.537.03-.01c.523-.211 1.023-.512 1.505-.906l.239-.205c.887-.795 1.553-1.901 1.993-3.35.316-1.04 1.242-1.768 2.314-1.841l.18-.007 8.403.001c-1.816-2.117-2.081-4.766-.776-7.828.163-.381.604-.559.985-.396.38.162.558.603.395.984-1.367 3.206-.729 5.639 1.955 7.53.123.087.212.204.264.334.945.631 1.584 1.685 1.647 2.891l.006.197-.001 2.522.169-.084c4.873-2.476 7.744-6.24 8.709-11.392l.067-.38C44.91 19.23 40.802 12.5 30.613 12.5zM11.66 27.429c.607 0 1.1.492 1.1 1.1 0 .607-.493 1.1-1.1 1.1-.608 0-1.1-.493-1.1-1.1 0-.608.492-1.1 1.1-1.1z" transform="translate(-766 -392) translate(136 320) translate(0 56) translate(584) translate(46 16)"/>
                        </g>
                    </g>
                </g>
            </g>
        </g>
    </g>
</svg>
