<svg xmlns="http://www.w3.org/2000/svg" width="52" height="52" viewBox="0 0 52 52">
    <g fill="none" fill-rule="evenodd">
        <g>
            <g>
                <g>
                    <g>
                        <g>
                            <g>
                                <path d="M0 0H52V52H0z" transform="translate(-912 -392) translate(136 320) translate(0 56) translate(730) translate(40 16) translate(6)"/>
                                <g fill="#AA8153">
                                    <path d="M27.437.25c.414 0 .75.336.75.75 0 .38-.282.693-.648.743l-.102.007H12.683l-.746.007-.674.014-.617.023-.29.016-.558.04c-.271.023-.535.052-.798.086l-.529.076-.268.045c-3.42.593-5.58 2.08-6.239 4.9l16.521.001c8.278 0 14.078 3.366 14.768 11.486.75 8.84-4.68 13.473-14.636 13.685l-.376.006-.288.001c-.182 0-.33-.049-.447-.13-.225 2.456-1.816 3.964-4.14 4.586l-.243.06-.336.072-.176.032-.314.047-.514.051-.401.017-5.646.001c-.45 0-.8-.394-.745-.84.298-2.433 1.223-3.97 2.586-4.76-1.554-.86-2.591-2.382-2.591-4.621 0-.38.282-.693.648-.743l.102-.007h6.653c2.561 0 4.492 1.387 5.07 4.902.093-.078.211-.134.356-.157l.113-.01h.045c.829-.033 1.886-.328 2.745-.943 1.255-.9 1.95-2.365 1.857-4.604-.137-3.323-2.354-4.902-7.031-4.8l-.315.008h-3.935c-3.064 0-6.975-1.882-9.184-4.818C.751 13.673.094 10.558.256 8.636.383 3.868 3.25 1.393 7.946.58 8.821.428 9.611.342 10.543.297l.646-.025.343-.008.738-.01.818-.004h14.35zM15.98 32.136l-5.945.002-.149.005-.275.022-.21.03c-1.27.215-2.203 1.008-2.676 2.738l-.062.242-.044.197h4.735l.287-.012.379-.034.347-.05.13-.023.298-.063c1.654-.392 2.775-1.268 3.125-2.743l.043-.205.017-.106zm-3.59-4.735H6.545l.022.124c.398 2.044 2.22 3.044 4.46 3.108l.234.004 4.643-.001-.04-.187c-.49-2.115-1.582-2.932-3.119-3.036l-.18-.01-.176-.002zm19.042-10.91l-7.558 7.023c.111.47.178.974.2 1.513.087 2.095-.433 3.728-1.431 4.916l-.171.194-.159.164.178-.03c6.35-1.113 9.61-4.78 9.312-11.037l-.02-.338-.024-.325c-.063-.738-.172-1.43-.327-2.08zM20.122 8.506v10.91c1.453.53 2.518 1.393 3.176 2.584l7.633-7.092c-1.65-4.114-5.51-6.078-10.809-6.402zm-1.5-.048H1.793l-.024.287c-.028.427-.026.916.013 1.422.127 1.653.614 3.197 1.527 4.41 1.856 2.468 5.156 4.108 7.722 4.215l.263.005H15.2c1.272-.046 2.414.026 3.422.215l-.001-10.554zm-11.943 2.25c.564 0 1.022.458 1.022 1.022 0 .564-.458 1.021-1.022 1.021-.564 0-1.021-.457-1.021-1.021 0-.564.457-1.022 1.021-1.022z" transform="translate(-912 -392) translate(136 320) translate(0 56) translate(730) translate(40 16) translate(6) translate(9.214 9.214)"/>
                                </g>
                            </g>
                        </g>
                    </g>
                </g>
            </g>
        </g>
    </g>
</svg>
