<svg xmlns="http://www.w3.org/2000/svg" width="52" height="52" viewBox="0 0 52 52">
    <g fill="none" fill-rule="evenodd">
        <g>
            <g>
                <g>
                    <g>
                        <g>
                            <path fill="#333" d="M42 23.25c.414 0 .75.336.75.75v3.75H46c.414 0 .75.336.75.75 0 .38-.282.693-.648.743L46 29.25h-3.25V35c0 5.841-4.659 10.594-10.464 10.746L32 45.75H20c-5.937 0-10.75-4.813-10.75-10.75v-5.75H6c-.414 0-.75-.336-.75-.75 0-.38.282-.693.648-.743L6 27.75h3.25V24c0-.38.282-.693.648-.743L10 23.25zm-.75 1.5h-30.5V35c0 5.019 3.997 9.104 8.982 9.246l.268.004h12c5.109 0 9.25-4.141 9.25-9.25V24.75zm.75-4.7c.414 0 .75.336.75.75 0 .38-.282.693-.648.743L42 21.55H10c-.414 0-.75-.336-.75-.75 0-.38.282-.693.648-.743L10 20.05h32zM23.496 7.438c1.463 1.291 1.795 2.851.937 4.468l-.104.187c-.661 1.129-.661 2.12-.02 3.099.227.347.13.811-.217 1.038-.347.227-.811.13-1.038-.217-.918-1.402-.96-2.925-.142-4.459l.122-.219c.616-1.052.461-1.897-.53-2.773-.31-.274-.34-.748-.066-1.058.274-.31.748-.34 1.058-.066zm5.572 0c1.463 1.291 1.794 2.851.936 4.468l-.104.187c-.66 1.129-.66 2.12-.02 3.099.227.347.13.811-.217 1.038-.346.227-.811.13-1.038-.217-.917-1.402-.959-2.925-.142-4.459l.123-.219c.616-1.052.46-1.897-.53-2.773-.311-.274-.341-.748-.067-1.058.274-.31.748-.34 1.059-.066z" transform="translate(-1058 -392) translate(136 320) translate(0 56) translate(876) translate(46 16)"/>
                        </g>
                    </g>
                </g>
            </g>
        </g>
    </g>
</svg>
