<svg xmlns="http://www.w3.org/2000/svg" width="52" height="52" viewBox="0 0 52 52">
    <g fill="none" fill-rule="evenodd">
        <g>
            <g>
                <g>
                    <g>
                        <g>
                            <g fill="#333">
                                <path d="M26.031 13.25c2.198 0 3.98 1.782 3.98 3.98v2.525c3.858.14 6.944 3.312 6.944 7.205 0 3.981-3.228 7.21-7.21 7.21l-.064-.002c-.918 2.926-3.651 5.048-6.88 5.048H7.46c-3.982 0-7.21-3.228-7.21-7.21V17.23c0-2.198 1.782-3.98 3.98-3.98zm-16.468 1.5H4.23c-1.37 0-2.48 1.11-2.48 2.48v14.776c0 3.154 2.556 5.71 5.71 5.71H22.8c3.154 0 5.71-2.556 5.71-5.71V17.23c0-1.37-1.11-2.48-2.48-2.48H11.063v5.242h.866c1.252 0 2.276.973 2.36 2.203l.005.162v3.23c0 1.306-1.059 2.365-2.365 2.365h-3.23c-1.306 0-2.365-1.059-2.365-2.365v-3.23c0-1.306 1.059-2.365 2.365-2.365h.864V14.75zm20.448 6.506v10.75c0 .222-.01.442-.03.659 3.044-.124 5.474-2.63 5.474-5.705 0-3.065-2.414-5.565-5.444-5.704zm-18.082.236h-3.23c-.478 0-.865.387-.865.865v3.23c0 .478.387.865.865.865h3.23c.478 0 .865-.387.865-.865v-3.23c0-.478-.387-.865-.865-.865zM13.568.438c1.463 1.291 1.794 2.851.936 4.468l-.104.187c-.66 1.129-.66 2.12-.02 3.099.227.347.13.811-.217 1.038-.346.227-.811.13-1.038-.217-.917-1.402-.959-2.925-.142-4.459l.123-.219c.616-1.052.46-1.897-.53-2.773-.311-.274-.341-.748-.067-1.058.274-.31.748-.34 1.059-.066zm5.571 0c1.463 1.291 1.795 2.851.937 4.468l-.105.187c-.66 1.129-.66 2.12-.02 3.099.228.347.13.811-.216 1.038-.347.227-.812.13-1.038-.217-.918-1.402-.96-2.925-.143-4.459l.123-.219c.616-1.052.461-1.897-.53-2.773-.311-.274-.34-.748-.066-1.058.274-.31.748-.34 1.058-.066z" transform="translate(-182 -506) translate(136 320) translate(0 170) translate(36 16) translate(10) translate(8.286 4.571)"/>
                            </g>
                        </g>
                    </g>
                </g>
            </g>
        </g>
    </g>
</svg>
