<svg xmlns="http://www.w3.org/2000/svg" width="52" height="52" viewBox="0 0 52 52">
    <g fill="none" fill-rule="evenodd">
        <g>
            <g>
                <g>
                    <g>
                        <g>
                            <g>
                                <path d="M0 0H52V52H0z" opacity=".2" transform="translate(-328 -506) translate(136 320) translate(0 170) translate(146) translate(31 16) translate(15)"/>
                                <g fill="#AA8153">
                                    <path d="M15.492 0c2.542 0 4.602 2.06 4.602 4.602l-.001 4.742 3.13 19.558c.39 2.438-1.212 4.735-3.604 5.232l-.213.04c-.24.038-.484.057-.727.057H4.602C2.06 34.231 0 32.171 0 29.63c0-.243.02-.486.058-.727L3.186 9.344V4.602C3.187 2.13 5.135.115 7.579.005L7.788 0zm3.213 10.166H4.573L1.539 29.139c-.009.054-.016.109-.022.163l-.013.163-.004.164c0 1.713 1.389 3.102 3.102 3.102h14.077c.164 0 .328-.013.49-.039 1.691-.27 2.843-1.861 2.573-3.553l-3.037-18.973zm-9.335 5.92c.38 0 .694.282.744.648l.006.102v9.982c0 .414-.335.75-.75.75-.38 0-.693-.282-.743-.648l-.007-.102v-9.982c0-.414.336-.75.75-.75zm4.643 0c.38 0 .694.282.743.648l.007.102v9.982c0 .414-.336.75-.75.75-.38 0-.693-.282-.743-.648l-.007-.102v-9.982c0-.414.336-.75.75-.75zM8.62 1.5h-.832c-1.713 0-3.101 1.389-3.101 3.102l-.002 4.055h13.908l.001-4.055c0-1.595-1.204-2.909-2.752-3.083l-.174-.014-.176-.005h-.729v2.104c0 .414-.336.75-.75.75-.38 0-.693-.283-.743-.649l-.007-.101V1.5H10.12v2.104c0 .414-.335.75-.75.75-.38 0-.693-.283-.743-.649l-.007-.101V1.5z" transform="translate(-328 -506) translate(136 320) translate(0 170) translate(146) translate(31 16) translate(15) translate(14.38 9.95)"/>
                                </g>
                            </g>
                        </g>
                    </g>
                </g>
            </g>
        </g>
    </g>
</svg>
