<svg xmlns="http://www.w3.org/2000/svg" width="24" height="24" viewBox="0 0 24 24">
    <g fill="none" fill-rule="evenodd">
        <g>
            <g>
                <g>
                    <g>
                        <path d="M0 0H24V24H0z" opacity=".2" transform="translate(-156 -708) translate(136 172) translate(20 16) translate(0 520)"/>
                        <g fill="#333">
                            <path d="M18.952 12.004c.172.216.136.53-.08.702-2.434 1.93-5.443 2.998-8.615 2.998-.276 0-.5-.224-.5-.5s.224-.5.5-.5c2.944 0 5.735-.99 7.993-2.781.216-.172.53-.136.702.08zM9.598.53l.22.003c.286.012.548.026.784.044l.44.04c.135.015.26.03.373.048 1.98.307 3.597.958 5.089 2.485 1.924 1.97 2.83 4.204 2.378 6.264-.293 1.34-1.858 2.443-4.652 3.418-.792.276-1.655-.103-1.995-.853l-.012-.028-.147.027c-4.544.781-9.014-.6-10.52-3.112l-.097-.173C1.003 7.839.849 6.74.978 5.4c.075-.777.694-1.38 1.457-1.448l.145-.006h2.127c.323 0 .624-.15.82-.4l.07-.098.605-.987C6.931 1.274 8.215.55 9.598.531zm-2.43 2.282l-.114.172-.606.987c-.342.559-.93.916-1.578.968l-.163.007H2.58c-.314 0-.577.238-.607.55-.112 1.16.016 2.066.368 2.726 1.164 2.18 5.284 3.497 9.536 2.776l.213-.04V6.241c0-.245.177-.45.41-.492l.09-.008c.246 0 .45.177.492.41l.008.09v5.071c0 .069.012.137.034.201.111.318.459.486.777.375 2.49-.87 3.81-1.8 4.004-2.688.37-1.686-.406-3.6-2.117-5.351-1.312-1.344-2.74-1.919-4.526-2.195l-.16-.023-.373-.04-.212-.017-.477-.03-.263-.012c-1.035-.042-2.015.444-2.61 1.28zm1.01 1.53c.415 0 .75.337.75.75 0 .415-.335.75-.75.75-.414 0-.75-.335-.75-.75 0-.413.336-.75.75-.75z" transform="translate(-156 -708) translate(136 172) translate(20 16) translate(0 520) translate(2 4)"/>
                        </g>
                    </g>
                </g>
            </g>
        </g>
    </g>
</svg>
