<svg xmlns="http://www.w3.org/2000/svg" width="52" height="52" viewBox="0 0 52 52">
    <g fill="none" fill-rule="evenodd">
        <g>
            <g>
                <g>
                    <g>
                        <g>
                            <g>
                                <g fill="#333">
                                    <path d="M2.857 35.643c-1.44 0-2.607-1.167-2.607-2.607v-13c0-3.942 2.788-7.232 6.5-8.006V7.5c0-.38.283-.693.649-.743L7.5 6.75h1.748V1.749l-2.676.001c-.414 0-.75-.336-.75-.75 0-.38.282-.693.648-.743L6.572.25h8.705c1.7 0 3.091 1.02 4.14 2.944.198.364.064.82-.3 1.018-.363.198-.819.064-1.017-.3-.765-1.403-1.639-2.088-2.653-2.156l-.17-.006-.588-.001V6.75h1.749c.38 0 .693.282.743.648l.007.102v4.465c3.884.635 6.848 4.007 6.848 8.07v1.303c2.97.704 5.234 3.237 5.537 6.344l.01.142.16.053c1.494.534 2.562 1.927 2.645 3.56l.005.206c0 2.209-1.791 4-4 4zm13-22.286H8.43c-3.689 0-6.679 2.99-6.679 6.679v13c0 .611.496 1.107 1.107 1.107h10.341l-.075-.098-.014-.02-.01-.013c-.094-.127-.18-.259-.258-.396l-.028-.05c-.027-.05-.054-.1-.08-.152l-.032-.069c-.032-.067-.062-.135-.09-.205l-.015-.038c-.026-.065-.05-.131-.072-.197l-.013-.041c-.123-.385-.19-.795-.19-1.221 0-1.722 1.094-3.21 2.65-3.767l.158-.053.013-.142c.02-.2.047-.397.082-.592.017-.091.035-.181.055-.271.025-.114.053-.227.083-.34.029-.103.06-.206.092-.307.064-.2.138-.398.219-.59.022-.053.044-.105.068-.158.072-.16.15-.318.234-.472.21-.39.456-.76.732-1.102.066-.081.133-.161.202-.24l.1-.112c.097-.105.196-.207.299-.307.174-.168.356-.328.546-.48.16-.126.324-.246.494-.359.2-.132.406-.255.62-.368.114-.062.232-.12.351-.175.199-.091.394-.17.592-.242l.066-.024c.137-.046.268-.088.401-.126l.086-.023c.204-.055.411-.102.621-.139.103-.018.208-.034.312-.048.083-.011.165-.02.248-.029.157-.015.314-.025.473-.03l-.048.001.044-.001.243-.004.179.002v-1.11c0-3.61-2.864-6.55-6.444-6.674l-.235-.004zm6.5 9.286l-.22.004-.098.005c-.187.01-.372.029-.554.057-.038.005-.074.011-.11.018l.11-.018c-.077.011-.153.024-.228.04l.117-.022c-.053.009-.107.019-.16.03l.043-.009c-.07.014-.138.028-.207.044l.164-.036c-.07.015-.141.03-.21.047l.046-.01c-.14.032-.28.07-.416.113l-.049.015.049-.015c-.138.043-.274.091-.407.145l-.039.015.039-.015c-.397.158-.771.359-1.119.597l-.029.019.03-.02c-.286.196-.552.416-.797.657l-.047.047.047-.047c-.051.051-.102.103-.152.156l.105-.11-.136.143.031-.033c-.918.979-1.498 2.278-1.549 3.713l-.004.166v.032l.02.702-.663.095c-1.222.175-2.143 1.227-2.143 2.475 0 .161.016.32.045.472.041.215.11.42.201.61l.07.135c.428.765 1.246 1.283 2.184 1.283h12.072c1.38 0 2.5-1.12 2.5-2.5 0-1.248-.92-2.3-2.142-2.474l-.646-.092.002-.652-.004-.253c-.106-2.813-2.233-5.109-4.971-5.477-.055-.008-.11-.015-.166-.02l.166.02c-.095-.013-.19-.024-.286-.032l.12.012c-.083-.01-.166-.016-.25-.021l.13.01c-.08-.007-.16-.012-.24-.016l-.249-.005zM13.19 1.75h-2.441V7.5c0 .38-.281.693-.647.743l-.102.007H8.25v3.609l.179-.002h7.258V8.25h-1.748c-.38 0-.693-.282-.743-.648L13.19 7.5V1.75z" transform="translate(-1205 -506) translate(136 320) translate(1 56) translate(0 114) translate(1022) translate(46 16) translate(10.143 8.75)"/>
                                </g>
                            </g>
                        </g>
                    </g>
                </g>
            </g>
        </g>
    </g>
</svg>
