<svg xmlns="http://www.w3.org/2000/svg" width="52" height="52" viewBox="0 0 52 52">
    <g fill="none" fill-rule="evenodd">
        <g>
            <g>
                <g>
                    <g>
                        <g fill="#333">
                            <path d="M23.286 15.571c.414 0 .75.336.75.75 0 .38-.282.694-.649.744l-.101.006H1c-.414 0-.75-.335-.75-.75 0-.38.282-.693.648-.743L1 15.571h22.286zm0-7.428c.414 0 .75.336.75.75 0 .38-.282.693-.649.743l-.101.007H1c-.414 0-.75-.336-.75-.75 0-.38.282-.694.648-.743L1 8.143h22.286zm0-7.429c.414 0 .75.336.75.75 0 .38-.282.694-.649.743l-.101.007H1c-.414 0-.75-.336-.75-.75 0-.38.282-.693.648-.743L1 .714h22.286z" transform="translate(-183 -391) translate(136 320) translate(1 56) translate(46 15) translate(13.857 17.571)"/>
                        </g>
                    </g>
                </g>
            </g>
        </g>
    </g>
</svg>
