<svg xmlns="http://www.w3.org/2000/svg" width="24" height="24" viewBox="0 0 24 24">
    <g fill="none" fill-rule="evenodd">
        <path d="M0 0H24V24H0z"/>
        <path fill="#333333" d="M16.35 18.7c.331 0 .6.27.6.6 0 .332-.269.6-.6.6h-8.7c-.331 0-.6-.268-.6-.6 0-.33.269-.6.6-.6h8.7zM12 3.498c1.427 0 2.808.557 3.805 1.541.965.955 1.508 2.249 1.508 3.709 0 2.504-1.552 5.076-4.6 7.792l-.32.282-.394.34-.392-.34C8.357 14.001 6.7 11.337 6.7 8.747c0-1.471.537-2.766 1.496-3.716.991-.983 2.37-1.534 3.804-1.534zm0 1.2c-1.122 0-2.196.43-2.96 1.186-.73.725-1.14 1.712-1.14 2.864 0 1.948 1.19 4.062 3.607 6.363l.285.266.208.19.21-.19c2.423-2.227 3.705-4.279 3.882-6.177l.016-.226.005-.226c0-1.139-.414-2.126-1.152-2.855-.77-.76-1.847-1.195-2.961-1.195zm.059 1.917c.527 0 1.022.209 1.387.575.364.365.574.86.574 1.385 0 .527-.21 1.021-.575 1.386-.364.365-.86.574-1.386.574-.526 0-1.02-.21-1.384-.573-.366-.364-.576-.86-.576-1.387 0-.526.21-1.02.575-1.386.364-.365.859-.574 1.385-.574zm0 1.2c-.205 0-.395.08-.537.222-.142.143-.223.333-.223.538 0 .205.08.395.223.538.142.141.332.222.537.222.205 0 .396-.08.538-.222.142-.143.223-.333.223-.538 0-.204-.081-.395-.223-.538-.142-.142-.333-.222-.538-.222z"/>
    </g>
</svg>
