<svg xmlns="http://www.w3.org/2000/svg" width="22" height="22" viewBox="0 0 22 22">
    <g fill="none" fill-rule="evenodd">
        <g>
            <g>
                <g>
                    <g>
                        <g>
                            <g>
                                <path fill="#80C342" d="M11 4.033c1.293 0 2.353 1.003 2.432 2.27l.005.154v.516l3.18.001c.774 0 1.362.673 1.35 1.45l-.01.138-.692 6.457c-.114 1.061-.952 1.878-1.97 1.878h-8.59c-1.018 0-1.856-.817-1.97-1.878l-.693-6.457c-.09-.834.522-1.588 1.341-1.588h3.18v-.517c0-1.34 1.092-2.424 2.437-2.424zm5.617 4.041h-3.18v.92c0 .305-.246.55-.55.55-.273 0-.5-.199-.543-.46l-.007-.09v-.92H9.661v.92c0 .305-.245.55-.55.55-.273 0-.5-.199-.542-.46l-.007-.09v-.92h-3.18c-.12 0-.237.125-.249.295l.002.076.693 6.457c.055.52.44.895.876.895h8.59c.436 0 .82-.375.876-.895l.693-6.457c.023-.208-.109-.37-.247-.37zM11 5.134c-.696 0-1.266.525-1.331 1.195l-.006.128v.516h2.673l.001-.516c0-.73-.598-1.324-1.337-1.324z" transform="translate(-315 -303) translate(0 89) translate(0 74) translate(16 105) translate(296 32) translate(3 3)"/>
                            </g>
                        </g>
                    </g>
                </g>
            </g>
        </g>
    </g>
</svg>
