<svg xmlns="http://www.w3.org/2000/svg" width="24" height="24" viewBox="0 0 24 24">
    <g fill="none" fill-rule="evenodd">
        <path d="M0 0H24V24H0z"/>
        <path fill="#333333" d="M20.9 17.725c0 .87-.705 1.575-1.575 1.575H4.475c-.87 0-1.575-.705-1.575-1.575V6.275c0-.831.667-1.497 1.501-1.569L4.55 4.7h14.7c.852 0 1.566.62 1.643 1.43l.007.145v3.42h-.6c-.739 0-1.32.54-1.32 1.183 0 .603.51 1.115 1.183 1.177l.137.006h.6zm-1.2-1.231H4.1v1.231c0 .181.129.332.3.367l.075.008h14.85c.207 0 .375-.168.375-.375v-1.231zM19.25 5.9H4.55c-.226 0-.401.136-.441.302l-.009.073v9.019h15.6v-2.102l-.041-.009c-1.025-.254-1.803-1.104-1.874-2.147l-.006-.158c0-1.115.803-2.039 1.88-2.306l.041-.009V6.275c0-.172-.147-.33-.357-.367L19.25 5.9z"/>
    </g>
</svg>
