<svg xmlns="http://www.w3.org/2000/svg" width="16" height="16" viewBox="0 0 16 16">
    <g fill="none" fill-rule="evenodd">
        <g>
            <g>
                <g>
                    <g>
                        <g>
                            <g>
                                <path fill="#333" d="M5.576 3.576c.208-.209.531-.232.765-.07l.083.07 4 4c.209.208.232.531.07.765l-.07.083-4 4c-.234.235-.614.235-.848 0-.209-.208-.232-.531-.07-.765l.07-.083L9.15 8 5.576 4.424c-.209-.208-.232-.531-.07-.765l.07-.083z" transform="translate(-328 -238) translate(0 89) translate(0 74) translate(16 73) translate(269 2) translate(43) rotate(90 8 8)"/>
                            </g>
                        </g>
                    </g>
                </g>
            </g>
        </g>
    </g>
</svg>
