<svg xmlns="http://www.w3.org/2000/svg" width="44" height="44" viewBox="0 0 44 44">
    <g fill="none" fill-rule="evenodd">
        <g>
            <g>
                <g>
                    <g>
                        <g>
                            <path d="M0 0H44V44H0z" transform="translate(-540 -250) translate(495 100) translate(1 146) translate(39) translate(5 4)"/>
                            <path fill="#fff" d="M16.508 29.608c1.674 0 3.032 1.358 3.032 3.032 0 1.675-1.358 3.032-3.032 3.032-1.675 0-3.032-1.357-3.032-3.032 0-1.674 1.357-3.032 3.032-3.032zm0 1.32c-.946 0-1.712.767-1.712 1.712 0 .946.766 1.712 1.712 1.712.945 0 1.712-.766 1.712-1.712 0-.945-.767-1.712-1.712-1.712zm19.585-.222c.034.326-.175.622-.482.705l-.105.02-13.449 1.414c-.362.038-.687-.225-.725-.588-.035-.326.175-.622.482-.705l.105-.02 13.449-1.413c.362-.039.687.224.725.587zm-3.781-19.271c.826-.087 1.565.512 1.652 1.338l1.394 13.262c.087.826-.512 1.565-1.338 1.652l-13.262 1.394c-.826.087-1.566-.512-1.652-1.338l-1.394-13.262c-.087-.826.512-1.565 1.338-1.652zM15.19 13.83l.03.234 1.403 13.348c.038.363-.225.687-.587.726-.326.034-.622-.176-.706-.482l-.02-.106-1.402-13.348c-.199-1.886-1.837-3.272-3.708-3.18l-.201.015-2.157.226c-.363.038-.687-.225-.725-.587-.035-.326.175-.622.481-.706l.106-.02 2.157-.226c2.6-.273 4.936 1.55 5.329 4.106zm17.259-1.083l-5.853.614.36 3.27c.04.363-.222.689-.585.729-.326.035-.622-.173-.707-.479l-.02-.105-.36-3.277-6.097.642c-.08.008-.144.067-.16.142l-.004.059 1.394 13.262c.011.1.101.174.202.163l13.262-1.394c.1-.01.174-.1.163-.201L32.651 12.91c-.01-.1-.1-.174-.201-.163z" transform="translate(-540 -250) translate(495 100) translate(1 146) translate(39) translate(5 4)"/>
                        </g>
                    </g>
                </g>
            </g>
        </g>
    </g>
</svg>
