<svg xmlns="http://www.w3.org/2000/svg" id="Icon_24_Document_Line_24" width="24" height="24" viewBox="0 0 24 24">
    <defs>
        <style>
            .cls-2{fill:#333}
        </style>
    </defs>
    <g id="Icon_24_Document_Line_24-2" transform="translate(-142 -62)">
        <path id="guidebox" fill="none" d="M0 0H24V24H0z" transform="translate(142 62)"/>
        <g id="Group_18" transform="translate(-1554.02 -215.282)">
            <g id="Rectangle">
                <path id="패스_50" d="M1708.494 297.41h-5.8a1.843 1.843 0 0 1-1.66-2.021v-12.151a1.81 1.81 0 0 1 1.584-1.951h9.681a1.839 1.839 0 0 1 1.661 2.019v5.969a.6.6 0 1 1-1.2 0v-6.032a.657.657 0 0 0-.545-.762l-9.521.006a.631.631 0 0 0-.467.693v12.277a.659.659 0 0 0 .545.763l5.72-.006a.6.6 0 0 1 0 1.2z" class="cls-2"/>
            </g>
            <g id="패스_46">
                <path id="패스_51" d="M1710.918 295.759a.6.6 0 0 1-.424-.176l-1.621-1.621a.6.6 0 0 1 .848-.849l1.193 1.193 2.976-3.03a.6.6 0 1 1 .855.841l-3.4 3.462a.6.6 0 0 1-.425.18z" class="cls-2"/>
            </g>
            <g id="패스_47">
                <path id="패스_52" d="M1710.851 285.4h-6.716a.6.6 0 0 1 0-1.2h6.716a.6.6 0 0 1 0 1.2z" class="cls-2"/>
            </g>
            <g id="패스_48">
                <path id="패스_53" d="M1710.851 288.162h-6.716a.6.6 0 0 1 0-1.2h6.716a.6.6 0 0 1 0 1.2z" class="cls-2"/>
            </g>
            <g id="패스_49">
                <path id="패스_54" d="M1708.681 290.923h-4.546a.6.6 0 0 1 0-1.2h4.546a.6.6 0 0 1 0 1.2z" class="cls-2"/>
            </g>
        </g>
    </g>
</svg>
