<svg xmlns="http://www.w3.org/2000/svg" width="20" height="20" viewBox="0 0 20 20">
    <g fill="none" fill-rule="evenodd">
        <g>
            <g>
                <g>
                    <g>
                        <g>
                            <g fill="#333">
                                <path d="M6.904 1.358c.91.606 1.479 1.601 1.546 2.684l.007.218v1.883c0 .06-.009.117-.025.172 1.163.412 1.997 1.523 1.997 2.828v2.571c0 1.657-1.344 3-3 3H3.143c-1.657 0-3-1.343-3-3V9.143c0-1.305.833-2.416 1.997-2.828-.008-.024-.014-.05-.018-.075l-.008-.097V4.26c0-1.166.583-2.255 1.553-2.902.98-.653 2.257-.653 3.237 0zm.525 5.985H3.143c-.945 0-1.72.727-1.794 1.652l-.006.148v2.571c0 .945.727 1.72 1.652 1.794l.148.006h4.286c.944 0 1.719-.727 1.794-1.652l.006-.148V9.143c0-.945-.728-1.72-1.653-1.794l-.147-.006zM4.333 2.356c-.588.392-.958 1.03-1.012 1.728l-.007.176v1.883h3.943V4.26c0-.765-.382-1.48-1.018-1.904-.577-.384-1.33-.384-1.906 0z" transform="translate(-145 -1381) translate(0 1191) translate(16 168) translate(22) translate(107 22) translate(5 2)"/>
                            </g>
                        </g>
                    </g>
                </g>
            </g>
        </g>
    </g>
</svg>
