<svg xmlns="http://www.w3.org/2000/svg" width="24" height="24" viewBox="0 0 24 24">
    <g fill="none" fill-rule="evenodd">
        <path d="M0 0H24V24H0z"/>
        <path fill="#333333" d="M14.8 11.35c2.402 0 4.35 1.948 4.35 4.35v2.35c0 1.105-.895 2-2 2H6.85c-1.105 0-2-.895-2-2V15.7c0-2.402 1.948-4.35 4.35-4.35h5.6zm-3.4 1.2H9.2c-1.68 0-3.052 1.315-3.145 2.971l-.005.179v2.35c0 .408.305.744.7.794l.1.006h10.3c.408 0 .744-.305.794-.7l.006-.1V15.7c0-1.68-1.315-3.052-2.971-3.145l-.179-.005h-2.2v.897c0 .332-.269.6-.6.6-.298 0-.546-.217-.592-.502l-.008-.098v-.897zm.6 2.1c.298 0 .546.218.592.503l.008.097v2.15c0 .331-.269.6-.6.6-.298 0-.546-.218-.592-.503L11.4 17.4v-2.15c0-.331.269-.6.6-.6zm0-11.2c1.96 0 3.55 1.59 3.55 3.55 0 1.96-1.59 3.55-3.55 3.55-1.96 0-3.55-1.59-3.55-3.55 0-1.96 1.59-3.55 3.55-3.55zm0 1.2c-1.298 0-2.35 1.052-2.35 2.35S10.702 9.35 12 9.35 14.35 8.298 14.35 7 13.298 4.65 12 4.65z"/>
    </g>
</svg>
