<svg xmlns="http://www.w3.org/2000/svg" width="24" height="24" viewBox="0 0 24 24">
    <g fill="none" fill-rule="evenodd">
        <path fill="#333333" d="M18 5c1.105 0 2 .895 2 2v10c0 1.105-.895 2-2 2h-3.693l-1.293 1.293c-.39.39-1.024.39-1.415 0L10.307 19H6c-1.105 0-2-.895-2-2V7c0-1.105.895-2 2-2h12zm0 1.2H6c-.408 0-.744.305-.794.7L5.2 7v10c0 .408.305.744.7.794l.1.006h4.307c.272 0 .536.093.747.261l.101.09 1.151 1.152 1.152-1.152c.193-.192.445-.313.713-.343l.136-.008H18c.408 0 .744-.305.794-.7l.006-.1V7c0-.408-.305-.744-.7-.794L18 6.2zM9 11c.442 0 .8.358.8.8 0 .442-.358.8-.8.8-.442 0-.8-.358-.8-.8 0-.442.358-.8.8-.8zm3 0c.442 0 .8.358.8.8 0 .442-.358.8-.8.8-.442 0-.8-.358-.8-.8 0-.442.358-.8.8-.8zm3 0c.442 0 .8.358.8.8 0 .442-.358.8-.8.8-.442 0-.8-.358-.8-.8 0-.442.358-.8.8-.8z"/>
    </g>
</svg>
