<svg xmlns="http://www.w3.org/2000/svg" width="24" height="24" viewBox="0 0 24 24">
    <g fill="none" fill-rule="evenodd">
        <path d="M0 0H24V24H0z"/>
        <path fill="#333333" d="M19.399 17.1c.452 0 .73.474.54.86l-.047.082-1.315 1.895c-.188.272-.562.34-.835.151-.245-.17-.324-.49-.2-.75l.05-.085.662-.953h-5.062c-.298 0-.546-.218-.592-.503l-.008-.097c0-.298.217-.546.503-.592l.097-.008h6.207zM18.2 6.1c.944 0 1.719.727 1.794 1.652L20 7.9v4.7c0 .331-.269.6-.6.6-.298 0-.546-.218-.592-.503L18.8 12.6l-.001-2.701H5.2V16.5c0 .298.218.546.503.592l.097.008h4.7c.331 0 .6.269.6.6 0 .298-.218.546-.503.592l-.097.008H5.8c-.944 0-1.719-.727-1.794-1.652L4 16.5V7.9c0-.944.727-1.719 1.652-1.794L5.8 6.1h12.4zm-3.35 6.812c.244.17.324.49.2.75l-.05.085-.661.952 5.061.001c.298 0 .546.218.592.503L20 15.3c0 .298-.218.546-.503.592l-.097.008h-6.207c-.452 0-.73-.474-.541-.86l.048-.082 1.314-1.895c.19-.272.563-.34.835-.151zM18.2 7.3H5.8c-.298 0-.546.218-.592.503L5.2 7.9v.799h13.599L18.8 7.9c0-.298-.218-.546-.503-.592L18.2 7.3z"/>
    </g>
</svg>
