<svg xmlns="http://www.w3.org/2000/svg" width="24" height="24" viewBox="0 0 24 24">
    <g fill="none" fill-rule="evenodd">
        <path d="M0 0H24V24H0z"/>
        <path fill="#333333" d="M6.98 12.12c.331 0 .6.27.6.6 0 .299-.218.546-.503.593l-.097.007H5.667l2.877 2.877c.405.405.94.65 1.507.695l.19.008h7.508c.728 0 1.326-.555 1.394-1.265l.006-.135v-1.78c0-.33.269-.6.6-.6.298 0 .546.218.592.503l.008.097v1.78c0 1.38-1.076 2.51-2.435 2.595l-.165.005h-7.508c-.882 0-1.73-.323-2.386-.904l-.16-.15L4.85 14.2l.001 1.25c0 .331-.269.6-.6.6-.298 0-.546-.218-.592-.503l-.008-.097v-2.73c0-.33.269-.6.6-.6h2.73zm7.179-6.22c.95 0 1.86.376 2.532 1.041l.15.159 2.307 2.577V8.25c0-.331.269-.6.6-.6.298 0 .546.218.592.503l.008.097v3.03c0 .298-.217.545-.502.592l-.098.008H16.72c-.331 0-.6-.27-.6-.6 0-.299.218-.546.503-.593l.097-.007 1.713-.001-2.486-2.78c-.413-.462-.989-.744-1.603-.792L14.16 7.1h-7.91c-.728 0-1.326.555-1.393 1.265l-.007.135v1.48c0 .33-.269.6-.6.6-.298 0-.546-.218-.592-.503l-.008-.097V8.5c0-1.38 1.076-2.51 2.436-2.595l.164-.005h7.91z"/>
    </g>
</svg>
