<svg xmlns="http://www.w3.org/2000/svg" width="24" height="24" viewBox="0 0 24 24">
    <g fill="none" fill-rule="evenodd">
        <path d="M0 0H24V24H0z"/>
        <path fill="#333333" d="M16.748 4.6c.665 0 1.255.41 1.492 1.022l.045.135 1.056 3.662c.138.476.22.965.249 1.458l.01.371v7.202c0 .835-.639 1.52-1.454 1.593L18 20.05H6.006c-.835 0-1.52-.639-1.594-1.456l-.006-.146.04-7.247c.002-.47.055-.938.157-1.395l.085-.342 1.03-3.694c.18-.645.741-1.105 1.399-1.164l.142-.006h9.489zm1.633 6.2H5.663l-.012.203-.005.204-.04 7.24c0 .196.137.358.319.395l.08.008H18c.193 0 .355-.137.392-.32l.008-.08v-7.202c0-.15-.006-.3-.019-.449zm-8.126 1.798l3.5.018c.276.001.499.226.498.503-.002.276-.227.498-.503.497l-3.5-.018c-.276-.002-.499-.227-.497-.503.001-.276.226-.499.502-.497zM11.4 5.799L7.26 5.8c-.155 0-.292.088-.359.222l-.027.07L5.896 9.6H11.4v-3.8zm1.2 0v3.8h5.544l-1.012-3.51c-.042-.147-.164-.254-.31-.282l-.074-.007-4.148-.001z"/>
    </g>
</svg>
