<svg xmlns="http://www.w3.org/2000/svg" width="36" height="36" viewBox="0 0 36 36">
    <g fill="none" fill-rule="evenodd">
        <path fill="#333333" d="M27 9.5c1.657 0 3 1.343 3 3v11c0 1.657-1.343 3-3 3h-5.54l-1.94 1.94c-.585.585-1.535.585-2.12 0l-1.94-1.94H9c-1.657 0-3-1.343-3-3v-11c0-1.657 1.343-3 3-3h18zm0 1.5H9c-.78 0-1.42.595-1.493 1.356L7.5 12.5v11c0 .78.595 1.42 1.356 1.493L9 25h6.46c.348 0 .684.121.95.34l.11.1 1.94 1.939 1.94-1.94c.245-.246.568-.398.912-.432L21.46 25H27c.78 0 1.42-.595 1.493-1.356l.007-.144v-11c0-.78-.595-1.42-1.356-1.493L27 11zm-13.12 6.2c.552 0 1 .448 1 1s-.448 1-1 1-1-.448-1-1 .448-1 1-1zm4.4 0c.552 0 1 .448 1 1s-.448 1-1 1-1-.448-1-1 .448-1 1-1zm4.4 0c.552 0 1 .448 1 1s-.448 1-1 1-1-.448-1-1 .448-1 1-1z"/>
    </g>
</svg>
