<svg xmlns="http://www.w3.org/2000/svg" width="18" height="18" viewBox="0 0 18 18">
    <g fill="none" fill-rule="evenodd">
        <path d="M0 0H18V18H0z"/>
        <path fill="#80C342" d="M9 0c4.97 0 9 4.03 9 9s-4.03 9-9 9-9-4.03-9-9 4.03-9 9-9zm4.555 10.416c-.212-.13-.489-.063-.619.149-.948 1.549-2.244 2.305-3.936 2.305-1.692 0-2.988-.756-3.936-2.305-.13-.212-.407-.279-.619-.149-.212.13-.279.407-.149.619C5.406 12.846 6.99 13.77 9 13.77c2.011 0 3.595-.924 4.704-2.735.13-.212.063-.489-.149-.619zM5.76 6.12c-.596 0-1.08.484-1.08 1.08 0 .596.484 1.08 1.08 1.08.596 0 1.08-.484 1.08-1.08 0-.596-.484-1.08-1.08-1.08zm6.48 0c-.596 0-1.08.484-1.08 1.08 0 .596.484 1.08 1.08 1.08.596 0 1.08-.484 1.08-1.08 0-.596-.484-1.08-1.08-1.08z"/>
    </g>
</svg>
