<svg xmlns="http://www.w3.org/2000/svg" width="24" height="24" viewBox="0 0 24 24">
    <g fill="none" fill-rule="evenodd">
        <path d="M0 0H24V24H0z"/>
        <path fill="#333333" d="M11.895 3.3c4.748 0 8.596 3.848 8.596 8.595 0 4.748-3.848 8.596-8.596 8.596-4.747 0-8.595-3.848-8.595-8.596C3.3 7.148 7.148 3.3 11.895 3.3zm0 1.2C7.811 4.5 4.5 7.811 4.5 11.895c0 4.085 3.311 7.396 7.395 7.396 4.085 0 7.396-3.311 7.396-7.396 0-4.084-3.311-7.395-7.396-7.395zm-.415 4.261l.022-.02.042-.033.032-.022c.016-.01.031-.018.047-.026l.048-.022.03-.011c.026-.009.044-.014.063-.018l-.063.018c.033-.012.067-.02.1-.025.018-.003.037-.005.056-.006l.034-.002h.01c.01 0 .021 0 .032.002.02 0 .04.003.058.006h.004l.037.008.05.014.008.003.035.013.043.02-.078-.033c.044.015.086.035.124.06.012.006.023.014.033.021l.042.033.022.02.018.018.02.022.033.042.022.032.02.036.006.011.022.048.011.03 1.378 4.025L15.217 9c.097-.282.383-.446.668-.397l.094.024c.283.096.446.382.398.667l-.024.095-1.945 5.684c-.174.507-.857.539-1.094.095l-.041-.095-1.378-4.025-1.377 4.025c-.173.507-.857.539-1.094.095l-.041-.095-1.945-5.684c-.107-.314.06-.655.374-.762.282-.097.586.029.723.284l.038.09 1.377 4.026L11.328 9l.011-.03.022-.048-.033.078c.015-.044.035-.086.06-.125l.021-.032.033-.042.02-.022.018-.018z"/>
    </g>
</svg>
