<svg xmlns="http://www.w3.org/2000/svg" width="80" height="80" viewBox="0 0 80 80">
    <defs>
        <style>
            .cls-3{fill:#d6d6d6}.cls-7{fill:#80c342}
        </style>
    </defs>
    <g id="icon64_member_line_2" transform="translate(4 -.5)">
        <g id="Group" transform="translate(12.279 12.667)">
            <path id="Combined_Shape" fill="#858585" d="M5.406 54.229a5.491 5.491 0 0 1-5.4-5.329L0 48.635V5.594A5.512 5.512 0 0 1 5.152.006L5.406 0h21.046a5.492 5.492 0 0 1 5.4 5.331l.005.263v18.239H30.4V5.594a4.056 4.056 0 0 0-3.723-4.127l-.224-.007H5.406a4.032 4.032 0 0 0-3.941 3.9l-.006.235v43.04a4.059 4.059 0 0 0 3.724 4.128l.223.006h21.718v1.459zm4.748-49.244a.912.912 0 1 1 0-1.823h11.551a.912.912 0 0 1 0 1.823z"/>
            <g id="new" transform="translate(4.097 34.046)">
                <rect id="사각형_18" width="26.824" height="11.349" class="cls-3" rx="5.674"/>
                <text id="new-2" fill="#fff" font-family="Lato-Regular, Lato" font-size="7px" transform="translate(4.19 8.063)">
                    <tspan x="0" y="0">NEW</tspan>
                </text>
            </g>
            <g id="Group_2" transform="translate(23.833 21.401)">
                <path id="Path" fill="#80c342" stroke="rgba(0,0,0,0)" stroke-miterlimit="10" d="M19.456 0A3.648 3.648 0 0 1 23.1 3.648v12.16a3.648 3.648 0 0 1-3.648 3.648H3.648A3.648 3.648 0 0 1 0 15.808V3.648A3.648 3.648 0 0 1 3.648 0z" transform="translate(0 13.376)"/>
                <path id="Path-2" fill="#fff" stroke="rgba(0,0,0,0)" stroke-miterlimit="10" d="M18 0H2.189A2.189 2.189 0 0 0 .007 2.009L0 2.189v12.16a2.189 2.189 0 0 0 2.009 2.181l.18.007H18a2.189 2.189 0 0 0 2.182-2.009l.007-.18V2.189A2.189 2.189 0 0 0 18.176.007z" transform="translate(1.459 14.836)"/>
                <path id="Rectangle-2" d="M13.376 14.8H0V6.688a6.688 6.688 0 1 1 13.376 0V14.8zM6.688 1.459a5.221 5.221 0 0 0-5.223 4.976l-.007.253v6.652h10.459V6.688a5.22 5.22 0 0 0-4.975-5.223z" class="cls-7" transform="translate(4.864)"/>
                <path id="Combined_Shape-2" d="M2.3 8.512a.6.6 0 0 1-.6-.6v-3.16a2.432 2.432 0 1 1 1.459 0v3.16a.6.6 0 0 1-.6.6z" class="cls-7" transform="translate(9.12 19.456)"/>
            </g>
            <path id="Combined_Shape-3" d="M9.112 19.455a.6.6 0 0 1-.6-.6v-1.231a.6.6 0 0 1 .6-.6h10.96a.6.6 0 0 1 .6.6v1.232a.6.6 0 0 1-.6.6zm-8.112 0a1 1 0 0 1-1-1v-5.3a1 1 0 0 1 1-1h5.3a1 1 0 0 1 1 1v5.3a1 1 0 0 1-1 1zm8.112-4.864a.6.6 0 0 1-.6-.6V12.76a.6.6 0 0 1 .6-.6h10.96a.6.6 0 0 1 .6.6v1.231a.6.6 0 0 1-.6.6zm0-7.3a.6.6 0 0 1-.6-.6V5.464a.6.6 0 0 1 .6-.6h10.96a.6.6 0 0 1 .6.6V6.7a.6.6 0 0 1-.6.6zM1 7.3a1 1 0 0 1-1-1V1a1 1 0 0 1 1-1h5.3a1 1 0 0 1 1 1v5.3a1 1 0 0 1-1 1zm8.112-4.868a.6.6 0 0 1-.6-.6V.6a.6.6 0 0 1 .6-.6h10.96a.6.6 0 0 1 .6.6v1.232a.6.6 0 0 1-.6.6z" class="cls-3" transform="translate(5.593 10.457)"/>
        </g>
    </g>
</svg>
