<?xml version="1.0" encoding="utf-8"?>
<!-- Generator: Adobe Illustrator 25.4.0, SVG Export Plug-In . SVG Version: 6.00 Build 0)  -->
<svg version="1.1" id="레이어_1" xmlns="http://www.w3.org/2000/svg" xmlns:xlink="http://www.w3.org/1999/xlink" x="0px"
	 y="0px" viewBox="0 0 250 350" style="enable-background:new 0 0 250 350;" xml:space="preserve">
<path style="fill:#7BC423;" d="M180.3,45.6c4.4-0.5,7.6-4.4,7.1-8.8c-0.4-4.4-4.4-7.6-8.8-7.1c-4.4,0.5-7.6,4.4-7.1,8.8
	C172,42.9,175.9,46.1,180.3,45.6"/>
<path style="fill:#7BC423;" d="M153.9,51.3c4.2-1.4,6.5-5.9,5.1-10.1s-5.9-6.5-10.1-5.2c-4.2,1.4-6.5,5.9-5.1,10.1
	C145.2,50.3,149.7,52.7,153.9,51.3"/>
<path style="fill:#7BC423;" d="M129.2,62.3c3.8-2.2,5.1-7.1,2.9-11c-2.2-3.8-7.1-5.2-10.9-2.9c-3.8,2.2-5.1,7.1-2.9,11
	C120.5,63.2,125.4,64.5,129.2,62.3"/>
<path style="fill:#7BC423;" d="M107.3,78.3c3.3-3,3.5-8,0.6-11.3c-3-3.3-8-3.6-11.3-0.6c-3.3,3-3.5,8-0.6,11.3
	C99,81,104.1,81.3,107.3,78.3"/>
<path style="fill:#7BC423;" d="M89.3,98.5c2.6-3.6,1.8-8.6-1.8-11.2c-3.6-2.6-8.6-1.8-11.2,1.8c-2.6,3.6-1.8,8.6,1.8,11.2
	C81.7,102.8,86.7,102,89.3,98.5"/>
<path style="fill:#7BC423;" d="M75.8,122c1.8-4.1,0-8.8-4-10.6c-4-1.8-8.8,0-10.5,4.1c-1.8,4,0,8.8,4,10.6
	C69.3,127.8,74,126,75.8,122"/>
<path style="fill:#7BC423;" d="M67.4,147.8c0.9-4.3-1.8-8.6-6.1-9.5c-4.3-0.9-8.5,1.8-9.5,6.2c-0.9,4.3,1.8,8.6,6.1,9.5
	C62.3,154.9,66.5,152.1,67.4,147.8"/>
<path style="fill:#7BC423;" d="M64.6,174.8c0-4.4-3.6-8-8-8c-4.4,0-8,3.6-8,8c0,4.4,3.6,8,8,8C61,182.8,64.6,179.2,64.6,174.8"/>
<path style="fill:#7BC423;" d="M67.4,201.8c-0.9-4.3-5.1-7.1-9.5-6.2c-4.3,0.9-7.1,5.2-6.1,9.5c0.9,4.3,5.2,7.1,9.5,6.2
	C65.6,210.4,68.3,206.1,67.4,201.8"/>
<path style="fill:#7BC423;" d="M75.8,227.6c-1.8-4-6.5-5.9-10.5-4.1c-4,1.8-5.8,6.5-4.1,10.6c1.8,4,6.5,5.9,10.6,4.1
	C75.8,236.4,77.6,231.7,75.8,227.6"/>
<path style="fill:#7BC423;" d="M89.3,251.1c-2.6-3.6-7.6-4.4-11.2-1.8c-3.6,2.6-4.4,7.6-1.8,11.2c2.6,3.6,7.6,4.4,11.2,1.8
	C91.1,259.7,91.9,254.7,89.3,251.1"/>
<path style="fill:#7BC423;" d="M107.3,271.3c-3.3-3-8.3-2.7-11.3,0.6c-3,3.3-2.7,8.4,0.6,11.3c3.3,3,8.3,2.7,11.3-0.6
	C110.9,279.4,110.6,274.3,107.3,271.3"/>
<path style="fill:#7BC423;" d="M129.2,287.3c-3.8-2.2-8.7-0.9-10.9,2.9c-2.2,3.8-0.9,8.7,2.9,11c3.8,2.2,8.7,0.9,10.9-2.9
	C134.3,294.4,133,289.5,129.2,287.3"/>
<path style="fill:#7BC423;" d="M153.9,298.3c-4.2-1.4-8.7,0.9-10.1,5.1c-1.4,4.2,0.9,8.8,5.1,10.1c4.2,1.4,8.7-0.9,10.1-5.1
	C160.4,304.2,158.1,299.7,153.9,298.3"/>
<path style="fill:#7BC423;" d="M180.3,304c-4.4-0.5-8.3,2.7-8.8,7.1c-0.5,4.4,2.7,8.4,7.1,8.8c4.4,0.5,8.3-2.7,8.8-7.1
	C187.9,308.4,184.7,304.4,180.3,304"/>
<path style="fill:#7BC423;" d="M193.8,72.5c4.4,0,8-3.6,8-8c0-4.4-3.6-8-8-8c-4.4,0-8,3.6-8,8C185.8,68.9,189.4,72.5,193.8,72.5"/>
<path style="fill:#7BC423;" d="M167.5,76c4.3-1.1,6.8-5.5,5.6-9.8c-1.1-4.3-5.5-6.8-9.8-5.7c-4.3,1.1-6.8,5.6-5.6,9.8
	C158.8,74.6,163.2,77.1,167.5,76"/>
<path style="fill:#7BC423;" d="M142.9,86.2c3.8-2.2,5.1-7.1,2.9-11c-2.2-3.8-7.1-5.1-10.9-2.9c-3.8,2.2-5.1,7.1-2.9,11
	C134.2,87.1,139.1,88.4,142.9,86.2"/>
<path style="fill:#7BC423;" d="M121.8,102.5c3.1-3.1,3.1-8.2,0-11.3c-3.1-3.1-8.2-3.1-11.3,0c-3.1,3.1-3.1,8.2,0,11.3
	C113.7,105.6,118.7,105.6,121.8,102.5"/>
<path style="fill:#7BC423;" d="M105.7,123.7c2.2-3.8,0.9-8.8-2.9-11c-3.8-2.2-8.7-0.9-10.9,2.9c-2.2,3.8-0.9,8.7,2.9,11
	C98.6,128.8,103.5,127.5,105.7,123.7"/>
<path style="fill:#7BC423;" d="M95.5,148.3c1.1-4.3-1.4-8.7-5.6-9.8c-4.3-1.1-8.6,1.4-9.8,5.7c-1.1,4.3,1.4,8.7,5.7,9.8
	C90,155.1,94.4,152.6,95.5,148.3"/>
<path style="fill:#7BC423;" d="M92,174.8c0-4.4-3.6-8-8-8c-4.4,0-8,3.6-8,8c0,4.4,3.6,8,8,8C88.5,182.8,92,179.2,92,174.8"/>
<path style="fill:#7BC423;" d="M95.5,201.3c-1.1-4.3-5.5-6.8-9.8-5.7c-4.3,1.1-6.8,5.6-5.7,9.8c1.2,4.3,5.5,6.8,9.8,5.7
	C94.1,210,96.6,205.6,95.5,201.3"/>
<path style="fill:#7BC423;" d="M105.7,225.9c-2.2-3.8-7.1-5.1-10.9-2.9c-3.8,2.2-5.1,7.1-2.9,11c2.2,3.8,7.1,5.2,10.9,3
	C106.6,234.7,107.9,229.8,105.7,225.9"/>
<path style="fill:#7BC423;" d="M121.8,247.1c-3.1-3.1-8.2-3.1-11.3,0c-3.1,3.1-3.1,8.2,0,11.3c3.1,3.1,8.2,3.1,11.3,0
	C125,255.3,125,250.3,121.8,247.1"/>
<path style="fill:#7BC423;" d="M142.9,263.4c-3.8-2.2-8.7-0.9-10.9,2.9c-2.2,3.8-0.9,8.8,2.9,11c3.8,2.2,8.7,0.9,10.9-2.9
	C148,270.5,146.7,265.6,142.9,263.4"/>
<path style="fill:#7BC423;" d="M167.5,273.6c-4.3-1.1-8.6,1.4-9.8,5.7c-1.1,4.3,1.4,8.7,5.6,9.8c4.3,1.1,8.6-1.4,9.8-5.7
	C174.2,279.2,171.7,274.7,167.5,273.6"/>
<path style="fill:#7BC423;" d="M193.8,277.1c-4.4,0-8,3.6-8,8c0,4.4,3.6,8,8,8c4.4,0,8-3.6,8-8C201.8,280.7,198.2,277.1,193.8,277.1
	"/>
<path style="fill:#7BC423;" d="M180.9,101.2c4.3-0.8,7.3-4.9,6.5-9.3c-0.8-4.4-4.9-7.3-9.2-6.5c-4.3,0.8-7.2,4.9-6.5,9.3
	C172.4,99.1,176.6,102,180.9,101.2"/>
<path style="fill:#7BC423;" d="M156.6,110.1c3.8-2.2,5.1-7.1,2.9-11c-2.2-3.8-7.1-5.2-10.9-2.9c-3.8,2.2-5.1,7.1-2.9,11
	C147.9,111,152.8,112.3,156.6,110.1"/>
<path style="fill:#7BC423;" d="M136.9,126.8c2.8-3.4,2.4-8.5-1-11.3c-3.4-2.8-8.4-2.4-11.3,1c-2.8,3.4-2.4,8.5,1,11.3
	C129,130.6,134,130.2,136.9,126.8"/>
<path style="fill:#7BC423;" d="M123.9,149.2c1.5-4.2-0.6-8.8-4.8-10.3c-4.2-1.5-8.7,0.6-10.2,4.8c-1.5,4.2,0.6,8.8,4.8,10.3
	C117.9,155.6,122.4,153.4,123.9,149.2"/>
<path style="fill:#7BC423;" d="M119.5,174.8c0-4.4-3.6-8-8-8c-4.4,0-8,3.6-8,8c0,4.4,3.6,8,8,8C115.9,182.8,119.5,179.2,119.5,174.8
	"/>
<path style="fill:#7BC423;" d="M123.9,200.4c-1.5-4.2-6.1-6.3-10.2-4.8c-4.1,1.5-6.3,6.1-4.8,10.3c1.5,4.2,6.1,6.3,10.2,4.8
	C123.3,209.1,125.5,204.5,123.9,200.4"/>
<path style="fill:#7BC423;" d="M136.9,222.8c-2.8-3.4-7.9-3.8-11.2-1c-3.4,2.8-3.8,7.9-1,11.3c2.8,3.4,7.9,3.8,11.3,1
	C139.3,231.3,139.7,226.2,136.9,222.8"/>
<path style="fill:#7BC423;" d="M156.6,239.5c-3.8-2.2-8.7-0.9-10.9,2.9c-2.2,3.8-0.9,8.7,2.9,11c3.8,2.2,8.7,0.9,10.9-2.9
	C161.8,246.6,160.4,241.7,156.6,239.5"/>
<path style="fill:#7BC423;" d="M180.9,248.4c-4.3-0.8-8.5,2.1-9.3,6.5c-0.8,4.4,2.1,8.5,6.5,9.3c4.4,0.8,8.5-2.2,9.2-6.5
	C188.1,253.3,185.2,249.1,180.9,248.4"/>
<path style="fill:#7BC423;" d="M193.8,127.7c4.4,0,8-3.6,8-8c0-4.4-3.6-8-8-8c-4.4,0-8,3.6-8,8C185.8,124.1,189.4,127.7,193.8,127.7
	"/>
<path style="fill:#7BC423;" d="M170.4,134c3.8-2.2,5.1-7.1,2.9-11c-2.2-3.8-7.1-5.2-10.9-2.9c-3.8,2.2-5.1,7.1-2.9,11
	C161.6,134.9,166.5,136.2,170.4,134"/>
<path style="fill:#7BC423;" d="M153.2,151.2c2.2-3.8,0.9-8.8-2.9-11c-3.8-2.2-8.7-0.9-10.9,2.9c-2.2,3.8-0.9,8.8,2.9,11
	C146.1,156.4,151,155.1,153.2,151.2"/>
<path style="fill:#7BC423;" d="M146.9,174.8c0-4.4-3.6-8-8-8c-4.4,0-8,3.6-8,8c0,4.4,3.6,8,8,8C143.3,182.8,146.9,179.2,146.9,174.8
	"/>
<path style="fill:#7BC423;" d="M153.2,198.4c-2.2-3.8-7.1-5.1-10.9-2.9c-3.8,2.2-5.1,7.1-2.9,11c2.2,3.8,7.1,5.2,10.9,2.9
	C154.1,207.1,155.4,202.2,153.2,198.4"/>
<path style="fill:#7BC423;" d="M170.4,215.6c-3.8-2.2-8.7-0.9-10.9,2.9c-2.2,3.8-0.9,8.7,2.9,11c3.8,2.2,8.7,0.9,10.9-2.9
	C175.5,222.7,174.2,217.8,170.4,215.6"/>
<path style="fill:#7BC423;" d="M193.8,221.9c-4.4,0-8,3.6-8,8c0,4.4,3.6,8,8,8c4.4,0,8-3.6,8-8C201.8,225.5,198.2,221.9,193.8,221.9
	"/>
<path style="fill:#7BC423;" d="M185.8,174.8c0,4.4,3.6,8,8,8c4.4,0,8-3.6,8-8c0-4.4-3.6-8-8-8C189.4,166.8,185.8,170.4,185.8,174.8"
	/>
<path style="fill:#7BC423;" d="M184.1,157.9c3.8-2.2,5.1-7.1,2.9-11c-2.2-3.8-7.1-5.2-10.9-2.9c-3.8,2.2-5.1,7.1-2.9,11
	C175.4,158.8,180.2,160.1,184.1,157.9"/>
<path style="fill:#7BC423;" d="M174.3,174.8c0-4.4-3.6-8-8-8c-4.4,0-8,3.6-8,8c0,4.4,3.6,8,8,8C170.8,182.8,174.3,179.2,174.3,174.8
	"/>
<path style="fill:#7BC423;" d="M184.1,191.7c-3.8-2.2-8.7-0.9-10.9,2.9c-2.2,3.8-0.9,8.8,2.9,11c3.8,2.2,8.7,0.9,10.9-2.9
	C189.2,198.9,187.9,194,184.1,191.7"/>
<g>
</g>
<g>
</g>
<g>
</g>
<g>
</g>
<g>
</g>
<g>
</g>
</svg>
