<svg xmlns="http://www.w3.org/2000/svg" xmlns:xlink="http://www.w3.org/1999/xlink" width="46" height="46" viewBox="0 0 46 46">
    <defs>
        <path id="da7x3q93za" d="M0 0L28.85 0 28.85 30.849 0 30.849z"/>
        <path id="buwqgc21nb" d="M4.997-6.617c-4.368 0-5.951.455-7.548 1.308-1.596.854-2.85 2.107-3.703 3.704-.854 1.596-1.309 3.18-1.309 7.547v18.882c0 4.367.455 5.95 1.309 7.547.854 1.596 2.107 2.85 3.703 3.703 1.597.854 3.18 1.309 7.548 1.309h18.882c4.367 0 5.95-.455 7.547-1.309 1.596-.854 2.85-2.107 3.703-3.703.854-1.597 1.309-3.18 1.309-7.547V5.942c0-4.367-.455-5.95-1.31-7.547-.853-1.597-2.106-2.85-3.702-3.704-1.597-.853-3.18-1.308-7.547-1.308H4.997z"/>
        <linearGradient id="b28dd0bc3c" x1="99.762%" x2=".95%" y1="99.762%" y2=".95%">
            <stop offset="0%" stop-color="#23AE26"/>
            <stop offset="100%" stop-color="#6EE12D"/>
        </linearGradient>
    </defs>
    <g fill="none" fill-rule="evenodd">
        <g>
            <g>
                <g>
                    <g>
                        <g transform="translate(-35 -544) translate(16 521) translate(20 24) translate(7 6) translate(.563 .617)">
                            <mask id="bne4akvadd" fill="#fff">
                                <use xlink:href="#buwqgc21nb"/>
                            </mask>
                            <path fill="url(#b28dd0bc3c)" d="M4.997-6.617c-4.368 0-5.951.455-7.548 1.308-1.596.854-2.85 2.107-3.703 3.704-.854 1.596-1.309 3.18-1.309 7.547v18.882c0 4.367.455 5.95 1.309 7.547.854 1.596 2.107 2.85 3.703 3.703 1.597.854 3.18 1.309 7.548 1.309h18.882c4.367 0 5.95-.455 7.547-1.309 1.596-.854 2.85-2.107 3.703-3.703.854-1.597 1.309-3.18 1.309-7.547V5.942c0-4.367-.455-5.95-1.31-7.547-.853-1.597-2.106-2.85-3.702-3.704-1.597-.853-3.18-1.308-7.547-1.308H4.997z" mask="url(#bne4akvadd)"/>
                            <g fill="#FFF" mask="url(#bne4akvadd)">
                                <path d="M23.4 16.715c-.162-.399-.557-.915-1.523-1.05-.331-.032-.87-.018-.87-.018-.314.013-1.28.057-2.628.118l.003-.06c.07-1.09.137-2.048.187-2.64.082-.935.18-2.101.279-3.355h2.137s1.038.018 1.763-.417c.024-.015.124-.078.193-.13.294-.224.524-.551.582-1.029.006-.044.008-.084.009-.123-.014-.674-1.12-.769-1.328-.78l-3.165-.147.324-4.648.044-.787c.02-.405.033-.857-.114-1.117C19.18.33 18.997.3 18.827.28c-.686-.082-1.459-.115-2.051.74-.534.77-.715 1.642-.874 2.79-.036.26-.105.87-.179 1.551l-.138 1.564-6.52-.299.252-2.849c.11-1.296.184-2.206.197-2.398.008-.108 0-.216-.023-.314-.06-.263-.245-.427-.245-.427-.22-.22-.744-.537-1.86-.33-.039.007-.463.09-.83.308-.128.078-.425.277-.58.545-.092.17-.259.557-.322 1.229l-.238 4.07c-1.45-.067-2.497-.114-2.827-.128 0 0-.538-.014-.87.019C.754 6.485.36 7 .197 7.4c-.003.008-.172.52-.123 1.12 0 0 .031.442.187.679.147.203.472.484 1.16.51h3.793c-.001.019-.137 2.05-.186 2.64-.098 1.104-.216 2.53-.333 4.043l-3.302.152c-.21.012-1.314.107-1.328.78 0 .04.003.08.009.124.058.477.287.805.581 1.03.07.051.17.114.193.129.726.435 1.763.417 1.763.417H4.51l-.275 3.954-.044.787c-.021.405-.033.857.113 1.116.115.203.297.232.467.253.686.082 1.459.115 2.05-.74.535-.77.716-1.642.875-2.79.035-.26.104-.871.178-1.552l.811-9.145c.121-1.02.869-1.165 1.156-1.183 0 0 .094-.004.214-.002l1.476.023s3.94-.017 3.966 3.066c0 0 .097 2.395-2.582 3.084 0 0-.431.134-1.158.172-.41.025-.787.013-.887.02-.315.015-1.012.125-1.07.795l-.187 2.142h4.9l-.232 2.612c-.11 1.296-.185 2.207-.198 2.399-.007.108 0 .216.023.314.061.263.246.426.246.426.219.22.744.538 1.86.33.038-.006.463-.09.83-.307.128-.078.425-.278.58-.545.092-.17.258-.557.321-1.23l.235-4h4c.686-.025 1.012-.306 1.16-.51.154-.236.186-.678.186-.678.048-.6-.12-1.112-.123-1.12" transform="translate(2.64 2.676)"/>
                            </g>
                        </g>
                    </g>
                </g>
            </g>
        </g>
    </g>
</svg>
