<svg xmlns="http://www.w3.org/2000/svg" width="24" height="24" viewBox="0 0 24 24">
    <g fill="none" fill-rule="evenodd">
        <path d="M0 0H24V24H0z" opacity=".2"/>
        <path fill="#FFF" d="M14.65 18.22c-.243 1.243-1.337 2.18-2.65 2.18s-2.407-.937-2.65-2.18l1.031.001c.22.684.862 1.179 1.619 1.179s1.399-.495 1.619-1.179h1.03zM12.12 3.98c.994 0 1.8.806 1.8 1.8l-.001.775-.047-.012c2.15.526 3.744 2.622 3.744 5.112v3.237c0 .54.315 1.256.97 2.128.098.13.15.288.15.45 0 .414-.335.75-.75.75H6.014c-.162 0-.32-.053-.45-.15-.331-.249-.398-.72-.15-1.05.655-.872.97-1.588.97-2.128v-3.237c0-2.492 1.597-4.59 3.75-5.113l-.052.013-.002-.055v-.72c0-.994.806-1.8 1.8-1.8h.24zm.696 3.436h-1.631c-2.087 0-3.8 1.888-3.8 4.239v3.237c0 .674-.285 1.424-.84 2.262l-.047.066h11.003l-.045-.066c-.505-.762-.786-1.451-.833-2.076l-.007-.186v-3.237c0-2.351-1.713-4.239-3.8-4.239zM12.12 4.98h-.24c-.408 0-.744.305-.794.7l-.006.1v.638l-.104.003.209-.005h1.63c.055 0 .109.001.162.003l-.056-.002-.001-.637c0-.408-.305-.744-.7-.794l-.1-.006z"/>
        <circle cx="17.7" cy="5.1" r="1.5" fill="#FFD51A"/>
    </g>
</svg>
