<svg xmlns="http://www.w3.org/2000/svg" xmlns:xlink="http://www.w3.org/1999/xlink" width="88" height="38" viewBox="0 0 88 38">
    <defs>
        <path id="prefix__b" d="M0.017 19.398L40.975 19.398 40.975 0.113 0.017 0.113z"/>
        <path id="prefix__d" d="M0.306 14.032L21.083 14.032 21.083 0.204 0.306 0.204z"/>
        <filter id="prefix__a">
            <feColorMatrix in="SourceGraphic" values="0 0 0 0 0.000000 0 0 0 0 0.000000 0 0 0 0 0.000000 0 0 0 1.000000 0"/>
        </filter>
    </defs>
    <g fill="none" fill-rule="evenodd">
        <g filter="url(#prefix__a)">
            <g>
                <g transform="translate(22.333 3.667) matrix(1 0 0 -1 1.859 30.412)">
                    <mask id="prefix__c" fill="#fff">
                        <use xlink:href="#prefix__b"/>
                    </mask>
                    <g fill="#373535" fill-rule="nonzero" mask="url(#prefix__c)">
                        <g>
                            <path d="M39.152 16.863l.344.037-.072.692.361.037c.26.028.284-.065.31-.306.019-.183.041-.271.074-.353l.39.041-.006.047c-.079.021-.085.085-.112.343-.035.331-.116.377-.26.426.16.077.236.254.215.448-.016.152-.135.49-.581.444l-.848-.09.185-1.766zm.24 1.026l-.05.473.438.046c.205.021.26-.113.27-.206.017-.175-.064-.25-.246-.27l-.412-.043z" transform="translate(-.354 -.089)"/>
                            <path d="M38.297 17.686c-.08.757.473 1.44 1.23 1.519.758.08 1.439-.473 1.519-1.23.08-.759-.472-1.439-1.23-1.519-.757-.08-1.439.472-1.519 1.23m-.273-.028c.096-.91.913-1.57 1.821-1.475.908.095 1.57.912 1.475 1.82-.095.91-.913 1.57-1.821 1.475-.909-.096-1.57-.911-1.475-1.82M20.88 5.073c-.812-.83-1.705-1.296-2.7-1.401-1.496-.157-2.445.73-2.624 2.44l-.01.088 6.415.674-.07.67c-.244 2.32-.856 3.767-1.985 4.7-.791.662-2.049.967-3.329.833-1.474-.155-2.529-.747-3.332-1.862-.861-1.184-1.134-2.55-.924-4.544.366-3.488 2.662-5.524 5.846-5.19 1.562.165 2.853.803 4.02 1.978L20.88 5.073zm-5.513 3.254l-.005.044c-.162 1.539.376 2.472 1.482 2.588.584.062 1.018-.112 1.346-.516.304-.385.436-.81.523-1.633l.014-.13-3.36-.353zM36.296 16.02l.812-7.724c.2-1.906.25-2.165.454-2.45.13-.183.38-.267.618-.242.107.01.173.018.319.079L39.181 4c-.48-.248-1.075-.42-1.703-.485-1.234-.13-2.293.35-2.739 1.245-.275.54-.354.882-.52 2.464l-.774 7.356c-.152 1.453-.29 2.336-.502 3.321l2.897.984c.173-.596.292-1.307.456-2.866M5.09 8.544l-1.065-.112-.447 4.258 1.133.119c.77.08 1.435.06 1.813-.038.776-.193 1.233-.832 1.335-1.806.07-.657-.098-1.248-.445-1.65-.39-.43-.965-.629-2.323-.771m8.164-7.119s-3.19 3.942-4.17 4.933c-.191.206-.437.398-.71.581 1.613.479 2.689 2.343 2.472 4.407-.278 2.637-2.216 4.226-4.876 3.947l-5.6-.589L1.896.202l2.961.31-.604 5.746c.198 0 .344-.082.497-.146.546-.234 1.037-.255 2.921-2.723.739-.967 1.05-1.487 1.779-2.39l3.321.375s.01-.01 0 0l.484.051zM29.182 5.709c-.383-.524-.895-.862-1.437-.919-.736-.077-1.34.451-1.431 1.318-.138 1.321.516 1.762 2.531 1.974l.13.013.207-2.386zm2.776 1.32l-.02.196-.328 3.733c-.104 1.194-.205 1.535-.405 1.973-.562 1.19-1.913 1.749-3.778 1.552-1.017-.107-1.929-.4-2.964-.967-.747-.407-1.156-.67-1.704-1.1l.638-.855c.5-.672 1.1-.723 1.938-.27v.001c.69.435 1.344.704 1.952.768 1.062.112 1.345-.276 1.475-1.51l.047-.455c-.241-.003-.435-.024-.653-.046-3.531-.372-5.202-1.775-4.928-4.376.232-2.21 1.707-3.326 4.178-3.066.91.095 1.667.395 2.167.842.201.175.416.417.61.656.341-.534 1.001-.969 1.701-1.18l1.353 1.938c-.912.54-1.154.975-1.279 2.166" transform="translate(-.354 -.089)"/>
                        </g>
                    </g>
                </g>
                <g transform="translate(22.333 3.667) matrix(1 0 0 -1 .089 15.19)">
                    <mask id="prefix__e" fill="#fff">
                        <use xlink:href="#prefix__d"/>
                    </mask>
                    <g fill="#373535" fill-rule="nonzero" mask="url(#prefix__e)">
                        <path d="M3.191 13.505L4.557.507 1.672.204.306 13.202zM9.155 10.974c.209-.258.311-.486.465-.99.62.744 1.433 1.19 2.362 1.287.83.088 1.55-.116 2.142-.616.152-.121.31-.285.447-.45.83 1.046 1.62 1.509 2.726 1.625.791.083 1.566-.077 2.062-.424.626-.433.867-1.007 1.012-2.391l.712-6.771-2.57-.27-.658 6.259c-.127 1.204-.29 1.428-.982 1.355-.493-.052-1.15-.462-1.67-1.035l.72-6.851-2.508-.264-.647 6.16c-.134 1.263-.343 1.542-1.073 1.465-.495-.052-1.139-.38-1.659-.954l.73-6.949L8.179.888 7.48 7.522c-.153 1.461-.318 2.084-.648 2.548l2.323.904zM4.696 11.035c.505.171.804.476.775.757-.017.152-.095.228-.344.343-.337.155-.504.398-.544.773-.059.563.352 1.057.915 1.116.777.081 1.323-.453 1.41-1.274.107-1.021-.594-2.018-1.484-2.111-.52-.055-.728.396-.728.396"/>
                    </g>
                </g>
            </g>
        </g>
    </g>
</svg>
