<svg xmlns="http://www.w3.org/2000/svg" width="88" height="38" viewBox="0 0 88 38">
    <defs>
        <filter id="prefix__a">
            <feColorMatrix in="SourceGraphic" values="0 0 0 0 0.000000 0 0 0 0 0.000000 0 0 0 0 0.000000 0 0 0 1.000000 0"/>
        </filter>
    </defs>
    <g fill="none" fill-rule="evenodd">
        <g filter="url(#prefix__a)">
            <g fill-rule="nonzero">
                <path fill="#5495D6" d="M20.288 24.532l-.252.514H15.57v-.514h4.72zm-3.378-1.686l-.21-1.879h.551l.218 1.88h.954l.31-1.88h.552l-.323 1.88h1.073l-.25.498h-3.832v-.499h.957zm3.024-2.652l-.249.507H16.17v-.507h3.764z" transform="translate(19.25 5.875)"/>
                <path fill="#5495D6" d="M24.344 21.817L22.974 21.817 22.974 20.693 25.176 20.693 24.925 20.187 20.46 20.187 20.46 20.693 22.428 20.693 22.428 21.817 21.047 21.817 21.047 23.671 23.803 23.671 23.803 24.532 21.039 24.532 21.039 25.038 24.359 25.038 24.359 23.17 21.598 23.17 21.598 22.316 24.593 22.316z" transform="translate(19.25 5.875) matrix(1 0 0 -1 0 45.225)"/>
                <path fill="#5495D6" d="M27.864 20.093v4.002h-2.452v-4.002h.553v1.429h1.346v-1.429h.553zm-.553 1.928h-1.346v1.574h1.346V22.02zm1.942 3.715l-.553.248v-6.03h.553v1.84h.894l-.25.502h-.644v3.44zM30.285 22.769v-1.176c0-.979.595-1.472 1.283-1.472s1.281.493 1.281 1.472v1.176c0 .987-.593 1.48-1.281 1.48s-1.283-.493-1.283-1.48m2.018 0v-1.176c0-.519-.265-.979-.735-.979-.478 0-.73.46-.73.98v1.175c0 .52.252.98.73.98.47 0 .735-.46.735-.98m1.823 2.967l-.553.247v-6.03h.553v5.783zM36.437 20.22h.588c1 0 1.419.68 1.419 1.435 0 .76-.42 1.44-1.419 1.44h-.047v1.377h2.082l-.25.501H34.54v-.5h1.884v-1.378c-.923-.006-1.424-.606-1.424-1.44 0-.828.506-1.434 1.436-1.434m-.025 2.367h.607c.713 0 .87-.547.87-.933 0-.381-.152-.927-.864-.927h-.636c-.57 0-.833.453-.833.927 0 .48.25.933.856.933M41.556 20.093v.501h-1.86v.76h1.694v.508h-1.693v.913h2.246l-.25.487h-2.55v-3.169h2.413zm-1.664 3.844h3.055v1.957l-.552.256v-1.715h-2.503v-.498zm3.055-.582l-.552.268v-3.67h.552v3.402zM41.574 15.987c.003-1.239 1.006-2.239 2.243-2.242 1.236.003 2.238 1.003 2.241 2.242-.003 1.236-1.005 2.24-2.241 2.24-1.237 0-2.24-1.004-2.243-2.24m1.198 0c.002.575.467 1.043 1.045 1.043.576 0 1.042-.468 1.044-1.043-.002-.577-.468-1.043-1.044-1.045-.578.002-1.043.468-1.045 1.045M48.594 19.212c0 .674-.548 1.223-1.223 1.223-.676 0-1.224-.549-1.224-1.223 0-.676.548-1.223 1.224-1.223.675 0 1.223.547 1.223 1.223M45.713 21.486c0 .435-.351.786-.786.786-.434 0-.786-.351-.786-.786 0-.434.352-.786.786-.786.435 0 .786.352.786.786" transform="translate(19.25 5.875)"/>
                <path fill="#231F20" d="M5.971 6.692h3.157V2.455H5.971v4.237zm6.514 1.822H1.942V6.692h1.871V2.455h-1.86V.63H13.53v.884c0 .52-.422.941-.94.941h-1.235v4.237h2.07v.882c0 .518-.421.94-.94.94M12.163 23.466H6.106c-2.38 0-3.588-1.133-3.588-3.367v-2.555h7.762v-1.782H2.518V13.89h3.895v-1.84H0v-1.821h13.843v.88c0 .519-.421.94-.94.94h-4.36v1.84h3.895V19.4H4.65l-.003.742c0 1.2.317 1.476 1.696 1.476h6.76v.908c0 .518-.422.94-.94.94M38.275 15.036H37.22V12.88h-3.187v-1.653h3.187V3.132h2.131v10.826c0 .595-.483 1.078-1.077 1.078M31.72 1.949c-1.065 0-1.709.707-1.709 1.664 0 .956.644 1.662 1.709 1.662 1.063 0 1.707-.706 1.707-1.662 0-.957-.644-1.664-1.707-1.664m-.001 5.275c-2.34 0-3.833-1.58-3.833-3.611C27.886 1.581 29.379 0 31.719 0s3.833 1.581 3.833 3.613c0 2.03-1.494 3.611-3.833 3.611" transform="translate(19.25 5.875)"/>
                <path fill="#231F20" d="M31.573 12.577H30.52V9.942h-3.454V8.23h9.249V9c0 .518-.422.94-.94.94H32.65V11.5c0 .594-.483 1.078-1.077 1.078M32.657 13.514l-.002 1.935c0 .68.369 1.008 1.227 1.008h5.884v.79c0 .518-.422.94-.94.94h-5.338c-2.068 0-2.963-.781-2.963-2.704v-1.969h2.132zM20.681 18.224H19.63V12.05h-4.69v-1.821h11.57v.88c0 .519-.422.94-.94.94h-3.81v5.097c0 .594-.483 1.078-1.078 1.078M18.478 6.569h4.272V2.597h-4.272V6.57zm6.43 1.788H16.32V.804h8.588v7.553z" transform="translate(19.25 5.875)"/>
            </g>
        </g>
    </g>
</svg>
