<svg id="Buttons_28_Cart_Normal" data-name="Buttons/28/Cart_Normal" xmlns="http://www.w3.org/2000/svg" xmlns:xlink="http://www.w3.org/1999/xlink" width="32" height="32" viewBox="0 0 32 32">
  <defs>
    <clipPath id="clip-path">
      <circle id="Oval" cx="16" cy="16" r="16" fill="#80c342"/>
    </clipPath>
  </defs>
  <rect id="guidebox" width="32" height="32" fill="none"/>
  <g id="그룹_6" data-name="그룹 6">
    <circle id="Oval-2" data-name="Oval" cx="16" cy="16" r="16" fill="#fff"/>
  </g>
  <g id="text" transform="translate(4 4)">
    <rect id="guidebox-2" data-name="guidebox" width="24" height="24" fill="red" opacity="0"/>
    <path id="icon24_cart_line" data-name="icon24/cart_line" d="M2.914,14.034A2.22,2.22,0,0,1,.765,11.984L.01,4.941a1.617,1.617,0,0,1,.4-1.251,1.42,1.42,0,0,1,1.067-.481H4.941V2.643a2.66,2.66,0,0,1,5.313-.167l.005.167v.565h3.469a1.418,1.418,0,0,1,1.066.481,1.614,1.614,0,0,1,.4,1.251l-.756,7.043a2.218,2.218,0,0,1-2.148,2.049ZM1.3,4.5a.407.407,0,0,0-.094.318l.756,7.043a1.026,1.026,0,0,0,.956.976h9.372a1.026,1.026,0,0,0,.956-.976L14,4.812A.405.405,0,0,0,13.9,4.5a.239.239,0,0,0-.176-.087H10.259v1a.6.6,0,0,1-1.193.1l-.008-.1v-1H6.142v1a.6.6,0,0,1-1.193.1l-.008-.1v-1H1.472A.239.239,0,0,0,1.3,4.5ZM9.059,3.209V2.643A1.459,1.459,0,0,0,6.148,2.5l-.006.139v.565Z" transform="translate(4.4 4.4)" fill="#635447"/>
  </g>
</svg>
