<?xml version="1.0" encoding="UTF-8"?>
<svg width="28px" height="28px" viewBox="0 0 28 28" version="1.1" xmlns="http://www.w3.org/2000/svg" xmlns:xlink="http://www.w3.org/1999/xlink">
    <title>6B8F791E-B732-4BAE-B9D4-425345BB531F</title>
    <defs>
        <path d="M13.9010051,5.50100505 C14.2876044,5.50100505 14.6010051,5.81440573 14.6010051,6.20100505 L14.6000051,13.2000051 L21.6010051,13.2010051 C21.9876044,13.2010051 22.3010051,13.5144057 22.3010051,13.9010051 C22.3010051,14.2876044 21.9876044,14.6010051 21.6010051,14.6010051 L14.6000051,14.6000051 L14.6010051,21.6010051 C14.6010051,21.9876044 14.2876044,22.3010051 13.9010051,22.3010051 C13.5144057,22.3010051 13.2010051,21.9876044 13.2010051,21.6010051 L13.2000051,14.6000051 L6.20100505,14.6010051 C5.81440573,14.6010051 5.50100505,14.2876044 5.50100505,13.9010051 C5.50100505,13.5144057 5.81440573,13.2010051 6.20100505,13.2010051 L13.2000051,13.2000051 L13.2010051,6.20100505 C13.2010051,5.81440573 13.5144057,5.50100505 13.9010051,5.50100505 Z" id="path-1"></path>
    </defs>
    <g id="+-Dock-Bar" stroke="none" stroke-width="1" fill="none" fill-rule="evenodd">
        <g id="#FM_ALL_COM_01_02-_3_탑배너" transform="translate(-317.000000, -45.000000)">
            <g id="+-Top-Banner" transform="translate(0.000000, 37.000000)">
                <g id="Group-2" transform="translate(317.000000, 8.000000)">
                    <polygon id="guidebox" fill="#009333" opacity="0" points="-3.18323146e-12 0 28 0 28 28 0 28"></polygon>
                    <mask id="mask-2" fill="white">
                        <use xlink:href="#path-1"></use>
                    </mask>
                    <use id="Mask" fill="#FFFFFF" transform="translate(13.901005, 13.901005) rotate(-315.000000) translate(-13.901005, -13.901005) " xlink:href="#path-1"></use>
                </g>
            </g>
        </g>
    </g>
</svg>