<svg xmlns="http://www.w3.org/2000/svg" width="20" height="20" viewBox="0 0 20 20">
    <g fill="none" fill-rule="evenodd">
        <path d="M0 0H20V20H0z"/>
        <path fill="#C2C2C2" d="M13.5 3.45c.78 0 1.42.595 1.493 1.356L15 4.95v5.102c1.519.568 2.6 2.032 2.6 3.748 0 2.21-1.79 4-4 4-1.62 0-3.016-.964-3.645-2.35H4.5c-.78 0-1.42-.595-1.493-1.356L3 13.95v-9c0-.78.595-1.42 1.356-1.493L4.5 3.45h9zm.1 7.35c-1.657 0-3 1.343-3 3s1.343 3 3 3 3-1.343 3-3-1.343-3-3-3zm-.1-6.35h-4v2.028c0 .276-.224.5-.5.5-.245 0-.45-.177-.492-.41l-.008-.09V4.45h-4c-.245 0-.45.177-.492.41L4 4.95v9c0 .245.177.45.41.492l.09.008h5.153c-.035-.211-.053-.428-.053-.65 0-2.21 1.79-4 4-4 .135 0 .269.007.4.02V4.95c0-.245-.177-.45-.41-.492l-.09-.008zm.1 7.119c.245 0 .45.177.492.41l.008.09-.001 1.23.979.001c.245 0 .45.177.492.41l.008.09c0 .245-.177.45-.41.492l-.09.008H13.6c-.245 0-.45-.177-.492-.41l-.008-.09v-1.731c0-.276.224-.5.5-.5z"/>
    </g>
</svg>
