<svg xmlns="http://www.w3.org/2000/svg" width="20" height="20" viewBox="0 0 20 20">
    <g fill="none" fill-rule="evenodd">
        <path d="M0 0H20V20H0z"/>
        <path fill="#333" d="M10.226 4C6.792 4 4 6.682 4 10s2.792 6 6.226 6c2.47 0 4.698-1.403 5.695-3.572.35-.76-.484-1.467-1.182-1.109l-.086.05c-.585.384-1.273.588-1.99.588-1.949 0-3.52-1.51-3.52-3.361 0-1.25.721-2.39 1.876-2.974.783-.396.534-1.545-.334-1.606-.152-.01-.305-.016-.459-.016zm-.125 1.002l-.11.074c-1.149.813-1.849 2.111-1.849 3.52 0 2.413 2.029 4.361 4.52 4.361l.273-.007c.633-.037 1.245-.2 1.802-.478l.046-.025-.099.164C13.745 14.078 12.068 15 10.226 15 7.336 15 5 12.757 5 10c0-2.686 2.217-4.885 5.005-4.996l.096-.002z"/>
    </g>
</svg>
