<svg xmlns="http://www.w3.org/2000/svg" width="40" height="40" viewBox="0 0 40 40">
    <g fill="none" fill-rule="evenodd">
        <g>
            <g>
                <g>
                    <g>
                        <g style="mix-blend-mode:multiply">
                            <g>
                                <g fill="#80C342">
                                    <path d="M16 0c7.835 0 14.355 5.632 15.732 13.07h2.681c.332 0 .6.268.6.6 0 .33-.268.6-.6.6H17.466l-.115.006-.112.018c-.434.095-.77.458-.822.908l-.007.124-.001 2.153h-1.533l-.127.008c-.25.03-.481.15-.652.335l-.08.099-2.3 3.209-.07.112c-.062.115-.102.241-.119.372l-.008.131v2.719l.006.115c.053.491.444.882.935.935l.115.006 1.35-.001c-.004.048-.006.096-.006.145 0 .928.752 1.68 1.68 1.68.879 0 1.6-.675 1.674-1.535l.006-.145-.006-.145h5.292c-.004.048-.006.096-.006.145 0 .928.752 1.68 1.68 1.68.879 0 1.6-.675 1.674-1.535l.006-.145-.006-.145h2.947C25.946 29.453 21.271 32 16 32 7.163 32 0 24.837 0 16S7.163 0 16 0zm16.4 19.3c.331 0 .6.269.6.6 0 .331-.269.6-.6.6h-4.8c-.331 0-.6-.269-.6-.6 0-.331.269-.6.6-.6h4.8zm4-3.2c.331 0 .6.269.6.6 0 .331-.269.6-.6.6h-7.8c-.331 0-.6-.269-.6-.6 0-.331.269-.6.6-.6h7.8zM9.571 8l-.078.002C7.213 8.09 5.4 9.85 5.4 11.999 5.4 14.205 7.31 16 9.674 16c1.427 0 2.733-.662 3.52-1.73l.125-.181.081-.132-.038.02c-.38.186-.79.307-1.216.36l-.257.022-.223.007c-2.038 0-3.696-1.56-3.696-3.49 0-1.057.503-2.036 1.34-2.69l.171-.126.09-.06zm3.246 1.28l-.045.045-.391.542c-.025.034-.058.059-.096.072l-.06.011-.669.021c-.04.001-.079.015-.112.039-.07.052-.097.142-.072.222l.03.057.394.54c.025.033.038.073.039.113l-.008.06-.187.642c-.011.04-.01.08.002.119.03.087.112.141.2.137l.053-.01.635-.209c.04-.013.081-.013.12-.001l.055.026.553.376c.033.023.073.035.113.034.092 0 .17-.062.192-.147l.007-.053-.002-.669c0-.041.012-.081.035-.114l.042-.045.529-.41c.031-.024.055-.058.067-.096.029-.088-.007-.18-.08-.229l-.049-.023-.637-.204c-.039-.013-.073-.037-.097-.07l-.03-.053-.226-.629c-.014-.038-.038-.07-.071-.094-.072-.052-.166-.05-.234 0zm3.403-3.721h-.04c-.09.012-.16.084-.173.17v.054l.125.989c.005.04-.002.082-.021.118l-.036.049-.707.701c-.029.029-.048.065-.056.105-.017.09.03.178.108.217l.051.017.979.186c.04.008.077.028.105.057l.036.05.449.889c.018.036.047.066.082.085.077.043.17.029.232-.028l.04-.05.48-.874c.02-.036.05-.065.086-.083l.058-.018.984-.152c.04-.007.077-.025.107-.052.064-.06.08-.154.044-.23l-.035-.053-.682-.726c-.029-.03-.047-.068-.053-.108l.001-.061.16-.983c.006-.04 0-.081-.017-.118-.04-.083-.129-.126-.215-.111l-.051.016-.902.424c-.037.018-.078.023-.118.016l-.058-.02-.886-.455-.037-.014-.04-.007z" transform="translate(-26 -601) translate(0 88) translate(0 424) translate(16 30) translate(0 48) translate(10 11) translate(3 4)"/>
                                </g>
                            </g>
                        </g>
                    </g>
                </g>
            </g>
        </g>
    </g>
</svg>
