<svg xmlns="http://www.w3.org/2000/svg" width="16" height="16" viewBox="0 0 16 16">
    <g fill="none" fill-rule="evenodd">
        <path fill="#333" d="M7.743 5.987c.196-.134.465-.113.638.061l2.474 2.5.058.07c.134.195.113.465-.061.637-.196.195-.513.193-.707-.003L8.499 7.59 8.5 12c0 .276-.224.5-.5.5-.245 0-.45-.177-.492-.41L7.5 12l-.001-4.377-1.647 1.632-.07.058c-.195.134-.465.113-.637-.061-.195-.196-.193-.513.003-.707l2.525-2.5zm3.47-2.487c.277 0 .5.224.5.5 0 .245-.176.45-.41.492l-.09.008H4.7c-.276 0-.5-.224-.5-.5 0-.245.177-.45.41-.492L4.7 3.5h6.513z" transform="matrix(1 0 0 -1 0 16)"/>
    </g>
</svg>
