<svg xmlns="http://www.w3.org/2000/svg" xmlns:xlink="http://www.w3.org/1999/xlink" width="32" height="32" viewBox="0 0 32 32">
    <defs>
        <path id="prefix__a" d="M20.534 17.103H12.3c-.005.919.193 1.827.579 2.652.65 1.432 2.038 2.332 3.55 2.303.466.006.93-.056 1.38-.184.43-.127.838-.323 1.212-.58.384-.255.751-.539 1.098-.848.326-.303.754-.714 1.277-1.228.263-.213.592-.317.923-.292.384-.015.759.122 1.05.384.276.27.422.656.4 1.052-.03.498-.182.98-.444 1.397-.356.596-.815 1.117-1.354 1.535-.684.536-1.448.947-2.262 1.217-1.013.34-2.073.505-3.137.488-2.701 0-4.802-.809-6.303-2.426-1.5-1.618-2.257-3.817-2.27-6.599-.01-1.233.178-2.46.557-3.627.34-1.065.89-2.043 1.618-2.868.728-.814 1.625-1.441 2.62-1.835 1.103-.439 2.274-.656 3.452-.64 1.478-.044 2.938.333 4.228 1.09 1.117.662 2.034 1.641 2.647 2.825.567 1.078.869 2.288.878 3.52 0 1.113-.304 1.832-.911 2.157-.803.375-1.678.549-2.555.507zM12 15h8c-.107-1.671-.514-2.917-1.217-3.75-.727-.839-1.742-1.293-2.79-1.247-1.027-.03-2.015.435-2.707 1.276-.706.833-1.135 2.074-1.286 3.721z"/>
    </defs>
    <g fill="none" fill-rule="evenodd">
        <path d="M0 0H32V32H0z"/>
        <use fill="#70B5D9" xlink:href="#prefix__a"/>
    </g>
</svg>
