<svg xmlns="http://www.w3.org/2000/svg" width="32" height="32" viewBox="0 0 32 32">
    <g fill="none" fill-rule="evenodd">
        <path d="M0 0H32V32H0z"/>
        <path fill="#7FC241" d="M9.256 18.23v4.256c0 .374-.305.681-.682.681h-.665v-3.78H1.286v-1.158h7.97zm4.844-.374v1.484h4.908v-1.484h1.345v5.235h-7.6v-5.235H14.1zm4.908 2.64H14.1v1.435h4.908v-1.434zm12.233-3.428c.299.213.53.518.658.893.205.584.087 1.194-.25 1.657-.21.296-.511.532-.884.661-.577.195-1.196.086-1.658-.248-.199-.145-.373-.33-.504-.555l-2.504.862c-.116.035-.244.018-.337-.048v-.003c-.06-.042-.103-.106-.132-.181-.04-.12-.018-.242.052-.336.041-.056.103-.103.178-.131l2.502-.857c-.057-.472.068-.93.332-1.303.212-.294.515-.528.886-.656.585-.197 1.197-.088 1.661.245zm-2.553-5.502l.045.003.019.04c.551 1.114.662 2.382.24 3.517-.106.276-.237.54-.405.788-.77 1.196-2.08 1.843-3.479 1.89l-1.515 2.327c-.097.145-.282.202-.438.144-.028-.01-.051-.02-.076-.035-.144-.096-.197-.281-.142-.437.008-.023.024-.047.033-.073l1.522-2.328c-.411-1.02-.456-2.147-.08-3.157.103-.276.235-.54.398-.792.848-1.3 2.335-1.962 3.878-1.887zM2.703 9v3.782h6.751v.555c0 .334-.269.601-.6.601H5.966v1.729h4.59v.573c0 .333-.269.6-.6.6H0v-1.173h4.631v-1.729H1.358V9h1.345zm18.948 6.667v.556c0 .333-.269.602-.6.602h-9.595v-1.158h10.195zM20.435 9.18v.558c0 .333-.269.6-.6.6h-2.58v.48c0 .275 0 .509.259.724 1.26.803 2.309 1.557 3.539 2.346l-.663.986-3.79-2.617-3.813 2.617-.66-.986c1.228-.789 2.28-1.543 3.539-2.346.226-.188.254-.39.257-.622v-.581h-3.166v-1.16h7.678z"/>
    </g>
</svg>
