<svg xmlns="http://www.w3.org/2000/svg" width="48" height="48" viewBox="0 0 48 48">
    <g fill="none" fill-rule="evenodd">
        <path d="M0 0H48V48H0z"/>
        <path fill="#ADADAD" d="M32.8 11.25c.414 0 .75.336.75.75v17.297c0 3.071 1.337 5.02 4.1 5.996.795.28.593 1.457-.25 1.457H15.8c-3.065 0-5.55-2.485-5.55-5.55V12c0-.414.336-.75.75-.75zm-.75 1.499H11.749L11.75 31.2c0 2.169 1.705 3.94 3.848 4.045l.202.005h18.728l-.067-.055c-1.531-1.322-2.342-3.198-2.407-5.584l-.004-.314V12.749zM22.25 26.4c.414 0 .75.336.75.75s-.336.75-.75.75h-5.7c-.414 0-.75-.336-.75-.75s.336-.75.75-.75h5.7zm4.8-4.8c.414 0 .75.336.75.75s-.336.75-.75.75h-10.5c-.414 0-.75-.336-.75-.75s.336-.75.75-.75h10.5zm0-4.8c.414 0 .75.336.75.75s-.336.75-.75.75h-10.5c-.414 0-.75-.336-.75-.75s.336-.75.75-.75h10.5z"/>
    </g>
</svg>
