<svg xmlns="http://www.w3.org/2000/svg" width="40" height="40">
    <defs>
        <style>
            .cls-2,.cls-3{fill:#fafafa;stroke:#333;stroke-linejoin:round;stroke-width:1.2px}.cls-3{fill:none;stroke-linecap:round}
        </style>
    </defs>
    <g id="icon-40-Mackerel" transform="translate(-.01)">
        <g id="그룹_71" data-name="그룹 71" transform="translate(4.791 10.179)">
            <path id="Combined_Shape-5" data-name="Combined Shape-5" class="cls-2" d="M477.383 57.842s4.994-6.675 13.616-6.675c4.051 0 9.74 2.322 12.138 4.652a11.923 11.923 0 0 1 1.878-1.856 10.7 10.7 0 0 1 3.587-1.483s-2.68 3.937-2.721 5.53 2.431 5.682 2.431 5.682a11.973 11.973 0 0 1-3.3-1.751 14.927 14.927 0 0 1-2-1.956c-2.463 2.292-8.032 4.535-12.012 4.535-7.877-.002-13.617-6.678-13.617-6.678z" transform="translate(-477.383 -47.96)"/>
            <path id="Shape" class="cls-3" d="M486.852 53.949a6.565 6.565 0 0 1 1.442 4.376 5.939 5.939 0 0 1-3.644 4.739" transform="translate(-478.164 -48.259)"/>
            <path id="Path_2-2" data-name="Path 2-2" class="cls-3" d="M489.044 50.781a9.754 9.754 0 0 1 6.38-3.207 3.171 3.171 0 0 0 0 3.5" transform="translate(-478.636 -47.574)"/>
            <path id="Path_2-3" data-name="Path 2-3" class="cls-3" d="M489.044 66.027a9.75 9.75 0 0 0 6.38 3.207 3.078 3.078 0 0 1 0-3.443" transform="translate(-478.636 -49.531)"/>
            <path id="패스_104" data-name="패스 104" class="cls-2" d="M488.737 57.861s3.717-2 5.2-1.141l-1.426 2.061z" transform="translate(-478.603 -48.534)"/>
            <circle id="Oval-18" cx=".896" cy=".896" r=".896" transform="translate(4.48 9.007)" style="fill:#333"/>
        </g>
    </g>
</svg>
