<svg xmlns="http://www.w3.org/2000/svg" width="40" height="40">
    <defs>
        <style>
            .cls-2,.cls-3{fill:#fff;stroke-linecap:round;stroke-linejoin:round}.cls-3{stroke:#333;stroke-width:1.2px}.cls-5,.cls-6{stroke:none}.cls-6{fill:#333}
        </style>
    </defs>
    <g id="icon-40-peanut" transform="translate(-.009)">
        <g id="그룹_84" data-name="그룹 84" transform="translate(6.241 5.392)">
            <g id="그룹_81" data-name="그룹 81" transform="rotate(-135.97 15.38 10.236)">
                <g id="패스_131" data-name="패스 131" class="cls-2">
                    <path class="cls-5" d="M4.622 15.012c-1.092 0-2.038-.297-2.736-.86C1.25 13.64.83 12.922.67 12.076c-.224-1.185.08-2.47.857-3.62.9-1.332 2.354-2.36 4.205-2.973l.003-.002.004-.001c.69-.239 1.364-.271 1.933-.271.23 0 .468.006.698.012.237.006.483.012.73.012 1.477 0 3.085-.237 4.833-1.952C15.693 1.552 17.73.6 19.666.6c2.178 0 3.852 1.205 4.165 3 .329 1.88-.016 3.442-1.023 4.64-1.316 1.566-3.734 2.464-6.633 2.464-.265 0-.533-.008-.799-.024-.354-.07-.7-.106-1.03-.106-1.782 0-2.944 1.022-4.067 2.01-.838.738-1.705 1.5-2.876 1.907-.997.346-1.932.521-2.781.521z"/>
                    <path class="cls-6" d="M19.666 1.2c-1.778 0-3.665.891-5.313 2.509-1.902 1.866-3.65 2.124-5.254 2.124-.254 0-.503-.006-.744-.013-.237-.006-.46-.011-.683-.011-.545 0-1.133.029-1.736.238l-.016.005c-1.724.572-3.07 1.519-3.895 2.74-.678 1.002-.957 2.16-.765 3.173.29 1.533 1.546 2.447 3.362 2.447.781 0 1.651-.164 2.584-.488 1.06-.368 1.846-1.059 2.677-1.79 1.15-1.013 2.455-2.16 4.463-2.16.356 0 .728.037 1.106.11.24.013.483.02.723.02 2.682 0 4.99-.84 6.174-2.25.888-1.056 1.188-2.453.891-4.152-.26-1.497-1.697-2.502-3.574-2.502m0-1.2c2.464 0 4.394 1.417 4.756 3.496 1.026 5.877-4.246 8.085-9.125 7.78-3.536-.735-4.49 2.67-7.697 3.782-4.388 1.523-7.035-.306-7.52-2.87-.483-2.563 1.197-5.86 5.463-7.275 1.227-.425 2.38-.28 3.556-.28 1.387 0 2.805-.202 4.413-1.78C15.565.836 17.773 0 19.666 0z"/>
                </g>
                <path id="패스_132" data-name="패스 132" class="cls-3" d="M4.79 0C2.612.671 1.006.65 0 .218" transform="translate(2.871 12.642)"/>
                <path id="패스_133" data-name="패스 133" class="cls-3" d="M4.75 0C3.071.535 1.933 1.841 0 2.632" transform="translate(8.141 9.696)"/>
                <path id="패스_134" data-name="패스 134" class="cls-3" d="M7.873 0C6.832 2.262 3.325 3.511 0 3.8" transform="translate(14.712 5.621)"/>
                <path id="패스_135" data-name="패스 135" class="cls-3" d="M0 .375A8.382 8.382 0 0 1 3.355.066" transform="translate(18.305 2.924)"/>
                <path id="패스_136" data-name="패스 136" class="cls-3" d="M0 2.541A12.5 12.5 0 0 0 2.569 1.46 22.025 22.025 0 0 1 5.812 0" transform="translate(11.338 3.772)"/>
                <path id="패스_137" data-name="패스 137" class="cls-3" d="M0 3.421A12.848 12.848 0 0 1 5.235.619 18.385 18.385 0 0 1 7.863 0" transform="translate(2.314 6.717)"/>
                <path id="패스_138" data-name="패스 138" class="cls-3" d="M6.66 0C6.068.246 5.43.5 4.7.741A21.248 21.248 0 0 1 0 1.916" transform="translate(2.698 9.563)"/>
                <path id="패스_139" data-name="패스 139" class="cls-3" d="M5.616 0c-.529.149-1.055.287-1.567.414A20.083 20.083 0 0 0 0 1.8" transform="translate(9.789 7.364)"/>
                <path id="패스_140" data-name="패스 140" class="cls-3" d="M4.887 0A18.981 18.981 0 0 1 0 2.135" transform="translate(16.812 4.662)"/>
                <path id="선_32" data-name="선 32" class="cls-3" transform="translate(6.176 11.74)" d="M.381 1.136 0 0"/>
                <path id="선_33" data-name="선 33" class="cls-3" transform="translate(7.66 8.617)" d="m0 0 .43 1.281"/>
                <path id="선_34" data-name="선 34" class="cls-3" transform="translate(16.555 8.136)" d="m0 0 .343 1.022"/>
                <path id="선_35" data-name="선 35" class="cls-3" transform="translate(19.477 5.91)" d="M.356 1.059 0 0"/>
                <path id="선_36" data-name="선 36" class="cls-3" transform="translate(10.479 8.904)" d="m0 0 .216.643"/>
                <path id="선_37" data-name="선 37" class="cls-3" transform="translate(12.797 5.815)" d="m0 0 .344 1.024"/>
                <path id="선_38" data-name="선 38" class="cls-3" transform="translate(3.701 8.062)" d="m0 0 .271.808"/>
                <path id="선_39" data-name="선 39" class="cls-3" transform="translate(4.377 14.108)" d="m0 0 .324.966"/>
                <path id="선_40" data-name="선 40" class="cls-3" transform="translate(9.056 11.912)" d="m0 0 .218.649"/>
                <path id="선_41" data-name="선 41" class="cls-3" transform="translate(16.327 1.607)" d="m0 0 .28.774"/>
                <path id="선_42" data-name="선 42" class="cls-3" transform="translate(18.894 9.567)" d="m0 0 .288.857"/>
            </g>
            <g id="그룹_83" data-name="그룹 83" transform="translate(0 14.143)">
                <g id="그룹_82" data-name="그룹 82">
                    <g id="패스_141" data-name="패스 141" class="cls-2">
                        <path class="cls-5" d="M308.664 142.736c-1.442 0-2.612-.855-2.782-2.032-.22-1.478.774-2.939 2.31-3.403 1.33-.344 4.075-1.452 5.268-2.127 1.257-.66 2.574-1.008 3.808-1.008.656 0 1.292.1 1.85.287.078.234.162.896-.084 1.8-.262.962-1.083 2.775-3.63 4.104-1.413.74-4.1 1.795-5.638 2.214l-.006.002-.006.002c-.362.107-.729.16-1.09.16z" transform="translate(-305.251 -133.566)"/>
                        <path class="cls-6" d="M317.268 134.766c-1.135 0-2.352.324-3.52.935-1.25.705-3.999 1.815-5.393 2.178a2.786 2.786 0 0 0-1.468 1.07 2.327 2.327 0 0 0-.412 1.669c.128.88 1.048 1.518 2.188 1.518a3.253 3.253 0 0 0 .946-.144c1.505-.41 4.134-1.442 5.517-2.167 3.166-1.652 3.52-4.042 3.466-4.901a5.465 5.465 0 0 0-1.324-.158m0-1.2c.825 0 1.56.14 2.169.363.596.108 1.05 4.452-3.756 6.96-1.447.758-4.177 1.83-5.757 2.261-2.252.665-4.371-.533-4.636-2.36-.272-1.834.991-3.543 2.743-4.067 1.287-.33 3.989-1.422 5.142-2.076 1.484-.78 2.886-1.08 4.095-1.08z" transform="translate(-305.251 -133.566)"/>
                    </g>
                    <g id="패스_142" data-name="패스 142" class="cls-2">
                        <path class="cls-5" d="M308.664 142.736c-1.442 0-2.612-.855-2.782-2.032-.22-1.478.774-2.939 2.31-3.403 1.33-.344 4.075-1.452 5.268-2.127 1.257-.66 2.574-1.008 3.808-1.008.656 0 1.292.1 1.85.287.078.234.162.896-.084 1.8-.262.962-1.083 2.775-3.63 4.104-1.413.74-4.1 1.795-5.638 2.214l-.006.002-.006.002c-.362.107-.729.16-1.09.16z" transform="translate(-305.251 -133.566)"/>
                        <path class="cls-6" d="M317.268 134.766c-1.135 0-2.352.324-3.52.935-1.25.705-3.999 1.815-5.393 2.178a2.786 2.786 0 0 0-1.468 1.07 2.327 2.327 0 0 0-.412 1.669c.128.88 1.048 1.518 2.188 1.518a3.253 3.253 0 0 0 .946-.144c1.505-.41 4.134-1.442 5.517-2.167 3.166-1.652 3.52-4.042 3.466-4.901a5.465 5.465 0 0 0-1.324-.158m0-1.2c.825 0 1.56.14 2.169.363.596.108 1.05 4.452-3.756 6.96-1.447.758-4.177 1.83-5.757 2.261-2.252.665-4.371-.533-4.636-2.36-.272-1.834.991-3.543 2.743-4.067 1.287-.33 3.989-1.422 5.142-2.076 1.484-.78 2.886-1.08 4.095-1.08z" transform="translate(-305.251 -133.566)"/>
                    </g>
                </g>
                <g id="패스_143" data-name="패스 143" class="cls-2">
                    <path class="cls-5" d="M321.824 143.888c-1.616 0-3.894-.202-5.186-.459l-.007-.001-.007-.001a3.277 3.277 0 0 1-2.222-1.465c-.423-.674-.55-1.467-.35-2.174.38-1.339 1.585-2.273 2.932-2.273.158 0 .316.013.47.04 1.022.216 3.074.393 4.588.393.352 0 .657-.01.905-.03a8.282 8.282 0 0 1 3.576.665c.898.393 1.44.858 1.587 1.15.043.206-.105 1.003-.74 1.858-.728.98-2.173 2.172-4.92 2.285-.188.008-.398.012-.626.012z" transform="translate(-305.701 -133.294)"/>
                    <path class="cls-6" d="M316.984 138.115c-1.08 0-2.048.755-2.354 1.837-.155.544-.053 1.16.28 1.691a2.677 2.677 0 0 0 1.845 1.198c1.26.25 3.486.447 5.07.447.219 0 .42-.004.601-.012 2.25-.092 3.514-.975 4.179-1.7.625-.683.857-1.366.902-1.663-.159-.177-.564-.496-1.263-.797a7.673 7.673 0 0 0-3.26-.599c-.263.02-.58.03-.942.03-1.376 0-3.5-.15-4.698-.403a2.275 2.275 0 0 0-.36-.029m0-1.2c.194 0 .39.017.583.05 1.258.27 4.067.456 5.344.354 2.72-.121 5.27 1.144 5.75 2.176.352.757-.953 4.766-6.186 4.98-1.576.07-4.4-.148-5.954-.457-2.239-.39-3.58-2.513-3.045-4.395.475-1.677 1.96-2.708 3.508-2.708z" transform="translate(-305.701 -133.294)"/>
                </g>
                <path id="패스_144" data-name="패스 144" class="cls-3" d="M307.317 140.166a2.626 2.626 0 0 1 1.4-1.587" transform="translate(-305.083 -133.159)"/>
                <path id="패스_145" data-name="패스 145" d="M319.829 141.667a4.826 4.826 0 0 0 4.091-.5" transform="translate(-304.939 -132.949)" style="fill:none;stroke:#333;stroke-width:1.2px;stroke-linecap:round;stroke-linejoin:round"/>
            </g>
        </g>
    </g>
</svg>
