<svg xmlns="http://www.w3.org/2000/svg" width="12" height="12" viewBox="0 0 12 12">
    <g fill="none" fill-rule="evenodd">
        <g>
            <g>
                <g>
                    <g>
                        <g>
                            <g>
                                <g>
                                    <g>
                                        <path fill="#333" d="M3.146 4.397c.174-.174.443-.193.638-.059l.07.058 2.148 2.147 2.144-2.146c.174-.174.443-.193.638-.059l.07.058c.173.174.192.443.058.638l-.058.07-2.497 2.5c-.173.173-.442.192-.637.058l-.07-.058-2.503-2.5c-.196-.195-.196-.512 0-.707z" transform="translate(-326 -898) translate(0 282) translate(0 56) translate(0 70) translate(16 300) translate(110 50) translate(194 134) translate(6 6) matrix(1 0 0 -1 0 12)"/>
                                    </g>
                                </g>
                            </g>
                        </g>
                    </g>
                </g>
            </g>
        </g>
    </g>
</svg>
