<svg xmlns="http://www.w3.org/2000/svg" width="40" height="40">
    <defs>
        <style>
            .cls-2{fill:#fafafa;stroke-linejoin:round;stroke:#333;stroke-linecap:round;stroke-width:1.2px}
        </style>
    </defs>
    <g id="icon-40-tomato" transform="translate(-.01)">
        <g id="그룹_79" data-name="그룹 79" transform="translate(9.579 10.4)">
            <path id="패스_129" data-name="패스 129" class="cls-2" d="M247.237 83.336c0 5.123-4.724 9.718-10.551 9.718s-10.552-4.594-10.552-9.718 4.725-8.794 10.552-8.794 10.551 3.671 10.551 8.794z" transform="translate(-226.133 -72.725)"/>
            <path id="패스_130" data-name="패스 130" class="cls-2" d="M235.564 75.4a14.936 14.936 0 0 0-.172-2.954l2.576 1.875 3.432-1.371-1.129 2.8 2.111 2.061-3.657.2-1.84 2.306-.835-2.8-3.337-.049z" transform="translate(-227 -72.45)"/>
            <path id="Oval-2" d="M241.578 90.867a3.949 3.949 0 0 0 3.948-3.949" transform="translate(-228.166 -74.355)" style="fill:none;stroke-miterlimit:10;stroke:#333;stroke-linecap:round;stroke-width:1.2px"/>
        </g>
    </g>
</svg>
