<svg xmlns="http://www.w3.org/2000/svg" width="40" height="40">
    <defs>
        <style>
            .cls-5,.cls-8{fill:none}.cls-3,.cls-5{stroke-linecap:round;stroke-linejoin:round}.cls-3{fill:#fff}.cls-3,.cls-5{stroke:#333;stroke-width:1.2px}.cls-6,.cls-7{stroke:none}.cls-7{fill:#333}
        </style>
    </defs>
    <g id="icon-40-bean" transform="translate(-.01)">
        <g id="그룹_76" data-name="그룹 76" transform="translate(7.27 8.067)">
            <g id="패스_118" data-name="패스 118" style="stroke-linecap:round;stroke-linejoin:round;fill:none">
                <path class="cls-6" d="M332.652 76.267c-1.187-2.056-4.405-2.664-7.059-1.132a6.276 6.276 0 0 0-2.706 3.073 6.516 6.516 0 0 0-4.007 1.046 6.021 6.021 0 0 0-3.065 4.144c0-.006-.923.044-1.005.055a6.25 6.25 0 0 0-1.066.227 5.724 5.724 0 0 0-2.089 1.167 9.549 9.549 0 0 0-2.722 5.554.342.342 0 0 0 0 .159.331.331 0 0 0 .1.138 7.118 7.118 0 0 0 6.085 1.5c1.867-.335 4.429-1.431 5.222-3.24a25.777 25.777 0 0 0 4.591-1.7c1.333-.77.545-2.44 1.024-3.622a6.423 6.423 0 0 0 4.045-.871c2.651-1.532 3.84-4.441 2.652-6.498z" transform="translate(-308.92 -74.278)"/>
                <path class="cls-7" d="M328.733 75.478c-.872 0-1.75.24-2.54.697-1.282.74-1.9 1.759-2.194 2.483a1.2 1.2 0 0 1-1.279.739c-.883-.124-2.02.192-3.24.897-1.345.776-2.294 2.032-2.478 3.28a1.2 1.2 0 0 1-1.198 1.024c-.148.005-.736.038-.861.048a5.058 5.058 0 0 0-.846.181 4.553 4.553 0 0 0-1.651.923c-1.061.93-1.794 2.364-2.233 4.371.886.654 2.066 1.01 3.378 1.01.436 0 .879-.04 1.314-.117 1.737-.312 3.784-1.284 4.334-2.54.228-.52.642-.64 1.042-.755.712-.205 2.877-.827 4.048-1.503.187-.108.238-.26.241-1.13.002-.585.005-1.247.27-1.903a1.2 1.2 0 0 1 1.279-.739c.19.027.387.04.586.04.901 0 1.832-.262 2.692-.758 1.054-.609 1.856-1.485 2.257-2.467.358-.876.343-1.726-.041-2.392-.495-.857-1.599-1.389-2.88-1.389m0-1.2c1.674 0 3.185.718 3.92 1.99 1.187 2.056-.002 4.965-2.656 6.497-1.333.77-2.782 1.045-4.044.868-.479 1.182.309 2.852-1.024 3.622-1.586.915-4.58 1.674-4.59 1.7-.794 1.809-3.356 2.905-5.222 3.24-2.11.377-4.472 0-6.086-1.497a.331.331 0 0 1-.103-.137.342.342 0 0 1 .004-.16c.38-2.034 1.125-4.152 2.723-5.553a5.723 5.723 0 0 1 2.089-1.168 6.25 6.25 0 0 1 1.066-.227c.082-.01 1.006-.06 1.005-.055.229-1.554 1.331-3.143 3.065-4.144 1.333-.77 2.744-1.223 4.007-1.046.478-1.182 1.373-2.303 2.706-3.073a6.306 6.306 0 0 1 3.14-.857z" transform="translate(-308.92 -74.278)"/>
            </g>
            <g id="타원_36" data-name="타원 36" class="cls-3" transform="rotate(-26.575 28.28 1.98)">
                <ellipse class="cls-6" cx="3.171" cy="2.48" rx="3.171" ry="2.48"/>
                <ellipse class="cls-8" cx="3.171" cy="2.48" rx="2.571" ry="1.88"/>
            </g>
            <g id="타원_37" data-name="타원 37" class="cls-3" transform="rotate(-30 19.674 -10.824)">
                <ellipse class="cls-6" cx="3.111" cy="2.433" rx="3.111" ry="2.433"/>
                <ellipse class="cls-8" cx="3.111" cy="2.433" rx="2.511" ry="1.833"/>
            </g>
            <g id="타원_38" data-name="타원 38" class="cls-3" transform="rotate(-30 15.483 -25.985)">
                <ellipse class="cls-6" cx="3.111" cy="2.433" rx="3.111" ry="2.433"/>
                <ellipse class="cls-8" cx="3.111" cy="2.433" rx="2.511" ry="1.833"/>
            </g>
            <g id="패스_119" data-name="패스 119" style="fill:#fff;stroke-linecap:round;stroke-linejoin:round">
                <path class="cls-6" d="M319.48 98.435c-.027-.95.072-2.816.207-3.435.34-1.547.775-2.916 1.333-4.184.523-1.19.962-2.14 1.305-2.826.939-1.88 2.055-3.44 3.853-5.384 1.283-1.385 2.498-2.52 3.612-3.373 1.755-1.344 3.62-1.766 4.413-1.89.698 1.554 1.802 4.888.644 6.555-.773 1.113-1.83 1.921-2.975 2.277l-.447.14.026.466c.066 1.198-.323 2.47-1.096 3.582-.906 1.303-2.245 2.206-3.582 2.414l-.531.082.024.538c.074 1.6-.685 2.818-2.321 3.726-1.386.769-3.103 1.137-4.465 1.312z" transform="translate(-310.845 -74.745)"/>
                <path class="cls-7" d="M333.839 78.021c-.867.188-2.314.64-3.684 1.688-1.087.832-2.277 1.944-3.536 3.305-1.757 1.898-2.846 3.418-3.758 5.244-.338.677-.772 1.62-1.291 2.8-.542 1.23-.966 2.562-1.297 4.07-.095.434-.176 1.675-.194 2.613 1.166-.195 2.486-.539 3.575-1.143 1.887-1.047 2.053-2.313 2.013-3.173a1.2 1.2 0 0 1 1.014-1.241c1.178-.184 2.367-.992 3.181-2.163.697-1.003 1.049-2.142.99-3.207a1.2 1.2 0 0 1 .842-1.212c1.018-.316 1.963-1.043 2.66-2.046.901-1.297.109-3.995-.515-5.535m.72-1.327s2.529 5.03.78 7.546c-.878 1.264-2.072 2.13-3.289 2.508.07 1.273-.324 2.694-1.203 3.958-1.044 1.503-2.535 2.438-3.981 2.663.188 4.1-4.562 5.4-7.92 5.73-.165-.612-.015-3.452.155-4.227.327-1.494.756-2.903 1.37-4.298a70.06 70.06 0 0 1 1.317-2.852c1.066-2.136 2.338-3.782 3.95-5.523 1.108-1.197 2.386-2.446 3.687-3.442 2.486-1.903 5.135-2.063 5.135-2.063z" transform="translate(-310.845 -74.745)"/>
            </g>
            <path id="패스_120" data-name="패스 120" class="cls-5" d="M322 99.674a2.61 2.61 0 0 0 2.82-2.819" transform="translate(-311.448 -78.643)"/>
            <path id="패스_121" data-name="패스 121" class="cls-5" d="M328.339 92.7a2.553 2.553 0 0 0 2.758-2.759" transform="translate(-312.674 -77.307)"/>
            <path id="패스_122" data-name="패스 122" class="cls-5" d="M333.711 85.3a2.375 2.375 0 0 0 2.566-2.566" transform="translate(-313.713 -75.913)"/>
        </g>
    </g>
</svg>
