<svg xmlns="http://www.w3.org/2000/svg" width="20" height="20" viewBox="0 0 20 20">
    <g fill="none" fill-rule="evenodd">
        <g>
            <g>
                <g>
                    <g>
                        <path d="M0 0H20V20H0z" transform="translate(-16 -438) translate(0 88) translate(0 292) translate(16 58)"/>
                        <path fill="#AA8153" fill-rule="nonzero" d="M10.727.68c1.137 0 1.886.35 2.344 1.222.956 1.538 1.515 2.44 1.691 2.728l.152.265c.222.423.386.915.386 1.405 0 .89-.397 1.81-1.169 2.354v4.59c0 .788-.624 1.426-1.41 1.494l-.14.007h-9.4c-.804 0-1.472-.595-1.544-1.363l-.006-.137V8.643l.007-.09C.948 8.044.5 7.224.5 6.298c.004-.657.182-1.129.539-1.667.016-.025.193-.285.234-.35L2.76 1.9C3.302 1.034 4.076.694 5.214.68zM5.595 7.894l-.056.08c-.48.639-1.225 1.07-2.069 1.12L3.3 9.1c-.23 0-.455-.028-.67-.08v4.225c0 .24.191.448.45.491l.1.009H7.4V11.5c0-.276.224-.5.5-.5.245 0 .45.177.492.41l.008.09v2.244h4.18c.275 0 .496-.18.542-.411l.009-.088V9.08c-.197.04-.408.062-.631.062-1.007 0-1.76-.481-2.23-1.13l-.073-.106-.065.096c-.437.592-1.12 1.035-2.027 1.09l-.198.007c-.916 0-1.732-.433-2.245-1.112l-.067-.094zm5.132-6.214H5.225c-.826.01-1.278.208-1.618.75L2.12 4.814c-.053.084-.24.358-.248.37l-.102.161c-.186.315-.268.585-.27.956 0 .994.806 1.8 1.8 1.8.987 0 1.8-.817 1.8-1.8 0-.667 1-.667 1 0 0 1.01.808 1.8 1.807 1.8.659 0 1.116-.272 1.431-.753.23-.351.362-.809.362-1.047l.009-.105c.099-.56.991-.525.991.105 0 .8.66 1.843 1.8 1.843 1.177 0 1.8-.945 1.8-1.843 0-.34-.159-.756-.346-1.075l-1.75-2.826c-.28-.532-.68-.719-1.477-.719z" transform="translate(-16 -438) translate(0 88) translate(0 292) translate(16 58) translate(2.07 2.5)"/>
                    </g>
                </g>
            </g>
        </g>
    </g>
</svg>
