<svg xmlns="http://www.w3.org/2000/svg" width="40" height="40">
    <defs>
        <style>
            .cls-3{fill:none;stroke-linecap:round;stroke-miterlimit:10;stroke:#333;stroke-width:1.2px}
        </style>
    </defs>
    <g id="icon-40-cow" transform="translate(.99)">
        <g id="그룹_72" data-name="그룹 72" transform="translate(.01 8.246)">
            <g id="패스_107" data-name="패스 107" style="fill:none;stroke-linecap:round;stroke-miterlimit:10">
                <path d="M100.31 39.173c1.674-.136 5.087-.106 5.988 2.239a.637.637 0 0 0 .585.434h18.672a.66.66 0 0 1 .095.006 4.964 4.964 0 0 1 4.169 3.868v16.924a.654.654 0 0 1-.654.653h-.824a.654.654 0 0 1-.518-.256l-2.776-3.615a.654.654 0 0 0-1.124.152l-1.344 3.31a.653.653 0 0 1-.606.408h-.732a.653.653 0 0 1-.645-.551l-.862-5.4a.654.654 0 0 0-.645-.551h-5.032a.653.653 0 0 0-.647.564l-.743 5.377a.653.653 0 0 1-.647.564h-.951a.652.652 0 0 1-.593-.379l-1.149-2.482a.654.654 0 0 0-1.069-.174l-2.028 2.147a2.832 2.832 0 0 1-2.059.889.653.653 0 0 1-.653-.647l-.126-10.688c0-2.145-5.309-2.85-5.309-2.85a.655.655 0 0 1-.5-.231l-1.354-1.6a.654.654 0 0 1 .032-.881l1.688-1.712 1.61-1.633.8-.809a.654.654 0 0 0 .119-.752l-.689-1.38a.651.651 0 0 1 .521-.944z" style="stroke:none" transform="translate(-96.074 -39.128)"/>
                <path d="m101.397 40.328-.162.001.315.63c.355.71.219 1.567-.338 2.132l-3.745 3.798.891 1.05c.373.056 1.559.253 2.76.656 2.3.77 3.468 1.9 3.473 3.358l.118 10.052a1.64 1.64 0 0 0 .648-.42l2.029-2.148c.354-.374.832-.58 1.345-.58.72 0 1.38.421 1.684 1.075l1.003 2.165h.124l.679-4.906a1.862 1.862 0 0 1 1.835-1.599h5.033c.916 0 1.686.657 1.83 1.562l.76 4.762 1.131-2.787a1.846 1.846 0 0 1 1.72-1.158c.578 0 1.113.264 1.468.725l2.612 3.401h.008V45.856c-.24-.986-.782-1.743-1.612-2.25a4.255 4.255 0 0 0-1.487-.56h-18.636c-.755 0-1.425-.473-1.705-1.204-.506-1.317-2.586-1.514-3.78-1.514m0-1.2c1.769 0 4.166.375 4.9 2.284.097.251.315.434.585.434h18.672a.66.66 0 0 1 .095.006c.436.06 3.462.596 4.168 3.868v16.924c0 .36-.292.653-.654.653h-.823a.654.654 0 0 1-.519-.256l-2.775-3.614a.654.654 0 0 0-1.124.152l-1.344 3.31a.653.653 0 0 1-.605.408h-.732a.653.653 0 0 1-.645-.55l-.863-5.404a.654.654 0 0 0-.645-.55h-5.033a.653.653 0 0 0-.647.564l-.743 5.376a.653.653 0 0 1-.647.564h-.95a.652.652 0 0 1-.594-.38l-1.149-2.481a.654.654 0 0 0-1.069-.174l-2.027 2.147a2.832 2.832 0 0 1-2.06.888.653.653 0 0 1-.653-.647l-.126-10.688c0-2.145-5.31-2.85-5.31-2.85a.655.655 0 0 1-.498-.231l-1.354-1.597a.654.654 0 0 1 .032-.881l4.096-4.155a.654.654 0 0 0 .12-.752l-.69-1.38a.651.651 0 0 1 .523-.943c.311-.025.683-.045 1.087-.045z" style="fill:#333;stroke:none" transform="translate(-96.074 -39.128)"/>
            </g>
            <path id="패스_108" data-name="패스 108" class="cls-3" d="M127.262 42.933s6.714-.014 7.545 5.946v7.1" transform="translate(-99.155 -39.504)"/>
            <path id="패스_109" data-name="패스 109" class="cls-3" d="M137.617 56.872a2.175 2.175 0 0 0-1.983-2.3" transform="translate(-99.982 -40.654)"/>
            <path id="선_27" data-name="선 27" class="cls-3" transform="translate(11.536 15.067)" d="m0 0 3.334 7.749"/>
            <circle id="Oval" cx=".734" cy=".734" r=".734" transform="translate(5.985 4.187)" style="fill:#333"/>
            <path id="선_28" data-name="선 28" class="cls-3" transform="translate(25.662 15.067)" d="M0 8.104 3.379 0"/>
            <path id="패스_110" data-name="패스 110" class="cls-3" d="M100.088 46.879s-.677-1.337-1.424-.953" transform="translate(-96.33 -39.793)"/>
        </g>
    </g>
</svg>
