<svg xmlns="http://www.w3.org/2000/svg" width="20" height="20" viewBox="0 0 20 20">
    <g fill="none" fill-rule="evenodd">
        <g>
            <g>
                <g>
                    <path fill="#333" d="M14.5 5.9h.027l.042.004.028.004.035.007c.012.002.024.005.037.01.021.005.042.013.063.021l.026.012c.024.011.046.024.067.038.035.022.068.049.1.08l-.08-.066c.057.04.106.088.145.144l.015.021c.013.021.026.043.037.067l.012.027c.008.02.016.04.022.062l.01.038c.009.041.014.086.014.131l-.004-.068c.002.013.003.026.003.04l.001.028v7l-.008.097c-.046.285-.294.503-.592.503l-.097-.008c-.285-.046-.503-.294-.503-.592l-.001-5.551-7.975 7.975-.083.07c-.234.162-.557.139-.765-.07-.235-.234-.235-.614 0-.848l7.975-7.977L7.5 7.1l-.097-.008C7.118 7.046 6.9 6.798 6.9 6.5c0-.331.269-.6.6-.6h7z" transform="translate(-214 -360) translate(24 312) translate(190 48)"/>
                </g>
            </g>
        </g>
    </g>
</svg>
