<svg xmlns="http://www.w3.org/2000/svg" width="40" height="40">
    <defs>
        <style>
            .cls-3{stroke:#333;stroke-linecap:round;stroke-width:1.2px;stroke-linejoin:round;fill:none}
        </style>
    </defs>
    <g id="icon-40-peach" transform="translate(-.01)">
        <g id="그룹_85" data-name="그룹 85" transform="translate(10.402 7.2)">
            <path id="패스_146" data-name="패스 146" d="M281.479 146.206a6.156 6.156 0 0 1 .953 4.337 4.918 4.918 0 0 1-5.012-6.14 6.163 6.163 0 0 1 4.059 1.803z" transform="translate(-273.042 -144.403)" style="stroke-linejoin:round;stroke:#333;stroke-linecap:round;stroke-width:1.2px;fill:#fafafa"/>
            <path id="패스_147" data-name="패스 147" class="cls-3" d="M286.052 149.553c-.035 0-.069.006-.1.007a5.675 5.675 0 0 0-2.462.616 5.684 5.684 0 0 0-2.462-.616c-.036 0-.069-.007-.1-.007-3.968 0-7.184 4.227-7.184 9.442 0 6.684 9.749 8.739 9.749 8.739s9.749-2.492 9.749-8.739c-.006-5.215-3.222-9.442-7.19-9.442z" transform="translate(-273.737 -143.413)"/>
            <path id="패스_148" data-name="패스 148" class="cls-3" d="M285.212 155.407a5.458 5.458 0 0 0-3.28-4.345s-.936-5.526 2.67-6.116" transform="translate(-272.183 -144.299)"/>
            <path id="Oval-2" d="M282.518 161.693a4.184 4.184 0 0 0 5.12-2.965" transform="translate(-272.05 -141.65)" style="stroke-miterlimit:10;fill:none;stroke:#333;stroke-linecap:round;stroke-width:1.2px"/>
        </g>
    </g>
</svg>
