<svg xmlns="http://www.w3.org/2000/svg" width="40" height="40">
    <defs>
        <style>
            .cls-3{fill:none;stroke:#333;stroke-miterlimit:10;stroke-linecap:round;stroke-width:1.2px}
        </style>
    </defs>
    <g id="icon-40-sulfurous_acids" data-name="icon-40-sulfurous acids" transform="translate(-.01)">
        <g id="icon_sulfurous_acids" data-name="icon_sulfurous acids" transform="translate(13.123 9.2)">
            <path id="Rectangle_Copy-4" data-name="Rectangle Copy-4" d="M347.589 152.022a1.071 1.071 0 0 1 .984-1.141h11.841a1.033 1.033 0 0 1 .948 1.1v2.319c0 4.411-3.083 7.986-6.887 7.986-3.8 0-6.887-3.575-6.887-7.986z" transform="translate(-347.589 -150.881)" style="fill:none;stroke:#333;stroke-miterlimit:10"/>
            <path id="선_43" data-name="선 43" class="cls-3" transform="translate(6.887 11.806)" d="M0 0v9.604"/>
            <path id="선_44" data-name="선 44" class="cls-3" transform="translate(4.634 21.41)" d="M4.505 0H0"/>
            <path id="패스_149" data-name="패스 149" class="cls-3" d="M347.995 154.593s2.3-1.574 7.272-.111c1.4.413 4.786.885 5.863-.882" transform="translate(-347.596 -150.925)"/>
        </g>
    </g>
</svg>
