<svg xmlns="http://www.w3.org/2000/svg" id="Ic_apple_50" width="50" height="50" viewBox="0 0 50 50">
    <defs>
        <clipPath id="clip-path">
            <circle id="Oval" cx="25" cy="25" r="25" fill="#fff"/>
        </clipPath>
        <style>
            .cls-3{fill:#fff;fill-rule:evenodd}
        </style>
    </defs>
    <circle id="Oval-2" cx="25" cy="25" r="25"/>
    <g id="Group_12" clip-path="url(#clip-path)">
        <g id="그룹_2" transform="translate(-406.487 -203.572)">
            <path id="패스_5" d="M439.561 267.3c-1.048-1.015-1.961-2-3.889-2.1-1.556-.068-2.266.879-3.72.913-1.353.034-1.251-1.048-4.058-.744-2.435.271-4.566 2.706-4.4 6.121.169 3.686 2.739 8.793 5.14 8.793 1.691-.034 2.1-.845 3.483-.845 1.725 0 2.13 1.014 3.483.812 2.334-.338 4.532-4.025 4.532-5.208a4.687 4.687 0 0 1-2.739-3.754 4.542 4.542 0 0 1 2.168-3.988z" class="cls-3" transform="translate(0 -43.165)"/>
            <path id="패스_6" d="M508.616 222.306a4.493 4.493 0 0 1 3.957-4.734c.372 2.266-1.488 4.87-3.957 4.734z" class="cls-3" transform="translate(-77.138)"/>
        </g>
    </g>
</svg>
