<svg xmlns="http://www.w3.org/2000/svg" width="12" height="12" viewBox="0 0 12 12">
    <defs>
        <filter id="wzp00gojaa">
            <feColorMatrix in="SourceGraphic" values="0 0 0 0 0.521569 0 0 0 0 0.521569 0 0 0 0 0.521569 0 0 0 1.000000 0"/>
        </filter>
    </defs>
    <g fill="none" fill-rule="evenodd" filter="url(#wzp00gojaa)">
        <path fill="#000" d="M9.14 5.936v.128c0 .13-.017.193-.048.252-.031.058-.078.105-.136.136-.059.031-.122.048-.252.048H3.576c-.13 0-.193-.017-.252-.048-.058-.031-.105-.078-.136-.136-.031-.059-.048-.122-.048-.252v-.128c0-.13.017-.193.048-.252.031-.058.078-.105.136-.136.059-.031.122-.048.252-.048h5.128c.13 0 .193.017.252.048.058.031.105.078.136.136.031.059.048.122.048.252z"/>
    </g>
</svg>
