<svg xmlns="http://www.w3.org/2000/svg" width="14" height="14" viewBox="0 0 14 14">
    <g fill="none" fill-rule="evenodd">
        <path d="M0 0H14V14H0z"/>
        <path fill="#FFF" d="M11.878 1.88c.026 1.616-.18 2.827-1.099 3.885C10 6.725 8.783 7.27 7.131 7.4L7.13 11.88h-.5V7.401c-1.653-.13-2.87-.676-3.65-1.636-.918-1.058-1.124-2.269-1.098-3.885 2.13.137 2.902.61 3.967 1.823.631.72.971 1.779 1.02 3.177h.022c.049-1.398.389-2.457 1.02-3.177 1.065-1.214 1.837-1.686 3.967-1.823z"/>
    </g>
</svg>
