<svg xmlns="http://www.w3.org/2000/svg" xmlns:xlink="http://www.w3.org/1999/xlink" width="360" height="94" viewBox="0 0 360 94">
    <defs>
        <path id="x6d2aolwia" d="M0 0H360V94H0z"/>
    </defs>
    <g fill="none" fill-rule="evenodd">
        <mask id="qj8xak3b2b" fill="#fff">
            <use xlink:href="#x6d2aolwia"/>
        </mask>
        <path fill="#F7F7F7" d="M-33 94h427V0l-5.568 5.57c-1.56 1.565-4.093 1.565-5.656.004V5.57l-2.74-2.742c-1.56-1.564-4.093-1.564-5.656-.003v.003l-2.74 2.742c-1.56 1.564-4.094 1.564-5.656.003V5.57l-2.74-2.742c-1.56-1.564-4.094-1.564-5.656-.003v.003l-2.74 2.742c-1.561 1.564-4.094 1.564-5.656.003V5.57l-2.74-2.742c-1.561-1.564-4.094-1.564-5.656-.003v.003l-2.74 2.742c-1.561 1.564-4.094 1.564-5.656.003V5.57l-2.74-2.742c-1.561-1.564-4.094-1.564-5.656-.003v.003l-2.74 2.742c-1.561 1.564-4.094 1.564-5.656.003V5.57l-2.74-2.742c-1.561-1.564-4.094-1.564-5.656-.003v.003l-2.741 2.742c-1.56 1.564-4.093 1.564-5.656.003V5.57l-2.74-2.742c-1.56-1.564-4.093-1.564-5.656-.003v.003l-2.74 2.742c-1.56 1.564-4.093 1.564-5.656.003V5.57l-2.74-2.742c-1.56-1.564-4.093-1.564-5.656-.003v.003l-2.74 2.742c-1.56 1.564-4.093 1.564-5.656.003V5.57l-2.74-2.742c-1.56-1.564-4.093-1.564-5.656-.003v.003l-2.74 2.742c-1.56 1.564-4.093 1.564-5.656.003V5.57l-2.74-2.742c-1.56-1.564-4.094-1.564-5.656-.003v.003l-2.74 2.742c-1.56 1.564-4.094 1.564-5.656.003V5.57l-2.74-2.742c-1.561-1.564-4.094-1.564-5.656-.003v.003l-2.74 2.742c-1.561 1.564-4.094 1.564-5.656.003V5.57l-2.74-2.742c-1.561-1.564-4.094-1.564-5.656-.003v.003l-2.74 2.742c-1.561 1.564-4.094 1.564-5.656.003V5.57l-2.74-2.742c-1.561-1.564-4.094-1.564-5.656-.003v.003l-2.74 2.742c-1.561 1.564-4.094 1.564-5.656.003V5.57l-2.741-2.742c-1.56-1.564-4.093-1.564-5.656-.003v.003l-2.14 2.142c-1.56 1.564-4.093 1.564-5.656.003V4.97l-2.14-2.142c-1.561-1.564-4.094-1.564-5.656-.003v.003l-2.74 2.742c-1.561 1.564-4.094 1.564-5.656.003V5.57l-2.74-2.742c-1.561-1.564-4.094-1.564-5.656-.003v.003l-2.74 2.742c-1.561 1.564-4.094 1.564-5.656.003V5.57l-2.741-2.742c-1.56-1.564-4.093-1.564-5.655-.003v.003l-2.741 2.742c-1.56 1.564-4.093 1.564-5.656.003V5.57l-2.74-2.742c-1.56-1.564-4.093-1.564-5.656-.003v.003l-2.74 2.742c-1.56 1.564-4.093 1.564-5.656.003V5.57l-2.74-2.742c-1.56-1.564-4.093-1.564-5.656-.003v.003l-2.74 2.742c-1.56 1.564-4.093 1.564-5.656.003V5.57l-2.74-2.742c-1.56-1.564-4.093-1.564-5.656-.003v.003l-2.74 2.742c-1.56 1.564-4.093 1.564-5.656.003V5.57l-2.74-2.742c-1.56-1.564-4.094-1.564-5.656-.003v.003l-2.74 2.742c-1.561 1.564-4.094 1.564-5.656.003V5.57l-2.74-2.742c-1.561-1.564-4.094-1.564-5.656-.003v.003l-2.74 2.742c-1.561 1.564-4.094 1.564-5.656.003V5.57L28.6 2.829c-1.561-1.564-4.094-1.564-5.656-.003v.003l-2.74 2.742c-1.561 1.564-4.094 1.564-5.656.003V5.57l-2.74-2.742c-1.561-1.564-4.094-1.564-5.656-.003v.003L3.412 5.571c-1.56 1.564-4.093 1.564-5.655.003V5.57l-2.741-2.742c-1.56-1.564-4.093-1.564-5.656-.003v.003l-2.74 2.742c-1.56 1.564-4.093 1.564-5.656.003V5.57l-2.74-2.742c-1.56-1.564-4.093-1.564-5.656-.003v.003L-33 8.4V94z" mask="url(#qj8xak3b2b)"/>
    </g>
</svg>
