<svg xmlns="http://www.w3.org/2000/svg" xmlns:xlink="http://www.w3.org/1999/xlink" width="48" height="48" viewBox="0 0 48 48">
    <defs>
        <path id="prefix__a" d="M28.735 13.25c1.518 0 2.75 1.231 2.75 2.75 0 .114-.007.228-.021.34l-.655 5.245c-.032.256-.02.515.036.767l2.805 12.617c.57 2.561-1.045 5.098-3.606 5.668-.339.075-.684.113-1.03.113h-11.52c-1.518 0-2.75-1.231-2.75-2.75 0-.201.023-.402.067-.598l3.344-15.003c.056-.252.068-.511.037-.767l-.657-5.293c-.188-1.507.883-2.88 2.39-3.068.112-.014.225-.021.339-.021zm3.49 23.25H16.548l-.273 1.228c-.01.045-.018.09-.023.135l-.007.137c0 .69.56 1.25 1.25 1.25h11.518c.237 0 .474-.026.705-.077 1.344-.3 2.307-1.39 2.507-2.673zm-3.49-21.75h-8.471c-.052 0-.103.003-.154.01-.685.085-1.172.709-1.087 1.394l.657 5.293c.053.426.033.859-.061 1.278L16.882 35H32.12l-2.74-12.322c-.074-.336-.102-.68-.083-1.023l.023-.256.655-5.244c.006-.051.01-.103.01-.155 0-.69-.56-1.25-1.25-1.25zm-1.098-9.32c1.13 0 2.146.693 2.56 1.745l.965 2.457c.08.204.12.42.12.64 0 .966-.783 1.75-1.75 1.75H19.468c-.219 0-.436-.041-.64-.121-.9-.354-1.342-1.37-.989-2.27l.966-2.456c.413-1.052 1.428-1.744 2.56-1.744h6.273zm0 1.5h-6.274c-.514 0-.975.315-1.163.794l-.965 2.456c-.05.129.012.274.14.324.03.012.061.018.092.018h10.066c.138 0 .25-.112.25-.25 0-.032-.006-.063-.018-.092L28.8 7.724c-.188-.479-.65-.793-1.163-.793z"/>
    </defs>
    <g fill="none" fill-rule="evenodd">
        <path d="M0 0H48V48H0z" opacity=".2"/>
        <use fill="#ADADAD" xlink:href="#prefix__a"/>
    </g>
</svg>
