<svg xmlns="http://www.w3.org/2000/svg" width="24" height="24" viewBox="0 0 24 24">
    <g fill="none" fill-rule="evenodd">
        <path d="M0 0H24V24H0z"/>
        <path fill="#FFF" d="M19.5 18.5c0 .828-.672 1.5-1.5 1.5H6c-.828 0-1.5-.672-1.5-1.5V6.8c0-.828.672-1.5 1.5-1.5l2.599-.001L8.6 4.5c0-.276.224-.5.5-.5s.5.224.5.5l-.001.799h4.8L14.4 4.5c0-.276.224-.5.5-.5s.5.224.5.5l-.001.799L18 5.3c.828 0 1.5.672 1.5 1.5v11.7zm-1-9.001h-13V18.5c0 .245.177.45.41.492L6 19h12c.245 0 .45-.177.492-.41l.008-.09V9.499zm-3.21 2.347c.169.178.181.448.042.64l-.06.067-3.798 3.618c-.176.167-.443.182-.634.045l-.068-.058-1.766-1.809c-.193-.197-.189-.514.009-.707.175-.171.445-.187.638-.05l.069.059 1.42 1.454 3.44-3.276c.2-.19.517-.183.707.017zM18 6.3l-2.601-.001.001.801c0 .276-.224.5-.5.5s-.5-.224-.5-.5l-.001-.801h-4.8L9.6 7.1c0 .276-.224.5-.5.5s-.5-.224-.5-.5l-.001-.801L6 6.3c-.245 0-.45.177-.492.41L5.5 6.8v1.699h13V6.8c0-.245-.177-.45-.41-.492L18 6.3z"/>
    </g>
</svg>
