<svg xmlns="http://www.w3.org/2000/svg" width="24" height="24" viewBox="0 0 24 24">
    <g fill="none" fill-rule="evenodd">
        <path d="M0 0H24V24H0z"/>
        <path fill="#333333" d="M15.1 3c.331 0 .6.269.6.6l-.001.799L18.5 4.4c.835 0 1.52.639 1.593 1.454L20.1 6v13c0 .835-.639 1.52-1.454 1.593l-.146.007h-13c-.835 0-1.52-.639-1.593-1.454L3.9 19V6c0-.835.639-1.52 1.454-1.593L5.5 4.4l3-.001V3.6c0-.331.269-.6.6-.6.331 0 .6.269.6.6v.799h4.799L14.5 3.6c0-.331.269-.6.6-.6zm3.799 6.099h-13.8L5.1 19c0 .193.137.355.32.392l.08.008h13c.193 0 .355-.137.392-.32L18.9 19l-.001-9.901zm-3.303 2.482c.206.21.225.534.06.766l-.07.082-4.098 4c-.24.234-.624.227-.854-.016l-1.902-2c-.228-.24-.219-.62.021-.848.24-.228.62-.219.848.022l1.483 1.558 3.664-3.574c.237-.232.617-.227.848.01zM8.5 5.599l-3 .001c-.193 0-.355.137-.392.32L5.1 6l-.001 1.899h13.8L18.9 6c0-.193-.137-.355-.32-.392L18.5 5.6l-2.801-.001.001.801c0 .331-.269.6-.6.6-.331 0-.6-.269-.6-.6l-.001-.801H9.7V6.4c0 .331-.269.6-.6.6-.331 0-.6-.269-.6-.6v-.801z"/>
    </g>
</svg>
