<svg xmlns="http://www.w3.org/2000/svg" width="20" height="20" viewBox="0 0 20 20">
    <g fill="none" fill-rule="evenodd">
        <path d="M0 0H20V20H0z"/>
        <path fill="#EBEBEB" d="M10 0c5.523 0 10 4.477 10 10s-4.477 10-10 10S0 15.523 0 10 4.477 0 10 0zm5.061 11.574c-.235-.145-.543-.07-.687.165C13.32 13.459 11.88 14.3 10 14.3c-1.88 0-3.32-.84-4.374-2.561-.144-.236-.452-.31-.687-.165-.236.144-.31.452-.165.687C6.006 14.273 7.765 15.3 10 15.3s3.994-1.027 5.226-3.039c.145-.235.07-.543-.165-.687zM6.4 6.8c-.663 0-1.2.537-1.2 1.2 0 .663.537 1.2 1.2 1.2.663 0 1.2-.537 1.2-1.2 0-.663-.537-1.2-1.2-1.2zm7.2 0c-.663 0-1.2.537-1.2 1.2 0 .663.537 1.2 1.2 1.2.663 0 1.2-.537 1.2-1.2 0-.663-.537-1.2-1.2-1.2z"/>
    </g>
</svg>
