<svg xmlns="http://www.w3.org/2000/svg" xmlns:xlink="http://www.w3.org/1999/xlink" width="48" height="48" viewBox="0 0 48 48">
    <defs>
        <path id="prefix__a" d="M42.25 18.189c.414 0 .75.335.75.75 0 .414-.336.75-.75.75l-2.5-.001V30c0 4.746-3.779 8.61-8.492 8.746L31 38.75H11c-1.519 0-2.75-1.231-2.75-2.75V19.688h-2.5c-.414 0-.75-.335-.75-.75 0-.414.336-.75.75-.75h36.5zm-4 1.561H9.75V36c0 .647.492 1.18 1.122 1.244l.128.006h20c4.004 0 7.25-3.246 7.25-7.25V19.75zM24.48 4.46c.298-.287.772-.279 1.06.02.287.298.279.772-.02 1.06-1.326 1.279-1.77 2.099-1.77 3.96 0 1.9.544 2.926 1.733 3.926.317.267.358.74.09 1.057-.266.317-.74.358-1.056.09-1.508-1.269-2.267-2.7-2.267-5.073 0-2.33.636-3.504 2.23-5.04zm4.05 1.956c.322-.26.794-.209 1.054.114.26.322.209.795-.114 1.054l-.084.079c-.337.353-.636 1.156-.636 1.837 0 .683.373 1.57.776 1.965l.073.084c.22.291.2.708-.064.977-.29.295-.765.3-1.06.009-.69-.677-1.225-1.95-1.225-3.035 0-1.161.524-2.476 1.28-3.084zm-10 0c.322-.26.794-.209 1.054.114.26.322.209.795-.114 1.054l-.084.079c-.337.353-.636 1.156-.636 1.837 0 .683.373 1.57.776 1.965l.073.084c.22.291.2.708-.064.977-.29.295-.765.3-1.06.009-.69-.677-1.225-1.95-1.225-3.035 0-1.161.524-2.476 1.28-3.084z"/>
    </defs>
    <g fill="none" fill-rule="evenodd">
        <path d="M0 0H48V48H0z"/>
        <use fill="#ADADAD" xlink:href="#prefix__a"/>
    </g>
</svg>
