<svg xmlns="http://www.w3.org/2000/svg" width="24" height="24" viewBox="0 0 24 24">
    <g fill="none" fill-rule="evenodd">
        <path d="M0 0H24V24H0z"/>
        <path fill="#000" d="M15.119 4.123c1.237 0 2.046.378 2.543 1.324 1.062 1.708 1.68 2.705 1.87 3.017l.163.283c.242.461.42.997.42 1.528 0 .97-.434 1.972-1.278 2.562l.003.025v5.11c0 .846-.67 1.534-1.515 1.604l-.143.006H6.818c-.863 0-1.579-.643-1.652-1.471l-.006-.14v-5.11c0-.034.004-.068.01-.1-.78-.55-1.29-1.46-1.29-2.489.004-.714.197-1.225.586-1.812.017-.026.214-.314.26-.387l1.64-2.627c.59-.941 1.426-1.31 2.667-1.323zm-5.666 7.82l-.063.094c-.52.725-1.35 1.217-2.293 1.272l-.178.005c-.262 0-.517-.033-.76-.095l.001 4.752c0 .302.24.56.56.604l.098.007h4.681l.001-2.652c0-.276.224-.5.5-.5s.5.224.5.5l-.001 2.651h4.683c.335 0 .605-.23.651-.52l.007-.09v-4.694c-.237.055-.492.085-.764.085-1.124 0-1.955-.554-2.462-1.287l-.079-.12-.072.109c-.473.674-1.232 1.183-2.25 1.244l-.208.006c-1.019 0-1.924-.493-2.477-1.261l-.075-.11zm5.666-6.82H9.044c-.929.01-1.444.237-1.83.853L5.54 8.656c-.053.081-.139.208-.192.286l-.149.23c-.219.365-.316.675-.318 1.103 0 1.126.913 2.04 2.04 2.04 1.118 0 2.038-.926 2.038-2.04 0-.666 1-.666 1 0 0 1.144.916 2.04 2.047 2.04.746 0 1.267-.31 1.624-.855.259-.397.408-.912.408-1.185l.009-.105c.099-.56.99-.524.99.105l.006.093c.03.273.176.734.407 1.098.362.572.884.896 1.627.896 1.333 0 2.04-1.07 2.04-2.087 0-.386-.179-.854-.39-1.213l-1.93-3.118c-.32-.607-.78-.82-1.677-.82z"/>
    </g>
</svg>
