<svg xmlns="http://www.w3.org/2000/svg" width="24" height="24" viewBox="0 0 24 24">
    <defs>
        <filter id="kj3sl36vfa">
            <feColorMatrix in="SourceGraphic" values="0 0 0 0 0.666667 0 0 0 0 0.505882 0 0 0 0 0.325490 0 0 0 1.000000 0"/>
        </filter>
    </defs>
    <g fill="none" fill-rule="evenodd" filter="url(#kj3sl36vfa)" transform="translate(-91 -132)">
        <g>
            <path d="M0 0H24V24H0z" transform="translate(91 132)"/>
            <path fill="#EBEBEB" d="M15.356 3.817c1.363 0 2.263.42 2.813 1.465 1.055 1.699 1.707 2.75 1.97 3.176l.228.392c.273.513.476 1.112.476 1.71 0 1.067-.477 2.171-1.402 2.824l-.001 5.51c0 .95-.757 1.719-1.708 1.793l-.152.006H6.3c-.97 0-1.776-.72-1.854-1.651l-.006-.149v-5.522c0-.036.003-.072.01-.107-.83-.611-1.367-1.596-1.367-2.707.005-.789.218-1.355.647-2.001.019-.03.232-.342.281-.42L5.794 5.28c.652-1.041 1.58-1.45 2.946-1.464zm-6.159 8.656l-.044.065c-.579.788-1.492 1.32-2.526 1.377l-.184.005c-.277 0-.546-.034-.804-.097l.001 5.07c0 .296.239.55.561.594l.099.006h5.063V16.8c0-.331.269-.6.6-.6.298 0 .546.218.592.503l.008.097v2.693h5.017c.337 0 .607-.227.653-.512l.007-.088v-4.996c-.236.048-.489.074-.757.074-1.232 0-2.147-.6-2.708-1.401l-.055-.082-.045.07c-.527.738-1.365 1.293-2.49 1.356l-.214.006c-1.113 0-2.103-.533-2.717-1.365l-.057-.082zm6.159-7.457H8.753c-.991.011-1.534.25-1.941.9l-1.785 2.86c-.048.075-.186.279-.256.382l-.15.231c-.233.389-.335.716-.338 1.171 0 1.193.967 2.16 2.16 2.16 1.185 0 2.16-.981 2.16-2.16 0-.8 1.2-.8 1.2 0 0 1.211.97 2.16 2.168 2.16.791 0 1.34-.326 1.718-.904.275-.42.434-.97.434-1.256l.008-.109c.104-.69 1.192-.653 1.192.109l.006.097c.032.288.188.78.433 1.167.384.606.934.947 1.721.947 1.412 0 2.16-1.134 2.16-2.211 0-.407-.19-.908-.415-1.29l-2.1-3.391c-.336-.639-.815-.863-1.772-.863z" transform="translate(91 132)"/>
        </g>
    </g>
</svg>
