<svg xmlns="http://www.w3.org/2000/svg" xmlns:xlink="http://www.w3.org/1999/xlink" width="48" height="48" viewBox="0 0 48 48">
    <defs>
        <path id="prefix__a" d="M0 0H48V48H0z"/>
    </defs>
    <g fill="none" fill-rule="evenodd" opacity=".72">
        <path d="M0 0H48V48H0z"/>
        <mask id="prefix__b" fill="#fff">
            <use xlink:href="#prefix__a"/>
        </mask>
        <path fill="#FFF" d="M19.2 39.3c-1.823 0-3.3-1.477-3.3-3.3V20.1h-2.49c-1.11 0-2.019-.86-2.096-1.95L11.31 18c0-.501.18-.986.506-1.367l4.065-4.743c1.083-1.263 2.664-1.99 4.328-1.99H52.8c.497 0 .9.403.9.9v28.5zm20.4-16.2c1.16 0 2.1.94 2.1 2.1v12.299l10.2.001V20.1H17.7V36c0 .777.59 1.415 1.347 1.492l.153.008 3.9-.001V25.2c0-1.11.86-2.018 1.95-2.095l.15-.005zm0 1.8h-6.3v12.6h6.6V25.2c0-.142-.099-.261-.231-.292L39.6 24.9zm-8.1 0h-6.3c-.166 0-.3.134-.3.3v12.3h6.6V24.9zm20.4-13.2H20.208c-1.057 0-2.066.429-2.798 1.182l-.163.18-4.066 4.743c-.046.054-.072.123-.072.195 0 .166.134.3.3.3H15.9l36-.001V11.7z" mask="url(#prefix__b)"/>
    </g>
</svg>
