<svg xmlns="http://www.w3.org/2000/svg" xmlns:xlink="http://www.w3.org/1999/xlink" width="48" height="48" viewBox="0 0 48 48">
    <defs>
        <path id="prefix__a" d="M25.25 37c.414 0 .75.336.75.75s-.336.75-.75.75h-6.5c-.414 0-.75-.336-.75-.75s.336-.75.75-.75h6.5zM41 13.25c1.463 0 2.658 1.142 2.745 2.582l.005.168v.5c0 2.827-2.234 5.132-5.034 5.246l-.216.004h-1.853c-.866 7.322-7.093 13-14.647 13-8.146 0-14.75-6.604-14.75-14.75v-4c0-1.519 1.231-2.75 2.75-2.75h31zm-5.75 1.5H10c-.69 0-1.25.56-1.25 1.25v4c0 7.318 5.932 13.25 13.25 13.25S35.25 27.318 35.25 20v-5.25zm5.75 0h-4.25V20c0 .084 0 .167-.002.25H38.5c2.004 0 3.641-1.572 3.745-3.55l.005-.2V16c0-.647-.492-1.18-1.122-1.244L41 14.75z"/>
    </defs>
    <g fill="none" fill-rule="evenodd">
        <path d="M0 0H48V48H0z"/>
        <use fill="#ADADAD" xlink:href="#prefix__a"/>
    </g>
</svg>
