<svg xmlns="http://www.w3.org/2000/svg" xmlns:xlink="http://www.w3.org/1999/xlink" width="200" height="40" viewBox="0 0 200 40">
    <defs>
        <path id="z0vw7ys33a" d="M20.014 28.764L9.728 34.172 11.693 22.718 3.371 14.606 14.871 12.935 20.014 2.514 25.157 12.935 36.658 14.606 28.336 22.718 30.301 34.172z"/>
        <path id="3aq7m9j89c" d="M20.014 28.764L9.728 34.172 11.693 22.718 3.371 14.606 14.871 12.935 20.014 2.514 25.157 12.935 36.658 14.606 28.336 22.718 30.301 34.172z"/>
        <path id="yr4vadymed" d="M20.014 28.764L9.728 34.172 11.693 22.718 3.371 14.606 14.871 12.935 20.014 2.514 25.157 12.935 36.658 14.606 28.336 22.718 30.301 34.172z"/>
        <path id="6tdcmm3ome" d="M20.014 28.764L9.728 34.172 11.693 22.718 3.371 14.606 14.871 12.935 20.014 2.514 25.157 12.935 36.658 14.606 28.336 22.718 30.301 34.172z"/>
        <path id="qwrr6995lf" d="M20.014 28.764L9.728 34.172 11.693 22.718 3.371 14.606 14.871 12.935 20.014 2.514 25.157 12.935 36.658 14.606 28.336 22.718 30.301 34.172z"/>
        <linearGradient id="pt39mnb0mb" x1="100%" x2="0%" y1="53.342%" y2="53.342%">
            <stop offset="0%" stop-color="#E0E0E0"/>
            <stop offset="50%" stop-color="#E0E0E0"/>
            <stop offset="50.007%" stop-color="#80C342"/>
            <stop offset="100%" stop-color="#80C342"/>
        </linearGradient>
    </defs>
    <g fill="none" fill-rule="evenodd">
        <path d="M0 0H40V40H0z"/>
        <use fill="url(#pt39mnb0mb)" xlink:href="#z0vw7ys33a"/>
        <g transform="translate(40)">
            <path d="M0 0H40V40H0z"/>
            <use fill="#E0E0E0" xlink:href="#3aq7m9j89c"/>
        </g>
        <g transform="translate(80)">
            <path d="M0 0H40V40H0z"/>
            <use fill="#E0E0E0" xlink:href="#yr4vadymed"/>
        </g>
        <g transform="translate(120)">
            <path d="M0 0H40V40H0z"/>
            <use fill="#E0E0E0" xlink:href="#6tdcmm3ome"/>
        </g>
        <g transform="translate(160)">
            <path d="M0 0H40V40H0z"/>
            <use fill="#E0E0E0" xlink:href="#qwrr6995lf"/>
        </g>
    </g>
</svg>
