<svg xmlns="http://www.w3.org/2000/svg" xmlns:xlink="http://www.w3.org/1999/xlink" width="200" height="40" viewBox="0 0 200 40">
    <defs>
        <path id="7claelju7a" d="M20.014 28.764L9.728 34.172 11.693 22.718 3.371 14.606 14.871 12.935 20.014 2.514 25.157 12.935 36.658 14.606 28.336 22.718 30.301 34.172z"/>
        <path id="9676umd2sb" d="M20.014 28.764L9.728 34.172 11.693 22.718 3.371 14.606 14.871 12.935 20.014 2.514 25.157 12.935 36.658 14.606 28.336 22.718 30.301 34.172z"/>
        <path id="qf049pumdc" d="M20.014 28.764L9.728 34.172 11.693 22.718 3.371 14.606 14.871 12.935 20.014 2.514 25.157 12.935 36.658 14.606 28.336 22.718 30.301 34.172z"/>
        <path id="gmx2kdx6vd" d="M20.014 28.764L9.728 34.172 11.693 22.718 3.371 14.606 14.871 12.935 20.014 2.514 25.157 12.935 36.658 14.606 28.336 22.718 30.301 34.172z"/>
        <path id="6d5dxhiyme" d="M20.014 28.764L9.728 34.172 11.693 22.718 3.371 14.606 14.871 12.935 20.014 2.514 25.157 12.935 36.658 14.606 28.336 22.718 30.301 34.172z"/>
    </defs>
    <g fill="none" fill-rule="evenodd">
        <path d="M0 0H40V40H0z"/>
        <use fill="#80C342" xlink:href="#7claelju7a"/>
        <g transform="translate(40)">
            <path d="M0 0H40V40H0z"/>
            <use fill="#E0E0E0" xlink:href="#9676umd2sb"/>
        </g>
        <g transform="translate(80)">
            <path d="M0 0H40V40H0z"/>
            <use fill="#E0E0E0" xlink:href="#qf049pumdc"/>
        </g>
        <g transform="translate(120)">
            <path d="M0 0H40V40H0z"/>
            <use fill="#E0E0E0" xlink:href="#gmx2kdx6vd"/>
        </g>
        <g transform="translate(160)">
            <path d="M0 0H40V40H0z"/>
            <use fill="#E0E0E0" xlink:href="#6d5dxhiyme"/>
        </g>
    </g>
</svg>
