<svg xmlns="http://www.w3.org/2000/svg" width="105.968" height="28.289" viewBox="0 0 105.968 28.289">
    <defs>
        <style>
            .cls-1{fill:#fff}
        </style>
    </defs>
    <g id="apple" transform="translate(-43.103 -79.881)">
        <path id="패스_23" d="M59.9 90.187a5.612 5.612 0 0 1 2.677-4.711 5.748 5.748 0 0 0-4.531-2.45c-1.906-.2-3.755 1.139-4.726 1.139-.99 0-2.486-1.12-4.094-1.086a6.034 6.034 0 0 0-5.081 3.095c-2.194 3.8-.557 9.387 1.547 12.459 1.051 1.505 2.28 3.186 3.89 3.127 1.574-.065 2.164-1.006 4.064-1.006 1.881 0 2.433 1.006 4.075.965 1.689-.025 2.753-1.511 3.768-3.03a12.374 12.374 0 0 0 1.725-3.509 5.431 5.431 0 0 1-3.314-4.993z" class="cls-1" transform="translate(0 2.838)"/>
        <path id="패스_24" d="M52.044 83.842a5.528 5.528 0 0 0 1.265-3.961 5.623 5.623 0 0 0-3.64 1.883 5.262 5.262 0 0 0-1.3 3.816 4.65 4.65 0 0 0 3.675-1.738z" class="cls-1" transform="translate(4.757 0)"/>
        <path id="패스_25" d="M69.03 98.859h-2.2l-1.206-3.789h-4.19l-1.147 3.789h-2.142l4.15-12.894h2.564zm-3.768-5.379l-1.089-3.364q-.173-.516-.653-2.43h-.038c-.128.548-.33 1.358-.612 2.431L61.8 93.48z" class="cls-1" transform="translate(13.658 5.524)"/>
        <path id="패스_26" d="M73.706 92.475a5.291 5.291 0 0 1-1.28 3.749 3.754 3.754 0 0 1-2.852 1.225 2.849 2.849 0 0 1-2.639-1.32h-.04v4.9H64.83V91q0-1.491-.078-3.06h1.818l.114 1.473h.038a3.674 3.674 0 0 1 5.882-.364 5.121 5.121 0 0 1 1.102 3.426zm-2.1.076a3.843 3.843 0 0 0-.611-2.238 2.115 2.115 0 0 0-1.8-.92 2.143 2.143 0 0 0-1.395.507 2.352 2.352 0 0 0-.813 1.33 2.775 2.775 0 0 0-.1.63v1.551a2.48 2.48 0 0 0 .622 1.711 2.067 2.067 0 0 0 1.618.7 2.118 2.118 0 0 0 1.816-.9 3.959 3.959 0 0 0 .657-2.371z" class="cls-1" transform="translate(19.656 7.144)"/>
        <path id="패스_27" d="M79.311 92.475a5.284 5.284 0 0 1-1.282 3.749 3.75 3.75 0 0 1-2.851 1.225 2.852 2.852 0 0 1-2.641-1.32H72.5v4.9h-2.065V91q0-1.491-.078-3.06h1.818l.114 1.473h.04a3.674 3.674 0 0 1 5.882-.364 5.14 5.14 0 0 1 1.1 3.426zm-2.1.076a3.83 3.83 0 0 0-.612-2.238 2.109 2.109 0 0 0-1.8-.92 2.148 2.148 0 0 0-1.389.508 2.372 2.372 0 0 0-.813 1.33 2.738 2.738 0 0 0-.093.63v1.551a2.479 2.479 0 0 0 .62 1.711 2.06 2.06 0 0 0 1.616.7 2.113 2.113 0 0 0 1.816-.9 3.959 3.959 0 0 0 .651-2.372z" class="cls-1" transform="translate(24.746 7.144)"/>
        <path id="패스_28" d="M85.122 95.335a3.439 3.439 0 0 1-1.143 2.677 5.077 5.077 0 0 1-3.513 1.13 6.127 6.127 0 0 1-3.343-.805l.479-1.721a5.657 5.657 0 0 0 2.986.824 2.829 2.829 0 0 0 1.82-.529 1.72 1.72 0 0 0 .647-1.408 1.791 1.791 0 0 0-.534-1.322 4.988 4.988 0 0 0-1.78-1q-3.386-1.262-3.385-3.7a3.277 3.277 0 0 1 1.187-2.608 4.687 4.687 0 0 1 3.157-1.009 6.276 6.276 0 0 1 2.927.611l-.517 1.685a5.077 5.077 0 0 0-2.467-.591 2.506 2.506 0 0 0-1.7.534 1.534 1.534 0 0 0-.517 1.168 1.574 1.574 0 0 0 .593 1.261 6.613 6.613 0 0 0 1.876 1A6.352 6.352 0 0 1 84.34 93.1a3.289 3.289 0 0 1 .782 2.235z" class="cls-1" transform="translate(30.89 5.432)"/>
        <path id="패스_29" d="M87.59 90.5h-2.276v4.514q0 1.723 1.206 1.723a3.73 3.73 0 0 0 .918-.1l.057 1.568a4.711 4.711 0 0 1-1.607.229 2.481 2.481 0 0 1-1.914-.746 3.668 3.668 0 0 1-.689-2.507V90.5h-1.356v-1.549h1.357v-1.7l2.028-.611v2.314h2.276z" class="cls-1" transform="translate(35.253 6.134)"/>
        <path id="패스_30" d="M94.614 92.513a5.109 5.109 0 0 1-1.223 3.52 4.377 4.377 0 0 1-3.408 1.416 4.153 4.153 0 0 1-3.261-1.358 4.951 4.951 0 0 1-1.213-3.425 5.046 5.046 0 0 1 1.252-3.537 4.335 4.335 0 0 1 3.377-1.379 4.24 4.24 0 0 1 3.289 1.36 4.891 4.891 0 0 1 1.187 3.403zm-2.145.067a4.188 4.188 0 0 0-.553-2.206 2.041 2.041 0 0 0-1.856-1.114 2.066 2.066 0 0 0-1.893 1.114 4.266 4.266 0 0 0-.555 2.246 4.182 4.182 0 0 0 .555 2.2 2.11 2.11 0 0 0 3.733-.02 4.179 4.179 0 0 0 .569-2.22z" class="cls-1" transform="translate(38.503 7.144)"/>
        <path id="패스_31" d="M96.17 89.758a3.575 3.575 0 0 0-.653-.059 1.96 1.96 0 0 0-1.685.824 3.1 3.1 0 0 0-.515 1.837v4.879h-2.064l.017-6.371q0-1.608-.078-2.927h1.8l.076 1.778h.055a3.185 3.185 0 0 1 1.034-1.473 2.5 2.5 0 0 1 1.492-.5 3.274 3.274 0 0 1 .519.038z" class="cls-1" transform="translate(43.663 7.144)"/>
        <path id="패스_32" d="M102.576 92.16a4.843 4.843 0 0 1-.076.937h-6.2a2.7 2.7 0 0 0 .9 2.1 3.072 3.072 0 0 0 2.028.649 6.839 6.839 0 0 0 2.505-.439l.324 1.435a7.76 7.76 0 0 1-3.118.572 4.5 4.5 0 0 1-3.4-1.273 4.694 4.694 0 0 1-1.234-3.413 5.334 5.334 0 0 1 1.149-3.5 3.962 3.962 0 0 1 3.251-1.492 3.464 3.464 0 0 1 3.043 1.492 5.019 5.019 0 0 1 .828 2.932zm-1.971-.538a2.81 2.81 0 0 0-.4-1.587 1.807 1.807 0 0 0-1.647-.86 1.96 1.96 0 0 0-1.645.843 3.1 3.1 0 0 0-.612 1.6z" class="cls-1" transform="translate(46.495 7.135)"/>
        <path id="패스_33" d="M64 83.265a3.179 3.179 0 0 1-1.025 2.574 4.079 4.079 0 0 1-2.7.8 13.167 13.167 0 0 1-1.486-.074v-6.234a11.143 11.143 0 0 1 1.75-.13 3.776 3.776 0 0 1 2.511.723 2.921 2.921 0 0 1 .95 2.341zm-1.072.027A2.064 2.064 0 0 0 60.621 81a4.36 4.36 0 0 0-.819.067V85.8a5.966 5.966 0 0 0 .689.027 2.4 2.4 0 0 0 1.8-.649 2.587 2.587 0 0 0 .632-1.886z" class="cls-1" transform="translate(14.24 0.291)"/>
        <path id="패스_34" d="M66.62 83.443a2.506 2.506 0 0 1-.6 1.729 2.153 2.153 0 0 1-1.673.7 2.049 2.049 0 0 1-1.6-.668 2.431 2.431 0 0 1-.593-1.683 2.473 2.473 0 0 1 .614-1.738 2.135 2.135 0 0 1 1.652-.683 2.094 2.094 0 0 1 1.618.668 2.415 2.415 0 0 1 .582 1.675zm-1.053.032a2.041 2.041 0 0 0-.273-1.084 1 1 0 0 0-.912-.548 1.021 1.021 0 0 0-.931.548 2.1 2.1 0 0 0-.271 1.1 2.065 2.065 0 0 0 .271 1.086 1.026 1.026 0 0 0 .923.548 1.016 1.016 0 0 0 .91-.557 2.05 2.05 0 0 0 .283-1.092z" class="cls-1" transform="translate(17.292 1.109)"/>
        <path id="패스_35" d="M71.631 81.151l-1.431 4.57h-.929l-.591-1.984a14.649 14.649 0 0 1-.368-1.477h-.017a10.842 10.842 0 0 1-.366 1.477l-.63 1.984h-.941l-1.343-4.57h1.044l.515 2.171c.126.515.229 1 .311 1.467h.015c.074-.383.2-.87.376-1.458l.649-2.181h.826l.622 2.133q.223.781.364 1.505h.029a14.437 14.437 0 0 1 .311-1.505l.553-2.133z" class="cls-1" transform="translate(19.894 1.153)"/>
        <path id="패스_36" d="M73.144 85.765h-1.015v-2.616c0-.807-.305-1.21-.92-1.21a.913.913 0 0 0-.733.332 1.169 1.169 0 0 0-.284.782v2.711h-1.015V82.5c0-.4-.011-.838-.034-1.307h.891l.048.714h.027a1.489 1.489 0 0 1 .528-.551 1.712 1.712 0 0 1 .92-.256 1.462 1.462 0 0 1 1.063.414 2.008 2.008 0 0 1 .525 1.513z" class="cls-1" transform="translate(23.643 1.109)"/>
        <path id="패스_37" d="M73.19 86.718h-1.013v-6.665h1.013z" class="cls-1" transform="translate(26.398 0.156)"/>
        <path id="패스_38" d="M77.971 83.443a2.508 2.508 0 0 1-.6 1.729 2.148 2.148 0 0 1-1.673.7 2.038 2.038 0 0 1-1.6-.668 2.425 2.425 0 0 1-.6-1.683 2.473 2.473 0 0 1 .614-1.738 2.135 2.135 0 0 1 1.658-.677 2.091 2.091 0 0 1 1.618.668 2.416 2.416 0 0 1 .583 1.669zm-1.055.032a2.059 2.059 0 0 0-.273-1.084 1 1 0 0 0-.91-.548 1.013 1.013 0 0 0-.929.548 2.081 2.081 0 0 0-.275 1.1 2.048 2.048 0 0 0 .275 1.086 1.035 1.035 0 0 0 1.832-.01 2.067 2.067 0 0 0 .28-1.091z" class="cls-1" transform="translate(27.597 1.109)"/>
        <path id="패스_39" d="M80.2 85.765h-.91l-.076-.529h-.027a1.564 1.564 0 0 1-1.334.632 1.379 1.379 0 0 1-1.044-.414 1.3 1.3 0 0 1-.359-.931 1.416 1.416 0 0 1 .7-1.276 3.627 3.627 0 0 1 1.973-.433v-.086q0-.9-.95-.9a2.123 2.123 0 0 0-1.191.34l-.206-.668a2.924 2.924 0 0 1 1.566-.395q1.792 0 1.793 1.891v1.683a6.866 6.866 0 0 0 .065 1.086zm-1.055-1.57v-.706q-1.68-.026-1.681.922a.685.685 0 0 0 .2.536.7.7 0 0 0 .5.179 1.024 1.024 0 0 0 .62-.212.877.877 0 0 0 .351-.542.8.8 0 0 0 .014-.177z" class="cls-1" transform="translate(30.279 1.109)"/>
        <path id="패스_40" d="M83.516 86.718h-.9l-.05-.735h-.027a1.521 1.521 0 0 1-1.467.838 1.722 1.722 0 0 1-1.372-.649 2.534 2.534 0 0 1-.546-1.683 2.65 2.65 0 0 1 .593-1.8 1.82 1.82 0 0 1 1.41-.639 1.369 1.369 0 0 1 1.286.622h.021v-2.619h1.015v5.432q.002.67.037 1.233zm-1.05-1.928v-.761a1.328 1.328 0 0 0-.031-.321 1.148 1.148 0 0 0-.366-.616.994.994 0 0 0-.679-.248 1.051 1.051 0 0 0-.895.45 1.954 1.954 0 0 0-.324 1.156 1.787 1.787 0 0 0 .313 1.1 1.042 1.042 0 0 0 .887.452.982.982 0 0 0 .8-.374 1.261 1.261 0 0 0 .295-.838z" class="cls-1" transform="translate(32.735 0.156)"/>
        <path id="패스_41" d="M88.122 83.443a2.5 2.5 0 0 1-.6 1.729 2.147 2.147 0 0 1-1.673.7 2.047 2.047 0 0 1-1.6-.668 2.434 2.434 0 0 1-.6-1.683 2.483 2.483 0 0 1 .616-1.738 2.136 2.136 0 0 1 1.66-.677 2.08 2.08 0 0 1 1.614.668 2.4 2.4 0 0 1 .583 1.669zm-1.051.032a2.059 2.059 0 0 0-.273-1.084 1 1 0 0 0-.912-.548 1.02 1.02 0 0 0-.931.548 2.1 2.1 0 0 0-.273 1.1 2.066 2.066 0 0 0 .273 1.086 1.037 1.037 0 0 0 1.834-.01 2.05 2.05 0 0 0 .282-1.091z" class="cls-1" transform="translate(36.813 1.109)"/>
        <path id="패스_42" d="M90.76 85.765h-1.015v-2.616c0-.807-.305-1.21-.92-1.21a.92.92 0 0 0-.735.332 1.175 1.175 0 0 0-.28.782v2.711h-1.017V82.5c0-.4-.011-.838-.036-1.307h.893l.046.714h.029a1.483 1.483 0 0 1 .527-.551 1.726 1.726 0 0 1 .92-.256 1.459 1.459 0 0 1 1.063.414 2 2 0 0 1 .527 1.513z" class="cls-1" transform="translate(39.636 1.109)"/>
        <path id="패스_43" d="M93.76 82.454h-1.116v2.217c0 .565.2.845.591.845a1.875 1.875 0 0 0 .452-.046l.027.771a2.312 2.312 0 0 1-.79.113 1.214 1.214 0 0 1-.939-.368 1.8 1.8 0 0 1-.338-1.229v-2.3h-.67v-.763h.67v-.836l1-.3v1.135h1.113z" class="cls-1" transform="translate(43.469 0.613)"/>
        <path id="패스_44" d="M97.143 86.718h-1.017v-2.6q0-1.228-.92-1.227a.968.968 0 0 0-.969.712 1.26 1.26 0 0 0-.048.364v2.749h-1.013v-6.663h1.013v2.753h.019a1.535 1.535 0 0 1 1.372-.752 1.418 1.418 0 0 1 1.044.414A2.076 2.076 0 0 1 97.143 84z" class="cls-1" transform="translate(45.464 0.156)"/>
        <path id="패스_45" d="M100.093 83.267a2.4 2.4 0 0 1-.038.46H97.01a1.329 1.329 0 0 0 .441 1.034 1.512 1.512 0 0 0 1 .319 3.347 3.347 0 0 0 1.231-.216l.16.706a3.806 3.806 0 0 1-1.532.282 2.216 2.216 0 0 1-1.668-.624 2.31 2.31 0 0 1-.607-1.679 2.614 2.614 0 0 1 .565-1.721 1.943 1.943 0 0 1 1.6-.731 1.7 1.7 0 0 1 1.492.731 2.441 2.441 0 0 1 .401 1.439zm-.969-.261a1.374 1.374 0 0 0-.2-.782.89.89 0 0 0-.809-.422.962.962 0 0 0-.807.414 1.5 1.5 0 0 0-.3.79z" class="cls-1" transform="translate(48.058 1.105)"/>
    </g>
</svg>
