<svg xmlns="http://www.w3.org/2000/svg" xmlns:xlink="http://www.w3.org/1999/xlink" width="24" height="24" viewBox="0 0 24 24">
    <defs>
        <path id="ipltcvo5sa" d="M7.424 5.576l2.41 2.409 2.135 2.136.57.57 5.114-5.115.083-.07c.234-.162.557-.139.765.07.235.234.235.614 0 .848l-5.113 5.116 1.005 1.005 1.94 1.939 1.49 1.49.678.679c.543.543-.217 1.346-.78.91l-.068-.062-5.115-5.114-5.114 5.114-.083.07c-.234.162-.557.138-.765-.07-.235-.234-.235-.614 0-.848l5.113-5.115-5.113-5.114c-.235-.234-.235-.614 0-.848.234-.235.614-.235.848 0z"/>
    </defs>
    <g fill="none" fill-rule="evenodd">
        <use fill="#C2C2C2" xlink:href="#ipltcvo5sa"/>
    </g>
</svg>
