<svg xmlns="http://www.w3.org/2000/svg" width="48" height="48" viewBox="0 0 48 48">
    <g fill="none" fill-rule="evenodd">
        <path d="M0 0H48V48H0z"/>
        <path fill="#333" d="M34.706 7.72c1.462 0 2.658 1.142 2.745 2.583l.005.168V23.01c0 .414-.336.75-.75.75-.38 0-.694-.282-.743-.648l-.007-.102V10.47c0-.647-.492-1.179-1.122-1.243l-.128-.006H13.294c-.647 0-1.18.491-1.243 1.122l-.007.128v27.764c0 .648.492 1.18 1.122 1.244l.128.006H30.51c.414 0 .75.336.75.75 0 .38-.282.694-.648.743l-.102.007H13.294c-1.462 0-2.658-1.141-2.745-2.582l-.005-.168V10.471c0-1.463 1.142-2.659 2.583-2.745l.167-.005h21.412zm8.167 18.75c.267.266.29.683.073.976l-.073.084-8.067 8.068c-.266.266-.683.29-.977.073l-.084-.073-3.765-3.766c-.293-.293-.293-.767 0-1.06.266-.267.683-.29.976-.073l.084.073 3.235 3.235 7.538-7.537c.293-.293.768-.293 1.06 0zM23.51 24.22c.414 0 .75.336.75.75 0 .38-.282.693-.648.743l-.102.007h-6.02c-.414 0-.75-.336-.75-.75 0-.38.282-.693.648-.743l.102-.007h6.02zm7-5c.414 0 .75.336.75.75 0 .38-.282.693-.648.743l-.102.007H17.49c-.414 0-.75-.336-.75-.75 0-.38.282-.693.648-.743l.102-.007h13.02zm0-5c.414 0 .75.336.75.75 0 .38-.282.693-.648.743l-.102.007H17.49c-.414 0-.75-.336-.75-.75 0-.38.282-.693.648-.743l.102-.007h13.02z"/>
    </g>
</svg>
