<svg xmlns="http://www.w3.org/2000/svg" width="76" height="76" viewBox="0 0 76 76">
    <g fill="none" fill-rule="evenodd" opacity=".8">
        <g fill="#80C342">
            <g>
                <g>
                    <g>
                        <g>
                            <g>
                                <path d="M36.59 36.869c.516.379.916.92 1.135 1.588.354 1.037.151 2.122-.43 2.945-.363.527-.883.946-1.526 1.176-.996.347-2.063.153-2.86-.44-.344-.26-.644-.589-.871-.989l-4.32 1.534c-.2.063-.42.032-.582-.086v-.005c-.105-.075-.178-.19-.227-.322-.07-.213-.03-.43.09-.596.071-.101.177-.185.306-.234l4.318-1.523c-.098-.84.116-1.654.572-2.317.366-.523.89-.94 1.53-1.167 1.01-.35 2.064-.156 2.865.436zm-4.406-9.784l.078.006.033.072c.952 1.98 1.142 4.234.415 6.252-.183.491-.41.96-.7 1.401-1.326 2.128-3.587 3.278-6.002 3.36l-2.615 4.138c-.167.259-.486.36-.756.257-.047-.02-.087-.034-.13-.062-.248-.17-.34-.5-.246-.777.014-.042.043-.084.057-.13l2.627-4.14c-.71-1.814-.787-3.817-.137-5.614.176-.49.405-.958.685-1.407 1.464-2.311 4.03-3.488 6.691-3.356zM5.481 7.683h.029c-1.04 0-1.881-.843-1.881-1.881V1.88C3.629.842 4.47 0 5.509 0h9.206c1.04 0 1.881.842 1.881 1.881v3.92c0 1.04-.842 1.882-1.88 1.882h.028v1.92l3.95 3.277c.432.358.681.888.681 1.448v27.966c0 1.039-.842 1.881-1.881 1.881H2.731c-1.039 0-1.881-.842-1.881-1.881V14.328c0-.56.25-1.09.68-1.448l3.951-3.277v-1.92z" transform="translate(-376 -594) translate(376 232) translate(0 220) translate(0 69) translate(0 73) translate(22.188 15.438)"/>
                            </g>
                        </g>
                    </g>
                </g>
            </g>
        </g>
    </g>
</svg>
