<svg xmlns="http://www.w3.org/2000/svg" width="44" height="44" viewBox="0 0 44 44">
    <g fill="none" fill-rule="evenodd">
        <g>
            <g>
                <g>
                    <g>
                        <g>
                            <path d="M0 0H44V44H0z" transform="translate(-640 -252) translate(495 100) translate(1 146) translate(39) translate(105 6)"/>
                            <path fill="#80c342" d="M19.656 9.045c.87-.586 2.03-.547 2.862.117l9.133 7.297.15.131c.482.455.759 1.091.759 1.76v5.134l1.1.001c.803 0 1.463.615 1.534 1.4l.006.14v9.13c0 .85-.69 1.54-1.54 1.54h-9.13c-.85 0-1.54-.69-1.54-1.54v-.936L11 33.22l-.148-.007c-.781-.075-1.392-.733-1.392-1.533V18.35l.008-.2c.055-.66.379-1.273.9-1.69l9.128-7.297zm14.004 15.76l-3.905-.001v2.311c0 .365-.295.66-.66.66-.328 0-.6-.24-.651-.553l-.009-.107v-2.311l-3.905.001c-.101 0-.187.068-.212.162l-.008.058v9.13c0 .122.098.22.22.22h9.13c.122 0 .22-.098.22-.22v-9.13c0-.122-.098-.22-.22-.22zm-12.08-14.69c-.39-.24-.894-.213-1.26.079l-9.127 7.296-.105.096c-.196.204-.308.477-.308.764v13.33l.008.058c.025.094.11.162.212.162l11.99-.001v-6.874c0-.803.615-1.463 1.4-1.534l.14-.006 6.71-.001V18.35l-.01-.142c-.036-.28-.18-.539-.403-.718l-9.133-7.296z" transform="translate(-640 -252) translate(495 100) translate(1 146) translate(39) translate(105 6)"/>
                        </g>
                    </g>
                </g>
            </g>
        </g>
    </g>
</svg>
