<svg xmlns="http://www.w3.org/2000/svg" width="20" height="20" viewBox="0 0 20 20">
    <g fill="none" fill-rule="evenodd">
        <g>
            <g>
                <g>
                    <g>
                        <g>
                            <g>
                                <g>
                                    <g>
                                        <path d="M0 0H20V20H0z" transform="translate(-910 -915) translate(450 100) translate(32 152) translate(0 478) translate(20 170) translate(321 9) translate(12 6) translate(75)"/>
                                        <g fill="#fff">
                                            <path d="M9.75.5c.245 0 .45.177.492.41l.008.09v.749l2 .001c.918 0 1.671.707 1.744 1.606L14 3.5v9.25c0 .966-.784 1.75-1.75 1.75h-10c-.966 0-1.75-.784-1.75-1.75V3.5c0-.966.784-1.75 1.75-1.75l2.083-.001V1c0-.276.224-.5.5-.5.246 0 .45.177.492.41l.008.09v.749H9.25V1c0-.276.224-.5.5-.5zM13 6.208H1.5v6.542c0 .38.282.693.648.743l.102.007h10c.414 0 .75-.336.75-.75V6.208zM4.333 2.749L2.25 2.75c-.414 0-.75.336-.75.75v1.708H13V3.5c0-.38-.282-.693-.648-.743l-.102-.007-2-.001v.886c0 .276-.224.5-.5.5-.245 0-.45-.177-.492-.41l-.008-.09v-.886H5.333v.886c0 .276-.224.5-.5.5-.245 0-.45-.177-.492-.41l-.008-.09v-.886z" transform="translate(-910 -915) translate(450 100) translate(32 152) translate(0 478) translate(20 170) translate(321 9) translate(12 6) translate(75) translate(2.75 2.125)"/>
                                        </g>
                                    </g>
                                </g>
                            </g>
                        </g>
                    </g>
                </g>
            </g>
        </g>
    </g>
</svg>
