<svg xmlns="http://www.w3.org/2000/svg" width="48" height="48" viewBox="0 0 48 48">
    <g fill="none" fill-rule="evenodd">
        <path d="M0 0H48V48H0z"/>
        <path fill="#333" d="M30.38 11.826c1.52 0 2.75 1.23 2.75 2.75V39.74c0 1.52-1.23 2.75-2.75 2.75H10.97c-1.52 0-2.75-1.23-2.75-2.75V14.576c0-1.52 1.23-2.75 2.75-2.75zm0 1.5H10.97c-.691 0-1.25.56-1.25 1.25V39.74c0 .69.559 1.25 1.25 1.25h19.41c.691 0 1.25-.56 1.25-1.25V14.576c0-.69-.559-1.25-1.25-1.25zm3.453-4.721c1.462 0 2.658 1.142 2.745 2.582l.005.168v25.75c0 .414-.336.75-.75.75-.38 0-.694-.282-.744-.648l-.006-.102v-25.75c0-.647-.492-1.18-1.123-1.244l-.127-.006H13.388c-.414 0-.75-.336-.75-.75 0-.38.283-.693.649-.743l.101-.007h20.445zm3.2-3.1c1.462 0 2.658 1.142 2.745 2.582l.005.168v25.638c0 .414-.336.75-.75.75-.38 0-.694-.282-.744-.648l-.006-.102V8.255c0-.647-.492-1.18-1.123-1.244l-.127-.006H16.478c-.414 0-.75-.336-.75-.75 0-.38.283-.693.649-.743l.101-.007h20.555zm-15.858 22.32c.414 0 .75.336.75.75 0 .38-.282.693-.648.743l-.102.007h-6.01c-.414 0-.75-.336-.75-.75 0-.38.282-.693.648-.743l.102-.007h6.01zm5.01-5c.414 0 .75.336.75.75 0 .38-.282.693-.648.743l-.102.007h-11.02c-.414 0-.75-.336-.75-.75 0-.38.282-.693.648-.743l.102-.007h11.02zm0-5c.414 0 .75.336.75.75 0 .38-.282.693-.648.743l-.102.007h-11.02c-.414 0-.75-.336-.75-.75 0-.38.282-.693.648-.743l.102-.007h11.02z"/>
    </g>
</svg>
