<svg xmlns="http://www.w3.org/2000/svg" width="28" height="28" viewBox="0 0 28 28">
    <defs>
        <filter id="kbjj1d8yna">
            <feColorMatrix in="SourceGraphic" values="0 0 0 0 0.678431 0 0 0 0 0.678431 0 0 0 0 0.678431 0 0 0 1.000000 0"/>
        </filter>
    </defs>
    <g fill="none" fill-rule="evenodd">
        <g>
            <g>
                <g>
                    <g filter="url(#kbjj1d8yna)" transform="translate(-136 -1208) translate(136 330) translate(0 632) translate(0 246)">
                        <path d="M0 0H28V28H0z"/>
                        <g>
                            <path stroke="#333" stroke-linecap="round" stroke-width="1.2" d="M7.55 12.833H1.4c-.773 0-1.4-.626-1.4-1.4V1.4C0 .627.627 0 1.4 0h14.467c.773 0 1.4.627 1.4 1.4v5.483h0" transform="translate(5.367 7.817)"/>
                            <path fill="#333" d="M0 2.333L17.267 2.333 17.267 3.533 0 3.533z" transform="translate(5.367 7.817)"/>
                            <g stroke="#333" stroke-linecap="round" stroke-linejoin="round" stroke-width="1.2">
                                <path d="M6.467 1.078L.669 6.739M1.301 2.9c.644 0 1.167-.523 1.167-1.168 0-.644-.523-1.166-1.167-1.166S.134 1.088.134 1.732c0 .645.523 1.167 1.167 1.167zM5.73 7.334c.644 0 1.166-.523 1.166-1.167S6.374 5 5.729 5c-.644 0-1.166.523-1.166 1.167s.522 1.167 1.166 1.167z" transform="translate(5.367 7.817) translate(10.8 8.517)"/>
                            </g>
                        </g>
                    </g>
                </g>
            </g>
        </g>
    </g>
</svg>
