<svg xmlns="http://www.w3.org/2000/svg" xmlns:xlink="http://www.w3.org/1999/xlink" width="200" height="40" viewBox="0 0 200 40">
    <defs>
        <path id="i26g1g5jva" d="M20.014 28.764L9.728 34.172 11.693 22.718 3.371 14.606 14.871 12.935 20.014 2.514 25.157 12.935 36.658 14.606 28.336 22.718 30.301 34.172z"/>
        <path id="qgxdext43b" d="M20.014 28.764L9.728 34.172 11.693 22.718 3.371 14.606 14.871 12.935 20.014 2.514 25.157 12.935 36.658 14.606 28.336 22.718 30.301 34.172z"/>
        <path id="71whqxa7cc" d="M20.014 28.764L9.728 34.172 11.693 22.718 3.371 14.606 14.871 12.935 20.014 2.514 25.157 12.935 36.658 14.606 28.336 22.718 30.301 34.172z"/>
        <path id="e07m7ewfsd" d="M20.014 28.764L9.728 34.172 11.693 22.718 3.371 14.606 14.871 12.935 20.014 2.514 25.157 12.935 36.658 14.606 28.336 22.718 30.301 34.172z"/>
        <path id="czxizz3ime" d="M20.014 28.764L9.728 34.172 11.693 22.718 3.371 14.606 14.871 12.935 20.014 2.514 25.157 12.935 36.658 14.606 28.336 22.718 30.301 34.172z"/>
    </defs>
    <g fill="none" fill-rule="evenodd">
        <path d="M0 0H40V40H0z"/>
        <use fill="#80C342" xlink:href="#i26g1g5jva"/>
        <g transform="translate(40)">
            <path d="M0 0H40V40H0z"/>
            <use fill="#80C342" xlink:href="#qgxdext43b"/>
        </g>
        <g transform="translate(80)">
            <path d="M0 0H40V40H0z"/>
            <use fill="#80C342" xlink:href="#71whqxa7cc"/>
        </g>
        <g transform="translate(120)">
            <path d="M0 0H40V40H0z"/>
            <use fill="#E0E0E0" xlink:href="#e07m7ewfsd"/>
        </g>
        <g transform="translate(160)">
            <path d="M0 0H40V40H0z"/>
            <use fill="#E0E0E0" xlink:href="#czxizz3ime"/>
        </g>
    </g>
</svg>
