<svg xmlns="http://www.w3.org/2000/svg" xmlns:xlink="http://www.w3.org/1999/xlink" width="24" height="24" viewBox="0 0 24 24">
    <defs>
        <path id="mhjp2fdeoa" d="M7 6.172l5.002 5.001 4.987-5.001.081-.068c.229-.158.544-.136.748.068.229.228.229.6 0 .828l-4.994 4.995 2.876 2.876 2.118 2.118c.53.53-.212 1.315-.761.889l-.068-.06-4.995-4.995L7 17.818l-.08.068c-.23.158-.545.135-.748-.068-.23-.229-.23-.6 0-.829l4.994-4.995L6.172 7c-.23-.229-.23-.6 0-.828.228-.23.6-.23.828 0z"/>
    </defs>
    <g fill="none" fill-rule="evenodd">
        <use fill="#ADADAD" xlink:href="#mhjp2fdeoa"/>
    </g>
</svg>
