<svg xmlns="http://www.w3.org/2000/svg" width="14" height="14" viewBox="0 0 14 14">
    <g fill="none" fill-rule="evenodd">
        <path fill="#FFF" d="M3.646 3.647c.195-.196.511-.196.707-.001L7.026 6.31 9.7 3.646c.196-.195.513-.195.708.001.173.174.192.443.056.638l-.058.07-2.671 2.66 2.671 2.662.058.07c.136.194.117.464-.056.637-.195.196-.512.197-.708.002L7.026 7.72l-2.673 2.665c-.196.195-.512.194-.707-.002-.173-.173-.192-.443-.057-.638l.058-.069 2.671-2.662-2.67-2.66-.059-.07c-.135-.195-.116-.464.057-.638z"/>
    </g>
</svg>
