<svg xmlns="http://www.w3.org/2000/svg" width="36" height="36" viewBox="0 0 36 36">
    <g fill="none" fill-rule="evenodd">
        <path d="M0 0H36V36H0z"/>
        <path fill="#333333" d="M6.8 25.022c0 1.188.963 2.152 2.152 2.152h18.646c1.189 0 2.152-.964 2.152-2.152V12.319c0-1.096-.859-1.988-1.942-2.064l-.149-.005H8.891c-1.102 0-2.009.845-2.086 1.921l-.005.148v3.211h.75c.943 0 1.702.748 1.702 1.663 0 .868-.681 1.584-1.555 1.657l-.147.006H6.8zm1.5-1.4h19.95v1.4c0 .327-.241.598-.555.644l-.097.008H8.952c-.36 0-.652-.292-.652-.652v-1.4zm.59-11.872h18.77c.295 0 .537.209.582.477l.008.092.001 9.803H8.3v-1.854l.128-.032c1.285-.361 2.242-1.495 2.32-2.863l.004-.18c0-1.448-.983-2.665-2.324-3.042l-.128-.033v-1.799c0-.28.212-.517.494-.561l.097-.008z"/>
    </g>
</svg>
