<svg xmlns="http://www.w3.org/2000/svg" width="24" height="24" viewBox="0 0 24 24">
    <g fill="none" fill-rule="evenodd">
        <path d="M0 0H24V24H0z"/>
        <path fill="#333333" d="M19.5 4.75c.828 0 1.5.672 1.5 1.5v4.25c-.828 0-1.5.672-1.5 1.5 0 .78.595 1.42 1.356 1.493L21 13.5v4.25c0 .828-.672 1.5-1.5 1.5h-15c-.828 0-1.5-.672-1.5-1.5V13.5c.828 0 1.5-.672 1.5-1.5s-.672-1.5-1.5-1.5V6.25c0-.828.672-1.5 1.5-1.5h15zm0 1.2h-15c-.142 0-.261.099-.292.231L4.2 6.25v3.332l.07.034c.803.43 1.365 1.253 1.425 2.213L5.7 12c0 1.032-.58 1.93-1.43 2.384l-.07.033v3.333c0 .142.099.261.231.292l.069.008h15c.142 0 .261-.099.292-.231l.008-.069v-3.332l-.07-.034c-.803-.43-1.365-1.253-1.425-2.213L18.3 12c0-1.032.58-1.93 1.43-2.384l.071-.035L19.8 6.25c0-.142-.099-.261-.231-.292L19.5 5.95zm-4.895 2.819c1.243 0 2.3 1.36 1.845 2.658-.403 1.15-1.544 1.395-2.669 1.436l1.707 1.974.064.088c.144.245.098.566-.125.759-.251.216-.63.189-.847-.062l-2.345-2.714-2.344 2.714c-.217.25-.596.278-.846.062-.223-.193-.27-.514-.125-.759l.063-.088 1.708-1.975c-1.115-.044-2.238-.295-2.638-1.435-.455-1.297.602-2.658 1.845-2.658 1.147 0 1.766.507 2.354 1.573.587-1.066 1.206-1.573 2.353-1.573zm-4.707 1.2c-.458 0-.88.584-.713 1.06l.032.078c.192.397.731.563 1.931.563h.42l-.163-.35-.168-.333c-.44-.83-.72-1.018-1.339-1.018zm4.707 0c-.619 0-.9.189-1.339 1.018l-.126.248-.14.296-.064.139h.419c1.2 0 1.74-.166 1.93-.563l.033-.077c.167-.477-.255-1.061-.713-1.061z"/>
    </g>
</svg>
