<svg xmlns="http://www.w3.org/2000/svg" width="24" height="24" viewBox="0 0 24 24">
    <g fill="none" fill-rule="evenodd">
        <path d="M0 0H24V24H0z"/>
        <path fill="#C2C2C2" d="M16.531 5.563c.276 0 .5.223.5.5v9.022c0 .973.567 1.747 1.78 2.358.47.237.301.947-.226.947H7.5c-1.38 0-2.5-1.12-2.5-2.5V6.062c0-.276.224-.5.5-.5zm-.5.999H6v9.328c0 .78.595 1.42 1.356 1.493l.144.007 9.507-.001-.126-.13c-.514-.564-.8-1.222-.844-1.968l-.006-.206V6.562zm-5.11 6.513c.277 0 .5.224.5.5 0 .245-.176.45-.41.492l-.09.008H8.359c-.276 0-.5-.224-.5-.5 0-.245.177-.45.41-.492l.09-.008h2.564zm2.915-2.4c.276 0 .5.224.5.5 0 .245-.177.45-.41.492l-.09.008H8.358c-.276 0-.5-.224-.5-.5 0-.245.177-.45.41-.492l.09-.008h5.478zm0-2.4c.276 0 .5.224.5.5 0 .245-.177.45-.41.492l-.09.008H8.358c-.276 0-.5-.224-.5-.5 0-.245.177-.45.41-.492l.09-.008h5.478z"/>
    </g>
</svg>
