<svg id="Icon_16_Phonenumber_Filled_16" data-name="Icon/16/Phonenumber_Filled/16" xmlns="http://www.w3.org/2000/svg" width="16" height="16" viewBox="0 0 16 16">
  <rect id="guidebox" width="16" height="16" fill="#f44" opacity="0"/>
  <path id="Path" d="M.664,2.082.73,2.045a1.751,1.751,0,0,0-.639.925,2.849,2.849,0,0,0,0,1.433,5.3,5.3,0,0,0,.273.952,1.022,1.022,0,0,0,1.228.627l1.653-.455a1.022,1.022,0,0,0,.719-.733l.265-1.041A.822.822,0,0,1,4.7,3.2a4.3,4.3,0,0,1,1.7-.361,4.418,4.418,0,0,1,1.737.372.821.821,0,0,1,.467.525L8.919,4.82a1.022,1.022,0,0,0,.715.7l1.829.491a1.022,1.022,0,0,0,1.178-.529,5.43,5.43,0,0,0,.42-1.07,2.189,2.189,0,0,0-.006-1.571,1.8,1.8,0,0,0-.4-.544l-.164-.148-.236-.2A8.311,8.311,0,0,0,10.528.915,9.587,9.587,0,0,0,6.491,0,9.128,9.128,0,0,0,2.37,1.027l-.2.106A14.26,14.26,0,0,0,.664,2.082Z" transform="translate(8.283 15.249) rotate(-120)" fill="#5c5c5c"/>
</svg>
