<svg xmlns="http://www.w3.org/2000/svg" width="44" height="44" viewBox="0 0 44 44">
    <g fill="none" fill-rule="evenodd">
        <g>
            <g>
                <g>
                    <g>
                        <g>
                            <path d="M0 0H44V44H0z" transform="translate(-840 -252) translate(495 100) translate(1 146) translate(39) translate(305 6)"/>
                            <path fill="#fff" d="M30.14 8.938l.148.007c.781.074 1.392.732 1.392 1.532V22.23c2.934.932 5.06 3.678 5.06 6.921 0 4.01-3.25 7.26-7.26 7.26-2.983 0-5.546-1.8-6.663-4.372H10.12l-.148-.008c-.781-.074-1.392-.732-1.392-1.533v-20.02l.007-.148c.075-.78.733-1.392 1.533-1.392h20.02zm-.66 14.272c-3.28 0-5.94 2.66-5.94 5.94 0 3.28 2.66 5.94 5.94 5.94 3.28 0 5.94-2.66 5.94-5.94 0-3.28-2.66-5.94-5.94-5.94zm3.06 4.043c.23.23.255.585.077.842l-.076.092-3.121 3.12c-.223.224-.567.255-.824.09l-.091-.072-1.893-1.752c-.268-.248-.284-.665-.036-.933.22-.238.574-.277.838-.109l.094.073 1.426 1.322 2.674-2.673c.257-.257.675-.257.933 0zm-2.4-16.995l-9.35-.001v4.449c0 .364-.295.66-.66.66-.328 0-.6-.24-.651-.553l-.009-.107v-4.45l-9.35.002-.058.007c-.094.026-.162.111-.162.212v20.02l.008.059c.025.093.11.162.212.162h12.27c-.111-.506-.17-1.03-.17-1.568 0-4.01 3.25-7.26 7.26-7.26.298 0 .591.018.88.053V10.477l-.008-.058c-.025-.093-.11-.162-.212-.162z" transform="translate(-840 -252) translate(495 100) translate(1 146) translate(39) translate(305 6)"/>
                        </g>
                    </g>
                </g>
            </g>
        </g>
    </g>
</svg>
