<svg id="Icon_20_Daily_Line" data-name="Icon/20/Daily_Line" xmlns="http://www.w3.org/2000/svg" width="24" height="24" viewBox="0 0 24 24">
  <defs>
    <style>
      .cls-1, .cls-2, .cls-3, .cls-4 {
        fill: none;
      }

      .cls-2, .cls-3, .cls-4, .cls-5 {
        stroke-miterlimit: 10;
      }

      .cls-2, .cls-4 {
        fill-rule: evenodd;
      }

      .cls-3, .cls-4 {
        stroke: #333;
        stroke-width: 1.2px;
      }

      .cls-5 {
        fill: #333;
        stroke: rgba(0,0,0,0);
      }

      .cls-6, .cls-7 {
        stroke: none;
      }

      .cls-7 {
        fill: #333;
      }
    </style>
  </defs>
  <rect id="guidebox" class="cls-1" width="24" height="24"/>
  <g id="icon" transform="translate(26.817 -7135.185)">
    <g id="패스_55" data-name="패스 55" class="cls-2">
      <path class="cls-6" d="M-7.706,7143.166H-21.928a.889.889,0,0,0-.889.889v1.778a.889.889,0,0,0,.889.889H-7.706a.889.889,0,0,0,.889-.889v-1.778A.889.889,0,0,0-7.706,7143.166Z"/>
      <path class="cls-7" d="M -21.61700057983398 7144.3662109375 L -21.61700057983398 7145.52197265625 L -8.017000198364258 7145.52197265625 L -8.017000198364258 7144.3662109375 L -21.61700057983398 7144.3662109375 M -21.92799949645996 7143.166015625 L -7.705999374389648 7143.166015625 C -7.215000152587891 7143.166015625 -6.816999435424805 7143.56396484375 -6.816999435424805 7144.05517578125 L -6.816999435424805 7145.8330078125 C -6.816999435424805 7146.32421875 -7.215000152587891 7146.72216796875 -7.705999374389648 7146.72216796875 L -21.92799949645996 7146.72216796875 C -22.41899871826172 7146.72216796875 -22.8169994354248 7146.32421875 -22.8169994354248 7145.8330078125 L -22.8169994354248 7144.05517578125 C -22.8169994354248 7143.56396484375 -22.41899871826172 7143.166015625 -21.92799949645996 7143.166015625 Z"/>
    </g>
    <line id="선_1" data-name="선 1" class="cls-3" y1="11.556" transform="translate(-14.817 7143.166)"/>
    <path id="패스_57" data-name="패스 57" class="cls-4" d="M-8.6,7146.722v6.633a.86.86,0,0,1-.888.829H-20.15a.861.861,0,0,1-.889-.829v-6.633"/>
    <path id="합치기_1" data-name="합치기 1" class="cls-5" d="M5783.593,12858.536h-2.249l-.288,0a4.576,4.576,0,0,1-1.659-.287,1.872,1.872,0,0,1-1.107-1.152,2.035,2.035,0,0,1,1.846-2.659,2.544,2.544,0,0,0,4.705,0,2.035,2.035,0,0,1,1.846,2.659,1.875,1.875,0,0,1-1.1,1.152,4.611,4.611,0,0,1-1.662.287l-.288,0h0Zm-.09-1.885-.126.249-.139.3-.064.139h.419c1.178,0,1.736-.165,1.93-.564l.032-.074a.8.8,0,0,0-.129-.724.746.746,0,0,0-.584-.339C5784.209,12855.635,5783.935,12855.845,5783.5,12856.651Zm-3.95-.678a.8.8,0,0,0-.129.724l.032.074c.194.4.752.564,1.93.564h.419l-.161-.349-.168-.336c-.432-.807-.707-1.017-1.339-1.017A.746.746,0,0,0,5779.553,12855.974Z" transform="translate(-5797.307 -5714.25)"/>
  </g>
</svg>
