<svg xmlns="http://www.w3.org/2000/svg" width="44" height="44" viewBox="0 0 44 44">
    <g fill="none" fill-rule="evenodd">
        <g>
            <g>
                <g>
                    <g>
                        <g>
                            <path fill="#80c342" d="M28.533 10.285c.328 0 .6.24.652.553l.008.107v2.966h5.34c.184 0 .358.077.482.21l.067.085 5.046 7.594c.054.08.089.173.103.268l.007.097v8.233c0 .328-.24.6-.553.651l-.107.009h-3.765c-.339 1.582-1.745 2.768-3.429 2.768-1.683 0-3.09-1.186-3.428-2.769H21.32c-.338 1.583-1.745 2.77-3.428 2.77-1.684 0-3.09-1.187-3.429-2.77h-3.702c-.364 0-.66-.295-.66-.66 0-.327.24-.6.553-.65l.107-.01h3.673c.277-1.659 1.72-2.923 3.458-2.923 1.738 0 3.18 1.264 3.458 2.923h7.576c.278-1.659 1.72-2.923 3.458-2.923 1.738 0 3.18 1.264 3.458 2.923h3.076v-7.373l-4.74-7.133h-4.985v3.388c0 .364-.295.66-.66.66-.328 0-.6-.24-.651-.553l-.009-.107v-7.015l-15.352.001c-.564 0-1.029.425-1.092.972l-.008.128v6.791c0 .365-.295.66-.66.66-.328 0-.6-.24-.651-.553l-.009-.107v-6.791c0-1.278.991-2.325 2.247-2.414l.173-.006h16.012zM17.892 28.134c-1.208 0-2.186.979-2.186 2.186 0 1.208.978 2.186 2.186 2.186 1.207 0 2.186-.978 2.186-2.186 0-1.207-.979-2.186-2.186-2.186zm14.492 0c-1.207 0-2.186.979-2.186 2.186 0 1.208.979 2.186 2.186 2.186 1.208 0 2.187-.978 2.187-2.186 0-1.207-.98-2.186-2.187-2.186zm-28.01-2.25l6.614.001c.365 0 .66.296.66.66 0 .365-.295.66-.66.66l-6.613-.001c-.365 0-.66-.296-.66-.66 0-.365.295-.66.66-.66zm6.614-3.266c.365 0 .66.296.66.66 0 .328-.24.6-.553.652l-.107.008H6.202c-.364 0-.66-.295-.66-.66 0-.328.24-.6.553-.651l.107-.009h4.786z" transform="translate(-740 -252) translate(495 100) translate(1 146) translate(39) translate(205 6)"/>
                        </g>
                    </g>
                </g>
            </g>
        </g>
    </g>
</svg>
