<svg xmlns="http://www.w3.org/2000/svg" width="24" height="24" viewBox="0 0 24 24">
    <g fill="none" fill-rule="evenodd">
        <path d="M0 0H24V24H0z"/>
        <path fill="#333333" d="M20.042 11.694l.927 1.106c.568.676.48 1.686-.197 2.254l-6.151 5.161c-.29.243-.655.375-1.032.375l-1.252-.002c-.831-.002-1.503-.677-1.502-1.507 0-.091.009-.182.025-.272l.224-1.21c.068-.365.26-.695.545-.934l6.159-5.168c.677-.568 1.686-.48 2.254.197zm-6.637.631c.331 0 .6.269.6.6 0 .298-.218.546-.503.592l-.097.008H6.699c-.815 0-1.484.624-1.556 1.42l-.006.142v2.676c0 .815.624 1.484 1.42 1.556l.142.006h2.556c.331 0 .6.269.6.6 0 .298-.218.546-.503.592l-.097.008H6.699c-1.469 0-2.67-1.147-2.757-2.594l-.005-.168v-2.676c0-1.469 1.147-2.67 2.594-2.757l.168-.005h6.706zm5.221.046l-.067.045-6.159 5.168c-.053.045-.093.103-.117.167l-.019.067-.224 1.21c-.003.018-.005.036-.005.055 0 .144.1.265.234.296l.07.009 1.252.002c.071 0 .14-.019.2-.054l.058-.04 6.152-5.162c.148-.124.183-.333.095-.496l-.046-.067-.927-1.105c-.125-.148-.333-.184-.497-.095zM12.4 3.425c2.071 0 3.75 1.679 3.75 3.75 0 2.071-1.679 3.75-3.75 3.75-2.071 0-3.75-1.679-3.75-3.75 0-2.071 1.679-3.75 3.75-3.75zm0 1.2c-1.408 0-2.55 1.142-2.55 2.55s1.142 2.55 2.55 2.55 2.55-1.142 2.55-2.55-1.142-2.55-2.55-2.55z"/>
    </g>
</svg>
