<svg xmlns="http://www.w3.org/2000/svg" width="24" height="24" viewBox="0 0 24 24">
    <g fill="none" fill-rule="evenodd">
        <path d="M0 0H24V24H0z"/>
        <path fill="#333333" d="M16.208 4.14c.944 0 1.719.727 1.794 1.652l.006.148v4.164C19.783 11.015 21 12.866 21 15c0 3.038-2.462 5.5-5.5 5.5-1.685 0-3.194-.758-4.203-1.952H5.4c-.944 0-1.719-.728-1.794-1.653l-.006-.147V5.94c0-.944.727-1.719 1.652-1.794L5.4 4.14h10.808zM15.5 10.7c-2.375 0-4.3 1.925-4.3 4.3s1.925 4.3 4.3 4.3 4.3-1.925 4.3-4.3-1.925-4.3-4.3-4.3zm.008 5.725c.332 0 .6.269.6.6 0 .331-.268.6-.6.6-.331 0-.6-.269-.6-.6 0-.331.269-.6.6-.6zM11.4 5.339v2.389c0 .331-.269.6-.6.6-.298 0-.546-.218-.592-.503l-.008-.097V5.339l-4.8.001c-.298 0-.546.218-.592.503L4.8 5.94v10.808c0 .298.218.545.503.592l.097.008h5.125C10.188 16.636 10 15.84 10 15c0-3.038 2.462-5.5 5.5-5.5.45 0 .889.054 1.308.156V5.94c0-.298-.218-.546-.503-.592l-.097-.008-4.808-.001zm4.144 6.861c.27 0 .507.046.712.124.181.07.338.163.469.274.279.234.418.568.418 1.001 0 .19-.037.361-.113.516-.056.116-.138.234-.246.355l-.116.12-.393.366c-.112.107-.19.217-.232.33-.044.113-.068.098-.072.27 0 .202-.203.387-.489.387-.254 0-.443-.146-.481-.32l-.008-.066.003-.13c.009-.235.046-.335.11-.5.075-.193.197-.36.366-.5.168-.142.297-.271.384-.389.088-.117.132-.22.132-.362 0-.344-.148-.52-.444-.52-.137 0-.248.028-.332.129-.084.1-.129.143-.133.314 0 .201-.097.452-.529.452-.388 0-.545-.203-.573-.39l-.004-.062.005-.145c.023-.369.125-.602.376-.827.283-.254.68-.427 1.19-.427z"/>
    </g>
</svg>
