<svg xmlns="http://www.w3.org/2000/svg" width="24" height="24" viewBox="0 0 24 24">
    <g fill="none" fill-rule="evenodd">
        <path d="M0 0H24V24H0z"/>
        <path fill="#333333" d="M12.01 3c4.473 0 7.9 3.086 8.028 7.454l.004.254v2.494h-.015v1.821c0 .78-.594 1.42-1.355 1.493l-.144.007H17.35c-.828 0-1.5-.671-1.5-1.5v-2.815c0-.829.672-1.5 1.5-1.5h1.178c.108 0 .213.011.314.033v-.033c0-3.817-2.915-6.508-6.831-6.508-3.833 0-6.706 2.578-6.827 6.266l-.004.242v.028c.094-.019.191-.028.29-.028h1.176c.828 0 1.5.671 1.5 1.5v2.815c0 .829-.672 1.5-1.5 1.5h-.174c0 1.064.824 1.936 1.869 2.013l.15.006h.992c.088-.745.722-1.322 1.49-1.322h1.937c.828 0 1.5.672 1.5 1.5v.605c0 .828-.672 1.5-1.5 1.5h-1.937c-.684 0-1.26-.458-1.442-1.083h-1.04c-1.716 0-3.119-1.344-3.213-3.036l-.006-.183h.198c-.828 0-1.5-.671-1.5-1.5v-2.815c0-.058.003-.116.01-.172v-1.328C3.98 6.206 7.452 3 12.01 3zm.9 15.42h-1.937c-.142 0-.261.099-.293.231l-.007.069v.605c0 .142.098.26.23.292l.07.008h1.937c.142 0 .261-.1.292-.232l.008-.068v-.605c0-.142-.099-.261-.231-.292l-.069-.008zm-6.264-6.512H5.47c-.139 0-.256.094-.29.223v1.098h-.01v1.794c0 .142.099.261.231.292l.069.008h1.176c.142 0 .261-.099.292-.231l.008-.069v-2.815c0-.142-.099-.261-.231-.292l-.069-.008zm11.882 0H17.35l-.069.008c-.132.03-.231.15-.231.292v2.815l.008.069c.031.132.15.231.292.231h1.178l.069-.008c.132-.03.23-.15.23-.292v-2.815l-.007-.07c-.031-.132-.15-.23-.292-.23z"/>
    </g>
</svg>
