<svg xmlns="http://www.w3.org/2000/svg" width="20" height="20" viewBox="0 0 20 20">
    <g fill="none" fill-rule="evenodd">
        <path fill="#80C342" d="M15.13 17.126c.306-.288.378-.702.072-.99l-1.134-1.134c.792-1.008 1.224-2.502 1.224-4.482v-.846c0-4.194-1.89-6.174-5.346-6.174C6.49 3.5 4.6 5.48 4.6 9.674v.846c0 4.194 1.89 6.174 5.346 6.174 1.224 0 2.214-.252 2.97-.72l1.224 1.224c.306.306.702.216.99-.072zm-5.184-2.088c-2.376 0-3.528-1.332-3.528-4.662v-.558c0-3.33 1.152-4.68 3.528-4.68 2.376 0 3.528 1.35 3.528 4.68v.558c0 1.476-.234 2.556-.702 3.33l-1.404-1.404c-.306-.306-.702-.216-.99.072-.288.288-.378.684-.072.99l1.296 1.314c-.414.234-.972.36-1.656.36z"/>
    </g>
</svg>
