<svg xmlns="http://www.w3.org/2000/svg" width="24" height="24" viewBox="0 0 24 24">
    <g fill="none" fill-rule="evenodd">
        <path d="M0 0H24V24H0z"/>
        <path fill="#333333" d="M16.208 4.14c.944 0 1.719.727 1.794 1.652l.006.148v6.666c1.387.363 2.634 1.205 3.727 2.51.622.743.622 1.825-.007 2.575l-.218.252c-1.458 1.628-3.181 2.457-5.135 2.457-1.696 0-3.216-.624-4.542-1.852H5.4c-.944 0-1.719-.728-1.794-1.653l-.006-.147V5.94c0-.944.727-1.719 1.652-1.794L5.4 4.14h10.808zm.167 9.46c-1.6 0-3.003.676-4.235 2.05l-.205.236c-.248.298-.248.73 0 1.028 1.287 1.536 2.755 2.286 4.44 2.286 1.6 0 3.003-.676 4.235-2.05l.205-.236c.248-.298.248-.73 0-1.028-1.287-1.536-2.755-2.286-4.44-2.286zm0 .5c1.27 0 2.3 1.03 2.3 2.3 0 1.27-1.03 2.3-2.3 2.3-1.27 0-2.3-1.03-2.3-2.3 0-1.27 1.03-2.3 2.3-2.3zm0 1.2c-.608 0-1.1.492-1.1 1.1 0 .608.492 1.1 1.1 1.1.608 0 1.1-.492 1.1-1.1 0-.608-.492-1.1-1.1-1.1zm-.167-9.96h-4.809l.001 2.388c0 .331-.269.6-.6.6-.298 0-.546-.218-.592-.503l-.008-.097-.001-2.388H5.4c-.298 0-.546.218-.592.503L4.8 5.94v10.808c0 .298.218.545.503.592l.097.008h5.388c-.382-.708-.305-1.596.234-2.24l.218-.251c1.458-1.628 3.181-2.457 5.135-2.457.146 0 .29.005.433.014V5.94c0-.298-.218-.546-.503-.592l-.097-.008z"/>
    </g>
</svg>
