<svg xmlns="http://www.w3.org/2000/svg" width="20" height="20" viewBox="0 0 20 20">
    <g fill="none" fill-rule="evenodd">
        <path fill="#333333" d="M11.66 3.49c.98-.653 2.257-.653 3.237 0 .97.647 1.553 1.736 1.553 2.902v1.883l-.008.097c-.046.285-.294.503-.592.503-.331 0-.6-.269-.6-.6V6.392l-.007-.176c-.053-.697-.424-1.336-1.012-1.727-.577-.385-1.328-.385-1.905 0-.637.424-1.019 1.138-1.019 1.903v1.883l-.008.097c-.004.025-.01.05-.016.073 1.166.41 2.003 1.522 2.003 2.83v2.571c0 1.657-1.343 3-3 3H6c-1.657 0-3-1.343-3-3v-2.571c0-1.657 1.343-3 3-3h4.107V6.392l.007-.218c.067-1.083.637-2.078 1.546-2.684zm-1.374 5.985H6c-.944 0-1.719.727-1.794 1.652l-.006.148v2.571c0 .945.727 1.72 1.652 1.794l.148.006h4.286c.944 0 1.719-.727 1.794-1.652l.006-.148v-2.571c0-.944-.728-1.719-1.653-1.794l-.147-.006z"/>
    </g>
</svg>
