<svg xmlns="http://www.w3.org/2000/svg" width="48" height="48" viewBox="0 0 48 48">
    <g fill="none" fill-rule="evenodd">
        <g>
            <g>
                <g>
                    <g>
                        <g>
                            <path fill="#009333" d="M23.93 6.55c3.388 0 6.34 2.051 7.367 4.992l.014.045.204-.017.18-.011.362-.009c3.71 0 6.75 2.719 6.75 6.117 0 1.823-.885 3.501-2.353 4.642l-.046.034.06.07c.722.88 1.148 1.927 1.205 3.035l.007.257c0 2.924-2.531 5.293-5.78 5.691l-.152.016.002 2.293c0 4.198-3.338 7.617-7.504 7.747l-.246.003c-4.28 0-7.75-3.47-7.75-7.75l-.001-2.279-.304-.031c-3.07-.383-5.504-2.528-5.746-5.264l-.014-.212-.005-.214c0-1.222.448-2.379 1.247-3.335l.075-.086-.065-.05c-1.344-1.086-2.175-2.63-2.251-4.314l-.006-.253c0-3.398 3.04-6.117 6.75-6.117.11 0 .218.002.327.007l.295.019.02-.057c1.006-2.852 3.826-4.861 7.092-4.965zm0 1.5c-2.963 0-5.49 1.91-6.106 4.523-.092.387-.469.635-.86.567-.338-.06-.684-.09-1.034-.09-2.917 0-5.25 2.087-5.25 4.617 0 1.566.898 3.008 2.373 3.861.451.26.506.89.107 1.225-.949.793-1.48 1.843-1.48 2.935l.004.179c.104 2.247 2.396 4.088 5.23 4.089l.07-.002c.42-.008.765.33.765.75l.001 3.001c0 3.452 2.798 6.25 6.25 6.25s6.25-2.798 6.25-6.25l-.001-2.673-.02-.046c-.148-.406.039-.941.567-1.02l.119-.01.25-.005c2.737-.098 4.892-1.89 5.01-4.059l.005-.187c0-1.091-.514-2.125-1.436-2.914-.396-.34-.333-.97.122-1.224 1.515-.847 2.441-2.31 2.441-3.9 0-2.53-2.333-4.617-5.25-4.617-.388 0-.77.037-1.14.11-.396.078-.783-.173-.875-.566-.609-2.623-3.14-4.544-6.112-4.544zm.07 10.2c.38 0 .693.282.743.648l.007.102-.001 4.597 4.835-3.221c.345-.23.81-.137 1.04.208.209.313.15.727-.12.972l-.088.068-5.667 3.777L24.75 34c0 .414-.336.75-.75.75-.38 0-.693-.282-.743-.648L23.25 34l-.001-8.599-5.665-3.777c-.345-.23-.438-.695-.208-1.04.209-.313.613-.419.943-.263l.097.055 4.833 3.221L23.25 19c0-.414.336-.75.75-.75z" transform="translate(-197 -299) translate(16 197) translate(0 102) translate(164) translate(17)"/>
                        </g>
                    </g>
                </g>
            </g>
        </g>
    </g>
</svg>
