<svg xmlns="http://www.w3.org/2000/svg" width="48" height="48" viewBox="0 0 48 48">
    <g fill="none" fill-rule="evenodd">
        <g>
            <g>
                <g>
                    <g>
                        <path d="M0 0H48V48H0z" opacity=".2" transform="translate(-197 -197) translate(16 197) translate(164) translate(17)"/>
                        <path fill="#333" d="M23.95 37c.414 0 .75.336.75.75v4.5c0 .414-.336.75-.75.75s-.75-.336-.75-.75v-4.5c0-.414.336-.75.75-.75zM30 6.25c1.519 0 2.75 1.231 2.75 2.75v18c0 4.832-3.918 8.75-8.75 8.75h-6c-1.519 0-2.75-1.231-2.75-2.75V9c0-1.519 1.231-2.75 2.75-2.75zm0 1.5H18c-.69 0-1.25.56-1.25 1.25v24c0 .69.56 1.25 1.25 1.25h6c4.004 0 7.25-3.246 7.25-7.25V9c0-.69-.56-1.25-1.25-1.25z" transform="translate(-197 -197) translate(16 197) translate(164) translate(17)"/>
                    </g>
                </g>
            </g>
        </g>
    </g>
</svg>
