<svg xmlns="http://www.w3.org/2000/svg" xmlns:xlink="http://www.w3.org/1999/xlink" width="48" height="48" viewBox="0 0 48 48">
    <defs>
        <path id="mvijukaufa" d="M24.5 14.25c7.87 0 14.25 6.38 14.25 14.25S32.37 42.75 24.5 42.75 10.25 36.37 10.25 28.5s6.38-14.25 14.25-14.25zm0 1.5c-7.042 0-12.75 5.708-12.75 12.75s5.708 12.75 12.75 12.75 12.75-5.708 12.75-12.75-5.708-12.75-12.75-12.75zM31 4.25c.966 0 1.75.784 1.75 1.75v3c0 2.071-1.679 3.75-3.75 3.75h-3c-.966 0-1.75-.784-1.75-1.75V8c0-2.071 1.679-3.75 3.75-3.75zm0 1.5h-3c-1.243 0-2.25 1.007-2.25 2.25v3c0 .138.112.25.25.25h3c1.243 0 2.25-1.007 2.25-2.25V6c0-.138-.112-.25-.25-.25z"/>
    </defs>
    <g fill="none" fill-rule="evenodd">
        <g>
            <g>
                <g>
                    <g transform="translate(-279 -197) translate(16 197) translate(246) translate(17)">
                        <path d="M0 0H48V48H0z"/>
                        <use fill="#333" xlink:href="#mvijukaufa"/>
                    </g>
                </g>
            </g>
        </g>
    </g>
</svg>
