<svg xmlns="http://www.w3.org/2000/svg" width="48" height="48" viewBox="0 0 48 48">
    <g fill="none" fill-rule="evenodd">
        <g>
            <g>
                <g>
                    <g>
                        <g>
                            <path fill="#333" d="M37 8.75c2.623 0 4.75 2.127 4.75 4.75v17c0 4.832-3.918 8.75-8.75 8.75H11c-2.623 0-4.75-2.127-4.75-4.75v-21c0-2.623 2.127-4.75 4.75-4.75zm0 1.5H11c-1.795 0-3.25 1.455-3.25 3.25v21c0 1.795 1.455 3.25 3.25 3.25h22c4.004 0 7.25-3.246 7.25-7.25v-17c0-1.795-1.455-3.25-3.25-3.25zm-13.716 4.734c.533-.533 1.398-.533 1.931 0l1.606 1.606c1.054 1.054 1.326 2.593.816 3.898 1.29-.477 2.795-.197 3.83.839l1.607 1.606c.533.533.533 1.398 0 1.932l-1.606 1.606c-1.057 1.056-2.601 1.327-3.908.812.61 1.339.364 2.973-.739 4.075l-1.606 1.606c-.533.533-1.398.533-1.931 0l-1.606-1.606c-1.16-1.159-1.373-2.905-.641-4.28-1.383.77-3.162.568-4.337-.607l-1.606-1.606c-.533-.534-.533-1.399 0-1.932l1.606-1.606c1.147-1.147 2.87-1.368 4.239-.662-.61-1.34-.364-2.973.739-4.075zm1.75 11.563c-.271.086-.56.132-.86.132-.257 0-.506-.034-.743-.098l-.103.103-.59.59c-.834.835-.834 2.189 0 3.023l1.512 1.511 1.51-1.51c.799-.799.834-2.072.105-2.911l-.104-.112zm5.373-4.16c-.834-.834-2.188-.834-3.022 0l-.51.511c.1.29.154.601.154.926 0 .366-.068.715-.194 1.037l.066.065.348.348.136.136c.798.798 2.071.833 2.91.104l.112-.104L31.92 23.9zm-9.624 0c-.834-.834-2.188-.834-3.022 0L16.25 23.9l1.51 1.511c.8.798 2.072.833 2.911.104l.112-.104.682-.682c-.095-.284-.146-.588-.146-.904 0-.274.039-.54.11-.79l.035.034-.38-.38-.3-.3zm3.391.081c-.748 0-1.355.607-1.355 1.356 0 .748.607 1.355 1.355 1.355.749 0 1.355-.607 1.355-1.355 0-.749-.606-1.356-1.355-1.356zm.075-6.33l-1.51 1.513c-.835.834-.835 2.188 0 3.022l.463.465c.304-.11.63-.17.972-.17.382 0 .747.075 1.08.212l.507-.507c.798-.798.833-2.07.104-2.91l-.104-.112-1.512-1.513z" transform="translate(-279 -385) translate(16 197) translate(0 86) translate(246 102) translate(17)"/>
                        </g>
                    </g>
                </g>
            </g>
        </g>
    </g>
</svg>
