<svg xmlns="http://www.w3.org/2000/svg" width="48" height="48" viewBox="0 0 48 48">
    <g fill="none" fill-rule="evenodd">
        <g>
            <g>
                <g>
                    <g>
                        <g>
                            <path d="M0 0H48V48H0z" opacity=".2" transform="translate(-279 -401) translate(16 197) translate(0 102) translate(246 102) translate(17)"/>
                            <path fill="#009333" d="M24 5.75c1.519 0 2.75 1.231 2.75 2.75v.72l.209.076c2.962 1.137 5.052 3.91 5.272 7.149l.013.234c1.193.628 2.006 1.88 2.006 3.321v13.5c0 4.832-3.918 8.75-8.75 8.75h-9c-1.519 0-2.75-1.231-2.75-2.75V20c0-1.441.813-2.693 2.006-3.32.128-3.334 2.249-6.226 5.3-7.39l.194-.07V8.5c0-1.463 1.142-2.658 2.582-2.745zm6.5 12h-13c-1.243 0-2.25 1.007-2.25 2.25v4.75h3.937c.414 0 .75.336.75.75 0 .38-.282.693-.648.743l-.102.007H15.25v4.5h3.937c.414 0 .75.336.75.75 0 .38-.282.693-.648.743l-.102.007H15.25v7.25c0 .647.492 1.18 1.122 1.244l.128.006h9c4.004 0 7.25-3.246 7.25-7.25V20c0-1.243-1.007-2.25-2.25-2.25zM24 7.25c-.69 0-1.25.56-1.25 1.25v1.27c0 .337-.225.633-.55.723-2.653.732-4.593 3.01-4.906 5.731l-.003.026h13.417l-.035-.274c-.387-2.529-2.184-4.635-4.625-5.41l-.247-.073c-.325-.09-.55-.386-.55-.723L25.25 8.5c0-.69-.56-1.25-1.25-1.25z" transform="translate(-279 -401) translate(16 197) translate(0 102) translate(246 102) translate(17)"/>
                        </g>
                    </g>
                </g>
            </g>
        </g>
    </g>
</svg>
