<svg xmlns="http://www.w3.org/2000/svg" width="48" height="48" viewBox="0 0 48 48">
    <g fill="none" fill-rule="evenodd">
        <g>
            <g>
                <g>
                    <g>
                        <g>
                            <path fill="#333" d="M27.34 5.75c1.753 0 3.19 1.053 4.274 3.042.198.364.064.82-.3 1.018-.363.198-.819.064-1.017-.3-.799-1.464-1.715-2.183-2.778-2.254l-.179-.006h-.544v3.255h.013c1.385.083 2.494 1.192 2.577 2.577l.005.168v2.5h1.752c2.474 0 4.492 1.95 4.602 4.396l.005.211V33.5c0 4.832-3.918 8.75-8.75 8.75H15c-1.519 0-2.75-1.231-2.75-2.75V20.357c0-2.544 2.063-4.607 4.607-4.607h1.753v-2.5c0-1.406 1.056-2.566 2.418-2.73l.176-.015V7.25H18.3c-.414 0-.75-.336-.75-.75 0-.38.282-.693.648-.743l.102-.007h9.04zm3.803 11.5H16.857c-1.716 0-3.107 1.391-3.107 3.107V39.5c0 .69.56 1.25 1.25 1.25h12c4.004 0 7.25-3.246 7.25-7.25V20.357c0-1.716-1.391-3.107-3.107-3.107zm-5.847-10h-2.592v4c0 .38-.282.693-.648.743l-.102.007h-.594c-.647 0-1.18.492-1.244 1.122l-.006.128v2.5h7.781v-2.5c0-.647-.492-1.18-1.122-1.244L26.641 12h-.595c-.38 0-.693-.282-.743-.648l-.007-.102v-4z" transform="translate(-197 -503) translate(16 197) translate(0 102) translate(164 204) translate(17)"/>
                        </g>
                    </g>
                </g>
            </g>
        </g>
    </g>
</svg>
