<?xml version="1.0" encoding="UTF-8"?>
<svg width="32px" height="32px" viewBox="0 0 32 32" version="1.1" xmlns="http://www.w3.org/2000/svg" xmlns:xlink="http://www.w3.org/1999/xlink">
    <title>4CE50C19-BA3E-499B-960A-FC27D68924E8</title>
    <g id="+-Dock-Bar" stroke="none" stroke-width="1" fill="none" fill-rule="evenodd" opacity="0.639999986">
        <g id="#FM_PMS_MAI_00_00_B" transform="translate(0.000000, -323.000000)">
            <g id="+-Top-Visual" transform="translate(0.000000, 37.000000)">
                <g id="+-kv" transform="translate(0.000000, 131.000000)">
                    <g id="Icon/32/Left_Line" transform="translate(0.000000, 155.000000)">
                        <rect id="guidebox" fill="#FF0000" opacity="0" transform="translate(16.000000, 16.000000) scale(-1, 1) translate(-16.000000, -16.000000) " x="0" y="0" width="32" height="32"></rect>
                        <path d="M23.5470774,12.4022031 C23.8772315,12.1520609 24.3476546,12.2169233 24.5977969,12.5470774 C24.8251989,12.8472175 24.7922665,13.2632824 24.5363498,13.5243856 L24.4529226,13.5977969 L16.5337307,19.5977969 C16.2975517,19.7767386 15.9815835,19.7980258 15.7263112,19.6609773 L15.6337037,19.6021608 L7.55289559,13.6021608 C7.22033136,13.3552319 7.15091024,12.8854598 7.39783918,12.5528956 C7.62232004,12.2505645 8.03096875,12.165707 8.35327373,12.3382983 L8.44710441,12.3978392 L16.076,18.062 L23.5470774,12.4022031 Z" id="icon32/left_line" fill="#FFFFFF" transform="translate(15.999997, 15.999977) scale(-1, 1) rotate(-90.000000) translate(-15.999997, -15.999977) "></path>
                    </g>
                </g>
            </g>
        </g>
    </g>
</svg>