<svg id="Icon_40_Fruits_Line_40" data-name="Icon/40/Fruits_Line_40" xmlns="http://www.w3.org/2000/svg" width="40" height="40" viewBox="0 0 40 40">
  <g id="Icon_40_Fruits_Line_40-2" data-name="Icon/40/Fruits_Line_40">
    <rect id="guide_box" data-name="guide box" width="40" height="40" fill="none"/>
    <path id="Shape" d="M12.574,31.061a5.486,5.486,0,0,1-5.479-5.48,5.662,5.662,0,0,1,.052-.764l-.01,0A5.485,5.485,0,0,1,3.6,18.905,5.48,5.48,0,1,1,9.028,9.581l.05-.044a5.459,5.459,0,0,1,2.767-1.211,9.2,9.2,0,0,1,.14-1.157h-.035A7.934,7.934,0,0,1,6.575,5.552,6.081,6.081,0,0,1,4.73.757.747.747,0,0,1,5.453.008C5.6,0,5.743,0,5.885,0A7.566,7.566,0,0,1,13.2,4.418c1.119-1.362,2.9-2.053,5.287-2.053a.75.75,0,1,1,0,1.5c-3.3,0-4.93,1.419-5.139,4.467A5.465,5.465,0,0,1,15.963,9.45l.158.13a5.48,5.48,0,1,1,5.605,9.256l-.179.068a5.484,5.484,0,0,1-3.322,5.824L18,24.817a5.483,5.483,0,0,1-5.427,6.244ZM8.621,25.133a3.686,3.686,0,0,0-.027.447,3.98,3.98,0,1,0,7.96,0,4.093,4.093,0,0,0-.024-.447c-.143.01-.281.015-.408.015a5.419,5.419,0,0,1-3.412-1.192l-.136-.112a5.482,5.482,0,0,1-3.547,1.3l-.22,0Zm3.546-5.912a3.858,3.858,0,0,0-.025.447,3.98,3.98,0,1,0,7.96,0,4.093,4.093,0,0,0-.025-.447c-.142.01-.28.015-.408.015a5.478,5.478,0,0,1-3.548-1.3l-.051.044a5.487,5.487,0,0,1-3.5,1.26l-.236-.005Zm-7.093,0a3.472,3.472,0,0,0-.027.447,3.98,3.98,0,0,0,6.527,3.058l-.04-.059a5.463,5.463,0,0,1-.893-3,5.519,5.519,0,0,1,.053-.764l-.2-.077a5.479,5.479,0,0,1-1.487-.913l.022.019a5.481,5.481,0,0,1-3.547,1.3l-.206,0ZM19.669,9.777a3.984,3.984,0,0,0-2.548.923l.041.058a5.486,5.486,0,0,1,.085,5.864l-.124.193a3.979,3.979,0,1,0,2.546-7.037Zm-7.095,0a3.98,3.98,0,1,0,3.98,3.98A3.984,3.984,0,0,0,12.574,9.777Zm-7.094,0a3.98,3.98,0,1,0,2.547,7.038l-.04-.059a5.485,5.485,0,0,1-.077-5.877l.116-.18A3.978,3.978,0,0,0,5.48,9.777Zm.783-8.27h0l.014.136A4.078,4.078,0,0,0,7.821,4.631a6.449,6.449,0,0,0,3.846,1.04l.293,0,.158,0-.068-.164A6.033,6.033,0,0,0,6.63,1.528l-.367-.022Z" transform="translate(7.25 4.25)" fill="#333"/>
  </g>
</svg>
