<svg xmlns="http://www.w3.org/2000/svg" width="72" height="72" viewBox="0 0 72 72">
    <g fill="none" fill-rule="evenodd">
        <g>
            <g>
                <g>
                    <g>
                        <g>
                            <g stroke="#333">
                                <path stroke-width="2" d="M4 19h37.882v21.543c0 1.598-1.295 2.894-2.893 2.894H6.894C5.296 43.437 4 42.14 4 40.543V19h0z" transform="translate(-884 -3621) translate(136 540) translate(100 3059) translate(600) translate(48 22) translate(12.5 14)"/>
                                <path stroke-linecap="round" stroke-linejoin="round" stroke-width="2" d="M22.5 34L22.5 42.166" transform="translate(-884 -3621) translate(136 540) translate(100 3059) translate(600) translate(48 22) translate(12.5 14)"/>
                                <path fill="#80C342" stroke-linejoin="round" stroke-width="1.96" d="M31.313 0c3.053 0 5.872 1.636 7.387 4.287l5.125 8.97c.128.223.221.455.283.692.569 1.057.892 2.266.892 3.551 0 4.142-3.358 7.5-7.5 7.5-4.142 0-7.5-3.358-7.5-7.5 0 4.142-3.358 7.5-7.5 7.5-4.142 0-7.5-3.358-7.5-7.5 0 4.142-3.358 7.5-7.5 7.5C3.358 25 0 21.642 0 17.5c0-1.287.324-2.498.895-3.556.062-.24.156-.47.28-.687L6.3 4.287C7.815 1.636 10.634 0 13.687 0h17.626z" transform="translate(-884 -3621) translate(136 540) translate(100 3059) translate(600) translate(48 22) translate(12.5 14)"/>
                            </g>
                        </g>
                    </g>
                </g>
            </g>
        </g>
    </g>
</svg>
