<svg xmlns="http://www.w3.org/2000/svg" width="16" height="16" viewBox="0 0 16 16">
    <g fill="none" fill-rule="evenodd">
        <g>
            <g>
                <g>
                    <g>
                        <path d="M0 0H16V16H0z" transform="translate(-42 -424) translate(20 183) translate(22 240) translate(0 1)"/>
                        <g stroke="#333" stroke-linejoin="round">
                            <path d="M4.494 0c1.21 0 2.386.481 3.234 1.338C8.504 2.122 9 3.222 9 4.548c0 2.085-1.184 4.277-3.552 6.575l-.278.266c-.38.357-.972.356-1.351 0C1.273 8.991 0 6.711 0 4.547 0 3.21.49 2.11 1.26 1.33 2.105.473 3.281 0 4.494 0zm.005 2.7c-.496 0-.946.201-1.271.527C2.9 3.554 2.7 4.004 2.7 4.5c0 .498.201.948.528 1.273.325.326.775.527 1.271.527.498 0 .948-.201 1.273-.527.326-.325.528-.775.528-1.273 0-.496-.202-.946-.528-1.273C5.447 2.9 4.997 2.7 4.5 2.7z" transform="translate(-42 -424) translate(20 183) translate(22 240) translate(0 1) translate(3.5 2.4)"/>
                        </g>
                    </g>
                </g>
            </g>
        </g>
    </g>
</svg>
