<svg xmlns="http://www.w3.org/2000/svg" width="16" height="16" viewBox="0 0 16 16">
    <g fill="none" fill-rule="evenodd">
        <g>
            <g>
                <g>
                    <g>
                        <path fill="#474747" d="M1.664 7.082l.066-.037c-.226.133-.53.53-.64.925-.12.44-.12.735-.001 1.433.045.271.136.588.273.952.185.495.718.767 1.228.627l1.653-.456c.354-.097.628-.377.719-.733l.264-1.04c.063-.25.24-.454.475-.554.566-.24 1.13-.36 1.695-.36.574 0 1.152.123 1.737.371.226.096.398.289.467.525l.319 1.085c.1.341.371.606.715.698l1.829.491c.468.126.96-.095 1.178-.528.199-.396.338-.753.42-1.07.187-.734.187-1.14-.006-1.571-.085-.19-.221-.367-.403-.544l-.164-.148-.236-.2c-.262-.232-.939-.67-1.724-1.033C10.288 5.34 8.928 5 7.491 5c-1.46 0-2.843.384-4.121 1.027l-.201.106c-.67.367-1.617 1-1.505.949z" opacity=".72" transform="translate(-81 -369) translate(0 289) translate(16 52) translate(65 28) rotate(-120 7.6 8.022)"/>
                    </g>
                </g>
            </g>
        </g>
    </g>
</svg>
