<svg xmlns="http://www.w3.org/2000/svg" width="32" height="32" viewBox="0 0 32 32">
    <g fill="none" fill-rule="evenodd">
        <g>
            <g>
                <g>
                    <g>
                        <g>
                            <g>
                                <path d="M0 0H32V32H0z" opacity=".2" transform="translate(-44 -941) translate(0 369) translate(0 552) translate(0 8) translate(33 12) translate(11)"/>
                                <g stroke="#333" stroke-width="1.2">
                                    <path d="M1.73.667h16.54c.829 0 1.5.671 1.5 1.5 0 .07-.005.142-.015.212l-2.428 17c-.106.739-.739 1.288-1.485 1.288H4.158c-.746 0-1.38-.55-1.485-1.288l-2.428-17C.127 1.559.697.799 1.517.682c.07-.01.142-.015.213-.015z" transform="translate(-44 -941) translate(0 369) translate(0 552) translate(0 8) translate(33 12) translate(11) translate(6 5.333)"/>
                                    <path d="M10.667 8.167H12.5c1.38 0 2.5 1.119 2.5 2.5v2.5h0-2.5c-1.38 0-2.5-1.12-2.5-2.5V8.833c0-.368.298-.666.667-.666z" transform="translate(-44 -941) translate(0 369) translate(0 552) translate(0 8) translate(33 12) translate(11) translate(6 5.333) rotate(90 12.5 10.667)"/>
                                    <path d="M5.667 8.167H7.5c1.38 0 2.5 1.119 2.5 2.5v2.5h0-2.5c-1.38 0-2.5-1.12-2.5-2.5V8.833c0-.368.298-.666.667-.666z" transform="translate(-44 -941) translate(0 369) translate(0 552) translate(0 8) translate(33 12) translate(11) translate(6 5.333) matrix(0 1 1 0 -3.167 3.167)"/>
                                </g>
                            </g>
                        </g>
                    </g>
                </g>
            </g>
        </g>
    </g>
</svg>
