<svg xmlns="http://www.w3.org/2000/svg" width="20" height="20" viewBox="0 0 20 20">
    <g fill="none" fill-rule="evenodd">
        <g>
            <g>
                <g>
                    <g>
                        <path fill="#333" d="M10 5.833c.276 0 .5.224.5.5V9.5l3.167.001c.276 0 .5.224.5.5s-.224.5-.5.5h-3.168l.001 3.167c0 .276-.224.5-.5.5s-.5-.224-.5-.5v-3.168l-3.167.001c-.276 0-.5-.224-.5-.5s.224-.5.5-.5H9.5L9.5 6.332c0-.276.224-.5.5-.5z" transform="translate(-320 -112) translate(316 108) translate(3.927 4) translate(.073)"/>
                    </g>
                </g>
            </g>
        </g>
    </g>
</svg>
