<svg xmlns="http://www.w3.org/2000/svg" width="20" height="20" viewBox="0 0 20 20">
    <g fill="none" fill-rule="evenodd">
        <g>
            <g>
                <g>
                    <g>
                        <g>
                            <path d="M0 0H20V20H0z" transform="translate(-133 -286) translate(12 109) translate(4 32) translate(65 144) translate(52 1)"/>
                            <path fill="#C2C2C2" d="M16.01 4.25c.775 0 1.411.608 1.483 1.385l.007.148v8.019c0 .25-.176.46-.407.502l-.09.009h-1.69c-.238.83-.984 1.437-1.869 1.437-.888 0-1.637-.612-1.872-1.448H8.256c-.235.836-.984 1.448-1.873 1.448-.884 0-1.63-.607-1.868-1.438H2.996c-.243 0-.446-.18-.488-.418l-.008-.092V9.815c0-.085.02-.167.059-.241l.044-.07 2.623-3.302c.076-.1.184-.168.303-.191l.09-.009h2.819V4.76c0-.25.176-.46.407-.503l.09-.008h7.076zm-9.627 8.512c-.527 0-.955.44-.955.983 0 .543.428.983.955.983.528 0 .956-.44.956-.983 0-.543-.428-.983-.956-.983zm7.061 0c-.527 0-.955.44-.955.983 0 .543.428.983.955.983.528 0 .955-.44.955-.983 0-.543-.427-.983-.955-.983zM9.431 5.271v3.193c0 .283-.222.511-.497.511-.243 0-.446-.18-.488-.419l-.008-.092v-1.44H5.864L3.493 9.987v3.303h.993c.2-.889.974-1.55 1.897-1.55.92 0 1.692.656 1.896 1.538h3.27c.204-.882.975-1.538 1.895-1.538.924 0 1.698.661 1.898 1.55h1.164l.001-7.508c0-.251-.175-.46-.407-.503l-.09-.008-6.58-.001z" transform="translate(-133 -286) translate(12 109) translate(4 32) translate(65 144) translate(52 1) matrix(-1 0 0 1 20 0)"/>
                        </g>
                    </g>
                </g>
            </g>
        </g>
    </g>
</svg>
