<svg xmlns="http://www.w3.org/2000/svg" width="44" height="44" viewBox="0 0 44 44">
    <g fill="none" fill-rule="evenodd">
        <g>
            <g>
                <g>
                    <g>
                        <g>
                            <path fill="#FFF" d="M36.015 14.79c.454 0 .828.338.879.774l.006.102v15.08c0 .45-.342.82-.782.87l-.103.007h-2.75c.004.055.006.11.006.166 0 1.332-1.09 2.411-2.435 2.411-1.344 0-2.435-1.08-2.435-2.41l.006-.167h-8.776c.003.055.005.11.005.166 0 1.332-1.09 2.411-2.435 2.411-1.344 0-2.434-1.08-2.434-2.41l.005-.167h-1.818c-.958 0-1.742-.734-1.811-1.665l-.005-.134V26.2c0-.14.035-.277.101-.4l.056-.088 3.815-5.316c.14-.194.355-.32.591-.348l.102-.006h3.345v-4.408c0-.433.329-.789.752-.837l.1-.006h16.015zm-25.5-6.57c-.64.704-1.031 1.634-1.031 2.656 0 2.185 1.789 3.957 3.996 3.957 1.031 0 1.97-.387 2.68-1.021-.544 1.894-2.304 3.282-4.393 3.282-2.522 0-4.567-2.025-4.567-4.523 0-2.067 1.402-3.811 3.315-4.35zm9.157-.971c.043.03.075.072.093.121l.336.926c.027.075.088.134.165.158l.946.3c.137.044.212.19.168.324-.016.05-.046.093-.088.125l-.785.603c-.064.05-.101.125-.1.205l.003.983c0 .143-.116.258-.26.259-.052 0-.103-.016-.146-.045l-.822-.553c-.067-.045-.15-.056-.227-.031l-.944.307c-.137.044-.284-.03-.329-.164-.016-.05-.017-.103-.002-.153l.277-.944c.023-.077.008-.16-.04-.224l-.587-.794c-.085-.115-.06-.276.057-.36.042-.03.093-.048.145-.05l.993-.03c.08-.003.156-.042.203-.107l.58-.798c.085-.115.247-.142.364-.058z" transform="translate(-122 -305) translate(20 183) translate(23 114) translate(72 1) translate(7.2 7.2)"/>
                        </g>
                    </g>
                </g>
            </g>
        </g>
    </g>
</svg>
