<svg xmlns="http://www.w3.org/2000/svg" width="52" height="52" viewBox="0 0 52 52">
    <g fill="none" fill-rule="evenodd">
        <g>
            <g>
                <g>
                    <g>
                        <g transform="translate(-154 -470) translate(34 470) translate(120) translate(2.59 8) translate(9.724 15.733)">
                            <path fill="#80C342" stroke="#80C342" stroke-linejoin="round" stroke-width="1.414" d="M.849 15.266h23.193V.105H8.053c-.469 0-.849.38-.849.849v3.88h0-2.967c-.274 0-.53.132-.69.355L.16 9.917c-.103.144-.159.317-.159.494v4.006c0 .469.38.849.849.849z"/>
                            <circle cx="5.304" cy="16.185" r="2.475" fill="#80C342"/>
                            <circle cx="18.033" cy="16.185" r="2.475" fill="#80C342"/>
                            <rect width="8.84" height="1.768" x="23.573" y="3.862" fill="#FFF" rx=".884"/>
                            <rect width="8.84" height="1.768" x="19.153" y="7.398" fill="#FFF" rx=".884"/>
                            <rect width="11.787" height="1.768" x="23.573" y="2.094" fill="#80C342" rx=".884"/>
                            <rect width="8.84" height="1.768" x="20.627" y="5.63" fill="#80C342" rx=".884"/>
                        </g>
                        <g fill="#80C342">
                            <path d="M6.146 5.893l-.133.088c-1.384.958-2.227 2.488-2.227 4.149 0 2.845 2.444 5.142 5.446 5.142l.328-.01c.763-.042 1.5-.234 2.171-.562l.056-.03-.12.194c-1.13 1.729-3.151 2.816-5.37 2.816C2.814 17.68 0 15.035 0 11.785 0 8.62 2.671 6.027 6.03 5.896l.116-.003z" transform="translate(-154 -470) translate(34 470) translate(120) translate(2.59 8)"/>
                            <path d="M17.329 6.575l-1.317.648c-.146.072-.323.012-.395-.134-.026-.053-.035-.113-.027-.172l.21-1.453c.013-.09-.017-.182-.08-.247l-1.024-1.052c-.113-.117-.11-.304.006-.417.042-.041.097-.07.155-.08l1.446-.249c.09-.015.168-.072.21-.153l.685-1.298c.076-.144.254-.2.398-.123.053.027.096.07.124.123l.684 1.298c.043.081.12.138.21.153l1.447.25c.16.028.268.18.24.34-.01.059-.038.113-.08.156l-1.023 1.052c-.063.065-.093.157-.08.247l.21 1.453c.023.16-.089.31-.25.334-.059.008-.119-.001-.172-.028l-1.317-.648c-.082-.04-.178-.04-.26 0z" transform="translate(-154 -470) translate(34 470) translate(120) translate(2.59 8) rotate(-35 17.459 4.788)"/>
                            <path d="M10.699 11.349l-.884.435c-.146.072-.323.012-.394-.134-.027-.054-.036-.114-.028-.172l.14-.975c.014-.091-.016-.182-.08-.248l-.686-.706c-.114-.117-.111-.303.005-.417.043-.041.097-.069.156-.079l.97-.167c.09-.016.168-.072.211-.153l.46-.872c.075-.144.253-.199.397-.123.053.028.096.07.124.123l.459.872c.043.08.12.137.21.153l.971.167c.16.028.268.18.24.34-.01.06-.037.113-.079.156l-.687.706c-.063.066-.093.157-.08.248l.14.975c.024.16-.088.31-.249.333-.059.009-.119 0-.172-.027l-.884-.435c-.082-.04-.178-.04-.26 0z" transform="translate(-154 -470) translate(34 470) translate(120) translate(2.59 8) rotate(8 10.829 9.945)"/>
                        </g>
                    </g>
                </g>
            </g>
        </g>
    </g>
</svg>
