<svg id="Icon_40_Meats_Line_40" data-name="Icon/40/Meats_Line_40" xmlns="http://www.w3.org/2000/svg" width="40" height="40" viewBox="0 0 40 40">
  <g id="Icon_40_Category_Pork_Line_40" data-name="Icon/40/Category/Pork_Line_40">
    <rect id="guidebox" width="40" height="40" fill="#ffe9e9" opacity="0"/>
    <g id="Group_11" data-name="Group 11" transform="translate(1.538 8.462)">
      <path id="Combined_Shape" data-name="Combined Shape" d="M8.892,24.213l-.006-.107V20.191a18.638,18.638,0,0,1-2.674.211c-3.007,0-5.095-.959-6.208-2.854l0-.6,0-1.064a.85.85,0,0,1,.573-.8l.105-.029.191-.041C2.229,14.7,3.206,13.345,3.776,11l.07-.3L1.267,8.127a.751.751,0,0,1-.081-.094.85.85,0,0,1,.171-1.191A4.934,4.934,0,0,1,4.33,5.759,5.621,5.621,0,0,1,7.473,6.854L8,6.32l.519-.515.515-.5C12.488,2.031,15.865,0,22.01,0c3.641,0,6.448,1.021,8.347,3.034q.182.193.353.4a3.292,3.292,0,0,1,3.375-2.363l.218.009a3.033,3.033,0,0,1,2.879,3.1,2.836,2.836,0,0,1-2.936,2.939.75.75,0,0,1,0-1.5,1.345,1.345,0,0,0,1.436-1.438,1.537,1.537,0,0,0-1.482-1.6c-1.348-.085-2.07.619-2.324,2.389a.715.715,0,0,1-.05.182,13.98,13.98,0,0,1,1.23,7.145l-.038.527q-.009.122-.022.243l0,.023-.058.533c-.023.19-.046.365-.071.536l-.084.538A13.243,13.243,0,0,1,30.2,20.752a14.406,14.406,0,0,1-5.385,4.12.851.851,0,0,1-1.2-.665l-.006-.107V21.678a1.711,1.711,0,0,0-.766-1.418.75.75,0,0,1-.319-.129l-.106-.076a1.618,1.618,0,0,0-.364-.073l-.148-.006H14.855a.846.846,0,0,0-.814.6,6.673,6.673,0,0,1-1.868,3.1,5.556,5.556,0,0,1-2.206,1.245.828.828,0,0,1-.23.032A.853.853,0,0,1,8.892,24.213Zm1.489-4.155.005.136,0,2.942a4.291,4.291,0,0,0,.6-.409l.193-.164a5.147,5.147,0,0,0,1.433-2.42,2.365,2.365,0,0,1,2.078-1.66l.171-.006h5.977a5.674,5.674,0,0,1-.268-5.743.75.75,0,1,1,1.38.589c-.976,2.29-.589,4.023,1.2,5.4A3.2,3.2,0,0,1,25.1,21.5l0,.182v1.37l.118-.063a11.348,11.348,0,0,0,6.009-8.176l.066-.367a17.594,17.594,0,0,0,.114-5.811A8.7,8.7,0,0,0,29.56,4.4c-1.628-1.923-4.169-2.9-7.55-2.9a16.025,16.025,0,0,0-6.718,1.2,19.8,19.8,0,0,0-5.825,4.28l-.609.606-.079.08L8.546,7.9a1.5,1.5,0,0,1-1.917.193,4.108,4.108,0,0,0-2.292-.835,3.022,3.022,0,0,0-1.38.346l-.059.03,2.006,2a1.491,1.491,0,0,1,.431,1.237l-.025.15a10.172,10.172,0,0,1-1.376,3.493,4.57,4.57,0,0,1-2.306,1.842l-.129.04v.7c.888,1.216,2.422,1.807,4.688,1.807a16.7,16.7,0,0,0,2.125-.149l.356-.049a1.5,1.5,0,0,1,1.712,1.35Zm-3.8-6.52a.9.9,0,1,1,.9.9A.9.9,0,0,1,6.584,13.538Z" transform="translate(0 0)" fill="#333"/>
    </g>
  </g>
</svg>
