<svg xmlns="http://www.w3.org/2000/svg" width="32" height="32" viewBox="0 0 32 32">
    <g fill="none" fill-rule="evenodd">
        <g>
            <g>
                <g>
                    <path fill="#80C342" d="M24.442 10.444c.217 0 .397.156.434.362l.007.08v1.24h6.071c.305 0 .552.247.552.552 0 .305-.247.552-.552.552h-6.253c-.274 0-.502.2-.544.462l-.008.09c0 .274.2.501.463.544l.09.007h2.574c.305 0 .552.247.552.552 0 .305-.247.552-.552.552h-5.333c-.275 0-.502.2-.545.462l-.007.09c0 .274.2.501.462.544l.09.007h2.94v3.807c0 .217-.156.397-.362.434l-.08.008-2.21-.001.006.133c0 .806-.617 1.467-1.404 1.538l-.141.007c-.853 0-1.545-.692-1.545-1.545 0-.045.002-.09.006-.133h-4.868l.007.133c0 .806-.617 1.467-1.404 1.538l-.14.007c-.854 0-1.546-.692-1.546-1.545 0-.045.002-.09.006-.133H9.966c-.473 0-.868-.339-.953-.788H9v-.107l-.005-.076v-2.5l.003-.069L9 17l.136-.185.041-.063 2.115-2.951c.16-.223.404-.366.673-.399l.116-.007h1.41v-1.98c0-.46.32-.845.75-.946l.109-.019.113-.006h9.979zM7.204 4.678l-.083.055c-.864.598-1.39 1.553-1.39 2.59 0 1.775 1.525 3.209 3.399 3.209l.205-.006c.475-.027.935-.147 1.355-.351l.034-.019-.074.121c-.706 1.079-1.967 1.757-3.352 1.757-2.174 0-3.93-1.65-3.93-3.678 0-1.977 1.667-3.594 3.763-3.676l.073-.002zm3.2 1.177c.03.021.052.052.065.087l.208.578c.019.054.062.096.117.113l.585.188c.097.03.15.134.119.231-.011.035-.033.067-.063.09l-.485.376c-.045.035-.072.089-.072.146l.003.615c0 .101-.082.184-.184.184-.037 0-.073-.01-.104-.031l-.508-.346c-.047-.032-.107-.04-.16-.023l-.585.192c-.096.032-.2-.02-.232-.117-.012-.035-.012-.073-.002-.109l.172-.59c.016-.055.005-.114-.029-.16l-.363-.496c-.06-.082-.042-.197.04-.257.03-.022.066-.034.103-.035l.614-.02c.057-.001.11-.03.144-.076l.36-.499c.059-.082.174-.1.256-.041zm2.984-3.402l.815.42c.05.025.11.026.162.002l.829-.39c.092-.043.201-.004.245.088.015.033.02.071.015.108l-.147.904c-.009.056.009.114.048.155l.627.668c.07.074.066.19-.008.26-.027.025-.062.042-.098.047l-.905.14c-.057.01-.106.044-.134.094l-.44.802c-.05.09-.161.122-.25.073-.033-.018-.06-.045-.076-.078l-.413-.818c-.026-.05-.074-.087-.13-.098l-.9-.171c-.1-.02-.165-.116-.146-.215.007-.037.025-.07.051-.096l.65-.646c.041-.04.06-.097.053-.153l-.115-.91c-.012-.1.06-.192.16-.205.037-.004.074.002.107.02z" transform="translate(-12 -467) translate(12 319) translate(0 148)"/>
                </g>
            </g>
        </g>
    </g>
</svg>
