<svg xmlns="http://www.w3.org/2000/svg" width="32" height="32" viewBox="0 0 32 32">
    <g fill="none" fill-rule="evenodd">
        <g>
            <g>
                <g>
                    <path fill="#80C342" d="M9 17.42c2.12 0 3.84 1.72 3.84 3.84S11.12 25.1 9 25.1s-3.84-1.72-3.84-3.84S6.88 17.42 9 17.42zm14.089 5.869c.294 0 .533.239.533.533 0 .295-.239.534-.533.534h-4.267c-.294 0-.533-.24-.533-.534 0-.294.239-.533.533-.533h4.267zm-9.567-14.4v3.205l.008.09c.043.234.247.41.492.41.246 0 .45-.176.492-.41l.008-.09V8.89h4.922c.737 0 1.334.597 1.334 1.333V20.89c0 .085-.008.168-.023.248h5.89c.294 0 .533.239.533.533 0 .295-.239.533-.534.533l-6.98.001c-.072.012-.145.018-.22.018H13.76c.056-.294.084-.597.084-.907 0-2.7-2.188-4.89-4.888-4.89-.521 0-1.023.082-1.494.233l.02-6.44c.002-.736.598-1.33 1.333-1.33h4.707zM8.956 18.86c-.246 0-.45.177-.492.41l-.008.09v1.956l.008.09c.037.204.198.364.402.401l.09.009h1.6l.09-.009c.204-.037.364-.197.401-.402l.009-.09-.009-.09c-.037-.203-.197-.364-.402-.401l-.09-.008-1.1-.001V19.36l-.008-.09c-.042-.233-.246-.41-.491-.41zm19.466.153c.295 0 .534.239.534.533 0 .295-.24.534-.534.534h-5.155c-.295 0-.534-.239-.534-.534 0-.294.24-.533.534-.533h5.155z" transform="translate(-12 -942) translate(12 319) translate(0 623)"/>
                </g>
            </g>
        </g>
    </g>
</svg>
