<svg xmlns="http://www.w3.org/2000/svg" xmlns:xlink="http://www.w3.org/1999/xlink" width="32" height="32" viewBox="0 0 32 32">
    <defs>
        <path id="2m4k5s4hba" d="M10.83.34c4.444 0 8.171 3.067 9.18 7.2.951.394 1.62 1.331 1.62 2.425 0 1.133-.718 2.098-1.724 2.466-1.143 3.934-4.774 6.809-9.076 6.809-4.37 0-8.048-2.967-9.128-6.997C.912 11.792.38 10.94.38 9.965c0-.934.487-1.753 1.22-2.219C2.536 3.51 6.313.34 10.83.34z"/>
    </defs>
    <g fill="none" fill-rule="evenodd">
        <g>
            <g>
                <g>
                    <g>
                        <g>
                            <g>
                                <g>
                                    <g transform="translate(-284 -941) translate(0 369) translate(0 552) translate(0 8) translate(240) translate(44 12) translate(5 5.5) translate(0 .21)">
                                        <mask id="vogh6d4ejb" fill="#fff">
                                            <use xlink:href="#2m4k5s4hba"/>
                                        </mask>
                                        <use fill="#FFF" stroke="#80C342" stroke-width="1.2" xlink:href="#2m4k5s4hba"/>
                                        <path stroke="#80C342" stroke-width="2.4" d="M11.324 1.831c.683.868 1.076 1.592 1.076 2.195 0 .402-.125.741-.354.977-.236.243-.566.37-.914.37-.351 0-.682-.16-.926-.407-.175-.177-.307-.404-.363-.66h0z" mask="url(#vogh6d4ejb)"/>
                                        <path fill="#80C342" d="M9.212 4.594c.332 0 .6-.269.6-.6 0-.332-.268-.6-.6-.6-.331 0-.6.268-.6.6 0 .331.269.6.6.6zM7.5 11.39c.608 0 1.1-.493 1.1-1.1 0-.608-.492-1.1-1.1-1.1-.608 0-1.1.492-1.1 1.1 0 .607.492 1.1 1.1 1.1z" mask="url(#vogh6d4ejb)"/>
                                        <circle cx="14.5" cy="10.29" r="1.1" fill="#80C342" mask="url(#vogh6d4ejb)"/>
                                    </g>
                                </g>
                            </g>
                        </g>
                    </g>
                </g>
            </g>
        </g>
    </g>
</svg>
