<svg xmlns="http://www.w3.org/2000/svg" width="32" height="32" viewBox="0 0 32 32">
    <g fill="none" fill-rule="evenodd">
        <g>
            <g>
                <g>
                    <g>
                        <g>
                            <g>
                                <path d="M0 0H32V32H0z" opacity=".2" transform="translate(-164 -941) translate(0 369) translate(0 552) translate(0 8) translate(120) translate(44 12)"/>
                                <g>
                                    <path stroke="#80C342" stroke-width="1.2" d="M6.82.667h15.02c.567 0 1.086.32 1.34.827l3.153 6.287h0l-3.148 6.076c-.257.497-.771.81-1.331.81H6.82c-.564 0-1.08-.317-1.336-.82l-3.15-6.179h0l3.15-6.182c.256-.503.772-.82 1.336-.82z" transform="translate(-164 -941) translate(0 369) translate(0 552) translate(0 8) translate(120) translate(44 12) translate(1.667 8.5)"/>
                                    <path stroke="#80C342" stroke-width="1.2" d="M11.833 7.667h5v1.4c0 .552-.447 1-1 1h-3c-.552 0-1-.448-1-1v-1.4h0z" transform="translate(-164 -941) translate(0 369) translate(0 552) translate(0 8) translate(120) translate(44 12) translate(1.667 8.5)"/>
                                    <path fill="#80C342" d="M.933 7.067h26.8c.332 0 .6.268.6.6 0 .331-.268.6-.6.6H.933c-.331 0-.6-.269-.6-.6 0-.332.269-.6.6-.6z" transform="translate(-164 -941) translate(0 369) translate(0 552) translate(0 8) translate(120) translate(44 12) translate(1.667 8.5)"/>
                                </g>
                            </g>
                        </g>
                    </g>
                </g>
            </g>
        </g>
    </g>
</svg>
