<svg xmlns="http://www.w3.org/2000/svg" width="16" height="16" viewBox="0 0 16 16">
    <g fill="none" fill-rule="evenodd">
        <g>
            <g>
                <g>
                    <g>
                        <g>
                            <g>
                                <g fill="#fff">
                                    <path d="M3.8 1.065l.068.058 2.953 2.952c.195.195.195.512 0 .707-.174.174-.443.193-.638.058l-.07-.058-2.099-2.098v7.829c0 .276-.223.5-.5.5-.245 0-.449-.177-.491-.41l-.008-.09v-7.83L.915 4.781c-.174.174-.443.193-.638.058l-.07-.058c-.173-.174-.192-.443-.057-.638l.058-.07L3.16 1.124c.174-.174.443-.193.638-.058z" transform="translate(-115 -701) translate(0 199) translate(0 452) translate(16 38) translate(60) translate(39 12) translate(4.5 2)"/>
                                </g>
                            </g>
                        </g>
                    </g>
                </g>
            </g>
        </g>
    </g>
</svg>
