<svg xmlns="http://www.w3.org/2000/svg" width="44" height="44" viewBox="0 0 44 44">
    <g fill="none" fill-rule="evenodd">
        <g>
            <g>
                <g>
                    <g>
                        <g>
                            <g fill="#FFF">
                                <path d="M7.658 11.646c4.23 0 7.658 3.437 7.658 7.677S11.887 27 7.658 27C3.428 27 0 23.563 0 19.323s3.429-7.677 7.658-7.677zm0 1.355c-3.483 0-6.307 2.83-6.307 6.322s2.824 6.322 6.307 6.322c3.483 0 6.306-2.83 6.306-6.322s-2.823-6.322-6.306-6.322zM24.026 0C25.17 0 26.1.93 26.1 2.075v16.79c0 1.146-.929 2.075-2.074 2.075h-7.41c.094-.526.143-1.068.143-1.622 0-5.039-4.075-9.124-9.101-9.124-.835 0-1.644.113-2.412.324l.027-8.45C5.277.927 6.204.002 7.347.002L14.95 0v4.13l.006.1c.043.396.34.702.7.702.361 0 .658-.306.702-.702l.005-.1V0h7.663zM7.658 15.567c.346 0 .631.258.677.592l.006.093v2.386h1.823c.346 0 .632.258.677.592l.006.093c0 .347-.257.633-.59.679l-.093.006H7.658c-.346 0-.632-.258-.677-.592l-.006-.093v-3.07c0-.379.306-.686.683-.686z" transform="translate(-194 -305) translate(20 183) translate(23 114) translate(143) translate(8.2 8) translate(7.178 10.08)"/>
                            </g>
                        </g>
                    </g>
                </g>
            </g>
        </g>
    </g>
</svg>
