<svg xmlns="http://www.w3.org/2000/svg" width="335" height="335" viewBox="0 0 335 335">
    <defs>
        <style>
            .cls-1{fill:none}.cls-2{fill:#e0e0e0}.cls-4{fill:#f5f5f5}
        </style>
    </defs>
    <g id="img_355_map_02" transform="translate(8 -13)">
        <g id="Img_400_map" transform="translate(-8 13)">
            <path id="guide_box" d="M0 0H335V335H0z" class="cls-1"/>
            <g id="Img" transform="translate(30 26.26)">
                <g id="Bottom" transform="translate(.022)">
                    <path id="패스_56" d="M389.805 413.783a1.27 1.27 0 0 0-1.306-1.233h-.149l-10.978 1.588a6.266 6.266 0 0 0-4.023 2.308l-19.537 24.566a.942.942 0 0 0-.206.609v.106a.358.358 0 0 0 0 .106v.1a.358.358 0 0 0 0 .106v.212a.358.358 0 0 0 0 .106v.1a.358.358 0 0 0 0 .106v.212a.358.358 0 0 0 0 .106v.079a.358.358 0 0 0 0 .106v.423a.358.358 0 0 0 0 .106v.423a.358.358 0 0 0 0 .106v.423a.358.358 0 0 0 0 .106v.423a.358.358 0 0 0 0 .106v.423a.358.358 0 0 0 0 .106v.423a.358.358 0 0 0 0 .106v.423a.358.358 0 0 0 0 .106v.318a.358.358 0 0 0 0 .106v.418a.358.358 0 0 0 0 .106v.418a.358.358 0 0 0 0 .106v.418a.358.358 0 0 0 0 .106v.1a.358.358 0 0 0 0 .106v.212a.358.358 0 0 0 0 .106V455a.358.358 0 0 0 0 .106v.1a.358.358 0 0 0 0 .106v.212a.358.358 0 0 0 0 .106v.1a.358.358 0 0 0 0 .106v.212a.358.358 0 0 0 0 .106v.1a.358.358 0 0 0 0 .106v.212a.358.358 0 0 0 0 .106v.1a.358.358 0 0 0 0 .106v.212a.358.358 0 0 0 0 .106v.1a.358.358 0 0 0 0 .106.99.99 0 0 0 .878 1.09h7.94a2.011 2.011 0 0 0 2.011-2.011v-2.117a4.763 4.763 0 0 1 3.176-4.494l12.889-4.563a5.646 5.646 0 0 0 3.176-2.842c1.524-3.1 4.4-9 5.96-12.174a1.2 1.2 0 0 0 .122-.7.354.354 0 0 0 0-.106.354.354 0 0 0 0-.106v-.212a.354.354 0 0 0 0-.106v-.1a.354.354 0 0 0 0-.106v-.212a.354.354 0 0 0 0-.106v-.1a.354.354 0 0 0 0-.106v-5.489a.354.354 0 0 0 0-.106v-.1a.354.354 0 0 0 0-.106v-.217a.354.354 0 0 0 0-.106v-.1a.354.354 0 0 0 0-.106v-.217a.354.354 0 0 0 0-.106v-.1a.354.354 0 0 0 0-.106v-.217a.354.354 0 0 0 0-.106v-.1a.354.354 0 0 0 0-.106v-.217a.354.354 0 0 0 0-.106v-.1a.354.354 0 0 0 0-.106v-.22a.354.354 0 0 0 0-.106v-.1a.354.354 0 0 0 0-.106v-.217a.354.354 0 0 0 0-.106v-.1a.354.354 0 0 0 0-.106v-.217a.354.354 0 0 0 0-.106v-.1a.354.354 0 0 0 0-.106.354.354 0 0 0 0-.106v-.111a.354.354 0 0 0 0-.106v-.1a.354.354 0 0 0 0-.106.354.354 0 0 0 0-.106v-.111a.354.354 0 0 0 0-.106v-.1a.354.354 0 0 0 0-.106.354.354 0 0 0 0-.106v-.106a.354.354 0 0 0 0-.106v-.1a.354.354 0 0 0 0-.106.354.354 0 0 0 0-.106v-.106a.354.354 0 0 0 0-.106v-.1a.354.354 0 0 0 0-.106.354.354 0 0 0 0-.106v-.106a.354.354 0 0 0 0-.106v-.1a.354.354 0 0 0 0-.106.354.354 0 0 0 0-.106v-.106a.354.354 0 0 0 0-.106v-.1a.354.354 0 0 0 0-.106.354.354 0 0 0 0-.106v-.106a.354.354 0 0 0 0-.106v-.1a.354.354 0 0 0 0-.106.354.354 0 0 0 0-.106v-.106a.354.354 0 0 0 0-.106v-.1a.354.354 0 0 0 0-.106.354.354 0 0 0 0-.106v-.106a.354.354 0 0 0 0-.106v-.1a.354.354 0 0 0 0-.106.354.354 0 0 0 0-.106v-.106a.989.989 0 0 0 .047-.109z" class="cls-2" transform="translate(-239.019 -277.755)"/>
                    <path id="패스_57" d="M412.55 390.35a3.177 3.177 0 0 0-.2-1.016l-1.932-5.124a2.922 2.922 0 0 0-2.731-1.89H399.8a5.746 5.746 0 0 0-1.959.344L389.7 385.6a2.859 2.859 0 0 0-1.884 2.684v13.54c0 .842.27 8.289.762 8.967l1.747 2.393a3.244 3.244 0 0 0 3.091 1.3l15.933-2.292a3.414 3.414 0 0 0 2.827-2.578l.291-1.207c.074-.307.1-7.262.079-7.58v-.106a.354.354 0 0 1 0-.106v-.1a.354.354 0 0 1 0-.106v-.209a.354.354 0 0 1 0-.106v-.1a.354.354 0 0 1 0-.106v-.212a.354.354 0 0 1 0-.106v-.1a.354.354 0 0 1 0-.106v-.212a.354.354 0 0 1 0-.106v-.1a.354.354 0 0 1 0-.106v-.212a.354.354 0 0 1 0-.106v-.1a.354.354 0 0 1 0-.106v-.216a.354.354 0 0 1 0-.106v-.1a.354.354 0 0 1 0-.106v-.212a.354.354 0 0 1 0-.106v-.1a.354.354 0 0 1 0-.106v-.212a.354.354 0 0 1 0-.106v-.1a.354.354 0 0 1 0-.106v-.212a.354.354 0 0 1 0-.106v-.1a.354.354 0 0 1 0-.106v-.212a.354.354 0 0 1 0-.106v-.1a.354.354 0 0 1 0-.106.354.354 0 0 1 0-.106v-.106a.354.354 0 0 1 0-.106.354.354 0 0 1 0-.106v-.1a.354.354 0 0 1 0-.106v-.212a.354.354 0 0 1 0-.106v-.1a.354.354 0 0 1 0-.106v-.217a.354.354 0 0 1 0-.106v-.1a.354.354 0 0 1 0-.106v-.209a.354.354 0 0 1 0-.106v-.1a.354.354 0 0 1 0-.106v-.217a.354.354 0 0 1 0-.106v-.1a.354.354 0 0 1 0-.106v-.217a.354.354 0 0 1 0-.106v-.1a.354.354 0 0 1 0-.106v-.212a.354.354 0 0 1 0-.106v-.1a.354.354 0 0 1 0-.106v-.212a.354.354 0 0 1 0-.106v-.1a.354.354 0 0 1 0-.106v-.212a.354.354 0 0 1 0-.106v-.1a.354.354 0 0 1 0-.106v-.212a.354.354 0 0 1 0-.106v-.185z" class="cls-2" transform="translate(-254.654 -264.4)"/>
                    <path id="패스_58" d="M520.315 379.255a3.624 3.624 0 0 0 0 .482 3.624 3.624 0 0 0 0 .482 3.625 3.625 0 0 0 0 .482 3.624 3.624 0 0 0 0 .482 3.624 3.624 0 0 0 0 .482 3.624 3.624 0 0 0 0 .482 3.624 3.624 0 0 0 0 .482 3.624 3.624 0 0 0 0 .482 3.625 3.625 0 0 0 0 .482 3.546 3.546 0 0 0 0 .476 3.624 3.624 0 0 0 0 .482 3.625 3.625 0 0 0 0 .482 3.624 3.624 0 0 0 0 .482 3.624 3.624 0 0 0 0 .482 3.624 3.624 0 0 0 0 .482 3.624 3.624 0 0 0 0 .482 3.624 3.624 0 0 0 0 .482 3.624 3.624 0 0 0 0 .482 3.624 3.624 0 0 0 0 .482v8.713a1.8 1.8 0 0 0-.365.5l3.266.318 7.675-9L523.745 377l-3.367.445a2.823 2.823 0 0 0-.074.635v.217a3.586 3.586 0 0 0 0 .476 3.659 3.659 0 0 0 .011.482z" class="cls-2" transform="translate(-314.683 -262.177)"/>
                    <path id="패스_59" d="M562.629 526.018a1.434 1.434 0 0 0-.948-1.445l-2.7-.985a2.382 2.382 0 0 1-.318-.132 6.647 6.647 0 0 0 .122-1.022v-10.48a6.813 6.813 0 0 0-1.556-4.764l-6.548-7.86a6.7 6.7 0 0 0-2.456-1.863l-19.818-8.85a10.02 10.02 0 0 1-5.934-9.147v-10.587a4.388 4.388 0 0 0-4.388-4.388h-9.135v4.288h-18.442v-23.82h11.433a2.519 2.519 0 0 0-1.472-1.794l-6.881-2.969a9.835 9.835 0 0 0-10.4 1.636l-3.97 3.478a3.176 3.176 0 0 1-4.277-.111l-1.392-1.35a6.781 6.781 0 0 0-5.934-1.8l-16.843 2.562a15.349 15.349 0 0 1-9.194-1.17L419.251 433.1a1.874 1.874 0 0 0-2.487.914l-.006.013a.306.306 0 0 1-.026.064l-1.232 2.969a1.863 1.863 0 0 0-.138.847v10.481a1.894 1.894 0 0 0 .6 1.35l16.044 14.329v3.626l-.926 5.759a4.354 4.354 0 0 0-.053.588v.212a.358.358 0 0 1 0 .106v.1a.358.358 0 0 1 0 .106v.212a.358.358 0 0 1 0 .106v.1a.358.358 0 0 1 0 .106v.212a.358.358 0 0 1 0 .106v.1a.358.358 0 0 1 0 .106v.212a.358.358 0 0 1 0 .106v.1a.358.358 0 0 1 0 .106v.212a.358.358 0 0 1 0 .106v.1a.358.358 0 0 1 0 .106v.212a.358.358 0 0 1 0 .106v.1a.358.358 0 0 1 0 .106v.212a.358.358 0 0 1 0 .106v.1a.358.358 0 0 1 0 .106v.212a.358.358 0 0 1 0 .106v.1a.358.358 0 0 1 0 .106v.212a.358.358 0 0 1 0 .106v.1a.358.358 0 0 1 0 .106v.212a.358.358 0 0 1 0 .106v.1a.358.358 0 0 1 0 .106v.212a.357.357 0 0 1 0 .106v.1a.358.358 0 0 1 0 .106v.212a.358.358 0 0 1 0 .106v.1a.358.358 0 0 1 0 .106v.212a.358.358 0 0 1 0 .106v.1a.358.358 0 0 1 0 .106v.212a.358.358 0 0 1 0 .106v.1a.358.358 0 0 1 0 .106v.212a.358.358 0 0 1 0 .106v.1a.358.358 0 0 1 0 .106v.212a.358.358 0 0 1 0 .106v.1a.358.358 0 0 1 0 .106v.212a.358.358 0 0 1 0 .106v.1a.358.358 0 0 1 0 .106v.418a.358.358 0 0 1 0 .106v.418a.358.358 0 0 1 0 .106v.318a.358.358 0 0 1 0 .106v.1a4.518 4.518 0 0 0 1.059 3.149l3.239 3.832a3.173 3.173 0 0 0 2.366 1.112l14.053.154c2.578.032 5.934 2.493 5.934 2.493v6.262l-9 9a5.92 5.92 0 0 1-4.235 1.763h-.7a1.938 1.938 0 0 0-1.932 1.847v.1a.355.355 0 0 1 0 .106v.106a.356.356 0 0 1 0 .106.356.356 0 0 1 0 .106v.1a.356.356 0 0 1 0 .106v.106a.356.356 0 0 1 0 .106.356.356 0 0 1 0 .106v.1a.356.356 0 0 1 0 .106v.106a.36.36 0 0 1 0 .106.355.355 0 0 1 0 .106v.1a.356.356 0 0 1 0 .106v.106a.356.356 0 0 1 0 .106.356.356 0 0 1 0 .106v.1a.356.356 0 0 1 0 .106v.106a.356.356 0 0 1 0 .106.356.356 0 0 1 0 .106v.1a.356.356 0 0 1 0 .106v.106a.356.356 0 0 1 0 .106.356.356 0 0 1 0 .106v.1a.356.356 0 0 1 0 .106v.106a.356.356 0 0 1 0 .106.356.356 0 0 1 0 .106v.1a.356.356 0 0 1 0 .106v.106a.356.356 0 0 1 0 .106.356.356 0 0 1 0 .106v.1a.356.356 0 0 1 0 .106v.106a.356.356 0 0 1 0 .106.356.356 0 0 1 0 .106v.1a.356.356 0 0 1 0 .106.356.356 0 0 1 0 .106v.106a.356.356 0 0 1 0 .106v.1a.355.355 0 0 1 0 .106.356.356 0 0 1 0 .106v.106a.356.356 0 0 1 0 .106v.1a.355.355 0 0 1 0 .106.356.356 0 0 1 0 .106v.106a.356.356 0 0 1 0 .106v.1a.356.356 0 0 1 0 .106.356.356 0 0 1 0 .106v.106a.356.356 0 0 1 0 .106v.1a.356.356 0 0 1 0 .106.356.356 0 0 1 0 .106v.106a.356.356 0 0 1 0 .106v.1a.356.356 0 0 1 0 .106.356.356 0 0 1 0 .106v.106a.355.355 0 0 1 0 .106.356.356 0 0 1 0 .106v.1a.356.356 0 0 1 0 .106v.106a.356.356 0 0 1 0 .106.356.356 0 0 1 0 .106v.1a.356.356 0 0 1 0 .106v.106a.356.356 0 0 1 0 .106.356.356 0 0 1 0 .106v.1a.356.356 0 0 1 0 .106v.106a.356.356 0 0 1 0 .106.356.356 0 0 1 0 .106v.1a.355.355 0 0 1 0 .106v.106a.356.356 0 0 1 0 .106.356.356 0 0 1 0 .106v.1a.356.356 0 0 1 0 .106v.106a.356.356 0 0 1 0 .106 1.937 1.937 0 0 0 0 .429l1.868 15.689a1.7 1.7 0 0 0 1.482 1.487l25.106 3.091a4.826 4.826 0 0 0 4.542-2.022c1.318-1.884 3.139-4.489 4.388-6.283a5.357 5.357 0 0 1 4.166-2.276l1.424-.063a12.321 12.321 0 0 0 7.538-2.985l.778-.678a4.765 4.765 0 0 0 1.641-3.832v-.418a.356.356 0 0 1 0-.106v-.318a.356.356 0 0 1 0-.106v-.421a.356.356 0 0 1 0-.106v-.418a.356.356 0 0 1 0-.106v-.418a.356.356 0 0 1 0-.106v-.112a.356.356 0 0 1 0-.106v-.212a.356.356 0 0 1 0-.106v-.106a.356.356 0 0 1 0-.106v-.212a.356.356 0 0 1 0-.106v-.106a.356.356 0 0 1 0-.106v-.212a.356.356 0 0 1 0-.106v-.1a.356.356 0 0 1 0-.106v-.212a.356.356 0 0 1 0-.106v-.1a.356.356 0 0 1 0-.106v-.212a.356.356 0 0 1 0-.106v-.1a.356.356 0 0 1 0-.106v-.212a.356.356 0 0 1 0-.106v-.1a.356.356 0 0 1 0-.106v-.106a.2.2 0 0 1 0-.079l.069-.037 2.975-1.382a2.118 2.118 0 0 1 2.594.63l13.08 16.054c.111.143.233.281.355.413a9.2 9.2 0 0 0 8.268 2.768l18.2-2.874a9.574 9.574 0 0 1 6.669 1.4l7.612 4.9a4 4 0 0 0 5.541-1.111 3.338 3.338 0 0 0 .191-.333l2.207-4.325a1.412 1.412 0 0 0 .154-.672v-10.5z" class="cls-2" transform="translate(-262.688 -283.124)"/>
                    <path id="패스_60" fill="#b4d887" d="M476.433 393.266a3.043 3.043 0 0 0-.138-1.09l-3.382-10.454a3.705 3.705 0 0 0-3.525-2.562h-11.116a7.326 7.326 0 0 0-1.763.217l-8.432 2.075a6.588 6.588 0 0 0-3.091 1.741l-4.023 4.033a4.472 4.472 0 0 1-2.647 1.281l-3.218.381a2.88 2.88 0 0 0-2.4 1.985l-.672 2.117a3.955 3.955 0 0 1-2.53 2.562 3.608 3.608 0 0 0-2.16 1.969l-2.181 4.944a2 2 0 0 0-.164.826v10.481a1.974 1.974 0 0 0 1.138 1.879l22.713 10.586a7.815 7.815 0 0 0 4.764.6l3.552-.662a9.073 9.073 0 0 0 4.272-2.075l10.438-9.12a2.229 2.229 0 0 0 .762-1.636l1.588-4.277.529-2.726a2.948 2.948 0 0 0 1.689-2.6.319.319 0 0 0 0-.1.354.354 0 0 0 0-.106.354.354 0 0 0 0-.106.354.354 0 0 0 0-.106.354.354 0 0 0 0-.106.319.319 0 0 0 0-.1.354.354 0 0 0 0-.106.354.354 0 0 0 0-.106.354.354 0 0 0 0-.106.354.354 0 0 0 0-.106.319.319 0 0 0 0-.1.354.354 0 0 0 0-.106.354.354 0 0 0 0-.106.354.354 0 0 0 0-.106.354.354 0 0 0 0-.106.32.32 0 0 0 0-.1.354.354 0 0 0 0-.106.354.354 0 0 0 0-.106.354.354 0 0 0 0-.106.354.354 0 0 0 0-.106.32.32 0 0 0 0-.1.353.353 0 0 0 0-.106.354.354 0 0 0 0-.106.354.354 0 0 0 0-.106.354.354 0 0 0 0-.106.354.354 0 0 0 0-.106.32.32 0 0 0 0-.1.354.354 0 0 0 0-.106.354.354 0 0 0 0-.106.353.353 0 0 0 0-.106.354.354 0 0 0 0-.106.319.319 0 0 0 0-.1.354.354 0 0 0 0-.106.354.354 0 0 0 0-.106.354.354 0 0 0 0-.106.354.354 0 0 0 0-.106.319.319 0 0 0 0-.1.354.354 0 0 0 0-.106.354.354 0 0 0 0-.106.354.354 0 0 0 0-.106.354.354 0 0 0 0-.106.32.32 0 0 0 0-.1.354.354 0 0 0 0-.106.354.354 0 0 0 0-.106.354.354 0 0 0 0-.106.354.354 0 0 0 0-.106.32.32 0 0 0 0-.1.354.354 0 0 0 0-.106.354.354 0 0 0 0-.106.354.354 0 0 0 0-.106.357.357 0 0 0 0-.106.319.319 0 0 0 0-.1.354.354 0 0 0 0-.106.354.354 0 0 0 0-.106.354.354 0 0 0 0-.106.354.354 0 0 0 0-.106.319.319 0 0 0 0-.1.354.354 0 0 0 0-.106.354.354 0 0 0 0-.106.354.354 0 0 0 0-.106.354.354 0 0 0 0-.106.32.32 0 0 0 0-.1.354.354 0 0 0 0-.106.354.354 0 0 0 0-.106.354.354 0 0 0 0-.106.354.354 0 0 0 0-.106.32.32 0 0 0 0-.1.354.354 0 0 0 0-.106.354.354 0 0 0 0-.106.354.354 0 0 0 0-.106.353.353 0 0 0 0-.106.32.32 0 0 0 0-.1.354.354 0 0 0 0-.106.354.354 0 0 0 0-.106.354.354 0 0 0 0-.106.354.354 0 0 0 0-.106.319.319 0 0 0 0-.1.354.354 0 0 0 0-.106.354.354 0 0 0 0-.106.354.354 0 0 0 0-.106.354.354 0 0 0 0-.106.32.32 0 0 0 0-.1.354.354 0 0 0 0-.106.354.354 0 0 0 0-.106.354.354 0 0 0 0-.106.354.354 0 0 0 0-.106.32.32 0 0 0 0-.1.354.354 0 0 0 0-.106.353.353 0 0 0 0-.106.354.354 0 0 0 0-.106.354.354 0 0 0 0-.106.319.319 0 0 0 0-.1.354.354 0 0 0 0-.106.354.354 0 0 0 0-.106.354.354 0 0 0 0-.106.354.354 0 0 0 0-.106.319.319 0 0 0 0-.1.354.354 0 0 0 0-.106.354.354 0 0 0 0-.106z" transform="translate(-270.845 -262.699)"/>
                    <path id="패스_61" d="M598.343 406.389a3.666 3.666 0 0 0 0-.482 3.666 3.666 0 0 0 0-.482 3.586 3.586 0 0 0 0-.476 3.666 3.666 0 0 0 0-.482 3.666 3.666 0 0 0 0-.482 3.666 3.666 0 0 0 0-.482 3.666 3.666 0 0 0 0-.482 3.666 3.666 0 0 0 0-.482 3.666 3.666 0 0 0 0-.482 3.667 3.667 0 0 0 0-.482 3.666 3.666 0 0 0 0-.482 3.666 3.666 0 0 0 0-.482 3.666 3.666 0 0 0 0-.482 3.586 3.586 0 0 0 0-.476 3.666 3.666 0 0 0 0-.482 3.666 3.666 0 0 0 0-.482 3.666 3.666 0 0 0 0-.482 3.666 3.666 0 0 0 0-.482 3.666 3.666 0 0 0 0-.482 2.861 2.861 0 0 0 0-.529 2.646 2.646 0 0 0-.746-2.117l-3.483-3.483a4.605 4.605 0 0 0-5.129-.947 4.172 4.172 0 0 1-4.658-.858l-12.174-12.174v-.312a3.586 3.586 0 0 0 0-.476 3.666 3.666 0 0 0 0-.482 3.666 3.666 0 0 0 0-.482 3.666 3.666 0 0 0 0-.482 3.666 3.666 0 0 0 0-.482 3.667 3.667 0 0 0 0-.482 3.666 3.666 0 0 0 0-.482 3.666 3.666 0 0 0 0-.482 3.667 3.667 0 0 0 0-.482 3.666 3.666 0 0 0 0-.482 3.666 3.666 0 0 0 0-.482 3.586 3.586 0 0 0 0-.476 3.666 3.666 0 0 0 0-.482 3.666 3.666 0 0 0 0-.482 3.667 3.667 0 0 0 0-.482 3.666 3.666 0 0 0 0-.482 3.666 3.666 0 0 0 0-.482 8.94 8.94 0 0 0-.122-1.731l-3.144-11.4a4.563 4.563 0 0 0-4.4-3.356h-10.125a6.235 6.235 0 0 0-4.568 2l-.857.926a4.124 4.124 0 0 1-4.441 1.059l-.82-.3a3.916 3.916 0 0 0-4.129.91l-4.88 4.88a6.125 6.125 0 0 1-4.33 1.794h-13.446a2.959 2.959 0 0 0-2.885 2.324l3.367-.445 7.146 11.91-7.675 9-3.266-.318a1.631 1.631 0 0 0-.164.969 1.466 1.466 0 0 0 0 .482 1.466 1.466 0 0 0 0 .482 1.467 1.467 0 0 0 0 .482 1.466 1.466 0 0 0 0 .482 1.466 1.466 0 0 0 0 .482 1.435 1.435 0 0 0 0 .476 1.466 1.466 0 0 0 0 .482 1.467 1.467 0 0 0 0 .482 1.466 1.466 0 0 0 0 .482 1.466 1.466 0 0 0 0 .482 1.466 1.466 0 0 0 0 .482 1.466 1.466 0 0 0 0 .482 1.129 1.129 0 0 0 0 .191l-6.744 6.3a.778.778 0 0 0-.217.831.83.83 0 0 0 0 .482.812.812 0 0 0 0 .476.83.83 0 0 0 0 .482.83.83 0 0 0 0 .482.83.83 0 0 0 0 .482.83.83 0 0 0 0 .482.83.83 0 0 0 0 .482.83.83 0 0 0 0 .482.83.83 0 0 0 0 .482.83.83 0 0 0 0 .482.83.83 0 0 0 0 .482.83.83 0 0 0 0 .482.812.812 0 0 0 0 .476.83.83 0 0 0 0 .482.83.83 0 0 0 0 .482.83.83 0 0 0 0 .482.83.83 0 0 0 0 .482.83.83 0 0 0 0 .482.83.83 0 0 0 0 .482.83.83 0 0 0 0 .482.83.83 0 0 0 0 .482.81.81 0 0 0 .516 1.023h.013a.842.842 0 0 0 .4.032l3.266-.529a5.457 5.457 0 0 1 3.5.566l5.685 3.049a.937.937 0 0 0 1.249 0l3.478-3.176a12.313 12.313 0 0 1 13.064-1.794l6.352 2.89-4.43 17.092 8.1-.042v.36a1.383 1.383 0 0 0 0 .3v.185a1.383 1.383 0 0 0 0 .3v.185a1.383 1.383 0 0 0 0 .3v.185a1.383 1.383 0 0 0 0 .3v.191a1.383 1.383 0 0 0 0 .3v.185a1.383 1.383 0 0 0 0 .3v.185a1.387 1.387 0 0 0 1.291 1.472h15.647a9.309 9.309 0 0 0 5.976-2.176l26.9-22.618a2.648 2.648 0 0 0 .916-2.244 3.652 3.652 0 0 0-.033-.505z" class="cls-2" transform="translate(-305.543 -249.905)"/>
                    <path id="패스_62" d="M322.838 507.905h-13.461a4.075 4.075 0 0 1-2.9-1.2l-3.954-3.949a4.1 4.1 0 0 0-2.9-1.2h-33.867a8.961 8.961 0 0 1-8.109-5.156l-5.113-10.909a3.67 3.67 0 0 0-1.2-1.424l-3.176-2.234a3.007 3.007 0 0 0-2.811-.333l-21.03 8.226a4.087 4.087 0 0 1-3.525-.254l-8.586-4.88a1.534 1.534 0 0 0-1.683.1l-6.087 4.462a1.906 1.906 0 0 0-.778 1.535.354.354 0 0 0 0 .106V491a.354.354 0 0 0 0 .106v.09a.354.354 0 0 0 0 .106v.212a.354.354 0 0 0 0 .106v.106a.354.354 0 0 0 0 .106v.212a.354.354 0 0 0 0 .106v.106a.354.354 0 0 0 0 .106v.212a.353.353 0 0 0 0 .106v.106a.354.354 0 0 0 0 .106v.212a.354.354 0 0 0 0 .106v.106a.354.354 0 0 0 0 .106v.212a.354.354 0 0 0 0 .106v.106a.354.354 0 0 0 0 .106v.212a.354.354 0 0 0 0 .106v.106a.354.354 0 0 0 0 .106v.212a.354.354 0 0 0 0 .106v.106a.354.354 0 0 0 0 .106v.212a.354.354 0 0 0 0 .106.354.354 0 0 0 0 .106v.1a.354.354 0 0 0 0 .106v.106a.354.354 0 0 0 0 .106.354.354 0 0 0 0 .106v.1a.354.354 0 0 0 0 .106v.148a4.063 4.063 0 0 1-1.588 1.45l-.6.3a4.106 4.106 0 0 1-3.557.021l-18.865-8.649a10.587 10.587 0 0 0-9.374.275l-7.987 4.235a13.3 13.3 0 0 0-6.119 6.892l-10.318 26.218a4.2 4.2 0 0 0-.281 1.551v10.481a4.157 4.157 0 0 0 .275 1.546l4.071 10.459a5.409 5.409 0 0 0 8.554 2.154l15.276-13.047a4.09 4.09 0 0 1 1.424-.789l16.1-5.081a4.1 4.1 0 0 1 4.838 1.953l1.122 2.07-2.647 1.884a4.113 4.113 0 0 1-4.531.18l-1.884-1.133a5.934 5.934 0 0 0-7.029.677l-4.277 3.848a4.093 4.093 0 0 0-1.35 3.234v.1a.355.355 0 0 0 0 .106v.212a.355.355 0 0 0 0 .106v.1a.355.355 0 0 0 0 .106v.212a.355.355 0 0 0 0 .106v.1a.355.355 0 0 0 0 .106v.212a.355.355 0 0 0 0 .106v.1a.355.355 0 0 0 0 .106v.212a.355.355 0 0 0 0 .106v.1a.355.355 0 0 0 0 .106v.212a.355.355 0 0 0 0 .106v.1a.355.355 0 0 0 0 .106v.212a.355.355 0 0 0 0 .106v.1a.355.355 0 0 0 0 .106v.212a.355.355 0 0 0 0 .106v.1a.355.355 0 0 0 0 .106v.212a.355.355 0 0 0 0 .106v.1a.355.355 0 0 0 0 .106v.212a.355.355 0 0 0 0 .106v.1a.355.355 0 0 0 0 .106v.212a.355.355 0 0 0 0 .106v.1a.355.355 0 0 0 0 .106v.212a.354.354 0 0 0 0 .106v.1a.355.355 0 0 0 0 .106v.212a.355.355 0 0 0 0 .106v.1a.355.355 0 0 0 0 .106v.212a.355.355 0 0 0 0 .106v.1a.355.355 0 0 0 0 .106v.212a.355.355 0 0 0 0 .106v.1a.355.355 0 0 0 0 .106v.212a.355.355 0 0 0 0 .106v.1a.355.355 0 0 0 0 .106v.212a.355.355 0 0 0 0 .106v.1a.355.355 0 0 0 0 .106v.212a.355.355 0 0 0 0 .106v.1a.355.355 0 0 0 0 .106v.212a.355.355 0 0 0 0 .106v.1a.355.355 0 0 0 0 .106V557l-11.222 18.844a4.086 4.086 0 0 0-.577 2.027v.212a.355.355 0 0 1 0 .106v.1a.355.355 0 0 1 0 .106v.212a.355.355 0 0 1 0 .106v.1a.355.355 0 0 1 0 .106v.212a.355.355 0 0 1 0 .106v.1a.355.355 0 0 1 0 .106v.212a.355.355 0 0 1 0 .106v.1a.355.355 0 0 1 0 .106v.212a.354.354 0 0 1 0 .106v.1a.355.355 0 0 1 0 .106v.212a.355.355 0 0 1 0 .106v.1a.354.354 0 0 1 0 .106v.212a.355.355 0 0 1 0 .106v.1a.355.355 0 0 1 0 .106v.212a.355.355 0 0 1 0 .106v.1a.355.355 0 0 1 0 .106v.212a.355.355 0 0 1 0 .106v.1a.355.355 0 0 1 0 .106v.212a.355.355 0 0 1 0 .106v.1a.355.355 0 0 1 0 .106v.212a.355.355 0 0 1 0 .106v.1a.355.355 0 0 1 0 .106v.212a.355.355 0 0 1 0 .106v.1a.355.355 0 0 1 0 .106v.212a.355.355 0 0 1 0 .106v.1a.355.355 0 0 1 0 .106v.418a.355.355 0 0 1 0 .106v.318a.355.355 0 0 1 0 .106v.418a.355.355 0 0 1 0 .106v.1a.355.355 0 0 1 0 .106v.212a.355.355 0 0 1 0 .106v.1a.355.355 0 0 1 0 .106v.212a.355.355 0 0 1 0 .106v.1a.355.355 0 0 1 0 .106v.212a.354.354 0 0 1 0 .106v.1a.355.355 0 0 1 0 .106v.212a.355.355 0 0 1 0 .106v.1a4.111 4.111 0 0 0 2 3.705 45.155 45.155 0 0 0 23.121 6.352h9.687a4.085 4.085 0 0 0 3-1.307l16.7-18a17.47 17.47 0 0 1 12.788-5.579h28.382a7.241 7.241 0 0 0 7.125-5.9L268.6 553.5a4.1 4.1 0 0 1 2.52-3.023l6.479-2.594a4.108 4.108 0 0 0 2.578-3.928v-10.478a4.122 4.122 0 0 0-.678-2.244l-1.89-2.758 3.462-4.547a4.1 4.1 0 0 1 2.9-1.2h8.6a4.552 4.552 0 0 1 4.547 4.547v1.26a3.669 3.669 0 0 0 1.292 2.795l11.83 10.089a10.093 10.093 0 0 0 4.319 1.138V537c1.059 0 4.235 4.97 4.986 4.2l9.687-9.687a4.1 4.1 0 0 0 1.2-2.9V515.49a7.591 7.591 0 0 0-7.594-7.585z" class="cls-2" transform="translate(-144.969 -305.891)"/>
                    <path id="패스_63" d="M400.755 488.077v-6.394l.979-6.452v-8.369a1.111 1.111 0 0 0-.365-.926l-17.78-15.827a4.556 4.556 0 0 0-4.584-.889l-11.174 3.991a2.764 2.764 0 0 0-1.831 2.6v2.721a3.326 3.326 0 0 1-.979 2.35l-.688.693a3.331 3.331 0 0 1-2.355.974h-8.22a1.906 1.906 0 0 0-1.673 1l-.857 1.588a2.041 2.041 0 0 0-.228.969V476.6a1.953 1.953 0 0 0 .207.963l6.775 13.471a4.361 4.361 0 0 0 3.9 2.4H394.2a3.056 3.056 0 0 0 3.118-2.308l3.562 2.308z" class="cls-2" transform="translate(-237.597 -294.168)"/>
                    <path id="패스_64" d="M400.143 570.56a3.177 3.177 0 0 1 .408 1.191v3.912a3.076 3.076 0 0 0 .3 1.318l.884 1.858a6.246 6.246 0 0 0 5.632 3.546h12.7a3.065 3.065 0 0 0 2.255-.985l3.778-3.7a3.071 3.071 0 0 0 .81-2.049v-10.48h.037a3.086 3.086 0 0 0-1.059-2.456l-12.348-11.02a10.381 10.381 0 0 1-1.059-2.064l-.815-2.34c0-2.218-.656-2.811-3.06-2.811h-5.293a3.066 3.066 0 0 0-2.17.9l-4.7 4.7a3.064 3.064 0 0 0-.889 2.371v.106a.353.353 0 0 0 0 .106v.418a.354.354 0 0 0 0 .106v.1a.354.354 0 0 0 0 .106v.212a.354.354 0 0 0 0 .106v.1a.354.354 0 0 0 0 .106v.212a.354.354 0 0 0 0 .106v.1a.354.354 0 0 0 0 .106v.212a.354.354 0 0 0 0 .106v.1a.354.354 0 0 0 0 .106v.212a.354.354 0 0 0 0 .106v.1a.354.354 0 0 0 0 .106v.212a.354.354 0 0 0 0 .106v.1a.354.354 0 0 0 0 .106v.212a.354.354 0 0 0 0 .106v.1a.353.353 0 0 0 0 .106v.212a.354.354 0 0 0 0 .106v.1a.354.354 0 0 0 0 .106v.212a.354.354 0 0 0 0 .106v.079a.354.354 0 0 0 0 .106v.212a.354.354 0 0 0 0 .106v.106a.353.353 0 0 0 0 .106v.106l1.89 2.758a4.122 4.122 0 0 1 .678 2.244v4.367z" class="cls-2" transform="translate(-258.021 -337.369)"/>
                    <path id="패스_65" d="M343.67 432.3a2.2 2.2 0 0 0-.376-1.329l-1.233-1.81a3.461 3.461 0 0 0-2.853-1.5h-1.477a5.191 5.191 0 0 0-3.224 1.117l-20.85 16.409a1.307 1.307 0 0 0-.5 1.022V456.794a1.308 1.308 0 0 0 1.3 1.307h15.509l.413 8.469a3.466 3.466 0 0 0 2.71-1.307l.73-9.369 9.381-11.724a2.2 2.2 0 0 0 .471-1.35V432.3z" class="cls-2" transform="translate(-220.862 -284.71)"/>
                    <path id="패스_66" d="M360.452 401.844a1.45 1.45 0 0 0-.434-1.059l-2.715-2.647a2.975 2.975 0 0 1-.889-2.117v-2.795a1.286 1.286 0 0 0-1.286-1.286h-5.134a.91.91 0 0 1-.916-.905V389.824a1.408 1.408 0 0 0-1.4-1.408h-.709a2.118 2.118 0 0 0-1.424.556l-10.5 9.6a3.335 3.335 0 0 1-2.26.879h-2.753a1.683 1.683 0 0 0-1.683 1.683.862.862 0 0 0 0 .116v10.486a1.853 1.853 0 0 0 .069.482l2.154 6.939a4.276 4.276 0 0 0 .926 1.62l1.641 1.81a1.254 1.254 0 0 0 1.694.154l6.352-4.9a3.119 3.119 0 0 1 1.895-.646h5.1a2.451 2.451 0 0 1 2.017 1.059l1.641 2.435a1.244 1.244 0 0 0 1.728.33 1.3 1.3 0 0 0 .254-.228l6.278-7.448a1.425 1.425 0 0 0 .339-1.059.354.354 0 0 0 0-.106v-.212a.354.354 0 0 0 0-.106v-.1a.354.354 0 0 0 0-.106v-.212a.354.354 0 0 0 0-.106v-.1a.354.354 0 0 0 0-.106v-.212a.354.354 0 0 0 0-.106v-.1a.354.354 0 0 0 0-.106v-.212a.354.354 0 0 0 0-.106v-.1a.354.354 0 0 0 0-.106v-.18a.354.354 0 0 0 0-.106v-.1a.354.354 0 0 0 0-.106v-.217a.354.354 0 0 0 0-.106v-.1a.354.354 0 0 0 0-.106v-.418a.354.354 0 0 0 0-.106v-.418a.354.354 0 0 0 0-.106v-.418a.354.354 0 0 0 0-.106v-.318a.354.354 0 0 0 0-.106v-.1a.354.354 0 0 0 0-.106v-.212a.354.354 0 0 0 0-.106v-.1a.354.354 0 0 0 0-.106v-.212a.354.354 0 0 0 0-.106v-.1a.354.354 0 0 0 0-.106v-.211a.354.354 0 0 0 0-.106v-.1a.354.354 0 0 0 0-.106v-.212a.354.354 0 0 0 0-.106v-.1a.354.354 0 0 0 0-.106v-.212a.354.354 0 0 0 0-.106v-.1a.354.354 0 0 0 0-.106v-.212a.354.354 0 0 0 0-.106v-.1a.354.354 0 0 0 0-.106v-.216a.354.354 0 0 0 0-.106v-.1a.354.354 0 0 0 0-.106v-.212a.354.354 0 0 0 0-.106v-.1a.354.354 0 0 0 0-.106v-.212a.354.354 0 0 0 0-.106v-.1a.354.354 0 0 0 0-.106v-.212a.27.27 0 0 0 .015-.084z" class="cls-2" transform="translate(-227.693 -267.11)"/>
                    <path id="패스_67" d="M286.969 453.511l-.783-.82a1.233 1.233 0 0 0-.873-.365h-5.293l-1.45 3.541h-10.931v-7.061l7.718-3.705 3.409 1.736.074-.058a1.106 1.106 0 0 0 .439-.916v-10.481a1.117 1.117 0 0 0-.349-.905l-.858-.8a1.668 1.668 0 0 0-1.921-.259l-5.42 2.827a5.441 5.441 0 0 1-5.2-.09l-1.911-1.085a3.065 3.065 0 0 0-2.509-.233l-7.49 2.572a15.078 15.078 0 0 1-4.722.82l-4.912.069a16.252 16.252 0 0 0-12.757 6.452 5.558 5.558 0 0 1-4.378 2.191h-1.646a6.649 6.649 0 0 0-4.674 1.948l-3.557 3.557a1.769 1.769 0 0 0-.529 1.36v10.486a1.8 1.8 0 0 0 1.472 1.784l18.865 2.117a6.556 6.556 0 0 1 3.562 1.551 2.731 2.731 0 0 0 3.5.058 2.742 2.742 0 0 1 3.176-.191l8.358 5.171a2.88 2.88 0 0 0 2.562.233l20.321-7.987a3.706 3.706 0 0 1 3.176.212l2.387 1.323a1.181 1.181 0 0 0 1.551-.376l1.731-2.562a1.223 1.223 0 0 0 .206-.688v-10.478a1.213 1.213 0 0 0-.344-.948z" class="cls-2" transform="translate(-178.611 -287.148)"/>
                    <path id="패스_68" d="M458.319 248.554a2.2 2.2 0 0 0-.423-1.63 2.277 2.277 0 0 0-.609-.529l-2.567-1.54a2.193 2.193 0 0 0-1.789-.206l-13.371 4.277a5.177 5.177 0 0 1-3.705-.2l-3.965-1.768a4.9 4.9 0 0 0-4.5.27l-2.99 1.792a2.17 2.17 0 0 0-1.059 2.176 2.213 2.213 0 0 0 0 .561 2.172 2.172 0 0 0 0 .556 2.172 2.172 0 0 0 0 .556 2.213 2.213 0 0 0 0 .561 2.157 2.157 0 0 0 0 .529 2.172 2.172 0 0 0 0 .556 2.157 2.157 0 0 0 0 .529 2.213 2.213 0 0 0 0 .561 2.172 2.172 0 0 0 0 .556 2.157 2.157 0 0 0 0 .529 2.172 2.172 0 0 0 0 .556 2.213 2.213 0 0 0 0 .561 2.172 2.172 0 0 0 0 .556 2.157 2.157 0 0 0 0 .529 2.172 2.172 0 0 0 0 .556 2.213 2.213 0 0 0 0 .561 2.157 2.157 0 0 0 0 .529 4.77 4.77 0 0 0 .286 1.921l.1.153 3.409 4.737a3.138 3.138 0 0 0 1.588 1.143l11.645 3.832a2.155 2.155 0 0 0 1.985-.339l15.112-11.55a3.462 3.462 0 0 0 .831-2.541 2.169 2.169 0 0 0 0-.556 2.21 2.21 0 0 0 0-.561 2.16 2.16 0 0 0 0-.529 2.169 2.169 0 0 0 0-.556 2.169 2.169 0 0 0 0-.556 2.21 2.21 0 0 0 0-.561 2.16 2.16 0 0 0 0-.529 2.169 2.169 0 0 0 0-.556 2.21 2.21 0 0 0 0-.561 2.16 2.16 0 0 0 0-.529 2.169 2.169 0 0 0 0-.556 2.169 2.169 0 0 0 0-.556 2.21 2.21 0 0 0 0-.561 2.169 2.169 0 0 0 0-.556 2.169 2.169 0 0 0 0-.556 2.16 2.16 0 0 0 0-.529 2.209 2.209 0 0 0 .022-.532z" class="cls-2" transform="translate(-270.475 -203.769)"/>
                    <path id="패스_69" d="M237 280.652a1.757 1.757 0 0 0-.979-1.731l-23.772-11.687.6-2.71a3.427 3.427 0 0 0 .423-1.641v-.212a.355.355 0 0 0 0-.106v-.1a.355.355 0 0 0 0-.106v-.212a.355.355 0 0 0 0-.106v-.1a.354.354 0 0 0 0-.106v-.212a.355.355 0 0 0 0-.106v-.1a.355.355 0 0 0 0-.106v-.211a.355.355 0 0 0 0-.106v-.1a.355.355 0 0 0 0-.106v-.212a.355.355 0 0 0 0-.106v-.1a.355.355 0 0 0 0-.106v-.212a.355.355 0 0 0 0-.106v-.1a.355.355 0 0 0 0-.106v-.212a.355.355 0 0 0 0-.106v-.1a.355.355 0 0 0 0-.106V259a.355.355 0 0 0 0-.106v-.1a.355.355 0 0 0 0-.106v-.212a.355.355 0 0 0 0-.106v-.1a.355.355 0 0 0 0-.106v-.212a.355.355 0 0 0 0-.106.355.355 0 0 0 0-.106v-.418a.355.355 0 0 0 0-.106v-.1a.355.355 0 0 0 0-.106v-.21a.355.355 0 0 0 0-.106v-.1a.355.355 0 0 0 0-.106v-.212a.355.355 0 0 0 0-.106v-.1a.355.355 0 0 0 0-.106v-.212a.355.355 0 0 0 0-.106v-.1a.355.355 0 0 0 0-.106v-.212a.355.355 0 0 0 0-.106v-.1a.355.355 0 0 0 0-.106v-.212a.355.355 0 0 0 0-.106v-.1a.355.355 0 0 0 0-.106v-.212a.355.355 0 0 0 0-.106v-.1a.355.355 0 0 0 0-.106v-.212a.355.355 0 0 0 0-.106v-.1a.355.355 0 0 0 0-.106v-.212a.355.355 0 0 0 0-.106v-.1a.355.355 0 0 0 0-.106v-.212a.355.355 0 0 0 0-.106v-.1a3.173 3.173 0 0 0-.111-1l-2.086-7.77a2.335 2.335 0 0 0-2.255-1.726h-4.6a3.513 3.513 0 0 0-1.255.228l-9.851 3.748a2.816 2.816 0 0 1-2.117-.053l-15.165-6.664a1.837 1.837 0 0 0-2.371.826l-1.948 3.705a2.041 2.041 0 0 0-.228 1v9.369l-3.451 8.363a1.535 1.535 0 0 0-.106.577v.1a.355.355 0 0 0 0 .106v.212a.355.355 0 0 0 0 .106v.1a.355.355 0 0 0 0 .106v.212a.355.355 0 0 0 0 .106v.1a.355.355 0 0 0 0 .106v.212a.355.355 0 0 0 0 .106v.1a.355.355 0 0 0 0 .106V265a.355.355 0 0 0 0 .106v.1a.355.355 0 0 0 0 .106v.212a.355.355 0 0 0 0 .106v.1a.355.355 0 0 0 0 .106v.212a.355.355 0 0 0 0 .106v.1a.355.355 0 0 0 0 .106v.212a.355.355 0 0 0 0 .106v.1a.355.355 0 0 0 0 .106v.212a.355.355 0 0 0 0 .106v.1a.355.355 0 0 0 0 .106v.212a.355.355 0 0 0 0 .106v.1a.355.355 0 0 0 0 .106v.212a.355.355 0 0 0 0 .106v.1a.355.355 0 0 0 0 .106v.418a.355.355 0 0 0 0 .106v.418a.355.355 0 0 0 0 .106v.418a.354.354 0 0 0 0 .106v.318a.355.355 0 0 0 0 .106v.1a.355.355 0 0 0 0 .106v.212a.354.354 0 0 0 0 .106v.1a.355.355 0 0 0 0 .106v.212a.355.355 0 0 0 0 .106v.1a.355.355 0 0 0 0 .106v.212a.355.355 0 0 0 0 .106v.1a.355.355 0 0 0 0 .106v.212a.355.355 0 0 0 0 .106v.1a.355.355 0 0 0 0 .106v.212a.355.355 0 0 0 0 .106v.1a.355.355 0 0 0 0 .106v.212a1.487 1.487 0 0 0 .026.4v6.182a1.989 1.989 0 0 0 .116.683l5.473 15.176a1.906 1.906 0 0 0 2.448 1.127l.014-.005 14.075-5.24a6.09 6.09 0 0 0 1.233-.64l10.814-7.485a2.731 2.731 0 0 1 2.975-.09l8.554 5.161a2.736 2.736 0 0 1 1.059 1.212l1.059 2.4a2.648 2.648 0 0 0 1.863 1.514l13.122 2.906a2.156 2.156 0 0 0 1.985-.577l3.906-3.864a1.709 1.709 0 0 0 .529-1.217.356.356 0 0 0 0-.106v-.1a.356.356 0 0 0 0-.106v-.212a.356.356 0 0 0 0-.106v-.1a.356.356 0 0 0 0-.106v-.212a.356.356 0 0 0 0-.106v-.1a.356.356 0 0 0 0-.106v-.212a.356.356 0 0 0 0-.106v-.1a.356.356 0 0 0 0-.106v-.212a.356.356 0 0 0 0-.106v-.1a.356.356 0 0 0 0-.106v-.212a.356.356 0 0 0 0-.106v-.1a.356.356 0 0 0 0-.106v-.212a.356.356 0 0 0 0-.106v-.1a.356.356 0 0 0 0-.106v-.212a.356.356 0 0 0 0-.106v-.1a.356.356 0 0 0 0-.106v-.212a.356.356 0 0 0 0-.106v-.1a.356.356 0 0 0 0-.106v-.212a.356.356 0 0 0 0-.106v-.1a.356.356 0 0 0 0-.106v-.418a.356.356 0 0 0 0-.106v-.418a.356.356 0 0 0 0-.106v-.418a.356.356 0 0 0 0-.106v-.318a.356.356 0 0 0 0-.106v-.409a.356.356 0 0 0 0-.106v-.418a.356.356 0 0 0 0-.106v-.418a.356.356 0 0 0 0-.106v-.1a.356.356 0 0 0 0-.106v-.212a.356.356 0 0 0 0-.106v-.1a.356.356 0 0 0 0-.106v-.216a.356.356 0 0 0 0-.106v-.1a.356.356 0 0 0 0-.106v-.212a.356.356 0 0 0 0-.106v-.1a.356.356 0 0 0 0-.106.4.4 0 0 0 .021-.112z" class="cls-2" transform="translate(-155.683 -201.165)"/>
                    <path id="패스_70" d="M433.9 202.118l-23.613-6.669a1.858 1.858 0 0 1-1.3-2.207l.413-1.768a1.842 1.842 0 0 0-1.371-2.2l-6.537-1.514a1.911 1.911 0 0 0-1.921.672c-2.191 2.758-8.57 11-10.851 13.948a2.71 2.71 0 0 1-2.16 1.059h-3.64a2.165 2.165 0 0 0-2.086 1.588l-2.4 8.337c-.085.3-.143.275-.058.572l.058 8.951h3.636l-.026 4.457-3.456 9.1c-.344.905.143 12.5 1.059 12.794l3.351 1.059a2.291 2.291 0 0 0 1.927-.254l4.547-2.906a2.525 2.525 0 0 1 1.911-.333l5.611 1.27a2.964 2.964 0 0 0 2.694-.746l3.128-2.975c.344-.323.529-3.928.529-7.241v-4.69c-.185-.254-1.127 1.932-1.217.116l-3.123 3.6a3.927 3.927 0 0 1 1.047-5.455l.012-.008a3.47 3.47 0 0 1 .529-.312l1.588.487c0-1.588.037-4.287 0-6.881a5.542 5.542 0 0 1 1.016-1.683l3-1.794a4.9 4.9 0 0 1 4.5-.27l3.965 1.768a5.2 5.2 0 0 0 3.705.2l13.365-4.287a2.193 2.193 0 0 1 1.789.206l2.144 1.286v-14.911a2.456 2.456 0 0 0-1.765-2.366z" class="cls-2" transform="translate(-249.748 -177.018)"/>
                    <path id="패스_71" d="M255.5 227.584l32.553-2.514a5.952 5.952 0 0 1 1.948-.328h18.209a3.437 3.437 0 0 1 2.678 1.281l.884 1.106a1.25 1.25 0 0 0 .969.461 1.233 1.233 0 0 0 .81-.307l4.727-4.113a2.885 2.885 0 0 1 1.911-.72h2.647a.82.82 0 0 0 .778-.561l.5-1.487a88.287 88.287 0 0 0 0-10.586c-.085-.863-.487-1.059-.593-1.059l-4.235-1.006c-1.434-.344-2.281 8.755-1.837 7.347l3.176-5.547-.064-5.32a4.081 4.081 0 0 1 4.076-2.567h1.858a4.278 4.278 0 0 0 3.308-1.588l8.538-10.364a15.074 15.074 0 0 1 5.659-4.268l5.643-2.451c1.313-.566 1.27-13.027-.064-13.535l-4.293-1.63a4.9 4.9 0 0 0-3.139-.111l-19.479 5.823a6.492 6.492 0 0 1-3.308.111l-18.447-4.2a6.591 6.591 0 0 0-3.065.042l-21.062 5.346a6.543 6.543 0 0 0-4.055 3.07l-16.668 28.864a4.139 4.139 0 0 0-.408 3.176z" class="cls-2" transform="translate(-194.134 -167.512)"/>
                    <path id="패스_72" d="M307.393 371.234l-8.03-8.109a.931.931 0 0 0-1.27-.058l-4.235 3.546a3.514 3.514 0 0 1-3.578.566l-.619-.254a1.011 1.011 0 0 0-1.217.386l-.863 1.318a1.553 1.553 0 0 0-.111.206c-.026.048-.09.185-.191.212-.656.175-.662-1.694-.662-1.694v-1.5a.862.862 0 0 0-.286-.683.373.373 0 0 0-.053-.069l-1.191-.863 1.376-2.795a1.3 1.3 0 0 0 .127-.572v-10.476a1.27 1.27 0 0 0-.7-1.233l-.069-.032-9.48-4.028a1.493 1.493 0 0 0-1.731.408l-6.754 7.908a1.5 1.5 0 0 0-.376 1.1.713.713 0 0 0 0 .106.712.712 0 0 0 0 .106.643.643 0 0 0 0 .1.713.713 0 0 0 0 .106.712.712 0 0 0 0 .106.713.713 0 0 0 0 .106.713.713 0 0 0 0 .106.643.643 0 0 0 0 .1.713.713 0 0 0 0 .106.713.713 0 0 0 0 .106.713.713 0 0 0 0 .106.712.712 0 0 0 0 .106.644.644 0 0 0 0 .1.713.713 0 0 0 0 .106.713.713 0 0 0 0 .106.712.712 0 0 0 0 .106.713.713 0 0 0 0 .106.644.644 0 0 0 0 .1.713.713 0 0 0 0 .106.712.712 0 0 0 0 .106.713.713 0 0 0 0 .106.713.713 0 0 0 0 .106.643.643 0 0 0 0 .1.713.713 0 0 0 0 .106.713.713 0 0 0 0 .106.712.712 0 0 0 0 .106.713.713 0 0 0 0 .106.643.643 0 0 0 0 .1.712.712 0 0 0 0 .106.713.713 0 0 0 0 .106.713.713 0 0 0 0 .106.712.712 0 0 0 0 .106.643.643 0 0 0 0 .1.713.713 0 0 0 0 .106.712.712 0 0 0 0 .106.714.714 0 0 0 0 .106.712.712 0 0 0 0 .106.643.643 0 0 0 0 .1.713.713 0 0 0 0 .106.713.713 0 0 0 0 .106.713.713 0 0 0 0 .106.713.713 0 0 0 0 .106.643.643 0 0 0 0 .1.713.713 0 0 0 0 .106.713.713 0 0 0 0 .106.712.712 0 0 0 0 .106.713.713 0 0 0 0 .106.644.644 0 0 0 0 .1.72.72 0 0 0 0 .106.712.712 0 0 0 0 .106.713.713 0 0 0 0 .106.712.712 0 0 0 0 .106.713.713 0 0 0 0 .106.643.643 0 0 0 0 .1.713.713 0 0 0 0 .106.712.712 0 0 0 0 .106.713.713 0 0 0 0 .106.713.713 0 0 0 0 .106.643.643 0 0 0 0 .1.713.713 0 0 0 0 .106.712.712 0 0 0 0 .106.712.712 0 0 0 0 .106.713.713 0 0 0 0 .106.643.643 0 0 0 0 .1.713.713 0 0 0 0 .106.713.713 0 0 0 0 .106.712.712 0 0 0 0 .106.713.713 0 0 0 0 .106.643.643 0 0 0 0 .1.712.712 0 0 0 0 .106.713.713 0 0 0 0 .106.713.713 0 0 0 0 .106.713.713 0 0 0 0 .106.643.643 0 0 0 0 .1.713.713 0 0 0 0 .106.713.713 0 0 0 0 .106.713.713 0 0 0 0 .106.713.713 0 0 0 0 .106.643.643 0 0 0 0 .1.713.713 0 0 0 0 .106.713.713 0 0 0 0 .106.713.713 0 0 0 0 .106.713.713 0 0 0 0 .106.643.643 0 0 0 0 .1.712.712 0 0 0 0 .106.714.714 0 0 0 0 .106.712.712 0 0 0 0 .106.713.713 0 0 0 0 .106.643.643 0 0 0 0 .1.713.713 0 0 0 0 .106.712.712 0 0 0 0 .106.713.713 0 0 0 0 .106.712.712 0 0 0 0 .106.643.643 0 0 0 0 .1.713.713 0 0 0 0 .106.713.713 0 0 0 0 .106.712.712 0 0 0 0 .106.713.713 0 0 0 0 .106.643.643 0 0 0 0 .1.713.713 0 0 0 0 .106 1.512 1.512 0 0 0 .191.762c1.032 1.784 3.319 5.643 4.563 7.733a4.235 4.235 0 0 0 2.424 1.9l9.29 2.837v5.5h4.16l1.588 6.278a2.118 2.118 0 0 0 1.138 1.4l5.743 2.8a.9.9 0 0 0 .831 0c.159-.09.291 3 .376 2.821a.871.871 0 0 0 .09-.46v-.286a3.45 3.45 0 0 1 2.2-2.117c.333-.111.688-7.209 1.059-7.209h2.3a2.171 2.171 0 0 0 1.535-.64l2.435-2.488a1.407 1.407 0 0 0 .4-1.059V372.3a1.434 1.434 0 0 0-.41-1.066z" class="cls-2" transform="translate(-200.153 -247.258)"/>
                    <path id="패스_73" d="M336.852 272.728a.868.868 0 0 0-.678-.916l-4.139-.942a1.752 1.752 0 0 0-1.329.233l-3.636 2.313a5.606 5.606 0 0 1-4.7.614l-3.742-1.17v-3.46l1.789-1.323a.768.768 0 0 0 .053-.36v-10.482a.709.709 0 0 0-.683-.725h-1.466a1.1 1.1 0 0 0-.789.328l-4.764 4.764a1.84 1.84 0 0 1-1.292.529h-1.588a1.873 1.873 0 0 1-1.323-.529l-2.408-2.408a1.732 1.732 0 0 0-1.223-.529h-14.943a11.931 11.931 0 0 0-3.875.651l-26.233 9a3.039 3.039 0 0 1-2.075-.032l-3.282-1.249a1.292 1.292 0 0 0-1.588.619c-.529 1.09-1.313 2.742-1.757 3.705a.851.851 0 0 0-.074.413.32.32 0 0 0 0 .1.355.355 0 0 0 0 .106.355.355 0 0 0 0 .106.355.355 0 0 0 0 .106.355.355 0 0 0 0 .106.32.32 0 0 0 0 .1.355.355 0 0 0 0 .106.355.355 0 0 0 0 .106.355.355 0 0 0 0 .106.355.355 0 0 0 0 .106.32.32 0 0 0 0 .1.355.355 0 0 0 0 .106.355.355 0 0 0 0 .106.355.355 0 0 0 0 .106.355.355 0 0 0 0 .106.32.32 0 0 0 0 .1.355.355 0 0 0 0 .106.354.354 0 0 0 0 .106.355.355 0 0 0 0 .106.355.355 0 0 0 0 .106.321.321 0 0 0 0 .1.355.355 0 0 0 0 .106.355.355 0 0 0 0 .106.355.355 0 0 0 0 .106.355.355 0 0 0 0 .106.32.32 0 0 0 0 .1.355.355 0 0 0 0 .106.355.355 0 0 0 0 .106.355.355 0 0 0 0 .106.355.355 0 0 0 0 .106.32.32 0 0 0 0 .1.355.355 0 0 0 0 .106.355.355 0 0 0 0 .106.355.355 0 0 0 0 .106.355.355 0 0 0 0 .106.32.32 0 0 0 0 .1.355.355 0 0 0 0 .106.355.355 0 0 0 0 .106.355.355 0 0 0 0 .106.355.355 0 0 0 0 .106.32.32 0 0 0 0 .1.355.355 0 0 0 0 .106.355.355 0 0 0 0 .106.355.355 0 0 0 0 .106.355.355 0 0 0 0 .106.321.321 0 0 0 0 .1.355.355 0 0 0 0 .106.355.355 0 0 0 0 .106.355.355 0 0 0 0 .106.355.355 0 0 0 0 .106.32.32 0 0 0 0 .1.355.355 0 0 0 0 .106.355.355 0 0 0 0 .106.355.355 0 0 0 0 .106.355.355 0 0 0 0 .106.32.32 0 0 0 0 .1.355.355 0 0 0 0 .106.355.355 0 0 0 0 .106.355.355 0 0 0 0 .106.355.355 0 0 0 0 .106.32.32 0 0 0 0 .1.355.355 0 0 0 0 .106.355.355 0 0 0 0 .106.355.355 0 0 0 0 .106.355.355 0 0 0 0 .106.32.32 0 0 0 0 .1.355.355 0 0 0 0 .106.355.355 0 0 0 0 .106.355.355 0 0 0 0 .106.355.355 0 0 0 0 .106.355.355 0 0 0 0 .106.32.32 0 0 0 0 .1.355.355 0 0 0 0 .106.355.355 0 0 0 0 .106.355.355 0 0 0 0 .106.355.355 0 0 0 0 .106.32.32 0 0 0 0 .1.355.355 0 0 0 0 .106.355.355 0 0 0 0 .106.355.355 0 0 0 0 .106.355.355 0 0 0 0 .106.32.32 0 0 0 0 .1.355.355 0 0 0 0 .106.355.355 0 0 0 0 .106.355.355 0 0 0 0 .106.355.355 0 0 0 0 .106.32.32 0 0 0 0 .1.355.355 0 0 0 0 .106.355.355 0 0 0 0 .106.355.355 0 0 0 0 .106.355.355 0 0 0 0 .106.32.32 0 0 0 0 .1.355.355 0 0 0 0 .106.355.355 0 0 0 0 .106.355.355 0 0 0 0 .106.355.355 0 0 0 0 .106.32.32 0 0 0 0 .1.355.355 0 0 0 0 .106.355.355 0 0 0 0 .106.355.355 0 0 0 0 .106.889.889 0 0 0 .492.863l27.89 13.625a1.673 1.673 0 0 0 1.636-.1 4.563 4.563 0 0 1 5.7.577l7.463 7.41a2.181 2.181 0 0 0 2.329.487l9.729-3.8a3.673 3.673 0 0 0 2.054-2l3.536-8.363a5.42 5.42 0 0 1 4.018-3.224l6.188-1.117a7.309 7.309 0 0 1 7.94 4.065.768.768 0 0 0 .879.413l1.228-.312a.763.763 0 0 0 .577-.768v-2.811l3.832-3.287a.852.852 0 0 0 .3-.7v-10.476z" class="cls-2" transform="translate(-192.302 -207.53)"/>
                    <path id="패스_74" d="M266.41 410.432a1.5 1.5 0 0 0-.064-.572l-.259-.857a1.588 1.588 0 0 0-.868-.969l-8.909-3.891a3.038 3.038 0 0 1-1.741-2.059l-1.98-8a2.159 2.159 0 0 0-1.477-1.54l-9.39-2.774a2.065 2.065 0 0 0-1.884.365l-21.2 16.938a2.98 2.98 0 0 0-1.112 2.038l-.3 2.954a3.561 3.561 0 0 1-2.3 2.991l-13.545 5.066a1.831 1.831 0 0 0-1.186 1.731v10.481a1.793 1.793 0 0 0 .418 1.26l4.849 5.823a2.117 2.117 0 0 0 2.98.275l.085-.074 4.457-4.1a6.029 6.029 0 0 1 4.1-1.588h2.53a2.065 2.065 0 0 0 1.524-.678l2.361-2.615a15.124 15.124 0 0 1 11.243-5h4.1a21.256 21.256 0 0 0 7.94-1.54l5-2.017a7.073 7.073 0 0 1 6.082.376l2.361 1.307a2.288 2.288 0 0 0 2.117.058l3.176-1.54a1.588 1.588 0 0 0 .873-1.392v-10.484z" class="cls-2" transform="translate(-170.962 -267.379)"/>
                    <path id="패스_75" d="M532.413 336.51l-7.051-1.62a2.509 2.509 0 0 1-1.953-2.445V330.2a2.926 2.926 0 0 0-1.683-2.647l-12.317-5.77a1.847 1.847 0 0 0-1.921.217l-4.028 3.176a1.832 1.832 0 0 0-.588 2.086l1.44 3.906a2.192 2.192 0 0 1-.736 2.5l-8.5 6.437a2.233 2.233 0 0 0-.789 1.159l-1.471 5.336c-.249.91.434 12.4 1.381 12.4h8.7a1.581 1.581 0 0 0 .228-.026V365h7.1v-11.255h-2.292l-.259-.873a2.959 2.959 0 0 1 2.832-3.816h13.424a6.125 6.125 0 0 0 4.33-1.794l4.833-4.838c-.082-2.944-.32-5.824-.68-5.914z" class="cls-2" transform="translate(-301.639 -236.876)"/>
                    <path id="패스_76" d="M544.526 265.631l-16.568-16.573a5.141 5.141 0 0 0-3.621-1.5h-8.787a3.535 3.535 0 0 0-1.588.392l-3.652 1.916a4.928 4.928 0 0 1-2.467.561c-4.282-.169-18 0-22.486.032a4.431 4.431 0 0 0-2.6.895c-3.118 2.377-11.788 8.951-15.917 11.793-1.159.8-1.313 13.043-.312 14.038a2.228 2.228 0 0 1 .662 1.588v5.542a1.482 1.482 0 0 0 1.482 1.482h12.27a2.5 2.5 0 0 1 2.5 2.5v3.8a2.645 2.645 0 0 0 .773 1.868l3.462 3.462a2.237 2.237 0 0 0 .333.27l6.976 5.59 1.323-4.372-3.705-3.2.4-.349a4.235 4.235 0 0 1 4.573-.609l14.1 6.791a2.53 2.53 0 0 1 1.424 2.271v2.481a2.393 2.393 0 0 0 1.8 2.318l6.548 1.678a2.171 2.171 0 0 1 1.625 2.117 2.191 2.191 0 0 0 1.906 2.176 4.763 4.763 0 0 0 3.705-1.059 1.587 1.587 0 0 0 .561-1.2v-1.588a3.027 3.027 0 0 1 1.032-2.276l6.352-5.59a6.943 6.943 0 0 0 2.35-5.2v-3.626a4.933 4.933 0 0 1 1.445-3.488l4.3-4.293a3.543 3.543 0 0 0 1.059-2.5v-15.084a4.355 4.355 0 0 0-1.258-3.054z" class="cls-2" transform="translate(-286.46 -205.189)"/>
                    <path id="패스_77" d="M486.865 317.535a1.328 1.328 0 0 0-.36-1.223l-4.542-4.536a2.513 2.513 0 0 1-.736-1.779v-2.3a2.53 2.53 0 0 0-2.525-2.525h-5.992a2.529 2.529 0 0 0-2.488 2.043 2.612 2.612 0 0 0-.027.757 2.492 2.492 0 0 0 0 .561 2.463 2.463 0 0 0 0 .529 2.446 2.446 0 0 0 0 .556 2.493 2.493 0 0 0 0 .561 2.463 2.463 0 0 0 0 .529 2.446 2.446 0 0 0 0 .556 2.446 2.446 0 0 0 0 .556 2.492 2.492 0 0 0 0 .561 2.446 2.446 0 0 0 0 .556 2.446 2.446 0 0 0 0 .556 2.463 2.463 0 0 0 0 .529 2.493 2.493 0 0 0 0 .561 2.446 2.446 0 0 0 0 .556 2.463 2.463 0 0 0 0 .529 2.938 2.938 0 0 0 0 .482l-2.345 2.451a2 2 0 0 0-.529 1.662 1.96 1.96 0 0 0 0 .556 1.973 1.973 0 0 0 0 .529 1.96 1.96 0 0 0 0 .556 2 2 0 0 0 0 .561 1.973 1.973 0 0 0 0 .529 1.96 1.96 0 0 0 0 .556 1.96 1.96 0 0 0 0 .556 2 2 0 0 0 0 .561 1.973 1.973 0 0 0 0 .529 1.96 1.96 0 0 0 0 .556 2 2 0 0 0 0 .561 1.973 1.973 0 0 0 0 .529 1.96 1.96 0 0 0 0 .556 1.96 1.96 0 0 0 0 .556 2 2 0 0 0 0 .561 1.96 1.96 0 0 0 0 .556 1.96 1.96 0 0 0 0 .556 1.973 1.973 0 0 0 0 .529 2 2 0 0 0 .529 1.662l1.8 1.9a2.144 2.144 0 0 0 2.345.529l14.048-5.394a1.339 1.339 0 0 0 .831-1.524 1.429 1.429 0 0 0 0-.561 1.413 1.413 0 0 0 0-.529 1.4 1.4 0 0 0 0-.556 1.413 1.413 0 0 0 0-.529 1.429 1.429 0 0 0 0-.561 1.4 1.4 0 0 0 0-.556 1.412 1.412 0 0 0 0-.529 1.4 1.4 0 0 0 0-.556 1.429 1.429 0 0 0 0-.561 1.4 1.4 0 0 0 0-.556 1.413 1.413 0 0 0 0-.529 1.429 1.429 0 0 0 0-.561 1.4 1.4 0 0 0 0-.556 1.413 1.413 0 0 0 0-.529 1.4 1.4 0 0 0 0-.556 1.429 1.429 0 0 0 0-.561 1.413 1.413 0 0 0 0-.529 1.4 1.4 0 0 0-.009-.479z" class="cls-2" transform="translate(-290.668 -229.633)"/>
                    <path id="패스_78" d="M472.84 309.02v10.391h7.86l-2.758-8.6-3.758-1.789h-1.344" class="cls-2" transform="translate(-293.426 -231.56)"/>
                </g>
                <g id="Top">
                    <path id="패스_79" d="M442.392 261.533l15.112-11.55a2.181 2.181 0 0 0 .41-3.057 2.277 2.277 0 0 0-.609-.529l-2.567-1.54a2.193 2.193 0 0 0-1.789-.206l-13.371 4.277a5.177 5.177 0 0 1-3.705-.2l-3.965-1.768a4.9 4.9 0 0 0-4.5.27l-2.991 1.794a2.176 2.176 0 0 0-.753 2.983l.1.154 3.409 4.737a3.138 3.138 0 0 0 1.588 1.143l11.645 3.832a2.155 2.155 0 0 0 1.986-.34z" class="cls-4" transform="translate(-270.468 -203.769)"/>
                    <path id="패스_80" d="M497.6 284.18l14.1 6.791a2.529 2.529 0 0 1 1.424 2.271v2.488a2.393 2.393 0 0 0 1.8 2.318l6.548 1.678a2.171 2.171 0 0 1 1.625 2.117 2.191 2.191 0 0 0 1.903 2.176 4.763 4.763 0 0 0 3.705-1.059 1.587 1.587 0 0 0 .561-1.2v-1.588a3.029 3.029 0 0 1 1.034-2.272l6.352-5.59a6.944 6.944 0 0 0 2.35-5.2v-3.626a4.933 4.933 0 0 1 1.445-3.488l4.3-4.293a3.542 3.542 0 0 0 1.059-2.5v-4.5a4.356 4.356 0 0 0-1.276-3.086l-16.568-16.573a5.141 5.141 0 0 0-3.621-1.5h-8.787a3.536 3.536 0 0 0-1.588.392l-3.652 1.916a4.928 4.928 0 0 1-2.467.561c-4.282-.169-18 0-22.486.032a4.431 4.431 0 0 0-2.6.895c-3.118 2.377-11.788 8.951-15.917 11.793a2.26 2.26 0 0 0-.577 3.139 2.523 2.523 0 0 0 .265.312 2.226 2.226 0 0 1 .662 1.588v5.553a1.482 1.482 0 0 0 1.482 1.482h12.27a2.5 2.5 0 0 1 2.5 2.5v3.8a2.645 2.645 0 0 0 .773 1.869l3.462 3.462a2.118 2.118 0 0 0 2.7.243l2.647-2.308a4.234 4.234 0 0 1 4.572-.593z" class="cls-4" transform="translate(-286.439 -203.354)"/>
                    <path id="패스_81" d="M397.325 480.555l1.561-8.469a6.119 6.119 0 0 1 2.34-4.388 1.106 1.106 0 0 0 .323-1.53.958.958 0 0 0-.191-.222l-17.78-15.827a4.557 4.557 0 0 0-4.584-.889l-11.158 3.986a2.764 2.764 0 0 0-1.831 2.6v2.721a3.325 3.325 0 0 1-.979 2.35l-.688.693a3.331 3.331 0 0 1-2.355.974h-8.22a1.906 1.906 0 0 0-1.673 1l-.858 1.588a1.994 1.994 0 0 0 0 1.831l6.775 13.471a4.361 4.361 0 0 0 3.9 2.4h32.326a3.024 3.024 0 0 0 3.092-2.289z" class="cls-4" transform="translate(-237.58 -294.173)"/>
                    <path id="패스_82" d="M364.471 440.616V438.5a4.763 4.763 0 0 1 3.176-4.5l12.889-4.563a5.662 5.662 0 0 0 3.176-2.842c1.524-3.1 4.4-9 5.96-12.174a1.281 1.281 0 0 0-1.334-1.826l-10.978 1.588a6.267 6.267 0 0 0-4.023 2.308l-19.521 24.534a.984.984 0 0 0 .175 1.382.975.975 0 0 0 .6.206h7.86a2.011 2.011 0 0 0 2.022-2z" class="cls-4" transform="translate(-239.001 -277.884)"/>
                    <path id="패스_83" d="M333.094 446.186l10.1-12.64a2.16 2.16 0 0 0 .1-2.573l-1.233-1.81a3.461 3.461 0 0 0-2.853-1.5h-1.477a5.191 5.191 0 0 0-3.224 1.117l-20.85 16.409a1.307 1.307 0 0 0-.5 1.022 1.308 1.308 0 0 0 1.3 1.307h15.922a3.473 3.473 0 0 0 2.715-1.332z" class="cls-4" transform="translate(-220.839 -284.886)"/>
                    <path id="패스_84" d="M334.869 412.155l6.352-4.9a3.118 3.118 0 0 1 1.895-.646h5.1a2.451 2.451 0 0 1 2.017 1.059l1.641 2.435a1.244 1.244 0 0 0 1.715.328 1.3 1.3 0 0 0 .254-.228l6.278-7.448a1.461 1.461 0 0 0-.1-1.985l-2.715-2.647a2.975 2.975 0 0 1-.889-2.117v-2.779a1.286 1.286 0 0 0-1.286-1.286H350a.91.91 0 0 1-.916-.905V389.825a1.408 1.408 0 0 0-1.4-1.408h-.709a2.117 2.117 0 0 0-1.424.556l-10.486 9.6a3.335 3.335 0 0 1-2.26.879h-2.752a1.683 1.683 0 0 0-1.662 1.7 1.635 1.635 0 0 0 .074.476l2.154 6.939a4.275 4.275 0 0 0 .926 1.62l1.641 1.81a1.255 1.255 0 0 0 1.683.158z" class="cls-4" transform="translate(-227.69 -267.11)"/>
                    <path id="패스_85" d="M388.582 393.573l1.747 2.393a3.244 3.244 0 0 0 3.091 1.3l15.933-2.292a3.414 3.414 0 0 0 2.827-2.578l.291-1.207a3.139 3.139 0 0 0-.122-1.858l-1.932-5.124a2.922 2.922 0 0 0-2.731-1.89H399.8a5.746 5.746 0 0 0-1.959.344L389.7 385.6a2.859 2.859 0 0 0-1.884 2.684v2.954a3.97 3.97 0 0 0 .766 2.335z" class="cls-4" transform="translate(-254.631 -264.508)"/>
                    <path id="패스_86" d="M149.28 540.492l-4.07-10.459a4.108 4.108 0 0 1 0-2.991l10.343-26.228a13.277 13.277 0 0 1 6.13-6.881l7.987-4.235a10.586 10.586 0 0 1 9.374-.275l18.854 8.639a4.114 4.114 0 0 0 3.541-.064l.6-.3a4.092 4.092 0 0 0 2.144-4.658l-.476-1.911a1.915 1.915 0 0 1 .725-2.017l6.087-4.462a1.534 1.534 0 0 1 1.683-.1l8.543 4.88a4.085 4.085 0 0 0 3.525.254l21.03-8.226a3.007 3.007 0 0 1 2.811.333l3.176 2.234a3.669 3.669 0 0 1 1.2 1.424l5.113 10.909a8.961 8.961 0 0 0 8.109 5.156h33.877a4.1 4.1 0 0 1 2.9 1.2l3.954 3.949a4.075 4.075 0 0 0 2.9 1.2h13.492a7.6 7.6 0 0 1 7.585 7.585v2.546a4.1 4.1 0 0 1-1.2 2.9l-9.687 9.687a4.092 4.092 0 0 1-2.9 1.2h-3.763a4.121 4.121 0 0 1-2.647-.979l-11.83-10.089a3.67 3.67 0 0 1-1.292-2.795v-1.265a4.552 4.552 0 0 0-4.547-4.547h-8.601a4.1 4.1 0 0 0-2.9 1.2l-5.7 5.711a4.1 4.1 0 0 0-.529 5.161l4.647 7.035a4.1 4.1 0 0 1-1.156 5.678 4.3 4.3 0 0 1-.741.386l-6.468 2.594a4.112 4.112 0 0 0-2.5 3.038l-2.689 14.128a7.247 7.247 0 0 1-7.141 5.9h-28.39a17.468 17.468 0 0 0-12.788 5.579l-16.7 18a4.087 4.087 0 0 1-3 1.307h-9.681a45.16 45.16 0 0 1-23.121-6.352 4.1 4.1 0 0 1-1.429-5.6l12.762-21.406a4.1 4.1 0 0 0-.471-4.843 4.1 4.1 0 0 1 .3-5.785l4.277-3.848a5.933 5.933 0 0 1 7.029-.677l1.874 1.1a4.107 4.107 0 0 0 4.473-.169l4.9-3.456a2.647 2.647 0 0 0 .8-3.419l-4.15-7.665a4.1 4.1 0 0 0-4.838-1.953l-16.091 5.081a4.107 4.107 0 0 0-1.429.789l-15.255 13.032a5.415 5.415 0 0 1-7.628-.6 5.48 5.48 0 0 1-.937-1.56z" class="cls-4" transform="translate(-144.928 -305.876)"/>
                    <path id="패스_87" d="M396.388 550.08l4.7-4.7a3.066 3.066 0 0 1 2.17-.9h5.293c2.4 0 3.059.593 3.059 2.811l.836 2.35a10.4 10.4 0 0 0 1.059 2.064l12.345 11.015a3.065 3.065 0 0 1 .307 4.323l-.006.006a.365.365 0 0 1-.058.069l-3.774 3.705a3.066 3.066 0 0 1-2.255.984h-12.7a6.246 6.246 0 0 1-5.632-3.546l-.884-1.858a3.077 3.077 0 0 1-.3-1.318l.037-3.446a3.1 3.1 0 0 0-.492-1.667l-4.108-6.039a3.07 3.07 0 0 1 .403-3.853z" class="cls-4" transform="translate(-257.97 -337.369)"/>
                    <path id="패스_88" d="M435.353 480.91l-3.234-3.832a4.5 4.5 0 0 1-1.011-3.631l1.419-8.819a2.858 2.858 0 0 1 1.932-2.26 3.129 3.129 0 0 0 1.149-5.293l-19.618-17.929a1.869 1.869 0 0 1-.466-2.091l1.228-2.975a1.868 1.868 0 0 1 2.439-1.017l.074.032 22.327 10.343a15.347 15.347 0 0 0 9.189 1.17l16.87-3.081a6.781 6.781 0 0 1 5.934 1.8l1.392 1.35a3.176 3.176 0 0 0 4.277.111l3.954-3.478a9.835 9.835 0 0 1 10.4-1.636l6.881 2.97a2.546 2.546 0 0 1 1.53 2.525l-1.219 16.314a2.8 2.8 0 0 0 2.573 3 1.489 1.489 0 0 0 .217 0h14.51a4.388 4.388 0 0 1 4.388 4.388v10.587a10.02 10.02 0 0 0 5.934 9.147l19.818 8.85a6.7 6.7 0 0 1 2.456 1.863l6.548 7.876a6.812 6.812 0 0 1 1.244 6.431l-1.74 5.375a3.668 3.668 0 0 0 2.244 4.573l2.7.984a1.44 1.44 0 0 1 .868 1.842 1.666 1.666 0 0 1-.074.169l-2.213 4.319a3.345 3.345 0 0 1-.191.333 4 4 0 0 1-5.541 1.112l-7.612-4.9a9.574 9.574 0 0 0-6.669-1.4l-18.2 2.874a9.194 9.194 0 0 1-8.252-2.779c-.122-.132-.244-.27-.355-.413l-13.058-16a2.117 2.117 0 0 0-2.546-.582l-2.975 1.382a2.117 2.117 0 0 0-1.1 2.647l.746 2.027a4.764 4.764 0 0 1-1.355 5.235l-.778.678a12.324 12.324 0 0 1-7.538 2.985l-1.424.064a5.356 5.356 0 0 0-4.166 2.276c-1.249 1.794-3.07 4.4-4.388 6.283a4.828 4.828 0 0 1-4.542 2.022l-25.099-3.091a1.7 1.7 0 0 1-1.482-1.487l-1.89-15.673a1.937 1.937 0 0 1 1.689-2.154h.942a5.943 5.943 0 0 0 4.235-1.763l9.65-9.708a7.41 7.41 0 0 0 2.16-5.235v-4.557a8.85 8.85 0 0 0-8.76-8.871l-14.054-.153a3.176 3.176 0 0 1-2.367-1.129z" class="cls-4" transform="translate(-262.677 -283.124)"/>
                    <path id="패스_89" d="M266.255 445.706l12.587-9.528a1.123 1.123 0 0 0 .231-1.57l-.014-.018a.815.815 0 0 0-.127-.143l-.858-.8a1.668 1.668 0 0 0-1.921-.259l-5.42 2.842a5.441 5.441 0 0 1-5.2-.09l-1.911-1.085a3.065 3.065 0 0 0-2.509-.233l-7.49 2.573a15.081 15.081 0 0 1-4.722.82l-4.912.069a16.252 16.252 0 0 0-12.757 6.453 5.558 5.558 0 0 1-4.377 2.191h-1.646a6.649 6.649 0 0 0-4.674 1.948l-3.557 3.557a1.8 1.8 0 0 0 .942 3.044l18.865 2.117a6.556 6.556 0 0 1 3.562 1.551 2.731 2.731 0 0 0 3.5.058 2.742 2.742 0 0 1 3.176-.191l8.358 5.171a2.88 2.88 0 0 0 2.562.233l20.321-7.988a3.707 3.707 0 0 1 3.176.212l2.387 1.323a1.181 1.181 0 0 0 1.551-.376l1.731-2.562a1.217 1.217 0 0 0-.138-1.53l-.783-.82a1.233 1.233 0 0 0-.873-.365h-16.837a3.705 3.705 0 0 1-2.223-6.606z" class="cls-4" transform="translate(-178.592 -287.135)"/>
                    <path id="패스_90" d="M305.2 384.525l.863-1.318a1.011 1.011 0 0 1 1.217-.386l.619.254a3.514 3.514 0 0 0 3.578-.566l4.235-3.546a.932.932 0 0 1 1.27.058l8.03 8.109a1.424 1.424 0 0 1 0 2l-2.435 2.488a2.171 2.171 0 0 1-1.535.64h-2.3a3.457 3.457 0 0 0-3.457 3.456v.249l.2 2.7a.894.894 0 0 1-.815.968h-.011a.86.86 0 0 1-.471-.09l-5.786-2.811a2.118 2.118 0 0 1-1.138-1.4l-2.308-9.321a1.879 1.879 0 0 1 .244-1.484z" class="cls-4" transform="translate(-217.224 -262.797)"/>
                    <path id="패스_91" d="M218.617 407.126l21.2-16.938a2.065 2.065 0 0 1 1.884-.365l9.39 2.774a2.159 2.159 0 0 1 1.477 1.54l1.98 8a3.038 3.038 0 0 0 1.741 2.059l8.908 3.864a1.588 1.588 0 0 1 .868.969l.259.858a1.588 1.588 0 0 1-.81 1.858l-3.176 1.54a2.287 2.287 0 0 1-2.117-.058l-2.361-1.307a7.072 7.072 0 0 0-6.082-.376l-5 2.017a21.258 21.258 0 0 1-7.94 1.54h-4.1a15.124 15.124 0 0 0-11.243 5l-2.35 2.594a2.065 2.065 0 0 1-1.524.677h-2.53a6.029 6.029 0 0 0-4.1 1.588l-4.457 4.086a2.118 2.118 0 0 1-2.991-.116l-.074-.085-4.849-5.823a1.831 1.831 0 0 1 .238-2.578 1.9 1.9 0 0 1 .529-.307l13.529-5.029a3.561 3.561 0 0 0 2.3-2.991l.3-2.954a2.983 2.983 0 0 1 1.101-2.037z" class="cls-4" transform="translate(-170.939 -267.402)"/>
                    <path id="패스_92" d="M267.639 355.185c1.032 1.784 3.319 5.643 4.563 7.733a4.235 4.235 0 0 0 2.424 1.9l9.8 2.991a.857.857 0 0 0 .9-.249l1.059-1.154a.874.874 0 0 0-.064-1.233.373.373 0 0 0-.053-.069l-3.07-2.228a2.879 2.879 0 0 1-.889-3.6l4.145-8.416a1.275 1.275 0 0 0-.577-1.7l-.069-.032-9.48-4.028a1.493 1.493 0 0 0-1.731.408l-6.754 7.908a1.53 1.53 0 0 0-.204 1.769z" class="cls-4" transform="translate(-200.311 -247.54)"/>
                    <path id="패스_93" fill="#d1f9ac" d="M425.168 402.466l2.181-4.944a3.608 3.608 0 0 1 2.16-1.969 3.965 3.965 0 0 0 2.53-2.562l.672-2.117a2.879 2.879 0 0 1 2.4-1.985l3.218-.381a4.472 4.472 0 0 0 2.647-1.281l4.024-4.034a6.588 6.588 0 0 1 3.091-1.741l8.432-2.075a7.326 7.326 0 0 1 1.763-.217H469.4a3.705 3.705 0 0 1 3.525 2.562l3.382 10.454a2.948 2.948 0 0 1-1.551 3.583l-3.525 1.662a1.477 1.477 0 0 0-.709 1.958 1.548 1.548 0 0 0 .233.349l1.339 1.514a2.244 2.244 0 0 1-.187 3.169l-.008.007-10.438 9.12a9.074 9.074 0 0 1-4.282 2.059l-3.552.662a7.816 7.816 0 0 1-4.764-.6l-22.711-10.589a1.979 1.979 0 0 1-.984-2.604z" transform="translate(-270.826 -262.699)"/>
                    <path id="패스_94" d="M318.441 272.85l3.891 1.223a5.606 5.606 0 0 0 4.7-.614l3.636-2.313a1.752 1.752 0 0 1 1.329-.233l4.161.942a.873.873 0 0 1 .376 1.514l-4.547 3.9.678 2.011a.763.763 0 0 1-.474.968h-.055l-1.228.312a.768.768 0 0 1-.879-.413 7.31 7.31 0 0 0-7.94-4.065L315.9 277.2a5.42 5.42 0 0 0-4.018 3.224l-3.536 8.363a3.673 3.673 0 0 1-2.054 2l-9.74 3.811a2.181 2.181 0 0 1-2.329-.487l-7.464-7.384a4.563 4.563 0 0 0-5.7-.577 1.673 1.673 0 0 1-1.636.1l-27.864-13.625a.889.889 0 0 1-.418-1.17c.445-.969 1.207-2.647 1.757-3.705a1.291 1.291 0 0 1 1.588-.619l3.282 1.249a3.038 3.038 0 0 0 2.075.032l26.233-9a11.93 11.93 0 0 1 3.875-.651H304.9a1.731 1.731 0 0 1 1.223.529l2.408 2.408a1.872 1.872 0 0 0 1.323.529h1.588a1.84 1.84 0 0 0 1.292-.529l4.764-4.764a1.1 1.1 0 0 1 .789-.328h1.413a.709.709 0 0 1 .7.7.694.694 0 0 1-.058.275l-4.325 10.057a3.9 3.9 0 0 0 2.11 5.089h.007c.117.049.196.086.307.123z" class="cls-4" transform="translate(-192.259 -207.571)"/>
                    <path id="패스_95" d="M413.267 217.547l2.9 1.318a3.277 3.277 0 0 0 2.35.143l14.99-4.764a3.176 3.176 0 0 0 2.2-3.012v-6.749a2.461 2.461 0 0 0-1.789-2.366l-23.618-6.669a1.858 1.858 0 0 1-1.3-2.207l.413-1.768a1.842 1.842 0 0 0-1.371-2.2l-6.537-1.514a1.911 1.911 0 0 0-1.921.672c-2.191 2.758-8.57 11-10.851 13.948a2.709 2.709 0 0 1-2.16 1.059h-3.636a2.165 2.165 0 0 0-2.086 1.588l-2.4 8.337a1.673 1.673 0 0 0 1.08 2.1l.042.013h.1l4.139 1a1.964 1.964 0 0 1 1.451 2.368.747.747 0 0 1-.074.233l-6.59 17.378a1.689 1.689 0 0 0 .976 2.18h.083L383 239.7a2.291 2.291 0 0 0 1.927-.254l4.547-2.906a2.526 2.526 0 0 1 1.911-.333l5.611 1.27a2.964 2.964 0 0 0 2.694-.746l3.128-2.975a1.774 1.774 0 0 0 .249-2.281l-4.039-5.934a3.927 3.927 0 0 1 1.047-5.455l.012-.008a3.476 3.476 0 0 1 .529-.312l4.711-2.191a9.438 9.438 0 0 1 7.94-.028z" class="cls-4" transform="translate(-249.741 -177.018)"/>
                    <path id="패스_96" d="M313.539 216.7l4.727-4.113a2.885 2.885 0 0 1 1.911-.72h2.647a.82.82 0 0 0 .778-.561l.5-1.487a.826.826 0 0 0-.508-1.052l-.021-.007h-.064l-4.235-1.006a2.546 2.546 0 0 1-1.885-3.068l.048-.169 3.308-10.586a4.06 4.06 0 0 1 3.875-2.848h1.858a4.278 4.278 0 0 0 3.308-1.588l8.559-10.364a15.075 15.075 0 0 1 5.655-4.273l5.643-2.451a1.588 1.588 0 0 0-.064-2.948l-4.293-1.63a4.9 4.9 0 0 0-3.139-.111l-19.479 5.823a6.492 6.492 0 0 1-3.308.111l-18.447-4.2a6.591 6.591 0 0 0-3.065.042l-21.062 5.346a6.543 6.543 0 0 0-4.055 3.07l-16.668 28.864a4.139 4.139 0 0 0-.408 3.176l2.615 9.459a1.627 1.627 0 0 1-.138 1.207 1.625 1.625 0 0 0 .654 2.2h.008l.1.053 1.514.683a1.656 1.656 0 0 0 1.2.058l26.466-9.131a5.951 5.951 0 0 1 1.948-.328h18.209a3.435 3.435 0 0 1 2.678 1.281l.884 1.106a1.249 1.249 0 0 0 .969.461 1.23 1.23 0 0 0 .777-.299z" class="cls-4" transform="translate(-194.114 -167.512)"/>
                    <path id="패스_97" d="M236 278.922l-26-12.784a3.282 3.282 0 0 1-1.493-4.393c0-.048.048-.1.074-.143l4.235-7.665a3.4 3.4 0 0 0 .312-2.53l-2.086-7.77a2.334 2.334 0 0 0-2.255-1.726h-4.6a3.5 3.5 0 0 0-1.255.228l-9.83 3.748a2.816 2.816 0 0 1-2.117-.053l-15.165-6.664a1.837 1.837 0 0 0-2.371.826L171.5 243.7a2.038 2.038 0 0 0 0 1.911l1.355 2.456a2.159 2.159 0 0 1 .1 1.858l-5.155 12.508a1.52 1.52 0 0 0 .466 1.768l1.175.9a1.26 1.26 0 0 1 .212 1.768 1.313 1.313 0 0 1-.164.175l-1.059.905a2.027 2.027 0 0 0-.582 2.223l5.473 15.176a1.911 1.911 0 0 0 2.451 1.138h.042l14.075-5.24a6.091 6.091 0 0 0 1.233-.641l10.814-7.485a2.731 2.731 0 0 1 2.975-.09l8.533 5.145a2.737 2.737 0 0 1 1.059 1.212l1.059 2.4a2.648 2.648 0 0 0 1.863 1.514l13.122 2.906a2.155 2.155 0 0 0 1.985-.577l3.906-3.864a1.763 1.763 0 0 0 .043-2.493l-.006-.006a1.8 1.8 0 0 0-.475-.345z" class="cls-4" transform="translate(-155.64 -201.165)"/>
                    <path id="패스_98" d="M494.119 348.381h8.7a2.731 2.731 0 0 0 1.89-.757l1.17-1.122a2.546 2.546 0 0 1 1.757-.7h13.979a6.244 6.244 0 0 0 4.139-1.588l6.982-6.172a.916.916 0 0 0-.4-1.588l-7.051-1.62a2.509 2.509 0 0 1-1.953-2.445v-2.244a2.927 2.927 0 0 0-1.683-2.647l-12.317-5.77a1.847 1.847 0 0 0-1.921.217l-4.028 3.176a1.832 1.832 0 0 0-.588 2.086l1.44 3.906a2.192 2.192 0 0 1-.736 2.5L495 340.05a2.234 2.234 0 0 0-.789 1.159l-1.472 5.336a1.429 1.429 0 0 0 .965 1.776h.009a1.538 1.538 0 0 0 .406.06z" class="cls-4" transform="translate(-301.577 -236.926)"/>
                    <path id="패스_99" d="M472.7 305.17h6a2.531 2.531 0 0 1 2.525 2.525V310a2.513 2.513 0 0 0 .736 1.779l4.536 4.536a1.339 1.339 0 0 1-.471 2.191l-14.052 5.394a2.143 2.143 0 0 1-2.345-.529l-1.8-1.9a2.006 2.006 0 0 1 0-2.763l5-5.219a1.588 1.588 0 0 0-.058-2.239l-1.816-1.71a2.54 2.54 0 0 1-.746-2.324 2.53 2.53 0 0 1 2.491-2.046z" class="cls-4" transform="translate(-290.635 -229.631)"/>
                    <path id="패스_100" d="M510.627 399.954l-3.271.529a.816.816 0 0 1-.937-.662.8.8 0 0 1 .249-.731l7.061-6.611a3.319 3.319 0 0 0 .154-4.685l-.032-.032a1.678 1.678 0 0 1 .048-2.371 1.7 1.7 0 0 1 .482-.323l1.556-.693a3.642 3.642 0 0 0 2.006-4.393l-3.885-12.773a2.959 2.959 0 0 1 2.832-3.816h13.424a6.125 6.125 0 0 0 4.33-1.794l4.9-4.88a3.916 3.916 0 0 1 4.129-.91l.82.3a4.124 4.124 0 0 0 4.441-1.059l.857-.926a6.234 6.234 0 0 1 4.568-2h10.121a4.558 4.558 0 0 1 4.4 3.356l3.128 11.4a3.785 3.785 0 0 1-1.122 3.822 3.435 3.435 0 0 0-.27 4.849 1.7 1.7 0 0 0 .132.143l13.582 13.588a4.171 4.171 0 0 0 4.658.858 4.6 4.6 0 0 1 5.129.948l3.478 3.483a2.646 2.646 0 0 1 0 3.742l-.138.127-26.9 22.618a9.308 9.308 0 0 1-5.976 2.176H549a1.392 1.392 0 0 1-1.392-1.382v-.1l1.032-15.663a3.525 3.525 0 0 0-2.059-3.451l-8.967-4.092a12.312 12.312 0 0 0-13.085 1.81l-3.478 3.176a.937.937 0 0 1-1.249 0l-5.669-3.017a5.445 5.445 0 0 0-3.506-.561z" class="cls-4" transform="translate(-305.52 -249.893)"/>
                </g>
            </g>
            <g id="그룹_12" transform="translate(198.275 148.519)">
                <text id="파주" fill="#608333" font-family="NotoSansCJKkr-Medium, Noto Sans CJK KR" font-size="9px" font-weight="500" letter-spacing="-0.033em" transform="translate(12 12)">
                    <tspan x="-12.12" y="0">성남시</tspan><tspan x="-12.12" y="11">분당구</tspan>
                </text>
            </g>
        </g>
        <g id="mark" transform="translate(184 120)">
            <g id="mark1">
                <g id="Icon_42_Pin_42">
                    <path id="guide_box-2" d="M0 0H44V44H0z" class="cls-1"/>
                    <g id="icon" transform="translate(5.999 2)">
                        <path id="Shape" fill="#635447" d="M15.636 0a15.884 15.884 0 0 1 11.255 4.655 15.589 15.589 0 0 1 4.425 11.168q0 10.882-12.359 22.88l-.969.924a3.432 3.432 0 0 1-4.7 0Q0 27.12 0 15.824a15.617 15.617 0 0 1 4.385-11.2A15.822 15.822 0 0 1 15.636 0z"/>
                    </g>
                </g>
                <text id="수원" fill="#fff" font-family="PulmuoneLOHASOTFBold, Pulmuone LOHAS OTF Bold" font-size="9px" transform="translate(22 20)">
                    <tspan x="-10.989" y="0">ORGA</tspan>
                </text>
            </g>
        </g>
    </g>
</svg>
