<svg xmlns="http://www.w3.org/2000/svg" width="14" height="14" viewBox="0 0 14 14">
    <g fill="none" fill-rule="evenodd">
        <g>
            <g>
                <g>
                    <g>
                        <path d="M0 0H14V14H0z" transform="translate(-95 -2886) translate(0 2783) translate(16 102) translate(79 1)"/>
                        <path fill="#FFF" d="M5.65 4.666c.173-.174.443-.193.638-.058l.069.058 1.98 1.98c.174.174.194.443.059.638l-.058.07-1.981 1.98c-.195.196-.512.196-.707 0-.174-.173-.193-.443-.058-.637l.058-.07L7.277 7 5.65 5.373c-.174-.174-.193-.443-.058-.638l.058-.07z" transform="translate(-95 -2886) translate(0 2783) translate(16 102) translate(79 1)"/>
                    </g>
                </g>
            </g>
        </g>
    </g>
</svg>
