<svg xmlns="http://www.w3.org/2000/svg" width="186.394" height="72.35" viewBox="0 0 186.394 72.35">
  <g id="Logo" transform="translate(-388.979 -244.545)">
    <g id="그룹_118" data-name="그룹 118" transform="translate(390.633 292.506)">
      <path id="패스_200" data-name="패스 200" d="M292.941,329.712c-4.376,0-7.383-2.516-7.383-6.351,0-3.852,3.007-6.427,7.383-6.427,4.433,0,7.248,2.575,7.248,6.427C300.189,327.2,297.374,329.712,292.941,329.712Zm5.515,5.718c-2.349,3.142-5.069,4.539-9.529,4.484-2.159-.024-1.944-3.172.055-3.256,3.53-.135,5.479-1.149,7.693-4.538,1.042-1.567,2.957-1.64,3.865.107a7.948,7.948,0,0,0,6.549,4.651,1.628,1.628,0,1,1-.085,3.255A10.835,10.835,0,0,1,298.456,335.431Zm-5.515-15.3c-2.24,0-3.913,1.342-3.913,3.227,0,1.918,1.672,3.2,3.913,3.2s3.807-1.286,3.807-3.2C296.748,321.476,295.183,320.134,292.941,320.134Zm11.6,11.815v-14c0-2.13,3.48-2.108,3.48.114v13.891A1.741,1.741,0,0,1,304.537,331.949Z" transform="translate(-285.558 -315.743)" fill="#3faad7"/>
      <path id="패스_201" data-name="패스 201" d="M325.364,327.427a1.453,1.453,0,1,1,0-2.891H346.7a1.449,1.449,0,1,1,0,2.891Zm10.808-8.117c-.114,0-.193-.022-.277.063-2.653,2.462-4.19,3.717-7.535,4.014a1.5,1.5,0,1,1-.4-2.963c3.075-.561,4.163-1.787,5.75-3.512,1.774-1.914,2.9-2,4.7,0,1.4,1.558,2.1,2.776,5.688,3.4,2.3.4,1.808,3.224-.367,2.983C339.838,322.873,338.25,321.446,336.172,319.31Zm-6.077,20.471c-1.972,0-2.98-.9-2.98-2.683v-1.521c0-1.774,1.008-2.68,2.98-2.68h11.083c.107,0,.225,0,.225-.108v-1.1c0-.1-.118-.1-.282-.1H328.534a1.394,1.394,0,1,1,0-2.759h13.382c1.972,0,2.956.906,2.956,2.68V333c0,1.752-.984,2.652-2.956,2.652h-11.14c-.113,0-.136,0-.136.107V336.9c0,.063,0,.116.023.116h13.145a1.393,1.393,0,1,1,0,2.76Z" transform="translate(-297.919 -315.444)" fill="#3faad7"/>
      <path id="패스_202" data-name="패스 202" d="M367.281,330.426h-1.064c-1.971,0-2.985-.9-2.985-2.675v-2.7c0-1.743,1.014-2.677,2.985-2.677h7.2c.108,0,.108-.108.108-.2v-1.985c0-.054-.108-.054-.221-.054h-8.651a1.417,1.417,0,1,1,0-2.813h9.366c2.023,0,2.979.9,2.979,2.65v2.557c0,1.695-.957,2.681-2.979,2.681H366.9c-.106,0-.141,0-.141.027v2.322c0,.106.034.106.141.106h1.341a64.811,64.811,0,0,0,9.794-.872c2.325,0,2.134,2.731.162,2.838A65.52,65.52,0,0,1,367.281,330.426Zm13.989,9.657H368.8c-1.966,0-2.98-.848-2.98-2.627v-3.129c0-1.783,1.013-2.737,2.98-2.737h12.474c1.973,0,2.951.954,2.951,2.737v3.179C384.222,339.287,383.243,340.083,381.271,340.083Zm-.524-5.494c0-.11-.107-.11-.22-.11H369.478c-.1,0-.136,0-.136.11v2.5c0,.113.034.113.136.113h11.049c.113,0,.22,0,.22-.113Zm0-5.193V318.062a1.738,1.738,0,0,1,3.475,0V329.4A1.738,1.738,0,0,1,380.747,329.4Z" transform="translate(-310.635 -315.746)" fill="#3faad7"/>
    </g>
    <g id="그룹_119" data-name="그룹 119" transform="translate(388.979 245.527)">
      <path id="패스_203" data-name="패스 203" d="M305.9,278.776H290.932a10.278,10.278,0,0,0,1.055,4.6,7.014,7.014,0,0,0,6.458,4.006,9.085,9.085,0,0,0,2.508-.323,8.023,8.023,0,0,0,2.2-1,17.019,17.019,0,0,0,1.968-1.473q.892-.783,2.321-2.129a2.49,2.49,0,0,1,1.68-.5,2.758,2.758,0,0,1,1.907.641,2.3,2.3,0,0,1,.727,1.82,4.972,4.972,0,0,1-.808,2.427,9.68,9.68,0,0,1-2.458,2.665,13.956,13.956,0,0,1-4.116,2.116,17.848,17.848,0,0,1-5.7.84q-7.372,0-11.463-4.2t-4.1-11.411a19.05,19.05,0,0,1,1.009-6.292,13.891,13.891,0,0,1,2.945-4.976,12.712,12.712,0,0,1,4.764-3.181,17.074,17.074,0,0,1,6.276-1.107,14.9,14.9,0,0,1,7.694,1.889,12.472,12.472,0,0,1,4.808,4.894,12.857,12.857,0,0,1,1.6,6.11q0,2.888-1.655,3.741A10.312,10.312,0,0,1,305.9,278.776Zm-14.971-4.339h13.876a9.314,9.314,0,0,0-2.115-5.873,6.347,6.347,0,0,0-4.839-1.948,6.132,6.132,0,0,0-4.693,1.977A9.825,9.825,0,0,0,290.932,274.437Z" transform="translate(-283.112 -250.945)" fill="#3faad7"/>
      <path id="패스_204" data-name="패스 204" d="M349.963,288.143a23.7,23.7,0,0,1-5.368,3.236,14.98,14.98,0,0,1-5.812,1.08,11.013,11.013,0,0,1-5.176-1.163,8.522,8.522,0,0,1-3.432-3.154,8.207,8.207,0,0,1-1.206-4.317,7.724,7.724,0,0,1,1.988-5.354,9.979,9.979,0,0,1,5.464-2.974q.734-.163,3.617-.754c1.927-.394,3.573-.757,4.95-1.08s2.861-.724,4.47-1.195a8,8,0,0,0-1.216-4.438c-.727-.946-2.215-1.415-4.475-1.415a9.261,9.261,0,0,0-4.385.813,7.132,7.132,0,0,0-2.528,2.439,23.718,23.718,0,0,1-1.483,2.142,2.44,2.44,0,0,1-1.862.52,3.277,3.277,0,0,1-2.23-.825,2.707,2.707,0,0,1-.938-2.117,6.47,6.47,0,0,1,1.427-3.926,10.24,10.24,0,0,1,4.455-3.138,20.153,20.153,0,0,1,7.543-1.233,21.5,21.5,0,0,1,7.932,1.187,7.4,7.4,0,0,1,4.082,3.774,16.5,16.5,0,0,1,1.191,6.84c0,1.791-.01,3.317-.01,4.569s-.03,2.643-.045,4.175a15.491,15.491,0,0,0,.711,4.5,14.156,14.156,0,0,1,.716,3.014,2.823,2.823,0,0,1-1.111,2.143,3.7,3.7,0,0,1-2.5.968,3.41,3.41,0,0,1-2.331-1.108A16.452,16.452,0,0,1,349.963,288.143Zm-.5-11.073a38.12,38.12,0,0,1-4.894,1.3c-2.134.459-3.618.791-4.44,1.009a6.088,6.088,0,0,0-2.355,1.261,3.235,3.235,0,0,0-1.121,2.621,3.882,3.882,0,0,0,1.317,2.958,4.857,4.857,0,0,0,3.446,1.221,8.962,8.962,0,0,0,4.193-.994,6.7,6.7,0,0,0,2.82-2.566q1.031-1.736,1.034-5.719Z" transform="translate(-297.948 -250.945)" fill="#3faad7"/>
      <path id="패스_205" data-name="패스 205" d="M375.317,257.072h.843v-4.6c0-1.237.034-2.2.1-2.9a4.406,4.406,0,0,1,.545-1.809,3.46,3.46,0,0,1,1.292-1.277,3.7,3.7,0,0,1,1.882-.49,3.777,3.777,0,0,1,2.633,1.094,3.267,3.267,0,0,1,.994,1.779,16.056,16.056,0,0,1,.212,2.985v5.218h2.8a3.576,3.576,0,0,1,2.483.768,2.543,2.543,0,0,1,.852,1.975,2.21,2.21,0,0,1-1.216,2.16,7.924,7.924,0,0,1-3.491.616h-1.427v14.072a23.517,23.517,0,0,0,.121,2.76,2.84,2.84,0,0,0,.67,1.571,2.312,2.312,0,0,0,1.787.6,14.643,14.643,0,0,0,2.261-.344,2.311,2.311,0,0,1,1.67.747,2.481,2.481,0,0,1,.741,1.837,3.093,3.093,0,0,1-2.013,2.831,10.538,10.538,0,0,1-4.45.848,10.056,10.056,0,0,1-5.444-1.2,5.61,5.61,0,0,1-2.422-3.337,22.627,22.627,0,0,1-.575-5.691V262.592H375.15a3.676,3.676,0,0,1-2.528-.783,2.586,2.586,0,0,1-.863-1.994,2.481,2.481,0,0,1,.908-1.975A3.994,3.994,0,0,1,375.317,257.072Z" transform="translate(-311.792 -245.997)" fill="#3faad7"/>
    </g>
    <g id="그룹_120" data-name="그룹 120" transform="translate(477.942 244.545)">
      <path id="패스_206" data-name="패스 206" d="M440.861,282.479a9.327,9.327,0,0,1-1.544,5.421,9.431,9.431,0,0,1-4.546,3.422,20.433,20.433,0,0,1-7.337,1.163,17.92,17.92,0,0,1-7.058-1.262,10.306,10.306,0,0,1-4.35-3.153,6.367,6.367,0,0,1-1.4-3.8,2.934,2.934,0,0,1,.9-2.156,3.073,3.073,0,0,1,2.271-.9,2.655,2.655,0,0,1,1.847.591,6.552,6.552,0,0,1,1.236,1.655,7.351,7.351,0,0,0,7.286,4.062,6.5,6.5,0,0,0,3.774-1.019,2.892,2.892,0,0,0,1.468-2.341,3.194,3.194,0,0,0-1.529-2.947,18.913,18.913,0,0,0-5.03-1.764,41.2,41.2,0,0,1-6.433-2.058,10.618,10.618,0,0,1-3.972-2.846,6.529,6.529,0,0,1-1.478-4.347,7.638,7.638,0,0,1,1.372-4.342,9.417,9.417,0,0,1,4.047-3.267,15.539,15.539,0,0,1,6.464-1.22,21.3,21.3,0,0,1,5.337.62,13.275,13.275,0,0,1,3.951,1.649,8.176,8.176,0,0,1,2.412,2.3,4.512,4.512,0,0,1,.827,2.467,2.829,2.829,0,0,1-.883,2.155,3.482,3.482,0,0,1-2.508.843,3.061,3.061,0,0,1-2-.671,12.976,12.976,0,0,1-1.892-2.021,7.033,7.033,0,0,0-2.044-1.791,6.457,6.457,0,0,0-3.2-.674,6.261,6.261,0,0,0-3.447.883,2.573,2.573,0,0,0-1.377,2.2,2.382,2.382,0,0,0,1.009,1.976,8.339,8.339,0,0,0,2.72,1.274q1.71.511,4.713,1.236a25.279,25.279,0,0,1,5.812,2.073,9.66,9.66,0,0,1,3.42,2.847A6.32,6.32,0,0,1,440.861,282.479Z" transform="translate(-414.624 -249.988)" fill="#3faad7"/>
      <path id="패스_207" data-name="패스 207" d="M457.041,282.391V249.2a5.172,5.172,0,0,1,1.024-3.476,3.475,3.475,0,0,1,2.76-1.181,3.611,3.611,0,0,1,2.8,1.164A5.007,5.007,0,0,1,464.7,249.2v33.188a4.958,4.958,0,0,1-1.08,3.489,3.63,3.63,0,0,1-2.79,1.163,3.48,3.48,0,0,1-2.734-1.2A5.115,5.115,0,0,1,457.041,282.391Z" transform="translate(-428.347 -244.545)" fill="#3faad7"/>
      <path id="패스_208" data-name="패스 208" d="M479.67,252.53a4.043,4.043,0,0,1-2.74-.984,3.819,3.819,0,0,1,.025-5.45,3.949,3.949,0,0,1,2.715-1.053A4.035,4.035,0,0,1,482.3,246a3.4,3.4,0,0,1,1.145,2.775,3.49,3.49,0,0,1-1.12,2.763A3.89,3.89,0,0,1,479.67,252.53Zm3.779,7.9v22.118a4.967,4.967,0,0,1-1.1,3.475,3.609,3.609,0,0,1-2.769,1.176,3.458,3.458,0,0,1-2.735-1.2,5.062,5.062,0,0,1-1.05-3.447V260.658a4.892,4.892,0,0,1,1.05-3.421,3.523,3.523,0,0,1,2.735-1.15,3.651,3.651,0,0,1,2.769,1.15A4.468,4.468,0,0,1,483.449,260.434Z" transform="translate(-434.416 -244.706)" fill="#3faad7"/>
      <path id="패스_209" data-name="패스 209" d="M519.787,275.217v12.471a5.247,5.247,0,0,1-1.09,3.62,3.733,3.733,0,0,1-2.891,1.2,3.631,3.631,0,0,1-2.821-1.2,5.3,5.3,0,0,1-1.079-3.62V275.5c0-5.23-2.5-7.507-4.749-7.507-2.508,0-5.393,1.6-5.393,8.114v11.585a5.3,5.3,0,0,1-1.081,3.6,3.6,3.6,0,0,1-2.845,1.221,3.671,3.671,0,0,1-2.846-1.221,5.178,5.178,0,0,1-1.1-3.6V273.721c0-8.537,5.429-12.269,12.14-12.269,6.413,0,8.961,3.075,9.864,4.626a12.256,12.256,0,0,1,9.9-4.626c3.719,0,11.913,1.167,11.913,11.3v14.94a5.224,5.224,0,0,1-1.095,3.62,3.727,3.727,0,0,1-2.887,1.2,3.644,3.644,0,0,1-2.84-1.221,5.157,5.157,0,0,1-1.115-3.6V274.824c0-4.619-2.336-6.835-4.914-6.835C522.522,267.989,519.787,269.963,519.787,275.217Z" transform="translate(-440.268 -250.015)" fill="#3faad7"/>
    </g>
  </g>
</svg>
