<svg data-name="Icon/24/BatchDelivery_Line" xmlns="http://www.w3.org/2000/svg" width="24" height="24">
    <path style="fill:none" d="M0 0h24v24H0z"/>
    <g data-name="그룹 62">
        <path data-name="Combined Shape" d="M1379.868 3923.41h-6.547a1.8 1.8 0 0 1-1.794-1.652l-.006-.148v-10.8a1.8 1.8 0 0 1 1.652-1.794l.148-.006h10.8a1.8 1.8 0 0 1 1.794 1.652l.006.148v6.12a4.8 4.8 0 1 1-6.053 6.48zm.772-1.98a3.6 3.6 0 1 0 3.6-3.6 3.6 3.6 0 0 0-3.6 3.6zm-7.911-10.72-.008.1v10.8a.6.6 0 0 0 .5.592l.1.008h6.183a4.8 4.8 0 0 1 3.956-5.516 4.862 4.862 0 0 1 .781-.064 4.765 4.765 0 0 1 .481.024v-5.844a.6.6 0 0 0-.5-.592l-.1-.008h-4.8v2.433a.6.6 0 0 1-1.193.1l-.008-.1v-2.433h-4.8a.6.6 0 0 0-.592.5z" transform="translate(-1368.521 -3905.01)" style="fill:#fff"/>
        <path data-name="패스 73" d="m1382.186 3921.58 1.2 1.2 2.616-2.541" transform="translate(-1368.521 -3905.01)" style="stroke:#fff;stroke-linecap:round;stroke-linejoin:round;stroke-width:1.2px;fill:none"/>
    </g>
</svg>
