<svg xmlns="http://www.w3.org/2000/svg" width="88" height="38" viewBox="0 0 88 38">
    <defs>
        <filter id="prefix__a">
            <feColorMatrix in="SourceGraphic" values="0 0 0 0 0.000000 0 0 0 0 0.000000 0 0 0 0 0.000000 0 0 0 1.000000 0"/>
        </filter>
    </defs>
    <g fill="none" fill-rule="evenodd">
        <g filter="url(#prefix__a)">
            <g fill-rule="nonzero">
                <path fill="#73C82C" d="M28.26 23.563v1.079h-3.567v-1.08h-.979v3.806h5.524v-3.805h-.977zm-3.567 1.92h3.568v1.042h-3.568v-1.043zM31.22 25.296c-.105-.07-.144-.205-.104-.318.006-.017.018-.034.024-.053l1.107-1.692c-.3-.742-.332-1.56-.058-2.295.074-.2.17-.392.289-.576.616-.944 1.697-1.426 2.818-1.371l.033.002.014.03c.401.809.481 1.73.175 2.555-.077.201-.173.393-.295.573-.559.87-1.511 1.34-2.528 1.374l-1.102 1.691c-.07.106-.205.147-.318.105-.02-.008-.037-.014-.056-.025M37.63 23.64c.15.423.064.867-.18 1.203-.154.216-.372.387-.644.481-.42.142-.869.063-1.204-.18-.145-.106-.272-.24-.367-.404l-1.82.627c-.084.026-.177.013-.245-.035v-.002c-.044-.03-.075-.077-.096-.132-.03-.087-.013-.175.038-.244.03-.04.075-.075.129-.095l1.819-.623c-.042-.343.049-.676.241-.947.154-.214.375-.384.644-.477.425-.143.87-.064 1.207.178.218.155.386.377.478.65M22.117 22.388c0 .242-.195.437-.436.437h-7.237v-.854h3.366v-1.256h-2.38v-3.59h.979v2.75h4.907v.403c0 .243-.195.437-.436.437h-2.1v1.256h3.337v.417zM29.298 17.662c0 .242-.195.437-.436.437h-1.876v.348c0 .2 0 .37.189.527.916.583 1.678 1.131 2.572 1.705l-.482.716-2.755-1.902-2.772 1.902-.479-.716c.893-.574 1.657-1.122 2.572-1.705.188-.157.188-.327.188-.527V18.1h-2.302v-.843h5.581v.406zM30.182 22.376c0 .242-.196.437-.437.437h-6.974v-.841h7.41v.404zM21.172 26.928c0 .272-.222.495-.496.495h-.483v-2.748h-4.814v-.841h5.793v3.094z" transform="translate(25 5.25)"/>
                <path fill="#231F20" d="M5.824 6.526h3.078V2.394H5.824v4.132zm6.352 1.777H1.894V6.526H3.72V2.394H1.905V.614h11.29v.863c0 .506-.411.917-.917.917h-1.204v4.132h2.02v.861c0 .505-.412.916-.918.916M11.862 22.886H5.955c-2.322 0-3.499-1.105-3.499-3.284V17.11h7.57v-1.737h-7.57v-1.827h3.798v-1.794H0V9.976h13.5l.002.858c0 .506-.412.918-.918.918H8.33v1.794h3.8v5.374H4.534l-.002.724c0 1.17.31 1.44 1.654 1.44h6.592v.885c0 .505-.411.917-.917.917M37.328 14.664H36.3v-2.103l-3.107-.001v-1.612H36.3V3.054h2.079v10.56c0 .579-.471 1.05-1.05 1.05M30.935 1.9c-1.038 0-1.666.69-1.666 1.624 0 .932.628 1.62 1.666 1.62 1.038 0 1.666-.688 1.666-1.62 0-.934-.628-1.623-1.666-1.623m0 5.144c-2.282 0-3.739-1.54-3.739-3.521C27.196 1.542 28.653 0 30.935 0c2.281 0 3.737 1.542 3.737 3.524 0 1.98-1.456 3.521-3.737 3.521" transform="translate(25 5.25)"/>
                <path fill="#231F20" d="M30.792 12.266h-1.026v-2.57h-3.37V8.027h9.021v.751c0 .506-.411.917-.917.917h-2.657v1.52c0 .58-.472 1.051-1.051 1.051M31.85 13.18l-.003 1.887c0 .663.36.983 1.197.983h5.739v.77c0 .506-.412.918-.917.918H32.66c-2.017 0-2.89-.763-2.89-2.638v-1.92h2.08zM20.17 17.773h-1.026v-6.021H14.57V9.976h11.284v.859c0 .505-.412.917-.917.917H21.22v4.97c0 .58-.471 1.05-1.051 1.05M18.021 6.406h4.166V2.533h-4.166v3.873zm6.271 1.744h-8.376V.785h8.376V8.15z" transform="translate(25 5.25)"/>
            </g>
        </g>
    </g>
</svg>
