<svg xmlns="http://www.w3.org/2000/svg" width="88" height="38" viewBox="0 0 88 38">
    <defs>
        <filter id="prefix__a">
            <feColorMatrix in="SourceGraphic" values="0 0 0 0 0.000000 0 0 0 0 0.000000 0 0 0 0 0.000000 0 0 0 1.000000 0"/>
        </filter>
    </defs>
    <g fill="none" fill-rule="evenodd">
        <g filter="url(#prefix__a)">
            <g fill-rule="nonzero">
                <path fill="#8CD024" d="M18.12 2.712v-.747h.133c.19 0 .318.015.384.045.117.048.175.157.175.322 0 .166-.055.276-.167.328-.071.036-.202.052-.392.052h-.132zm-.779-2.37V3.34h1.194c.336 0 .599-.077.786-.234.202-.167.302-.417.302-.752 0-.347-.09-.603-.268-.769-.179-.164-.444-.25-.792-.25h-.442V.344h-.78zM23.322 3.34h.78V1.656c0-.249-.015-.438-.045-.564-.045-.197-.135-.361-.27-.494-.117-.115-.27-.2-.457-.257-.164-.052-.343-.077-.537-.077-.195 0-.373.024-.533.071-.187.055-.341.143-.46.263-.134.128-.223.291-.266.494-.033.136-.049.325-.049.564V3.34h.78V1.762c0-.325.046-.546.138-.659.085-.103.215-.154.39-.154.172 0 .301.05.385.154.097.116.144.335.144.66V3.34zM26.963 3.34L26.963 1.004 28.187 1.004 28.187.344 26.184.344 26.184 3.34zM29.852.343L30.362 3.34 31.128 3.34 31.738 1.739 32.382 3.34 33.157 3.34 33.609.343 32.829.343 32.612 2.069 31.884.343 31.574.343 30.887 2.069 30.629.343zM37.177 3.34h.777V1.656c0-.249-.015-.438-.043-.564-.045-.197-.135-.361-.27-.494-.116-.115-.27-.2-.457-.257-.164-.052-.342-.077-.537-.077-.197 0-.374.024-.533.071-.188.055-.341.143-.461.263-.133.128-.22.291-.265.494-.033.136-.049.325-.049.564V3.34h.78V1.762c0-.325.046-.546.138-.659.086-.103.215-.154.39-.154.172 0 .3.05.386.154.094.116.144.335.144.66V3.34zM41.486 2.685c-.23 0-.43-.08-.596-.237-.167-.16-.25-.345-.25-.553 0-.259.081-.472.246-.642.164-.17.364-.253.6-.253.237 0 .435.084.6.253.164.17.247.383.247.642 0 .208-.084.393-.25.553-.168.157-.365.237-.597.237m0 .755c.445 0 .83-.143 1.152-.43.337-.299.507-.67.507-1.112 0-.485-.157-.882-.47-1.192-.31-.307-.707-.462-1.19-.462-.48 0-.879.155-1.19.462-.312.31-.467.707-.467 1.192 0 .44.168.81.505 1.108.327.29.71.434 1.153.434M44.979.343L44.979 3.34 45.759 3.34 47.185 1.508 47.194 3.34 47.972 3.34 47.972.343 47.194.343 45.766 2.18 45.759.343zM51.776 2.681L50.85 2.681 50.85 2.18 51.73 2.18 51.73 1.519 50.85 1.519 50.85 1.004 51.776 1.004 51.776.343 50.072.343 50.072 3.34 51.776 3.34zM57.638 3.34L57.638 1.004 58.862 1.004 58.862.344 56.859.344 56.859 3.34zM61.981 2.685c-.23 0-.43-.08-.596-.237-.166-.16-.251-.345-.251-.553 0-.259.083-.472.246-.642.165-.17.365-.253.601-.253.235 0 .435.084.6.253.165.17.247.383.247.642 0 .208-.084.393-.25.553-.167.157-.366.237-.597.237m0 .755c.445 0 .83-.143 1.153-.43.336-.299.505-.67.505-1.112 0-.485-.155-.882-.468-1.192-.31-.307-.708-.462-1.19-.462s-.88.155-1.19.462c-.312.31-.467.707-.467 1.192 0 .44.168.81.505 1.108.326.29.71.434 1.152.434M66.37 2.184L67.494 2.184 67.494 3.34 68.273 3.34 68.273.343 67.494.343 67.494 1.572 66.37 1.572 66.37.343 65.59.343 65.59 3.34 66.37 3.34zM71.998 1.46l-.318.955-.329-.954h.647zm.212-.597h-1.074l-.206-.52h-.828l1.154 2.997h.85L73.233.343h-.83l-.194.52zM77.023 3.173l-.31-.603c-.074.06-.156.108-.244.145-.09.036-.18.052-.273.052-.083 0-.158-.02-.229-.065-.07-.043-.105-.105-.105-.184 0-.078.04-.14.12-.19.047-.03.124-.062.226-.096l.199-.06c.236-.069.41-.159.524-.27.144-.138.216-.321.216-.548 0-.168-.022-.313-.064-.439-.051-.15-.132-.274-.245-.37-.113-.094-.243-.165-.392-.211-.149-.046-.3-.07-.46-.07-.19 0-.375.028-.55.085-.174.058-.341.143-.505.258l.335.627c.108-.095.215-.169.318-.217.124-.064.25-.092.373-.092.103 0 .19.024.26.071.078.056.117.131.117.23 0 .096-.055.173-.17.234-.055.03-.156.065-.302.108-.29.082-.488.167-.587.254-.15.127-.224.325-.224.593 0 .302.097.545.289.73.191.182.44.275.745.275.155 0 .316-.021.48-.064.165-.042.318-.103.458-.183" transform="matrix(1 0 0 -1 5.333 31)"/>
                <path fill="#18551A" d="M49.968 22.605V17.87l-6.918-.001L43.046 16c0-.594.237-.917.786-.917h6.643l.002-.415c-.002-.444-.359-.517-.803-.517h-5.223c-2.098 0-2.49.298-2.49 2.206l-.002 2.45h6.891v2.84H41.96v.958h8.01zM40.508 9.513v.882h11.573V9.96c0-.444-.359-.447-.803-.447h-10.77z" transform="matrix(1 0 0 -1 5.333 31)"/>
                <path fill="#18551A" d="M45.665 13.113L45.665 10.085 46.248 9.681 46.684 9.679 46.682 13.113zM71.613 18.386s-1.208-3.206-4.553-5.119l-.567.822c1.928 1.156 4.49 3.8 4.49 6.301v1.646h.708" transform="matrix(1 0 0 -1 5.333 31)"/>
                <path fill="#18551A" d="M71.613 18.386s1.184-3.206 4.552-5.119l.568.822c-1.864 1.085-4.489 3.8-4.489 6.301v1.646h-.71M65.826 9.513v.882H77.4V9.96c0-.444-.36-.447-.803-.447h-10.77zM62.5 23.302l1.164-.002V10.55c0-.517-.063-.937-.582-.937h-.58l-.001 13.689zM56.62 12.89c-1.29 0-2.342 1.043-2.342 2.33 0 1.29 1.051 2.333 2.343 2.333 1.287 0 2.337-1.043 2.337-2.334 0-1.286-1.05-2.33-2.337-2.33m0 5.619c-1.916 0-3.465-1.472-3.465-3.288 0-1.813 1.55-3.283 3.465-3.283 1.91 0 3.46 1.47 3.462 3.283 0 1.816-1.552 3.288-3.462 3.288M52.232 19.941v.882h9.171v-.435c0-.445-.36-.447-.805-.447h-8.366z" transform="matrix(1 0 0 -1 5.333 31)"/>
                <path fill="#18551A" d="M56.183 23.719L56.183 20.381 56.837 20.159 57.274 20.158 57.273 23.719zM63.357 17.374v.882h3.278v-.434c0-.444-.358-.448-.802-.448h-2.476zM6.028 17.124h3.08v4.134h-3.08v-4.134zm6.356-1.778H2.096v1.778h1.826v4.134H2.107v1.781h11.297v-.863c0-.506-.412-.918-.918-.918h-1.204v-4.134h2.02v-.862c0-.505-.411-.916-.918-.916M12.07.753H6.16C3.835.753 2.657 1.86 2.657 4.04v2.493h7.574v1.739H2.658v1.827h3.8v1.796H.202v1.777h13.508l.002-.859c0-.506-.413-.918-.919-.918H8.537v-1.796h3.801V4.721h-7.6l-.001-.724c0-1.17.309-1.44 1.655-1.44h6.596v-.885c0-.507-.412-.919-.918-.919M37.552 8.98h-1.028v2.105l-3.11.001V12.7h3.11v7.899h2.08V10.032c0-.58-.472-1.052-1.052-1.052M31.155 21.752c-1.038 0-1.667-.69-1.667-1.624 0-.933.629-1.622 1.667-1.622s1.667.69 1.667 1.622c0 .934-.629 1.624-1.667 1.624m0-5.148c-2.284 0-3.741 1.542-3.741 3.524 0 1.983 1.457 3.526 3.74 3.526 2.284 0 3.74-1.543 3.74-3.526 0-1.982-1.456-3.524-3.74-3.524" transform="matrix(1 0 0 -1 5.333 31)"/>
                <path fill="#18551A" d="M31.012 11.38h-1.027v2.572h-3.371v1.67h9.026v-.752c0-.506-.412-.918-.918-.918h-2.659v-1.52c0-.58-.472-1.052-1.051-1.052M32.07 10.465l-.003-1.888c0-.663.36-.983 1.198-.983h5.742v-.77c0-.507-.411-.919-.917-.919h-5.21c-2.018 0-2.891.763-2.891 2.639v1.921h2.08zM20.383 5.87h-1.026v6.025h-4.578v1.777H26.07v-.86c0-.505-.411-.917-.917-.917h-3.718V6.922c0-.58-.472-1.052-1.052-1.052M18.233 17.244h4.169v3.875h-4.17v-3.875zm6.275-1.745h-8.381v7.37h8.38v-7.37z" transform="matrix(1 0 0 -1 5.333 31)"/>
            </g>
        </g>
    </g>
</svg>
