<svg xmlns="http://www.w3.org/2000/svg" width="24" height="24" viewBox="0 0 24 24">
    <g fill="none" fill-rule="evenodd">
        <path d="M0 0H24V24H0z"/>
        <path fill="#FFF" d="M16.748 4.7c.668 0 1.256.442 1.44 1.084l1.057 3.663c.17.585.255 1.192.255 1.801v7.202c0 .828-.672 1.5-1.5 1.5H6.006c-.829 0-1.5-.672-1.5-1.501l.04-7.248c.003-.578.083-1.153.238-1.71l1.03-3.694C5.995 5.15 6.586 4.7 7.26 4.7zm1.725 6H5.572c-.017.168-.026.337-.026.507l-.04 7.239c0 .28.223.504.5.504H18c.276 0 .5-.224.5-.5v-7.202c0-.183-.01-.367-.027-.549zm-8.218 1.898l3.5.018c.276.001.499.226.498.503-.002.276-.227.498-.503.497l-3.5-.018c-.276-.002-.499-.227-.497-.503.001-.276.226-.499.502-.497zM11.5 5.7H7.26c-.225 0-.422.15-.482.366L5.765 9.699H11.5V5.7zm5.248 0H12.5v3.999h5.777l-1.049-3.638c-.054-.187-.21-.323-.398-.354l-.082-.007z"/>
    </g>
</svg>
