<svg xmlns="http://www.w3.org/2000/svg" width="16" height="16" viewBox="0 0 16 16">
    <g fill="none" fill-rule="evenodd">
        <g>
            <g>
                <g>
                    <g>
                        <g>
                            <g>
                                <g>
                                    <g>
                                        <path fill="#C2C2C2" d="M12.077 4.574c.235-.233.615-.232.849.003.207.209.23.532.067.766l-.07.083-6.038 6c-.208.206-.53.23-.762.069l-.083-.069-2.962-2.934c-.236-.233-.237-.613-.004-.849.207-.209.53-.234.765-.073l.083.07 2.539 2.514 5.616-5.58z" transform="translate(-97 -819) translate(0 89) translate(16 510) translate(0 68) translate(0 112) translate(0 28) translate(67) translate(14 12)"/>
                                    </g>
                                </g>
                            </g>
                        </g>
                    </g>
                </g>
            </g>
        </g>
    </g>
</svg>
