<svg xmlns="http://www.w3.org/2000/svg" width="24" height="24" viewBox="0 0 24 24">
    <g fill="none" fill-rule="evenodd">
        <path d="M0 0H24V24H0z"/>
        <path d="M0 0H24V24H0z"/>
        <path fill="#333" d="M16.2 4.14c.944 0 1.719.727 1.794 1.652L18 5.94v6.122c1.822.681 3.12 2.438 3.12 4.498 0 2.651-2.149 4.8-4.8 4.8-1.945 0-3.62-1.157-4.374-2.82H5.4c-.944 0-1.719-.727-1.794-1.652L3.6 16.74V5.94c0-.944.727-1.719 1.652-1.794L5.4 4.14h10.8zm.12 8.82c-1.988 0-3.6 1.612-3.6 3.6s1.612 3.6 3.6 3.6 3.6-1.612 3.6-3.6-1.612-3.6-3.6-3.6zm-.12-7.62l-4.801-.001.001 2.434c0 .331-.269.6-.6.6-.298 0-.546-.218-.592-.503l-.008-.097-.001-2.434L5.4 5.34c-.298 0-.546.218-.592.503L4.8 5.94v10.8c0 .298.218.546.503.592l.097.008h6.183c-.041-.254-.063-.515-.063-.78 0-2.651 2.149-4.8 4.8-4.8.162 0 .322.008.48.024V5.94c0-.298-.218-.546-.503-.592L16.2 5.34zm.12 8.542c.298 0 .546.218.592.503l.008.097-.001 1.477 1.174.001c.298 0 .546.218.592.503l.008.097c0 .298-.217.546-.503.592l-.097.008H16.32c-.298 0-.546-.218-.592-.503l-.008-.097v-2.078c0-.331.269-.6.6-.6z"/>
    </g>
</svg>
