<svg xmlns="http://www.w3.org/2000/svg" width="48" height="48" viewBox="0 0 48 48">
    <g fill="none" fill-rule="evenodd" opacity=".72">
        <path d="M0 0H48V48H0z"/>
        <path fill="#FFF" d="M22.645 10.945c1.262-.461 2.647-.461 3.91 0l12.076 4.41c.475.173.667.653.564 1.068l-.727 10.161 3.695-1.608c.455-.198.986.01 1.184.466.182.418.022.898-.357 1.128l-.109.056-4.558 1.985-.208 2.911 8.605-4.008c.45-.21.986-.015 1.196.435.193.413.046.897-.327 1.137l-.107.06-11.002 5.127-.065.037-.213.108-7.323 3.393-1.845.86-.06.023-.246.108c-1.369.555-2.9.557-4.27.007l-.27-.118-9.22-4.273c-1.016-.471-1.72-1.423-1.878-2.522l-.025-.237-1.1-15.389h.015c-.027-.374.17-.763.59-.915zm-10.78 6.65l.995 13.936c.035.483.3.917.707 1.168l.158.086 9.22 4.273c.966.448 2.07.48 3.055.096l.225-.096 1.688-.783 7.715-3.591c.342-.221.58-.573.659-.975l.023-.178.15-2.109-.376.164c-.456.199-.986-.01-1.184-.465-.182-.418-.022-.899.357-1.129l.109-.056 1.238-.54.7-9.789-10.483 4.435c-1.331.563-2.823.599-4.174.106l-.268-.106-10.515-4.448zm14.073-4.96c-.864-.315-1.812-.315-2.676 0l-9.928 3.625 9.746 4.125c.897.379 1.9.408 2.813.087l.226-.087 9.747-4.125z"/>
    </g>
</svg>
