<svg xmlns="http://www.w3.org/2000/svg" width="20" height="20" viewBox="0 0 20 20">
    <g fill="none" fill-rule="evenodd">
        <path d="M0 0H20V20H0z"/>
        <path fill="#333" d="M3.99 4.25c-.775 0-1.411.608-1.483 1.385l-.007.148v8.019c0 .25.176.46.407.502l.09.009h1.69c.238.83.984 1.437 1.869 1.437.888 0 1.637-.612 1.872-1.448h3.316c.235.836.984 1.448 1.873 1.448.884 0 1.63-.607 1.868-1.438h1.519c.243 0 .446-.18.488-.418l.008-.092V9.815c0-.085-.02-.167-.059-.241l-.044-.07-2.623-3.302c-.076-.1-.184-.168-.303-.191l-.09-.009h-2.819V4.76c0-.25-.176-.46-.407-.503l-.09-.008H3.99zm9.627 8.512c.527 0 .955.44.955.983 0 .543-.428.983-.955.983-.528 0-.956-.44-.956-.983 0-.543.428-.983.956-.983zm-7.061 0c.527 0 .955.44.955.983 0 .543-.428.983-.955.983-.528 0-.955-.44-.955-.983 0-.543.427-.983.955-.983zm4.013-7.491v3.193c0 .283.222.511.497.511.243 0 .446-.18.488-.419l.008-.092v-1.44h2.574l2.371 2.964v3.303h-.993c-.2-.889-.974-1.55-1.897-1.55-.92 0-1.692.656-1.896 1.538h-3.27c-.204-.882-.975-1.538-1.895-1.538-.924 0-1.698.661-1.898 1.55H3.494l-.001-7.508c0-.251.175-.46.407-.503l.09-.008 6.58-.001z"/>
    </g>
</svg>
