<svg xmlns="http://www.w3.org/2000/svg" width="24" height="24" viewBox="0 0 24 24">
    <g fill="none" fill-rule="evenodd">
        <path fill="#80C342" d="M18.4 17.8c.331 0 .6.269.6.6 0 .298-.218.546-.502.592L18.4 19H5.6c-.331 0-.6-.269-.6-.6 0-.298.218-.546.502-.592L5.6 17.8h12.8zM12 5c.298 0 .546.186.592.43l.008.082-.001 8.523 2.905-2.866c.203-.201.518-.223.745-.065l.081.067c.202.202.224.515.066.74l-.068.08-3.89 3.84c-.201.2-.513.222-.74.069l-.08-.066-3.943-3.84c-.23-.224-.234-.592-.008-.82.201-.203.515-.229.745-.074l.081.066 2.906 2.83.001-8.484c0-.283.269-.512.6-.512z"/>
    </g>
</svg>
