<svg xmlns="http://www.w3.org/2000/svg" xmlns:xlink="http://www.w3.org/1999/xlink" width="48" height="48" viewBox="0 0 48 48">
    <defs>
        <path id="prefix__a" d="M24.5 7.25c7.437 0 14.25 8.698 14.25 19.301 0 9.695-6.647 15.199-14.25 15.199-7.331 0-14.25-5.916-14.25-15.199 0-10.205 6.968-19.301 14.25-19.301zm0 1.5c-6.353 0-12.75 8.35-12.75 17.801 0 8.398 6.2 13.699 12.75 13.699 6.83 0 12.75-4.901 12.75-13.699 0-9.843-6.233-17.801-12.75-17.801zm8.5 19.5c.414 0 .75.336.75.75 0 4.28-3.47 7.75-7.75 7.75-.414 0-.75-.336-.75-.75s.336-.75.75-.75c3.452 0 6.25-2.798 6.25-6.25 0-.414.336-.75.75-.75z"/>
    </defs>
    <g fill="none" fill-rule="evenodd">
        <path d="M0 0H48V48H0z"/>
        <use fill="#ADADAD" xlink:href="#prefix__a"/>
    </g>
</svg>
