<svg xmlns="http://www.w3.org/2000/svg" width="20" height="20" viewBox="0 0 20 20">
    <g fill="none" fill-rule="evenodd">
        <path fill="#F4FCE2" d="M7.692 0h4.616c2.675 0 3.645.278 4.623.801.977.523 1.745 1.29 2.268 2.268.523.978.801 1.948.801 4.623v4.616c0 2.675-.278 3.645-.801 4.623-.523.977-1.29 1.745-2.268 2.268-.978.523-1.948.801-4.623.801H7.692c-2.675 0-3.645-.278-4.623-.801-.977-.523-1.745-1.29-2.268-2.268C.278 15.953 0 14.983 0 12.308V7.692c0-2.675.278-3.645.801-4.623.523-.977 1.29-1.745 2.268-2.268C4.047.278 5.017 0 7.692 0z"/>
        <g>
            <path fill="#80C342" d="M12.242 4.646c.196-.195.512-.194.707.001.173.174.192.444.056.638l-.058.07-5.972 5.943c-.174.173-.443.191-.638.056l-.07-.058-2.622-2.638c-.194-.196-.193-.513.002-.707.175-.174.444-.192.639-.056l.069.058 2.269 2.282 5.618-5.59z" transform="translate(2 2)"/>
        </g>
    </g>
</svg>
