<svg xmlns="http://www.w3.org/2000/svg" width="20" height="20" viewBox="0 0 20 20">
    <g fill="none" fill-rule="evenodd">
        <path d="M0 0H20V20H0z"/>
        <path stroke="#333" d="M6.771 4.5c.977 0 1.904.478 2.792 1.362h0l.43.433.455-.445c.861-.827 1.744-1.294 2.66-1.345 1.204.03 1.985.385 2.532 1.007.551.627.86 1.513.86 2.578 0 1.616-.953 3.407-2.21 4.825-1.305 1.473-2.957 2.585-4.297 2.585-1.348 0-3.01-1.117-4.314-2.594C4.426 11.488 3.48 9.7 3.5 8.09c.013-1.092.345-1.995.925-2.624.577-.624 1.395-.967 2.346-.967z"/>
    </g>
</svg>
