<svg xmlns="http://www.w3.org/2000/svg" width="19" height="19">
    <defs>
        <style>
            .cls-2{fill:none;stroke:#adadad;stroke-linecap:round;stroke-linejoin:round}
        </style>
    </defs>
    <g id="Icon_26_kcal" data-name="Icon/26/kcal" transform="translate(-4 -4)">
        <g id="icon_kcal" data-name="icon/kcal" transform="translate(7.015 6.517)">
            <path id="패스_74" data-name="패스 74" class="cls-2" d="m-163.2 7781.784.993-1.241a.766.766 0 0 1 .6-.287h2.932a.766.766 0 0 1 .6.287l.992 1.241h0v.764a.764.764 0 0 1-.764.764h-4.583a.764.764 0 0 1-.764-.764v-.764z" transform="translate(166.258 -7780.255)"/>
            <path id="패스_75" data-name="패스 75" class="cls-2" d="m-162.166 7787.588-1.273 1.273-.764-.764" transform="translate(166.494 -7781.987)"/>
            <path id="패스_76" data-name="패스 76" class="cls-2" d="M-158.2 7788.256h2.291" transform="translate(165.077 -7782.146)"/>
            <path id="패스_77" data-name="패스 77" class="cls-2" d="M-163.384 7794.477h-2.291a1.528 1.528 0 0 1-1.528-1.527v-9.165a1.527 1.527 0 0 1 1.528-1.528h1.528" transform="translate(167.203 -7780.729)"/>
            <path id="패스_78" data-name="패스 78" class="cls-2" d="M-155.2 7782.256h1.528a1.527 1.527 0 0 1 1.528 1.528v1.527" transform="translate(164.369 -7780.729)"/>
            <path id="패스_79" data-name="패스 79" class="cls-2" d="M-153.217 7792.675h-.891v-.892a1.527 1.527 0 0 1 1.528-1.527h.891v.891a1.528 1.528 0 0 1-1.528 1.528z" transform="translate(164.11 -7782.619)"/>
            <path id="패스_80" data-name="패스 80" class="cls-2" d="M-155.149 7799.334a3.02 3.02 0 0 1-3.056-2.983" transform="translate(165.078 -7784.057)"/>
            <path id="패스_81" data-name="패스 81" class="cls-2" d="M-158.205 7795.659c0-1.3.611-2.237 1.834-2.237" transform="translate(165.078 -7783.366)"/>
            <path id="패스_82" data-name="패스 82" class="cls-2" d="M-154.2 7799.334a3.02 3.02 0 0 0 3.056-2.983" transform="translate(164.133 -7784.057)"/>
            <path id="패스_83" data-name="패스 83" class="cls-2" d="M-150.77 7795.659c0-1.3-.611-2.237-1.834-2.237" transform="translate(163.755 -7783.366)"/>
            <path id="패스_84" data-name="패스 84" class="cls-2" d="M-153.36 7793.423a9.107 9.107 0 0 0-1.222.191 9.106 9.106 0 0 0-1.222-.191" transform="translate(164.511 -7783.366)"/>
            <path id="선_23" data-name="선 23" class="cls-2" transform="translate(2.985 9.483)" d="M0 0h1"/>
        </g>
    </g>
</svg>
