<svg xmlns="http://www.w3.org/2000/svg" width="16" height="16" viewBox="0 0 16 16">
    <g fill="none" fill-rule="evenodd">
        <g>
            <g>
                <g>
                    <g>
                        <g>
                            <g>
                                <g>
                                    <g>
                                        <path fill="#000" d="M6.176 4.176c.208-.209.531-.232.765-.07l.083.07 3.5 3.5c.209.208.232.531.07.765l-.07.083-3.5 3.5c-.234.235-.614.235-.848 0-.209-.208-.232-.531-.07-.765l.07-.083L9.25 8.1 6.176 5.024c-.209-.208-.232-.531-.07-.765l.07-.083z" transform="translate(-357 -2778) translate(120 2334) translate(0 137) translate(0 12) translate(16 283) translate(170 4) translate(12 8) translate(39)"/>
                                    </g>
                                </g>
                            </g>
                        </g>
                    </g>
                </g>
            </g>
        </g>
    </g>
</svg>
