<svg xmlns="http://www.w3.org/2000/svg" width="40" height="40">
    <defs>
        <style>
            .cls-2{fill:none;stroke:#333;stroke-linecap:round;stroke-miterlimit:10;stroke-width:1.2px}
        </style>
    </defs>
    <g id="icon-40-clam" transform="translate(10.99)">
        <g id="그룹_70" data-name="그룹 70" transform="translate(-1.99 8.733)">
            <path id="패스_103" data-name="패스 103" class="cls-2" d="m411.254 84.174-5.019-5.679a6.181 6.181 0 0 1 0-8.74l2.824-2.824a9.285 9.285 0 0 1 13.131 0l2.824 2.824a6.18 6.18 0 0 1 0 8.74l-5.02 5.679a6.181 6.181 0 0 1-8.74 0z" transform="translate(-404.425 -64.211)"/>
            <path id="선_24" data-name="선 24" class="cls-2" transform="translate(11.2)" d="M0 11.85V0"/>
            <path id="선_25" data-name="선 25" class="cls-2" transform="translate(15.289 4.26)" d="M0 7.805 3.981 0"/>
            <path id="선_26" data-name="선 26" class="cls-2" transform="translate(3.52 4.045)" d="M3.981 7.805 0 0"/>
        </g>
    </g>
</svg>
