<svg xmlns="http://www.w3.org/2000/svg" width="32" height="32" viewBox="0 0 32 32">
    <g fill="none" fill-rule="evenodd">
        <g>
            <g>
                <g>
                    <g>
                        <g>
                            <g>
                                <g>
                                    <path d="M0 0H32V32H0z" transform="translate(-204 -654) translate(0 89) translate(0 491) translate(20 52) translate(160) translate(12 10) translate(12 12)"/>
                                    <path fill="#FFF" d="M21.795 3.522h-5.076c-1.716 0-4.062 1.108-4.062 4.17v3.944H9.982V16h2.675v12.314h4.978V15.918h3.741l.419-4.282h-4.16V9.348c0-.673.381-1.398 1.433-1.398h2.727V3.522z" transform="translate(-204 -654) translate(0 89) translate(0 491) translate(20 52) translate(160) translate(12 10) translate(12 12)"/>
                                </g>
                            </g>
                        </g>
                    </g>
                </g>
            </g>
        </g>
    </g>
</svg>
