<svg id="icon-40-pig" xmlns="http://www.w3.org/2000/svg" width="40" height="40">
    <defs>
        <style>
            .cls-2{fill:none;stroke-linecap:round;stroke-miterlimit:10}.cls-6,.cls-7{stroke:none}.cls-7{fill:#333}
        </style>
    </defs>
    <g id="Group_11" data-name="Group 11" transform="translate(5.066 9.76)">
        <g id="Path_3" data-name="Path 3">
            <g id="패스_105" data-name="패스 105" class="cls-2">
                <path class="cls-6" d="M134.315 138.981a.824.824 0 0 0-.508 1.409l1.4 1.394s-.694 3.129-2.438 3.536l-.045.008a.822.822 0 0 0-.665.806v1.266s1.75 2.976 7.282 2.166v2.774a.823.823 0 0 0 .823.825.838.838 0 0 0 .33-.068l1.541-.671 1.43-2.609a.825.825 0 0 1 .723-.428h5.572a1.649 1.649 0 0 1 1.649 1.649v.568a.82.82 0 0 0 1.444.534l6.076-7.086c1.044-6.262-1-12.041-8.832-12.041-5.747 0-8.519 2.135-11.918 5.619z" transform="translate(-132.053 -133.012)"/>
                <path class="cls-7" d="M150.097 134.212c-2.52 0-4.516.433-6.28 1.364-1.68.887-3.125 2.198-4.78 3.893l-.309.317-3.508.318 1.3 1.296-.142.645c-.085.383-.877 3.67-3.12 4.384v.566c.424.47 1.655 1.51 4.255 1.51.521 0 1.078-.043 1.653-.127l1.374-.201v3.59l.64-.279 1.232-2.248a2.024 2.024 0 0 1 1.776-1.052h5.572a2.854 2.854 0 0 1 2.818 2.428l5.219-6.086c.505-3.391-.033-6.216-1.526-7.978-1.315-1.553-3.392-2.34-6.174-2.34m0-1.2c7.83 0 9.876 5.78 8.832 12.041l-6.076 7.086a.82.82 0 0 1-1.444-.534v-.568c0-.911-.738-1.65-1.65-1.65h-5.571a.825.825 0 0 0-.724.429l-1.43 2.609-1.54.67a.823.823 0 0 1-1.154-.757v-2.773c-5.532.81-7.282-2.166-7.282-2.166v-1.264c0-.393.28-.732.665-.807l.045-.008c1.744-.407 2.438-3.535 2.438-3.535l-1.399-1.395a.825.825 0 0 1 .508-1.41l3.864-.35c3.4-3.483 6.171-5.618 11.918-5.618z" transform="translate(-132.053 -133.012)"/>
            </g>
            <g id="패스_106" data-name="패스 106" class="cls-2">
                <path class="cls-6" d="M150.1 133.012c7.831 0 9.877 5.779 8.829 12.042l-6.076 7.087a.821.821 0 0 1-1.443-.535v-.567a1.649 1.649 0 0 0-1.649-1.649h-5.572a.825.825 0 0 0-.723.428l-1.43 2.607-1.541.671a.825.825 0 0 1-1.154-.757v-2.773c-5.533.809-7.281-2.167-7.281-2.167s-.007-.557 0-.848v-.414a.821.821 0 0 1 .665-.806l.047-.009c1.745-.407 2.438-3.54 2.438-3.54l-1.4-1.393a.824.824 0 0 1 .507-1.406l3.865-.351c3.396-3.485 6.167-5.62 11.918-5.62z" transform="translate(-132.052 -133.012)"/>
                <path class="cls-7" d="M150.096 134.212c-2.52 0-4.516.433-6.279 1.364-1.68.887-3.126 2.197-4.78 3.893l-.309.317-3.505.318 1.297 1.29-.142.645c-.085.384-.876 3.68-3.124 4.391l-.001.132v.43c.42.467 1.65 1.513 4.257 1.513.522 0 1.079-.042 1.654-.127l1.374-.2v3.589l.64-.279 1.232-2.247a2.024 2.024 0 0 1 1.776-1.052h5.572a2.854 2.854 0 0 1 2.818 2.428l5.218-6.086c.506-3.391-.03-6.216-1.524-7.979-1.314-1.553-3.391-2.34-6.174-2.34m0-1.2c7.831 0 9.877 5.78 8.83 12.042l-6.076 7.087c-.496.578-1.443.227-1.443-.535v-.567c0-.911-.738-1.65-1.65-1.65h-5.571a.825.825 0 0 0-.724.429l-1.43 2.607-1.54.67a.825.825 0 0 1-1.154-.756v-2.773c-5.533.81-7.281-2.167-7.281-2.167s-.007-.558-.004-.849l.004-.414a.82.82 0 0 1 .664-.807l.047-.009c1.745-.407 2.438-3.54 2.438-3.54l-1.4-1.393a.824.824 0 0 1 .508-1.405l3.865-.351c3.399-3.484 6.17-5.619 11.917-5.619z" transform="translate(-132.052 -133.012)"/>
            </g>
        </g>
        <path id="Path_9" data-name="Path 9" d="M159.4 137.1s.373-2.621 2.553-2.484c2.389.18 2.389 3.726 0 3.726" transform="translate(-133.875 -133.119)" style="stroke:#333;stroke-width:1.2px;stroke-miterlimit:10;fill:none;stroke-linecap:round"/>
        <path id="Path_2" data-name="Path 2" d="M150.7 144.455s-1.422 3.335 1.394 5.321" transform="translate(-133.271 -133.775)" style="stroke-linejoin:round;stroke:#333;stroke-width:1.2px;fill:none;stroke-linecap:round"/>
        <circle id="Oval" cx=".694" cy=".694" r=".694" transform="translate(5.398 10.36)" style="fill:#333"/>
    </g>
</svg>
