<svg xmlns="http://www.w3.org/2000/svg" xmlns:xlink="http://www.w3.org/1999/xlink" width="56" height="56" viewBox="0 0 56 56">
  <defs>
    <clipPath id="clip-path">
      <circle id="Oval" cx="28" cy="28" r="28" transform="translate(0 0.5)" fill="#fff"/>
    </clipPath>
  </defs>
  <g id="구글로그인_SVG" transform="translate(0 -0.5)">
    <circle id="Oval-2" data-name="Oval" cx="28" cy="28" r="28" transform="translate(0 0.5)" fill="#fff"/>
    <g id="Group_12" data-name="Group 12" clip-path="url(#clip-path)">
      <g id="Icon_40_Google_Filled_40" data-name="Icon/40/Google_Filled_40" transform="translate(12 12.5)">
        <g id="Icon_40_Facebook_Filled_40" data-name="Icon/40/Facebook_Filled_40" transform="translate(0 -0.5)">
          <rect id="Rectangle" width="32" height="32" transform="translate(0 0.5)" fill="none"/>
          <g id="그룹_53" data-name="그룹 53" transform="translate(-99.639 -219.445)">
            <path id="패스_126" data-name="패스 126" d="M135.75,494.056a6.658,6.658,0,0,1-1.948,2.018,8.586,8.586,0,0,1-4.838,1.364c-.02,0-.038,0-.057,0a8.361,8.361,0,0,1-6.6-3.377h-6.626c.159.4.323.808.516,1.193a14.335,14.335,0,0,0,4.83,5.438,14.185,14.185,0,0,0,7.88,2.428c.019,0,.038,0,.057,0a13.638,13.638,0,0,0,9.455-3.461,12.876,12.876,0,0,0,3.512-5.6Z" transform="translate(-13.039 -253.603)" fill="#32a753"/>
            <path id="패스_127" data-name="패스 127" d="M315.094,384.582H301.639v5.526h7.688a6.579,6.579,0,0,1-.9,2.294h6.181a15.977,15.977,0,0,0,.748-4.9A16.412,16.412,0,0,0,315.094,384.582Z" transform="translate(-185.714 -151.949)" fill="#3e82f1"/>
            <path id="패스_128" data-name="패스 128" d="M107.988,340.393c-.016-.047-.041-.089-.057-.136a8.444,8.444,0,0,1,0-5.429L104.7,332.32l-1.539-1.193c-.193.386-.357.788-.516,1.193a14.1,14.1,0,0,0,0,10.444h6.626A8.731,8.731,0,0,1,107.988,340.393Z" transform="translate(0 -102.312)" fill="#f9bb00"/>
            <path id="패스_129" data-name="패스 129" d="M135.678,220.945c-.019,0-.038,0-.057,0a14.279,14.279,0,0,0-12.709,7.866l1.539,1.193,3.234,2.508c.016-.047.041-.089.057-.136a8.728,8.728,0,0,1,1.28-2.372,8.361,8.361,0,0,1,6.6-3.377c.019,0,.038,0,.057,0a7.717,7.717,0,0,1,5.461,2.136l4.066-4.066.031-.031A13.73,13.73,0,0,0,135.678,220.945Z" transform="translate(-19.753)" fill="#e74235"/>
          </g>
        </g>
      </g>
    </g>
  </g>
</svg>
