<svg xmlns="http://www.w3.org/2000/svg" width="40" height="40">
    <defs>
        <style>
            .cls-2,.cls-3{fill:none;stroke:#333;stroke-linejoin:round;stroke-width:1.2px}.cls-3{stroke-linecap:round}
        </style>
    </defs>
    <g id="icon-40-Pine_nut" data-name="icon-40-Pine nut" transform="translate(-.01)">
        <g id="그룹_78" data-name="그룹 78" transform="translate(10.409 11.2)">
            <path id="Oval-3" class="cls-2" d="M279.924 71.027c1.68-.862 4.364-1.717 5.46.181 1.287 2.23-.674 4.306-2.4 5.535-1.36.967-5.046 3.433-6.657 1.781-.522-.534-.792-.6-.866-1.4-.232-2.5 1.873-4.572 3.836-5.748.184-.112.396-.23.627-.349z" transform="translate(-267.382 -70.068)"/>
            <path id="Oval-3-2" data-name="Oval-3" class="cls-2" d="M287.546 88.894c-.747 2.021-3.113 1.89-4.838 1.443-1.859-.481-6.552-2.037-4.26-4.744 1.136-1.343 3.371-1.385 4.92-.89 1.386.444 4.889 2.267 4.178 4.191z" transform="translate(-267.859 -72.937)"/>
            <path id="Oval-3-3" data-name="Oval-3" class="cls-2" d="M265.753 83.471c-.564-1.744-.768-3.852 1.238-4.39 2.084-.56 3.357 1.47 3.989 3.137.5 1.322 1.713 4.913.014 5.87-2.139 1.2-3.834-1.381-4.6-3.022a13.9 13.9 0 0 1-.641-1.595z" transform="translate(-265.367 -71.851)"/>
            <path id="패스_126" data-name="패스 126" class="cls-3" d="M279.874 77.76s3.35-1.529 4.42-3.1" transform="translate(-268.268 -70.987)"/>
            <path id="패스_127" data-name="패스 127" class="cls-3" d="M280.255 88.287s2.9 1.526 4.517 1.446" transform="translate(-268.344 -73.711)"/>
            <path id="패스_128" data-name="패스 128" class="cls-3" d="M267.042 83.025s.982 3.129 2.185 4.21" transform="translate(-265.702 -72.659)"/>
        </g>
    </g>
</svg>
