<svg xmlns="http://www.w3.org/2000/svg" width="40" height="40" viewBox="0 0 40 40">
    <defs>
        <filter id="h4zx5nqwra">
            <feColorMatrix in="SourceGraphic" values="0 0 0 0 0.250980 0 0 0 0 0.113725 0 0 0 0 0.113725 0 0 0 1.000000 0"/>
        </filter>
    </defs>
    <g fill="none" fill-rule="evenodd" filter="url(#h4zx5nqwra)" transform="translate(-12 -12)">
        <g>
            <path d="M0 0H40V40H0z" transform="translate(12 12)"/>
            <path fill="#401D1D" fill-rule="nonzero" d="M20 5.467c-8.514 0-15.417 5.57-15.417 12.44 0 4.442 2.886 8.34 7.227 10.54-.237.834-1.518 5.363-1.569 5.719 0 0-.03.267.139.369.169.102.368.023.368.023.485-.07 5.624-3.764 6.514-4.406.888.129 1.804.196 2.738.196 8.514 0 15.417-5.57 15.417-12.44 0-6.871-6.903-12.441-15.417-12.441z" transform="translate(12 12)"/>
        </g>
    </g>
</svg>
