<svg xmlns="http://www.w3.org/2000/svg" xmlns:xlink="http://www.w3.org/1999/xlink" width="48" height="48" viewBox="0 0 48 48">
    <defs>
        <path id="prefix__a" d="M28.25 38c.414 0 .75.336.75.75s-.336.75-.75.75h-8.5c-.414 0-.75-.336-.75-.75s.336-.75.75-.75h8.5zM20 9.25c3.21 0 6.074 1.314 7.854 3.355.844-.234 1.735-.355 2.646-.355 3.29 0 6.23 1.586 7.54 4.001 1.424.02 2.598 1.127 2.704 2.572l.006.177c0 9.25-7.5 16.75-16.75 16.75-9.128 0-16.57-7.309-16.747-16.428L7.25 19c0-1.519 1.231-2.75 2.75-2.75h.36c.712-3.986 4.779-7 9.64-7zm18 8.5H10c-.69 0-1.25.56-1.25 1.243l.003.307C8.913 27.595 15.69 34.25 24 34.25c8.422 0 15.25-6.828 15.25-15.222l-.003-.122c-.048-.65-.592-1.156-1.247-1.156zm-18-7c-4.055 0-7.392 2.39-8.108 5.5h2.557c.665-2.04 2.92-3.5 5.551-3.5 2.631 0 4.887 1.461 5.551 3.5h2.557c-.716-3.109-4.053-5.5-8.108-5.5zm0 3.5c-1.783 0-3.281.84-3.92 2h7.84c-.639-1.16-2.136-2-3.92-2zm10.5-.5c-.584 0-1.158.058-1.71.17.412.723.702 1.506.85 2.33h6.607c-1.2-1.511-3.345-2.5-5.747-2.5z"/>
    </defs>
    <g fill="none" fill-rule="evenodd">
        <path d="M0 0H48V48H0z"/>
        <use fill="#ADADAD" xlink:href="#prefix__a"/>
    </g>
</svg>
