<svg xmlns="http://www.w3.org/2000/svg" width="24" height="24" viewBox="0 0 24 24">
    <g fill="none" fill-rule="evenodd">
        <path d="M0 0H24V24H0z"/>
        <path fill="#FFF" d="M14.8 11.35c2.402 0 4.35 1.948 4.35 4.35v2.35c0 1.105-.895 2-2 2H6.85c-1.105 0-2-.895-2-2V15.7c0-2.402 1.948-4.35 4.35-4.35h5.6zm-3.273 1H9.2c-1.788 0-3.25 1.402-3.345 3.166l-.005.184v2.35c0 .513.386.936.883.993l.117.007h10.3c.513 0 .936-.386.993-.883l.007-.117V15.7c0-1.788-1.402-3.25-3.166-3.345l-.184-.005h-2.327c.01.03.016.063.02.096l.007.097v.904c0 .332-.224.6-.5.6-.249 0-.455-.217-.493-.502l-.007-.098v-.904c0-.068.01-.133.027-.194zm.473 2.3c.249 0 .455.218.493.503l.007.097v2.15c0 .331-.224.6-.5.6-.249 0-.455-.218-.493-.503L11.5 17.4v-2.15c0-.331.224-.6.5-.6zm0-11.1c1.905 0 3.45 1.545 3.45 3.45 0 1.905-1.545 3.45-3.45 3.45-1.905 0-3.45-1.545-3.45-3.45 0-1.905 1.545-3.45 3.45-3.45zm0 1c-1.353 0-2.45 1.097-2.45 2.45 0 1.353 1.097 2.45 2.45 2.45 1.353 0 2.45-1.097 2.45-2.45 0-1.353-1.097-2.45-2.45-2.45z"/>
    </g>
</svg>
