<svg xmlns="http://www.w3.org/2000/svg" width="20" height="20" viewBox="0 0 20 20">
    <g fill="none" fill-rule="evenodd">
        <path d="M0 0H20V20H0z"/>
        <path fill="#333" d="M12.6 3.353c1.058 0 1.762.328 2.19 1.142l1.572 2.537.125.22c.207.394.359.852.359 1.31 0 .82-.36 1.666-1.061 2.177l-.002 4.237c0 .745-.585 1.35-1.324 1.419l-.14.006H5.68c-.757 0-1.386-.56-1.458-1.287l-.006-.138v-4.258l.003-.045c-.649-.477-1.07-1.245-1.07-2.113.003-.614.17-1.055.502-1.556.015-.023.178-.262.216-.321l1.367-2.189c.508-.811 1.232-1.13 2.291-1.141zm-4.723 6.745l-.058.079c-.448.567-1.125.948-1.888.996l-.165.006c-.189 0-.373-.02-.55-.058v3.855c0 .205.161.382.38.418l.085.007H9.5l.001-2.043c0-.276.224-.5.5-.5s.5.224.5.5l-.001 2.043h3.82c.232 0 .418-.154.457-.35l.007-.075v-3.809c-.173.033-.358.051-.553.051-.912 0-1.6-.422-2.042-.999l-.077-.106-.069.095c-.408.524-1.029.912-1.846.965l-.192.006c-.833 0-1.578-.384-2.058-.99l-.069-.091zm4.722-5.745H7.537c-.747.008-1.15.185-1.454.67L4.686 7.26c-.067.102-.195.29-.2.297l-.092.147c-.169.284-.242.526-.244.86 0 .892.724 1.616 1.616 1.616.886 0 1.616-.734 1.616-1.616 0-.667 1-.667 1 0 0 .906.725 1.616 1.622 1.616 1.03 0 1.61-.886 1.61-1.616 0-.667 1-.667 1 0 0 .717.594 1.655 1.616 1.655 1.056 0 1.616-.849 1.616-1.655 0-.304-.144-.681-.31-.964l-1.614-2.607c-.25-.475-.603-.64-1.323-.64z"/>
    </g>
</svg>
