<svg xmlns="http://www.w3.org/2000/svg" width="40" height="40" viewBox="0 0 40 40">
    <g fill="none" fill-rule="evenodd">
        <circle cx="20" cy="20" r="19.4" stroke="#D6D6D6" stroke-width="1.2"/>
        <g>
            <path d="M0 0H24V24H0z" transform="translate(8 8)"/>
            <g stroke="#D6D6D6" stroke-linejoin="round" stroke-width="1.3">
                <path stroke-linecap="round" d="M15.157 9.171v5.522c0 .663-.564 1.2-1.26 1.2H2.617c-.696 0-1.26-.537-1.26-1.2V9.171" transform="translate(8 8) translate(3.683 4.2)"/>
                <path d="M0 6.36c0 1.524 1.236 2.76 2.76 2.76 1.524 0 2.76-1.258 2.76-2.76 0 1.572 1.268 2.76 2.768 2.76 2.25 0 2.752-2.214 2.752-2.76 0 .478.499 2.811 2.76 2.811 2.261 0 2.76-2.129 2.76-2.811 0-.682-.377-1.389-.499-1.594-.08-.137-.775-1.26-2.085-3.367-.492-.933-1.26-1.182-2.303-1.182h-6.61C4.011.228 3.196.477 2.62 1.399 1.645 2.963 1.05 3.916.836 4.256.514 4.766.006 5.304 0 6.36z" transform="translate(8 8) translate(3.683 4.2)"/>
                <path stroke-linecap="round" d="M8.28 12.6L8.28 15.6" transform="translate(8 8) translate(3.683 4.2)"/>
            </g>
        </g>
    </g>
</svg>
