<svg xmlns="http://www.w3.org/2000/svg" width="20" height="20" viewBox="0 0 20 20">
    <g fill="none" fill-rule="evenodd">
        <path fill="#ADADAD" d="M13.803 3.358c.98-.653 2.257-.653 3.237 0 .97.647 1.553 1.736 1.553 2.902v1.883l-.008.097c-.046.285-.294.503-.592.503-.332 0-.6-.269-.6-.6V6.26l-.007-.176c-.053-.697-.424-1.336-1.012-1.728-.577-.384-1.328-.384-1.905 0-.637.425-1.019 1.139-1.019 1.904v1.883l-.008.097c-.004.025-.01.05-.016.073 1.166.41 2.003 1.522 2.003 2.83v2.571c0 1.657-1.344 3-3 3H8.143c-1.657 0-3-1.343-3-3v-2.571c0-1.657 1.343-3 3-3h4.107V6.26l.007-.218c.067-1.083.636-2.078 1.546-2.684zm-1.374 5.985H8.143c-.945 0-1.72.727-1.794 1.652l-.006.148v2.571c0 .945.727 1.72 1.652 1.794l.148.006h4.286c.944 0 1.719-.727 1.794-1.652l.006-.148v-2.571c0-.945-.728-1.72-1.653-1.794l-.147-.006z"/>
    </g>
</svg>
