<svg xmlns="http://www.w3.org/2000/svg" width="28" height="28" viewBox="0 0 28 28">
    <g fill="none" fill-rule="evenodd">
        <path d="M0 0H28V28H0z"/>
        <path fill="#ADADAD" d="M18 3.937c1.45 0 2.625 1.176 2.625 2.626v1.75c0 .362-.294.656-.656.656-.33 0-.603-.243-.65-.56l-.006-.096v-1.75c0-.683-.521-1.243-1.187-1.307L18 5.25H7.5c-.682 0-1.243.52-1.306 1.186l-.007.127V21c0 .682.521 1.243 1.187 1.306l.126.006H18c.362 0 .656.294.656.657 0 .362-.294.656-.656.656H7.5c-1.45 0-2.625-1.175-2.625-2.625V6.562c0-1.45 1.175-2.625 2.625-2.625H18zm6.488 4.738l1.238 1.237c.683.684.683 1.792 0 2.475l-7.738 7.738c-.278.278-.642.454-1.033.5l-2.503.295c-.48.056-.915-.287-.971-.767-.008-.068-.008-.137 0-.204l.294-2.504c.046-.39.223-.754.501-1.033l7.737-7.737c.684-.683 1.792-.683 2.475 0zm-1.486.877l-.06.051-7.738 7.738c-.052.052-.09.116-.11.186l-.015.072-.23 1.952 1.953-.23c.073-.008.143-.035.202-.077l.056-.047 7.738-7.738c.152-.152.168-.387.05-.558l-.05-.06-1.238-1.238c-.152-.152-.387-.169-.558-.05z"/>
    </g>
</svg>
