<svg xmlns="http://www.w3.org/2000/svg" width="800" height="660" viewBox="0 0 800 660">
  <g id="card3" transform="translate(-18 -457)">
    <rect id="사각형_3" data-name="사각형 3" width="800" height="660" rx="24" transform="translate(18 457)" fill="#c9eaf2"/>
    <g id="그룹_339" data-name="그룹 339" transform="translate(-2878.665 -2135.612)">
      <g id="그룹_338" data-name="그룹 338" transform="translate(3165.666 2627.612)">
        <g id="그룹_329" data-name="그룹 329">
          <path id="패스_610" data-name="패스 610" d="M3178.79,2635.129h0c-8.275,11.5-12.128,25.922-13.039,40.062-.4,6.2.489,13.423,5.7,16.8,4.229,2.745,10.034,1.847,14.28-.871a33.691,33.691,0,0,0,9.976-9.885,20.063,20.063,0,0,0,2.6-5.91,4.681,4.681,0,0,0-1.518-4.8c-2.116-1.49-5.157-.131-6.79,1.877s-2.484,4.568-4.164,6.537-4.824,3.179-6.827,1.54c-1.655-1.355-1.647-3.842-1.5-5.976.562-7.915,1.181-16.052,4.638-23.2a11.033,11.033,0,0,1,3.859-4.827c1.783-1.088,4.312-1.18,5.813.271,3.179,3.076-.416,8.741,2.62,11.684,4.349,4.216,9.512-2.4,10.383-6.091,3.333-14.13,2.636-21.535-8.079-24.243C3189.547,2626.285,3182.685,2629.714,3178.79,2635.129Z" transform="translate(-3165.666 -2627.612)" fill="#5caccc"/>
        </g>
        <g id="그룹_330" data-name="그룹 330" transform="translate(37.225 8.264)">
          <path id="패스_611" data-name="패스 611" d="M3211.006,2685.521h0a11.331,11.331,0,0,0-.113,5.118,3.974,3.974,0,0,0,3.677,3.062c1.878-.1,3.154-1.9,4.038-3.562a51.559,51.559,0,0,0,5.075-14.263,73.086,73.086,0,0,0,11.706-1.781,114.036,114.036,0,0,0-3.405,15.9c-.195,1.386-.148,3.174,1.144,3.712a2.77,2.77,0,0,0,2.637-.688c2.132-1.665,3.308-4.244,4.354-6.739,4.986-11.888,8.481-25.171,11.125-37.788a10.16,10.16,0,0,0,.254-4.35,3.588,3.588,0,0,0-2.909-2.9c-2.112-.175-3.532,2.058-4.414,3.985-2.275,4.969-4.028,10.933-5.964,16.043a2.671,2.671,0,0,1-2.828,2.194l-9.124,1s5.763-15.743,6.289-17.576c.861-2.994,2.048-9.672-2.968-9.28-9.8.767-11.962,19.02-13.727,25.807Q3213.008,2674.372,3211.006,2685.521Z" transform="translate(-3210.638 -2637.596)" fill="#5caccc"/>
        </g>
        <g id="그룹_331" data-name="그룹 331" transform="translate(73.186 15.047)">
          <path id="패스_612" data-name="패스 612" d="M3267.491,2648.216c-4.564,3.562-6.373,10.012-7.685,15.382-1.648,6.75-3.5,13.416-5.262,20.15-2.948,11.3,8.974,11.216,16.966,9.966,2.577-.4,5.267-1.247,6.759-3.485a4.606,4.606,0,0,0,.609-3.935c-.645-2.013-2.391-2.515-4.054-2.811a27.714,27.714,0,0,0-7.081-.335c-3.822.308-3.24-4.758-2.016-6.924,2.876-5.094,7.985-1.359,12.215-3.656a3.722,3.722,0,0,0,2.033-3.428c-.332-5.6-8.462-1.074-10.205-5.493-1.576-3.995,2.05-8.6,6.2-8.165,3.054.32,10.655.277,10.317-4.442C3285.764,2643.763,3271.227,2645.3,3267.491,2648.216Z" transform="translate(-3254.085 -2645.79)" fill="#5caccc"/>
        </g>
        <g id="그룹_332" data-name="그룹 332" transform="translate(102.457 16.309)">
          <path id="패스_613" data-name="패스 613" d="M3299.786,2650.267c-4.172,3.679-5.481,9.949-6.381,15.156-1.132,6.547-2.472,13.026-3.71,19.564-2.08,10.976,9.453,10.167,17.1,8.487,2.466-.542,5.012-1.512,6.3-3.739a4.347,4.347,0,0,0,.319-3.795c-.762-1.883-2.487-2.257-4.116-2.438a27.3,27.3,0,0,0-6.875.109c-3.677.527-3.462-4.346-2.427-6.49,2.435-5.04,7.634-1.782,11.57-4.233a3.523,3.523,0,0,0,1.733-3.4c-.706-5.329-8.262-.511-10.252-4.626-1.8-3.719,1.394-8.337,5.44-8.174,2.978.121,10.328-.383,9.678-4.87C3317.164,2644.9,3303.2,2647.256,3299.786,2650.267Z" transform="translate(-3289.448 -2647.315)" fill="#5caccc"/>
        </g>
        <g id="그룹_333" data-name="그룹 333" transform="translate(134.266 16.582)">
          <path id="패스_614" data-name="패스 614" d="M3354.025,2687.454a5.584,5.584,0,0,0-.916-2.52,57.845,57.845,0,0,1-5.173-12.625c.145-.071.291-.137.435-.212,5.088-2.659,7.15-7.776,6.894-13.511a11.253,11.253,0,0,0-3.7-8.2,11.6,11.6,0,0,0-4.309-2.131,17.2,17.2,0,0,0-13,1.613l-1.94,2.486a253.457,253.457,0,0,0-4.364,31.923c-.136,1.952-.234,4.014,1.021,5.667a3.147,3.147,0,0,0,2.4,1.3c1.907.036,2.862-1.689,3.449-3.27a27,27,0,0,0,1.665-8.518,4.935,4.935,0,0,1,3.261-4.488q2.963,6.276,6.41,12.306c.775,1.349,1.764,2.827,3.3,3.062C3350.972,2690.567,3354.047,2688.979,3354.025,2687.454Zm-12.98-20.771-.8-1.11a31.723,31.723,0,0,1,1.162-9.762c1.6-.064,3.42-.036,4.48,1.159a3.92,3.92,0,0,1,.857,2.227A7.142,7.142,0,0,1,3341.045,2666.683Z" transform="translate(-3327.877 -2647.645)" fill="#5caccc"/>
        </g>
        <g id="그룹_334" data-name="그룹 334" transform="translate(175.175 12.502)">
          <path id="패스_615" data-name="패스 615" d="M3379.311,2663.983c-1.613,6.628-3.2,13.759-.727,20.117a11.5,11.5,0,0,0,4.229,5.573c3.308,2.15,7.8,1.762,11.279-.107s6.1-4.992,8.354-8.23a70.462,70.462,0,0,0,11.612-28.376,6.122,6.122,0,0,0-.14-3.567c-1.1-2.406-4.807-2.406-6.81-.676s-2.772,4.446-3.575,6.967a53.181,53.181,0,0,1-8.348,16.6,4.2,4.2,0,0,1-2.645,1.915,2.948,2.948,0,0,1-2.805-1.99,7.747,7.747,0,0,1-.261-3.645,49.825,49.825,0,0,1,2.79-12.15h0c1.521-4.149,5.593-13.742-2.549-13.7C3384.032,2642.746,3380.7,2658.257,3379.311,2663.983Z" transform="translate(-3377.302 -2642.716)" fill="#5caccc"/>
        </g>
        <g id="그룹_335" data-name="그룹 335" transform="translate(211.429 16.398)">
          <path id="패스_616" data-name="패스 616" d="M3452.759,2651.942a11.329,11.329,0,0,0-6.029-3.734c-9.138-2.544-15.872,1.249-18.5,9.088a147.917,147.917,0,0,0-7.016,33.6h0a10.7,10.7,0,0,0,.237,4.4,4.262,4.262,0,0,0,3.217,2.952c2.758.391,4.509-2.565,5.369-5.056a121.164,121.164,0,0,0,3.978-14.275,5.623,5.623,0,0,1,1.15-2.8,6.829,6.829,0,0,1,3.115-1.466,25.482,25.482,0,0,0,13.132-9.158C3454.306,2661.562,3455.8,2655.92,3452.759,2651.942Zm-8.25,9.317c-.745,1.443-4.164,5.409-6.184,5.028-3.119-.589-1.722-4.514-1.382-6.459.378-2.169,1.094-4.726,3.3-5.359a4.02,4.02,0,0,1,4.384,2A5.168,5.168,0,0,1,3444.509,2661.259Z" transform="translate(-3421.101 -2647.422)" fill="#5caccc"/>
        </g>
        <g id="그룹_336" data-name="그룹 336" transform="translate(248.948 16.413)">
          <path id="패스_617" data-name="패스 617" d="M3467.778,2664.79c-1.012,4-2.02,8.249-.758,12.173a2.018,2.018,0,0,0,3.414,1.114,12.115,12.115,0,0,0,5.076-5.777,31.13,31.13,0,0,0,2.077-7.527h0c.557-3.123,3.419-17.5-2.038-17.331C3469.733,2647.618,3468.76,2660.911,3467.778,2664.79Z" transform="translate(-3466.43 -2647.441)" fill="#5caccc"/>
        </g>
        <g id="그룹_337" data-name="그룹 337" transform="translate(245.943 56.315)">
          <path id="패스_618" data-name="패스 618" d="M3463.292,2701.792h0a2.667,2.667,0,0,0,3.086,1.68,4.007,4.007,0,0,0,1.846-1.716C3473.988,2693.335,3460.065,2693.882,3463.292,2701.792Z" transform="translate(-3462.8 -2695.648)" fill="#5caccc"/>
        </g>
      </g>
    </g>
    <g id="그룹_353" data-name="그룹 353" transform="translate(-2885.871 -2153.403)">
      <g id="d" transform="translate(0.473)">
        <g id="그룹_346" data-name="그룹 346" transform="translate(3236.397 2761.193)">
          <path id="패스_620" data-name="패스 620" d="M3321.526,2821.652c0,.908-3.825,82.016-3.825,82.016a8.248,8.248,0,0,0,8.881.3l-3.475-82.57Z" transform="translate(-3256.897 -2775.25)" fill="#9adb45"/>
          <g id="그룹_345" data-name="그룹 345">
            <g id="그룹_344" data-name="그룹 344">
              <g id="그룹_341" data-name="그룹 341" transform="translate(67.468)">
                <g id="그룹_340" data-name="그룹 340">
                  <path id="패스_621" data-name="패스 621" d="M3325.64,2813.661l-.017.01,0-.011-.012,0,.018-.009c.278-.158.644-1.385.765-1.637,6.092-12.788,14.058-26.565,25.534-36.737,5.951-5.275,13.528-9.513,21.242-8.549,11.464,1.433,18.331,10.809,18.6,20.9.433,16.4-17,23.476-32.476,25.64a136.184,136.184,0,0,1-22.933,1.073q-3.858-.116-7.671-.407C3328.211,2813.9,3326.109,2813.391,3325.64,2813.661Z" transform="translate(-3325.615 -2766.588)" fill="#9adb45"/>
                </g>
              </g>
              <g id="그룹_343" data-name="그룹 343" transform="translate(0 4.297)">
                <g id="그룹_342" data-name="그룹 342">
                  <path id="패스_622" data-name="패스 622" d="M3313.8,2814.427l.019.008-.007-.011.011,0-.018-.008c-.292-.131-.77-1.319-.915-1.559-7.255-12.167-16.468-25.143-28.84-34.2-6.416-4.7-14.355-8.214-21.945-6.536-11.281,2.492-17.246,12.467-16.573,22.539,1.095,16.37,19.108,21.794,34.72,22.51a135.965,135.965,0,0,0,22.935-1.066q3.831-.472,7.6-1.117C3311.264,2814.9,3313.31,2814.2,3313.8,2814.427Z" transform="translate(-3245.484 -2771.692)" fill="#9adb45"/>
                </g>
              </g>
            </g>
            <line id="선_3" data-name="선 3" x2="66.1" y2="30.404" transform="translate(2.238 16.638)" fill="none" stroke="#b8e880" stroke-miterlimit="10" stroke-width="4"/>
            <line id="선_4" data-name="선 4" y1="38.507" x2="61.438" transform="translate(67.492 8.566)" fill="none" stroke="#b8e880" stroke-miterlimit="10" stroke-width="4"/>
          </g>
        </g>
        <g id="그룹_347" data-name="그룹 347" transform="translate(3271.429 2853.946)">
          <path id="패스_623" data-name="패스 623" d="M3340.35,2948.679h-41.317l-6.075-64.4h53.467Z" transform="translate(-3288.018 -2877.94)" fill="#efede6"/>
          <rect id="사각형_18" data-name="사각형 18" width="63.349" height="10.558" fill="#fff"/>
        </g>
      </g>
      <path id="패스_624" data-name="패스 624" d="M3310.53,2840.935a1.241,1.241,0,0,1,.365.469" transform="translate(-19.366 -17.145)" fill="none" stroke="#000" stroke-linecap="round" stroke-linejoin="round" stroke-width="1"/>
      <g id="그룹_349" data-name="그룹 349" transform="translate(3369.393 2823.691)">
        <g id="그룹_348" data-name="그룹 348">
          <path id="패스_625" data-name="패스 625" d="M3425.034,2841.97l.565,2.559a1.473,1.473,0,0,0,1.117,1.118l2.559.564a1.469,1.469,0,0,1,0,2.868l-2.559.563a1.467,1.467,0,0,0-1.117,1.118l-.565,2.559a1.468,1.468,0,0,1-2.867,0l-.566-2.559a1.47,1.47,0,0,0-1.118-1.118l-2.56-.563a1.469,1.469,0,0,1,0-2.868l2.56-.564a1.476,1.476,0,0,0,1.118-1.118l.566-2.559a1.468,1.468,0,0,1,2.867,0" transform="translate(-3395.55 -2840.818)" fill="#fff"/>
          <path id="패스_626" data-name="패스 626" d="M3397.744,2862.1a3.089,3.089,0,1,1-3.088-3.09A3.088,3.088,0,0,1,3397.744,2862.1Z" transform="translate(-3391.566 -2843.693)" fill="#fff"/>
        </g>
      </g>
      <g id="그룹_358" data-name="그룹 358" transform="translate(4.061)">
        <path id="패스_627" data-name="패스 627" d="M3335.257,2743.986a6.485,6.485,0,0,1-12.97,0c0-3.58,6.485-10.944,6.485-10.944S3335.257,2740.406,3335.257,2743.986Z" transform="translate(-21.224 -0.094)" fill="#69cfe0"/>
        <path id="패스_628" data-name="패스 628" d="M3330.059,2778.277a5.626,5.626,0,0,1-11.252,0c0-3.107,5.626-9.494,5.626-9.494S3330.059,2775.17,3330.059,2778.277Z" transform="translate(-20.674 -5.743)" fill="#69cfe0"/>
        <path id="패스_629" data-name="패스 629" d="M3308.077,2738.566a2.547,2.547,0,0,1-3.169,2.666c-1.665-.544-2.028-1.561-1.9-3.307.245-3.391,6.44-5.48,6.44-5.48A13.1,13.1,0,0,0,3308.077,2738.566Z" transform="translate(-18.173)" fill="#69cfe0"/>
      </g>
      <path id="패스_630" data-name="패스 630" d="M3461.64,2761.736l.982,4.453a2.566,2.566,0,0,0,1.945,1.946l4.453.982a2.556,2.556,0,0,1,0,4.99l-4.453.98a2.561,2.561,0,0,0-1.945,1.948l-.982,4.452a2.555,2.555,0,0,1-4.989,0l-.985-4.452a2.559,2.559,0,0,0-1.944-1.948l-4.454-.98a2.556,2.556,0,0,1,0-4.99l4.454-.982a2.564,2.564,0,0,0,1.944-1.946l.985-4.453a2.555,2.555,0,0,1,4.989,0" transform="translate(-40.975 -4.312)" fill="#fff"/>
      <path id="패스_631" data-name="패스 631" d="M3487.592,2795.827a3.089,3.089,0,1,1-3.089-3.09A3.088,3.088,0,0,1,3487.592,2795.827Z" transform="translate(-46.372 -9.528)" fill="#fff"/>
      <g id="그룹_350" data-name="그룹 350" transform="translate(3356.304 2742.494)">
        <path id="패스_632" data-name="패스 632" d="M3394.075,2747.47a3.089,3.089,0,1,1-3.089-3.09A3.089,3.089,0,0,1,3394.075,2747.47Z" transform="translate(-3387.897 -2744.38)" fill="#fff"/>
      </g>
      <g id="그룹_351" data-name="그룹 351" transform="translate(3190.005 2782.53)">
        <path id="패스_633" data-name="패스 633" d="M3201.612,2793.5l.767,3.478a2,2,0,0,0,1.519,1.52l3.479.766a2,2,0,0,1,0,3.9l-3.479.768a1.993,1.993,0,0,0-1.519,1.52l-.767,3.477a2,2,0,0,1-3.9,0l-.768-3.477a2,2,0,0,0-1.518-1.52l-3.479-.768a2,2,0,0,1,0-3.9l3.479-.766a2,2,0,0,0,1.518-1.52l.768-3.478a2,2,0,0,1,3.9,0" transform="translate(-3190.384 -2791.931)" fill="#fff"/>
        <path id="패스_634" data-name="패스 634" d="M3219.043,2820.726a2.413,2.413,0,1,1-2.413-2.414A2.412,2.412,0,0,1,3219.043,2820.726Z" transform="translate(-3194.151 -2796.1)" fill="#fff"/>
      </g>
      <g id="그룹_352" data-name="그룹 352" transform="translate(3187.986 2845.188)">
        <path id="패스_635" data-name="패스 635" d="M3194.822,2867.3l.467,2.118a1.219,1.219,0,0,0,.925.925l2.118.466a1.216,1.216,0,0,1,0,2.374l-2.118.468a1.214,1.214,0,0,0-.925.924l-.467,2.117a1.215,1.215,0,0,1-2.374,0l-.468-2.117a1.215,1.215,0,0,0-.924-.924l-2.118-.468a1.216,1.216,0,0,1,0-2.374l2.118-.466a1.22,1.22,0,0,0,.924-.925l.468-2.118a1.215,1.215,0,0,1,2.374,0" transform="translate(-3187.986 -2866.349)" fill="#fff"/>
        <path id="패스_636" data-name="패스 636" d="M3236.614,2908.419A2.413,2.413,0,1,1,3234.2,2906,2.412,2.412,0,0,1,3236.614,2908.419Z" transform="translate(-3194.908 -2872.616)" fill="#fff"/>
      </g>
    </g>
  </g>
</svg>
