<svg xmlns="http://www.w3.org/2000/svg" width="800" height="660" viewBox="0 0 800 660">
  <g id="card2" transform="translate(-18 -457)">
    <rect id="사각형_3" data-name="사각형 3" width="800" height="660" rx="24" transform="translate(18 457)" fill="#faefc9"/>
    <rect id="사각형_13" data-name="사각형 13" width="800" height="660" rx="24" transform="translate(18 457)" fill="#fff5d2"/>
    <g id="tx" transform="translate(-229.052 -2155.236)">
      <path id="패스_384" data-name="패스 384" d="M511.694,2654.948c-2.516,1.063-5.442,3.333-4.439,5.875a4.219,4.219,0,0,0,1.769,1.907c4.274,2.689,9.786,1.253,14.829.995a2.283,2.283,0,0,1,1.885.5,2.312,2.312,0,0,1,.389,1.554c.022,10.1-2.567,20.156-1.736,30.227a4.509,4.509,0,0,0,.678,2.378,3.211,3.211,0,0,0,4.144.454,8.387,8.387,0,0,0,2.8-3.544,53.524,53.524,0,0,0,5.811-24.6c-.018-2.377.069-5.261,2.144-6.422a6.82,6.82,0,0,1,2.811-.609,42.755,42.755,0,0,0,9.9-2.017c2.435-.8,5.1-2.178,5.652-4.684h0c1.772-8.094-13.036-9.243-18.032-8.551C530.529,2649.759,520.856,2651.078,511.694,2654.948Z" transform="translate(0 0)" fill="#db3272"/>
      <path id="패스_385" data-name="패스 385" d="M559.434,2682.568h0c-.441,2.762-.883,5.527-1.1,8.315-.271,3.447-.165,7.064,1.411,10.142a2.365,2.365,0,0,0,.86,1.047c1.135.635,2.4-.613,3.012-1.76a21.062,21.062,0,0,0,2.486-9.88,2.183,2.183,0,0,1,.268-1.315,2.081,2.081,0,0,1,1.244-.635l5.908-1.45a40.361,40.361,0,0,0,.329,12.727c.123.657.352,1.418.984,1.636a1.612,1.612,0,0,0,1.138-.132c2.114-.9,3.172-3.244,3.945-5.409a81.968,81.968,0,0,0,4.727-25.051,16.947,16.947,0,0,0-.449-5.26c-.383-1.314-1.368-2.726-2.731-2.618-1.189.094-1.945,1.282-2.47,2.353a52.038,52.038,0,0,0-3.876,10.748,1.8,1.8,0,0,1-.383.872,1.775,1.775,0,0,1-.981.4c-2.184.4-5.4,2.407-6.552,1.191s1.906-10.186,1.8-11.469c-.255-3.135-3.395-4.185-5.815-2.121-1.677,1.43-1.7,4.123-1.959,6.127C560.723,2674.882,560.048,2678.723,559.434,2682.568Z" transform="translate(-6.971 -2.001)" fill="#db3272"/>
      <g id="그룹_244" data-name="그룹 244" transform="translate(612.288 2658.514)">
        <path id="패스_386" data-name="패스 386" d="M658.473,2660.907a1.728,1.728,0,0,0-1.1-.76c-1-.142-1.705.93-2.129,1.85a167.356,167.356,0,0,0-7.216,18.46c-.245.754-.714,1.672-1.5,1.592-.583-.06-.936-.653-1.2-1.175h0c-1.717-3.349-7.743-16.133-12.908-12.479-2.559,1.811-2.29,6.584-2.6,9.348q-.656,5.8-.891,11.637c-.12,3-.011,6.377,2.15,8.463,3.8-4.025,3.136-10.549,5.855-15.373l9.323,13.736c1.016,1.5,2.52,3.192,4.268,2.73,1.373-.363,2.041-1.883,2.5-3.229a120.976,120.976,0,0,0,6.118-30.96A5.875,5.875,0,0,0,658.473,2660.907Z" transform="translate(-628.886 -2660.135)" fill="#db3272"/>
        <path id="패스_387" data-name="패스 387" d="M691.5,2697.9a22.919,22.919,0,0,0-1.456-5.538,45.736,45.736,0,0,0-3.75-6.907l-3.788-6.114a57.743,57.743,0,0,0,10.764-12.046c.643-.964,1.279-2.153.84-3.224a2.813,2.813,0,0,0-3.129-1.309c-2.2.365-3.909,2.045-5.432,3.668q-2.674,2.848-5.219,5.813c.11-1.412.2-2.827.247-4.244.081-2.4-.022-5.572-2.509-6.812-2.148-1.071-3.968.606-4.906,2.456-1.385,2.734-1.922,6.172-2.565,9.147a98.155,98.155,0,0,0-2.224,21.278c.012,2.12.276,4.584,2.06,5.729a2.033,2.033,0,0,0,1.42.357,2.557,2.557,0,0,0,1.352-.894c2.009-2.188,2.982-5.114,3.775-7.976.441-1.589.834-3.192,1.2-4.8l7.51,10.078c1.059,1.421,2.275,2.945,4.014,3.286a1.624,1.624,0,0,0,1.538-.358A1.987,1.987,0,0,0,691.5,2697.9Z" transform="translate(-634.265 -2660.233)" fill="#db3272"/>
      </g>
      <g id="그룹_245" data-name="그룹 245" transform="translate(579.578 2661.83)">
        <path id="패스_388" data-name="패스 388" d="M617,2693.76a46.9,46.9,0,0,0-1.9-24c-.844-2.385-2.181-4.972-4.624-5.633a5.989,5.989,0,0,0-3.453.241c-5.087,1.724-7.783,7.16-9.745,12.16h0q-2.126,5.421-3.935,10.959c-.929,2.844-2.978,6.782-2.118,9.813.669,2.358,2.884,3.882,5.239,2.789,2.964-1.377,3.839-5.328,5.069-8.024.447-.977,1.1-2.024,2.15-2.228a3.691,3.691,0,0,1,1.335.071c1.544.272,3.246.639,4.164,1.911.877,1.214.748,2.848.861,4.341s.765,3.23,2.232,3.529a2.877,2.877,0,0,0,2.364-.768C616.106,2697.669,616.651,2695.66,617,2693.76Zm-6.989-12.037a.718.718,0,0,1-.479.1l-3.4-.083a18.456,18.456,0,0,1-2.386-.162.557.557,0,0,1-.441-.229.569.569,0,0,1,.026-.428,31.807,31.807,0,0,1,3.126-6.633l.7-.41a10.836,10.836,0,0,1,3.024,7.274A.7.7,0,0,1,610.012,2681.723Z" transform="translate(-591.017 -2663.975)" fill="#db3272"/>
      </g>
      <path id="패스_389" data-name="패스 389" d="M731.46,2668.486c.741,2.563,1.159,5.862,3.579,6.986,2.678,1.245,5.825-.736,7.483-3.178s2.52-5.4,4.459-7.631c1.093-1.255,2.918-2.266,4.368-1.45,1.435.806,1.538,2.8,1.423,4.442-.863,12.186-2.033,21.416-7.156,32.505-1.52,3.291-5.263,9.434-8.287,11.433a13.024,13.024,0,0,1-6.351,2.014,16.29,16.29,0,0,1-12.88-5.206,17.5,17.5,0,0,1-4.359-10.729c-.2-6.686,5.828-7.96,8.646-2.541,1.707,3.282,2.626,9.052,7.481,8.665,8.131-.65,13.476-13.095,12.835-19.863-3.57,2.153-9.177,5.272-15.015,2.5-4.825-2.292-7.386-11.969-6.712-17.307C721.863,2662.1,729.233,2660.782,731.46,2668.486Z" transform="translate(-28.158 -2)" fill="#db3272"/>
      <path id="패스_390" data-name="패스 390" d="M797.288,2692.433h0c.328,3.579.91,7.234,2.7,10.352a9.17,9.17,0,0,0,4.185,4.03,9.024,9.024,0,0,0,5.643.222c5.344-1.325,9.488-5.755,11.828-10.738s3.147-10.528,3.913-15.98a24.828,24.828,0,0,0,.338-6.406,12.507,12.507,0,0,0-2.527-6.136,2.85,2.85,0,0,0-1.378-1.1c-1.351-.379-2.485,1.038-3.118,2.291a40.24,40.24,0,0,0-3.826,11.862c-.487,3.095-.656,6.376-2.317,9.031-.8,1.283-2.306,2.45-3.724,1.917-1.1-.411-1.615-1.645-1.935-2.77a25.257,25.257,0,0,1-.572-11.256c.282-1.594.719-3.163.9-4.772a8.644,8.644,0,0,0-.6-4.757c-1.7-3.5-6.968-3.656-8.353.1-1.538,4.175-1.393,9.724-1.5,14.1A87.09,87.09,0,0,0,797.288,2692.433Z" transform="translate(-39.492 -2.359)" fill="#db3272"/>
      <g id="그룹_246" data-name="그룹 246" transform="translate(727.611 2661.126)">
        <path id="패스_391" data-name="패스 391" d="M782.636,2665.966c-3.329-2.692-8.064-3.781-12-1.772-5.423,2.766-6.832,10-7.681,15.451-1.132,7.253-.7,15.055,2.976,21.568a11.648,11.648,0,0,0,4.788,5,9.358,9.358,0,0,0,8.13-.348,16.377,16.377,0,0,0,6.046-5.737C790.992,2690.939,792.053,2673.578,782.636,2665.966Zm-4.048,24.841a6.242,6.242,0,0,1-1.981,2.236,2.571,2.571,0,0,1-2.588.214,3.833,3.833,0,0,1-1.472-1.848h0a14.6,14.6,0,0,1-.728-8.149c.325-2.076.846-4.833,2.6-5.937a3.059,3.059,0,0,1,3.8.55C781.133,2680.666,780.62,2687.26,778.588,2690.807Z" transform="translate(-762.4 -2663.159)" fill="#db3272"/>
      </g>
    </g>
    <g id="그룹_256" data-name="그룹 256" transform="translate(-216.38 -2173.679)">
      <g id="그룹_255" data-name="그룹 255" transform="translate(564.38 2754.679)">
        <g id="그룹_251" data-name="그룹 251">
          <path id="패스_392" data-name="패스 392" d="M583.453,2860.472l.043.024v-.024Z" transform="translate(-583.453 -2772.822)" fill="#add4de"/>
          <path id="패스_393" data-name="패스 393" d="M752.709,2860.472h-.043v.024Z" transform="translate(-612.471 -2772.822)" fill="#add4de"/>
          <path id="패스_394" data-name="패스 394" d="M723.692,2851.866,653.574,2810.4l-70.119,41.463.051.02h-.01v.024l70.076,41.438,70.076-41.438v-.024h-.008Z" transform="translate(-583.454 -2764.235)" fill="#b6556d"/>
          <g id="그룹_248" data-name="그룹 248" transform="translate(0.9 32.523)">
            <path id="패스_395" data-name="패스 395" d="M633.947,2803.172l.092,3.748-13.267,5.708-8.984-9.654s-2.577-5.5-.307-6.516l.751,1.01.227-1.524,1.093,1.857.531-2.114.482,1.484.391-1.623.761,1.476.953-1.747s.742,2.1.906,2a12.507,12.507,0,0,0,.9-1.737l.688,2.138.589-2.269.945,2.026.4-1.439s.339,1.544.477,1.485.531-2.55.639-2.349,1.005,1.872,1.005,1.872a13.42,13.42,0,0,1,.3-2.187c.1.164,1.1,2.038,1.184,1.844s.331-2.881.429-2.717,1.323,2.33,1.323,2.33l.648-1.442,1.548,2.074,1.138-1.051.577,2.485,1.162-1.524.418,2.9a9.619,9.619,0,0,1,1.763-.2c-.008.108-.561,1.141-.423,1.19s1.136.219,1.136.219l-.611,1.041,1.007-.085-.263,1.2-.6.1" transform="translate(-588.999 -2793.934)" fill="#d64076"/>
            <path id="패스_396" data-name="패스 396" d="M609.308,2800.021l2.462,2.978-4.079,13.2-11.443-2.015s-5.037-2.8-4.361-5.085l1.082.332-.843-1.381,1.829.8-1.047-2.053,1.234.889-.814-1.567,1.391.7-.562-2.033s1.777,1.223,1.809,1.033a16.811,16.811,0,0,0-.591-1.984l1.776,1.288-1.115-2.221,1.856,1.035-.692-1.427s1.185,1.03,1.232.891-1.326-2.408-1.136-2.315,1.787.87,1.787.87a17.5,17.5,0,0,1-1.232-1.963c.166.072,1.954.939,1.876.73s-1.655-2.552-1.492-2.479,2.269,1.031,2.269,1.031l-.549-1.587,2.236.683-.01-1.587,1.931,1.637-.3-1.983,2.113,2.083s.828-1.4.892-1.306.408,1.287.519,1.241.805-.562.805-.562l.312,1.238.533-.72.616,1.146-.292.465" transform="translate(-585.789 -2794.363)" fill="#c02c67"/>
            <path id="패스_397" data-name="패스 397" d="M606.092,2806.554l8.459,10.582,11.709-5.739-1.2-5.427-2.51-3.351-.037,2.112-1.192-2.388.128,2.4-1.877-2.512s.1,2.715-.114,2.513-1.447-2.268-1.447-2.268l-.249,2.146-1.148-1.926s-.175,3-.347,2.708-1.22-2.46-1.22-2.46l.287,2.218-1.6-1.153-.387,1.78-.969-2.891-.268,2.227-1.123-1.228-.1,1.813-1.625-2.32.18,2.158-1.962-1.408.431,1.96-2.086-1.7.384,1.735-1.329-.643Z" transform="translate(-588.026 -2795.357)" fill="#dd4d7d"/>
            <path id="패스_398" data-name="패스 398" d="M629.632,2821.3s12.211-2.091,10.255-8.34c0,0,6.247-7.794-.518-12.931l.374,1.829-1.373-1.673-.722,1.523-.629-1.719-.124,1.486-1.046-2-.541,1.671-.921-1.911-.249,1.624-.871-1.447-.309,1.279-1.454-1.7-.9,1.372-1.4-1.538.168,1.674-.9-1.559.178,1.261-.907-1.146-.458.895-.506-1.387-.708,1.577-.505-1.151a10.6,10.6,0,0,0-1.8,7.14l5.863,15.175" transform="translate(-591.252 -2794.727)" fill="#df6281"/>
            <path id="패스_399" data-name="패스 399" d="M626.258,2836.174" transform="translate(-591.693 -2801.178)" fill="#df618b"/>
            <path id="패스_400" data-name="패스 400" d="M626.935,2825.852s17.092-16.47,20.594-14.978l-1.706,1.848,3.017.007-1.6,1.766,2.549-.785-.372,1.568,2.341-1.013-.654,2.742,3.657-.468-1.123,1.4,2.1-.552s-1.763,16.4-13.623,10.884c0,0-8.786-3.892-13.362-.667Z" transform="translate(-591.809 -2796.823)" fill="#d64076"/>
            <path id="패스_401" data-name="패스 401" d="M626.258,2836.174" transform="translate(-591.693 -2801.178)" fill="#df618b"/>
            <path id="패스_402" data-name="패스 402" d="M624.137,2824.137l4.2,3.021s10.8,2.85,15.049-3.587c0,0,6.425-4.037,6.109-9.757,0,0,3.292-3.267,1.8-4.679l-2.1.612.171-1.166-1.531,1.665,1.012-2.081-2.089,1.752.3-2.4L644.9,2809.9c1.065-.192,1.109-3.434,1.109-3.434a31.158,31.158,0,0,1-2.6,2.384,18.635,18.635,0,0,1-.6-2.737l-.864,1.711-1.475-3.548-.946,3.624-1.757-3.47-1.349,5.751-1.069-3.95-11.279,17.548" transform="translate(-591.316 -2795.708)" fill="#dd4d7d"/>
            <path id="패스_403" data-name="패스 403" d="M617.743,2830.37s-25.026-16.922-27.887-14.789l2.594,1.924-3.065.37,2.448,1.833-2.955-.594,1.106,1.757-2.852-.888,1.94,3.076-3.932-.1,1.795,1.483-2.4-.389s9.414,18.664,18.9,10.908c0,0,7.122-5.525,13.27-2.357Z" transform="translate(-584.539 -2797.615)" fill="#dd4e7f"/>
            <path id="패스_404" data-name="패스 404" d="M613.656,2813.793s-6.814-6-10.124-4.751l1.01,2.13-2.483-1.377,1.231,2.606-3-1.7,1.342,2.842-2.392-1.705s-.992,3.574,0,5.424c0,0,2.263,11.335,12.911,12.352l8.633,1.5.659-.6Z" transform="translate(-586.985 -2796.496)" fill="#df618b"/>
            <path id="패스_405" data-name="패스 405" d="M628.457,2828.593s9.85-9.186,4.22-21.724l-.618,2.666-1.734-3.067-1.112,3.516-1.37-3.124-.967,3.143-1.66-2.728-.417,3.582-1.966-3.207a25.61,25.61,0,0,1-2.125,3.148s-6.538,7.361-1.567,14.838a43.9,43.9,0,0,1,4.225,4.784l2.808,1.1,2.283-2.928" transform="translate(-590.153 -2796.083)" fill="#e27e9e"/>
            <path id="패스_406" data-name="패스 406" d="M631.8,2830.636s1.262,13.5-3.175,14.658l-5.17.814s-5.414,1.1-8.5-11.553l-.732-3.331s4.515,5.513,5.052-1.465c0,0,5.135,7.711,7.887-.813C627.164,2828.947,629.106,2834.784,631.8,2830.636Z" transform="translate(-589.63 -2799.938)" fill="#83c267"/>
            <path id="패스_407" data-name="패스 407" d="M629.342,2849s.21,31.616,13.687,62.188l-3.359.531s-12.363-33.636-13.129-62.277Z" transform="translate(-591.742 -2803.377)" fill="#83c267"/>
          </g>
          <g id="그룹_249" data-name="그룹 249" transform="translate(74.81)">
            <path id="패스_408" data-name="패스 408" d="M691.421,2762.4l.066,3,10.83,4.08,6.834-8.059s1.857-4.5,0-5.225l-.565.832-.235-1.208-.8,1.523-.505-1.672-.329,1.205-.376-1.282-.553,1.208-.828-1.364s-.516,1.706-.651,1.631a9.82,9.82,0,0,1-.782-1.356l-.47,1.74-.557-1.8-.679,1.656-.374-1.138s-.217,1.248-.334,1.2-.517-2.019-.592-1.854l-.737,1.537a10.869,10.869,0,0,0-.318-1.741c-.072.137-.807,1.671-.879,1.52s-.373-2.294-.443-2.158-.975,1.915-.975,1.915l-.57-1.132-1.163,1.719-.95-.8-.371,2.008-.983-1.177-.229,2.342a7.75,7.75,0,0,0-1.418-.1c.011.086.49.89.383.938s-.9.217-.9.217l.529.811-.809-.033.254.95.486.056" transform="translate(-676.652 -2754.679)" fill="#d64076"/>
            <path id="패스_409" data-name="패스 409" d="M711.732,2758.948l-1.86,2.476,3.752,10.413,9.083-2.034s3.928-2.428,3.3-4.232l-.851.3.623-1.135-1.432.707.756-1.684-.95.759.592-1.283-1.088.615.376-1.651s-1.378,1.044-1.411.9a13.908,13.908,0,0,1,.4-1.612l-1.373,1.1.8-1.818-1.442.895.5-1.169s-.911.87-.952.76.973-1.978.824-1.894l-1.4.76a13.827,13.827,0,0,0,.91-1.616c-.124.061-1.527.823-1.473.652s1.23-2.1,1.1-2.04-1.779.91-1.779.91l.383-1.291-1.766.63-.05-1.27-1.483,1.383.166-1.6-1.615,1.743s-.712-1.087-.761-1.011-.281,1.043-.37,1.011-.665-.417-.665-.417l-.2,1-.456-.556-.45.938.252.361" transform="translate(-679.943 -2754.885)" fill="#c02c67"/>
            <path id="패스_410" data-name="패스 410" d="M714.328,2764.079l-6.38,8.779-9.584-4.159.759-4.39,1.887-2.775.1,1.692.868-1.955-.012,1.925,1.409-2.079s.022,2.174.183,2.007,1.073-1.87,1.073-1.87l.283,1.709.847-1.584s.249,2.389.379,2.153.884-2.013.884-2.013l-.146,1.785,1.238-.98.374,1.411.67-2.352.3,1.776.856-1.025.15,1.446,1.212-1.918-.065,1.732,1.518-1.2-.275,1.587,1.608-1.439-.239,1.4,1.04-.564Z" transform="translate(-677.969 -2755.783)" fill="#dd4d7d"/>
            <path id="패스_411" data-name="패스 411" d="M696.441,2776.658s-9.85-1.224-8.512-6.294c0,0-5.289-6.008-.065-10.368l-.233,1.474,1.037-1.388.637,1.191.437-1.4.157,1.182.762-1.641.491,1.318.67-1.563.259,1.291.644-1.189.292,1.011,1.1-1.417.767,1.067,1.06-1.286-.069,1.348.657-1.281-.094,1.016.684-.951.4.7.353-1.128.624,1.233.364-.938a8.493,8.493,0,0,1,1.707,5.647l-4.133,12.361" transform="translate(-675.773 -2755.31)" fill="#df6281"/>
            <path id="패스_412" data-name="패스 412" d="M702.754,2788.417" transform="translate(-678.722 -2760.465)" fill="#df618b"/>
            <path id="패스_413" data-name="패스 413" d="M697.11,2780.332s-14.284-12.549-17.032-11.226l1.434,1.416-2.418.117,1.347,1.35-2.068-.532.358,1.24-1.914-.723.625,2.171-2.942-.24.951,1.083-1.7-.365s2.015,13.065,11.3,8.211c0,0,6.889-3.443,10.672-1.028Z" transform="translate(-673.748 -2757.137)" fill="#d64076"/>
            <path id="패스_414" data-name="패스 414" d="M702.754,2788.417" transform="translate(-678.722 -2760.465)" fill="#df618b"/>
            <path id="패스_415" data-name="패스 415" d="M699.477,2778.827l-3.254,2.578s-8.541,2.678-12.177-2.321c0,0-5.29-2.992-5.248-7.582,0,0-2.758-2.492-1.617-3.678l1.705.413-.18-.926,1.286,1.276-.883-1.628,1.734,1.327-.327-1.909,1.819,1.828c-.858-.116-1.012-2.709-1.012-2.709a24.527,24.527,0,0,0,2.172,1.814,14.824,14.824,0,0,0,.381-2.212l.751,1.339,1.051-2.9.891,2.867,1.281-2.845,1.288,4.555.711-3.2,9.677,13.626" transform="translate(-674.289 -2756.199)" fill="#dd4d7d"/>
            <path id="패스_416" data-name="패스 416" d="M703.97,2783.5s19.4-14.467,21.771-12.865l-2,1.635,2.468.18-1.893,1.563,2.346-.586-.823,1.448,2.249-.817-1.438,2.534,3.144-.225-1.379,1.253,1.9-.4s-6.849,15.285-14.729,9.429c0,0-5.9-4.158-10.708-1.4Z" transform="translate(-678.931 -2757.395)" fill="#dd4e7f"/>
            <path id="패스_417" data-name="패스 417" d="M708.427,2770.08s5.233-5.056,7.93-4.173l-.726,1.741,1.93-1.19-.887,2.13,2.336-1.472-.971,2.322,1.848-1.451s.931,2.822.2,4.341c0,0-1.394,9.157-9.874,10.362l-6.857,1.518-.548-.455Z" transform="translate(-678.732 -2756.587)" fill="#df618b"/>
            <path id="패스_418" data-name="패스 418" d="M697.934,2782.528s-8.221-6.99-4.178-17.231l.6,2.111,1.273-2.518,1.018,2.772.98-2.549.892,2.476,1.225-2.242.47,2.852,1.455-2.636A20.4,20.4,0,0,0,703.48,2768s5.5,5.65,1.8,11.819a35.474,35.474,0,0,0-3.2,3.984l-2.209.984-1.934-2.262" transform="translate(-676.987 -2756.43)" fill="#e27e9e"/>
            <path id="패스_419" data-name="패스 419" d="M695.207,2784.288s-.51,10.849,3.085,11.61l4.166.466s4.374.679,6.375-9.56l.464-2.691s-3.407,4.578-4.1-.987c0,0-3.826,6.361-6.342-.356C698.858,2782.769,697.523,2787.51,695.207,2784.288Z" transform="translate(-677.424 -2759.496)" fill="#83c267"/>
            <path id="패스_420" data-name="패스 420" d="M697.007,2798.815s1.032,24.953-15.878,91.953l2.71.3s15.032-65.789,15.426-92Z" transform="translate(-675.014 -2762.248)" fill="#71a558"/>
          </g>
          <g id="그룹_250" data-name="그룹 250" transform="translate(55.846 75.493)">
            <path id="패스_421" data-name="패스 421" d="M696.556,2857.071l-.619,3.18-12.255,2.34-5.781-9.815s-1.143-5.12.959-5.551l.447.987.473-1.24.577,1.769.841-1.682.131,1.339.632-1.292.365,1.384,1.131-1.293s.238,1.9.393,1.854a11.032,11.032,0,0,0,1.077-1.3l.184,1.931.921-1.8.418,1.881.606-1.138s0,1.365.129,1.34.921-2.052.97-1.86.5,1.763.5,1.763a11.746,11.746,0,0,1,.655-1.787c.054.157.553,1.924.655,1.773s.818-2.364.872-2.207.679,2.211.679,2.211l.816-1.1.918,2.039,1.158-.672.023,2.2,1.259-1.066-.181,2.53a8.237,8.237,0,0,1,1.521.155c-.026.091-.684.854-.579.924s.923.4.923.4l-.713.762.867.118-.447.964-.527-.035" transform="translate(-655.443 -2846)" fill="#d64076"/>
            <path id="패스_422" data-name="패스 422" d="M676.051,2849.858l1.516,2.97-5.9,10.372-9.274-3.833s-3.727-3.3-2.729-5.1l.848.48-.454-1.321,1.4,1.013-.5-1.928.875.98-.4-1.47,1.046.851-.1-1.82s1.27,1.36,1.333,1.21a14.768,14.768,0,0,0-.131-1.787l1.259,1.418-.525-2.08,1.37,1.215-.318-1.331s.81,1.09.872.983-.669-2.278-.524-2.165,1.345,1.066,1.345,1.066a15.449,15.449,0,0,1-.671-1.884c.124.089,1.471,1.153,1.447.964s-.923-2.459-.8-2.371,1.718,1.294,1.718,1.294l-.164-1.442,1.756.991.289-1.339,1.323,1.741.114-1.727,1.394,2.149s.962-1.023,1-.934.1,1.159.208,1.139.78-.319.78-.319l.032,1.1.586-.509.3,1.08-.329.339" transform="translate(-652.34 -2845.798)" fill="#c02c67"/>
            <path id="패스_423" data-name="패스 423" d="M672.5,2854.682l5.161,10.5,10.946-2.656,0-4.8-1.494-3.294-.424,1.776-.561-2.236-.341,2.048-1.115-2.468s-.423,2.307-.564,2.1-.8-2.181-.8-2.181l-.61,1.764-.61-1.838s-.7,2.493-.8,2.218-.569-2.3-.569-2.3l-.173,1.922-1.137-1.269-.658,1.428-.278-2.617-.641,1.826-.719-1.241-.423,1.507-.939-2.26-.252,1.854-1.392-1.553v1.735l-1.443-1.825v1.537l-1-.791Z" transform="translate(-654.429 -2846.965)" fill="#dd4d7d"/>
            <path id="패스_424" data-name="패스 424" d="M689.462,2871.249s10.686.512,10.2-5.124c0,0,6.723-5.409,1.977-11l-.026,1.612-.845-1.665-.894,1.148-.212-1.565-.381,1.231-.51-1.886-.765,1.31-.423-1.782-.51,1.321-.466-1.379-.5,1.019-.911-1.708-1.013.99-.891-1.558-.17,1.444-.464-1.481-.089,1.1-.549-1.136-.554.668-.168-1.263-.894,1.2-.21-1.065a9.143,9.143,0,0,0-2.849,5.686l2.119,13.89" transform="translate(-657.116 -2846.783)" fill="#df6281"/>
            <path id="패스_425" data-name="패스 425" d="M684.118,2883.047" transform="translate(-656.563 -2852.186)" fill="#df618b"/>
            <path id="패스_426" data-name="패스 426" d="M686.033,2875.232s17.483-10.707,20.154-8.793l-1.78,1.239,2.542.569-1.679,1.187,2.3-.187-.608,1.255,2.167-.419-1.066,2.192,3.172.285-1.209.976,1.877-.076s-4.544,13.508-13.516,6.646c0,0-6.688-4.924-11.148-3.056Z" transform="translate(-656.891 -2849.299)" fill="#d64076"/>
            <path id="패스_427" data-name="패스 427" d="M684.118,2883.047" transform="translate(-656.563 -2852.186)" fill="#df618b"/>
            <path id="패스_428" data-name="패스 428" d="M683.82,2873.054l2.981,3.335s8.577,4.415,13.361-.225c0,0,6.171-2.209,6.969-7.089,0,0,3.387-2.141,2.392-3.611l-1.888.128.363-.952-1.6,1.12,1.241-1.568-2.089,1.091.694-1.968-2.266,1.606c.935.038,1.576-2.689,1.576-2.689a27.652,27.652,0,0,1-2.64,1.526,15.6,15.6,0,0,1,0-2.419l-1.046,1.282-.584-3.27-1.471,2.881-.838-3.252-2.21,4.6-.167-3.529-12.781,12.7" transform="translate(-656.511 -2848.059)" fill="#dd4d7d"/>
            <path id="패스_429" data-name="패스 429" d="M677.685,2876.79s-17.951-18.935-20.762-17.668l1.826,2.106-2.651-.261,1.718,2-2.377-1.055.606,1.691-2.241-1.282,1.063,2.957-3.3-.82,1.237,1.586-1.947-.775s4.462,17.5,13.911,12.723c0,0,7.033-3.332,11.627.485Z" transform="translate(-650.859 -2848.073)" fill="#dd4e7f"/>
            <path id="패스_430" data-name="패스 430" d="M677.4,2862.03s-4.63-6.333-7.652-5.889l.45,1.982-1.837-1.624.554,2.429-2.211-2,.6,2.647-1.7-1.882s-1.5,2.829-1.009,4.573c0,0-.205,9.984,8.585,12.825l7,2.873.665-.385Z" transform="translate(-653.197 -2847.568)" fill="#df618b"/>
            <path id="패스_431" data-name="패스 431" d="M686.835,2877.485s10.018-5.912,7.606-17.537l-1.02,2.135-.888-2.91-1.6,2.758-.571-2.886-1.4,2.466-.891-2.611-1.022,2.945-1.058-3.071a22.124,22.124,0,0,1-2.381,2.26s-6.882,4.991-4.085,12.221a37.8,37.8,0,0,1,2.673,4.823l2.162,1.451,2.473-2.045" transform="translate(-655.661 -2848.023)" fill="#e27e9e"/>
            <path id="패스_432" data-name="패스 432" d="M689.738,2879.749s-1.451,11.616-5.409,11.767l-4.514-.274s-4.766-.082-5.015-11.328l0-2.945s2.777,5.492,4.534-.292c0,0,2.891,7.457,6.8.783C686.141,2877.46,686.688,2882.743,689.738,2879.749Z" transform="translate(-654.965 -2851.094)" fill="#83c267"/>
            <path id="패스_433" data-name="패스 433" d="M683.854,2894.513s-5.717,26.707-.046,55l-2.933-.179s-4.156-30.672.533-54.97Z" transform="translate(-655.715 -2854.126)" fill="#83c267"/>
          </g>
        </g>
        <g id="그룹_254" data-name="그룹 254" transform="translate(0.043 87.675)">
          <path id="패스_434" data-name="패스 434" d="M723.656,2860.5v86.249H583.505V2860.5l46.839,27.7,23.237,13.742,23.365-13.816Z" transform="translate(-583.505 -2860.501)" fill="#f3d4dd"/>
          <g id="그룹_252" data-name="그룹 252" transform="translate(0 27.622)">
            <path id="패스_435" data-name="패스 435" d="M723.656,2948v4.469H583.505v-4.43l46.839-54.122.013-.015,46.589-.059h.22Z" transform="translate(-583.505 -2893.841)" fill="#efc2ce"/>
          </g>
          <g id="그룹_253" data-name="그룹 253" transform="translate(8.194 27.702)">
            <path id="패스_436" data-name="패스 436" d="M717.157,2952.489l-41.467-58.551H634.864L593.4,2952.489Z" transform="translate(-593.395 -2893.938)" fill="#f3d4dd"/>
          </g>
        </g>
      </g>
      <path id="패스_437" data-name="패스 437" d="M526.689,2845.7c-4.251-7.029-5.766-17.72-5.906-25.865-.08-4.757-2.99-14.92-9.962-10.075-4.463,3.1-3.828,8.448-3.275,13.021-3.6-2.112-7.114-4.825-11.227-5.843-3.572-.878-10.187.192-9.148,5.321,3.215,15.86,29.226,14.943,39.231,23.511" transform="translate(0 -9.227)" fill="#e27d9a"/>
      <path id="패스_438" data-name="패스 438" d="M804.075,2761.687a5.753,5.753,0,0,0-4.713.011,6.538,6.538,0,0,0-2.741,3.156c-.392.793-1.611,2.9-1.476,3.781-.473-3.1-.686-7.941-4.766-8.326-2.968-.278-3.818,2.185-4.084,4.427a12.916,12.916,0,0,0,1.951,7.75c1.837,3.394,2.107,6.984,3.365,10.509.128.359,3.767-4.3,4.05-4.6,1.775-1.865,3.985-3.28,5.67-5.233,2.322-2.688,5.811-6.012,4.1-10.075A2.8,2.8,0,0,0,804.075,2761.687Z" transform="translate(-51.303 -0.962)" fill="#dd5576"/>
      <path id="패스_439" data-name="패스 439" d="M806.654,2870.073c4.991-8.253,6.77-20.808,6.934-30.372.093-5.586,3.51-17.52,11.7-11.831,5.241,3.643,4.5,9.92,3.846,15.289,4.222-2.479,8.353-5.666,13.183-6.862,4.193-1.03,11.961.226,10.742,6.25-3.776,18.622-34.318,17.545-46.067,27.608" transform="translate(-54.806 -12.294)" fill="#e27d9a"/>
    </g>
  </g>
</svg>
