<svg xmlns="http://www.w3.org/2000/svg" width="148" height="90" viewBox="0 0 148 90">
  <g id="thumb05" transform="translate(-670 -330)">
    <rect id="사각형_8" data-name="사각형 8" width="148" height="90" rx="8" transform="translate(670 330)" fill="#dad7f4"/>
    <g id="그룹_285" data-name="그룹 285" transform="translate(-641.328 -2382.942)">
      <ellipse id="타원_8" data-name="타원 8" cx="26.531" cy="1.855" rx="26.531" ry="1.855" transform="translate(1358.529 2791.857)" fill="#45416d" opacity="0.31"/>
      <path id="패스_456" data-name="패스 456" d="M1675.225,2777.568a2.141,2.141,0,0,0,.134-1.681c-.243-.832-.851-.714-1.219-1.263-.253-.306.022-1.054-.16-1.521a1.775,1.775,0,0,0-1.169-1c-2.971-1.072-6.01,2.9-4.645,5.34.721,1.382,2.384,2.02,3.824,2.657.7.308,1.459.6,1.92-.069a1.791,1.791,0,0,0-.267-1.906,1.892,1.892,0,0,0,1.6-.6" transform="translate(-244.821 -39.378)" fill="#d18b8a"/>
      <path id="패스_457" data-name="패스 457" d="M1649,2743.688a1.761,1.761,0,0,0-1.381.091c-.647.3-.48.775-.882,1.138-.218.242-.859.107-1.217.31a1.454,1.454,0,0,0-.673,1.066c-.518,2.535,3.07,4.526,4.891,3.131,1.037-.749,1.359-2.172,1.7-3.416.167-.6.311-1.253-.284-1.548a1.472,1.472,0,0,0-1.517.443,1.547,1.547,0,0,0-.676-1.225" transform="translate(-229.292 -20.271)" fill="#d18b8a"/>
      <path id="패스_461" data-name="패스 461" d="M1425.793,2761.213a1.119,1.119,0,0,0-.855-.207c-.449.056-.438.378-.751.522-.178.105-.541-.1-.8-.043a.926.926,0,0,0-.611.518c-.8,1.439,1,3.328,2.369,2.827.772-.257,1.237-1.059,1.684-1.747.216-.333.427-.7.122-.993a.937.937,0,0,0-1-.02.985.985,0,0,0-.177-.871" transform="translate(-79.474 -32.012)" fill="#d18b8a"/>
      <path id="패스_462" data-name="패스 462" d="M1621.722,2823.715c3.564-2.669,9.8-5.783,13.363-1.779-2.673,3.114-9.315,3.031-12.879,2.142" transform="translate(-213.735 -71.806)" fill="#6c8f81"/>
      <path id="패스_463" data-name="패스 463" d="M1399.051,2783.271c-4.151-1.615-10.09-5.263-8.565-10.4,4.058.624,7.494,6.3,8.618,9.8" transform="translate(-57.67 -40.017)" fill="#6c8f81"/>
      <path id="패스_464" data-name="패스 464" d="M1706.309,2738.838c-.144-1.795.162-4.5,2.416-4.45.508,1.654-.976,3.245-2.11,4.054" transform="translate(-270.743 -14.07)" fill="#6c8f81"/>
      <g id="그룹_357" data-name="그룹 357" transform="translate(-0.535)">
        <path id="패스_450" data-name="패스 450" d="M1479.132,2821.5l8.984,9.349,30.511.4,8.092-9.275Z" transform="translate(-117.6 -72.803)" fill="#333762"/>
        <path id="패스_455" data-name="패스 455" d="M1548.11,2803.887l-5.191-.057.1-8.964c0-.091.285-.161.636-.158l3.924.043c.35,0,.633.081.632.171Z" transform="translate(-160.605 -54.74)" fill="#52569b"/>
        <g id="그룹_261" data-name="그룹 261" transform="translate(1370.627 2727.539)">
          <g id="그룹_259" data-name="그룹 259" transform="translate(13.693)">
            <path id="패스_451" data-name="패스 451" d="M1566.348,2767.541a3.018,3.018,0,0,1-.917,1.85c-3.052,3.468-9.66,6.848-13.584,3.911.487-.04,1.728.1,2.727-.011,2.371-.261,4.13-2.472,5.6-4.47.9-1.225,1.456-4.928,3-5.283C1564.644,2763.2,1566.371,2766.119,1566.348,2767.541Z" transform="translate(-1550.946 -2761.243)" fill="#3c3781"/>
            <path id="패스_452" data-name="패스 452" d="M1551.143,2763.633a20.281,20.281,0,0,1,4.015-4.813,7.559,7.559,0,0,1,5.622-2.243,1.515,1.515,0,0,1,.7.2,1.918,1.918,0,0,1,.544.664c.823,1.384,2.479,3.289,2.459,5.11a15.219,15.219,0,0,0-10.467,2.07c-2.319,1.4-3.9,4.227-4.129,4.2C1547.709,2768.582,1550.552,2764.614,1551.143,2763.633Z" transform="translate(-1549.078 -2756.555)" fill="#333762"/>
          </g>
          <g id="그룹_260" data-name="그룹 260" transform="translate(0 0.265)">
            <path id="패스_453" data-name="패스 453" d="M1507.048,2768.207a3.017,3.017,0,0,0,.877,1.869c2.975,3.534,9.509,7.056,13.495,4.2-.486-.051-1.73.062-2.725-.07-2.365-.312-4.076-2.561-5.5-4.591-.871-1.244-1.349-4.958-2.885-5.347C1508.847,2763.9,1507.056,2766.785,1507.048,2768.207Z" transform="translate(-1507.048 -2762.001)" fill="#3c3781"/>
            <path id="패스_454" data-name="패스 454" d="M1520.373,2764.644a20.3,20.3,0,0,0-3.909-4.9,7.56,7.56,0,0,0-5.573-2.364,1.521,1.521,0,0,0-.705.184,1.933,1.933,0,0,0-.559.653c-.853,1.366-2.549,3.234-2.569,5.055a15.215,15.215,0,0,1,10.419,2.3c2.288,1.451,3.807,4.311,4.036,4.29C1523.7,2769.666,1520.943,2765.638,1520.373,2764.644Z" transform="translate(-1507.055 -2757.368)" fill="#333762"/>
          </g>
        </g>
        <rect id="사각형_15" data-name="사각형 15" width="47.683" height="8.924" transform="matrix(1, 0.011, -0.011, 1, 1361.629, 2739.775)" fill="#95a6d3"/>
        <path id="패스_465" data-name="패스 465" d="M1450.064,2899.635s-9.816-10.335-23.612-1.855l-7.694,5.035,3.979,3.18s10.612-11.66,23.347-3.975Z" transform="translate(-76.896 -121.977)" fill="#333762"/>
        <g id="그룹_264" data-name="그룹 264" transform="translate(1370.394 2734.06)">
          <path id="패스_466" data-name="패스 466" d="M1530.619,2815.369c-7.2,11.434-13.57,22.3-21.194,33.461-1.224,1.768-4.676,6.849-2.246,4.4.829-.925,3.45-5.08,4.287-6.367,6.909-10.523,13.718-21.477,20.573-32.035" transform="translate(-1506.332 -2802.362)" fill="#6c8f81"/>
          <g id="그룹_263" data-name="그룹 263" transform="translate(20.425)">
            <path id="패스_467" data-name="패스 467" d="M1582.575,2786.278c0-3.666-5.247-.974-7.654-3.2-1.9-1.608-1.466-6.924-4.74-3.408-1.544,1.68-1.384,7.464-.44,10.878l-.13-.327c1.1,7.79,11.955,4.6,15.375,1.345C1587.9,2788.913,1588.034,2781.845,1582.575,2786.278Z" transform="translate(-1569.024 -2777.863)" fill="#edc4c2"/>
            <path id="패스_468" data-name="패스 468" d="M1577.446,2776.76c-3.975.473-1.549,2.778-1.34,5.13.077,1.945-1.281,3.94.553,5.459,1.637,1.257,3,.306,4.574,1.708,1.309.936,2.693,3.468,4.643,2.26,1.039-.575.708-1.593,1.225-2.4.841-1.185,1.1-.72,2.142-1.643,1.817-1.615,2.526-2.859.755-4.871-.461-.729-1.5-.851-2.029-1.434-.789-1.049-.992-2.357-1.714-3.2-2.233-2.74-4.172.21-7.242-.649" transform="translate(-1573.176 -2776.571)" fill="#d18b8a"/>
            <g id="그룹_262" data-name="그룹 262" transform="translate(7.899 4.494)">
              <path id="패스_469" data-name="패스 469" d="M1594.914,2790.712c-.451-.569-2.092-.494-1.529.63.5.719,1.457.271,1.579-.567" transform="translate(-1593.269 -2790.364)" fill="#723b26"/>
              <path id="패스_470" data-name="패스 470" d="M1601.041,2793.276c-.451-.569-2.093-.494-1.529.63.5.719,1.457.272,1.579-.567" transform="translate(-1597.4 -2792.093)" fill="#723b26"/>
              <path id="패스_471" data-name="패스 471" d="M1595.626,2797.1c-.45-.57-2.092-.495-1.529.63.5.719,1.457.272,1.579-.566" transform="translate(-1593.749 -2794.668)" fill="#723b26"/>
            </g>
          </g>
        </g>
        <g id="그룹_267" data-name="그룹 267" transform="translate(1365.647 2734.925)">
          <path id="패스_472" data-name="패스 472" d="M1518.4,2817.119c2.6,11.651,5.363,22.438,7.52,34.181.332,1.871,1.327,7.206,1.327,4.157-.055-1.1-1-5.334-1.272-6.662-2.212-10.9-4.755-22.01-7.023-32.9" transform="translate(-1509.723 -2803.949)" fill="#6c8f81"/>
          <g id="그룹_266" data-name="그룹 266">
            <path id="패스_473" data-name="패스 473" d="M1503.668,2786c-2.285-2.3-3.9,2.647-6.8,2.742-2.192.168-5.231-3.438-5.1.8.076,2.014,3.778,5.548,6.5,7.105l-.285-.125c5.542,4.209,10.37-4.538,10.494-8.7C1508.651,2784.347,1504.337,2779.822,1503.668,2786Z" transform="translate(-1491.762 -2781.73)" fill="#edc4c2"/>
            <path id="패스_474" data-name="패스 474" d="M1493.067,2784.092c-2.2,2.766.757,2.707,2.352,4.054,1.259,1.175,1.648,3.271,3.746,3.086,1.811-.227,2.076-1.672,3.937-1.768,1.405-.225,3.851.5,4.323-1.465.295-1.007-.547-1.44-.726-2.27-.21-1.267.245-1.138.323-2.363.135-2.143-.194-3.365-2.559-3.528-.743-.172-1.474.4-2.167.36-1.149-.169-2.09-.864-3.07-.947-3.108-.334-2.49,2.724-4.953,4.091" transform="translate(-1492.111 -2779.227)" fill="#d18b8a"/>
            <g id="그룹_265" data-name="그룹 265" transform="translate(6.133 3.792)">
              <path id="패스_475" data-name="패스 475" d="M1511.618,2793.065c-.638-.077-1.622.989-.568,1.346.764.139,1.084-.734.639-1.337" transform="translate(-1510.586 -2792.346)" fill="#723b26"/>
              <path id="패스_476" data-name="패스 476" d="M1517.063,2790.87c-.637-.077-1.622.99-.568,1.346.764.139,1.084-.734.639-1.337" transform="translate(-1514.257 -2790.866)" fill="#723b26"/>
              <path id="패스_477" data-name="패스 477" d="M1516.04,2796.635c-.638-.078-1.622.989-.568,1.345.764.139,1.084-.734.639-1.336" transform="translate(-1513.567 -2794.753)" fill="#723b26"/>
            </g>
          </g>
        </g>
        <g id="그룹_270" data-name="그룹 270" transform="translate(1354.181 2744.295)">
          <path id="패스_478" data-name="패스 478" d="M1481.2,2833.642c7.255,4.614,14.154,8.7,21.23,13.589,1.122.784,4.344,3,2.792,1.443-.586-.53-3.222-2.21-4.039-2.747-6.676-4.428-13.626-8.794-20.324-13.188" transform="translate(-1472.947 -2824.675)" fill="#6c8f81"/>
          <g id="그룹_269" data-name="그룹 269" transform="translate(0)">
            <path id="패스_479" data-name="패스 479" d="M1462.7,2810.782c-2.334-.01-.64,3.33-2.068,4.852-1.031,1.2-4.415.906-2.188,3,1.064.987,4.748.907,6.926.319l-.208.081c4.965-.671,2.971-7.578.913-9.763C1464.395,2807.411,1459.894,2807.3,1462.7,2810.782Z" transform="translate(-1457.328 -2807.988)" fill="#edc4c2"/>
            <path id="패스_480" data-name="패스 480" d="M1456.662,2816.782c.286,2.527,1.764.994,3.262.87,1.239-.041,2.5.829,3.478-.331.807-1.036.207-1.906,1.105-2.9.6-.829,2.218-1.7,1.456-2.942-.362-.662-1.011-.456-1.525-.787-.752-.539-.454-.7-1.038-1.367-1.022-1.16-1.812-1.615-3.1-.5-.466.29-.547.953-.92,1.284-.671.5-1.5.622-2.046,1.077-1.753,1.409.118,2.652-.44,4.6" transform="translate(-1456.566 -2808.121)" fill="#d18b8a"/>
            <g id="그룹_268" data-name="그룹 268" transform="translate(2.853 4.031)">
              <path id="패스_481" data-name="패스 481" d="M1465.549,2824.273c-.364.285-.322,1.327.4.974.46-.317.178-.925-.355-1.005" transform="translate(-1465.324 -2822.977)" fill="#723b26"/>
              <path id="패스_482" data-name="패스 482" d="M1467.2,2820.39c-.364.284-.323,1.328.4.974.46-.317.178-.925-.355-1.005" transform="translate(-1466.441 -2820.359)" fill="#723b26"/>
              <path id="패스_483" data-name="패스 483" d="M1469.618,2823.845c-.365.284-.323,1.327.4.974.46-.317.178-.925-.355-1.005" transform="translate(-1468.068 -2822.688)" fill="#723b26"/>
            </g>
          </g>
        </g>
        <rect id="사각형_16" data-name="사각형 16" width="41.947" height="35.339" transform="matrix(1, 0.011, -0.011, 1, 1364.496, 2757.827)" fill="#6167a6"/>
        <path id="패스_484" data-name="패스 484" d="M1540.616,2901.2h4.776s5.306-13.383,15.918-18.816c4.452-2.279,9.53-2.116,14.382-2.546a56.724,56.724,0,0,0,12.681-2.754l-.531-4.107a175.184,175.184,0,0,1-20.558,2.971,23.666,23.666,0,0,0-10.044,2.711,29.7,29.7,0,0,0-8.67,6.484c-3.586,4.066-6.469,11.508-8.882,16.321" transform="translate(-158.427 -107.505)" fill="#333762"/>
        <path id="패스_485" data-name="패스 485" d="M1548.37,2809.579l-1.631,2.863c.089-.028.175-.058.265-.088-.031-.317.471-.849,3.691-2.023a1.3,1.3,0,0,1,1.37.334c.176.371-.121.706-.417.9-1.2.792-4.143,1.442-4.575.956l-.466.156-.633,1.111-.166-.09.63-1.1a.059.059,0,0,1,.038-.065l.082-.146c-.041-.125-.079-.248-.121-.373-.012,0-.027,0-.041,0-.515-.026-1.2-2.511-1.3-4.194-.007-.138-.01-.275-.007-.4,0-.107,0-.207.011-.3.027-.376.171-.814.556-.809a.686.686,0,0,1,.368.214,1.765,1.765,0,0,1,.221.254,1.639,1.639,0,0,1,.294.722c.416,3.3.281,4.214.05,4.445l.075.252,1.582-2.772c-.034-.133-.062-.265-.1-.4l-.054,0c-.4-.023-.9-1.52-1.153-2.977-.025-.154-.05-.309-.069-.459a7.255,7.255,0,0,1-.071-1.464,1.466,1.466,0,0,1,.1-.45.486.486,0,0,1,.456-.355.313.313,0,0,1,.139.046,1.444,1.444,0,0,1,.534.555,1.56,1.56,0,0,1,.17.391,1.449,1.449,0,0,1,.038.2c.41,3.248.288,4.186.062,4.433.023.088.042.178.065.266l1.558-2.734a.049.049,0,0,1,.019-.034c-.049-.132-.095-.265-.135-.4,0,0-.007,0-.008,0-.489-.024-1.126-2.239-1.277-3.9a6.254,6.254,0,0,1-.019-1,1.789,1.789,0,0,1,.025-.192c.06-.3.2-.592.492-.611v0c.014,0,.027,0,.04,0a1.454,1.454,0,0,1,.881,1.189q.029.239.058.462c.359,3.048.2,3.829-.035,4.005.027.091.053.178.083.265l1.018-1.785a5.11,5.11,0,0,1,.489-2.494,11.671,11.671,0,0,1,2.018-3.524,1.151,1.151,0,0,1,1.427-.392,1.772,1.772,0,0,1,.2,2c-.51.893-.951,1.622-1.335,2.222-1.718,2.672-2.3,2.68-2.641,2.449a.316.316,0,0,1-.064-.055l-.956,1.675c.069-.018.137-.041.206-.062.075-.329.754-.863,3.681-1.929a1.3,1.3,0,0,1,1.371.332c.175.371-.123.705-.416.9-1.236.82-4.317,1.483-4.606.914a.329.329,0,0,1-.015-.031c-.091.027-.184.059-.275.086,0,.052-.048.073-.1.062l-1.576,2.766.221-.045c0-.321.565-.854,3.692-1.993a1.29,1.29,0,0,1,1.371.332c.175.37-.123.705-.417.9-1.22.805-4.228,1.46-4.592.932-.122.025-.244.05-.368.072A.057.057,0,0,1,1548.37,2809.579Z" transform="translate(-162.069 -56.91)" fill="#6c8f81"/>
        <g id="그룹_271" data-name="그룹 271" transform="translate(1365.82 2755.757)">
          <path id="패스_486" data-name="패스 486" d="M1525.718,2853.109l.865.339,3.957-10.246-.915-.034Z" transform="translate(-1514.829 -2843.169)" fill="#3d1b16"/>
          <rect id="사각형_17" data-name="사각형 17" width="17.955" height="12.393" transform="translate(0 20.3) rotate(-68.586)" fill="#fff"/>
        </g>
      </g>
      <g id="그룹_284" data-name="그룹 284" transform="translate(1350.218 2724.362)">
        <g id="그룹_278" data-name="그룹 278" transform="translate(0 5.633)">
          <path id="패스_487" data-name="패스 487" d="M1447.92,2771.905a3.46,3.46,0,0,1-.94.835,1.209,1.209,0,0,1-1.206.01,1.225,1.225,0,0,1-.321-1.476,3.583,3.583,0,0,1,1.053-1.236,3.119,3.119,0,0,1-1.5-.29,1.07,1.07,0,0,1-.53-1.3,1.408,1.408,0,0,1,.519-.522,7.209,7.209,0,0,1,2.264-1.01c-.479.043-.794-.579-.633-1.032a1.91,1.91,0,0,1,1.034-.951,10.174,10.174,0,0,1,5.165-.807c1.988,4.023-.234,6.7-.65,6.927a.931.931,0,0,1-1.233-.305,3.776,3.776,0,0,1-.594,2.139,1.433,1.433,0,0,1-.913.714,1.186,1.186,0,0,1-1.086-.545,3.494,3.494,0,0,1-.458-1.187" transform="translate(-1444.405 -2764.093)" fill="#8cb0ab"/>
          <g id="그룹_277" data-name="그룹 277" transform="translate(2.177 0.623)">
            <g id="그룹_272" data-name="그룹 272">
              <path id="패스_488" data-name="패스 488" d="M1451.115,2772.78l.282-.253c.091-.079.2-.178.318-.294s.258-.245.4-.391.3-.306.463-.478.329-.356.5-.548.343-.395.514-.6.338-.426.508-.641.334-.435.491-.654l.466-.639.813-1.142c.121-.166.231-.319.329-.453s.188-.251.261-.346c.146-.193.236-.3.236-.3h0a.087.087,0,0,1,.146.091s-.054.128-.162.346c-.052.11-.123.239-.2.387s-.177.313-.29.488-.236.363-.371.56-.286.4-.442.6-.323.418-.5.625-.355.419-.538.628-.371.412-.559.608-.37.394-.549.581l-.525.532c-.167.168-.327.326-.477.468-.294.292-.549.527-.724.692l-.276.259a.086.086,0,1,1-.118-.125Z" transform="translate(-1451.087 -2766.006)" fill="#fff"/>
            </g>
            <g id="그룹_273" data-name="그룹 273" transform="translate(2.535 4.278)">
              <path id="패스_489" data-name="패스 489" d="M1459.037,2779.206s.008.04.025.108.043.17.066.289c.015.06.028.125.043.194s.029.142.044.217c.028.152.06.315.085.48.01.083.022.167.025.248a2.42,2.42,0,0,1,0,.242,1.89,1.89,0,0,1-.058.424,1.029,1.029,0,0,1-.187.384.1.1,0,0,1-.137.009.092.092,0,0,1-.029-.047v0a.752.752,0,0,1-.019-.115,1.98,1.98,0,0,1-.007-.288c0-.058.008-.121.016-.187s.016-.135.027-.207c.018-.145.038-.3.058-.454a3.247,3.247,0,0,0,.021-.463,2.933,2.933,0,0,0-.043-.4,2.468,2.468,0,0,0-.066-.278c-.02-.067-.034-.105-.034-.105a.086.086,0,0,1,.162-.058A.035.035,0,0,1,1459.037,2779.206Z" transform="translate(-1458.866 -2779.136)" fill="#fff"/>
            </g>
            <g id="그룹_274" data-name="그룹 274" transform="translate(0.056 3.265)">
              <path id="패스_490" data-name="패스 490" d="M1454.414,2776.357s-.047-.015-.131-.036a1.116,1.116,0,0,0-.149-.031c-.057-.011-.121-.022-.194-.029a2.956,2.956,0,0,0-.495-.01,4.009,4.009,0,0,0-.562.082l-.555.122c-.178.038-.344.073-.49.089a2.248,2.248,0,0,1-.36.015,1.082,1.082,0,0,1-.141-.013h0a.093.093,0,0,1-.036-.167,1.684,1.684,0,0,1,.461-.209,3.205,3.205,0,0,1,.5-.1c.094-.011.191-.024.29-.029s.2-.007.3-.009.2,0,.3.007.2.011.292.014.186.013.272.023.167.017.241.03c.149.016.278.045.361.061s.133.026.133.026a.086.086,0,1,1-.029.17Z" transform="translate(-1451.259 -2776.029)" fill="#fff"/>
            </g>
            <g id="그룹_275" data-name="그룹 275" transform="translate(4.78 1.289)">
              <path id="패스_491" data-name="패스 491" d="M1465.93,2770.036s.005.038.019.1.035.162.059.276l.191.841c.015.078.033.155.043.232s.02.153.026.227a1.972,1.972,0,0,1-.008.4,1.023,1.023,0,0,1-.128.385.1.1,0,0,1-.135.029.1.1,0,0,1-.035-.04l0,0a.636.636,0,0,1-.036-.107,1.537,1.537,0,0,1-.048-.276,3.483,3.483,0,0,1,0-.384c0-.14.013-.291.022-.443a3.976,3.976,0,0,0,0-.448,3.462,3.462,0,0,0-.045-.388c-.022-.112-.04-.2-.059-.269s-.029-.1-.029-.1a.086.086,0,0,1,.055-.109.087.087,0,0,1,.109.055A.128.128,0,0,1,1465.93,2770.036Z" transform="translate(-1465.758 -2769.963)" fill="#fff"/>
            </g>
            <g id="그룹_276" data-name="그룹 276" transform="translate(1.042 1.204)">
              <path id="패스_492" data-name="패스 492" d="M1457.8,2770.25a1.235,1.235,0,0,0-.132-.061,1.884,1.884,0,0,0-.371-.1,4.1,4.1,0,0,0-.552-.049c-.207-.006-.424,0-.642.017l-.637.044c-.2.01-.392.026-.555.021a3.063,3.063,0,0,1-.4-.025,1.245,1.245,0,0,1-.154-.027h0a.092.092,0,0,1-.065-.113.1.1,0,0,1,.045-.058,1.262,1.262,0,0,1,.147-.061,2.089,2.089,0,0,1,.4-.1,3.534,3.534,0,0,1,.572-.035,5.674,5.674,0,0,1,.657.045c.222.027.444.061.65.089s.4.054.566.093a2.9,2.9,0,0,1,.4.109c.1.036.147.056.147.056l.005,0a.086.086,0,0,1,.046.113.087.087,0,0,1-.114.045Z" transform="translate(-1454.285 -2769.702)" fill="#fff"/>
            </g>
          </g>
        </g>
        <g id="그룹_283" data-name="그룹 283" transform="translate(4.795)">
          <path id="패스_493" data-name="패스 493" d="M1464.956,2749.234c2.056-3.092-3.677-3.232-2.664-.434-.529-1.1-2.781-1.592-3.149.011-.219,1.163,1.317,2.254,2.324,2.242-3.025,1.84.866,5.715,2.3,2.372.362,4.483,7.1,2.136,3.756-1.1,1.125-.993,2.585-1.989,1.377-3.755-.97-1.252-2.64-.563-3.74.3" transform="translate(-1459.121 -2746.803)" fill="#fff"/>
          <g id="그룹_282" data-name="그룹 282" transform="translate(2.67 2.323)">
            <g id="그룹_279" data-name="그룹 279" transform="translate(1.162)">
              <path id="패스_494" data-name="패스 494" d="M1473.251,2754.167a2.294,2.294,0,0,0-1.787-.084,1.378,1.378,0,0,0-.527,1.624c.025.124.221.095.2-.03-.108-.524-.1-1.162.445-1.43a2.105,2.105,0,0,1,1.6.1.1.1,0,0,0,.073-.184Z" transform="translate(-1470.882 -2753.935)" fill="#cfa093"/>
            </g>
            <g id="그룹_280" data-name="그룹 280" transform="translate(0 1.196)">
              <path id="패스_495" data-name="패스 495" d="M1470.647,2757.8a1.887,1.887,0,0,1,1.369,1.725,1.174,1.174,0,0,1-1.358,1.117,4.594,4.594,0,0,1-1.819-.521,2.415,2.415,0,0,1-1.287-1.223.991.991,0,0,1,.115-.822c.065-.109-.093-.228-.158-.119-.7,1.187.669,2.119,1.624,2.515a4.234,4.234,0,0,0,1.74.366,1.328,1.328,0,0,0,1.329-1.135,2.049,2.049,0,0,0-1.483-2.087c-.121-.036-.194.147-.073.184Z" transform="translate(-1467.316 -2757.607)" fill="#cfa093"/>
            </g>
            <g id="그룹_281" data-name="그룹 281" transform="translate(0.692 2.129)">
              <path id="패스_496" data-name="패스 496" d="M1469.479,2760.649a5.928,5.928,0,0,0,1.854,1.12,1.537,1.537,0,0,0,.965.017,1.371,1.371,0,0,0,.739-.772c.053-.115-.131-.187-.184-.073-.7,1.518-2.416.219-3.256-.45-.1-.08-.218.078-.119.158Z" transform="translate(-1469.441 -2760.47)" fill="#cfa093"/>
            </g>
            <path id="패스_497" data-name="패스 497" d="M1475.463,2759.242c-.13.117-.448-.024-.712-.315s-.372-.621-.243-.739.448.024.712.315S1475.593,2759.125,1475.463,2759.242Z" transform="translate(-1472.128 -2756.775)" fill="#807444"/>
          </g>
        </g>
      </g>
    </g>
  </g>
</svg>
