<svg xmlns="http://www.w3.org/2000/svg" xmlns:xlink="http://www.w3.org/1999/xlink" width="148" height="90" viewBox="0 0 148 90">
  <defs>
    <radialGradient id="radial-gradient" cx="0.5" cy="0.5" r="0.965" gradientTransform="translate(0.303) scale(0.394 1)" gradientUnits="objectBoundingBox">
      <stop offset="0.574" stop-color="#181415"/>
      <stop offset="0.798" stop-color="#181415"/>
      <stop offset="1" stop-color="#181415"/>
    </radialGradient>
    <clipPath id="clip-path">
      <path id="패스_297" data-name="패스 297" d="M630.71,3712.539s-.21,2.12-2.154,2.12-1.943-2.12-1.943-2.12v-20.1h4.1Z" transform="translate(-626.613 -3692.441)" fill="none"/>
    </clipPath>
    <clipPath id="clip-path-2">
      <path id="패스_308" data-name="패스 308" d="M562.093,3754.62s-.215-1.073.288-1.008c0,0,.072.432.936.865s4.106.5,4.177-.865c0,0,.144-.072.144,1.008s-.936,1.945-2.593,2.017C564.156,3756.675,561.733,3756.061,562.093,3754.62Z" transform="translate(-562.047 -3753.609)" fill="none"/>
    </clipPath>
    <clipPath id="clip-path-3">
      <path id="패스_318" data-name="패스 318" d="M590.241,3777.762s-.235-1.173.315-1.1c0,0,.079.472,1.024.945s4.491.552,4.57-.945c0,0,.157-.079.157,1.1s-1.024,2.127-2.836,2.206C592.5,3780.01,589.847,3779.338,590.241,3777.762Z" transform="translate(-590.191 -3776.656)" fill="none"/>
    </clipPath>
    <clipPath id="clip-path-4">
      <path id="패스_328" data-name="패스 328" d="M644.385,3780.1s-.235-1.173.315-1.1c0,0,.079.473,1.024.946s4.491.552,4.57-.946c0,0,.157-.079.157,1.1s-1.024,2.128-2.836,2.206C646.642,3782.349,643.991,3781.677,644.385,3780.1Z" transform="translate(-644.335 -3778.995)" fill="none"/>
    </clipPath>
    <clipPath id="clip-path-5">
      <path id="패스_338" data-name="패스 338" d="M683.986,3761.693s-.211-1.052.282-.989c0,0,.071.424.919.848s4.028.494,4.1-.848c0,0,.141-.07.141.989s-.919,1.908-2.544,1.979C686.01,3763.71,683.632,3763.106,683.986,3761.693Z" transform="translate(-683.941 -3760.701)" fill="none"/>
    </clipPath>
    <clipPath id="clip-path-6">
      <path id="패스_348" data-name="패스 348" d="M602.79,3737.808s-.2-1.005.27-.945c0,0,.068.405.878.81s3.849.473,3.916-.81c0,0,.135-.068.135.945s-.878,1.823-2.431,1.891C604.724,3739.735,602.453,3739.159,602.79,3737.808Z" transform="translate(-602.747 -3736.86)" fill="none"/>
    </clipPath>
    <clipPath id="clip-path-7">
      <path id="패스_358" data-name="패스 358" d="M650.249,3739.479s-.2-1.005.27-.945c0,0,.068.405.878.81s3.849.473,3.916-.81c0,0,.135-.068.135.945s-.878,1.823-2.431,1.891C652.184,3741.406,649.912,3740.829,650.249,3739.479Z" transform="translate(-650.207 -3738.531)" fill="none"/>
    </clipPath>
    <clipPath id="clip-path-8">
      <path id="패스_368" data-name="패스 368" d="M602.61,3745.126c0,6.125-10.995,11.09-24.557,11.09s-24.557-4.966-24.557-11.09,10.995-11.09,24.557-11.09S602.61,3739,602.61,3745.126Z" transform="translate(-553.496 -3734.036)" fill="none"/>
    </clipPath>
  </defs>
  <g id="thumb01" transform="translate(-18 -330)">
    <g data-type="innerShadowGroup">
      <rect id="사각형_4" data-name="사각형 4" width="148" height="90" rx="8" transform="translate(18 330)" fill="#d8f8be"/>
    </g>
    <g id="그룹_354" data-name="그룹 354" transform="translate(-415.51 -3314.462)">
      <g id="L" transform="translate(4)">
        <g id="그룹_178" data-name="그룹 178" transform="translate(470.298 3665.083)">
          <path id="패스_250" data-name="패스 250" d="M527.787,3687.921a1.535,1.535,0,0,1-1.267.363l-.309-.178a.629.629,0,0,1-.24-.988q1.1-.821,1.517-.583l.309.178Q528.1,3687.651,527.787,3687.921Z" transform="translate(-525.828 -3686.482)" fill="#e48bdf"/>
        </g>
        <g id="그룹_179" data-name="그룹 179" transform="translate(456.066 3666.01)">
          <path id="패스_251" data-name="패스 251" d="M481.88,3689.483a1.3,1.3,0,0,0,.215.017.763.763,0,0,1,.394.072l.108.107.108.107a.353.353,0,0,1,.09.126.351.351,0,0,0,.09.125,2.264,2.264,0,0,1,.2.448,1.477,1.477,0,0,1,.018.7,2.249,2.249,0,0,1-1.184.825.221.221,0,0,1-.161.071.613.613,0,0,1-.269-.107q-.071,0-.143-.144a.344.344,0,0,0-.162-.179.475.475,0,0,1-.161-.108.988.988,0,0,0-.216-.717c-.167-.12-.251-.2-.251-.251a1.711,1.711,0,0,1,.108-.467,4.736,4.736,0,0,1,.25-.61,2.481,2.481,0,0,1,.467-.072,1.66,1.66,0,0,1,.323.036A1.075,1.075,0,0,1,481.88,3689.483Z" transform="translate(-480.552 -3689.429)" fill="#d2375b"/>
        </g>
        <g id="그룹_180" data-name="그룹 180" transform="translate(465.87 3671.521)">
          <path id="패스_252" data-name="패스 252" d="M512.575,3707a.834.834,0,0,0,.135.011.483.483,0,0,1,.248.045l.067.068.068.067a.223.223,0,0,1,.056.079.221.221,0,0,0,.056.079,1.414,1.414,0,0,1,.124.281.93.93,0,0,1,.011.439,1.408,1.408,0,0,1-.743.517.138.138,0,0,1-.1.045.386.386,0,0,1-.169-.067c-.03,0-.06-.03-.09-.09a.215.215,0,0,0-.1-.112.3.3,0,0,1-.1-.068.62.62,0,0,0-.135-.45c-.1-.075-.157-.127-.157-.157a1.066,1.066,0,0,1,.068-.292,2.969,2.969,0,0,1,.157-.383,1.548,1.548,0,0,1,.293-.045,1.048,1.048,0,0,1,.2.023A.652.652,0,0,1,512.575,3707Z" transform="translate(-511.742 -3706.961)" fill="#fff"/>
        </g>
        <g id="그룹_181" data-name="그룹 181" transform="translate(469.375 3656.717)">
          <path id="패스_253" data-name="패스 253" d="M523.727,3659.9a.786.786,0,0,0,.135.011.481.481,0,0,1,.247.045l.068.067.068.068a.215.215,0,0,1,.056.079.227.227,0,0,0,.056.078,1.4,1.4,0,0,1,.124.281.92.92,0,0,1,.011.439,1.407,1.407,0,0,1-.743.518.138.138,0,0,1-.1.045.38.38,0,0,1-.169-.068c-.03,0-.06-.03-.09-.09a.218.218,0,0,0-.1-.112.3.3,0,0,1-.1-.067.62.62,0,0,0-.135-.45c-.1-.075-.157-.127-.157-.158a1.075,1.075,0,0,1,.068-.293,2.969,2.969,0,0,1,.157-.383,1.562,1.562,0,0,1,.293-.045,1.029,1.029,0,0,1,.2.022A.727.727,0,0,1,523.727,3659.9Z" transform="translate(-522.894 -3659.864)" fill="#fff"/>
        </g>
        <g id="그룹_182" data-name="그룹 182" transform="translate(452.746 3677.395)">
          <path id="패스_254" data-name="패스 254" d="M470.819,3725.684a.782.782,0,0,0,.135.011.482.482,0,0,1,.248.045l.068.068.067.067a.217.217,0,0,1,.056.079.218.218,0,0,0,.056.079,1.438,1.438,0,0,1,.124.281.93.93,0,0,1,.011.439,1.411,1.411,0,0,1-.743.517.138.138,0,0,1-.1.045.384.384,0,0,1-.169-.068q-.045,0-.09-.09a.217.217,0,0,0-.1-.113.294.294,0,0,1-.1-.067.619.619,0,0,0-.135-.45c-.1-.075-.158-.127-.158-.157a1.069,1.069,0,0,1,.068-.293,3.027,3.027,0,0,1,.157-.383,1.555,1.555,0,0,1,.293-.045,1.065,1.065,0,0,1,.2.022A.73.73,0,0,1,470.819,3725.684Z" transform="translate(-469.986 -3725.65)" fill="#c5c5f6"/>
        </g>
        <g id="그룹_183" data-name="그룹 183" transform="translate(476.062 3663.627)">
          <path id="패스_255" data-name="패스 255" d="M544.994,3681.882a.781.781,0,0,0,.135.011.476.476,0,0,1,.246.045l.067.067.068.067a.229.229,0,0,1,.056.079.214.214,0,0,0,.056.078,1.427,1.427,0,0,1,.123.28.93.93,0,0,1,.011.437,1.4,1.4,0,0,1-.74.515.136.136,0,0,1-.1.045.383.383,0,0,1-.168-.067c-.03,0-.059-.03-.09-.09a.217.217,0,0,0-.1-.112.3.3,0,0,1-.1-.067.619.619,0,0,0-.135-.448c-.1-.075-.156-.127-.156-.157a1.076,1.076,0,0,1,.067-.291,3,3,0,0,1,.157-.38,1.537,1.537,0,0,1,.291-.045,1.075,1.075,0,0,1,.2.022A.746.746,0,0,1,544.994,3681.882Z" transform="translate(-544.166 -3681.849)" fill="#fff"/>
        </g>
        <g id="그룹_184" data-name="그룹 184" transform="translate(444.844 3698.894)">
          <path id="패스_256" data-name="패스 256" d="M445.672,3794.084a.778.778,0,0,0,.134.011.481.481,0,0,1,.246.045l.067.067.068.067a.234.234,0,0,1,.056.079.213.213,0,0,0,.056.078,1.46,1.46,0,0,1,.123.28.927.927,0,0,1,.011.437,1.4,1.4,0,0,1-.739.515.137.137,0,0,1-.1.045.388.388,0,0,1-.168-.067c-.03,0-.059-.03-.089-.09a.218.218,0,0,0-.1-.112.3.3,0,0,1-.1-.067.616.616,0,0,0-.134-.447c-.1-.075-.157-.127-.157-.158a1.076,1.076,0,0,1,.067-.291,2.979,2.979,0,0,1,.157-.38,1.544,1.544,0,0,1,.291-.045,1.059,1.059,0,0,1,.2.022A.718.718,0,0,1,445.672,3794.084Z" transform="translate(-444.844 -3794.051)" fill="#fff"/>
        </g>
        <g id="그룹_185" data-name="그룹 185" transform="translate(453.764 3655.383)">
          <path id="패스_257" data-name="패스 257" d="M474.051,3655.653a.755.755,0,0,0,.134.011.478.478,0,0,1,.246.045l.067.067.068.067a.227.227,0,0,1,.056.079.212.212,0,0,0,.056.078,1.439,1.439,0,0,1,.123.28.921.921,0,0,1,.011.437,1.4,1.4,0,0,1-.739.515.137.137,0,0,1-.1.045.385.385,0,0,1-.168-.067c-.03,0-.059-.029-.09-.089a.217.217,0,0,0-.1-.112.3.3,0,0,1-.1-.067.617.617,0,0,0-.134-.448c-.1-.075-.157-.127-.157-.157a1.08,1.08,0,0,1,.067-.291,2.928,2.928,0,0,1,.157-.38,1.523,1.523,0,0,1,.291-.045,1.076,1.076,0,0,1,.2.022A.749.749,0,0,1,474.051,3655.653Z" transform="translate(-473.223 -3655.62)" fill="#ebc5c5"/>
        </g>
        <g id="그룹_186" data-name="그룹 186" transform="translate(457.813 3699.218)">
          <path id="패스_258" data-name="패스 258" d="M487.091,3795.419a.385.385,0,0,1,.011-.09.372.372,0,0,0,.011-.089.32.32,0,0,1,.1-.1.2.2,0,0,1,.079-.034.252.252,0,0,1,.112-.022.948.948,0,0,1,.515.156.612.612,0,0,1,.269.515l.045.09a.2.2,0,0,1,.023.09.564.564,0,0,1,.033.078.176.176,0,0,1,.011.056,1.366,1.366,0,0,1-.011.179,1.409,1.409,0,0,1-.033.179,1.025,1.025,0,0,1-.023.2,1.183,1.183,0,0,0-.022.224c0,.194-.119.314-.358.358a3.206,3.206,0,0,1-.493.067.982.982,0,0,1-.257-.034.908.908,0,0,1-.257-.123c-.09-.045-.183-.1-.28-.156l-.325-.2a.364.364,0,0,0-.022-.112c-.014-.045-.03-.09-.045-.134l-.045-.09a.2.2,0,0,1-.022-.089.881.881,0,0,1,.19-.571A1.342,1.342,0,0,1,487.091,3795.419Z" transform="translate(-486.105 -3795.084)" fill="#d2375b"/>
        </g>
        <g id="그룹_187" data-name="그룹 187" transform="translate(460.135 3690.174)">
          <path id="패스_259" data-name="패스 259" d="M495.825,3767.425a1.041,1.041,0,0,1-.728,1h-.437a1.132,1.132,0,0,1-1.165-.781q.145-1.339.728-1.339h.437Q495.825,3767.013,495.825,3767.425Z" transform="translate(-493.495 -3766.309)" fill="#6fb0b1"/>
        </g>
        <g id="그룹_188" data-name="그룹 188" transform="translate(449.955 3714.126)">
          <path id="패스_260" data-name="패스 260" d="M463.437,3843.63a1.04,1.04,0,0,1-.728,1h-.437a1.132,1.132,0,0,1-1.165-.781q.146-1.339.728-1.339h.437Q463.437,3843.219,463.437,3843.63Z" transform="translate(-461.107 -3842.514)" fill="#6fb0b1"/>
        </g>
        <g id="그룹_190" data-name="그룹 190" transform="translate(466.802 3693.583)">
          <g id="그룹_189" data-name="그룹 189">
            <path id="패스_261" data-name="패스 261" d="M516.662,3778.09a.873.873,0,0,1-.611.843h-.367a.95.95,0,0,1-.978-.655q.122-1.124.611-1.124h.367Q516.662,3777.745,516.662,3778.09Z" transform="translate(-514.706 -3777.154)" fill="#fdfb86"/>
          </g>
        </g>
        <g id="그룹_192" data-name="그룹 192" transform="translate(457.201 3709.807)">
          <g id="그룹_191" data-name="그룹 191">
            <path id="패스_262" data-name="패스 262" d="M486.116,3829.71a.873.873,0,0,1-.611.843h-.366a.951.951,0,0,1-.978-.656q.122-1.124.611-1.124h.367Q486.116,3829.365,486.116,3829.71Z" transform="translate(-484.16 -3828.774)" fill="#fdfb86"/>
          </g>
        </g>
        <g id="그룹_193" data-name="그룹 193" transform="translate(462.601 3682.936)">
          <path id="패스_263" data-name="패스 263" d="M503.932,3744.312q0,.644-.81.928h-.486a1.278,1.278,0,0,1-1.3-.722q.162-1.237.811-1.237h.486Q503.932,3743.932,503.932,3744.312Z" transform="translate(-501.339 -3743.281)" fill="#e48bdf"/>
        </g>
      </g>
      <g id="R" transform="translate(-3)">
        <g id="그룹_194" data-name="그룹 194" transform="translate(554.289 3692.478)">
          <path id="패스_264" data-name="패스 264" d="M793.863,3773.673a.82.82,0,0,0,.131.011.469.469,0,0,1,.24.044l.066.066.066.066a.216.216,0,0,1,.055.076.215.215,0,0,0,.054.077,1.354,1.354,0,0,1,.121.273.9.9,0,0,1,.011.427,1.37,1.37,0,0,1-.722.5.135.135,0,0,1-.1.044.374.374,0,0,1-.164-.066c-.029,0-.058-.029-.087-.088a.211.211,0,0,0-.1-.109.3.3,0,0,1-.1-.065.6.6,0,0,0-.131-.438c-.1-.073-.153-.124-.153-.153a1.05,1.05,0,0,1,.066-.285,2.919,2.919,0,0,1,.153-.372,1.487,1.487,0,0,1,.285-.044,1.007,1.007,0,0,1,.2.022A.658.658,0,0,1,793.863,3773.673Z" transform="translate(-793.053 -3773.64)" fill="#fff"/>
        </g>
        <g id="그룹_195" data-name="그룹 195" transform="translate(548.7 3683.296)">
          <path id="패스_265" data-name="패스 265" d="M776.081,3744.46a.764.764,0,0,0,.131.011.47.47,0,0,1,.241.044l.066.066.066.065a.208.208,0,0,1,.054.077.22.22,0,0,0,.055.076,1.377,1.377,0,0,1,.121.273.9.9,0,0,1,.011.427,1.371,1.371,0,0,1-.722.5.135.135,0,0,1-.1.043.374.374,0,0,1-.164-.065c-.029,0-.058-.029-.088-.088a.211.211,0,0,0-.1-.109.293.293,0,0,1-.1-.065.6.6,0,0,0-.131-.437c-.1-.073-.153-.124-.153-.154a1.035,1.035,0,0,1,.066-.284,2.907,2.907,0,0,1,.153-.372,1.53,1.53,0,0,1,.285-.043,1,1,0,0,1,.2.022A.681.681,0,0,1,776.081,3744.46Z" transform="translate(-775.271 -3744.428)" fill="#c5c5f6"/>
        </g>
        <g id="그룹_196" data-name="그룹 196" transform="translate(553.463 3660.923)">
          <path id="패스_266" data-name="패스 266" d="M791.258,3673.281a.807.807,0,0,0,.135.011.482.482,0,0,1,.248.045l.068.067.067.067a.219.219,0,0,1,.056.079.22.22,0,0,0,.056.079,1.422,1.422,0,0,1,.124.281.928.928,0,0,1,.011.439,1.41,1.41,0,0,1-.743.518.139.139,0,0,1-.1.045.384.384,0,0,1-.169-.068c-.03,0-.06-.03-.09-.09a.216.216,0,0,0-.1-.112.307.307,0,0,1-.1-.068.619.619,0,0,0-.135-.45c-.1-.075-.158-.127-.158-.158a1.072,1.072,0,0,1,.068-.292,3.036,3.036,0,0,1,.157-.383,1.54,1.54,0,0,1,.293-.045,1.05,1.05,0,0,1,.2.023A.7.7,0,0,1,791.258,3673.281Z" transform="translate(-790.425 -3673.247)" fill="#fff"/>
        </g>
        <g id="그룹_197" data-name="그룹 197" transform="translate(529.869 3655.275)">
          <path id="패스_267" data-name="패스 267" d="M716.193,3655.309a.83.83,0,0,0,.135.011.481.481,0,0,1,.248.045l.067.067.068.068a.221.221,0,0,1,.056.079.222.222,0,0,0,.056.079,1.4,1.4,0,0,1,.124.281.927.927,0,0,1,.011.439,1.408,1.408,0,0,1-.743.518.139.139,0,0,1-.1.045.384.384,0,0,1-.169-.068c-.03,0-.06-.03-.09-.09a.217.217,0,0,0-.1-.112.3.3,0,0,1-.1-.068.619.619,0,0,0-.135-.45c-.1-.075-.157-.127-.157-.158a1.067,1.067,0,0,1,.068-.293,2.931,2.931,0,0,1,.157-.383,1.562,1.562,0,0,1,.293-.045,1.065,1.065,0,0,1,.2.022A.684.684,0,0,1,716.193,3655.309Z" transform="translate(-715.36 -3655.275)" fill="#c5c5f6"/>
        </g>
        <g id="그룹_198" data-name="그룹 198" transform="translate(548.189 3699.111)">
          <path id="패스_268" data-name="패스 268" d="M774.481,3794.776a.784.784,0,0,0,.135.011.482.482,0,0,1,.248.045l.068.067.067.068a.22.22,0,0,1,.056.079.224.224,0,0,0,.056.079,1.4,1.4,0,0,1,.124.281.925.925,0,0,1,.011.439,1.408,1.408,0,0,1-.743.517.139.139,0,0,1-.1.045.381.381,0,0,1-.169-.068c-.03,0-.06-.03-.09-.09a.216.216,0,0,0-.1-.112.3.3,0,0,1-.1-.067.621.621,0,0,0-.135-.45c-.1-.075-.158-.127-.158-.157a1.07,1.07,0,0,1,.068-.293,3.027,3.027,0,0,1,.157-.383,1.534,1.534,0,0,1,.293-.045,1.031,1.031,0,0,1,.2.023A.7.7,0,0,1,774.481,3794.776Z" transform="translate(-773.648 -3794.743)" fill="#c5c5f6"/>
        </g>
        <g id="그룹_199" data-name="그룹 199" transform="translate(559.788 3697.971)">
          <path id="패스_269" data-name="패스 269" d="M811.382,3791.149a.785.785,0,0,0,.135.011.48.48,0,0,1,.248.045l.068.067.067.068a.217.217,0,0,1,.056.079.222.222,0,0,0,.056.079,1.389,1.389,0,0,1,.124.281.922.922,0,0,1,.011.439,1.409,1.409,0,0,1-.743.518.138.138,0,0,1-.1.045.38.38,0,0,1-.169-.067c-.03,0-.06-.03-.09-.09a.216.216,0,0,0-.1-.112.3.3,0,0,1-.1-.067.621.621,0,0,0-.135-.45c-.105-.075-.158-.127-.158-.157a1.068,1.068,0,0,1,.068-.293,3.024,3.024,0,0,1,.157-.382,1.564,1.564,0,0,1,.293-.045,1.03,1.03,0,0,1,.2.022A.728.728,0,0,1,811.382,3791.149Z" transform="translate(-810.549 -3791.116)" fill="#c5c5f6"/>
        </g>
        <g id="그룹_200" data-name="그룹 200" transform="translate(559.315 3656.607)">
          <path id="패스_270" data-name="패스 270" d="M809.879,3659.546a.785.785,0,0,0,.135.011.481.481,0,0,1,.247.045l.068.068.068.068a.216.216,0,0,1,.056.079.23.23,0,0,0,.056.079,1.4,1.4,0,0,1,.124.281.922.922,0,0,1,.011.439,1.407,1.407,0,0,1-.743.517.139.139,0,0,1-.1.045.38.38,0,0,1-.169-.068c-.03,0-.06-.03-.09-.09a.217.217,0,0,0-.1-.112.3.3,0,0,1-.1-.067.622.622,0,0,0-.135-.45c-.1-.075-.157-.127-.157-.157a1.079,1.079,0,0,1,.068-.293,2.969,2.969,0,0,1,.158-.383,1.556,1.556,0,0,1,.293-.045,1.048,1.048,0,0,1,.2.022A.7.7,0,0,1,809.879,3659.546Z" transform="translate(-809.046 -3659.513)" fill="#c5c5f6"/>
        </g>
        <g id="그룹_201" data-name="그룹 201" transform="translate(540.668 3656.435)">
          <path id="패스_271" data-name="패스 271" d="M751.5,3659.514a.439.439,0,0,1,.091-.043.415.415,0,0,0,.091-.043.365.365,0,0,1,.156.034.221.221,0,0,1,.079.054.278.278,0,0,1,.088.092,1.058,1.058,0,0,1,.161.58.685.685,0,0,1-.324.563l-.058.1a.222.222,0,0,1-.071.075.659.659,0,0,1-.054.079.2.2,0,0,1-.046.044,1.7,1.7,0,0,1-.365.173,1.14,1.14,0,0,1-.2.1,1.307,1.307,0,0,0-.225.113q-.274.174-.553-.123a3.605,3.605,0,0,1-.359-.425,1.091,1.091,0,0,1-.123-.263,1.017,1.017,0,0,1-.038-.317c-.012-.111-.018-.231-.02-.358s0-.27-.005-.427a.4.4,0,0,0,.092-.089l.1-.123.058-.1a.227.227,0,0,1,.071-.075.984.984,0,0,1,.653-.163A1.5,1.5,0,0,1,751.5,3659.514Z" transform="translate(-749.718 -3658.967)" fill="#d2375b"/>
        </g>
        <g id="그룹_202" data-name="그룹 202" transform="translate(543.043 3689.02)">
          <path id="패스_272" data-name="패스 272" d="M759.053,3763.183a.437.437,0,0,1,.091-.043.39.39,0,0,0,.091-.043.367.367,0,0,1,.156.034.215.215,0,0,1,.079.054.281.281,0,0,1,.089.092,1.061,1.061,0,0,1,.161.58.685.685,0,0,1-.325.563l-.058.1a.222.222,0,0,1-.071.075.731.731,0,0,1-.054.079.2.2,0,0,1-.046.044,1.582,1.582,0,0,1-.176.1,1.644,1.644,0,0,1-.189.076,1.157,1.157,0,0,1-.2.1,1.3,1.3,0,0,0-.225.113q-.274.174-.553-.123a3.629,3.629,0,0,1-.359-.425,1.1,1.1,0,0,1-.123-.263,1.011,1.011,0,0,1-.038-.317c-.012-.111-.018-.231-.02-.358s0-.27,0-.428a.414.414,0,0,0,.092-.088l.1-.123c.02-.031.038-.064.058-.1a.232.232,0,0,1,.071-.075.984.984,0,0,1,.653-.163A1.5,1.5,0,0,1,759.053,3763.183Z" transform="translate(-757.274 -3762.635)" fill="#d2375b"/>
        </g>
        <g id="그룹_203" data-name="그룹 203" transform="translate(548.926 3683.779)">
          <path id="패스_273" data-name="패스 273" d="M776.819,3746a.776.776,0,0,0,.134.011.479.479,0,0,1,.246.045l.067.067.068.067a.222.222,0,0,1,.056.079.215.215,0,0,0,.056.078,1.439,1.439,0,0,1,.123.28.929.929,0,0,1,.011.437,1.4,1.4,0,0,1-.739.515.139.139,0,0,1-.1.045.388.388,0,0,1-.168-.067q-.044,0-.09-.089a.216.216,0,0,0-.1-.112.3.3,0,0,1-.1-.067.617.617,0,0,0-.134-.448c-.1-.075-.157-.127-.157-.157a1.064,1.064,0,0,1,.067-.291,2.921,2.921,0,0,1,.156-.38,1.521,1.521,0,0,1,.291-.045,1.07,1.07,0,0,1,.2.022A.758.758,0,0,1,776.819,3746Z" transform="translate(-775.991 -3745.964)" fill="#6fb0b1"/>
        </g>
        <g id="그룹_204" data-name="그룹 204" transform="translate(544.521 3667.469)">
          <path id="패스_274" data-name="패스 274" d="M762.759,3694.338a.294.294,0,0,1,.009-.071.3.3,0,0,0,.009-.071.258.258,0,0,1,.08-.08.156.156,0,0,1,.062-.027.2.2,0,0,1,.089-.018.753.753,0,0,1,.409.124.486.486,0,0,1,.214.41l.035.071a.155.155,0,0,1,.018.071.538.538,0,0,1,.027.062.139.139,0,0,1,.009.045,1.088,1.088,0,0,1-.009.142,1.2,1.2,0,0,1-.027.142.811.811,0,0,1-.018.16.93.93,0,0,0-.018.178q0,.231-.285.285a2.551,2.551,0,0,1-.391.053.764.764,0,0,1-.2-.027.7.7,0,0,1-.2-.1c-.071-.035-.145-.077-.223-.124l-.258-.16a.287.287,0,0,0-.018-.089l-.036-.107-.036-.071a.159.159,0,0,1-.018-.071.7.7,0,0,1,.151-.454A1.063,1.063,0,0,1,762.759,3694.338Z" transform="translate(-761.976 -3694.071)" fill="#fff"/>
        </g>
        <g id="그룹_205" data-name="그룹 205" transform="translate(568.433 3697.475)">
          <path id="패스_275" data-name="패스 275" d="M838.836,3789.8a.307.307,0,0,1,.009-.071.291.291,0,0,0,.009-.071.255.255,0,0,1,.08-.08.153.153,0,0,1,.062-.027.2.2,0,0,1,.089-.018.753.753,0,0,1,.409.125.487.487,0,0,1,.213.409l.035.071a.157.157,0,0,1,.018.072.421.421,0,0,1,.027.062.138.138,0,0,1,.009.044,1.184,1.184,0,0,1-.036.285.809.809,0,0,1-.018.16.926.926,0,0,0-.018.178c0,.154-.095.249-.284.285a2.546,2.546,0,0,1-.391.053.8.8,0,0,1-.2-.027.715.715,0,0,1-.2-.1c-.072-.036-.146-.077-.223-.125l-.258-.16a.292.292,0,0,0-.018-.089l-.036-.107-.036-.071a.16.16,0,0,1-.018-.071.7.7,0,0,1,.151-.454A1.063,1.063,0,0,1,838.836,3789.8Z" transform="translate(-838.053 -3789.538)" fill="#fff"/>
        </g>
        <g id="그룹_206" data-name="그룹 206" transform="translate(559.724 3712.043)">
          <path id="패스_276" data-name="패스 276" d="M811.127,3836.155a.3.3,0,0,1,.009-.071.288.288,0,0,0,.009-.071.251.251,0,0,1,.08-.08.155.155,0,0,1,.062-.027.2.2,0,0,1,.089-.018.751.751,0,0,1,.409.125.486.486,0,0,1,.213.409l.036.071a.157.157,0,0,1,.018.071.444.444,0,0,1,.027.062.134.134,0,0,1,.009.044,1.067,1.067,0,0,1-.009.143,1.114,1.114,0,0,1-.027.142.81.81,0,0,1-.018.16.93.93,0,0,0-.018.178c0,.154-.095.249-.284.284a2.555,2.555,0,0,1-.391.053.773.773,0,0,1-.2-.027.734.734,0,0,1-.2-.1c-.071-.036-.145-.078-.223-.125l-.258-.16a.286.286,0,0,0-.018-.088l-.036-.107-.036-.071a.164.164,0,0,1-.018-.071.7.7,0,0,1,.151-.454A1.066,1.066,0,0,1,811.127,3836.155Z" transform="translate(-810.344 -3835.889)" fill="#fff"/>
        </g>
        <g id="그룹_207" data-name="그룹 207" transform="translate(529.395 3665.231)">
          <path id="패스_277" data-name="패스 277" d="M715.809,3688.391a1.536,1.536,0,0,1-1.267.363l-.309-.178a.629.629,0,0,1-.24-.988q1.1-.82,1.517-.583l.309.178Q716.117,3688.121,715.809,3688.391Z" transform="translate(-713.85 -3686.952)" fill="#e48bdf"/>
        </g>
        <g id="그룹_208" data-name="그룹 208" transform="translate(564.239 3670.668)">
          <path id="패스_278" data-name="패스 278" d="M826.671,3705.69a1.536,1.536,0,0,1-1.267.363l-.309-.178a.63.63,0,0,1-.24-.988q1.1-.821,1.517-.583l.309.178Q826.979,3705.42,826.671,3705.69Z" transform="translate(-824.711 -3704.251)" fill="#e48bdf"/>
        </g>
        <g id="그룹_209" data-name="그룹 209" transform="translate(554.671 3706.502)">
          <path id="패스_279" data-name="패스 279" d="M796.227,3819.7a1.536,1.536,0,0,1-1.267.363l-.309-.178a.63.63,0,0,1-.24-.988q1.1-.82,1.517-.583l.309.178Q796.535,3819.427,796.227,3819.7Z" transform="translate(-794.267 -3818.258)" fill="#e48bdf"/>
        </g>
        <g id="그룹_210" data-name="그룹 210" transform="translate(566.515 3688.75)">
          <path id="패스_280" data-name="패스 280" d="M833.911,3763.219a1.536,1.536,0,0,1-1.267.363l-.309-.178a.629.629,0,0,1-.24-.988q1.1-.82,1.517-.583l.309.178Q834.219,3762.948,833.911,3763.219Z" transform="translate(-831.951 -3761.78)" fill="#e48bdf"/>
        </g>
        <g id="그룹_211" data-name="그룹 211" transform="translate(543.223 3675.438)">
          <path id="패스_281" data-name="패스 281" d="M759.8,3720.362a.874.874,0,0,1-.611.843h-.367a.951.951,0,0,1-.978-.656q.122-1.124.611-1.124h.367Q759.8,3720.017,759.8,3720.362Z" transform="translate(-757.844 -3719.425)" fill="#f6e6e4"/>
        </g>
        <g id="그룹_212" data-name="그룹 212" transform="translate(559.487 3676.6)">
          <path id="패스_282" data-name="패스 282" d="M811.548,3724.058a.874.874,0,0,1-.611.843h-.367a.951.951,0,0,1-.978-.656q.122-1.124.611-1.124h.367Q811.548,3723.713,811.548,3724.058Z" transform="translate(-809.592 -3723.122)" fill="#f6e6e4"/>
        </g>
        <g id="그룹_214" data-name="그룹 214" transform="translate(553.847 3715.39)">
          <g id="그룹_213" data-name="그룹 213">
            <path id="패스_283" data-name="패스 283" d="M793.6,3847.471a.873.873,0,0,1-.611.843h-.367a.951.951,0,0,1-.978-.656q.122-1.124.611-1.124h.367Q793.6,3847.126,793.6,3847.471Z" transform="translate(-791.646 -3846.534)" fill="#fdfb86"/>
          </g>
        </g>
      </g>
      <g id="c" transform="translate(4.448)">
        <ellipse id="타원_6" data-name="타원 6" cx="27.261" cy="10.735" rx="27.261" ry="10.735" transform="translate(476.062 3702.181)" opacity="0.19" fill="url(#radial-gradient)"/>
        <g id="그룹_242" data-name="그룹 242" transform="translate(478.76 3655.97)">
          <g id="그룹_238" data-name="그룹 238" transform="translate(0 10.986)">
            <path id="패스_284" data-name="패스 284" d="M554.745,3768.065v18.189c0,6.027,10.819,10.912,24.164,10.912s24.164-4.886,24.164-10.912v-18.189Z" transform="translate(-554.118 -3744.296)" fill="#fff"/>
            <path id="패스_285" data-name="패스 285" d="M602.61,3745.126c0,6.125-10.995,11.09-24.557,11.09s-24.557-4.966-24.557-11.09,10.995-11.09,24.557-11.09S602.61,3739,602.61,3745.126Z" transform="translate(-553.262 -3720.962)" fill="#715c42"/>
            <rect id="사각형_14" data-name="사각형 14" width="4.097" height="20.098" transform="translate(23.216 0)" fill="#d15f60"/>
            <path id="패스_286" data-name="패스 286" d="M630.71,3753.477a2.067,2.067,0,1,1-2.048-1.792A1.933,1.933,0,0,1,630.71,3753.477Z" transform="translate(-603.397 -3733.063)" fill="#d15f60"/>
            <path id="패스_287" data-name="패스 287" d="M623.1,3753.1" transform="translate(-600.991 -3734.036)" fill="#725b47"/>
            <g id="그룹_217" data-name="그룹 217" transform="translate(23.216)">
              <g id="그룹_216" data-name="그룹 216" clip-path="url(#clip-path)">
                <g id="그룹_215" data-name="그룹 215" transform="translate(-1.418 -0.788)">
                  <path id="패스_288" data-name="패스 288" d="M622.1,3753.217s6.145-.157,6.3-3.624" transform="translate(-622.101 -3730.842)" fill="none" stroke="#db7e83" stroke-miterlimit="10" stroke-width="4"/>
                  <path id="패스_289" data-name="패스 289" d="M622.1,3744.7s6.145-.158,6.3-3.624" transform="translate(-622.101 -3724.999)" fill="none" stroke="#db7e83" stroke-miterlimit="10" stroke-width="4"/>
                  <path id="패스_290" data-name="패스 290" d="M622.1,3736.172s6.145-.158,6.3-3.625" transform="translate(-622.101 -3719.154)" fill="none" stroke="#db7e83" stroke-miterlimit="10" stroke-width="4"/>
                  <path id="패스_291" data-name="패스 291" d="M622.1,3727.65s6.145-.157,6.3-3.624" transform="translate(-622.101 -3713.311)" fill="none" stroke="#db7e83" stroke-miterlimit="10" stroke-width="4"/>
                  <path id="패스_292" data-name="패스 292" d="M622.1,3719.126s6.145-.157,6.3-3.624" transform="translate(-622.101 -3707.466)" fill="none" stroke="#db7e83" stroke-miterlimit="10" stroke-width="4"/>
                  <path id="패스_293" data-name="패스 293" d="M622.1,3710.6s6.145-.158,6.3-3.624" transform="translate(-622.101 -3701.623)" fill="none" stroke="#db7e83" stroke-miterlimit="10" stroke-width="4"/>
                  <path id="패스_294" data-name="패스 294" d="M622.1,3702.081s6.145-.158,6.3-3.625" transform="translate(-622.101 -3695.778)" fill="none" stroke="#db7e83" stroke-miterlimit="10" stroke-width="4"/>
                  <path id="패스_295" data-name="패스 295" d="M622.1,3693.559s6.145-.157,6.3-3.624" transform="translate(-622.101 -3689.935)" fill="none" stroke="#db7e83" stroke-miterlimit="10" stroke-width="4"/>
                </g>
                <path id="패스_296" data-name="패스 296" d="M635.637,3693.721v21.325l1.576-1.365.21-20.9Z" transform="translate(-632.8 -3692.67)" fill="#c83f47" opacity="0.5"/>
              </g>
            </g>
            <path id="패스_298" data-name="패스 298" d="M644.326,3766.639" transform="translate(-615.543 -3743.318)" fill="none"/>
            <g id="그룹_220" data-name="그룹 220" transform="translate(2.922 16.211)">
              <path id="패스_299" data-name="패스 299" d="M568.068,3746.611a2.593,2.593,0,1,1-2.593-2.593A2.593,2.593,0,0,1,568.068,3746.611Z" transform="translate(-562.62 -3744.019)" fill="#d15356"/>
              <path id="패스_300" data-name="패스 300" d="M566.088,3749.035s4.009-.192,3.337-2.881l-.192-.48a2.541,2.541,0,0,1,.864,2.785C569.521,3750.188,566.4,3749.611,566.088,3749.035Z" transform="translate(-564.818 -3745.154)" fill="#c83f47"/>
              <path id="패스_301" data-name="패스 301" d="M562.093,3754.62s-.215-1.073.288-1.008c0,0,.072.432.936.865s4.106.5,4.177-.865c0,0,.144-.072.144,1.008s-.936,1.945-2.593,2.017C564.156,3756.675,561.733,3756.061,562.093,3754.62Z" transform="translate(-562.047 -3750.595)" fill="#fff"/>
              <path id="패스_302" data-name="패스 302" d="M567.305,3745.6a.456.456,0,1,1-.456-.456A.456.456,0,0,1,567.305,3745.6Z" transform="translate(-565.028 -3744.787)" fill="#fff" opacity="0.5"/>
              <path id="패스_303" data-name="패스 303" d="M571.319,3745.177a.228.228,0,1,1-.228-.228A.228.228,0,0,1,571.319,3745.177Z" transform="translate(-568.092 -3744.656)" fill="#fff" opacity="0.5"/>
              <g id="그룹_219" data-name="그룹 219" transform="translate(0 3.014)">
                <g id="그룹_218" data-name="그룹 218" clip-path="url(#clip-path-2)">
                  <path id="패스_304" data-name="패스 304" d="M562.346,3757.843s1.44.048,1.969-.864" transform="translate(-562.252 -3755.919)" fill="none" stroke="#dbdbdb" stroke-linecap="round" stroke-linejoin="round" stroke-width="3"/>
                  <path id="패스_305" data-name="패스 305" d="M560.3,3755.031a2.4,2.4,0,0,0,2.1-.451" transform="translate(-560.849 -3754.275)" fill="none" stroke="#dbdbdb" stroke-linecap="round" stroke-linejoin="round" stroke-width="3"/>
                  <path id="패스_306" data-name="패스 306" d="M565.95,3758.776a2.778,2.778,0,0,0,2.468-1.8" transform="translate(-564.723 -3755.919)" fill="none" stroke="#dbdbdb" stroke-linecap="round" stroke-linejoin="round" stroke-width="3"/>
                  <path id="패스_307" data-name="패스 307" d="M572.218,3757.906a3.5,3.5,0,0,0,1.923-2.77" transform="translate(-569.021 -3754.656)" fill="none" stroke="#dbdbdb" stroke-linecap="round" stroke-linejoin="round" stroke-width="3"/>
                </g>
              </g>
            </g>
            <g id="그룹_223" data-name="그룹 223" transform="translate(11.768 23.172)">
              <path id="패스_309" data-name="패스 309" d="M596.777,3769a2.836,2.836,0,1,1-2.836-2.836A2.836,2.836,0,0,1,596.777,3769Z" transform="translate(-590.818 -3766.165)" fill="#d15356"/>
              <path id="패스_310" data-name="패스 310" d="M594.611,3771.652s4.386-.21,3.651-3.151l-.21-.525a2.78,2.78,0,0,1,.945,3.047C598.367,3772.913,594.953,3772.282,594.611,3771.652Z" transform="translate(-593.222 -3767.406)" fill="#c83f47"/>
              <path id="패스_311" data-name="패스 311" d="M590.241,3777.762s-.235-1.173.315-1.1c0,0,.079.472,1.024.945s4.491.552,4.57-.945c0,0,.157-.079.157,1.1s-1.024,2.127-2.836,2.206C592.5,3780.01,589.847,3779.338,590.241,3777.762Z" transform="translate(-590.191 -3773.359)" fill="#fff"/>
              <path id="패스_312" data-name="패스 312" d="M595.943,3767.889a.5.5,0,1,1-.5-.5A.5.5,0,0,1,595.943,3767.889Z" transform="translate(-593.451 -3767.006)" fill="#fff" opacity="0.5"/>
              <path id="패스_313" data-name="패스 313" d="M600.333,3767.431a.249.249,0,1,1-.249-.249A.249.249,0,0,1,600.333,3767.431Z" transform="translate(-596.803 -3766.862)" fill="#fff" opacity="0.5"/>
              <g id="그룹_222" data-name="그룹 222" transform="translate(0 3.297)">
                <g id="그룹_221" data-name="그룹 221" clip-path="url(#clip-path-3)">
                  <path id="패스_314" data-name="패스 314" d="M590.517,3781.287s1.576.052,2.154-.946" transform="translate(-590.415 -3779.183)" fill="none" stroke="#dbdbdb" stroke-linecap="round" stroke-linejoin="round" stroke-width="3"/>
                  <path id="패스_315" data-name="패스 315" d="M588.28,3778.212a2.619,2.619,0,0,0,2.3-.493" transform="translate(-588.881 -3777.385)" fill="none" stroke="#dbdbdb" stroke-linecap="round" stroke-linejoin="round" stroke-width="3"/>
                  <path id="패스_316" data-name="패스 316" d="M594.46,3782.308a3.039,3.039,0,0,0,2.7-1.966" transform="translate(-593.118 -3779.183)" fill="none" stroke="#dbdbdb" stroke-linecap="round" stroke-linejoin="round" stroke-width="3"/>
                  <path id="패스_317" data-name="패스 317" d="M601.317,3781.356a3.826,3.826,0,0,0,2.1-3.03" transform="translate(-597.82 -3777.801)" fill="none" stroke="#dbdbdb" stroke-linecap="round" stroke-linejoin="round" stroke-width="3"/>
                </g>
              </g>
            </g>
            <g id="그룹_226" data-name="그룹 226" transform="translate(28.786 23.908)">
              <path id="패스_319" data-name="패스 319" d="M650.921,3771.341a2.836,2.836,0,1,1-2.836-2.836A2.836,2.836,0,0,1,650.921,3771.341Z" transform="translate(-644.962 -3768.504)" fill="#d15356"/>
              <path id="패스_320" data-name="패스 320" d="M648.756,3773.992s4.386-.209,3.65-3.151l-.21-.525a2.78,2.78,0,0,1,.945,3.047C652.511,3775.253,649.1,3774.622,648.756,3773.992Z" transform="translate(-647.366 -3769.746)" fill="#c83f47"/>
              <path id="패스_321" data-name="패스 321" d="M644.385,3780.1s-.235-1.173.315-1.1c0,0,.079.473,1.024.946s4.491.552,4.57-.946c0,0,.157-.079.157,1.1s-1.024,2.128-2.836,2.206C646.642,3782.349,643.991,3781.677,644.385,3780.1Z" transform="translate(-644.335 -3775.698)" fill="#fff"/>
              <path id="패스_322" data-name="패스 322" d="M650.087,3770.229a.5.5,0,1,1-.5-.5A.5.5,0,0,1,650.087,3770.229Z" transform="translate(-647.595 -3769.345)" fill="#fff" opacity="0.5"/>
              <path id="패스_323" data-name="패스 323" d="M654.478,3769.771a.249.249,0,1,1-.249-.249A.249.249,0,0,1,654.478,3769.771Z" transform="translate(-650.948 -3769.202)" fill="#fff" opacity="0.5"/>
              <g id="그룹_225" data-name="그룹 225" transform="translate(0 3.297)">
                <g id="그룹_224" data-name="그룹 224" clip-path="url(#clip-path-4)">
                  <path id="패스_324" data-name="패스 324" d="M644.661,3783.627s1.576.052,2.154-.945" transform="translate(-644.559 -3781.523)" fill="none" stroke="#dbdbdb" stroke-linecap="round" stroke-linejoin="round" stroke-width="3"/>
                  <path id="패스_325" data-name="패스 325" d="M642.424,3780.552a2.618,2.618,0,0,0,2.3-.493" transform="translate(-643.025 -3779.724)" fill="none" stroke="#dbdbdb" stroke-linecap="round" stroke-linejoin="round" stroke-width="3"/>
                  <path id="패스_326" data-name="패스 326" d="M648.6,3784.648a3.039,3.039,0,0,0,2.7-1.966" transform="translate(-647.262 -3781.523)" fill="none" stroke="#dbdbdb" stroke-linecap="round" stroke-linejoin="round" stroke-width="3"/>
                  <path id="패스_327" data-name="패스 327" d="M655.461,3783.7a3.824,3.824,0,0,0,2.1-3.03" transform="translate(-651.964 -3780.14)" fill="none" stroke="#dbdbdb" stroke-linecap="round" stroke-linejoin="round" stroke-width="3"/>
                </g>
              </g>
            </g>
            <g id="그룹_229" data-name="그룹 229" transform="translate(41.234 18.497)">
              <path id="패스_329" data-name="패스 329" d="M689.848,3753.835a2.544,2.544,0,1,1-2.544-2.544A2.544,2.544,0,0,1,689.848,3753.835Z" transform="translate(-684.502 -3751.292)" fill="#d15356"/>
              <path id="패스_330" data-name="패스 330" d="M687.9,3756.214s3.934-.188,3.274-2.827l-.188-.471a2.494,2.494,0,0,1,.848,2.733C691.274,3757.345,688.211,3756.779,687.9,3756.214Z" transform="translate(-686.659 -3752.406)" fill="#c83f47"/>
              <path id="패스_331" data-name="패스 331" d="M683.986,3761.693s-.211-1.052.282-.989c0,0,.071.424.919.848s4.028.494,4.1-.848c0,0,.141-.07.141.989s-.919,1.908-2.544,1.979C686.01,3763.71,683.632,3763.106,683.986,3761.693Z" transform="translate(-683.941 -3757.743)" fill="#fff"/>
              <path id="패스_332" data-name="패스 332" d="M689.1,3752.839a.447.447,0,1,1-.447-.447A.447.447,0,0,1,689.1,3752.839Z" transform="translate(-686.865 -3752.046)" fill="#fff" opacity="0.5"/>
              <path id="패스_333" data-name="패스 333" d="M693.038,3752.427a.224.224,0,1,1-.224-.223A.224.224,0,0,1,693.038,3752.427Z" transform="translate(-689.872 -3751.917)" fill="#fff" opacity="0.5"/>
              <g id="그룹_228" data-name="그룹 228" transform="translate(0 2.957)">
                <g id="그룹_227" data-name="그룹 227" clip-path="url(#clip-path-5)">
                  <path id="패스_334" data-name="패스 334" d="M684.233,3764.856s1.414.047,1.932-.848" transform="translate(-684.141 -3762.969)" fill="none" stroke="#dbdbdb" stroke-linecap="round" stroke-linejoin="round" stroke-width="3"/>
                  <path id="패스_335" data-name="패스 335" d="M682.227,3762.1a2.347,2.347,0,0,0,2.063-.442" transform="translate(-682.766 -3761.354)" fill="none" stroke="#dbdbdb" stroke-linecap="round" stroke-linejoin="round" stroke-width="3"/>
                  <path id="패스_336" data-name="패스 336" d="M687.77,3765.771a2.726,2.726,0,0,0,2.422-1.764" transform="translate(-686.566 -3762.969)" fill="none" stroke="#dbdbdb" stroke-linecap="round" stroke-linejoin="round" stroke-width="3"/>
                  <path id="패스_337" data-name="패스 337" d="M693.92,3764.918a3.431,3.431,0,0,0,1.887-2.718" transform="translate(-690.783 -3761.729)" fill="none" stroke="#dbdbdb" stroke-linecap="round" stroke-linejoin="round" stroke-width="3"/>
                </g>
              </g>
            </g>
            <g id="그룹_232" data-name="그룹 232" transform="translate(15.714 11.136)">
              <path id="패스_339" data-name="패스 339" d="M608.392,3730.3a2.431,2.431,0,1,1-2.431-2.431A2.431,2.431,0,0,1,608.392,3730.3Z" transform="translate(-603.285 -3727.87)" fill="#d15356"/>
              <path id="패스_340" data-name="패스 340" d="M606.535,3732.572s3.759-.18,3.129-2.7l-.18-.451a2.384,2.384,0,0,1,.81,2.611C609.753,3733.653,606.828,3733.112,606.535,3732.572Z" transform="translate(-605.345 -3728.934)" fill="#c83f47"/>
              <path id="패스_341" data-name="패스 341" d="M602.79,3737.808s-.2-1.005.27-.945c0,0,.068.405.878.81s3.849.473,3.916-.81c0,0,.135-.068.135.945s-.878,1.823-2.431,1.891C604.724,3739.735,602.453,3739.159,602.79,3737.808Z" transform="translate(-602.747 -3734.035)" fill="#fff"/>
              <path id="패스_342" data-name="패스 342" d="M607.677,3729.348a.427.427,0,1,1-.427-.427A.427.427,0,0,1,607.677,3729.348Z" transform="translate(-605.541 -3728.591)" fill="#fff" opacity="0.5"/>
              <path id="패스_343" data-name="패스 343" d="M611.439,3728.955a.214.214,0,1,1-.214-.214A.214.214,0,0,1,611.439,3728.955Z" transform="translate(-608.414 -3728.467)" fill="#fff" opacity="0.5"/>
              <g id="그룹_231" data-name="그룹 231" transform="translate(0 2.826)">
                <g id="그룹_230" data-name="그룹 230" clip-path="url(#clip-path-6)">
                  <path id="패스_344" data-name="패스 344" d="M603.027,3740.829s1.351.045,1.846-.81" transform="translate(-602.939 -3739.026)" fill="none" stroke="#dbdbdb" stroke-linecap="round" stroke-linejoin="round" stroke-width="3"/>
                  <path id="패스_345" data-name="패스 345" d="M601.109,3738.194a2.244,2.244,0,0,0,1.971-.422" transform="translate(-601.624 -3737.485)" fill="none" stroke="#dbdbdb" stroke-linecap="round" stroke-linejoin="round" stroke-width="3"/>
                  <path id="패스_346" data-name="패스 346" d="M606.406,3741.7a2.6,2.6,0,0,0,2.314-1.685" transform="translate(-605.256 -3739.026)" fill="none" stroke="#dbdbdb" stroke-linecap="round" stroke-linejoin="round" stroke-width="3"/>
                  <path id="패스_347" data-name="패스 347" d="M612.283,3740.889a3.278,3.278,0,0,0,1.8-2.6" transform="translate(-609.286 -3737.842)" fill="none" stroke="#dbdbdb" stroke-linecap="round" stroke-linejoin="round" stroke-width="3"/>
                </g>
              </g>
            </g>
            <g id="그룹_235" data-name="그룹 235" transform="translate(30.631 11.661)">
              <path id="패스_349" data-name="패스 349" d="M655.851,3731.97a2.431,2.431,0,1,1-2.431-2.43A2.431,2.431,0,0,1,655.851,3731.97Z" transform="translate(-650.744 -3729.54)" fill="#d15356"/>
              <path id="패스_350" data-name="패스 350" d="M653.995,3734.243s3.759-.18,3.129-2.7l-.18-.45a2.383,2.383,0,0,1,.81,2.611C657.213,3735.324,654.288,3734.783,653.995,3734.243Z" transform="translate(-652.804 -3730.604)" fill="#c83f47"/>
              <path id="패스_351" data-name="패스 351" d="M650.249,3739.479s-.2-1.005.27-.945c0,0,.068.405.878.81s3.849.473,3.916-.81c0,0,.135-.068.135.945s-.878,1.823-2.431,1.891C652.184,3741.406,649.912,3740.829,650.249,3739.479Z" transform="translate(-650.207 -3735.705)" fill="#fff"/>
              <path id="패스_352" data-name="패스 352" d="M655.137,3731.019a.427.427,0,1,1-.427-.427A.427.427,0,0,1,655.137,3731.019Z" transform="translate(-653.001 -3730.261)" fill="#fff" opacity="0.5"/>
              <path id="패스_353" data-name="패스 353" d="M658.9,3730.625a.214.214,0,1,1-.213-.214A.214.214,0,0,1,658.9,3730.625Z" transform="translate(-655.874 -3730.137)" fill="#fff" opacity="0.5"/>
              <g id="그룹_234" data-name="그룹 234" transform="translate(0 2.826)">
                <g id="그룹_233" data-name="그룹 233" clip-path="url(#clip-path-7)">
                  <path id="패스_354" data-name="패스 354" d="M650.487,3742.5s1.351.045,1.846-.81" transform="translate(-650.399 -3740.697)" fill="none" stroke="#dbdbdb" stroke-linecap="round" stroke-linejoin="round" stroke-width="3"/>
                  <path id="패스_355" data-name="패스 355" d="M648.569,3739.865a2.244,2.244,0,0,0,1.971-.423" transform="translate(-649.084 -3739.156)" fill="none" stroke="#dbdbdb" stroke-linecap="round" stroke-linejoin="round" stroke-width="3"/>
                  <path id="패스_356" data-name="패스 356" d="M653.866,3743.375a2.6,2.6,0,0,0,2.314-1.685" transform="translate(-652.716 -3740.697)" fill="none" stroke="#dbdbdb" stroke-linecap="round" stroke-linejoin="round" stroke-width="3"/>
                  <path id="패스_357" data-name="패스 357" d="M659.743,3742.559a3.278,3.278,0,0,0,1.8-2.6" transform="translate(-656.746 -3739.513)" fill="none" stroke="#dbdbdb" stroke-linecap="round" stroke-linejoin="round" stroke-width="3"/>
                </g>
              </g>
            </g>
            <path id="패스_359" data-name="패스 359" d="M552.751,3773.528c0,.946,0,3.572.732,4.307,1.883,1.891,1.36-2.1,1.883-2.626,1.151-1.471,1.464.315,1.569,1.261.209,2.416-.628,2.679-.314,5.095.314,1.891,2.406,3.572,3.138,1.261.285-.9-.418-4.675,1.569-3.2.837.63.1,3.151,1.569,3.046,1.181-.084.323-2.755,2.1-1.974.839.368.975,1.557,1.068,2.342.113.947.867,4.788,2.479,4.99,3.347.42,3.742-4.667,4.2-5.365.923-1.412,2.507-.725,2.942.5a2.433,2.433,0,0,0,2.273,1.551c2.2,0,.863-1.861,3.034-1.943a2.176,2.176,0,0,1,2.51,1.576c.57,1.313,1.88,1.932,2.83.488s.508-4.655,2.505-5c2.047-.358,2.1,1.586,3.975,2.311,1.974.762,2.8-4.986,4.289-4.938,1.061-.323,1.151,6.3,2.635,5.764,1.984-.624,2.7-5.319,2.7-7.129-.006-2.412-.418-4.521-.418-6.934,0,0,1.2,2.626-5.7,6.355-7.236,3.909-16.371,5.515-27.773,3.309s-15.168-8.247-15.482-9.927Z" transform="translate(-552.751 -3744.692)" fill="#725b47"/>
            <path id="패스_360" data-name="패스 360" d="M597.034,3811.258c0,1.418.788,4.569,1.891,5.042" transform="translate(-583.115 -3773.913)" fill="none" stroke="#5f4938" stroke-miterlimit="10" stroke-width="1"/>
            <path id="패스_361" data-name="패스 361" d="M566.51,3802.569c.1,1.05-.63,2.573.578,3.834" transform="translate(-562.098 -3767.955)" fill="none" stroke="#5f4938" stroke-miterlimit="10" stroke-width="0.75"/>
            <path id="패스_362" data-name="패스 362" d="M554.144,3784.52c.1,1.051-.63,2.574.578,3.835" transform="translate(-553.619 -3755.578)" fill="none" stroke="#5f4938" stroke-miterlimit="10" stroke-width="0.75"/>
            <g id="그룹_237" data-name="그룹 237" transform="translate(0.234 13.074)">
              <g id="그룹_236" data-name="그룹 236" clip-path="url(#clip-path-8)">
                <path id="패스_363" data-name="패스 363" d="M573.394,3774.989c-11.582-.892-20.4-5.447-20.4-10.932" transform="translate(-553.152 -3754.62)" fill="none" stroke="#9f8c76" stroke-linecap="round" stroke-linejoin="round" stroke-width="4"/>
                <path id="패스_364" data-name="패스 364" d="M643.777,3798.431a52.3,52.3,0,0,1-5.638.429" transform="translate(-611.535 -3778.191)" fill="none" stroke="#9f8c76" stroke-linecap="round" stroke-linejoin="round" stroke-width="4"/>
                <path id="패스_365" data-name="패스 365" d="M624.018,3798.3a.5.5,0,1,1-.5-.5A.5.5,0,0,1,624.018,3798.3Z" transform="translate(-601.169 -3777.763)" fill="#fff" opacity="0.5"/>
                <path id="패스_366" data-name="패스 366" d="M633.042,3798.639a.5.5,0,1,1-.5-.5A.5.5,0,0,1,633.042,3798.639Z" transform="translate(-607.356 -3777.992)" fill="#fff" opacity="0.5"/>
                <path id="패스_367" data-name="패스 367" d="M696.667,3765.97s1.05,4.622-5.883,6.986" transform="translate(-647.633 -3755.933)" fill="none" stroke="#5f4938" stroke-linecap="round" stroke-linejoin="round" stroke-width="4"/>
              </g>
            </g>
            <path id="패스_369" data-name="패스 369" d="M694.126,3794.38c2,.42,1.156,4.622,2.731,5.673.21-.105.21-.315.315-.63" transform="translate(-649.69 -3762.339)" fill="none" stroke="#5f4938" stroke-miterlimit="10" stroke-width="0.75"/>
            <path id="패스_370" data-name="패스 370" d="M669.728,3802.357c1.891-.315,2.941,3.362,3.887,1.891" transform="translate(-632.961 -3767.796)" fill="none" stroke="#5f4938" stroke-miterlimit="10" stroke-width="0.75"/>
            <path id="패스_371" data-name="패스 371" d="M648,3813.095c1.05.105,1.366,2.731,2.416,2.416" transform="translate(-618.064 -3775.172)" fill="none" stroke="#5f4938" stroke-miterlimit="10" stroke-width="0.75"/>
            <path id="패스_372" data-name="패스 372" d="M621.6,3810.042c1.786-.315,1.471,3.151,3.886,2.521" transform="translate(-599.96 -3773.065)" fill="none" stroke="#5f4938" stroke-miterlimit="10" stroke-width="0.75"/>
            <path id="패스_373" data-name="패스 373" d="M606.559,3826.464" transform="translate(-589.647 -3784.339)" fill="none" stroke="#5f4938" stroke-miterlimit="10" stroke-width="0.75"/>
            <path id="패스_374" data-name="패스 374" d="M595.2,3808.416" transform="translate(-581.855 -3771.964)" fill="none" stroke="#5f4938" stroke-miterlimit="10" stroke-width="0.75"/>
            <path id="패스_375" data-name="패스 375" d="M584.166,3810.421" transform="translate(-574.292 -3773.339)" fill="none" stroke="#5f4938" stroke-miterlimit="10" stroke-width="0.75"/>
            <path id="패스_376" data-name="패스 376" d="M571.132,3815.1" transform="translate(-565.355 -3776.547)" fill="none" stroke="#5f4938" stroke-miterlimit="10" stroke-width="0.75"/>
            <path id="패스_377" data-name="패스 377" d="M558.431,3796.718" transform="translate(-556.646 -3763.943)" fill="none" stroke="#5f4938" stroke-miterlimit="10" stroke-width="0.75"/>
            <path id="패스_378" data-name="패스 378" d="M617.923,3809.753" transform="translate(-597.439 -3772.881)" fill="none" stroke="#5f4938" stroke-miterlimit="10" stroke-width="0.75"/>
          </g>
          <g id="그룹_241" data-name="그룹 241" transform="translate(22.047)">
            <path id="패스_379" data-name="패스 379" d="M630.84,3689.1a2.067,2.067,0,1,1-1.992-1.855A1.934,1.934,0,0,1,630.84,3689.1Z" transform="translate(-625.535 -3677.893)" fill="#db7e83"/>
            <line id="선_1" data-name="선 1" y1="5.04" x2="0.156" transform="translate(3.101 6.102)" fill="none" stroke="#6c5c55" stroke-miterlimit="10" stroke-width="3"/>
            <path id="패스_380" data-name="패스 380" d="M630.131,3668.058h.007a1.551,1.551,0,0,0-.074-.4h0c-.015-.053-.033-.112-.055-.177-.01-.031-.02-.061-.032-.092a6.919,6.919,0,0,0-.278-.664c-.472-1-2.006-3.357-2.006-3.357a26.244,26.244,0,0,0-2.508,3.741,2.522,2.522,0,0,0-.162.388c-.011.03-.019.057-.027.085-.015.05-.028.1-.039.153,0,.015-.01.033-.013.048h0a2.689,2.689,0,0,0-.054.4,2.628,2.628,0,1,0,5.238-.127Z" transform="translate(-624.263 -3661.52)" fill="#df9146"/>
            <path id="패스_381" data-name="패스 381" d="M631.195,3674.687h.005a1.018,1.018,0,0,0-.048-.261h0c-.01-.035-.022-.074-.036-.117-.007-.02-.013-.04-.021-.06a4.691,4.691,0,0,0-.182-.436c-.31-.653-1.315-2.2-1.315-2.2a17.164,17.164,0,0,0-1.645,2.453,1.637,1.637,0,0,0-.106.254c-.007.02-.012.038-.018.056s-.018.066-.025.1c0,.01-.007.022-.008.031h0a1.794,1.794,0,0,0-.035.262,1.724,1.724,0,0,0,3.443.171A1.668,1.668,0,0,0,631.195,3674.687Z" transform="translate(-626.229 -3667.172)" fill="#cb5721"/>
            <g id="그룹_240" data-name="그룹 240">
              <g id="그룹_239" data-name="그룹 239">
                <path id="패스_382" data-name="패스 382" d="M626.112,3657.486l.206,3.011,3.011.206-3.011.206-.206,3.011-.206-3.011-3.011-.206,3.011-.206Z" transform="translate(-622.895 -3657.486)" fill="#fff"/>
                <path id="패스_383" data-name="패스 383" d="M630.9,3661.723l-1.644,1.885,1.644,1.886-1.886-1.644-1.886,1.644,1.644-1.886-1.644-1.885,1.886,1.644Z" transform="translate(-625.799 -3660.392)" fill="#fff"/>
              </g>
              <circle id="타원_7" data-name="타원 7" cx="1.536" cy="1.536" r="1.536" transform="translate(1.368 4.431) rotate(-76.66)" fill="#fff" opacity="0.5"/>
            </g>
          </g>
        </g>
      </g>
    </g>
  </g>
</svg>
