<svg xmlns="http://www.w3.org/2000/svg" width="148" height="90" viewBox="0 0 148 90">
  <g id="thumb04" transform="translate(-507 -330)">
    <rect id="사각형_7" data-name="사각형 7" width="148" height="90" rx="8" transform="translate(507 330)" fill="#fbc6c6"/>
    <g id="그룹_328" data-name="그룹 328" transform="translate(-1711.085 -2398.363)">
      <path id="패스_502" data-name="패스 502" d="M2505.406,2757.438a1.658,1.658,0,0,0-.1-1.281,1.493,1.493,0,0,0-.451-.526,1.542,1.542,0,0,1-2.229-1.618,1.493,1.493,0,0,0-.641-.266,1.648,1.648,0,0,0-1.246.3,2.316,2.316,0,0,0-.872,1.61,9.5,9.5,0,0,0,.488,3.739.08.08,0,0,0,.031.047.079.079,0,0,0,.055.015,9.5,9.5,0,0,0,3.706-.694A2.317,2.317,0,0,0,2505.406,2757.438Z" transform="translate(-188.902 -12.824)" fill="#d5284b"/>
      <path id="패스_503" data-name="패스 503" d="M2247.115,2844.43a2.107,2.107,0,0,0-1.382-.871,1.9,1.9,0,0,0-.879.058,1.96,1.96,0,0,1-3.345,1.038,1.906,1.906,0,0,0-.759.451,2.1,2.1,0,0,0-.643,1.5,2.944,2.944,0,0,0,.976,2.114c.869.878,1.944,1.412,4.179,2.35a.1.1,0,0,0,.072,0,.1.1,0,0,0,.057-.044c1.312-2.037,1.895-3.085,2.115-4.3A2.946,2.946,0,0,0,2247.115,2844.43Z" transform="translate(-9.361 -70.998)" fill="#d74072"/>
      <g id="그룹_327" data-name="그룹 327" transform="translate(2273.085 2742.764)">
        <path id="패스_504" data-name="패스 504" d="M2368.061,2793.135s3.949-24.417,10.975-32.189c0,0,17.632,7.179,26.8,17.4-.083,3.414-7.464,30.262-7.464,30.262Z" transform="translate(-2368 -2760.935)" fill="#a8c4b6"/>
        <g id="그룹_302" data-name="그룹 302" transform="translate(18.219 3.527)">
          <g id="그룹_289" data-name="그룹 289" transform="translate(3.544)">
            <path id="패스_505" data-name="패스 505" d="M2447.667,2774.862a1.006,1.006,0,0,0,.979-.068.494.494,0,0,0-.006.5.675.675,0,0,0,.411.383.649.649,0,0,0-.088-.924c.421-.106.573-.152.729-.573-.274-.159-.654.093-.827.3a.691.691,0,0,0-.365-.642s-.318.221-.031.726c-.2-.168-.659.114-.811.309Z" transform="translate(-2447.659 -2773.84)" fill="#fff"/>
            <path id="패스_506" data-name="패스 506" d="M2451.136,2776.519a1,1,0,0,1,.153-.024.325.325,0,0,0-.137-.013c0-.054.038-.057.038-.113-.037.026-.034.077-.078.088a.532.532,0,0,1-.134-.032.189.189,0,0,1,.125.052.468.468,0,0,1-.092.075c.1-.015.13-.088.2.028a.454.454,0,0,1-.063-.074" transform="translate(-2450.073 -2775.679)" fill="#fff"/>
          </g>
          <g id="그룹_290" data-name="그룹 290" transform="translate(2.199 4.343)">
            <path id="패스_507" data-name="패스 507" d="M2442.737,2790.794a1,1,0,0,0,.979-.069.5.5,0,0,0-.008.5.678.678,0,0,0,.413.381.647.647,0,0,0-.089-.923c.422-.106.572-.151.73-.57-.274-.162-.656.09-.828.3a.689.689,0,0,0-.364-.642s-.318.223-.032.727c-.2-.169-.657.116-.81.307Z" transform="translate(-2442.728 -2789.77)" fill="#fff"/>
            <path id="패스_508" data-name="패스 508" d="M2446.2,2792.453a.847.847,0,0,1,.152-.024.323.323,0,0,0-.137-.014c0-.052.037-.056.039-.112-.039.025-.034.075-.078.089a.678.678,0,0,1-.135-.034.2.2,0,0,1,.125.052.466.466,0,0,1-.092.075c.1-.015.129-.087.2.028a.45.45,0,0,1-.064-.074" transform="translate(-2445.139 -2791.612)" fill="#fff"/>
          </g>
          <g id="그룹_291" data-name="그룹 291" transform="translate(2.84 1.719)">
            <path id="패스_509" data-name="패스 509" d="M2445.09,2780.311a.735.735,0,0,0,.593.48c-.17.036-.233.163-.3.292a.529.529,0,0,0,.008.448.57.57,0,0,0,.493-.6.635.635,0,0,0,.75.046c-.06-.24-.424-.293-.645-.261a.564.564,0,0,0,.174-.575s-.311-.037-.446.417c-.012-.207-.439-.283-.639-.248Z" transform="translate(-2445.079 -2780.144)" fill="#fff"/>
            <path id="패스_510" data-name="패스 510" d="M2447.457,2782.036a.966.966,0,0,1,.1.066.235.235,0,0,0-.069-.079c.033-.03.054-.013.088-.047-.037-.006-.064.027-.1.012s-.043-.072-.058-.091a.14.14,0,0,1,.041.1.437.437,0,0,1-.1,0c.067.045.123.017.094.121a.322.322,0,0,1,.007-.077" transform="translate(-2446.744 -2781.418)" fill="#fff"/>
          </g>
          <g id="그룹_292" data-name="그룹 292" transform="translate(1.504 3.08)">
            <path id="패스_511" data-name="패스 511" d="M2440.192,2785.3a.735.735,0,0,0,.595.48c-.173.036-.235.164-.3.293a.52.52,0,0,0,.007.446.568.568,0,0,0,.493-.594.635.635,0,0,0,.75.048c-.06-.241-.426-.293-.644-.26a.565.565,0,0,0,.174-.576s-.311-.038-.447.415c-.012-.208-.441-.283-.641-.249Z" transform="translate(-2440.179 -2785.138)" fill="#fff"/>
            <path id="패스_512" data-name="패스 512" d="M2442.566,2787.027a.54.54,0,0,1,.1.066.218.218,0,0,0-.07-.082c.033-.03.055-.013.088-.046-.037,0-.063.026-.094.01s-.044-.071-.057-.09a.139.139,0,0,1,.041.1.45.45,0,0,1-.1,0c.067.045.123.018.094.121a.4.4,0,0,1,.008-.078" transform="translate(-2441.851 -2786.409)" fill="#fff"/>
          </g>
          <g id="그룹_293" data-name="그룹 293" transform="translate(0.804 1.119)">
            <path id="패스_513" data-name="패스 513" d="M2437.978,2777.948a.694.694,0,0,0,.263.7.467.467,0,0,0-.409.12.566.566,0,0,0-.222.4.6.6,0,0,0,.73-.3c.176.283.245.382.62.391.074-.241-.213-.456-.419-.53a.61.61,0,0,0,.445-.429s-.248-.177-.6.16c.1-.187-.233-.453-.421-.516Z" transform="translate(-2437.609 -2777.944)" fill="#fff"/>
            <path id="패스_514" data-name="패스 514" d="M2440.182,2780.247a.558.558,0,0,1,.052.106.215.215,0,0,0-.019-.1c.045-.012.056.013.1,0-.029-.022-.068-.009-.087-.036s0-.083,0-.106a.138.138,0,0,1-.015.1.487.487,0,0,1-.081-.048c.035.072.1.073.019.15a.376.376,0,0,1,.047-.064" transform="translate(-2439.442 -2779.518)" fill="#fff"/>
          </g>
          <g id="그룹_294" data-name="그룹 294" transform="translate(0 3.608)">
            <path id="패스_515" data-name="패스 515" d="M2434.673,2787.172a.725.725,0,0,0,.556.518c-.171.026-.244.149-.318.274a.527.527,0,0,0-.025.447.575.575,0,0,0,.534-.564.629.629,0,0,0,.744.1c-.043-.243-.4-.32-.623-.3a.571.571,0,0,0,.212-.565s-.306-.055-.473.387c0-.207-.417-.311-.62-.288Z" transform="translate(-2434.661 -2787.073)" fill="#fff"/>
            <path id="패스_516" data-name="패스 516" d="M2436.927,2788.879a.781.781,0,0,1,.095.073.218.218,0,0,0-.063-.085c.035-.027.056-.011.091-.041-.036-.006-.065.023-.1,0s-.037-.074-.05-.093a.137.137,0,0,1,.033.1.45.45,0,0,1-.094-.008c.062.051.122.024.085.126a.354.354,0,0,1,.013-.077" transform="translate(-2436.248 -2788.284)" fill="#fff"/>
          </g>
          <g id="그룹_295" data-name="그룹 295" transform="translate(3.635 2.883)">
            <path id="패스_517" data-name="패스 517" d="M2448.563,2784.418a.737.737,0,0,0,.17.772.5.5,0,0,0-.446.072.6.6,0,0,0-.293.389.64.64,0,0,0,.81-.214c.14.32.2.432.587.494.113-.242-.154-.509-.357-.615a.653.653,0,0,0,.529-.389s-.233-.22-.648.088c.128-.185-.174-.509-.363-.6Z" transform="translate(-2447.994 -2784.414)" fill="#fff"/>
            <path id="패스_518" data-name="패스 518" d="M2450.982,2787.04a.687.687,0,0,1,.038.119.227.227,0,0,0,0-.111c.048-.007.055.021.1.012-.024-.026-.07-.015-.086-.049-.009-.017.013-.085.014-.111a.151.151,0,0,1-.032.108.392.392,0,0,1-.076-.061c.025.08.09.09,0,.162a.5.5,0,0,1,.058-.063" transform="translate(-2450.134 -2786.222)" fill="#fff"/>
          </g>
          <g id="그룹_296" data-name="그룹 296" transform="translate(7.279 3.663)">
            <path id="패스_519" data-name="패스 519" d="M2461.367,2788.3a1.008,1.008,0,0,0,.979-.069.494.494,0,0,0-.007.5.678.678,0,0,0,.412.382.648.648,0,0,0-.088-.922c.422-.107.571-.152.728-.573-.274-.16-.654.094-.826.3a.692.692,0,0,0-.366-.641s-.319.222-.031.726c-.2-.169-.658.115-.809.308Z" transform="translate(-2461.359 -2787.275)" fill="#fff"/>
            <path id="패스_520" data-name="패스 520" d="M2464.83,2789.953a.844.844,0,0,1,.153-.023.3.3,0,0,0-.137-.012c0-.053.038-.057.039-.115-.039.026-.035.077-.079.09a.737.737,0,0,1-.134-.033.184.184,0,0,1,.126.053.652.652,0,0,1-.092.074c.1-.015.13-.086.2.028a.5.5,0,0,1-.065-.074" transform="translate(-2463.769 -2789.114)" fill="#fff"/>
          </g>
          <g id="그룹_297" data-name="그룹 297" transform="translate(5.787 2.078)">
            <path id="패스_521" data-name="패스 521" d="M2455.9,2781.627a.734.734,0,0,0,.592.479c-.169.036-.232.163-.3.292a.529.529,0,0,0,.008.447.57.57,0,0,0,.493-.6.634.634,0,0,0,.749.048c-.059-.241-.425-.293-.642-.261a.566.566,0,0,0,.172-.574s-.311-.038-.446.415c-.013-.206-.44-.283-.641-.248Z" transform="translate(-2455.887 -2781.461)" fill="#fff"/>
            <path id="패스_522" data-name="패스 522" d="M2458.269,2783.351a.731.731,0,0,1,.1.065.225.225,0,0,0-.068-.08c.033-.03.055-.013.089-.047-.036-.005-.064.027-.1.011s-.043-.071-.057-.089a.133.133,0,0,1,.041.1.379.379,0,0,1-.1,0c.068.046.125.017.1.122a.3.3,0,0,1,.008-.077" transform="translate(-2457.554 -2782.734)" fill="#fff"/>
          </g>
          <g id="그룹_298" data-name="그룹 298" transform="translate(5.883 0.438)">
            <path id="패스_523" data-name="패스 523" d="M2456.606,2775.449a.7.7,0,0,0,.263.7.46.46,0,0,0-.406.121.558.558,0,0,0-.225.4.6.6,0,0,0,.731-.3c.175.282.244.381.619.391.073-.24-.212-.456-.418-.531a.6.6,0,0,0,.445-.427s-.248-.177-.6.16c.1-.187-.233-.454-.423-.516Z" transform="translate(-2456.237 -2775.445)" fill="#fff"/>
            <path id="패스_524" data-name="패스 524" d="M2458.811,2777.749a.636.636,0,0,1,.051.1.206.206,0,0,0-.018-.1c.044-.01.055.014.1,0-.028-.021-.068-.006-.089-.034a.529.529,0,0,1,0-.106.139.139,0,0,1-.016.105.421.421,0,0,1-.08-.048c.033.072.1.073.019.15a.382.382,0,0,1,.048-.064" transform="translate(-2458.071 -2777.019)" fill="#fff"/>
          </g>
          <g id="그룹_299" data-name="그룹 299" transform="translate(7.831 1.179)">
            <path id="패스_525" data-name="패스 525" d="M2463.4,2778.265a.726.726,0,0,0,.557.517c-.172.027-.245.149-.319.273a.525.525,0,0,0-.023.447.573.573,0,0,0,.533-.563.629.629,0,0,0,.742.1c-.042-.245-.4-.322-.622-.3a.567.567,0,0,0,.212-.563s-.306-.057-.473.387c0-.207-.417-.31-.619-.288Z" transform="translate(-2463.385 -2778.167)" fill="#fff"/>
            <path id="패스_526" data-name="패스 526" d="M2465.653,2779.969a.59.59,0,0,1,.094.074.21.21,0,0,0-.062-.086c.035-.028.056-.009.092-.04-.038-.008-.066.021-.1,0s-.038-.075-.05-.095a.139.139,0,0,1,.034.1.362.362,0,0,1-.094-.01c.062.051.121.025.085.127a.265.265,0,0,1,.013-.077" transform="translate(-2464.973 -2779.374)" fill="#fff"/>
          </g>
          <g id="그룹_300" data-name="그룹 300" transform="translate(5.505 3.861)">
            <path id="패스_527" data-name="패스 527" d="M2454.863,2788.1a.723.723,0,0,0,.557.517c-.172.027-.244.149-.318.274a.533.533,0,0,0-.025.447.573.573,0,0,0,.533-.565.63.63,0,0,0,.743.1c-.041-.245-.4-.321-.621-.3a.572.572,0,0,0,.213-.564s-.307-.057-.474.387c0-.208-.418-.312-.619-.289Z" transform="translate(-2454.852 -2788.002)" fill="#fff"/>
            <path id="패스_528" data-name="패스 528" d="M2457.115,2789.806a.738.738,0,0,1,.1.075.239.239,0,0,0-.063-.086c.036-.027.054-.009.092-.04-.036-.008-.066.023-.1,0s-.037-.075-.05-.094a.14.14,0,0,1,.034.1.442.442,0,0,1-.1-.01c.064.05.121.026.085.127a.407.407,0,0,1,.013-.076" transform="translate(-2456.436 -2789.213)" fill="#fff"/>
          </g>
          <g id="그룹_301" data-name="그룹 301" transform="translate(8.715 2.202)">
            <path id="패스_529" data-name="패스 529" d="M2467.194,2781.919a.737.737,0,0,0,.17.773.49.49,0,0,0-.444.071.6.6,0,0,0-.294.389.635.635,0,0,0,.807-.214c.141.319.2.433.588.492.114-.242-.153-.507-.357-.614a.654.654,0,0,0,.531-.389s-.233-.221-.648.088c.128-.185-.174-.509-.363-.6Z" transform="translate(-2466.626 -2781.915)" fill="#fff"/>
            <path id="패스_530" data-name="패스 530" d="M2469.609,2784.542a.611.611,0,0,1,.039.118.246.246,0,0,0,0-.112c.048-.007.055.021.106.012-.027-.027-.072-.016-.087-.049-.01-.017.012-.086.013-.112a.153.153,0,0,1-.031.108.444.444,0,0,1-.078-.06c.024.079.091.09,0,.161a.359.359,0,0,1,.058-.061" transform="translate(-2468.763 -2783.723)" fill="#fff"/>
          </g>
        </g>
        <g id="그룹_316" data-name="그룹 316" transform="translate(29.487 12.508)">
          <g id="그룹_303" data-name="그룹 303" transform="translate(1.471 1.785)">
            <path id="패스_531" data-name="패스 531" d="M2481.532,2815.247a1,1,0,0,0,.64-.743c.036.208.193.281.351.356a.677.677,0,0,0,.562-.023.649.649,0,0,0-.718-.586c.221-.373.295-.514.106-.922-.306.083-.394.53-.368.8a.691.691,0,0,0-.713-.194s-.066.383.494.535c-.259.021-.382.549-.351.793Z" transform="translate(-2481.388 -2813.328)" fill="#fff"/>
            <path id="패스_532" data-name="패스 532" d="M2483.685,2816.764a1.011,1.011,0,0,1,.09-.126.331.331,0,0,0-.106.089c-.036-.04-.013-.068-.053-.107-.009.045.03.078.008.118-.012.021-.093.055-.117.072a.184.184,0,0,1,.125-.052.447.447,0,0,1-.012.118c.062-.084.031-.154.159-.121a.461.461,0,0,1-.1-.007" transform="translate(-2482.929 -2815.722)" fill="#fff"/>
          </g>
          <g id="그룹_304" data-name="그룹 304" transform="translate(3.611 5.798)">
            <path id="패스_533" data-name="패스 533" d="M2489.379,2829.966a1.006,1.006,0,0,0,.64-.746c.035.208.19.281.349.359a.686.686,0,0,0,.563-.025.648.648,0,0,0-.719-.586c.221-.375.294-.514.107-.922-.308.082-.4.53-.37.8a.691.691,0,0,0-.713-.193s-.065.384.5.533c-.26.022-.382.549-.352.792Z" transform="translate(-2489.235 -2828.047)" fill="#fff"/>
            <path id="패스_534" data-name="패스 534" d="M2491.534,2831.481a.778.778,0,0,1,.09-.123.305.305,0,0,0-.107.085c-.035-.039-.013-.066-.053-.106-.009.045.03.077.009.118-.012.021-.092.054-.116.072a.19.19,0,0,1,.124-.053.623.623,0,0,1-.01.118c.061-.085.028-.153.159-.121a.405.405,0,0,1-.1-.007" transform="translate(-2490.778 -2830.441)" fill="#fff"/>
          </g>
          <g id="그룹_305" data-name="그룹 305" transform="translate(1.728 3.93)">
            <path id="패스_535" data-name="패스 535" d="M2482.335,2822.075a.734.734,0,0,0,.759-.083.446.446,0,0,0,0,.418.529.529,0,0,0,.323.311.574.574,0,0,0-.076-.771c.324-.1.442-.144.561-.5-.213-.125-.508.094-.639.275a.564.564,0,0,0-.287-.529s-.244.195-.019.609c-.155-.137-.509.114-.625.28Z" transform="translate(-2482.33 -2821.196)" fill="#fff"/>
            <path id="패스_536" data-name="패스 536" d="M2485.012,2823.413a.8.8,0,0,1,.117-.025.257.257,0,0,0-.106-.008c0-.043.029-.047.029-.1-.03.023-.026.065-.06.077s-.08-.019-.1-.023a.129.129,0,0,1,.1.039.408.408,0,0,1-.068.066c.079-.015.1-.075.152.019a.414.414,0,0,1-.049-.06" transform="translate(-2484.191 -2822.715)" fill="#fff"/>
          </g>
          <g id="그룹_306" data-name="그룹 306" transform="translate(1.754 5.835)">
            <path id="패스_537" data-name="패스 537" d="M2482.432,2829.062a.735.735,0,0,0,.76-.084.437.437,0,0,0,0,.419.523.523,0,0,0,.322.309.569.569,0,0,0-.075-.77c.326-.1.442-.144.561-.5-.213-.126-.507.094-.638.273a.562.562,0,0,0-.286-.528s-.246.193-.019.609c-.156-.136-.512.114-.628.281Z" transform="translate(-2482.424 -2828.183)" fill="#fff"/>
            <path id="패스_538" data-name="패스 538" d="M2485.116,2830.4a.588.588,0,0,1,.118-.024.231.231,0,0,0-.106-.008c0-.044.03-.048.029-.095-.029.022-.026.063-.06.075s-.08-.019-.1-.023a.137.137,0,0,1,.1.04.57.57,0,0,1-.07.066c.079-.016.1-.076.152.018a.465.465,0,0,1-.05-.061" transform="translate(-2484.293 -2829.707)" fill="#fff"/>
          </g>
          <g id="그룹_307" data-name="그룹 307" transform="translate(0 4.997)">
            <path id="패스_539" data-name="패스 539" d="M2476,2825.577a.7.7,0,0,0,.681.305.465.465,0,0,0-.2.375.564.564,0,0,0,.126.439.6.6,0,0,0,.3-.728c.324.073.443.095.713-.166-.118-.221-.473-.17-.671-.075a.609.609,0,0,0,.009-.618s-.3.051-.307.537c-.065-.2-.485-.154-.663-.064Z" transform="translate(-2475.992 -2825.109)" fill="#fff"/>
            <path id="패스_540" data-name="패스 540" d="M2478.619,2827.387a.527.527,0,0,1,.112.038.2.2,0,0,0-.087-.06c.023-.041.048-.031.071-.071-.036.005-.055.043-.087.036s-.059-.057-.076-.072a.151.151,0,0,1,.064.085.578.578,0,0,1-.093.024c.077.024.123-.019.121.092a.467.467,0,0,1-.012-.079" transform="translate(-2477.833 -2826.672)" fill="#fff"/>
          </g>
          <g id="그룹_308" data-name="그룹 308" transform="translate(1.023 7.273)">
            <path id="패스_541" data-name="패스 541" d="M2479.751,2834.292a.722.722,0,0,0,.758-.031.449.449,0,0,0-.028.418.521.521,0,0,0,.3.332.575.575,0,0,0-.025-.776c.331-.077.45-.111.592-.46-.2-.141-.511.06-.654.23a.567.567,0,0,0-.251-.548s-.256.178-.06.608c-.145-.147-.514.079-.64.237Z" transform="translate(-2479.744 -2833.457)" fill="#fff"/>
            <path id="패스_542" data-name="패스 542" d="M2482.471,2835.728a.559.559,0,0,1,.119-.015.219.219,0,0,0-.1-.016c.006-.044.032-.047.034-.094-.03.021-.03.063-.063.072s-.08-.025-.1-.031a.141.141,0,0,1,.093.046.393.393,0,0,1-.073.062c.081-.01.1-.07.15.029a.412.412,0,0,1-.044-.064" transform="translate(-2481.643 -2835.019)" fill="#fff"/>
          </g>
          <g id="그룹_309" data-name="그룹 309" transform="translate(3.386 4.2)">
            <path id="패스_543" data-name="패스 543" d="M2488.423,2822.541a.739.739,0,0,0,.668.422c-.168.067-.213.215-.262.367a.6.6,0,0,0,.07.481.637.637,0,0,0,.417-.725.613.613,0,0,0,.765-.069c-.094-.251-.471-.249-.69-.179a.65.65,0,0,0,.1-.65s-.321.011-.394.522c-.041-.221-.484-.234-.682-.165Z" transform="translate(-2488.412 -2822.187)" fill="#fff"/>
            <path id="패스_544" data-name="패스 544" d="M2491.039,2824.468a.669.669,0,0,1,.111.056.217.217,0,0,0-.081-.076c.029-.038.054-.023.082-.065-.036,0-.06.039-.1.028-.019-.007-.051-.07-.069-.089a.157.157,0,0,1,.054.1.378.378,0,0,1-.1.01c.073.041.125,0,.112.118a.362.362,0,0,1,0-.085" transform="translate(-2490.253 -2823.74)" fill="#fff"/>
          </g>
          <g id="그룹_310" data-name="그룹 310" transform="translate(6.702 1.71)">
            <path id="패스_545" data-name="패스 545" d="M2500.718,2814.974a1.009,1.009,0,0,0,.641-.745c.036.209.19.281.349.357a.683.683,0,0,0,.562-.023.647.647,0,0,0-.719-.585c.222-.375.3-.514.107-.922-.306.081-.4.531-.368.8a.688.688,0,0,0-.712-.193s-.068.382.493.533c-.259.021-.382.55-.351.793Z" transform="translate(-2500.575 -2813.055)" fill="#fff"/>
            <path id="패스_546" data-name="패스 546" d="M2502.867,2816.487a.828.828,0,0,1,.09-.125.315.315,0,0,0-.106.087c-.036-.039-.014-.066-.053-.107-.01.046.029.079.008.12a.807.807,0,0,1-.118.071.189.189,0,0,1,.125-.053.461.461,0,0,1-.011.119c.062-.085.03-.152.159-.122a.4.4,0,0,1-.1-.006" transform="translate(-2502.113 -2815.446)" fill="#fff"/>
          </g>
          <g id="그룹_311" data-name="그룹 311" transform="translate(4.057 2.088)">
            <path id="패스_547" data-name="패스 547" d="M2490.877,2815.319a.733.733,0,0,0,.757-.083.448.448,0,0,0,0,.417.524.524,0,0,0,.322.309.571.571,0,0,0-.075-.771c.326-.1.441-.143.56-.5-.212-.127-.507.095-.637.272a.566.566,0,0,0-.289-.526s-.245.194-.018.609c-.155-.137-.511.113-.626.28Z" transform="translate(-2490.871 -2814.441)" fill="#fff"/>
            <path id="패스_548" data-name="패스 548" d="M2493.556,2816.656a.545.545,0,0,1,.116-.024.23.23,0,0,0-.105-.008c0-.043.03-.048.029-.1-.03.022-.026.064-.061.075-.019.007-.081-.02-.1-.022a.138.138,0,0,1,.1.039.429.429,0,0,1-.072.065c.081-.014.1-.076.153.018a.392.392,0,0,1-.049-.061" transform="translate(-2492.734 -2815.959)" fill="#fff"/>
          </g>
          <g id="그룹_312" data-name="그룹 312" transform="translate(3.091 0.909)">
            <path id="패스_549" data-name="패스 549" d="M2487.337,2810.583a.7.7,0,0,0,.683.305.46.46,0,0,0-.2.374.557.557,0,0,0,.125.44.6.6,0,0,0,.3-.729c.324.074.443.094.714-.165-.12-.221-.474-.17-.672-.077a.61.61,0,0,0,.01-.617s-.3.053-.307.537c-.067-.2-.487-.155-.665-.063Z" transform="translate(-2487.328 -2810.115)" fill="#fff"/>
            <path id="패스_550" data-name="패스 550" d="M2489.962,2812.4a.642.642,0,0,1,.111.038.212.212,0,0,0-.086-.059c.024-.041.048-.03.071-.072-.035.005-.053.043-.087.037-.017,0-.058-.058-.076-.073a.138.138,0,0,1,.063.085.336.336,0,0,1-.09.024c.073.026.12-.019.119.093a.49.49,0,0,1-.012-.079" transform="translate(-2489.175 -2811.68)" fill="#fff"/>
          </g>
          <g id="그룹_313" data-name="그룹 313" transform="translate(4.81)">
            <path id="패스_551" data-name="패스 551" d="M2493.64,2807.617a.727.727,0,0,0,.759-.031.451.451,0,0,0-.029.419.52.52,0,0,0,.3.33.574.574,0,0,0-.025-.776c.33-.076.449-.111.59-.46-.2-.141-.51.059-.653.229a.568.568,0,0,0-.25-.547s-.256.177-.059.608c-.146-.148-.514.078-.64.237Z" transform="translate(-2493.634 -2806.782)" fill="#fff"/>
            <path id="패스_552" data-name="패스 552" d="M2496.359,2809.055a.53.53,0,0,1,.119-.014.208.208,0,0,0-.105-.017c.005-.045.033-.047.036-.093-.032.021-.031.062-.065.072s-.081-.026-.1-.031a.144.144,0,0,1,.095.046.469.469,0,0,1-.073.062c.078-.009.1-.068.149.028a.3.3,0,0,1-.044-.063" transform="translate(-2495.53 -2808.345)" fill="#fff"/>
          </g>
          <g id="그룹_314" data-name="그룹 314" transform="translate(5.076 3.54)">
            <path id="패스_553" data-name="패스 553" d="M2494.618,2820.6a.726.726,0,0,0,.759-.032.448.448,0,0,0-.03.419.536.536,0,0,0,.3.331.573.573,0,0,0-.026-.776c.331-.077.45-.112.591-.46-.2-.143-.51.06-.652.23a.571.571,0,0,0-.251-.548s-.256.178-.059.608c-.146-.146-.515.079-.641.237Z" transform="translate(-2494.61 -2819.767)" fill="#fff"/>
            <path id="패스_554" data-name="패스 554" d="M2497.34,2822.042a1.146,1.146,0,0,1,.121-.016.236.236,0,0,0-.107-.014c.007-.045.033-.046.037-.094-.031.021-.031.062-.065.071s-.08-.025-.1-.029a.142.142,0,0,1,.094.045.408.408,0,0,1-.073.062c.081-.01.1-.068.151.028a.3.3,0,0,1-.045-.062" transform="translate(-2496.511 -2821.332)" fill="#fff"/>
          </g>
          <g id="그룹_315" data-name="그룹 315" transform="translate(6.477 0.112)">
            <path id="패스_555" data-name="패스 555" d="M2499.76,2807.547a.732.732,0,0,0,.668.422.485.485,0,0,0-.261.367.594.594,0,0,0,.069.481.636.636,0,0,0,.416-.725c.326.126.447.165.765-.07-.093-.251-.469-.248-.688-.179a.655.655,0,0,0,.1-.651s-.321.01-.4.521c-.041-.22-.483-.233-.682-.164Z" transform="translate(-2499.748 -2807.193)" fill="#fff"/>
            <path id="패스_556" data-name="패스 556" d="M2502.372,2809.477a.582.582,0,0,1,.11.054.256.256,0,0,0-.082-.075c.029-.038.054-.023.083-.066-.039,0-.061.04-.1.029-.019-.005-.052-.07-.069-.089a.153.153,0,0,1,.054.1.508.508,0,0,1-.1.013c.074.037.128,0,.114.114a.366.366,0,0,1,0-.084" transform="translate(-2501.585 -2808.747)" fill="#fff"/>
          </g>
        </g>
        <path id="패스_557" data-name="패스 557" d="M2409.3,2867.711s9.125,3.41,10.941,6.974" transform="translate(-2397.993 -2838.591)" fill="none" stroke="#679760" stroke-miterlimit="10" stroke-width="1"/>
        <path id="패스_558" data-name="패스 558" d="M2421.547,2805.717s10.156,16.613,10.158,27.341" transform="translate(-2406.903 -2793.499)" fill="none" stroke="#679760" stroke-miterlimit="10" stroke-width="1"/>
        <path id="패스_559" data-name="패스 559" d="M2467.748,2834.949s-.3,9.483-1.547,13.687" transform="translate(-2439.383 -2814.762)" fill="none" stroke="#679760" stroke-miterlimit="10" stroke-width="1"/>
        <line id="선_2" data-name="선 2" x2="5.078" y2="5.38" transform="translate(17.368 23.416)" fill="none" stroke="#679760" stroke-miterlimit="10" stroke-width="1"/>
        <path id="패스_560" data-name="패스 560" d="M2387.012,2834.887a4.881,4.881,0,1,0,7.018-1.377A5.066,5.066,0,0,0,2387.012,2834.887Z" transform="translate(-2381.012 -2813.078)" fill="#d6385b"/>
        <path id="패스_561" data-name="패스 561" d="M2374.981,2843.131c-1.32,3.019-.392,6.34,2.072,7.417s5.529-.5,6.847-3.521.392-6.338-2.071-7.414S2376.3,2840.112,2374.981,2843.131Z" transform="translate(-2372.596 -2817.908)" fill="#d42a3f"/>
        <path id="패스_562" data-name="패스 562" d="M2368.671,2835.194c-1.32,3.02-.393,6.34,2.071,7.415s5.531-.5,6.849-3.518.39-6.341-2.072-7.416S2369.991,2832.175,2368.671,2835.194Z" transform="translate(-2368.007 -2812.134)" fill="#d6385b"/>
        <path id="패스_563" data-name="패스 563" d="M2375.786,2844.613c-.283-2.3,1.7-4.434,4.426-4.77s5.168,1.251,5.452,3.55-1.7,4.431-4.425,4.768S2376.069,2846.909,2375.786,2844.613Z" transform="translate(-2373.599 -2818.288)" fill="#d5284b"/>
        <path id="패스_564" data-name="패스 564" d="M2388.192,2853.322c-.1-.422.519-.932,1.384-1.142s1.651-.034,1.753.389-.518.933-1.385,1.141S2388.294,2853.743,2388.192,2853.322Z" transform="translate(-2382.634 -2827.231)" fill="#dfd5a8"/>
        <path id="패스_565" data-name="패스 565" d="M2393.826,2765.279a5.8,5.8,0,1,0,7.448-4.1A6.023,6.023,0,0,0,2393.826,2765.279Z" transform="translate(-2386.495 -2760.905)" fill="#d74072"/>
        <path id="패스_566" data-name="패스 566" d="M2384.121,2778.619c-.4,3.9,1.854,7.322,5.033,7.65s6.081-2.571,6.479-6.468-1.853-7.319-5.032-7.645S2384.521,2774.721,2384.121,2778.619Z" transform="translate(-2379.648 -2769.07)" fill="#cf2b60"/>
        <path id="패스_567" data-name="패스 567" d="M2374.106,2771.919c-.4,3.9,1.852,7.321,5.031,7.647s6.081-2.569,6.482-6.466-1.854-7.321-5.033-7.645S2374.505,2768.02,2374.106,2771.919Z" transform="translate(-2372.363 -2764.196)" fill="#cf2b60"/>
        <path id="패스_568" data-name="패스 568" d="M2383.84,2780.383c-1.155-2.5.316-5.635,3.282-7s6.308-.456,7.46,2.044-.317,5.633-3.283,7S2384.992,2782.883,2383.84,2780.383Z" transform="translate(-2379.191 -2769.516)" fill="#d74072"/>
        <path id="패스_569" data-name="패스 569" d="M2398.275,2789.241c-.269-.442.264-1.254,1.187-1.812s1.888-.656,2.157-.217-.265,1.254-1.188,1.814S2398.543,2789.682,2398.275,2789.241Z" transform="translate(-2389.925 -2779.838)" fill="#dfd5a8"/>
        <path id="패스_570" data-name="패스 570" d="M2456.876,2797.086a5.2,5.2,0,1,0,7.551.982A5.393,5.393,0,0,0,2456.876,2797.086Z" transform="translate(-2430.825 -2786.422)" fill="#d43460"/>
        <path id="패스_571" data-name="패스 571" d="M2440.71,2801.826c-2.353,2.6-2.538,6.269-.416,8.189s5.753,1.365,8.106-1.24,2.537-6.267.415-8.186S2443.065,2799.223,2440.71,2801.826Z" transform="translate(-2419.465 -2788.938)" fill="#d24468"/>
        <path id="패스_572" data-name="패스 572" d="M2437.024,2791.679c-2.355,2.6-2.54,6.269-.416,8.188s5.753,1.366,8.106-1.238,2.538-6.269.415-8.187S2439.378,2789.075,2437.024,2791.679Z" transform="translate(-2416.782 -2781.557)" fill="#d6385b"/>
        <path id="패스_573" data-name="패스 573" d="M2443.834,2803.158c-.487-2.417,1.445-4.844,4.314-5.42s5.59.914,6.077,3.329-1.446,4.842-4.316,5.419S2444.319,2805.574,2443.834,2803.158Z" transform="translate(-2423.06 -2787.605)" fill="#d5284b"/>
        <path id="패스_574" data-name="패스 574" d="M2457.158,2813.488c.041-.462.751-.774,1.587-.7s1.482.506,1.442.967-.752.774-1.588.7S2457.118,2813.948,2457.158,2813.488Z" transform="translate(-2432.804 -2798.634)" fill="#dfd5a8"/>
        <path id="패스_575" data-name="패스 575" d="M2453.129,2825.932l-1.736,28.78-18.926-5.745Z" transform="translate(-2414.846 -2808.203)" fill="#b1ccbd"/>
        <path id="패스_576" data-name="패스 576" d="M2367.837,2878.5l35.789,35.711,1.664-32.333S2392.483,2885.793,2367.837,2878.5Z" transform="translate(-2367.837 -2846.44)" fill="#b7d4c6"/>
        <path id="패스_577" data-name="패스 577" d="M2399.624,2879.3s5.9-2.5,9.541-2.685C2409.165,2876.616,2403.632,2871.838,2399.624,2879.3Z" transform="translate(-2390.958 -2843.973)" fill="#679760" stroke="#679760" stroke-miterlimit="10" stroke-width="1"/>
        <path id="패스_578" data-name="패스 578" d="M2453.564,2854.954s3.529-7.546,6.875-10.891C2460.438,2844.063,2450.944,2844.262,2453.564,2854.954Z" transform="translate(-2429.858 -2821.39)" fill="#679760" stroke="#679760" stroke-miterlimit="10" stroke-width="1"/>
        <path id="패스_579" data-name="패스 579" d="M2428.289,2804.876s1.432-4.231,3.071-6.113C2431.36,2798.763,2426.014,2798.9,2428.289,2804.876Z" transform="translate(-2411.397 -2788.441)" fill="#679760" stroke="#679760" stroke-miterlimit="10" stroke-width="1"/>
        <path id="패스_580" data-name="패스 580" d="M2404.786,2825.642s5.955.678,9.109,2.084C2413.9,2827.726,2411.028,2821.87,2404.786,2825.642Z" transform="translate(-2394.712 -2807.071)" fill="#679760" stroke="#679760" stroke-miterlimit="10" stroke-width="1"/>
        <g id="그룹_326" data-name="그룹 326" transform="translate(11.461 17.018)">
          <g id="그룹_317" data-name="그룹 317" transform="translate(0 5.026)">
            <path id="패스_581" data-name="패스 581" d="M2410.861,2844.5a1.293,1.293,0,0,0,.246-1.238.634.634,0,0,0,.617.178.873.873,0,0,0,.615-.38.833.833,0,0,0-1.174-.2c.011-.559.006-.762-.462-1.1-.291.285-.107.842.092,1.127a.887.887,0,0,0-.919.234s.168.47.891.285c-.277.187-.083.855.107,1.109Z" transform="translate(-2409.874 -2841.759)" fill="#fff"/>
            <path id="패스_582" data-name="패스 582" d="M2413.52,2846.271a1.072,1.072,0,0,1,.021-.2.409.409,0,0,0-.062.164c-.065-.022-.057-.065-.127-.085.019.056.084.068.084.127,0,.032-.069.12-.086.155a.233.233,0,0,1,.106-.137.647.647,0,0,1,.063.139c.016-.134-.064-.19.1-.236a.561.561,0,0,1-.112.053" transform="translate(-2412.402 -2844.897)" fill="#fff"/>
          </g>
          <g id="그룹_318" data-name="그룹 318" transform="translate(1.815 7.243)">
            <path id="패스_583" data-name="패스 583" d="M2416.533,2851.576a.944.944,0,0,0,.8-.573.577.577,0,0,0,.262.47.675.675,0,0,0,.556.143.733.733,0,0,0-.571-.814c.3-.318.406-.441.314-.913-.318-.007-.509.425-.543.711a.726.726,0,0,0-.653-.412s-.151.373.364.694c-.261-.055-.5.45-.525.708Z" transform="translate(-2416.533 -2849.889)" fill="#fff"/>
            <path id="패스_584" data-name="패스 584" d="M2418.973,2853a1.026,1.026,0,0,1,.116-.1.282.282,0,0,0-.122.058c-.026-.05,0-.072-.03-.124-.02.044.011.089-.018.123s-.1.028-.131.04a.178.178,0,0,1,.134-.018.588.588,0,0,1-.036.118c.079-.068.063-.147.182-.076a.5.5,0,0,1-.094-.036" transform="translate(-2418.173 -2852.026)" fill="#fff"/>
          </g>
          <g id="그룹_319" data-name="그룹 319" transform="translate(3.508 6.526)">
            <path id="패스_585" data-name="패스 585" d="M2422.75,2848.326a.946.946,0,0,0,1.016.052.636.636,0,0,0-.062.575.78.78,0,0,0,.382.5.821.821,0,0,0,.009-1.075c.444-.066.6-.1.813-.561-.263-.221-.685.018-.885.234a.839.839,0,0,0-.3-.788s-.352.215-.112.833c-.185-.221-.689.043-.866.246Z" transform="translate(-2422.742 -2847.259)" fill="#fff"/>
            <path id="패스_586" data-name="패스 586" d="M2426.419,2850.482a.942.942,0,0,1,.16-.009.287.287,0,0,0-.139-.033c.009-.061.045-.06.052-.124-.042.023-.043.081-.09.091-.026,0-.1-.046-.133-.056a.207.207,0,0,1,.122.076.48.48,0,0,1-.1.074c.107,0,.142-.082.2.059a.613.613,0,0,1-.058-.093" transform="translate(-2425.308 -2849.482)" fill="#fff"/>
          </g>
          <g id="그룹_320" data-name="그룹 320" transform="translate(5.809 1.643)">
            <path id="패스_587" data-name="패스 587" d="M2432.164,2832.09a1.291,1.291,0,0,0,.248-1.238.636.636,0,0,0,.616.179.872.872,0,0,0,.614-.382.835.835,0,0,0-1.173-.2c.012-.559.006-.76-.461-1.1-.294.283-.107.842.091,1.125a.888.888,0,0,0-.919.235s.166.47.889.285c-.277.189-.082.856.107,1.109Z" transform="translate(-2431.179 -2829.35)" fill="#fff"/>
            <path id="패스_588" data-name="패스 588" d="M2434.817,2833.855a1.22,1.22,0,0,1,.024-.2.377.377,0,0,0-.063.166c-.064-.022-.058-.067-.126-.087.017.056.081.069.083.126,0,.034-.07.121-.086.156a.244.244,0,0,1,.106-.137.643.643,0,0,1,.063.138c.017-.132-.063-.19.1-.234a.5.5,0,0,1-.113.051" transform="translate(-2433.702 -2832.484)" fill="#fff"/>
          </g>
          <g id="그룹_321" data-name="그룹 321" transform="translate(3.261 3.71)">
            <path id="패스_589" data-name="패스 589" d="M2421.835,2838.618a.935.935,0,0,0,.793-.572.578.578,0,0,0,.263.47.677.677,0,0,0,.556.142.731.731,0,0,0-.57-.814.816.816,0,0,0,.313-.913c-.318-.008-.508.427-.542.709a.727.727,0,0,0-.654-.41s-.152.373.364.695c-.26-.055-.5.45-.524.708Z" transform="translate(-2421.834 -2836.931)" fill="#fff"/>
            <path id="패스_590" data-name="패스 590" d="M2424.27,2840.037a.931.931,0,0,1,.116-.1.289.289,0,0,0-.122.057c-.026-.051,0-.072-.028-.125-.018.043.011.088-.019.124-.016.02-.1.029-.131.04a.181.181,0,0,1,.134-.018.584.584,0,0,1-.038.118c.08-.066.065-.147.183-.075a.544.544,0,0,1-.093-.038" transform="translate(-2423.471 -2839.067)" fill="#fff"/>
          </g>
          <g id="그룹_322" data-name="그룹 322" transform="translate(1.173 3.095)">
            <path id="패스_591" data-name="패스 591" d="M2414.186,2835.805a.894.894,0,0,0,.956-.088.6.6,0,0,0,.011.545.72.72,0,0,0,.417.413.77.77,0,0,0-.12-1.007c.408-.12.555-.174.694-.635-.273-.172-.637.109-.8.339a.78.78,0,0,0-.379-.7s-.3.247,0,.8c-.2-.184-.642.133-.784.347Z" transform="translate(-2414.177 -2834.676)" fill="#fff"/>
            <path id="패스_592" data-name="패스 592" d="M2417.549,2837.6a.8.8,0,0,1,.146-.028.266.266,0,0,0-.135-.014c0-.057.036-.062.035-.123-.036.028-.031.082-.074.1a.521.521,0,0,1-.132-.035.188.188,0,0,1,.125.056.524.524,0,0,1-.087.083c.1-.018.124-.1.193.028a.487.487,0,0,1-.064-.08" transform="translate(-2416.514 -2836.681)" fill="#fff"/>
          </g>
          <g id="그룹_323" data-name="그룹 323" transform="translate(2.758 0.949)">
            <path id="패스_593" data-name="패스 593" d="M2419.991,2828.391a.937.937,0,0,0,.831-.513.579.579,0,0,0,.23.488.672.672,0,0,0,.545.18.736.736,0,0,0-.517-.853c.323-.295.431-.407.372-.887-.318-.03-.535.388-.587.669a.726.726,0,0,0-.625-.455s-.175.36.317.718c-.254-.073-.525.412-.567.67Z" transform="translate(-2419.989 -2826.803)" fill="#fff"/>
            <path id="패스_594" data-name="패스 594" d="M2422.6,2829.755a.692.692,0,0,1,.122-.092.25.25,0,0,0-.127.049c-.022-.053.007-.074-.02-.127-.021.043.005.089-.027.121s-.106.021-.132.031a.176.176,0,0,1,.134-.009.54.54,0,0,1-.045.115c.083-.062.074-.144.186-.062a.5.5,0,0,1-.09-.043" transform="translate(-2421.752 -2828.827)" fill="#fff"/>
          </g>
          <g id="그룹_324" data-name="그룹 324" transform="translate(5.291 4.744)">
            <path id="패스_595" data-name="패스 595" d="M2429.282,2842.311a.933.933,0,0,0,.83-.514.574.574,0,0,0,.232.487.68.68,0,0,0,.545.182.738.738,0,0,0-.517-.852c.321-.3.431-.409.37-.888-.317-.031-.534.388-.586.668a.734.734,0,0,0-.627-.456s-.174.362.317.719c-.253-.073-.525.413-.567.669Z" transform="translate(-2429.279 -2840.723)" fill="#fff"/>
            <path id="패스_596" data-name="패스 596" d="M2431.885,2843.674a1.192,1.192,0,0,1,.124-.094.334.334,0,0,0-.128.05c-.022-.053.008-.071-.019-.126-.022.042.006.089-.026.12s-.105.022-.134.032a.179.179,0,0,1,.134-.01.507.507,0,0,1-.044.115c.084-.061.073-.141.188-.062a.432.432,0,0,1-.091-.042" transform="translate(-2431.041 -2842.746)" fill="#fff"/>
          </g>
          <g id="그룹_325" data-name="그룹 325" transform="translate(4.389)">
            <path id="패스_597" data-name="패스 597" d="M2425.981,2824.391a.944.944,0,0,0,1.014.051.636.636,0,0,0-.062.575.769.769,0,0,0,.382.5.816.816,0,0,0,.008-1.075c.445-.065.605-.1.812-.561-.263-.222-.683.018-.884.234a.838.838,0,0,0-.3-.788s-.351.213-.112.833c-.184-.222-.688.043-.866.246Z" transform="translate(-2425.971 -2823.324)" fill="#fff"/>
            <path id="패스_598" data-name="패스 598" d="M2429.648,2826.54a.894.894,0,0,1,.159-.008.319.319,0,0,0-.139-.033c.008-.06.045-.061.051-.126-.042.025-.043.082-.09.092-.025,0-.1-.045-.135-.055a.189.189,0,0,1,.124.074.534.534,0,0,1-.1.077c.106,0,.142-.083.2.058a.579.579,0,0,1-.056-.094" transform="translate(-2428.533 -2825.542)" fill="#fff"/>
          </g>
        </g>
      </g>
      <path id="패스_600" data-name="패스 600" d="M2565.546,2736.1a6.779,6.779,0,0,0,.837,2.627,3.123,3.123,0,0,0,1.764,1.25,3.089,3.089,0,0,0-1.764,1.249,6.685,6.685,0,0,0-.837,2.628,5.552,5.552,0,0,0-.838-2.628,2.53,2.53,0,0,0-1.763-1.249,2.607,2.607,0,0,0,1.763-1.25A5.717,5.717,0,0,0,2565.546,2736.1Z" transform="translate(-231.906 13.264)" fill="none" stroke="#fcfcfc" stroke-linejoin="round" stroke-width="1"/>
      <path id="패스_601" data-name="패스 601" d="M2613.263,2789.87a4.568,4.568,0,0,0,.563,1.772,2.111,2.111,0,0,0,1.19.843,2.086,2.086,0,0,0-1.19.842,4.5,4.5,0,0,0-.563,1.771,3.75,3.75,0,0,0-.566-1.771,1.709,1.709,0,0,0-1.189-.842,1.76,1.76,0,0,0,1.189-.843A3.862,3.862,0,0,0,2613.263,2789.87Z" transform="translate(-262.27 -29.235)" fill="none" stroke="#fcfcfc" stroke-linejoin="round" stroke-width="1"/>
      <path id="패스_602" data-name="패스 602" d="M2300.81,2814.672a8.224,8.224,0,0,0,1.015,3.188,3.8,3.8,0,0,0,2.139,1.515,3.746,3.746,0,0,0-2.139,1.514,8.117,8.117,0,0,0-1.015,3.188,6.733,6.733,0,0,0-1.017-3.188,3.068,3.068,0,0,0-2.138-1.514,3.166,3.166,0,0,0,2.138-1.515A6.931,6.931,0,0,0,2300.81,2814.672Z" transform="translate(-55.956 -58.74)" fill="none" stroke="#fcfcfc" stroke-linejoin="round" stroke-width="1"/>
      <path id="패스_603" data-name="패스 603" d="M2330.681,2864.232a4.074,4.074,0,0,0,.5,1.577.794.794,0,1,1,0,1.5,4.009,4.009,0,0,0-.5,1.577,3.325,3.325,0,0,0-.5-1.577,1.52,1.52,0,0,0-1.058-.75,1.564,1.564,0,0,0,1.058-.748A3.429,3.429,0,0,0,2330.681,2864.232Z" transform="translate(-69.513 -84.155)" fill="none" stroke="#fcfcfc" stroke-linejoin="round" stroke-width="1"/>
      <path id="패스_604" data-name="패스 604" d="M2580.561,2820.452a3.37,3.37,0,0,0,.416,1.306,1.562,1.562,0,0,0,.878.621,1.547,1.547,0,0,0-.878.622,3.329,3.329,0,0,0-.416,1.308,2.753,2.753,0,0,0-.416-1.308,1.26,1.26,0,0,0-.877-.622,1.3,1.3,0,0,0,.877-.621A2.836,2.836,0,0,0,2580.561,2820.452Z" transform="translate(-239.027 -45.73)" fill="none" stroke="#fcfcfc" stroke-linejoin="round" stroke-width="1"/>
      <path id="패스_605" data-name="패스 605" d="M2526.675,2875.412a4.146,4.146,0,0,0,.511,1.608.809.809,0,1,1,0,1.527,4.088,4.088,0,0,0-.511,1.608,3.386,3.386,0,0,0-.512-1.608,1.551,1.551,0,0,0-1.079-.765,1.6,1.6,0,0,0,1.079-.762A3.5,3.5,0,0,0,2526.675,2875.412Z" transform="translate(-203.455 -93.009)" fill="none" stroke="#fcfcfc" stroke-linejoin="round" stroke-width="1"/>
      <path id="패스_607" data-name="패스 607" d="M2312.919,2747.042a3.234,3.234,0,0,0,.4,1.25,1.488,1.488,0,0,0,.838.593,1.467,1.467,0,0,0-.838.592,3.176,3.176,0,0,0-.4,1.249,2.641,2.641,0,0,0-.4-1.249,1.206,1.206,0,0,0-.838-.592,1.248,1.248,0,0,0,.838-.593A2.729,2.729,0,0,0,2312.919,2747.042Z" transform="translate(-56.122 -7.962)" fill="none" stroke="#fcfcfc" stroke-linejoin="round" stroke-width="1"/>
      <path id="패스_609" data-name="패스 609" d="M2355.974,2916.267a1.539,1.539,0,0,0-.776-.907,1.383,1.383,0,0,0-.627-.151,1.433,1.433,0,0,1-2.561,0,1.379,1.379,0,0,0-.628.151,1.533,1.533,0,0,0-.774.906,2.152,2.152,0,0,0,.223,1.688,8.841,8.841,0,0,0,2.41,2.548.078.078,0,0,0,.05.018.075.075,0,0,0,.049-.019,8.839,8.839,0,0,0,2.41-2.547A2.155,2.155,0,0,0,2355.974,2916.267Z" transform="translate(-78.961 -119.823)" fill="#d24468"/>
    </g>
  </g>
</svg>
