<svg id="icon64_member_line_2" data-name="icon64/member_line_2" xmlns="http://www.w3.org/2000/svg" width="64" height="64" viewBox="0 0 64 64">
  <rect id="guidebox" width="64" height="64" fill="none"/>
  <g id="icon" transform="translate(3 11)">
    <path id="Combined_Shape" data-name="Combined Shape" d="M42.6,41.6a3,3,0,0,1-3-3V34.2H24.8v6.2H36.6a.6.6,0,0,1,0,1.2H11.8a.6.6,0,1,1,0-1.2H23.6V34.2H3.6A3.6,3.6,0,0,1,.005,30.791L0,30.6V3.6A3.6,3.6,0,0,1,3.409.005L3.6,0h42a3.6,3.6,0,0,1,3.595,3.409L49.2,3.6v11a5.507,5.507,0,0,1,5.4,5.5v5.5h1a3,3,0,0,1,3,3v10a3,3,0,0,1-3,3ZM40.806,28.452,40.8,28.6v10a1.809,1.809,0,0,0,1.652,1.795l.148.005h13a1.808,1.808,0,0,0,1.794-1.652L57.4,38.6v-10a1.809,1.809,0,0,0-1.652-1.794L55.6,26.8h-13A1.809,1.809,0,0,0,40.806,28.452ZM1.205,3.435,1.2,3.6v27a2.4,2.4,0,0,0,2.236,2.395L3.6,33h36V28.6a3,3,0,0,1,3-3h1V20.1A5.51,5.51,0,0,1,48,14.711V3.6a2.4,2.4,0,0,0-2.236-2.395L45.6,1.2H3.6A2.4,2.4,0,0,0,1.205,3.435ZM44.8,19.892,44.8,20.1v5.471h8.6V20.1A4.293,4.293,0,0,0,49.308,15.8L49.1,15.8A4.294,4.294,0,0,0,44.8,19.892ZM48.5,37V34.508a2,2,0,1,1,1.2,0V37a.6.6,0,1,1-1.2,0Z" transform="translate(0.4 0.4)" fill="#80c342"/>
    <path id="Combined_Shape-2" data-name="Combined Shape" d="M8.6,16a.6.6,0,0,1-.6-.6v-.8a.6.6,0,0,1,.6-.6H31.4a.6.6,0,0,1,.6.6v.8a.6.6,0,0,1-.6.6ZM1,16a1,1,0,0,1-1-1V11a1,1,0,0,1,1-1H5a1,1,0,0,1,1,1v4a1,1,0,0,1-1,1Zm7.6-4a.6.6,0,0,1-.6-.6v-.8a.6.6,0,0,1,.6-.6H31.4a.6.6,0,0,1,.6.6v.8a.6.6,0,0,1-.6.6Zm0-6A.6.6,0,0,1,8,5.4V4.6A.6.6,0,0,1,8.6,4H31.4a.6.6,0,0,1,.6.6v.8a.6.6,0,0,1-.6.6ZM1,6A1,1,0,0,1,0,5V1A1,1,0,0,1,1,0H5A1,1,0,0,1,6,1V5A1,1,0,0,1,5,6ZM8.6,2A.6.6,0,0,1,8,1.4V.6A.6.6,0,0,1,8.6,0H31.4a.6.6,0,0,1,.6.6v.8a.6.6,0,0,1-.6.6Z" transform="translate(9 9)" fill="#d4e7c2"/>
  </g>
</svg>
