<svg xmlns="http://www.w3.org/2000/svg" width="30" height="30" viewBox="0 0 30 30">
    <g fill="none" fill-rule="evenodd">
        <path d="M0 0H30V30H0z"/>
        <path fill="#FFF" d="M15.038 3.575c.298 0 .545.218.592.503l.008.097v2.116c1.78.141 3.384.904 4.598 2.07l1.581-1.58.074-.064c.235-.169.564-.148.775.063.234.235.234.614 0 .849l-1.627 1.626c.939 1.26 1.498 2.821 1.498 4.513v.549h2.166c.331 0 .6.27.6.6 0 .299-.218.546-.503.593l-.097.008-2.166-.001v.55c0 1.692-.56 3.253-1.505 4.508l.007.005 1.627 1.627c.234.234.234.614 0 .848-.211.211-.54.232-.775.063l-.074-.063-1.581-1.58c-1.214 1.166-2.818 1.928-4.598 2.069v2.006c0 .332-.27.6-.6.6-.299 0-.546-.217-.593-.503l-.008-.097v-2.006c-1.752-.139-3.334-.88-4.54-2.015L8.37 23.055l-.074.063c-.235.17-.564.148-.774-.063-.235-.234-.235-.614 0-.848l1.569-1.569c-.974-1.265-1.553-2.85-1.553-4.57l-.001-.551H5.498c-.331 0-.6-.268-.6-.6 0-.298.218-.545.503-.591l.097-.008 2.039-.001v-.55c0-1.719.58-3.304 1.553-4.569l-1.568-1.57c-.235-.234-.235-.613 0-.848.21-.21.54-.232.774-.063l.074.063 1.527 1.527c1.206-1.136 2.788-1.877 4.54-2.016V4.175c0-.331.27-.6.6-.6zm0 3.893c-3.48 0-6.3 2.82-6.3 6.3v2.3c0 3.48 2.82 6.3 6.3 6.3 3.479 0 6.3-2.82 6.3-6.3v-2.3c0-3.48-2.821-6.3-6.3-6.3zm0 3.975c1.919 0 3.475 1.556 3.475 3.475s-1.556 3.475-3.475 3.475c-1.92 0-3.475-1.556-3.475-3.475 0-1.92 1.555-3.475 3.475-3.475zm0 1.2c-1.257 0-2.275 1.018-2.275 2.275 0 1.256 1.018 2.275 2.275 2.275 1.256 0 2.274-1.019 2.274-2.275 0-1.257-1.018-2.275-2.274-2.275z"/>
    </g>
</svg>
