<svg id="Icon_24_Delivery_Line_gray" data-name="Icon/24/Delivery_Line_gray" xmlns="http://www.w3.org/2000/svg" width="24" height="24">
    <defs>
        <style>
            .cls-1{fill:none}
        </style>
    </defs>
    <path id="guidebox" class="cls-1" d="M0 0h24v24H0z"/>
    <g id="Icon_20_daily_line_Unconvert" data-name="Icon/20/daily_line_Unconvert">
        <path id="guidebox-2" data-name="guidebox" class="cls-1" d="M0 0h24v24H0z"/>
        <g id="icon" transform="translate(3.6 4.14)">
            <path id="Combined_Shape" data-name="Combined Shape" d="M8.347 14.4H1.8a1.8 1.8 0 0 1-1.794-1.652L0 12.6V1.8A1.8 1.8 0 0 1 1.652.006L1.8 0h10.8a1.8 1.8 0 0 1 1.794 1.652l.006.148v6.12a4.8 4.8 0 1 1-6.053 6.48zm.772-1.98a3.6 3.6 0 1 0 3.6-3.6 3.6 3.6 0 0 0-3.599 3.6zM1.208 1.7l-.008.1v10.8a.6.6 0 0 0 .5.592l.1.008h6.183a4.8 4.8 0 0 1 4.737-5.58q.243 0 .481.024V1.8a.6.6 0 0 0-.5-.592L12.6 1.2H7.8v2.433a.6.6 0 0 1-1.193.1l-.008-.1V1.2H1.8a.6.6 0 0 0-.592.5zM12.72 13.02a.6.6 0 0 1-.592-.5l-.007-.1v-2.077a.6.6 0 0 1 1.192-.1l.008.1v1.476h1.174a.6.6 0 0 1 .592.5l.008.1a.6.6 0 0 1-.5.592l-.1.008z" style="fill:#fff"/>
        </g>
    </g>
</svg>
