<svg xmlns="http://www.w3.org/2000/svg" width="41" height="40" viewBox="0 0 41 40">
    <g fill="none" fill-rule="evenodd">
        <g>
            <path fill="#80C342" d="M16 32c8.837 0 16-7.163 16-16S24.837 0 16 0 0 7.163 0 16s7.163 16 16 16z" transform="translate(3 4)"/>
            <g transform="translate(3 4) translate(5.4 4)">
                <path fill="#FFF" stroke="#FFF" stroke-linejoin="round" stroke-width=".96" d="M7.176 21.04H31.35V10.75H12.066c-.318 0-.576.258-.576.576v2.634h0-2.014c-.186 0-.36.09-.468.24l-2.3 3.21c-.07.097-.108.215-.108.335v2.719c0 .318.258.576.576.576z"/>
                <circle cx="10.2" cy="21.664" r="1.68" fill="#FFF"/>
                <circle cx="18.84" cy="21.664" r="1.68" fill="#FFF"/>
                <path fill="#FFF" d="M4.171 4l-.09.06c-.94.65-1.511 1.688-1.511 2.816 0 1.93 1.658 3.49 3.696 3.49l.223-.007c.517-.029 1.018-.159 1.473-.382L8 9.957l-.08.132C7.151 11.262 5.78 12 4.273 12 1.91 12 0 10.205 0 8c0-2.15 1.813-3.91 4.093-3.998L4.17 4zM12.473 4.294l-.48.873c-.053.097-.174.132-.271.08-.035-.02-.064-.05-.082-.086l-.45-.89c-.027-.055-.08-.094-.14-.106l-.979-.186c-.108-.02-.18-.126-.159-.234.008-.04.027-.076.056-.105l.707-.701c.044-.044.065-.106.057-.167l-.125-.989c-.014-.11.064-.21.173-.223.04-.005.081.002.117.02l.886.456c.055.028.12.03.176.003l.902-.424c.1-.047.219-.004.266.095.017.037.023.078.016.118l-.159.983c-.01.061.01.124.052.169l.682.726c.075.08.071.207-.01.283-.029.027-.066.045-.106.052l-.984.152c-.061.01-.115.047-.145.101z"/>
                <path fill="#FFF" d="M7.13 7.681l-.635.21c-.105.034-.218-.023-.253-.128-.012-.039-.013-.08-.002-.119l.187-.642c.017-.06.006-.123-.03-.174L6 6.29c-.065-.09-.046-.214.043-.28.033-.023.072-.037.112-.038l.669-.02c.062-.003.12-.034.156-.084l.39-.542c.065-.09.19-.11.28-.045.033.023.057.056.071.094l.226.63c.021.058.068.103.127.122l.637.204c.105.034.163.147.13.252-.013.038-.037.072-.068.097l-.529.41c-.049.037-.077.096-.077.158l.002.669c0 .11-.089.2-.2.2-.04 0-.079-.011-.112-.034l-.553-.376c-.051-.035-.116-.044-.175-.025z"/>
                <rect width="6" height="1.2" x="23.613" y="9.069" fill="#80C342" rx=".6"/>
                <rect width="9" height="1.2" x="22.6" y="12.1" fill="#80C342" rx=".6"/>
                <rect width="6" height="1.2" x="21.6" y="15.3" fill="#80C342" rx=".6"/>
            </g>
        </g>
    </g>
</svg>
