<svg xmlns="http://www.w3.org/2000/svg" xmlns:xlink="http://www.w3.org/1999/xlink" width="48" height="48" viewBox="0 0 48 48">
    <defs>
        <path id="prefix__a" d="M0 0H48V48H0z"/>
    </defs>
    <g fill="none" fill-rule="evenodd">
        <path d="M0 0H48V48H0z"/>
        <mask id="prefix__b" fill="#fff">
            <use xlink:href="#prefix__a"/>
        </mask>
        <path fill="#FFF" d="M42.947 7.5c3.202 0 6.268 1.3 8.494 3.602 2.133 2.207 3.365 5.125 3.464 8.184l.007.4v15.198c0 .456-.34.833-.778.892l-.122.008-3.362.001.008-.047c-.406 2.4-2.494 4.228-5.01 4.228-2.516 0-4.604-1.828-5.01-4.228l.008.047H25.56l.002-.015c-.418 2.384-2.5 4.196-5.005 4.196-2.504 0-4.586-1.812-5.005-4.196l.003.015H13.2c-1.755 0-3.19-1.37-3.294-3.1l-.006-.2v-6.858c0-.94.294-1.855.838-2.616l.17-.224 5.67-6.97c.798-.981 1.968-1.578 3.222-1.653l.27-.008h6.935V10.8c0-1.755 1.371-3.19 3.1-3.294l.2-.006h12.642zm-22.39 24.103c-1.812 0-3.281 1.469-3.281 3.281 0 1.813 1.469 3.282 3.281 3.282 1.813 0 3.282-1.47 3.282-3.282s-1.47-3.281-3.282-3.281zm25.091 0c-1.812 0-3.282 1.469-3.282 3.281 0 1.813 1.47 3.282 3.282 3.282s3.282-1.47 3.282-3.282-1.47-3.281-3.282-3.281zM42.947 9.3H30.306c-.777 0-1.416.59-1.492 1.347l-.008.153v18.873c0 .497-.403.9-.9.9-.456 0-.832-.339-.892-.778l-.008-.122-.001-13.718-6.935.001c-.74 0-1.442.302-1.95.831l-.145.165-5.67 6.97c-.342.422-.549.935-.595 1.473l-.01.232v6.857c0 .777.59 1.416 1.347 1.493l.153.007h2.355c.425-2.377 2.503-4.181 5.002-4.181 2.5 0 4.578 1.804 5.003 4.181h15.086l-.007.037c.41-2.395 2.497-4.218 5.009-4.218 2.512 0 4.599 1.823 5.009 4.218l-.007-.037h2.46l.002-14.299c0-2.605-.965-5.114-2.7-7.046l-.265-.285c-1.801-1.863-4.25-2.952-6.83-3.047l-.37-.007z" mask="url(#prefix__b)"/>
    </g>
</svg>
