<svg xmlns="http://www.w3.org/2000/svg" width="48" height="48" viewBox="0 0 48 48">
    <g fill="none" fill-rule="evenodd">
        <path d="M0 0H48V48H0z"/>
        <path fill="#333333" d="M26.562 10.671c.38 0 .694.282.743.648l.007.102v3.501l7.234.001c.192 0 .375.073.513.202l.077.084 6.322 8.042c.083.106.136.232.153.364l.007.1v9.462c0 .38-.283.694-.65.743l-.101.007-3.834-.008c-.461 1.967-2.226 3.431-4.333 3.431-2.113 0-3.882-1.473-4.337-3.447l-8.323-.016c-.449 1.983-2.221 3.463-4.34 3.463-2.124 0-3.9-1.488-4.344-3.48l-4.142-.008c-.379 0-.692-.282-.742-.648l-.006-.102v-19.49c0-1.572 1.228-2.856 2.776-2.946l.174-.005h17.146zM15.7 29.95c-1.63 0-2.95 1.32-2.95 2.95 0 1.63 1.32 2.95 2.95 2.95 1.63 0 2.95-1.32 2.95-2.95 0-1.63-1.32-2.95-2.95-2.95zm17 0c-1.63 0-2.95 1.32-2.95 2.95 0 1.63 1.32 2.95 2.95 2.95 1.63 0 2.95-1.32 2.95-2.95 0-1.63-1.32-2.95-2.95-2.95zm-6.888-17.779H9.416c-.754 0-1.374.575-1.444 1.31l-.006.14v18.742l3.315.007c.262-2.208 2.14-3.92 4.419-3.92 2.284 0 4.166 1.72 4.42 3.936l8.157.017c.248-2.224 2.133-3.953 4.423-3.953 2.295 0 4.185 1.738 4.424 3.97l2.994.005v-8.45l-5.937-7.553h-6.87l.001 3.927c0 .414-.336.75-.75.75-.38 0-.693-.282-.743-.648l-.007-.102v-8.178z"/>
    </g>
</svg>
