<svg id="icon-40-Walnut" xmlns="http://www.w3.org/2000/svg" width="40" height="40">
    <defs>
        <style>
            .cls-2,.cls-4,.cls-7{fill:none}.cls-2,.cls-4{stroke:#333;stroke-width:1.2px;stroke-miterlimit:10}.cls-4{stroke-linecap:round}.cls-5{stroke:none}
        </style>
    </defs>
    <g id="그룹_77" data-name="그룹 77" transform="translate(11.217 9.2)">
        <path id="패스_123" data-name="패스 123" class="cls-2" d="M374.862 24.727a4.869 4.869 0 0 0-.985.055 16.605 16.605 0 0 1-2.012.122h-.131a16.609 16.609 0 0 1-2.013-.122 4.866 4.866 0 0 0-.985-.055c-4.593.346-6.358 7.4-6.076 11.044a11.964 11.964 0 0 0 2.2 6.312 5.762 5.762 0 0 0 2.036 1.778c.93.428 2.038.247 2.926.773a4.427 4.427 0 0 1 .741.575 1.6 1.6 0 0 0 1.168.574h.13a1.6 1.6 0 0 0 1.168-.574 4.408 4.408 0 0 1 .742-.575c.888-.526 2-.344 2.926-.773a5.766 5.766 0 0 0 2.035-1.778 11.971 11.971 0 0 0 2.2-6.312c.288-3.64-1.476-10.698-6.07-11.044z" transform="translate(-362.631 -23.243)"/>
        <path id="선_31" data-name="선 31" class="cls-2" transform="translate(8.919 1.828)" d="M0 0v20.856"/>
        <g id="패스_125" data-name="패스 125" style="stroke-miterlimit:10;fill:none">
            <path class="cls-5" d="M376.808 44.21h-.114c-1.466 0-1.566-.641-1.625-1.931-.092-2 .116-3.987.1-5.983 0-1.045-.6-9.862.4-9.954a2.6 2.6 0 0 1 2.667 1.217 2.239 2.239 0 0 1 3.045 1.02 3.065 3.065 0 0 1 .233 2.587c-.246.686-.66.956.267 1.286.839.3 1.486.093 1.733 1.265a2.54 2.54 0 0 1-.441 2.186 1.821 1.821 0 0 0-.5 2 3.131 3.131 0 0 1-.493 2.662c-.555.717-1.849 1.023-2.241 1.778a3.551 3.551 0 0 1-3.031 1.867z" transform="translate(-366.584 -23.757)"/>
            <path d="m376.694 43.012.074-.001c.848-.028 1.635-.507 2.006-1.22.37-.713 1.03-1.1 1.614-1.443.294-.172.627-.368.742-.517.331-.427.422-.988.271-1.668-.287-1.295-.12-1.973.746-3.022.289-.35.263-.832.191-1.174a1.367 1.367 0 0 0-.035-.136 5.953 5.953 0 0 0-.22-.053 5.837 5.837 0 0 1-.706-.193c-.266-.095-.972-.346-1.258-1.031-.266-.639-.009-1.187.145-1.514.045-.096.087-.186.12-.276.186-.52.135-1.12-.132-1.563-.265-.44-.655-.714-1.019-.714a.794.794 0 0 0-.402.115l-.943.541-.63-.885c-.335-.47-.608-.648-.94-.707-.064.45-.133 1.304-.13 2.871.003 1.653.082 3.45.134 4.639.027.612.045 1.02.045 1.231.008.883-.027 1.765-.061 2.617-.046 1.145-.089 2.227-.038 3.317.007.165.025.56.067.763.068.011.18.023.354.023h.005m-.005 1.2c-1.461 0-1.561-.642-1.62-1.931-.092-1.997.115-3.987.098-5.983 0-1.045-.603-9.862.4-9.953 1.21-.11 1.968.235 2.668 1.216 1.125-.645 2.377-.089 3.045 1.02.464.772.536 1.742.233 2.588-.245.685-.66.956.267 1.286.839.297 1.486.093 1.733 1.265.162.773.065 1.573-.441 2.185-.627.76-.706 1.067-.5 1.998.205.918.113 1.88-.492 2.662-.555.718-1.85 1.023-2.241 1.778-.591 1.138-1.79 1.827-3.031 1.867-.04.002-.08.002-.119.002z" style="fill:#333;stroke:none" transform="translate(-366.584 -23.757)"/>
        </g>
        <path id="Path_12" data-name="Path 12" class="cls-4" d="M370.523 26.325a1.706 1.706 0 0 1 .382 2.086 2.156 2.156 0 0 0 0 2.184" transform="translate(-365.156 -23.757)"/>
        <path id="Path_12_Copy" data-name="Path 12 Copy" class="cls-4" d="M370.523 39.355a1.706 1.706 0 0 1 .382 2.086 2.156 2.156 0 0 0 0 2.184" transform="translate(-365.156 -27.926)"/>
        <path id="Path_12_Copy-2" data-name="Path 12 Copy" class="cls-4" d="M366.155 29.669a1.706 1.706 0 0 1 .383 2.086 2.157 2.157 0 0 0 0 2.184" transform="translate(-363.758 -24.827)"/>
        <g id="타원_39" data-name="타원 39" class="cls-4" transform="translate(4.851 8.8)">
            <circle class="cls-5" cx=".568" cy=".568" r=".568"/>
            <circle class="cls-7" cx=".568" cy=".568" r=".032"/>
        </g>
        <g id="타원_40" data-name="타원 40" class="cls-4" transform="translate(2.442 11.921)">
            <circle class="cls-5" cx=".538" cy=".538" r=".538"/>
            <circle class="cls-7" cx=".538" cy=".538" r=".062"/>
        </g>
        <path id="Path_12_Copy-3" data-name="Path 12 Copy" class="cls-4" d="M370.523 48.848a.965.965 0 0 1 .382 1.461 1.135 1.135 0 0 0 0 1.531" transform="translate(-365.156 -30.963)"/>
        <path id="Path_12_Copy-4" data-name="Path 12 Copy" class="cls-4" d="M366.584 44.55a1.706 1.706 0 0 1 .382 2.086 2.156 2.156 0 0 0 0 2.184" transform="translate(-363.895 -29.588)"/>
        <path id="Path_12_Copy-5" data-name="Path 12 Copy" class="cls-4" d="M380.129 43.47a1.707 1.707 0 0 1-1.313 1.666 2.156 2.156 0 0 0-1.638 1.444" transform="translate(-367.285 -29.242)"/>
        <g id="타원_41" data-name="타원 41" class="cls-4" transform="translate(12.923 12.428)">
            <circle class="cls-5" cx=".568" cy=".568" r=".568"/>
            <circle class="cls-7" cx=".568" cy=".568" r=".032"/>
        </g>
        <path id="Path_12_Copy-6" data-name="Path 12 Copy" class="cls-4" d="M380.625 36.323a1.092 1.092 0 0 1-.825 1.408 1.31 1.31 0 0 0-1.152 1.2" transform="translate(-367.755 -26.956)"/>
        <path id="Path_12_Copy-7" data-name="Path 12 Copy" class="cls-4" d="M378.355 31.646a.848.848 0 0 1 .73 1.036 1.019 1.019 0 0 0 .475 1.2" transform="translate(-367.661 -25.459)"/>
    </g>
</svg>
