<svg xmlns="http://www.w3.org/2000/svg" width="40" height="40">
    <defs>
        <style>
            .cls-2{fill:none;stroke:#333;stroke-linecap:round;stroke-width:1.2px;stroke-miterlimit:10}
        </style>
    </defs>
    <g id="icon-40-buckwheat" transform="translate(-.01)">
        <g id="그룹_80" data-name="그룹 80" transform="translate(8.063 7.2)">
            <path id="Path_2" data-name="Path 2" class="cls-2" d="M94.255 130.683a5.141 5.141 0 0 1 2.405-5.833c3.537-2 9 .893 9 .893s-4.877 10.077-10.077 5.93" transform="translate(-81.767 -113.506)"/>
            <path id="Path_17-2" data-name="Path 17-2" class="cls-2" d="M98.932 128.412c-2.474.66-5.1 3.178-6.476 5.338" transform="translate(-81.528 -114.132)"/>
            <g id="Group" transform="translate(0 6.252)">
                <path id="Path_7" data-name="Path 7" class="cls-2" d="M79.649 119.377c.261 3.94 3.6 9.1 9.387 6.248 0 0 .084-8.475-9.387-6.248z" transform="translate(-79.649 -119.004)"/>
                <path id="Path_4" data-name="Path 4" class="cls-2" d="M85.792 122.611s4.586 2.592 5.686 6.149" transform="translate(-80.55 -119.533)"/>
            </g>
            <path id="Path_21" data-name="Path 21" d="M92.456 121.349v17.369" transform="translate(-81.528 -113.096)" style="stroke-linejoin:round;fill:none;stroke:#333;stroke-linecap:round;stroke-width:1.2px"/>
            <path id="Path_7-2" data-name="Path 7" class="cls-2" d="M98.166 111.677c-3.743.248-8.643 3.42-5.935 8.916 0 0 8.05.08 5.935-8.916z" transform="translate(-81.38 -111.677)"/>
            <path id="Path_4-2" data-name="Path 4" class="cls-2" d="M95.011 116.9a6.948 6.948 0 0 0-2.209 3.7" transform="translate(-81.579 -112.444)"/>
        </g>
    </g>
</svg>
