<svg xmlns="http://www.w3.org/2000/svg" width="26" height="26">
    <defs>
        <style>
            .cls-2{fill:none;stroke:#70b5d9;stroke-linecap:round;stroke-linejoin:round;stroke-width:1.2px}
        </style>
    </defs>
    <g id="Icon_26_kcal_B" data-name="Icon/26/kcal_B" transform="translate(-4 -4)">
        <g id="icon_kcal" data-name="icon/kcal" transform="translate(176.203 -7773.256)">
            <path id="패스_74" data-name="패스 74" class="cls-2" d="m-163.2 7782.256 1.3-1.625a1 1 0 0 1 .781-.375h3.839a1 1 0 0 1 .781.375l1.3 1.625h0v1a1 1 0 0 1-1 1h-6a1 1 0 0 1-1-1v-1z"/>
            <path id="패스_75" data-name="패스 75" class="cls-2" d="m-161.536 7787.589-1.667 1.667-1-1"/>
            <path id="패스_76" data-name="패스 76" class="cls-2" d="M-158.2 7788.256h3"/>
            <path id="패스_77" data-name="패스 77" class="cls-2" d="M-162.2 7798.256h-3a2 2 0 0 1-2-2v-12a2 2 0 0 1 2-2h2"/>
            <path id="패스_78" data-name="패스 78" class="cls-2" d="M-155.2 7782.256h2a2 2 0 0 1 2 2v2"/>
            <path id="패스_79" data-name="패스 79" class="cls-2" d="M-152.941 7793.423h-1.167v-1.167a2 2 0 0 1 2-2h1.167v1.167a2 2 0 0 1-2 2z"/>
            <path id="패스_80" data-name="패스 80" class="cls-2" d="M-154.2 7800.256a3.953 3.953 0 0 1-4-3.9"/>
            <path id="패스_81" data-name="패스 81" class="cls-2" d="M-158.205 7796.351c0-1.7.8-2.929 2.4-2.929"/>
            <path id="패스_82" data-name="패스 82" class="cls-2" d="M-154.2 7800.256a3.953 3.953 0 0 0 4-3.9"/>
            <path id="패스_83" data-name="패스 83" class="cls-2" d="M-150.2 7796.351c0-1.7-.8-2.929-2.4-2.929"/>
            <path id="패스_84" data-name="패스 84" class="cls-2" d="M-152.6 7793.423a11.948 11.948 0 0 0-1.6.25 11.949 11.949 0 0 0-1.6-.25"/>
            <path id="선_23" data-name="선 23" class="cls-2" transform="translate(-164.203 7793.256)" d="M0 0h3"/>
        </g>
    </g>
</svg>
