<svg xmlns="http://www.w3.org/2000/svg" width="40" height="40">
    <defs>
        <clipPath id="clip-path">
            <path id="패스_117" data-name="패스 117" class="cls-1" d="M46.392 82.159h18.949v9.715h-6.632L55.6 94.206l-3.106-2.332h-6.1z" transform="translate(-46.392 -82.159)"/>
        </clipPath>
        <style>
            .cls-1,.cls-3{fill:none}.cls-3{stroke:#333;stroke-width:1.2px;stroke-miterlimit:10}
        </style>
    </defs>
    <g id="icon-40-wheat" transform="translate(-.01)">
        <g id="icon_로하스" data-name="icon 로하스" transform="translate(10.41 5.6)">
            <path id="Rectangle-7" class="cls-3" d="m57.78 74.066 2.38 2.38a3.885 3.885 0 0 1 0 5.5l-2.38 2.38a.776.776 0 0 1-1.1 0l-2.38-2.38a3.885 3.885 0 0 1 0-5.5l2.38-2.38a.776.776 0 0 1 1.1 0z" transform="translate(-47.746 -73.838)"/>
            <g id="Group_7" data-name="Group 7" transform="translate(0 6.657)">
                <path id="Rectangle-8" class="cls-1" d="M46.392 82.159h18.949v9.716h-6.632L55.6 94.206l-3.106-2.331h-6.1z" transform="translate(-46.392 -82.159)"/>
                <g id="그룹_75" data-name="그룹 75">
                    <g id="그룹_74" data-name="그룹 74" style="clip-path:url(#clip-path)">
                        <g id="Group_7-2" data-name="Group 7-2" transform="translate(1.445 2.656)">
                            <path id="Rectangle_Copy_17" data-name="Rectangle Copy 17" class="cls-3" d="M66.265 86.257v2.589a4.664 4.664 0 0 1-4.665 4.663h-3.365v-4.144a3.886 3.886 0 0 1 3.886-3.886h3.366a.777.777 0 0 1 .778.778z" transform="translate(-50.205 -85.479)"/>
                            <path id="Rectangle_Copy_28" data-name="Rectangle Copy 28" class="cls-3" d="M48.976 85.479h3.366a3.886 3.886 0 0 1 3.886 3.886v4.143h-4.144a3.886 3.886 0 0 1-3.884-3.886v-3.365a.777.777 0 0 1 .776-.778z" transform="translate(-48.198 -85.479)"/>
                        </g>
                    </g>
                </g>
            </g>
            <path id="Rectangle_Copy_17-2" data-name="Rectangle Copy 17-2" class="cls-3" d="M66.265 95.29v2.589a4.664 4.664 0 0 1-4.664 4.663h-3.366V98.4a3.886 3.886 0 0 1 3.886-3.886h3.366a.777.777 0 0 1 .778.776z" transform="translate(-48.761 -77.973)"/>
            <path id="Rectangle_Copy_28-2" data-name="Rectangle Copy 28-2" class="cls-3" d="M48.976 94.512h3.366a3.886 3.886 0 0 1 3.886 3.888v4.143h-4.144a3.886 3.886 0 0 1-3.884-3.888V95.29a.777.777 0 0 1 .776-.778z" transform="translate(-46.753 -77.973)"/>
            <path id="Path_21" data-name="Path 21" d="M58.227 104.151v4.654" transform="translate(-48.759 -79.901)" style="stroke-linecap:round;stroke-linejoin:round;stroke:#333;stroke-width:1.2px;fill:none"/>
        </g>
    </g>
</svg>
