<svg xmlns="http://www.w3.org/2000/svg" width="40" height="40">
    <defs>
        <style>
            .cls-2{fill:none;stroke:#333;stroke-linecap:round;stroke-miterlimit:10;stroke-width:1.2px}
        </style>
    </defs>
    <g id="icon-40-chicken" transform="translate(-.01)">
        <g id="그룹_73" data-name="그룹 73" transform="translate(8.23 7.354)">
            <circle id="타원_33" data-name="타원 33" class="cls-2" cx="1.5" cy="1.5" r="1.5" transform="translate(3.246)"/>
            <circle id="타원_34" data-name="타원 34" class="cls-2" cx="1.5" cy="1.5" r="1.5" transform="translate(5.919 1.58)"/>
            <circle id="타원_35" data-name="타원 35" class="cls-2" cx="1.5" cy="1.5" r="1.5" transform="translate(6.447 4.579)"/>
            <path id="패스_111" data-name="패스 111" class="cls-2" d="M173.347 45.121A5.273 5.273 0 0 1 173 44.3a10.648 10.648 0 0 1-.271-1.224 7.69 7.69 0 0 1-.168-1.533 1.6 1.6 0 0 0-1.6-1.6 1.639 1.639 0 0 0-1.6 1.6c-.1 1.837-.158 7.128-.083 7.953a4.44 4.44 0 0 0 4.345 3.934 4.885 4.885 0 0 0 4.588-4.738v-.85c0 .18-1.774-.2-1.929-.248a5.118 5.118 0 0 1-2.933-2.478z" transform="translate(-166.314 -36.946)"/>
            <path id="패스_112" data-name="패스 112" class="cls-2" d="M182.878 43.093v8.133a6.831 6.831 0 0 1-6.811 6.812h0a6.831 6.831 0 0 1-6.811-6.812v-1.744" transform="translate(-166.314 -37.013)"/>
            <path id="패스_113" data-name="패스 113" class="cls-2" d="M182.311 54.339a5.134 5.134 0 0 0 2.081.371 5.988 5.988 0 1 0-5.988-5.988" transform="translate(-166.508 -37.006)"/>
            <path id="패스_114" data-name="패스 114" class="cls-2" d="M176.589 58.869v.581l-2.419 2.494" transform="translate(-166.418 -37.349)"/>
            <path id="선_29" data-name="선 29" class="cls-2" transform="translate(10.133 22.139)" d="M2.119 2.362 0 0"/>
            <path id="선_30" data-name="선 30" class="cls-2" transform="translate(1.121 5.237)" d="M0 0h1.821"/>
            <path id="패스_115" data-name="패스 115" class="cls-2" d="M168.987 48.539a1.475 1.475 0 0 1-1.21.133 2.072 2.072 0 0 1-1.47-2.53c.26-1.156 2.872-3.759 2.872-3.759" transform="translate(-166.25 -36.998)"/>
            <path id="패스_116" data-name="패스 116" class="cls-2" d="M185.483 54.744a3.694 3.694 0 0 0 1.83-.92 2.64 2.64 0 0 0 .764-1.9 3.749 3.749 0 0 0-3.749-3.75 2.385 2.385 0 0 0-1 .136" transform="translate(-166.613 -37.121)"/>
            <circle id="Oval-18" cx=".668" cy=".668" r=".668" transform="translate(3.953 4.57)" style="fill:#333"/>
        </g>
    </g>
</svg>
