<svg xmlns="http://www.w3.org/2000/svg" width="24" height="24">
    <defs>
        <style>
            .cls-2{fill:none;stroke:#000;stroke-miterlimit:10;stroke-width:1.2px}
        </style>
    </defs>
    <g id="icon_24_Rice" data-name="icon/24/Rice">
        <g id="그룹_66" data-name="그룹 66" transform="translate(1.996 1.996)">
            <ellipse id="Oval-21" class="cls-2" cx="7.321" cy="7.267" rx="7.321" ry="7.267" transform="translate(2.397)"/>
            <path id="Rectangle-35" d="M651.239 866.109H670a.339.339 0 0 1 .34.339v1.47a9.683 9.683 0 0 1-9.719 9.647 9.682 9.682 0 0 1-9.718-9.647v-1.47a.339.339 0 0 1 .336-.339z" transform="translate(-650.899 -859.654)" style="fill:#80c342;stroke:#000;stroke-miterlimit:10;stroke-width:1.2px"/>
            <path id="Rectangle-36" class="cls-2" d="M655.144 876.191h9.718v1.047a.986.986 0 0 1-.911 1.047h-7.9a.986.986 0 0 1-.911-1.047v-1.047z" transform="translate(-650.284 -858.28)"/>
        </g>
    </g>
</svg>
