<svg xmlns="http://www.w3.org/2000/svg" width="28" height="28" viewBox="0 0 28 28">
    <g>
        <g>
            <g>
                <g>
                    <g>
                        <path fill="#80c342" fill-rule="evenodd" d="M22.847 7.907a4.144 4.144 0 0 1-.924 1.6q1.2.1 2.406.246a2.75 2.75 0 0 1 2.421 2.73v11.984a2.75 2.75 0 0 1-2.39 2.726 64.2 64.2 0 0 1-8.4.557 63.11 63.11 0 0 1-8.323-.55 2.751 2.751 0 0 1-2.387-2.73V12.482a2.749 2.749 0 0 1 2.42-2.73q.861-.1 1.722-.187a4.037 4.037 0 0 1-.986-1.658 2.627 2.627 0 0 1 3.646-2.984l.2.079a5.378 5.378 0 0 1 1.986 1.687c.162.2.318.417.486.658l.367.537.11.153a4.259 4.259 0 0 0 .43.476 4.433 4.433 0 0 0 .428-.476l.11-.153.368-.537c.167-.24.324-.454.486-.658l.189-.232A5.07 5.07 0 0 1 19 5l.2-.079a2.627 2.627 0 0 1 3.647 2.984zM15.99 10.75q-.894 0-1.788.024v15.45q.882.027 1.762.026.915 0 1.833-.027V10.774q-.9-.024-1.807-.024zm-3.287.08q-2.43.119-4.853.41a1.251 1.251 0 0 0-1.1 1.242V24.47a1.251 1.251 0 0 0 1.085 1.239q2.435.324 4.867.454zm6.6 0v15.33q2.424-.132 4.865-.454a1.25 1.25 0 0 0 1.087-1.24V12.483a1.249 1.249 0 0 0-1.1-1.24q-2.427-.292-4.852-.411zm-7.9-4.548A1.129 1.129 0 0 0 9.848 7.5c.452 1.341 1.474 1.75 3.736 1.75h.668c-.1-.112-.19-.225-.276-.34l-.124-.173-.363-.537c-.152-.218-.29-.407-.432-.586a3.783 3.783 0 0 0-1.53-1.29zm8.352.038l-.021.008A3.8 3.8 0 0 0 18.2 7.619c-.094.12-.187.243-.284.377l-.53.769-.1.145q-.129.172-.276.34h.668c2.262 0 3.282-.409 3.735-1.747a1.144 1.144 0 0 0-1.667-1.183z" transform="translate(-14 -711) translate(17 713) translate(-5.25 -4.727)"/>
                    </g>
                </g>
            </g>
        </g>
    </g>
</svg>
