<svg xmlns="http://www.w3.org/2000/svg" width="40" height="40">
    <defs>
        <style>
            .cls-2{fill:none;stroke:#333;stroke-miterlimit:10;stroke-width:1.2px}
        </style>
    </defs>
    <g id="icon-40-milk" transform="translate(-.01)">
        <g id="그룹_25" data-name="그룹 25" transform="translate(11.588 6.667)">
            <path id="선_3" data-name="선 3" class="cls-2" transform="translate(0 14.276)" d="M0 0h16.842"/>
            <path id="선_4" data-name="선 4" class="cls-2" transform="translate(6.153 9.504)" d="M0 0h10.69"/>
            <path id="패스_11" data-name="패스 11" class="cls-2" d="M-131.824 732.106v15.935a1.252 1.252 0 0 0 1.2 1.295h4.672a5.007 5.007 0 0 0 4.814-5.181v-12.049l-3.262-6.035h-10.374z" transform="translate(137.977 -722.669)"/>
            <path id="패스_12" data-name="패스 12" class="cls-2" d="M-134.239 726.071h-1.128l-2.5 6.035v15.935a1.252 1.252 0 0 0 1.2 1.295h7.585" transform="translate(137.865 -722.669)"/>
            <path id="사각형_60" data-name="사각형 60" class="cls-2" d="M1.223 0h8.5a1.223 1.223 0 0 1 1.223 1.223V3.4H0V1.223A1.223 1.223 0 0 1 1.223 0z" transform="translate(2.63)"/>
        </g>
    </g>
</svg>
