<svg xmlns="http://www.w3.org/2000/svg" width="40" height="40">
    <defs>
        <style>
            .cls-2{fill:none;stroke:#333;stroke-linecap:round;stroke-miterlimit:10;stroke-width:1.2px}
        </style>
    </defs>
    <g id="icon-40-squid" transform="translate(-.01)">
        <g id="그룹_68" data-name="그룹 68" transform="translate(6.084 6.077)">
            <path id="패스_85" data-name="패스 85" class="cls-2" d="M385.886 123.72a5.512 5.512 0 0 0-2.92 1.128.5.5 0 0 1-.775-.3c-.473-1.822-1.422-6.534.829-8.388" transform="translate(-381.584 -110.772)"/>
            <path id="패스_86" data-name="패스 86" class="cls-2" d="M396 115.125s-8.426-4.873-12.736-3.579c0 0-.059 0-.066.019s-.018.066-.018.066c-1.3 4.311 3.578 12.736 3.578 12.736 1.756 3.092 4.372 2.985 4.372 2.985-.449-1.936 2.756-5.018 2.756-5.018l.039-.043a.259.259 0 0 0 .039-.043c.461-.5 3.085-3.2 5.022-2.753-.001.005.106-2.614-2.986-4.37z" transform="translate(-381.762 -110.145)"/>
            <path id="패스_87" data-name="패스 87" class="cls-2" d="M395.369 114.271a5.519 5.519 0 0 1 1.127-2.92.5.5 0 0 0-.294-.775c-1.822-.473-6.535-1.422-8.388.829" transform="translate(-382.392 -109.969)"/>
            <path id="패스_88" data-name="패스 88" class="cls-2" d="M392.305 128.994a5.021 5.021 0 0 0 3.094 4.29 2.434 2.434 0 0 1 .82.528 3.432 3.432 0 0 1 .487 1.164c.863 2.429 2.6.5 3.789 2.6a3.57 3.57 0 0 1 .337 2.645" transform="translate(-382.974 -112.436)"/>
            <path id="패스_89" data-name="패스 89" class="cls-2" d="M399.607 130.475s5.035 4.683 5.72 6.337a6.163 6.163 0 0 1 0 1.816" transform="translate(-383.921 -112.628)"/>
            <path id="패스_90" data-name="패스 90" class="cls-2" d="M401.755 127.711s4.732 5.482 6.339 6.269a6.153 6.153 0 0 0 1.813.113" transform="translate(-384.2 -112.27)"/>
            <path id="패스_91" data-name="패스 91" class="cls-2" d="M400.679 120.594a5.021 5.021 0 0 1 4.29 3.094 2.433 2.433 0 0 0 .528.82 3.431 3.431 0 0 0 1.164.487c2.429.863.5 2.6 2.6 3.789a3.57 3.57 0 0 0 2.645.337" transform="translate(-384.06 -111.347)"/>
            <circle id="Oval-18" cx=".874" cy=".874" r=".874" transform="translate(13.53 13.642)" style="fill:#333"/>
        </g>
    </g>
</svg>
