<svg xmlns="http://www.w3.org/2000/svg" width="40" height="40">
    <defs>
        <style>
            .cls-2{fill:none;stroke:#333;stroke-linecap:round;stroke-miterlimit:10;stroke-width:1.2px}.cls-3{fill:#333}
        </style>
    </defs>
    <g id="icon-40-crab" transform="translate(-.01)">
        <g id="그룹_69" data-name="그룹 69" transform="translate(6.41 8)">
            <path id="패스_92" data-name="패스 92" class="cls-2" d="m454.565 113.533-2.708-3.334c-2.547-1.857-4.1-.734-4.1-.734s-.432 1.641 1.469 3.5l2.984 2.375" transform="translate(-447.712 -104.56)"/>
            <path id="패스_93" data-name="패스 93" class="cls-2" d="m447.765 108.322 4.707-3.886c2.582-1.777 4.538-.8 5.284-.267a.139.139 0 0 1-.074.253 8.4 8.4 0 0 0-3.106 1.816l-2.708 2.819" transform="translate(-447.723 -103.418)"/>
            <path id="패스_94" data-name="패스 94" class="cls-2" d="m448.575 120.776 2.736 2.03h3.018" transform="translate(-447.885 -106.89)"/>
            <path id="패스_95" data-name="패스 95" class="cls-2" d="m456.31 125.823-3.233.453-2.5 2.721" transform="translate(-448.284 -107.899)"/>
            <path id="패스_96" data-name="패스 96" class="cls-2" d="m458.563 127.469-2.795 2.116.982 3.415" transform="translate(-449.323 -108.228)"/>
            <path id="패스_97" data-name="패스 97" class="cls-2" d="M471.5 115.831s-3.886-3.282-7.169-3.368h-3.8c-3.282.086-7.169 3.368-7.169 3.368-.6 4.059 6.046 9.933 6.046 9.933h6.042s6.658-5.874 6.05-9.933z" transform="translate(-448.836 -105.227)"/>
            <path id="패스_98" data-name="패스 98" class="cls-2" d="m473.147 113.533 2.708-3.334c2.548-1.857 4.1-.734 4.1-.734s.432 1.641-1.468 3.5l-2.985 2.375" transform="translate(-452.799 -104.56)"/>
            <path id="패스_99" data-name="패스 99" class="cls-2" d="m479.147 108.322-4.707-3.886c-2.581-1.777-4.538-.8-5.284-.267a.139.139 0 0 0 .074.253 8.4 8.4 0 0 1 3.106 1.816l2.708 2.819" transform="translate(-451.989 -103.418)"/>
            <path id="패스_100" data-name="패스 100" class="cls-2" d="m479.411 120.776-2.736 2.03h-3.018" transform="translate(-452.901 -106.89)"/>
            <path id="패스_101" data-name="패스 101" class="cls-2" d="m471.681 125.823 3.233.453 2.5 2.721" transform="translate(-452.506 -107.899)"/>
            <path id="패스_102" data-name="패스 102" class="cls-2" d="m470.163 127.469 2.795 2.116-.982 3.415" transform="translate(-452.203 -108.228)"/>
            <circle id="Oval-18" class="cls-3" cx=".713" cy=".713" r=".713" transform="translate(9.38 5.854)"/>
            <circle id="Oval-18-2" data-name="Oval-18" class="cls-3" cx=".713" cy=".713" r=".713" transform="translate(15.514 5.854)"/>
        </g>
    </g>
</svg>
