<svg xmlns="http://www.w3.org/2000/svg" xmlns:xlink="http://www.w3.org/1999/xlink" width="48" height="48" viewBox="0 0 48 48">
    <defs>
        <path id="prefix__a" d="M42.491 16.173c.414 0 .75.336.75.75 0 .415-.336.75-.75.75H39.75V28c0 4.746-3.779 8.61-8.492 8.746L31 36.75H11c-1.519 0-2.75-1.231-2.75-2.75V17.673H5.991c-.414 0-.75-.335-.75-.75 0-.414.336-.75.75-.75h36.5zM38.25 17.75H9.75V34c0 .647.492 1.18 1.122 1.244l.128.006h20c4.004 0 7.25-3.246 7.25-7.25V17.75zm-11-5.75c.414 0 .75.336.75.75s-.336.75-.75.75h-6.5c-.414 0-.75-.336-.75-.75s.336-.75.75-.75h6.5z"/>
    </defs>
    <g fill="none" fill-rule="evenodd">
        <path d="M0 0H48V48H0z"/>
        <use fill="#ADADAD" xlink:href="#prefix__a"/>
    </g>
</svg>
