<svg xmlns="http://www.w3.org/2000/svg" width="24" height="24" viewBox="0 0 24 24">
    <g fill="none" fill-rule="evenodd">
        <path fill="#333" d="M14.285 4.03c1.092.727 1.774 1.921 1.855 3.22l.009.261v2.26c0 .073-.011.142-.03.208 1.395.493 2.395 1.826 2.395 3.392v3.086c0 1.988-1.611 3.6-3.6 3.6H9.771c-1.988 0-3.6-1.612-3.6-3.6v-3.086c0-1.566 1-2.898 2.397-3.393-.01-.028-.016-.059-.021-.09l-.01-.117v-2.26c0-1.399.7-2.705 1.864-3.482 1.176-.784 2.708-.784 3.884 0zm.63 7.181H9.77c-1.133 0-2.062.873-2.152 1.983l-.008.177v3.086c0 1.133.873 2.063 1.983 2.153l.177.007h5.143c1.134 0 2.063-.873 2.153-1.983l.007-.177v-3.086c0-1.133-.872-2.062-1.983-2.152l-.177-.008zm-3.716-5.983c-.704.47-1.15 1.236-1.214 2.073l-.008.21v2.26h4.732v-2.26c0-.917-.46-1.774-1.223-2.283-.692-.462-1.594-.462-2.287 0z"/>
    </g>
</svg>
