<svg xmlns="http://www.w3.org/2000/svg" xmlns:xlink="http://www.w3.org/1999/xlink" width="48" height="48" viewBox="0 0 48 48">
    <defs>
        <path id="prefix__a" d="M24.02 39.136c.414 0 .75.336.75.75v4.5c0 .414-.336.75-.75.75-.415 0-.75-.336-.75-.75v-4.5c0-.414.335-.75.75-.75zm8.974-21.844c.918 0 1.671.707 1.744 1.607l.006.143v3.95c0 1.3-.397 2.515-1.082 3.524l-.034-.014c.656.252 1.122.889 1.122 1.634v4c0 3.176-2.574 5.75-5.75 5.75H19c-3.176 0-5.75-2.574-5.75-5.75v-4c0-.712.425-1.324 1.035-1.598l-.034.016c-.582-.907-.938-1.97-.993-3.106l-.008-.312v-4c0-.918.707-1.671 1.606-1.744l.144-.006h4c2.15 0 4.025 1.18 5.011 2.928.927-1.738 2.727-2.94 4.814-3.018l.219-.004h3.95zM33 27.886h-4c-2.347 0-4.25 1.903-4.25 4.25v-.022 4.272H29c2.278 0 4.138-1.792 4.245-4.044l.005-.206v-4c0-.138-.112-.25-.25-.25zm-14 0h-4c-.138 0-.25.112-.25.25v4c0 2.347 1.903 4.25 4.25 4.25h4.249v-4.271c-.01-2.2-1.691-4.004-3.84-4.21l-.203-.014-.206-.005zm0-9h-4c-.118 0-.217.082-.243.193l-.007.057v4c0 1.244.472 2.387 1.254 3.25H19c1.696 0 3.22.734 4.273 1.903l-.023-.026v-5.127c0-2.21-1.686-4.025-3.84-4.23l-.204-.015-.206-.005zm13.994-.094h-3.95c-2.25 0-4.086 1.768-4.195 3.99l-.005.21v5.171l-.052.055c1.05-1.127 2.546-1.832 4.208-1.832h2.83c.773-.767 1.282-1.793 1.392-2.929l.017-.245.005-.22v-3.95c0-.118-.082-.217-.193-.243l-.057-.007zM22.763 4.312c.683-.683 1.791-.683 2.474 0l2.475 2.476c2.05 2.05 2.05 5.374 0 7.424l-2.475 2.475c-.683.684-1.791.684-2.474 0l-2.475-2.475c-2.05-2.05-2.05-5.374 0-7.424zm1.414 1.061c-.098-.097-.256-.097-.354 0l-2.475 2.475c-1.464 1.465-1.464 3.84 0 5.304l2.475 2.475c.098.097.256.097.354 0l2.475-2.475c1.464-1.465 1.464-3.84 0-5.304z"/>
    </defs>
    <g fill="none" fill-rule="evenodd">
        <path d="M0 0H48V48H0z"/>
        <use fill="#ADADAD" xlink:href="#prefix__a"/>
    </g>
</svg>
