<svg xmlns="http://www.w3.org/2000/svg" width="48" height="48" viewBox="0 0 48 48">
    <g fill="none" fill-rule="evenodd" opacity=".72">
        <path d="M0 0H48V48H0z"/>
        <path fill="#FFF" d="M25.2 9.9c-7.787 0-14.1 6.313-14.1 14.1s6.313 14.1 14.1 14.1c5.639 0 10.667-3.341 12.905-8.41.366-.829-.583-1.618-1.33-1.107-1.631 1.113-3.557 1.717-5.575 1.717-5.468 0-9.9-4.432-9.9-9.9 0-3.717 2.066-7.067 5.297-8.768.8-.421.549-1.628-.353-1.694-.347-.025-.695-.038-1.044-.038zm-2 1.962l-.095.088c-2.258 2.163-3.605 5.188-3.605 8.45 0 6.462 5.238 11.7 11.7 11.7l.446-.008c1.036-.04 2.05-.214 3.02-.514l.3-.1-.125.164C32.554 34.525 29.04 36.3 25.2 36.3c-6.793 0-12.3-5.507-12.3-12.3 0-6 4.297-10.998 9.982-12.082l.318-.056z"/>
    </g>
</svg>
