<svg xmlns="http://www.w3.org/2000/svg" id="Logo_Naver" width="80" height="30.222" viewBox="0 0 80 30.222">
    <defs>
        <style>
            .cls-2{fill:#333}
        </style>
    </defs>
    <g id="그룹_397" transform="translate(-136.31 -684.21)">
        <g id="그룹_396" transform="translate(148.31 688.21)">
            <g id="그룹_395">
                <g id="그룹_393" transform="translate(28.285 4.714)">
                    <path id="패스_778" d="M225.242 701.032h4.489a5.675 5.675 0 0 1 1.845.27 3.582 3.582 0 0 1 1.3.75 3.009 3.009 0 0 1 .766 1.142 3.989 3.989 0 0 1 .252 1.43v.366a3.822 3.822 0 0 1-.27 1.438 3.376 3.376 0 0 1-.791 1.177 3.769 3.769 0 0 1-1.3.8 5.015 5.015 0 0 1-1.8.3h-2.765v4.9h-1.726zm1.726 1.5v4.668h2.476q2.719 0 2.72-2.249v-.314a1.9 1.9 0 0 0-.654-1.6 2.975 2.975 0 0 0-1.874-.514z" class="cls-2" transform="translate(-225.242 -701.032)"/>
                    <path id="패스_779" d="M255.41 718.662a3.437 3.437 0 0 1-2.293-.715 2.441 2.441 0 0 1-.846-1.97v-.471a2.6 2.6 0 0 1 .819-1.988 3.8 3.8 0 0 1 2.651-.767h2.424v-.558a1.938 1.938 0 0 0-.462-1.421 2.074 2.074 0 0 0-1.508-.462 3.724 3.724 0 0 0-1.456.262 8.061 8.061 0 0 0-1.282.7l-.837-1.256a8.068 8.068 0 0 1 1.569-.846 5.312 5.312 0 0 1 2.023-.357 5.056 5.056 0 0 1 1.465.2 3.289 3.289 0 0 1 1.142.593 2.757 2.757 0 0 1 .75.959 2.943 2.943 0 0 1 .27 1.282v6.678h-1.621v-1.151h-.018a1.826 1.826 0 0 1-.375.479 2.718 2.718 0 0 1-.514.375 3.567 3.567 0 0 1-.828.322 4.4 4.4 0 0 1-1.073.112zm2.755-4.481h-2.389a2.111 2.111 0 0 0-1.421.384 1.356 1.356 0 0 0-.427 1.064v.244a1.112 1.112 0 0 0 .488 1.011 2.114 2.114 0 0 0 1.168.314 3.568 3.568 0 0 0 1.09-.148 2.737 2.737 0 0 0 .846-.445 1.511 1.511 0 0 0 .5-.6 2.229 2.229 0 0 0 .148-.881z" class="cls-2" transform="translate(-242.334 -705.95)"/>
                    <path id="패스_780" d="M281.266 716.9l2.511-7.62h1.778l-4.955 13.483-1.534-.541 1.238-3.26-3.47-9.677h1.831l2.528 7.62z" class="cls-2" transform="translate(-257.867 -706.25)"/>
                </g>
                <g id="그룹_394">
                    <path id="사각형_21" fill="#00c73c" d="M0 0H22V22H0z"/>
                    <path id="패스_781" fill="#fff" d="M170.518 714.5l-3.549-5.213v5.213h-3.7v-10.067h3.752l3.549 5.212v-5.212h3.7V714.5z" transform="translate(-157.769 -698.468)"/>
                </g>
            </g>
        </g>
    </g>
</svg>
