<svg xmlns="http://www.w3.org/2000/svg" width="20" height="20" viewBox="0 0 20 20">
    <g fill="none" fill-rule="evenodd">
        <path d="M0 0H20V20H0z"/>
        <g>
            <path fill="#80C342" d="M8.86.836l1.366.992h1.688c.533 0 1.01.317 1.22.798l.048.124.522 1.605 1.366.993c.467.34.662.942.484 1.49l-.522 1.606.522 1.607c.165.507.01 1.058-.381 1.407l-.103.083-1.366.991-.522 1.608c-.179.549-.69.92-1.268.92h-1.69l-1.365.993c-.428.312-.996.338-1.447.078l-.12-.078-1.366-.993H4.237c-.577 0-1.09-.371-1.268-.92l-.522-1.608-1.366-.99c-.43-.314-.63-.851-.518-1.364l.034-.127.522-1.607L.597 6.84c-.178-.55.017-1.151.484-1.49l1.366-.995.522-1.604c.165-.507.614-.863 1.136-.915l.132-.006h1.688L7.292.835c.467-.34 1.1-.34 1.567 0z" transform="translate(2 1.5)"/>
            <path fill="#FFF" d="M9.893 8.894c.8 0 1.447.648 1.447 1.448 0 .8-.648 1.447-1.447 1.447-.8 0-1.448-.648-1.448-1.447 0-.8.648-1.448 1.448-1.448zm.275-3.548c.156.114.205.32.127.49l-.04.07-4.159 5.675c-.13.178-.38.217-.559.086-.156-.114-.205-.32-.127-.489l.04-.07L9.61 5.432c.13-.178.38-.216.559-.086zm-.275 4.348c-.358 0-.648.29-.648.648 0 .357.29.647.648.647.357 0 .647-.29.647-.647 0-.358-.29-.648-.647-.648zm-3.941-4.4c.8 0 1.448.647 1.448 1.447S6.75 8.188 5.952 8.188c-.8 0-1.448-.648-1.448-1.447 0-.8.648-1.448 1.448-1.448zm0 .8c-.358 0-.648.289-.648.647 0 .357.29.647.648.647.358 0 .648-.29.648-.647 0-.358-.29-.648-.648-.648z" transform="translate(2 1.5)"/>
        </g>
    </g>
</svg>
