<svg xmlns="http://www.w3.org/2000/svg" width="40" height="40" viewBox="0 0 40 40">
    <g fill="none" fill-rule="evenodd">
        <path d="M8 8H32V32H8z"/>
        <path fill="#C2C2C2" d="M20 0c11.046 0 20 8.954 20 20s-8.954 20-20 20S0 31.046 0 20 8.954 0 20 0zm0 1.2C9.617 1.2 1.2 9.617 1.2 20c0 10.383 8.417 18.8 18.8 18.8 10.383 0 18.8-8.417 18.8-18.8C38.8 9.617 30.383 1.2 20 1.2zm3.356 10.617c1.363 0 2.263.42 2.813 1.465.996 1.604 1.634 2.631 1.922 3.1l.047.076.23.392c.272.513.475 1.112.475 1.71 0 1.067-.477 2.171-1.402 2.824l-.001 5.51c0 .95-.757 1.719-1.708 1.793l-.152.006H14.3c-.97 0-1.776-.72-1.854-1.651l-.006-.149v-5.522c0-.036.003-.072.01-.107-.83-.611-1.367-1.596-1.367-2.707.005-.789.218-1.355.647-2.001.016-.026.175-.258.251-.374l.03-.046 1.783-2.855c.614-.98 1.472-1.4 2.71-1.458l.236-.006h6.616zm-6.159 8.656l-.044.065c-.54.736-1.372 1.248-2.32 1.36l-.206.017-.184.005c-.277 0-.546-.034-.804-.097l.001 5.07c0 .296.239.55.561.594l.099.006h5.063V24.8c0-.331.269-.6.6-.6.298 0 .546.218.592.503l.008.097v2.693h5.017c.337 0 .607-.227.653-.512l.007-.088v-4.996c-.236.048-.489.074-.757.074-1.155 0-2.031-.528-2.599-1.254l-.11-.147-.054-.082-.045.07c-.491.689-1.255 1.218-2.269 1.337l-.22.02-.215.005c-1.039 0-1.97-.464-2.589-1.203l-.128-.162-.057-.082zm6.159-7.457h-6.603c-.925.01-1.46.219-1.858.776l-.083.125-1.785 2.858c-.038.06-.135.204-.207.31l-.049.073-.15.231c-.233.389-.335.716-.338 1.171 0 1.193.967 2.16 2.16 2.16 1.185 0 2.16-.981 2.16-2.16 0-.8 1.2-.8 1.2 0 0 1.211.97 2.16 2.168 2.16.791 0 1.34-.326 1.718-.904.245-.374.397-.85.428-1.151l.006-.105.008-.109c.099-.655 1.086-.655 1.184 0l.008.109.006.097c.032.288.188.78.433 1.167.384.606.934.947 1.721.947 1.412 0 2.16-1.134 2.16-2.211 0-.349-.14-.766-.322-1.12l-.093-.17-2.1-3.391c-.336-.639-.815-.863-1.772-.863z"/>
    </g>
</svg>
