<svg xmlns="http://www.w3.org/2000/svg" xmlns:xlink="http://www.w3.org/1999/xlink" width="32" height="32" viewBox="0 0 32 32">
    <defs>
        <path id="prefix__a" d="M16.108 10.61l.445.001c3.226.032 6.044 1.538 5.398 4.84-.454 2.32-2.802 4.66-6.718 4.67-.625.002-1.165-.016-1.751-.05-.053.294-.895 4.863-1.006 5.47-.145.79-.622 1.1-1.317 1.1H9.712l2.903-15.756s1.33-.274 3.493-.275zm.015 1.662c-.795.007-1.224.118-1.224.118s-1.08 5.888-1.086 5.887c.47.058 2.39.204 3.654-.496.87-.48 1.61-1.434 1.823-2.405.51-2.32-1.189-3.013-2.764-3.09-.142-.011-.277-.012-.403-.014zm12.318-7.938c.037-.009.072.017.088.052.012.033.007.073-.025.095-.018.017-.04.032-.062.046-3.013 1.875-7.47 3.093-12.458 3.093S6.54 6.4 3.527 4.527c-.023-.014-.044-.029-.065-.046-.029-.022-.035-.062-.02-.095.013-.035.048-.06.087-.052.027.005.057.014.08.023 3.34 1.132 7.666 1.773 12.375 1.773 4.71 0 9.037-.64 12.377-1.773.021-.009.052-.018.08-.023z"/>
    </defs>
    <g fill="none" fill-rule="evenodd">
        <path d="M0 0H32V32H0z"/>
        <use fill="#FFF" xlink:href="#prefix__a"/>
    </g>
</svg>
