<svg xmlns="http://www.w3.org/2000/svg" width="24" height="24" viewBox="0 0 24 24">
    <g fill="none" fill-rule="evenodd">
        <path fill="#80C342" d="M18.636 20.351c.367-.345.454-.842.086-1.188l-1.36-1.36c.95-1.21 1.468-3.003 1.468-5.379v-1.015C18.83 6.376 16.562 4 12.415 4S6 6.376 6 11.409v1.015c0 5.033 2.268 7.409 6.415 7.409 1.469 0 2.657-.303 3.564-.864l1.469 1.469c.367.367.842.259 1.188-.087zm-6.22-2.505c-2.852 0-4.234-1.599-4.234-5.595v-.67c0-3.995 1.382-5.615 4.233-5.615s4.234 1.62 4.234 5.616v.67c0 1.77-.281 3.066-.843 3.995l-1.684-1.685c-.368-.367-.843-.259-1.188.087-.346.345-.454.82-.087 1.188l1.555 1.577c-.496.28-1.166.432-1.987.432z"/>
    </g>
</svg>
