<svg xmlns="http://www.w3.org/2000/svg" width="24" height="24" viewBox="0 0 24 24">
    <g fill="none" fill-rule="evenodd">
        <g stroke="#FFF" stroke-linecap="round" stroke-linejoin="round" stroke-width="1.2">
            <path d="M13.41 8.895c-.426 2.58-2.314 4.667-4.786 5.38-.595.171-1.224.263-1.874.263-1.141 0-2.216-.283-3.159-.783C1.455 12.622 0 10.375 0 7.788c0-3.727 3.022-6.75 6.75-6.75 1.178 0 2.285.302 3.249.832.586.323 1.12.73 1.583 1.206.547.56 1.173 1.48 1.5 2.204" transform="translate(5.25 4.5)"/>
            <path d="M7.926 5.28L13.081 5.28 13.081 0.065" transform="translate(5.25 4.5)"/>
        </g>
    </g>
</svg>
