<svg xmlns="http://www.w3.org/2000/svg" id="Logo_samsung" width="80" height="30.222" viewBox="0 0 80 30.222">
    <defs>
        <style>
            .cls-2{fill:#1428a0}
        </style>
    </defs>
    <g id="그룹_392" transform="translate(-155.339 -64.47)">
        <g id="그룹_390" transform="translate(179.922 78.95)">
            <path id="패스_768" d="M289.2 127.554v.736a4.188 4.188 0 0 0-2.66-.961 4.715 4.715 0 0 0 0 9.407 4.188 4.188 0 0 0 2.66-.961v.805h2.018v-9.027zm-2.443 7.4a2.942 2.942 0 1 1 2.637-2.926 2.793 2.793 0 0 1-2.636 2.931z" class="cls-2" transform="translate(-271.905 -127.329)"/>
            <path id="패스_769" d="M233.445 127.329a4.192 4.192 0 0 0-2.692.988v-.763h-2.018v12.3h2.018v-4.1a4.191 4.191 0 0 0 2.692.988 4.715 4.715 0 0 0 0-9.407zm-.225 7.63a2.941 2.941 0 1 1 2.646-2.926 2.8 2.8 0 0 1-2.646 2.926z" class="cls-2" transform="translate(-228.735 -127.329)"/>
            <path id="패스_770" d="M343.07 128.5l-2.587 6.147-2.769-6.147h-2l3.8 8.445-1.621 3.85h1.981l5.175-12.3z" class="cls-2" transform="translate(-315.195 -128.276)"/>
        </g>
        <g id="그룹_391" transform="translate(168.339 67.47)">
            <path id="패스_771" d="M377.716 68.733l.1 5.948h-.042l-1.742-5.948h-2.813v7.5h1.862l-.1-6.152h.041l1.873 6.152h2.7v-7.5z" class="cls-2" transform="translate(-333.93 -68.491)"/>
            <path id="패스_772" d="M204.719 68.733l-1.4 7.578h2.049l1.037-6.878h.043l1.01 6.878h2.036l-1.4-7.578z" class="cls-2" transform="translate(-196.607 -68.491)"/>
            <path id="패스_773" d="M248.568 68.733l-.936 5.794h-.042l-.933-5.794h-3.09l-.167 7.578h1.9l.047-6.813h.042l1.267 6.813h1.922l1.265-6.813h.042l.048 6.813h1.9l-.167-7.578z" class="cls-2" transform="translate(-229.005 -68.491)"/>
            <path id="패스_774" d="M171.858 73.152a.994.994 0 0 1 .015.563.656.656 0 0 1-.739.5.676.676 0 0 1-.761-.683v-.737h-2.031v.586c0 1.691 1.33 2.2 2.753 2.2 1.374 0 2.5-.465 2.681-1.729a3.7 3.7 0 0 0-.008-1.246c-.32-1.587-3.2-2.055-3.411-2.946a.976.976 0 0 1-.009-.4.627.627 0 0 1 .693-.511.647.647 0 0 1 .706.688v.466h1.891v-.53c0-1.651-1.482-1.91-2.556-1.91-1.347 0-2.447.448-2.649 1.683a2.607 2.607 0 0 0 .018 1.02c.329 1.548 3.022 2 3.411 2.978" class="cls-2" transform="translate(-168.339 -67.47)"/>
            <path id="패스_775" d="M300.47 73.312a1.015 1.015 0 0 1 .014.557c-.06.25-.231.5-.731.5a.668.668 0 0 1-.754-.677v-.729h-2.014v.581c0 1.673 1.318 2.175 2.728 2.175 1.357 0 2.473-.458 2.651-1.711a3.665 3.665 0 0 0-.008-1.235c-.317-1.569-3.164-2.036-3.374-2.916a.969.969 0 0 1-.009-.391.619.619 0 0 1 .686-.5.639.639 0 0 1 .7.678v.456h1.871v-.524c0-1.634-1.468-1.892-2.527-1.892-1.335 0-2.425.438-2.624 1.666a2.535 2.535 0 0 0 .018 1.011c.324 1.534 2.991 1.979 3.378 2.948" class="cls-2" transform="translate(-272.313 -67.645)"/>
            <path id="패스_776" d="M337.108 75.171a.679.679 0 0 0 .727-.547 1.5 1.5 0 0 0 .019-.29v-5.6h1.92v5.432c0 .138-.013.424-.021.5-.133 1.412-1.252 1.87-2.645 1.87s-2.511-.458-2.642-1.87c-.007-.076-.023-.363-.018-.5V68.73h1.915v5.6a1.57 1.57 0 0 0 .019.29.678.678 0 0 0 .726.547" class="cls-2" transform="translate(-302.591 -68.488)"/>
            <path id="패스_777" d="M419.429 74.226a.7.7 0 0 0 .773-.547 1.34 1.34 0 0 0 .019-.29v-1.1h-.775v-1.107h2.681v2.034c0 .143 0 .247-.025.5-.125 1.378-1.322 1.873-2.665 1.873s-2.54-.5-2.665-1.873c-.022-.254-.025-.358-.027-.5v-3.189a4.774 4.774 0 0 1 .032-.5c.166-1.42 1.315-1.873 2.659-1.873s2.52.449 2.661 1.873a4.717 4.717 0 0 1 .014.5v.252H420.2v-.426a1.523 1.523 0 0 0-.022-.284.69.69 0 0 0-.757-.551.7.7 0 0 0-.756.551 1.75 1.75 0 0 0-.031.355v3.465a1.778 1.778 0 0 0 .018.29.709.709 0 0 0 .775.547" class="cls-2" transform="translate(-369.106 -67.622)"/>
        </g>
    </g>
</svg>
