<svg xmlns="http://www.w3.org/2000/svg" width="24" height="24" viewBox="0 0 24 24">
    <path fill="#ADADAD" fill-rule="evenodd" d="M10.012 4.4c.33 0 .6.269.6.6 0 .298-.218.546-.503.592l-.097.008H7.154c-.81 0-1.476.62-1.548 1.412l-.006.142v9.692c0 .81.62 1.476 1.412 1.548l.142.006h9.692c.81 0 1.476-.62 1.548-1.412l.006-.142V14c0-.331.269-.6.6-.6.298 0 .546.218.592.503l.008.097v2.847c0 1.465-1.143 2.662-2.586 2.749l-.168.005H7.154c-1.465 0-2.662-1.143-2.749-2.586l-.005-.168V7.154c0-1.465 1.143-2.662 2.586-2.749l.168-.005h2.858zM19 4.4h.028l.04.004L19 4.4c.045 0 .09.005.132.015.012.002.024.005.037.01.02.005.04.012.06.02l.029.013c.024.011.046.024.067.038l.02.013c.057.04.106.09.145.145l-.066-.078c.031.03.058.064.08.1.014.02.027.042.038.066l.012.027c.008.02.016.04.022.062l.01.038.006.034.004.032.003.029L19.6 5v5c0 .331-.269.6-.6.6-.298 0-.546-.218-.592-.503L18.4 10V6.448l-6.476 6.476c-.234.235-.614.235-.848 0-.235-.234-.235-.614 0-.848l6.475-6.477L14 5.6c-.298 0-.546-.218-.592-.503L13.4 5c0-.298.218-.546.503-.592L14 4.4h5z"/>
</svg>
