<svg xmlns="http://www.w3.org/2000/svg" width="24" height="24" viewBox="0 0 24 24">
    <g fill="none" fill-rule="evenodd">
        <path d="M0 0H24V24H0z"/>
        <path fill="#000" d="M15.119 4.12c1.27 0 2.115.394 2.628 1.371 1.164 1.873 1.795 2.89 1.914 3.089l.013.021.11.198c.248.473.431 1.022.431 1.573 0 .983-.433 2-1.275 2.613v5.083c0 .9-.711 1.63-1.607 1.704l-.15.006H6.817c-.915 0-1.674-.682-1.752-1.562l-.006-.148v-5.11l.004-.053c-.778-.572-1.284-1.495-1.284-2.536.004-.655.162-1.146.477-1.67l.126-.198.258-.385 1.64-2.626c.574-.917 1.378-1.309 2.53-1.364l.22-.006h6.088zm-5.666 8.094l-.042.06c-.5.65-1.248 1.105-2.1 1.213l-.214.02-.178.004c-.226 0-.447-.024-.66-.07l.001 4.627c0 .249.198.463.466.504l.092.006h4.581l.001-2.451c0-.332.269-.6.6-.6.331 0 .6.268.6.6l-.001 2.451h4.583c.282 0 .508-.19.55-.429l.008-.08v-4.571c-.208.04-.43.06-.664.06-1.047 0-1.848-.462-2.38-1.108l-.109-.141-.053-.077-.045.064c-.457.613-1.151 1.08-2.063 1.19l-.214.02-.207.005c-.948 0-1.8-.414-2.378-1.076l-.12-.146-.054-.075zm5.666-6.894H9.045c-.897.01-1.38.222-1.746.805-.845 1.356-1.379 2.212-1.604 2.57l-.038.06-.227.34-.145.224c-.21.35-.303.644-.305 1.053 0 1.071.868 1.94 1.94 1.94 1.062 0 1.938-.882 1.938-1.94 0-.8 1.2-.8 1.2 0 0 1.088.87 1.94 1.947 1.94.71 0 1.2-.292 1.54-.81.217-.333.354-.754.385-1.024l.007-.106.008-.109c.103-.69 1.192-.653 1.192.109 0 .86.713 1.986 1.939 1.986 1.267 0 1.94-1.018 1.94-1.986 0-.312-.128-.69-.292-1.008l-.084-.154-1.933-3.122c-.3-.57-.724-.768-1.588-.768z"/>
    </g>
</svg>
