<svg xmlns="http://www.w3.org/2000/svg" width="20" height="20" viewBox="0 0 20 20">
    <g fill="none" fill-rule="evenodd">
        <path d="M0 0H20V20H0z"/>
        <g stroke="#AA8153" stroke-linejoin="round">
            <path stroke-linecap="round" d="M12.63 7.643v4.602c0 .552-.47 1-1.05 1h-9.4c-.58 0-1.05-.448-1.05-1V7.643" transform="translate(3.07 3.5)"/>
            <path d="M0 5.3c0 1.27 1.03 2.3 2.3 2.3 1.27 0 2.3-1.048 2.3-2.3 0 1.31 1.057 2.3 2.307 2.3C8.782 7.6 9.2 5.755 9.2 5.3c0 .398.415 2.343 2.3 2.343 1.885 0 2.3-1.774 2.3-2.343s-.315-1.157-.415-1.329c-.068-.114-.647-1.049-1.738-2.805-.41-.777-1.05-.986-1.92-.986H4.22c-.877.01-1.555.218-2.036.986C1.37 2.469.875 3.263.696 3.546.43 3.971.005 4.42 0 5.3z" transform="translate(3.07 3.5)"/>
            <path stroke-linecap="round" d="M6.9 10.5L6.9 13" transform="translate(3.07 3.5)"/>
        </g>
    </g>
</svg>
