<svg xmlns="http://www.w3.org/2000/svg" width="16" height="16" viewBox="0 0 16 16">
    <g fill="none" fill-rule="evenodd">
        <path fill="#C2C2C2" fill-rule="nonzero" d="M8 0c4.418 0 8 3.582 8 8s-3.582 8-8 8-8-3.582-8-8 3.582-8 8-8zm0 1C4.134 1 1 4.134 1 8s3.134 7 7 7 7-3.134 7-7-3.134-7-7-7z"/>
        <g>
            <path d="M0 0H10V10H0z" transform="translate(3 3)"/>
            <path fill="#C2C2C2" d="M4.81 6.826c.22 0 .424-.144.424-.4 0-.471.084-.707.73-1.363C6.715 4.315 7 3.864 7 3.178v-.103C7 1.958 6.223 1.2 4.948 1.2c-.768 0-1.387.318-1.803.717-.185.164-.185.44-.046.625.148.205.36.257.545.103.342-.308.73-.533 1.285-.533.768 0 1.147.43 1.147 1.004v.072c0 .45-.167.738-.879 1.435-.72.707-.832 1.086-.832 1.782 0 .298.213.42.444.42zM4.86 8.8c.387 0 .672-.288.672-.656 0-.367-.285-.645-.671-.645-.377 0-.662.278-.662.645 0 .368.285.656.662.656z" transform="translate(3 3)"/>
        </g>
    </g>
</svg>
