<svg xmlns="http://www.w3.org/2000/svg" width="16" height="16" viewBox="0 0 16 16">
    <g fill="none" fill-rule="evenodd">
        <g>
            <g>
                <g>
                    <g>
                        <g>
                            <g>
                                <g>
                                    <g fill="#333">
                                        <path d="M6.928.392c.784-.523 1.806-.523 2.59 0 .776.517 1.242 1.389 1.242 2.321V4.22l-.006.078c-.037.228-.235.402-.474.402-.265 0-.48-.215-.48-.48V2.713l-.005-.14c-.043-.558-.34-1.069-.81-1.382-.461-.308-1.063-.308-1.524 0-.51.34-.815.91-.815 1.522V4.22l-.007.078c-.003.02-.007.04-.013.058.933.328 1.603 1.218 1.603 2.264v2.057c0 1.326-1.075 2.4-2.4 2.4H2.4c-1.325 0-2.4-1.074-2.4-2.4V6.62c0-1.325 1.075-2.4 2.4-2.4h3.286V2.713l.005-.174c.054-.866.51-1.662 1.237-2.147zm-1.1 4.788H2.4c-.756 0-1.375.582-1.435 1.322L.96 6.62v2.057c0 .756.582 1.375 1.322 1.435l.118.005h3.429c.755 0 1.375-.582 1.435-1.322l.005-.118V6.62c0-.756-.582-1.375-1.322-1.435l-.118-.005z" transform="translate(-1144 -488) translate(236 129) translate(0 65) translate(0 190) translate(0 94) translate(898) translate(10 10) translate(2.4 2.4)"/>
                                    </g>
                                </g>
                            </g>
                        </g>
                    </g>
                </g>
            </g>
        </g>
    </g>
</svg>
