<svg xmlns="http://www.w3.org/2000/svg" xmlns:xlink="http://www.w3.org/1999/xlink" width="800" height="660" viewBox="0 0 800 660">
  <defs>
    <radialGradient id="radial-gradient" cx="0.5" cy="0.5" r="0.965" gradientTransform="translate(0.303) scale(0.394 1)" gradientUnits="objectBoundingBox">
      <stop offset="0.574" stop-color="#181415"/>
      <stop offset="0.798" stop-color="#181415"/>
      <stop offset="1" stop-color="#181415"/>
    </radialGradient>
    <clipPath id="clip-path">
      <path id="패스_297" data-name="패스 297" d="M637.726,3746.963s-.57,5.75-5.842,5.75-5.271-5.75-5.271-5.75v-54.522h11.114Z" transform="translate(-626.613 -3692.441)" fill="none"/>
    </clipPath>
    <clipPath id="clip-path-2">
      <path id="패스_308" data-name="패스 308" d="M562.171,3756.352s-.584-2.91.781-2.735c0,0,.2,1.172,2.54,2.345s11.137,1.367,11.333-2.345c0,0,.39-.2.39,2.735s-2.54,5.275-7.034,5.47C567.767,3761.927,561.194,3760.26,562.171,3756.352Z" transform="translate(-562.047 -3753.609)" fill="none"/>
    </clipPath>
    <clipPath id="clip-path-3">
      <path id="패스_318" data-name="패스 318" d="M590.326,3779.656s-.639-3.183.855-2.992c0,0,.213,1.281,2.778,2.564s12.183,1.5,12.4-2.564c0,0,.427-.215.427,2.992s-2.778,5.771-7.694,5.984C596.449,3785.755,589.258,3783.931,590.326,3779.656Z" transform="translate(-590.191 -3776.656)" fill="none"/>
    </clipPath>
    <clipPath id="clip-path-4">
      <path id="패스_328" data-name="패스 328" d="M644.47,3782s-.639-3.183.855-2.992c0,0,.213,1.282,2.779,2.565s12.183,1.5,12.4-2.565c0,0,.427-.214.427,2.992s-2.779,5.772-7.694,5.985C650.593,3788.095,643.4,3786.271,644.47,3782Z" transform="translate(-644.335 -3778.995)" fill="none"/>
    </clipPath>
    <clipPath id="clip-path-5">
      <path id="패스_338" data-name="패스 338" d="M684.063,3763.392s-.574-2.855.766-2.684c0,0,.193,1.15,2.492,2.3s10.928,1.341,11.119-2.3c0,0,.384-.191.384,2.684s-2.492,5.177-6.9,5.368C689.554,3768.863,683.1,3767.227,684.063,3763.392Z" transform="translate(-683.941 -3760.701)" fill="none"/>
    </clipPath>
    <clipPath id="clip-path-6">
      <path id="패스_348" data-name="패스 348" d="M602.864,3739.431s-.547-2.728.732-2.564c0,0,.183,1.1,2.381,2.2s10.442,1.283,10.624-2.2c0,0,.367-.183.367,2.564s-2.381,4.946-6.594,5.129C608.11,3744.659,601.948,3743.1,602.864,3739.431Z" transform="translate(-602.747 -3736.86)" fill="none"/>
    </clipPath>
    <clipPath id="clip-path-7">
      <path id="패스_358" data-name="패스 358" d="M650.323,3741.1s-.547-2.728.733-2.564c0,0,.183,1.1,2.381,2.2s10.442,1.282,10.624-2.2c0,0,.367-.184.367,2.564s-2.381,4.945-6.594,5.129C655.57,3746.33,649.407,3744.765,650.323,3741.1Z" transform="translate(-650.207 -3738.531)" fill="none"/>
    </clipPath>
    <clipPath id="clip-path-8">
      <path id="패스_368" data-name="패스 368" d="M686.733,3764.121c0,16.615-29.826,30.086-66.619,30.086s-66.618-13.47-66.618-30.086,29.826-30.085,66.618-30.085S686.733,3747.506,686.733,3764.121Z" transform="translate(-553.496 -3734.036)" fill="none"/>
    </clipPath>
  </defs>
  <g id="card1" transform="translate(-18 -457)">
    <rect id="사각형_3" data-name="사각형 3" width="800" height="660" rx="24" transform="translate(18 457)" fill="#d8f8be"/>
    <g id="그룹_177" data-name="그룹 177" transform="translate(-199.741 -3066.545)">
      <path id="패스_236" data-name="패스 236" d="M424.866,3574.686h0c-3.455,8.623-3.636,18.4-1.99,27.546.722,4.007,2.425,8.465,6.273,9.8,3.123,1.081,6.676-.4,8.95-2.8a22.076,22.076,0,0,0,4.791-7.86,13.133,13.133,0,0,0,.722-4.169,3.067,3.067,0,0,0-1.723-2.818c-1.581-.615-3.3.729-4.025,2.263s-.861,3.3-1.62,4.816-2.57,2.783-4.1,2.055c-1.267-.6-1.653-2.186-1.892-3.567-.889-5.126-1.776-10.4-.7-15.491a7.224,7.224,0,0,1,1.7-3.678,3.215,3.215,0,0,1,3.742-.743c2.507,1.457,1.112,5.628,3.507,7.023,3.431,2,5.675-3.026,5.647-5.511-.1-9.516-1.713-14.118-8.957-14.155A11.206,11.206,0,0,0,424.866,3574.686Z" transform="translate(0 -0.364)" fill="#48b896"/>
      <g id="그룹_168" data-name="그룹 168" transform="translate(446.719 3567.365)">
        <g id="그룹_167" data-name="그룹 167">
          <path id="패스_237" data-name="패스 237" d="M468.712,3569.517c-3.771-2.162-8.693-2.491-12.32.158-4.991,3.646-5.238,11.125-5.213,16.727.034,7.454,1.728,15.2,6.458,21.143a11.828,11.828,0,0,0,5.606,4.24,9.5,9.5,0,0,0,8.093-1.658,16.629,16.629,0,0,0,5.138-6.724C481.111,3593.207,479.379,3575.631,468.712,3569.517Zm-.058,25.556a6.336,6.336,0,0,1-1.625,2.56,2.609,2.609,0,0,1-2.56.632,3.9,3.9,0,0,1-1.774-1.615h0a14.841,14.841,0,0,1-2.042-8.052c-.009-2.134.07-4.982,1.648-6.371a3.107,3.107,0,0,1,3.9-.06C469.573,3584.5,470.121,3591.19,468.655,3595.073Z" transform="translate(-451.178 -3567.792)" fill="#48b896"/>
        </g>
      </g>
      <path id="패스_238" data-name="패스 238" d="M532.676,3570.655a23.542,23.542,0,0,0-3.98,9.268,72.846,72.846,0,0,0-1.959,19.885c.206,4.578.828,10.238,5.5,12.466,8.64,4.122,15.144-7.578,16.435-14.423.651-3.453,1.1-8.169-2.812-9.835a9.066,9.066,0,0,0-5.214-1.008c-2.013.256-4,1.8-4.088,3.825a3.033,3.033,0,0,0,2.544,3.083c.465.134,1.729.009,2.055.32,1.31,1.262.092,5.847-.644,7.053-1.3,2.133-4.839,2.964-6.235.892a5.284,5.284,0,0,1-.7-2.32,40.281,40.281,0,0,1,1.653-17.511c.722-2.214,1.762-4.515,3.767-5.7a1.865,1.865,0,0,1,1.785-.24c1.034.566,1.112,1.95,1.379,3.1.724,3.108,4.976,2.07,6.123.462s1.794-6.045.891-8.493C546.408,3563.972,536.748,3565.452,532.676,3570.655Z" transform="translate(-15.946 -0.198)" fill="#48b896"/>
      <g id="그룹_170" data-name="그룹 170" transform="translate(534.325 3569.222)">
        <g id="그룹_169" data-name="그룹 169">
          <path id="패스_239" data-name="패스 239" d="M580.57,3611.137a5.825,5.825,0,0,0-.888-2.6,60.119,60.119,0,0,1-5.029-13.036c.146-.075.293-.146.436-.225,5.1-2.81,7.213-8.135,7.017-14.078a11.625,11.625,0,0,0-3.607-8.462,11.115,11.115,0,0,0-4.276-2.164,16.7,16.7,0,0,0-12.978,1.807l-1.96,2.6a274.705,274.705,0,0,0-4.683,33.14c-.156,2.025-.276,4.165.959,5.865a3.031,3.031,0,0,0,2.383,1.325c1.9.019,2.871-1.78,3.474-3.426a29.279,29.279,0,0,0,1.748-8.848,5.234,5.234,0,0,1,3.3-4.687q2.889,6.475,6.266,12.691c.759,1.391,1.73,2.913,3.261,3.14C577.494,3614.4,580.576,3612.718,580.57,3611.137Zm-12.729-21.4-.789-1.143a34.35,34.35,0,0,1,1.26-10.132c1.593-.084,3.412-.075,4.457,1.154a4.079,4.079,0,0,1,.832,2.3A7.546,7.546,0,0,1,567.841,3589.738Z" transform="translate(-554.506 -3569.981)" fill="#48b896"/>
        </g>
      </g>
      <g id="그룹_172" data-name="그룹 172" transform="translate(563.937 3569.685)">
        <g id="그룹_171" data-name="그룹 171" transform="translate(0)">
          <path id="패스_240" data-name="패스 240" d="M619.781,3604.43a54.835,54.835,0,0,0-5.182-27.809c-1.285-2.687-3.173-5.548-6.126-6.027a7.107,7.107,0,0,0-4.03.7c-5.767,2.624-8.268,9.3-9.96,15.377h0q-1.833,6.59-3.279,13.278c-.743,3.434-2.667,8.281-1.284,11.719,1.077,2.675,3.867,4.191,6.5,2.631,3.315-1.964,3.859-6.685,4.973-9.983.4-1.195,1.039-2.5,2.253-2.862a4.384,4.384,0,0,1,1.579-.078c1.848.133,3.893.358,5.129,1.733,1.179,1.314,1.229,3.238,1.545,4.969s1.3,3.681,3.057,3.856a3.4,3.4,0,0,0,2.684-1.181C619.209,3609.106,619.6,3606.693,619.781,3604.43Zm-9.692-13.227a.846.846,0,0,1-.551.178l-4.012.311a21.774,21.774,0,0,1-2.823.1.5.5,0,0,1-.57-.716,37.1,37.1,0,0,1,2.861-8.126l.777-.564a12.737,12.737,0,0,1,4.448,8.136A.817.817,0,0,1,610.089,3591.2Z" transform="translate(-589.432 -3570.527)" fill="#48b896"/>
        </g>
      </g>
      <path id="패스_241" data-name="패스 241" d="M658.387,3600.611h0c.826,3.4,1.9,6.84,4.059,9.587a8.871,8.871,0,0,0,4.578,3.28,8.664,8.664,0,0,0,5.429-.6c4.922-2.048,8.251-6.914,9.777-12.054s1.5-10.6,1.457-15.964a24.3,24.3,0,0,0-.593-6.221,12.2,12.2,0,0,0-3.294-5.549,2.751,2.751,0,0,0-1.475-.862c-1.347-.17-2.228,1.359-2.655,2.658a39.448,39.448,0,0,0-1.964,11.982c-.024,3.052.284,6.239-.926,9.037-.585,1.353-1.855,2.694-3.288,2.384-1.106-.238-1.78-1.352-2.246-2.391a24.764,24.764,0,0,1-2.156-10.763c.042-1.578.235-3.152.182-4.73a8.457,8.457,0,0,0-1.255-4.5c-2.126-3.132-7.186-2.52-7.974,1.3-.875,4.245.058,9.572.585,13.8A85.484,85.484,0,0,0,658.387,3600.611Z" transform="translate(-35.577 -1.099)" fill="#48b896"/>
      <path id="패스_242" data-name="패스 242" d="M690.417,3600.461h0a21.846,21.846,0,0,0,.7,7.227,6.27,6.27,0,0,0,1.506,2.67,6.089,6.089,0,0,0,2.343,1.3,19.813,19.813,0,0,0,9.827.2c2.99-.555,6.288-.9,8.957-2.44s2.316-1.051,4.7-4.316a9.008,9.008,0,0,0,.335-3.441c-.094-.5-.543-1.439-1.007-1.612-2.72-1.007-5.865.843-8.764,1.411a88.856,88.856,0,0,0-9.368,2.216c.627-.205,2.243-10.1,2.417-11.081.565-3.158,1.523-7.4,2.141-10.9.818-4.641,4.349-11.207.076-14.379-5.667-4.209-9.837,10.01-10.9,13.565A76.821,76.821,0,0,0,690.417,3600.461Z" transform="translate(-40.858 -0.235)" fill="#48b896"/>
      <g id="그룹_174" data-name="그룹 174" transform="translate(679.761 3565.565)">
        <g id="그룹_173" data-name="그룹 173">
          <path id="패스_243" data-name="패스 243" d="M756.392,3599.573a54.828,54.828,0,0,0-5.182-27.809c-1.284-2.687-3.173-5.548-6.126-6.027a7.116,7.116,0,0,0-4.03.7c-5.766,2.624-8.268,9.3-9.959,15.377h0q-1.834,6.59-3.28,13.278c-.742,3.434-2.667,8.282-1.284,11.719,1.077,2.675,3.867,4.191,6.5,2.631,3.315-1.964,3.859-6.685,4.973-9.983.4-1.195,1.039-2.5,2.253-2.861a4.378,4.378,0,0,1,1.579-.078c1.848.132,3.893.358,5.129,1.733,1.179,1.313,1.229,3.238,1.545,4.969s1.3,3.681,3.057,3.856a3.4,3.4,0,0,0,2.684-1.181C755.821,3604.248,756.214,3601.834,756.392,3599.573Zm-9.692-13.227a.845.845,0,0,1-.55.178l-4.013.311a21.861,21.861,0,0,1-2.823.1.5.5,0,0,1-.57-.716,37.081,37.081,0,0,1,2.861-8.126l.778-.564a12.737,12.737,0,0,1,4.448,8.136A.816.816,0,0,1,746.7,3586.345Z" transform="translate(-726.044 -3565.668)" fill="#48b896"/>
        </g>
      </g>
      <path id="패스_244" data-name="패스 244" d="M792.5,3606.869c.577.973,1.6,1.542,3.346,1.426a3.878,3.878,0,0,0,2.493-.644c.888-.739,1.162-2.118,1.362-3.38.953-6.025,1.628-12.117,2.024-18.241.242-3.743.4-7.5.562-11.247.112-2.609,1-6.708-1.291-8.486a3.071,3.071,0,0,0-3.217-.2,7.487,7.487,0,0,0-3.5,4.655,27.175,27.175,0,0,0-.92,6.319q-.529,7.942-1.057,15.883C792.041,3596.814,790.425,3603.375,792.5,3606.869Z" transform="translate(-56.235 -0.114)" fill="#48b896"/>
      <path id="패스_245" data-name="패스 245" d="M787.389,3567.46a3.421,3.421,0,0,0-.928-1.573,3.122,3.122,0,0,0-1.9-.532,120.215,120.215,0,0,0-17.039-.089c-1.552.139-3.7.14-4.732,1.708-.9,1.368-1.095,5.261-.018,6.526h0a2.158,2.158,0,0,0,1.844.523c1.276-.058,2.551-.137,3.825-.228-.174,1.207-.26,2.438-.342,3.662q-.528,7.941-1.056,15.883c-.257,3.861-1.873,10.422.2,13.917.577.972,1.6,1.541,3.346,1.426a3.877,3.877,0,0,0,2.493-.645c.887-.738,1.162-2.117,1.362-3.379q1.431-9.038,2.025-18.242c.242-3.743.4-7.5.562-11.247.029-.664.108-1.425.171-2.219q3.321-.4,6.633-.87c1.589-.226,3.528-.819,3.826-2.624A4.194,4.194,0,0,0,787.389,3567.46Z" transform="translate(-51.758 0)" fill="#48b896"/>
      <path id="패스_246" data-name="패스 246" d="M876.11,3567.011a2.763,2.763,0,0,0-3.034-.213,7.368,7.368,0,0,0-3.285,4.641,28.626,28.626,0,0,0-.845,6.313c-.279,4.725-.6,10.678-.874,15.4-3.7-6.483-6.986-13.081-10.688-19.566-.88-1.542-2.175-4.241-3.552-5.3l-.115.377a3.38,3.38,0,0,0-.828-1.04,2.762,2.762,0,0,0-3.034-.212,7.367,7.367,0,0,0-3.285,4.64,28.579,28.579,0,0,0-.844,6.314q-.469,7.937-.938,15.875c-.228,3.859-1.727,10.412.241,13.915a3.03,3.03,0,0,0,3.161,1.438,3.48,3.48,0,0,0,2.349-.636c.834-.734,1.088-2.112,1.272-3.374q1.212-8.329,1.743-16.8a141.258,141.258,0,0,0,9.534,15.346,13.47,13.47,0,0,0,3.583,3.7,5.453,5.453,0,0,0,2.712.816,3.872,3.872,0,0,0,2.03.335,3.483,3.483,0,0,0,2.349-.636c.834-.734,1.088-2.113,1.272-3.374.877-6.021,1.491-12.109,1.841-18.229.214-3.742.35-7.492.488-11.242C877.456,3572.892,878.279,3568.8,876.11,3567.011Z" transform="translate(-64.234 -0.221)" fill="#48b896"/>
      <g id="그룹_176" data-name="그룹 176" transform="translate(749.363 3565.649)">
        <g id="그룹_175" data-name="그룹 175">
          <path id="패스_247" data-name="패스 247" d="M825.67,3567.493c-3.771-2.162-8.693-2.491-12.32.158-4.991,3.646-5.238,11.125-5.213,16.726.034,7.453,1.728,15.205,6.458,21.143a11.822,11.822,0,0,0,5.606,4.24,9.5,9.5,0,0,0,8.094-1.657,16.635,16.635,0,0,0,5.137-6.725C838.069,3591.184,836.336,3573.607,825.67,3567.493Zm-.059,25.556a6.339,6.339,0,0,1-1.625,2.561,2.615,2.615,0,0,1-2.56.632,3.9,3.9,0,0,1-1.773-1.615h0a14.831,14.831,0,0,1-2.042-8.052c-.008-2.133.07-4.982,1.648-6.371a3.107,3.107,0,0,1,3.9-.06C826.531,3582.472,827.079,3589.166,825.612,3593.049Z" transform="translate(-808.136 -3565.768)" fill="#48b896"/>
        </g>
      </g>
      <path id="패스_248" data-name="패스 248" d="M513.465,3569.179a2.221,2.221,0,0,0-2.684-.236c-1.4.78-2.366,2.617-2.87,4.613a31.871,31.871,0,0,0-.7,6.3c-.211,4.72-.445,10.667-.656,15.388-3.322-6.509-6.277-13.129-9.6-19.637-.79-1.549-1.956-4.256-3.182-5.324l-.1.375a3.431,3.431,0,0,0-.74-1.045,2.221,2.221,0,0,0-2.684-.236c-1.4.78-2.366,2.618-2.87,4.613a31.932,31.932,0,0,0-.7,6.3q-.354,7.93-.708,15.86c-.172,3.856-1.448,10.395.319,13.91a2.636,2.636,0,0,0,2.806,1.462,2.787,2.787,0,0,0,2.071-.617,5.94,5.94,0,0,0,1.1-3.363q1.01-8.316,1.414-16.783a148.026,148.026,0,0,0,8.546,15.41,13.179,13.179,0,0,0,3.2,3.727,4.5,4.5,0,0,0,2.4.836,3.107,3.107,0,0,0,1.8.35,2.789,2.789,0,0,0,2.072-.617,5.94,5.94,0,0,0,1.1-3.363q1.094-9.017,1.489-18.207c.161-3.738.253-7.485.347-11.233C514.7,3575.067,515.4,3570.98,513.465,3569.179Z" transform="translate(-9.662 -0.55)" fill="#48b896"/>
      <path id="패스_249" data-name="패스 249" d="M650.778,3572.318a3.422,3.422,0,0,0-.928-1.574,3.122,3.122,0,0,0-1.9-.531,120.179,120.179,0,0,0-17.039-.089c-1.552.139-3.7.14-4.732,1.708-.9,1.367-1.095,5.261-.018,6.526h0a2.155,2.155,0,0,0,1.844.523c1.276-.058,2.551-.137,3.825-.228-.174,1.207-.26,2.438-.342,3.662q-.528,7.941-1.056,15.883c-.257,3.861-1.873,10.423.2,13.917.577.972,1.6,1.541,3.346,1.426a3.877,3.877,0,0,0,2.493-.645c.887-.738,1.162-2.117,1.362-3.379.954-6.026,1.629-12.117,2.025-18.241.242-3.744.4-7.5.562-11.248.029-.664.107-1.424.171-2.219q3.321-.4,6.633-.87c1.589-.225,3.528-.819,3.825-2.624A4.194,4.194,0,0,0,650.778,3572.318Z" transform="translate(-30.972 -0.739)" fill="#48b896"/>
    </g>
    <g id="그룹_243" data-name="그룹 243" transform="translate(-196.845 -3078.789)">
      <g id="L" transform="translate(12)">
        <g id="그룹_178" data-name="그룹 178" transform="translate(513.896 3681.884)">
          <path id="패스_250" data-name="패스 250" d="M531.144,3690.386a4.165,4.165,0,0,1-3.436.985l-.839-.483a1.708,1.708,0,0,1-.652-2.681q3-2.225,4.116-1.581l.839.482Q531.98,3689.654,531.144,3690.386Z" transform="translate(-525.828 -3686.482)" fill="#e48bdf"/>
        </g>
        <g id="그룹_179" data-name="그룹 179" transform="translate(475.291 3684.396)">
          <path id="패스_251" data-name="패스 251" d="M484.154,3689.575a3.475,3.475,0,0,0,.584.048,2.071,2.071,0,0,1,1.07.2c.131.131.228.228.292.292l.292.292a.953.953,0,0,1,.243.341.949.949,0,0,0,.243.34,6.14,6.14,0,0,1,.535,1.216,4.007,4.007,0,0,1,.049,1.9,6.1,6.1,0,0,1-3.213,2.238.6.6,0,0,1-.437.193,1.655,1.655,0,0,1-.731-.292q-.193,0-.389-.39a.93.93,0,0,0-.439-.485,1.3,1.3,0,0,1-.437-.293,2.68,2.68,0,0,0-.585-1.946c-.453-.325-.681-.551-.681-.681a4.638,4.638,0,0,1,.293-1.266,12.858,12.858,0,0,1,.68-1.654,6.7,6.7,0,0,1,1.266-.194,4.519,4.519,0,0,1,.876.1A2.95,2.95,0,0,1,484.154,3689.575Z" transform="translate(-480.552 -3689.429)" fill="#d2375b"/>
        </g>
        <g id="그룹_180" data-name="그룹 180" transform="translate(501.885 3699.346)">
          <path id="패스_252" data-name="패스 252" d="M514,3707.054a2.218,2.218,0,0,0,.366.03,1.306,1.306,0,0,1,.672.122l.182.183.183.183a.6.6,0,0,1,.153.213.6.6,0,0,0,.152.214,3.835,3.835,0,0,1,.337.762,2.521,2.521,0,0,1,.031,1.191,3.818,3.818,0,0,1-2.015,1.4.374.374,0,0,1-.275.122,1.038,1.038,0,0,1-.458-.183c-.081,0-.162-.081-.244-.244a.588.588,0,0,0-.275-.3.821.821,0,0,1-.274-.183,1.682,1.682,0,0,0-.367-1.221c-.284-.2-.427-.345-.427-.427a2.9,2.9,0,0,1,.184-.794,8.1,8.1,0,0,1,.426-1.038,4.166,4.166,0,0,1,.794-.122,2.832,2.832,0,0,1,.549.062A1.781,1.781,0,0,1,514,3707.054Z" transform="translate(-511.742 -3706.961)" fill="#fff"/>
        </g>
        <g id="그룹_181" data-name="그룹 181" transform="translate(511.394 3659.188)">
          <path id="패스_253" data-name="패스 253" d="M525.153,3659.956a2.178,2.178,0,0,0,.367.03,1.3,1.3,0,0,1,.671.122c.083.082.142.144.183.183l.183.183a.583.583,0,0,1,.152.214.621.621,0,0,0,.153.213,3.774,3.774,0,0,1,.336.763,2.5,2.5,0,0,1,.031,1.19,3.817,3.817,0,0,1-2.015,1.4.376.376,0,0,1-.274.122,1.036,1.036,0,0,1-.458-.184c-.081,0-.163-.081-.245-.245a.587.587,0,0,0-.275-.3.816.816,0,0,1-.275-.183,1.681,1.681,0,0,0-.367-1.22c-.284-.2-.427-.346-.427-.428a2.924,2.924,0,0,1,.183-.794,8.061,8.061,0,0,1,.427-1.038,4.221,4.221,0,0,1,.794-.122,2.8,2.8,0,0,1,.549.061A1.921,1.921,0,0,1,525.153,3659.956Z" transform="translate(-522.894 -3659.864)" fill="#fff"/>
        </g>
        <g id="그룹_182" data-name="그룹 182" transform="translate(466.281 3715.281)">
          <path id="패스_254" data-name="패스 254" d="M472.245,3725.742a2.094,2.094,0,0,0,.366.03,1.307,1.307,0,0,1,.672.123l.183.183.182.183a.588.588,0,0,1,.153.214.59.59,0,0,0,.153.213,3.9,3.9,0,0,1,.336.763,2.521,2.521,0,0,1,.031,1.191,3.823,3.823,0,0,1-2.015,1.4.376.376,0,0,1-.275.122,1.038,1.038,0,0,1-.458-.183c-.081,0-.162-.081-.244-.244a.589.589,0,0,0-.275-.305.807.807,0,0,1-.274-.182,1.679,1.679,0,0,0-.367-1.221c-.284-.2-.427-.345-.427-.427a2.9,2.9,0,0,1,.184-.794,8.222,8.222,0,0,1,.426-1.038,4.212,4.212,0,0,1,.795-.122,2.867,2.867,0,0,1,.548.061A1.907,1.907,0,0,1,472.245,3725.742Z" transform="translate(-469.986 -3725.65)" fill="#c5c5f6"/>
        </g>
        <g id="그룹_183" data-name="그룹 183" transform="translate(529.531 3677.933)">
          <path id="패스_255" data-name="패스 255" d="M546.413,3681.94a2.114,2.114,0,0,0,.365.03,1.288,1.288,0,0,1,.668.122l.182.182.183.182a.629.629,0,0,1,.152.213.576.576,0,0,0,.152.212,3.859,3.859,0,0,1,.334.759,2.523,2.523,0,0,1,.031,1.186,3.8,3.8,0,0,1-2.006,1.4.371.371,0,0,1-.273.121,1.041,1.041,0,0,1-.455-.182c-.081,0-.161-.081-.243-.243a.587.587,0,0,0-.274-.3.813.813,0,0,1-.273-.182,1.678,1.678,0,0,0-.365-1.215c-.282-.2-.425-.344-.425-.426a2.909,2.909,0,0,1,.182-.79,8.14,8.14,0,0,1,.425-1.032,4.2,4.2,0,0,1,.79-.121,2.9,2.9,0,0,1,.547.06A1.987,1.987,0,0,1,546.413,3681.94Z" transform="translate(-544.166 -3681.849)" fill="#fff"/>
        </g>
        <g id="그룹_184" data-name="그룹 184" transform="translate(444.844 3773.603)">
          <path id="패스_256" data-name="패스 256" d="M447.092,3794.142a2.059,2.059,0,0,0,.364.031,1.306,1.306,0,0,1,.668.121l.182.183c.041.041.1.1.183.181a.63.63,0,0,1,.152.213.577.577,0,0,0,.152.212,3.956,3.956,0,0,1,.334.759,2.514,2.514,0,0,1,.03,1.186,3.8,3.8,0,0,1-2.005,1.4.371.371,0,0,1-.273.122,1.052,1.052,0,0,1-.456-.182c-.08,0-.16-.081-.242-.243a.591.591,0,0,0-.274-.3.8.8,0,0,1-.274-.182,1.674,1.674,0,0,0-.364-1.214c-.282-.2-.425-.345-.425-.427a2.92,2.92,0,0,1,.182-.79,8.063,8.063,0,0,1,.425-1.031,4.171,4.171,0,0,1,.79-.122,2.9,2.9,0,0,1,.547.061A1.993,1.993,0,0,1,447.092,3794.142Z" transform="translate(-444.844 -3794.051)" fill="#fff"/>
        </g>
        <g id="그룹_185" data-name="그룹 185" transform="translate(469.042 3655.569)">
          <path id="패스_257" data-name="패스 257" d="M475.471,3655.711a2.106,2.106,0,0,0,.364.031,1.3,1.3,0,0,1,.668.121l.182.182.184.182a.625.625,0,0,1,.152.213.573.573,0,0,0,.152.212,3.9,3.9,0,0,1,.333.759,2.5,2.5,0,0,1,.031,1.186,3.8,3.8,0,0,1-2.005,1.4.372.372,0,0,1-.274.122,1.044,1.044,0,0,1-.455-.183c-.08,0-.161-.08-.243-.243a.586.586,0,0,0-.273-.3.807.807,0,0,1-.274-.182,1.674,1.674,0,0,0-.364-1.214c-.282-.2-.425-.345-.425-.427a2.921,2.921,0,0,1,.182-.79,7.959,7.959,0,0,1,.425-1.032,4.159,4.159,0,0,1,.79-.122,2.9,2.9,0,0,1,.547.06A2,2,0,0,1,475.471,3655.711Z" transform="translate(-473.223 -3655.62)" fill="#ebc5c5"/>
        </g>
        <g id="그룹_186" data-name="그룹 186" transform="translate(480.025 3774.484)">
          <path id="패스_258" data-name="패스 258" d="M488.779,3795.994a1.04,1.04,0,0,1,.03-.243,1.021,1.021,0,0,0,.031-.243.869.869,0,0,1,.273-.273.536.536,0,0,1,.213-.091.685.685,0,0,1,.3-.061,2.571,2.571,0,0,1,1.4.425,1.663,1.663,0,0,1,.729,1.4c.041.081.082.163.121.243a.537.537,0,0,1,.061.243,1.563,1.563,0,0,1,.09.212.481.481,0,0,1,.031.152,3.7,3.7,0,0,1-.031.486,3.834,3.834,0,0,1-.09.486,2.769,2.769,0,0,1-.061.546,3.214,3.214,0,0,0-.061.607q0,.789-.972.972a8.684,8.684,0,0,1-1.336.182,2.663,2.663,0,0,1-.7-.091,2.448,2.448,0,0,1-.7-.334c-.244-.121-.5-.263-.761-.425l-.881-.546a.992.992,0,0,0-.061-.3c-.039-.121-.08-.243-.121-.364l-.122-.243a.55.55,0,0,1-.061-.243,2.389,2.389,0,0,1,.516-1.548A3.641,3.641,0,0,1,488.779,3795.994Z" transform="translate(-486.105 -3795.084)" fill="#d2375b"/>
        </g>
        <g id="그룹_187" data-name="그룹 187" transform="translate(486.326 3749.949)">
          <path id="패스_259" data-name="패스 259" d="M499.815,3769.336a2.822,2.822,0,0,1-1.975,2.723h-1.185a3.071,3.071,0,0,1-3.16-2.118q.394-3.632,1.975-3.632h1.185Q499.815,3768.22,499.815,3769.336Z" transform="translate(-493.495 -3766.309)" fill="#6fb0b1"/>
        </g>
        <g id="그룹_188" data-name="그룹 188" transform="translate(458.711 3814.926)">
          <path id="패스_260" data-name="패스 260" d="M467.427,3845.541a2.822,2.822,0,0,1-1.975,2.724h-1.185a3.071,3.071,0,0,1-3.16-2.118q.4-3.632,1.976-3.633h1.184Q467.427,3844.426,467.427,3845.541Z" transform="translate(-461.107 -3842.514)" fill="#6fb0b1"/>
        </g>
        <g id="그룹_190" data-name="그룹 190" transform="translate(504.412 3759.196)">
          <g id="그룹_189" data-name="그룹 189">
            <path id="패스_261" data-name="패스 261" d="M520.012,3779.695a2.368,2.368,0,0,1-1.658,2.287h-.995a2.578,2.578,0,0,1-2.653-1.778q.331-3.05,1.658-3.05h.995Q520.012,3778.759,520.012,3779.695Z" transform="translate(-514.706 -3777.154)" fill="#fdfb86"/>
          </g>
        </g>
        <g id="그룹_192" data-name="그룹 192" transform="translate(478.367 3803.209)">
          <g id="그룹_191" data-name="그룹 191">
            <path id="패스_262" data-name="패스 262" d="M489.466,3831.314a2.37,2.37,0,0,1-1.658,2.287h-.994a2.58,2.58,0,0,1-2.653-1.779q.331-3.049,1.658-3.049h1Q489.466,3830.378,489.466,3831.314Z" transform="translate(-484.16 -3828.774)" fill="#fdfb86"/>
          </g>
        </g>
        <g id="그룹_193" data-name="그룹 193" transform="translate(493.015 3730.313)">
          <path id="패스_263" data-name="패스 263" d="M508.373,3746.077q0,1.748-2.2,2.517h-1.319a3.465,3.465,0,0,1-3.517-1.958q.44-3.356,2.2-3.356h1.318Q508.375,3745.047,508.373,3746.077Z" transform="translate(-501.339 -3743.281)" fill="#e48bdf"/>
        </g>
      </g>
      <g id="r" transform="translate(12)">
        <g id="그룹_194" data-name="그룹 194" transform="translate(741.746 3756.199)">
          <path id="패스_264" data-name="패스 264" d="M795.249,3773.729a2.185,2.185,0,0,0,.356.029,1.269,1.269,0,0,1,.652.118l.178.178.178.178a.584.584,0,0,1,.148.207.58.58,0,0,0,.148.208,3.675,3.675,0,0,1,.327.742,2.452,2.452,0,0,1,.03,1.158,3.718,3.718,0,0,1-1.96,1.365.365.365,0,0,1-.267.119,1.01,1.01,0,0,1-.445-.178c-.078,0-.158-.079-.237-.238a.571.571,0,0,0-.268-.3.8.8,0,0,1-.267-.178,1.634,1.634,0,0,0-.357-1.187c-.276-.2-.415-.336-.415-.415a2.848,2.848,0,0,1,.178-.772,7.909,7.909,0,0,1,.415-1.009,4.048,4.048,0,0,1,.773-.119,2.712,2.712,0,0,1,.534.06A1.791,1.791,0,0,1,795.249,3773.729Z" transform="translate(-793.053 -3773.64)" fill="#fff"/>
        </g>
        <g id="그룹_195" data-name="그룹 195" transform="translate(726.584 3731.292)">
          <path id="패스_265" data-name="패스 265" d="M777.468,3744.517a2.072,2.072,0,0,0,.356.029,1.268,1.268,0,0,1,.653.119l.178.178.178.178a.56.56,0,0,1,.147.207.6.6,0,0,0,.148.208,3.719,3.719,0,0,1,.327.742,2.452,2.452,0,0,1,.03,1.158,3.722,3.722,0,0,1-1.959,1.365.367.367,0,0,1-.267.118,1.013,1.013,0,0,1-.445-.177c-.079,0-.158-.079-.238-.239a.568.568,0,0,0-.267-.3.8.8,0,0,1-.267-.178,1.635,1.635,0,0,0-.356-1.187c-.276-.2-.416-.336-.416-.416a2.813,2.813,0,0,1,.179-.772,7.891,7.891,0,0,1,.414-1.009,4.134,4.134,0,0,1,.773-.118,2.736,2.736,0,0,1,.534.059A1.873,1.873,0,0,1,777.468,3744.517Z" transform="translate(-775.271 -3744.428)" fill="#c5c5f6"/>
        </g>
        <g id="그룹_196" data-name="그룹 196" transform="translate(739.505 3670.599)">
          <path id="패스_266" data-name="패스 266" d="M792.685,3673.339a2.192,2.192,0,0,0,.366.03,1.31,1.31,0,0,1,.672.123c.082.082.142.143.183.183l.182.183a.59.59,0,0,1,.153.214.594.594,0,0,0,.153.213,3.86,3.86,0,0,1,.336.763,2.519,2.519,0,0,1,.031,1.19,3.825,3.825,0,0,1-2.015,1.4.376.376,0,0,1-.275.122,1.038,1.038,0,0,1-.458-.183c-.081,0-.162-.081-.244-.245a.585.585,0,0,0-.275-.3.825.825,0,0,1-.274-.183,1.678,1.678,0,0,0-.367-1.22c-.284-.2-.427-.346-.427-.428a2.9,2.9,0,0,1,.184-.794,8.218,8.218,0,0,1,.426-1.038,4.211,4.211,0,0,1,.795-.122,2.874,2.874,0,0,1,.549.061A1.908,1.908,0,0,1,792.685,3673.339Z" transform="translate(-790.425 -3673.247)" fill="#fff"/>
        </g>
        <g id="그룹_197" data-name="그룹 197" transform="translate(675.501 3655.275)">
          <path id="패스_267" data-name="패스 267" d="M717.62,3655.367a2.211,2.211,0,0,0,.366.03,1.3,1.3,0,0,1,.672.123c.082.082.142.143.182.182l.183.183a.6.6,0,0,1,.153.214.6.6,0,0,0,.152.213,3.824,3.824,0,0,1,.337.763,2.519,2.519,0,0,1,.031,1.19,3.825,3.825,0,0,1-2.015,1.4.378.378,0,0,1-.275.122,1.041,1.041,0,0,1-.458-.183c-.081,0-.162-.081-.245-.245a.588.588,0,0,0-.275-.3.829.829,0,0,1-.275-.184,1.679,1.679,0,0,0-.367-1.22c-.284-.2-.427-.345-.427-.428a2.9,2.9,0,0,1,.184-.794,7.972,7.972,0,0,1,.426-1.038,4.216,4.216,0,0,1,.794-.122,2.886,2.886,0,0,1,.549.061A1.921,1.921,0,0,1,717.62,3655.367Z" transform="translate(-715.36 -3655.275)" fill="#c5c5f6"/>
        </g>
        <g id="그룹_198" data-name="그룹 198" transform="translate(725.2 3774.193)">
          <path id="패스_268" data-name="패스 268" d="M775.907,3794.834a2.1,2.1,0,0,0,.366.03,1.3,1.3,0,0,1,.672.123c.082.082.142.143.183.183l.182.183a.6.6,0,0,1,.153.214.607.607,0,0,0,.153.214,3.787,3.787,0,0,1,.336.762,2.511,2.511,0,0,1,.031,1.191,3.822,3.822,0,0,1-2.015,1.4.376.376,0,0,1-.275.122,1.036,1.036,0,0,1-.458-.183c-.081,0-.162-.081-.244-.244a.588.588,0,0,0-.275-.305.8.8,0,0,1-.274-.182,1.686,1.686,0,0,0-.367-1.221c-.285-.2-.428-.345-.428-.427a2.906,2.906,0,0,1,.184-.794,8.207,8.207,0,0,1,.426-1.038,4.193,4.193,0,0,1,.795-.121,2.8,2.8,0,0,1,.549.062A1.891,1.891,0,0,1,775.907,3794.834Z" transform="translate(-773.648 -3794.743)" fill="#c5c5f6"/>
        </g>
        <g id="그룹_199" data-name="그룹 199" transform="translate(756.664 3771.1)">
          <path id="패스_269" data-name="패스 269" d="M812.808,3791.208a2.176,2.176,0,0,0,.366.03,1.3,1.3,0,0,1,.672.123c.082.082.142.143.183.182l.182.184a.591.591,0,0,1,.153.214.6.6,0,0,0,.153.213,3.764,3.764,0,0,1,.336.763,2.5,2.5,0,0,1,.031,1.19,3.821,3.821,0,0,1-2.015,1.4.376.376,0,0,1-.275.122,1.032,1.032,0,0,1-.458-.183c-.081,0-.162-.081-.244-.244a.583.583,0,0,0-.275-.3.823.823,0,0,1-.274-.183,1.684,1.684,0,0,0-.367-1.22c-.285-.2-.428-.345-.428-.428a2.894,2.894,0,0,1,.184-.794,8.189,8.189,0,0,1,.426-1.038,4.247,4.247,0,0,1,.795-.122,2.784,2.784,0,0,1,.549.062A1.9,1.9,0,0,1,812.808,3791.208Z" transform="translate(-810.549 -3791.115)" fill="#c5c5f6"/>
        </g>
        <g id="그룹_200" data-name="그룹 200" transform="translate(755.383 3658.888)">
          <path id="패스_270" data-name="패스 270" d="M811.3,3659.6a2.126,2.126,0,0,0,.367.03,1.3,1.3,0,0,1,.671.123l.183.183.183.183a.58.58,0,0,1,.152.213.621.621,0,0,0,.153.214,3.8,3.8,0,0,1,.336.762,2.5,2.5,0,0,1,.031,1.191,3.819,3.819,0,0,1-2.015,1.4.376.376,0,0,1-.274.122,1.032,1.032,0,0,1-.458-.184c-.081,0-.163-.081-.245-.244a.589.589,0,0,0-.275-.305.8.8,0,0,1-.275-.182,1.686,1.686,0,0,0-.367-1.221c-.284-.2-.427-.345-.427-.427a2.932,2.932,0,0,1,.183-.794,8.085,8.085,0,0,1,.427-1.038,4.217,4.217,0,0,1,.794-.121,2.816,2.816,0,0,1,.549.061A1.887,1.887,0,0,1,811.3,3659.6Z" transform="translate(-809.046 -3659.513)" fill="#c5c5f6"/>
        </g>
        <g id="그룹_201" data-name="그룹 201" transform="translate(704.796 3658.422)">
          <path id="패스_271" data-name="패스 271" d="M754.545,3660.453a1.165,1.165,0,0,1,.246-.116,1.127,1.127,0,0,0,.248-.117,1,1,0,0,1,.422.093.6.6,0,0,1,.213.146.757.757,0,0,1,.24.25,2.872,2.872,0,0,1,.437,1.574,1.86,1.86,0,0,1-.88,1.527c-.053.087-.1.175-.157.26a.607.607,0,0,1-.193.2,1.854,1.854,0,0,1-.147.213.53.53,0,0,1-.124.12,4.065,4.065,0,0,1-.478.262,4.353,4.353,0,0,1-.512.207,3.122,3.122,0,0,1-.553.271,3.483,3.483,0,0,0-.61.307c-.5.315-1,.205-1.5-.334a9.79,9.79,0,0,1-.975-1.152,2.981,2.981,0,0,1-.333-.714,2.761,2.761,0,0,1-.1-.86c-.032-.3-.049-.626-.054-.972s-.009-.732-.014-1.16a1.074,1.074,0,0,0,.251-.24c.09-.11.18-.221.271-.333.052-.085.1-.173.156-.261a.618.618,0,0,1,.193-.2,2.665,2.665,0,0,1,1.771-.442A4.074,4.074,0,0,1,754.545,3660.453Z" transform="translate(-749.718 -3658.967)" fill="#d2375b"/>
        </g>
        <g id="그룹_202" data-name="그룹 202" transform="translate(711.239 3746.817)">
          <path id="패스_272" data-name="패스 272" d="M762.1,3764.122a1.179,1.179,0,0,1,.247-.117,1.078,1.078,0,0,0,.247-.117.986.986,0,0,1,.422.093.581.581,0,0,1,.213.146.755.755,0,0,1,.24.25,2.877,2.877,0,0,1,.437,1.573,1.859,1.859,0,0,1-.881,1.527c-.053.087-.1.175-.157.261a.6.6,0,0,1-.193.2,1.957,1.957,0,0,1-.146.213.541.541,0,0,1-.125.12,4.253,4.253,0,0,1-.478.263,4.422,4.422,0,0,1-.512.206,3.1,3.1,0,0,1-.553.271,3.506,3.506,0,0,0-.61.307q-.744.473-1.5-.334a9.793,9.793,0,0,1-.974-1.152,3,3,0,0,1-.334-.714,2.739,2.739,0,0,1-.1-.861c-.032-.3-.049-.625-.055-.971s-.009-.732-.013-1.16a1.12,1.12,0,0,0,.25-.24c.09-.11.181-.221.271-.333.053-.085.1-.173.156-.261a.63.63,0,0,1,.194-.2,2.673,2.673,0,0,1,1.772-.443A4.072,4.072,0,0,1,762.1,3764.122Z" transform="translate(-757.274 -3762.635)" fill="#d2375b"/>
        </g>
        <g id="그룹_203" data-name="그룹 203" transform="translate(727.198 3732.601)">
          <path id="패스_273" data-name="패스 273" d="M778.239,3746.055a2.1,2.1,0,0,0,.364.031,1.3,1.3,0,0,1,.668.121l.182.182.183.182a.6.6,0,0,1,.152.213.589.589,0,0,0,.153.212,3.9,3.9,0,0,1,.333.759,2.524,2.524,0,0,1,.031,1.186,3.8,3.8,0,0,1-2.005,1.4.375.375,0,0,1-.274.122,1.054,1.054,0,0,1-.455-.182q-.12,0-.243-.243a.585.585,0,0,0-.273-.3.807.807,0,0,1-.274-.182,1.674,1.674,0,0,0-.364-1.214c-.283-.2-.425-.345-.425-.427a2.889,2.889,0,0,1,.182-.79,7.939,7.939,0,0,1,.425-1.032,4.168,4.168,0,0,1,.79-.122,2.888,2.888,0,0,1,.547.06A2.006,2.006,0,0,1,778.239,3746.055Z" transform="translate(-775.991 -3745.964)" fill="#6fb0b1"/>
        </g>
        <g id="그룹_204" data-name="그룹 204" transform="translate(715.248 3688.354)">
          <path id="패스_274" data-name="패스 274" d="M764.1,3694.795a.794.794,0,0,1,.024-.194.818.818,0,0,0,.024-.193.693.693,0,0,1,.217-.218.426.426,0,0,1,.169-.072.543.543,0,0,1,.241-.048,2.043,2.043,0,0,1,1.109.337,1.318,1.318,0,0,1,.579,1.111c.032.064.065.129.1.193a.422.422,0,0,1,.049.192,1.413,1.413,0,0,1,.073.169.378.378,0,0,1,.024.121,2.936,2.936,0,0,1-.024.385,3.215,3.215,0,0,1-.073.386,2.211,2.211,0,0,1-.049.434,2.521,2.521,0,0,0-.048.483q0,.627-.773.773a6.929,6.929,0,0,1-1.061.144,2.078,2.078,0,0,1-.555-.073,1.921,1.921,0,0,1-.555-.265c-.193-.1-.394-.209-.6-.337l-.7-.434a.781.781,0,0,0-.048-.241c-.031-.1-.065-.193-.1-.29l-.1-.193a.432.432,0,0,1-.048-.193,1.9,1.9,0,0,1,.41-1.23A2.887,2.887,0,0,1,764.1,3694.795Z" transform="translate(-761.976 -3694.071)" fill="#fff"/>
        </g>
        <g id="그룹_205" data-name="그룹 205" transform="translate(780.115 3769.755)">
          <path id="패스_275" data-name="패스 275" d="M840.177,3790.261a.835.835,0,0,1,.024-.193.782.782,0,0,0,.025-.193.69.69,0,0,1,.217-.217.416.416,0,0,1,.169-.073.55.55,0,0,1,.241-.048,2.044,2.044,0,0,1,1.11.338,1.321,1.321,0,0,1,.579,1.111l.1.192a.427.427,0,0,1,.048.194,1.127,1.127,0,0,1,.072.169.372.372,0,0,1,.025.12,3.216,3.216,0,0,1-.1.772,2.2,2.2,0,0,1-.048.434,2.5,2.5,0,0,0-.049.482c0,.417-.257.675-.772.772a6.958,6.958,0,0,1-1.062.145,2.132,2.132,0,0,1-.555-.073,1.935,1.935,0,0,1-.554-.265c-.194-.1-.395-.21-.6-.338l-.7-.435a.794.794,0,0,0-.049-.241c-.032-.1-.064-.193-.1-.289l-.1-.192a.437.437,0,0,1-.049-.194,1.9,1.9,0,0,1,.41-1.23A2.887,2.887,0,0,1,840.177,3790.261Z" transform="translate(-838.053 -3789.538)" fill="#fff"/>
        </g>
        <g id="그룹_206" data-name="그룹 206" transform="translate(756.489 3809.276)">
          <path id="패스_276" data-name="패스 276" d="M812.468,3836.612a.832.832,0,0,1,.024-.193.775.775,0,0,0,.024-.193.679.679,0,0,1,.217-.217.418.418,0,0,1,.169-.073.542.542,0,0,1,.241-.049,2.034,2.034,0,0,1,1.109.339,1.315,1.315,0,0,1,.579,1.11c.033.064.066.129.1.194a.425.425,0,0,1,.048.193,1.183,1.183,0,0,1,.072.169.365.365,0,0,1,.024.12,2.915,2.915,0,0,1-.024.386,3.059,3.059,0,0,1-.072.386,2.211,2.211,0,0,1-.048.434,2.512,2.512,0,0,0-.049.483c0,.417-.257.675-.772.772a6.989,6.989,0,0,1-1.062.145,2.087,2.087,0,0,1-.555-.072,1.965,1.965,0,0,1-.555-.265c-.193-.1-.394-.21-.6-.338l-.7-.435a.783.783,0,0,0-.048-.24c-.032-.1-.064-.193-.1-.29-.032-.064-.064-.128-.1-.193a.446.446,0,0,1-.048-.194,1.9,1.9,0,0,1,.41-1.23A2.893,2.893,0,0,1,812.468,3836.612Z" transform="translate(-810.344 -3835.888)" fill="#fff"/>
        </g>
        <g id="그룹_207" data-name="그룹 207" transform="translate(674.213 3682.285)">
          <path id="패스_277" data-name="패스 277" d="M719.166,3690.856a4.166,4.166,0,0,1-3.436.985l-.839-.483a1.707,1.707,0,0,1-.652-2.68q3-2.225,4.115-1.581l.839.483Q720,3690.123,719.166,3690.856Z" transform="translate(-713.85 -3686.952)" fill="#e48bdf"/>
        </g>
        <g id="그룹_208" data-name="그룹 208" transform="translate(768.739 3697.035)">
          <path id="패스_278" data-name="패스 278" d="M830.028,3708.155a4.168,4.168,0,0,1-3.437.985l-.839-.483a1.708,1.708,0,0,1-.652-2.681q3-2.225,4.116-1.581l.839.482Q830.863,3707.423,830.028,3708.155Z" transform="translate(-824.711 -3704.251)" fill="#e48bdf"/>
        </g>
        <g id="그룹_209" data-name="그룹 209" transform="translate(742.781 3794.244)">
          <path id="패스_279" data-name="패스 279" d="M799.583,3822.162a4.166,4.166,0,0,1-3.436.985l-.839-.482a1.708,1.708,0,0,1-.652-2.681q3-2.225,4.116-1.581l.839.483Q800.419,3821.429,799.583,3822.162Z" transform="translate(-794.267 -3818.258)" fill="#e48bdf"/>
        </g>
        <g id="그룹_210" data-name="그룹 210" transform="translate(774.912 3746.087)">
          <path id="패스_280" data-name="패스 280" d="M837.267,3765.683a4.165,4.165,0,0,1-3.436.985l-.839-.482a1.708,1.708,0,0,1-.652-2.68q3-2.225,4.116-1.582l.839.482Q838.1,3764.95,837.267,3765.683Z" transform="translate(-831.951 -3761.78)" fill="#e48bdf"/>
        </g>
        <g id="그룹_211" data-name="그룹 211" transform="translate(711.725 3709.974)">
          <path id="패스_281" data-name="패스 281" d="M763.15,3721.967a2.37,2.37,0,0,1-1.658,2.287H760.5a2.579,2.579,0,0,1-2.654-1.779q.331-3.049,1.658-3.049h1Q763.15,3721.03,763.15,3721.967Z" transform="translate(-757.844 -3719.426)" fill="#f6e6e4"/>
        </g>
        <g id="그룹_212" data-name="그룹 212" transform="translate(755.848 3713.125)">
          <path id="패스_282" data-name="패스 282" d="M814.9,3725.663a2.37,2.37,0,0,1-1.658,2.287h-1a2.579,2.579,0,0,1-2.653-1.779q.331-3.049,1.658-3.049h.995Q814.9,3724.725,814.9,3725.663Z" transform="translate(-809.592 -3723.122)" fill="#f6e6e4"/>
        </g>
        <g id="그룹_214" data-name="그룹 214" transform="translate(740.546 3818.354)">
          <g id="그룹_213" data-name="그룹 213">
            <path id="패스_283" data-name="패스 283" d="M796.952,3849.075a2.37,2.37,0,0,1-1.658,2.287H794.3a2.579,2.579,0,0,1-2.653-1.779q.331-3.049,1.658-3.049h.994Q796.952,3848.139,796.952,3849.075Z" transform="translate(-791.646 -3846.534)" fill="#fdfb86"/>
          </g>
        </g>
      </g>
      <g id="C" transform="translate(11.313)">
        <ellipse id="타원_6" data-name="타원 6" cx="73.952" cy="29.12" rx="73.952" ry="29.12" transform="translate(529.531 3782.521)" opacity="0.19" fill="url(#radial-gradient)"/>
        <g id="그룹_242" data-name="그룹 242" transform="translate(536.852 3657.161)">
          <g id="그룹_238" data-name="그룹 238" transform="translate(0 29.804)">
            <path id="패스_284" data-name="패스 284" d="M554.745,3768.065v49.343c0,16.349,29.349,29.6,65.553,29.6s65.553-13.254,65.553-29.6v-49.343Z" transform="translate(-553.045 -3703.583)" fill="#fff"/>
            <path id="패스_285" data-name="패스 285" d="M686.733,3764.121c0,16.615-29.826,30.086-66.619,30.086s-66.618-13.47-66.618-30.086,29.826-30.085,66.618-30.085S686.733,3747.506,686.733,3764.121Z" transform="translate(-552.861 -3698.57)" fill="#715c42"/>
            <rect id="사각형_14" data-name="사각형 14" width="11.114" height="54.522" transform="translate(62.979 0)" fill="#d15f60"/>
            <path id="패스_286" data-name="패스 286" d="M637.726,3756.547c0,2.686-2.487,4.863-5.557,4.863s-5.557-2.177-5.557-4.863,2.488-4.863,5.557-4.863S637.726,3753.862,637.726,3756.547Z" transform="translate(-563.634 -3701.17)" fill="#d15f60"/>
            <path id="패스_287" data-name="패스 287" d="M623.1,3753.1" transform="translate(-563.117 -3701.379)" fill="#725b47"/>
            <g id="그룹_217" data-name="그룹 217" transform="translate(62.979)">
              <g id="그룹_216" data-name="그룹 216" clip-path="url(#clip-path)">
                <g id="그룹_215" data-name="그룹 215" transform="translate(-3.847 -2.137)">
                  <path id="패스_288" data-name="패스 288" d="M622.1,3759.425s16.671-.427,17.1-9.832" transform="translate(-622.101 -3698.725)" fill="none" stroke="#db7e83" stroke-miterlimit="10" stroke-width="4"/>
                  <path id="패스_289" data-name="패스 289" d="M622.1,3750.9s16.671-.428,17.1-9.832" transform="translate(-622.101 -3697.47)" fill="none" stroke="#db7e83" stroke-miterlimit="10" stroke-width="4"/>
                  <path id="패스_290" data-name="패스 290" d="M622.1,3742.38s16.671-.428,17.1-9.832" transform="translate(-622.101 -3696.213)" fill="none" stroke="#db7e83" stroke-miterlimit="10" stroke-width="4"/>
                  <path id="패스_291" data-name="패스 291" d="M622.1,3733.857s16.671-.427,17.1-9.831" transform="translate(-622.101 -3694.958)" fill="none" stroke="#db7e83" stroke-miterlimit="10" stroke-width="4"/>
                  <path id="패스_292" data-name="패스 292" d="M622.1,3725.333s16.671-.427,17.1-9.831" transform="translate(-622.101 -3693.702)" fill="none" stroke="#db7e83" stroke-miterlimit="10" stroke-width="4"/>
                  <path id="패스_293" data-name="패스 293" d="M622.1,3716.812s16.671-.428,17.1-9.832" transform="translate(-622.101 -3692.447)" fill="none" stroke="#db7e83" stroke-miterlimit="10" stroke-width="4"/>
                  <path id="패스_294" data-name="패스 294" d="M622.1,3708.289s16.671-.428,17.1-9.832" transform="translate(-622.101 -3691.19)" fill="none" stroke="#db7e83" stroke-miterlimit="10" stroke-width="4"/>
                  <path id="패스_295" data-name="패스 295" d="M622.1,3699.766s16.671-.427,17.1-9.831" transform="translate(-622.101 -3689.935)" fill="none" stroke="#db7e83" stroke-miterlimit="10" stroke-width="4"/>
                </g>
                <path id="패스_296" data-name="패스 296" d="M635.637,3695.34v57.85l4.275-3.7.57-56.71Z" transform="translate(-627.943 -3692.49)" fill="#c83f47" opacity="0.5"/>
              </g>
            </g>
            <path id="패스_298" data-name="패스 298" d="M644.326,3766.639" transform="translate(-566.244 -3703.374)" fill="none"/>
            <g id="그룹_220" data-name="그룹 220" transform="translate(7.927 43.978)">
              <path id="패스_299" data-name="패스 299" d="M576.95,3751.052a7.034,7.034,0,1,1-7.034-7.033A7.034,7.034,0,0,1,576.95,3751.052Z" transform="translate(-562.171 -3744.019)" fill="#d15356"/>
              <path id="패스_300" data-name="패스 300" d="M566.088,3754.792s10.876-.52,9.053-7.814l-.522-1.3a6.893,6.893,0,0,1,2.344,7.555C575.4,3757.919,566.935,3756.354,566.088,3754.792Z" transform="translate(-562.643 -3744.262)" fill="#c83f47"/>
              <path id="패스_301" data-name="패스 301" d="M562.171,3756.352s-.584-2.91.781-2.735c0,0,.2,1.172,2.54,2.345s11.137,1.367,11.333-2.345c0,0,.39-.2.39,2.735s-2.54,5.275-7.034,5.47C567.767,3761.927,561.194,3760.26,562.171,3756.352Z" transform="translate(-562.047 -3745.432)" fill="#fff"/>
              <path id="패스_302" data-name="패스 302" d="M568.867,3746.376a1.236,1.236,0,1,1-1.236-1.237A1.235,1.235,0,0,1,568.867,3746.376Z" transform="translate(-562.688 -3744.184)" fill="#fff" opacity="0.5"/>
              <path id="패스_303" data-name="패스 303" d="M572.1,3745.567a.618.618,0,1,1-.617-.618A.618.618,0,0,1,572.1,3745.567Z" transform="translate(-563.346 -3744.156)" fill="#fff" opacity="0.5"/>
              <g id="그룹_219" data-name="그룹 219" transform="translate(0 8.177)">
                <g id="그룹_218" data-name="그룹 218" clip-path="url(#clip-path-2)">
                  <path id="패스_304" data-name="패스 304" d="M562.346,3759.323s3.908.131,5.34-2.344" transform="translate(-562.091 -3754.105)" fill="none" stroke="#dbdbdb" stroke-linecap="round" stroke-linejoin="round" stroke-width="3"/>
                  <path id="패스_305" data-name="패스 305" d="M560.3,3755.8s3.8.913,5.7-1.223" transform="translate(-561.79 -3753.752)" fill="none" stroke="#dbdbdb" stroke-linecap="round" stroke-linejoin="round" stroke-width="3"/>
                  <path id="패스_306" data-name="패스 306" d="M565.95,3761.855a7.536,7.536,0,0,0,6.7-4.876" transform="translate(-562.622 -3754.105)" fill="none" stroke="#dbdbdb" stroke-linecap="round" stroke-linejoin="round" stroke-width="3"/>
                  <path id="패스_307" data-name="패스 307" d="M572.218,3762.65a9.488,9.488,0,0,0,5.216-7.514" transform="translate(-563.546 -3753.834)" fill="none" stroke="#dbdbdb" stroke-linecap="round" stroke-linejoin="round" stroke-width="3"/>
                </g>
              </g>
            </g>
            <g id="그룹_223" data-name="그룹 223" transform="translate(31.923 62.861)">
              <path id="패스_309" data-name="패스 309" d="M606.493,3773.858a7.694,7.694,0,1,1-7.694-7.693A7.694,7.694,0,0,1,606.493,3773.858Z" transform="translate(-590.326 -3766.165)" fill="#d15356"/>
              <path id="패스_310" data-name="패스 310" d="M594.611,3777.949s11.9-.569,9.9-8.548l-.57-1.425a7.542,7.542,0,0,1,2.565,8.264C604.8,3781.37,595.538,3779.659,594.611,3777.949Z" transform="translate(-590.842 -3766.432)" fill="#c83f47"/>
              <path id="패스_311" data-name="패스 311" d="M590.326,3779.656s-.639-3.183.855-2.992c0,0,.213,1.281,2.778,2.564s12.183,1.5,12.4-2.564c0,0,.427-.215.427,2.992s-2.778,5.771-7.694,5.984C596.449,3785.755,589.258,3783.931,590.326,3779.656Z" transform="translate(-590.191 -3767.711)" fill="#fff"/>
              <path id="패스_312" data-name="패스 312" d="M597.651,3768.743a1.353,1.353,0,1,1-1.353-1.352A1.353,1.353,0,0,1,597.651,3768.743Z" transform="translate(-590.891 -3766.345)" fill="#fff" opacity="0.5"/>
              <path id="패스_313" data-name="패스 313" d="M601.187,3767.858a.677.677,0,1,1-.676-.676A.676.676,0,0,1,601.187,3767.858Z" transform="translate(-591.612 -3766.315)" fill="#fff" opacity="0.5"/>
              <g id="그룹_222" data-name="그룹 222" transform="translate(0 8.945)">
                <g id="그룹_221" data-name="그룹 221" clip-path="url(#clip-path-3)">
                  <path id="패스_314" data-name="패스 314" d="M590.517,3782.906s4.275.143,5.842-2.565" transform="translate(-590.239 -3777.199)" fill="none" stroke="#dbdbdb" stroke-linecap="round" stroke-linejoin="round" stroke-width="3"/>
                  <path id="패스_315" data-name="패스 315" d="M588.28,3779.057s4.159,1,6.238-1.338" transform="translate(-589.909 -3776.813)" fill="none" stroke="#dbdbdb" stroke-linecap="round" stroke-linejoin="round" stroke-width="3"/>
                  <path id="패스_316" data-name="패스 316" d="M594.46,3785.676a8.244,8.244,0,0,0,7.325-5.334" transform="translate(-590.82 -3777.199)" fill="none" stroke="#dbdbdb" stroke-linecap="round" stroke-linejoin="round" stroke-width="3"/>
                  <path id="패스_317" data-name="패스 317" d="M601.317,3786.546a10.381,10.381,0,0,0,5.707-8.221" transform="translate(-591.83 -3776.902)" fill="none" stroke="#dbdbdb" stroke-linecap="round" stroke-linejoin="round" stroke-width="3"/>
                </g>
              </g>
            </g>
            <g id="그룹_226" data-name="그룹 226" transform="translate(78.089 64.856)">
              <path id="패스_319" data-name="패스 319" d="M660.637,3776.2a7.694,7.694,0,1,1-7.693-7.694A7.694,7.694,0,0,1,660.637,3776.2Z" transform="translate(-644.469 -3768.505)" fill="#d15356"/>
              <path id="패스_320" data-name="패스 320" d="M648.756,3780.289s11.9-.569,9.9-8.548l-.57-1.425a7.543,7.543,0,0,1,2.565,8.265C658.943,3783.71,649.682,3782,648.756,3780.289Z" transform="translate(-644.986 -3768.771)" fill="#c83f47"/>
              <path id="패스_321" data-name="패스 321" d="M644.47,3782s-.639-3.183.855-2.992c0,0,.213,1.282,2.779,2.565s12.183,1.5,12.4-2.565c0,0,.427-.214.427,2.992s-2.779,5.772-7.694,5.985C650.593,3788.095,643.4,3786.271,644.47,3782Z" transform="translate(-644.335 -3770.05)" fill="#fff"/>
              <path id="패스_322" data-name="패스 322" d="M651.795,3771.083a1.352,1.352,0,1,1-1.352-1.352A1.352,1.352,0,0,1,651.795,3771.083Z" transform="translate(-645.035 -3768.685)" fill="#fff" opacity="0.5"/>
              <path id="패스_323" data-name="패스 323" d="M655.332,3770.2a.677.677,0,1,1-.676-.676A.676.676,0,0,1,655.332,3770.2Z" transform="translate(-645.756 -3768.655)" fill="#fff" opacity="0.5"/>
              <g id="그룹_225" data-name="그룹 225" transform="translate(0 8.945)">
                <g id="그룹_224" data-name="그룹 224" clip-path="url(#clip-path-4)">
                  <path id="패스_324" data-name="패스 324" d="M644.661,3785.245s4.276.143,5.842-2.564" transform="translate(-644.383 -3779.538)" fill="none" stroke="#dbdbdb" stroke-linecap="round" stroke-linejoin="round" stroke-width="3"/>
                  <path id="패스_325" data-name="패스 325" d="M642.424,3781.4s4.159,1,6.238-1.337" transform="translate(-644.053 -3779.152)" fill="none" stroke="#dbdbdb" stroke-linecap="round" stroke-linejoin="round" stroke-width="3"/>
                  <path id="패스_326" data-name="패스 326" d="M648.6,3788.016a8.244,8.244,0,0,0,7.325-5.334" transform="translate(-644.964 -3779.538)" fill="none" stroke="#dbdbdb" stroke-linecap="round" stroke-linejoin="round" stroke-width="3"/>
                  <path id="패스_327" data-name="패스 327" d="M655.461,3788.885a10.375,10.375,0,0,0,5.706-8.219" transform="translate(-645.974 -3779.241)" fill="none" stroke="#dbdbdb" stroke-linecap="round" stroke-linejoin="round" stroke-width="3"/>
                </g>
              </g>
            </g>
            <g id="그룹_229" data-name="그룹 229" transform="translate(111.859 50.18)">
              <path id="패스_329" data-name="패스 329" d="M698.563,3758.192a6.9,6.9,0,1,1-6.9-6.9A6.9,6.9,0,0,1,698.563,3758.192Z" transform="translate(-684.061 -3751.292)" fill="#d15356"/>
              <path id="패스_330" data-name="패스 330" d="M687.9,3761.863s10.673-.511,8.883-7.668l-.511-1.278a6.766,6.766,0,0,1,2.3,7.413C697.044,3764.931,688.736,3763.4,687.9,3761.863Z" transform="translate(-684.525 -3751.531)" fill="#c83f47"/>
              <path id="패스_331" data-name="패스 331" d="M684.063,3763.392s-.574-2.855.766-2.684c0,0,.193,1.15,2.492,2.3s10.928,1.341,11.119-2.3c0,0,.384-.191.384,2.684s-2.492,5.177-6.9,5.368C689.554,3768.863,683.1,3767.227,684.063,3763.392Z" transform="translate(-683.941 -3752.678)" fill="#fff"/>
              <path id="패스_332" data-name="패스 332" d="M690.632,3753.6a1.213,1.213,0,1,1-1.213-1.212A1.213,1.213,0,0,1,690.632,3753.6Z" transform="translate(-684.569 -3751.454)" fill="#fff" opacity="0.5"/>
              <path id="패스_333" data-name="패스 333" d="M693.8,3752.81a.607.607,0,1,1-.607-.606A.607.607,0,0,1,693.8,3752.81Z" transform="translate(-685.215 -3751.426)" fill="#fff" opacity="0.5"/>
              <g id="그룹_228" data-name="그룹 228" transform="translate(0 8.023)">
                <g id="그룹_227" data-name="그룹 227" clip-path="url(#clip-path-5)">
                  <path id="패스_334" data-name="패스 334" d="M684.233,3766.308s3.835.128,5.24-2.3" transform="translate(-683.984 -3761.188)" fill="none" stroke="#dbdbdb" stroke-linecap="round" stroke-linejoin="round" stroke-width="3"/>
                  <path id="패스_335" data-name="패스 335" d="M682.227,3762.854s3.73.9,5.6-1.2" transform="translate(-683.688 -3760.841)" fill="none" stroke="#dbdbdb" stroke-linecap="round" stroke-linejoin="round" stroke-width="3"/>
                  <path id="패스_336" data-name="패스 336" d="M687.77,3768.793a7.4,7.4,0,0,0,6.57-4.785" transform="translate(-684.505 -3761.188)" fill="none" stroke="#dbdbdb" stroke-linecap="round" stroke-linejoin="round" stroke-width="3"/>
                  <path id="패스_337" data-name="패스 337" d="M693.92,3769.573a9.309,9.309,0,0,0,5.119-7.373" transform="translate(-685.411 -3760.922)" fill="none" stroke="#dbdbdb" stroke-linecap="round" stroke-linejoin="round" stroke-width="3"/>
                </g>
              </g>
            </g>
            <g id="그룹_232" data-name="그룹 232" transform="translate(42.63 30.209)">
              <path id="패스_339" data-name="패스 339" d="M616.718,3734.463a6.594,6.594,0,1,1-6.594-6.594A6.593,6.593,0,0,1,616.718,3734.463Z" transform="translate(-602.863 -3727.87)" fill="#d15356"/>
              <path id="패스_340" data-name="패스 340" d="M606.535,3737.969s10.2-.488,8.487-7.325l-.489-1.222a6.465,6.465,0,0,1,2.2,7.083C615.266,3740.9,607.33,3739.434,606.535,3737.969Z" transform="translate(-603.306 -3728.098)" fill="#c83f47"/>
              <path id="패스_341" data-name="패스 341" d="M602.864,3739.431s-.547-2.728.732-2.564c0,0,.183,1.1,2.381,2.2s10.442,1.283,10.624-2.2c0,0,.367-.183.367,2.564s-2.381,4.946-6.594,5.129C608.11,3744.659,601.948,3743.1,602.864,3739.431Z" transform="translate(-602.747 -3729.195)" fill="#fff"/>
              <path id="패스_342" data-name="패스 342" d="M609.14,3730.08a1.159,1.159,0,1,1-1.159-1.159A1.158,1.158,0,0,1,609.14,3730.08Z" transform="translate(-603.348 -3728.025)" fill="#fff" opacity="0.5"/>
              <path id="패스_343" data-name="패스 343" d="M612.172,3729.321a.58.58,0,1,1-.58-.58A.58.58,0,0,1,612.172,3729.321Z" transform="translate(-603.965 -3727.999)" fill="#fff" opacity="0.5"/>
              <g id="그룹_231" data-name="그룹 231" transform="translate(0 7.666)">
                <g id="그룹_230" data-name="그룹 230" clip-path="url(#clip-path-6)">
                  <path id="패스_344" data-name="패스 344" d="M603.027,3742.217s3.665.122,5.007-2.2" transform="translate(-602.789 -3737.326)" fill="none" stroke="#dbdbdb" stroke-linecap="round" stroke-linejoin="round" stroke-width="3"/>
                  <path id="패스_345" data-name="패스 345" d="M601.109,3738.917s3.565.857,5.347-1.146" transform="translate(-602.506 -3736.994)" fill="none" stroke="#dbdbdb" stroke-linecap="round" stroke-linejoin="round" stroke-width="3"/>
                  <path id="패스_346" data-name="패스 346" d="M606.406,3744.591a7.065,7.065,0,0,0,6.277-4.572" transform="translate(-603.286 -3737.326)" fill="none" stroke="#dbdbdb" stroke-linecap="round" stroke-linejoin="round" stroke-width="3"/>
                  <path id="패스_347" data-name="패스 347" d="M612.283,3745.336a8.9,8.9,0,0,0,4.89-7.044" transform="translate(-604.152 -3737.071)" fill="none" stroke="#dbdbdb" stroke-linecap="round" stroke-linejoin="round" stroke-width="3"/>
                </g>
              </g>
            </g>
            <g id="그룹_235" data-name="그룹 235" transform="translate(83.096 31.633)">
              <path id="패스_349" data-name="패스 349" d="M664.178,3736.133a6.594,6.594,0,1,1-6.594-6.594A6.594,6.594,0,0,1,664.178,3736.133Z" transform="translate(-650.322 -3729.54)" fill="#d15356"/>
              <path id="패스_350" data-name="패스 350" d="M653.995,3739.64s10.2-.488,8.487-7.326l-.489-1.221a6.463,6.463,0,0,1,2.2,7.083C662.726,3742.571,654.79,3741.1,653.995,3739.64Z" transform="translate(-650.765 -3729.768)" fill="#c83f47"/>
              <path id="패스_351" data-name="패스 351" d="M650.323,3741.1s-.547-2.728.733-2.564c0,0,.183,1.1,2.381,2.2s10.442,1.282,10.624-2.2c0,0,.367-.184.367,2.564s-2.381,4.945-6.594,5.129C655.57,3746.33,649.407,3744.765,650.323,3741.1Z" transform="translate(-650.207 -3730.865)" fill="#fff"/>
              <path id="패스_352" data-name="패스 352" d="M656.6,3731.75a1.159,1.159,0,1,1-1.158-1.159A1.159,1.159,0,0,1,656.6,3731.75Z" transform="translate(-650.807 -3729.694)" fill="#fff" opacity="0.5"/>
              <path id="패스_353" data-name="패스 353" d="M659.632,3730.992a.58.58,0,1,1-.579-.58A.58.58,0,0,1,659.632,3730.992Z" transform="translate(-651.424 -3729.668)" fill="#fff" opacity="0.5"/>
              <g id="그룹_234" data-name="그룹 234" transform="translate(0 7.667)">
                <g id="그룹_233" data-name="그룹 233" clip-path="url(#clip-path-7)">
                  <path id="패스_354" data-name="패스 354" d="M650.487,3743.888s3.665.122,5.007-2.2" transform="translate(-650.248 -3738.997)" fill="none" stroke="#dbdbdb" stroke-linecap="round" stroke-linejoin="round" stroke-width="3"/>
                  <path id="패스_355" data-name="패스 355" d="M648.569,3740.589s3.565.857,5.347-1.146" transform="translate(-649.965 -3738.666)" fill="none" stroke="#dbdbdb" stroke-linecap="round" stroke-linejoin="round" stroke-width="3"/>
                  <path id="패스_356" data-name="패스 356" d="M653.866,3746.262a7.067,7.067,0,0,0,6.278-4.572" transform="translate(-650.746 -3738.997)" fill="none" stroke="#dbdbdb" stroke-linecap="round" stroke-linejoin="round" stroke-width="3"/>
                  <path id="패스_357" data-name="패스 357" d="M659.743,3747.007a8.894,8.894,0,0,0,4.89-7.044" transform="translate(-651.612 -3738.742)" fill="none" stroke="#dbdbdb" stroke-linecap="round" stroke-linejoin="round" stroke-width="3"/>
                </g>
              </g>
            </g>
            <path id="패스_359" data-name="패스 359" d="M552.751,3781.895c0,2.565,0,9.69,1.985,11.685,5.108,5.13,3.689-5.7,5.108-7.125,3.122-3.99,3.973.855,4.256,3.42.568,6.554-1.7,7.267-.851,13.821.851,5.13,6.526,9.689,8.513,3.42.774-2.444-1.134-12.682,4.257-8.691,2.27,1.71.284,8.547,4.256,8.263,3.2-.228.877-7.473,5.7-5.356,2.275,1,2.646,4.223,2.9,6.354.306,2.568,2.352,12.988,6.724,13.536,9.081,1.141,10.153-12.659,11.392-14.555,2.5-3.831,6.8-1.965,7.982,1.37a6.6,6.6,0,0,0,6.166,4.208c5.958,0,2.342-5.049,8.231-5.271,4.276-.16,5.557,1.387,6.81,4.274,1.547,3.562,5.1,5.241,7.676,1.323s1.377-12.629,6.8-13.577c5.552-.971,5.691,4.3,10.784,6.27,5.355,2.067,7.59-13.525,11.635-13.4,2.879-.877,3.122,17.1,7.147,15.637,5.383-1.693,7.338-14.43,7.326-19.341-.016-6.544-1.135-12.266-1.135-18.809,0,0,3.26,7.124-15.467,17.241-19.631,10.6-44.411,14.962-75.343,8.977s-41.147-22.371-42-26.93Z" transform="translate(-552.751 -3703.669)" fill="#725b47"/>
            <path id="패스_360" data-name="패스 360" d="M597.034,3811.258c0,3.847,2.138,12.4,5.13,13.679" transform="translate(-559.276 -3709.948)" fill="none" stroke="#5f4938" stroke-miterlimit="10" stroke-width="1"/>
            <path id="패스_361" data-name="패스 361" d="M566.727,3802.569c.285,2.848-1.71,6.981,1.567,10.4" transform="translate(-554.76 -3708.667)" fill="none" stroke="#5f4938" stroke-miterlimit="10" stroke-width="0.75"/>
            <path id="패스_362" data-name="패스 362" d="M554.361,3784.52c.285,2.85-1.71,6.982,1.568,10.4" transform="translate(-552.937 -3706.008)" fill="none" stroke="#5f4938" stroke-miterlimit="10" stroke-width="0.75"/>
            <g id="그룹_237" data-name="그룹 237" transform="translate(0.635 35.466)">
              <g id="그룹_236" data-name="그룹 236" clip-path="url(#clip-path-8)">
                <path id="패스_363" data-name="패스 363" d="M608.334,3793.713c-31.42-2.42-55.339-14.776-55.339-29.656" transform="translate(-553.422 -3738.459)" fill="none" stroke="#9f8c76" stroke-linecap="round" stroke-linejoin="round" stroke-width="4"/>
                <path id="패스_364" data-name="패스 364" d="M653.433,3798.431a141.845,141.845,0,0,1-15.294,1.164" transform="translate(-565.968 -3743.524)" fill="none" stroke="#9f8c76" stroke-linecap="round" stroke-linejoin="round" stroke-width="4"/>
                <path id="패스_365" data-name="패스 365" d="M625.726,3799.158a1.352,1.352,0,1,1-1.351-1.352A1.352,1.352,0,0,1,625.726,3799.158Z" transform="translate(-563.74 -3743.432)" fill="#fff" opacity="0.5"/>
                <path id="패스_366" data-name="패스 366" d="M634.75,3799.492a1.352,1.352,0,1,1-1.351-1.352A1.352,1.352,0,0,1,634.75,3799.492Z" transform="translate(-565.07 -3743.481)" fill="#fff" opacity="0.5"/>
                <path id="패스_367" data-name="패스 367" d="M706.743,3765.97s2.85,12.539-15.959,18.951" transform="translate(-573.725 -3738.741)" fill="none" stroke="#5f4938" stroke-linecap="round" stroke-linejoin="round" stroke-width="4"/>
              </g>
            </g>
            <path id="패스_369" data-name="패스 369" d="M694.126,3794.38c5.414,1.139,3.135,12.538,7.41,15.389.57-.286.57-.855.854-1.71" transform="translate(-573.582 -3707.461)" fill="none" stroke="#5f4938" stroke-miterlimit="10" stroke-width="0.75"/>
            <path id="패스_370" data-name="패스 370" d="M669.728,3802.391c5.129-.855,7.979,9.119,10.544,5.129" transform="translate(-569.987 -3708.634)" fill="none" stroke="#5f4938" stroke-miterlimit="10" stroke-width="0.75"/>
            <path id="패스_371" data-name="패스 371" d="M648,3813.095c2.85.286,3.7,7.409,6.554,6.554" transform="translate(-566.786 -3710.219)" fill="none" stroke="#5f4938" stroke-miterlimit="10" stroke-width="0.75"/>
            <path id="패스_372" data-name="패스 372" d="M621.6,3810.077c4.844-.855,3.99,8.55,10.543,6.839" transform="translate(-562.896 -3709.766)" fill="none" stroke="#5f4938" stroke-miterlimit="10" stroke-width="0.75"/>
            <path id="패스_373" data-name="패스 373" d="M606.559,3826.464" transform="translate(-560.679 -3712.189)" fill="none" stroke="#5f4938" stroke-miterlimit="10" stroke-width="0.75"/>
            <path id="패스_374" data-name="패스 374" d="M595.2,3808.416" transform="translate(-559.005 -3709.529)" fill="none" stroke="#5f4938" stroke-miterlimit="10" stroke-width="0.75"/>
            <path id="패스_375" data-name="패스 375" d="M584.166,3810.421" transform="translate(-557.38 -3709.825)" fill="none" stroke="#5f4938" stroke-miterlimit="10" stroke-width="0.75"/>
            <path id="패스_376" data-name="패스 376" d="M571.132,3815.1" transform="translate(-555.459 -3710.514)" fill="none" stroke="#5f4938" stroke-miterlimit="10" stroke-width="0.75"/>
            <path id="패스_377" data-name="패스 377" d="M558.431,3796.718" transform="translate(-553.588 -3707.806)" fill="none" stroke="#5f4938" stroke-miterlimit="10" stroke-width="0.75"/>
            <path id="패스_378" data-name="패스 378" d="M617.923,3809.753" transform="translate(-562.354 -3709.726)" fill="none" stroke="#5f4938" stroke-miterlimit="10" stroke-width="0.75"/>
          </g>
          <g id="그룹_241" data-name="그룹 241" transform="translate(59.809)">
            <path id="패스_379" data-name="패스 379" d="M637.856,3692.282c-.084,2.684-2.637,4.782-5.705,4.688s-5.487-2.348-5.4-5.032,2.637-4.782,5.705-4.687S637.938,3689.6,637.856,3692.282Z" transform="translate(-623.462 -3661.872)" fill="#db7e83"/>
            <line id="선_1" data-name="선 1" y1="13.672" x2="0.424" transform="translate(8.412 16.552)" fill="none" stroke="#6c5c55" stroke-miterlimit="10" stroke-width="3"/>
            <path id="패스_380" data-name="패스 380" d="M639.108,3676.089h.02a4.212,4.212,0,0,0-.2-1.082h0c-.04-.143-.09-.3-.149-.481-.027-.084-.054-.167-.086-.25a18.763,18.763,0,0,0-.755-1.8c-1.28-2.7-5.442-9.106-5.442-9.106s-4.965,6.235-6.8,10.15a6.8,6.8,0,0,0-.438,1.052c-.029.081-.05.155-.073.232-.041.135-.077.274-.107.415-.009.041-.026.09-.034.129h.007a7.285,7.285,0,0,0-.146,1.084,7.13,7.13,0,1,0,14.209-.344Z" transform="translate(-623.189 -3658.354)" fill="#df9146"/>
            <path id="패스_381" data-name="패스 381" d="M637.081,3679.953h.014a2.763,2.763,0,0,0-.131-.709h0c-.026-.095-.06-.2-.1-.316-.018-.054-.035-.109-.056-.164a12.629,12.629,0,0,0-.495-1.181c-.84-1.771-3.568-5.971-3.568-5.971a46.558,46.558,0,0,0-4.462,6.656,4.423,4.423,0,0,0-.288.689c-.019.053-.033.1-.049.153-.026.09-.049.18-.069.272-.006.027-.018.06-.022.085h0a4.87,4.87,0,0,0-.095.711,4.676,4.676,0,0,0,9.34.465A4.53,4.53,0,0,0,637.081,3679.953Z" transform="translate(-623.612 -3659.568)" fill="#cb5721"/>
            <g id="그룹_240" data-name="그룹 240">
              <g id="그룹_239" data-name="그룹 239">
                <path id="패스_382" data-name="패스 382" d="M631.622,3657.487l.558,8.169,8.169.559-8.169.559-.558,8.169-.558-8.169-8.169-.559,8.169-.559Z" transform="translate(-622.895 -3657.487)" fill="#fff"/>
                <path id="패스_383" data-name="패스 383" d="M637.362,3661.723l-4.46,5.115,4.46,5.116-5.116-4.461-5.116,4.461,4.46-5.116-4.46-5.115,5.116,4.46Z" transform="translate(-623.519 -3658.111)" fill="#fff"/>
              </g>
              <circle id="타원_7" data-name="타원 7" cx="4.168" cy="4.168" r="4.168" transform="translate(3.71 12.021) rotate(-76.66)" fill="#fff" opacity="0.5"/>
            </g>
          </g>
        </g>
      </g>
    </g>
  </g>
</svg>
