<svg xmlns="http://www.w3.org/2000/svg" width="800" height="660" viewBox="0 0 800 660">
  <g id="card5" transform="translate(-18 -457)">
    <rect id="사각형_3" data-name="사각형 3" width="800" height="660" rx="24" transform="translate(18 457)" fill="#faefc9"/>
    <rect id="사각형_13" data-name="사각형 13" width="800" height="660" rx="24" transform="translate(18 457)" fill="#dad7f4"/>
    <g id="t" transform="translate(-1111.985 -2143.759)">
      <g id="그룹_257" data-name="그룹 257" transform="translate(1418.985 2643.759)">
        <path id="패스_440" data-name="패스 440" d="M1441.558,2643.976c-.3-.015-.607-.028-.907-.045-4.376-.264-10.162-.4-14.375.938-5.87,1.861-4.575,7.791-5.074,12.628-.471,4.574-.769,9.164-1.088,13.75q-.389,5.6-.666,11.214c-.149,2.92-.838,6.458-.191,9.336.823,3.665,4.423,5.48,7.192,2.689,1.058-1.066,1.389-4.016,1.669-5.428a85.065,85.065,0,0,0,1.117-12.22c.223-.518,7.429-.3,8.155-.358,2.278-.177,4.651-1.05,5.749-3.2,3.339-6.529-5.491-5.854-9.3-6.063-4.615-.252-2.689-3.74-2.3-7.25q.39-3.468.948-6.914c.124-.735,7.577-.664,8.238-.688.781-.027,2.965.315,3.628-.127,1.144-.763,1.582-4.545,1.318-5.829C1445.236,2644.25,1443.43,2644.068,1441.558,2643.976Z" transform="translate(-1418.985 -2643.759)" fill="#333762"/>
        <path id="패스_441" data-name="패스 441" d="M1454.187,2691.419a3,3,0,0,0,3.064,1.355,3.57,3.57,0,0,0,2.3-.562,5.023,5.023,0,0,0,1.3-3.1c.955-5.537,1.654-11.14,2.1-16.775.27-3.445.464-6.9.66-10.351.136-2.4,1.007-6.166-1.082-7.832a2.829,2.829,0,0,0-2.96-.226,6.9,6.9,0,0,0-3.285,4.243,25.023,25.023,0,0,0-.927,5.808l-1.175,14.615C1453.894,2682.151,1452.322,2688.174,1454.187,2691.419Z" transform="translate(-1425.599 -2645.661)" fill="#333762"/>
        <path id="패스_442" data-name="패스 442" d="M1578.134,2692.958a2.993,2.993,0,0,0,3.063,1.355,3.568,3.568,0,0,0,2.3-.563,5.023,5.023,0,0,0,1.3-3.1c.954-5.537,1.653-11.14,2.095-16.775.27-3.445.465-6.9.66-10.351.136-2.4,1.008-6.166-1.082-7.832a2.829,2.829,0,0,0-2.96-.226,6.893,6.893,0,0,0-3.284,4.244,24.97,24.97,0,0,0-.928,5.808l-1.174,14.615C1577.84,2683.689,1576.268,2689.712,1578.134,2692.958Z" transform="translate(-1449.497 -2645.957)" fill="#333762"/>
        <path id="패스_443" data-name="패스 443" d="M1478.1,2652.382a25.8,25.8,0,0,0-3.828,10.363,79.846,79.846,0,0,0-1.017,21.865c.485,5,1.486,11.151,6.72,13.323,9.684,4.021,16.136-9.147,17.16-16.708.517-3.814.736-9-3.633-10.6a9.932,9.932,0,0,0-5.761-.808c-2.188.395-4.276,2.194-4.256,4.417.017,1.833,1.289,2.842,2.958,3.229.517.119,1.892-.088,2.266.233,1.5,1.306.431,6.391-.305,7.752-1.3,2.407-5.126,3.517-6.77,1.33a5.791,5.791,0,0,1-.9-2.5,44.128,44.128,0,0,1,.816-19.249c.664-2.464,1.672-5.039,3.8-6.449a2.043,2.043,0,0,1,1.938-.363c1.163.561,1.327,2.07,1.685,3.311.968,3.358,5.56,1.981,6.725.158s1.619-6.714.493-9.341C1492.739,2644.293,1482.256,2646.46,1478.1,2652.382Z" transform="translate(-1429.382 -2644.402)" fill="#333762"/>
        <path id="패스_444" data-name="패스 444" d="M1646.478,2650.5a24.752,24.752,0,0,0-3.95,10.178,75.048,75.048,0,0,0-1.093,21.457c.486,4.9,1.5,10.939,6.86,13.059,9.923,3.923,16.57-9.013,17.637-16.435.538-3.744.776-8.831-3.7-10.392a10.584,10.584,0,0,0-5.906-.78c-2.245.392-4.39,2.163-4.375,4.343.013,1.8,1.316,2.787,3.026,3.162.53.117,1.941-.09,2.324.225,1.54,1.277.428,6.27-.33,7.607-1.341,2.365-5.264,3.463-6.946,1.32a5.49,5.49,0,0,1-.912-2.45,41.5,41.5,0,0,1,.881-18.89c.688-2.419,1.726-4.948,3.911-6.337a2.176,2.176,0,0,1,1.988-.361c1.191.548,1.356,2.028,1.72,3.246.985,3.292,5.7,1.931,6.9.14s1.677-6.592.528-9.167C1661.514,2642.53,1650.758,2644.679,1646.478,2650.5Z" transform="translate(-1461.811 -2644.053)" fill="#333762"/>
        <path id="패스_445" data-name="패스 445" d="M1534.9,2652.5a2.711,2.711,0,0,0-2.961-.246,7.167,7.167,0,0,0-3.274,4.463,27.6,27.6,0,0,0-.911,6.12l-.237,3.216-8.532.436q.15-2.674.282-5.352c.129-2.531.99-6.5-1.1-8.259a2.712,2.712,0,0,0-2.961-.246,7.168,7.168,0,0,0-3.274,4.463,27.6,27.6,0,0,0-.911,6.12q-.567,7.7-1.134,15.4c-.275,3.745-1.83,10.088.044,13.515a2.963,2.963,0,0,0,3.068,1.438,3.413,3.413,0,0,0,2.3-.587,5.411,5.411,0,0,0,1.289-3.26q1.155-7.18,1.784-14.482l8.529-.8q-.14,1.9-.28,3.8c-.275,3.745-1.831,10.088.044,13.515a2.963,2.963,0,0,0,3.068,1.438,3.42,3.42,0,0,0,2.3-.587,5.412,5.412,0,0,0,1.289-3.26c.939-5.834,1.622-11.738,2.048-17.677.261-3.63.446-7.271.632-10.91C1536.134,2658.228,1536.995,2654.262,1534.9,2652.5Z" transform="translate(-1436.344 -2645.334)" fill="#333762"/>
        <path id="패스_446" data-name="패스 446" d="M1570.463,2653.9a3.16,3.16,0,0,0-.835-1.461,2.877,2.877,0,0,0-1.748-.514,110.726,110.726,0,0,0-15.692-.3c-1.431.109-3.406.082-4.381,1.513-.849,1.249-1.074,4.833-.1,6.011h0a1.986,1.986,0,0,0,1.692.5c1.177-.036,2.352-.094,3.527-.161-.175,1.109-.271,2.242-.361,3.368l-1.174,14.615c-.285,3.553-1.857,9.576.009,12.821a3,3,0,0,0,3.063,1.356,3.572,3.572,0,0,0,2.3-.563,5.027,5.027,0,0,0,1.3-3.1c.954-5.537,1.653-11.14,2.1-16.776.27-3.444.464-6.9.66-10.351.035-.611.116-1.311.186-2.042q3.063-.322,6.12-.717c1.466-.188,3.26-.709,3.557-2.369A3.861,3.861,0,0,0,1570.463,2653.9Z" transform="translate(-1443.681 -2645.242)" fill="#333762"/>
        <path id="패스_447" data-name="패스 447" d="M1625.819,2653.528a2.542,2.542,0,0,0-2.791-.234,6.785,6.785,0,0,0-3.085,4.232,26.322,26.322,0,0,0-.858,5.8c-.317,4.348-.683,9.827-1,14.175-3.326-6.019-6.27-12.137-9.6-18.155-.791-1.432-1.95-3.934-3.205-4.926l-.111.346a3.108,3.108,0,0,0-.75-.969,2.543,2.543,0,0,0-2.791-.234,6.786,6.786,0,0,0-3.085,4.233,26.334,26.334,0,0,0-.858,5.8q-.532,7.3-1.064,14.609c-.259,3.552-1.722,9.569.046,12.82a2.789,2.789,0,0,0,2.892,1.364,3.2,3.2,0,0,0,2.171-.555,5.148,5.148,0,0,0,1.214-3.092q1.222-7.656,1.819-15.455a129.883,129.883,0,0,0,8.587,14.255,12.4,12.4,0,0,0,3.253,3.453,5.022,5.022,0,0,0,2.488.786,3.559,3.559,0,0,0,1.865.334,3.2,3.2,0,0,0,2.171-.556,5.146,5.146,0,0,0,1.214-3.091q1.326-8.3,1.926-16.767c.245-3.443.418-6.9.593-10.348C1626.984,2658.961,1627.794,2655.2,1625.819,2653.528Z" transform="translate(-1453.078 -2645.538)" fill="#333762"/>
      </g>
      <path id="패스_448" data-name="패스 448" d="M1681.312,2686.062a3,3,0,0,0,3.064,1.356,3.572,3.572,0,0,0,2.3-.563,5.028,5.028,0,0,0,1.3-3.1c.954-5.537,1.653-11.14,2.095-16.775.27-3.445.465-6.9.66-10.352.136-2.4,1.008-6.165-1.082-7.832a2.829,2.829,0,0,0-2.96-.225,6.893,6.893,0,0,0-3.285,4.243,24.986,24.986,0,0,0-.928,5.809l-1.174,14.615C1681.019,2676.794,1679.447,2682.817,1681.312,2686.062Z" transform="translate(-50.406 -0.869)" fill="#333762"/>
      <path id="패스_449" data-name="패스 449" d="M1677.476,2710.3h0a4.2,4.2,0,0,0,1.485,3.238,3.809,3.809,0,0,0,3.3.616,4.7,4.7,0,0,0,2.7-2.062,4.573,4.573,0,0,0,.481-4C1683.622,2703.383,1677.4,2705.914,1677.476,2710.3Z" transform="translate(-49.84 -11.916)" fill="#333762"/>
    </g>
    <g id="i" transform="translate(-1089.818 -2148.601)">
      <ellipse id="타원_8" data-name="타원 8" cx="64.178" cy="4.487" rx="64.178" ry="4.487" transform="translate(1443.818 2903.164)" fill="#45416d" opacity="0.31"/>
      <g id="l">
        <path id="패스_456" data-name="패스 456" d="M1685.717,2785.577a5.176,5.176,0,0,0,.324-4.065c-.587-2.013-2.058-1.729-2.948-3.057-.613-.739.054-2.548-.386-3.678a4.3,4.3,0,0,0-2.827-2.418c-7.187-2.594-14.537,7.016-11.237,12.918,1.744,3.344,5.766,4.887,9.251,6.428,1.687.745,3.528,1.444,4.645-.168.787-1.172.374-3.576-.646-4.611,1.921-.085,2.656-.228,3.867-1.446" transform="translate(-76.348 -12.23)" fill="#d18b8a"/>
        <path id="패스_457" data-name="패스 457" d="M1654.967,2743.834a4.261,4.261,0,0,0-3.341.221c-1.566.715-1.16,1.874-2.133,2.753-.528.585-2.077.259-2.943.75a3.517,3.517,0,0,0-1.629,2.579c-1.253,6.133,7.427,10.949,11.83,7.573,2.509-1.811,3.286-5.254,4.124-8.262.405-1.456.753-3.032-.688-3.745a3.562,3.562,0,0,0-3.67,1.071c-.3-1.547-.5-2.126-1.635-2.963" transform="translate(-71.467 -6.225)" fill="#d18b8a"/>
        <path id="패스_458" data-name="패스 458" d="M1744.165,2715.757a4.252,4.252,0,0,0-2.587,2.123c-.857,1.492.149,2.2-.13,3.479-.088.782-1.538,1.418-1.955,2.321a3.514,3.514,0,0,0,.18,3.044c2.557,5.715,12.42,4.58,14.032-.725.984-2.932-.392-6.182-1.465-9.114-.518-1.419-1.154-2.9-2.742-2.644a3.557,3.557,0,0,0-2.359,3c-1.144-1.084-1.646-1.436-3.056-1.458" transform="translate(-91.477 0)" fill="#d18b8a"/>
        <path id="패스_462" data-name="패스 462" d="M1621.722,2828.955c8.62-6.457,23.7-13.99,32.323-4.3-6.465,7.533-22.533,7.333-31.153,5.181" transform="translate(-66.577 -22.422)" fill="#6c8f81"/>
        <path id="패스_464" data-name="패스 464" d="M1706.351,2745.154c-.349-4.341.392-10.893,5.844-10.765,1.229,4-2.36,7.85-5.1,9.806" transform="translate(-84.495 -4.275)" fill="#6c8f81"/>
      </g>
      <g id="r">
        <path id="패스_459" data-name="패스 459" d="M1320.946,2738.111a4.255,4.255,0,0,0-3-1.493c-1.713-.173-1.948,1.032-3.233,1.3-.751.239-1.924-.823-2.919-.835a3.521,3.521,0,0,0-2.709,1.406c-4.18,4.663.882,13.2,6.389,12.5,3.081-.3,5.491-2.88,7.733-5.055,1.085-1.053,2.182-2.238,1.3-3.58a3.563,3.563,0,0,0-3.709-.925c.525-1.485.641-2.087.086-3.382" transform="translate(0 -4.744)" fill="#d18b8a"/>
        <path id="패스_460" data-name="패스 460" d="M1365.429,2720.084a2.419,2.419,0,0,0-1.136,1.529c-.267.942.385,1.193.408,1.939.06.445-.653,1-.759,1.551a2,2,0,0,0,.519,1.657c2.2,2.8,7.492.819,7.649-2.333.139-1.754-1.07-3.359-2.067-4.832-.482-.711-1.038-1.444-1.88-1.082a2.02,2.02,0,0,0-.887,1.984,2.141,2.141,0,0,0-1.89-.385" transform="translate(-11.946 -0.891)" fill="#d18b8a"/>
        <path id="패스_461" data-name="패스 461" d="M1430.348,2761.519a2.707,2.707,0,0,0-2.067-.5c-1.086.136-1.06.916-1.818,1.264-.431.255-1.308-.237-1.927-.1a2.238,2.238,0,0,0-1.478,1.254c-1.928,3.481,2.419,8.051,5.731,6.839,1.866-.622,2.993-2.561,4.074-4.226.523-.805,1.034-1.694.3-2.4a2.265,2.265,0,0,0-2.429-.049,2.382,2.382,0,0,0-.427-2.106" transform="translate(-24.377 -9.915)" fill="#d18b8a"/>
        <path id="패스_463" data-name="패스 463" d="M1411.551,2798.026c-10.04-3.907-24.406-12.73-20.717-25.154,9.817,1.509,18.127,15.248,20.846,23.7" transform="translate(-17.523 -12.431)" fill="#6c8f81"/>
        <g id="그룹_284" data-name="그룹 284" transform="translate(1415.403 2739.897)">
          <g id="그룹_278" data-name="그룹 278" transform="translate(0 13.626)">
            <path id="패스_487" data-name="패스 487" d="M1452.907,2782.99a8.366,8.366,0,0,1-2.274,2.02,2.927,2.927,0,0,1-2.917.024,2.964,2.964,0,0,1-.777-3.571,8.675,8.675,0,0,1,2.547-2.991,7.553,7.553,0,0,1-3.621-.7,2.587,2.587,0,0,1-1.281-3.135,3.4,3.4,0,0,1,1.256-1.262,17.433,17.433,0,0,1,5.477-2.442c-1.158.1-1.92-1.4-1.532-2.5a4.623,4.623,0,0,1,2.5-2.3,24.6,24.6,0,0,1,12.494-1.952c4.809,9.732-.567,16.218-1.572,16.755a2.252,2.252,0,0,1-2.982-.739,9.13,9.13,0,0,1-1.437,5.173,3.464,3.464,0,0,1-2.208,1.728,2.867,2.867,0,0,1-2.628-1.319,8.437,8.437,0,0,1-1.107-2.869" transform="translate(-1444.405 -2764.093)" fill="#8cb0ab"/>
            <g id="그룹_277" data-name="그룹 277" transform="translate(5.266 1.508)">
              <g id="그룹_272" data-name="그룹 272">
                <path id="패스_488" data-name="패스 488" d="M1451.156,2782.392l.683-.612c.219-.192.478-.431.768-.712s.624-.593.977-.945.726-.742,1.12-1.156.8-.861,1.21-1.326.83-.955,1.244-1.462.819-1.03,1.229-1.552.808-1.051,1.189-1.581l1.126-1.546c.719-1.011,1.392-1.954,1.967-2.763.292-.4.558-.771.8-1.1s.455-.606.631-.837c.352-.466.571-.721.571-.721l0,0a.211.211,0,0,1,.354.219s-.131.31-.392.837c-.126.266-.3.578-.494.937s-.429.758-.7,1.181-.571.878-.9,1.355-.692.96-1.069,1.462-.782,1.011-1.211,1.512-.86,1.015-1.3,1.519-.9,1-1.352,1.471-.895.954-1.328,1.406l-1.269,1.287c-.4.407-.79.789-1.154,1.133-.711.706-1.329,1.274-1.75,1.674l-.668.626a.208.208,0,1,1-.285-.3Z" transform="translate(-1451.087 -2766.006)" fill="#fff"/>
              </g>
              <g id="그룹_273" data-name="그룹 273" transform="translate(6.131 10.347)">
                <path id="패스_489" data-name="패스 489" d="M1459.281,2779.306s.019.1.06.261.1.412.16.7c.037.144.067.3.1.469s.071.344.107.526c.068.368.146.761.2,1.161.024.2.054.4.061.6s.013.4.011.586a4.553,4.553,0,0,1-.14,1.027,2.481,2.481,0,0,1-.452.929.236.236,0,0,1-.331.021.23.23,0,0,1-.071-.113l0-.01a1.794,1.794,0,0,1-.046-.279,4.845,4.845,0,0,1-.016-.7c.01-.14.02-.292.038-.451s.037-.328.064-.5c.044-.351.092-.725.14-1.1a7.861,7.861,0,0,0,.052-1.119,7.044,7.044,0,0,0-.1-.975,6.105,6.105,0,0,0-.159-.673c-.05-.162-.083-.255-.083-.255a.209.209,0,0,1,.393-.141A.1.1,0,0,1,1459.281,2779.306Z" transform="translate(-1458.866 -2779.136)" fill="#fff"/>
              </g>
              <g id="그룹_274" data-name="그룹 274" transform="translate(0.136 7.899)">
                <path id="패스_490" data-name="패스 490" d="M1458.89,2776.824s-.114-.036-.316-.087a2.713,2.713,0,0,0-.36-.076c-.137-.027-.294-.053-.469-.069a7.235,7.235,0,0,0-1.2-.022,9.788,9.788,0,0,0-1.359.2l-1.343.3c-.43.091-.832.176-1.186.216a5.465,5.465,0,0,1-.872.037,2.616,2.616,0,0,1-.342-.032l0,0a.225.225,0,0,1-.177-.265.22.22,0,0,1,.09-.139,4.078,4.078,0,0,1,1.115-.506,7.682,7.682,0,0,1,1.213-.251c.228-.027.461-.057.7-.069s.486-.018.731-.023.489,0,.731.017.478.026.706.035.449.032.657.054.4.041.584.073c.36.04.672.109.873.148s.322.064.322.064a.207.207,0,0,1,.171.24.21.21,0,0,1-.241.171A.207.207,0,0,1,1458.89,2776.824Z" transform="translate(-1451.259 -2776.029)" fill="#fff"/>
              </g>
              <g id="그룹_275" data-name="그룹 275" transform="translate(11.562 3.119)">
                <path id="패스_491" data-name="패스 491" d="M1466.174,2770.14s.013.092.047.252.084.391.143.667l.462,2.034c.037.188.079.375.1.562s.047.371.062.549a4.762,4.762,0,0,1-.02.979,2.48,2.48,0,0,1-.31.931.237.237,0,0,1-.326.071.232.232,0,0,1-.085-.1l0-.009a1.538,1.538,0,0,1-.088-.259,3.712,3.712,0,0,1-.117-.667,8.485,8.485,0,0,1-.008-.928c.005-.34.032-.7.052-1.071a9.52,9.52,0,0,0,.006-1.082,8.3,8.3,0,0,0-.108-.938c-.052-.271-.1-.493-.143-.651s-.071-.245-.071-.245a.207.207,0,0,1,.132-.264.21.21,0,0,1,.265.132A.258.258,0,0,1,1466.174,2770.14Z" transform="translate(-1465.758 -2769.963)" fill="#fff"/>
              </g>
              <g id="그룹_276" data-name="그룹 276" transform="translate(2.521 2.912)">
                <path id="패스_492" data-name="패스 492" d="M1462.779,2771.029a2.884,2.884,0,0,0-.32-.148,4.617,4.617,0,0,0-.9-.25,9.848,9.848,0,0,0-1.336-.118c-.5-.016-1.025.007-1.553.041l-1.541.106c-.491.025-.947.062-1.342.051a7.461,7.461,0,0,1-.962-.061,3.027,3.027,0,0,1-.372-.065h0a.223.223,0,0,1-.158-.273.228.228,0,0,1,.11-.139,2.987,2.987,0,0,1,.355-.149,5.07,5.07,0,0,1,.962-.235,8.536,8.536,0,0,1,1.384-.086,13.8,13.8,0,0,1,1.589.11c.536.064,1.075.147,1.572.215s.97.13,1.37.224a7.054,7.054,0,0,1,.961.263c.236.086.355.136.355.136l.013.006a.209.209,0,1,1-.166.383Z" transform="translate(-1454.285 -2769.702)" fill="#fff"/>
              </g>
            </g>
          </g>
          <g id="그룹_283" data-name="그룹 283" transform="translate(11.598)">
            <path id="패스_493" data-name="패스 493" d="M1473.235,2752.685c4.973-7.481-8.9-7.82-6.444-1.049-1.28-2.668-6.726-3.852-7.619.025-.53,2.814,3.185,5.453,5.621,5.424-7.318,4.451,2.095,13.825,5.562,5.737.875,10.844,17.171,5.167,9.087-2.662,2.72-2.4,6.253-4.812,3.33-9.083-2.345-3.029-6.386-1.361-9.047.728" transform="translate(-1459.121 -2746.803)" fill="#fff"/>
            <g id="그룹_282" data-name="그룹 282" transform="translate(6.458 5.62)">
              <g id="그룹_279" data-name="그룹 279" transform="translate(2.81)">
                <path id="패스_494" data-name="패스 494" d="M1476.614,2754.5a5.549,5.549,0,0,0-4.322-.2c-1.489.724-1.567,2.506-1.274,3.928.061.3.534.229.472-.073-.26-1.269-.254-2.811,1.077-3.459a5.092,5.092,0,0,1,3.872.252.239.239,0,0,0,.176-.444Z" transform="translate(-1470.882 -2753.935)" fill="#cfa093"/>
              </g>
              <g id="그룹_280" data-name="그룹 280" transform="translate(0 2.894)">
                <path id="패스_495" data-name="패스 495" d="M1475.375,2758.062a4.566,4.566,0,0,1,3.312,4.173c.011,1.845-1.6,2.773-3.286,2.7a11.108,11.108,0,0,1-4.4-1.259,5.843,5.843,0,0,1-3.114-2.959,2.4,2.4,0,0,1,.279-1.989c.156-.262-.225-.551-.381-.287-1.7,2.87,1.618,5.126,3.929,6.085a10.232,10.232,0,0,0,4.21.884,3.212,3.212,0,0,0,3.215-2.746,4.954,4.954,0,0,0-3.588-5.049c-.293-.088-.47.355-.175.444Z" transform="translate(-1467.316 -2757.607)" fill="#cfa093"/>
              </g>
              <g id="그룹_281" data-name="그룹 281" transform="translate(1.675 5.15)">
                <path id="패스_496" data-name="패스 496" d="M1469.532,2760.9a14.339,14.339,0,0,0,4.486,2.709,3.716,3.716,0,0,0,2.334.042,3.313,3.313,0,0,0,1.788-1.868c.128-.28-.316-.453-.445-.175-1.686,3.671-5.844.531-7.876-1.089-.242-.193-.527.19-.288.381Z" transform="translate(-1469.441 -2760.47)" fill="#cfa093"/>
              </g>
              <path id="패스_497" data-name="패스 497" d="M1476.9,2760.8c-.313.283-1.084-.058-1.722-.761s-.9-1.5-.588-1.788,1.084.058,1.722.762S1477.209,2760.513,1476.9,2760.8Z" transform="translate(-1468.828 -2754.828)" fill="#807444"/>
            </g>
          </g>
        </g>
      </g>
      <g id="b" transform="translate(5.626)">
        <path id="패스_450" data-name="패스 450" d="M1479.132,2821.5l21.732,22.614,73.8.962,19.574-22.437Z" transform="translate(-36.36 -22.736)" fill="#333762"/>
        <g id="그룹_261" data-name="그룹 261" transform="translate(1464.771 2747.582)">
          <g id="그룹_259" data-name="그룹 259" transform="translate(33.124)">
            <path id="패스_451" data-name="패스 451" d="M1586.923,2773.261a7.3,7.3,0,0,1-2.217,4.475c-7.382,8.39-23.368,16.564-32.859,9.46,1.179-.1,4.18.24,6.6-.027,5.735-.631,9.991-5.98,13.535-10.814,2.173-2.963,3.523-11.92,7.257-12.78C1582.8,2762.753,1586.979,2769.822,1586.923,2773.261Z" transform="translate(-1549.665 -2758.029)" fill="#3c3781"/>
            <path id="패스_452" data-name="패스 452" d="M1554.074,2773.676a49.057,49.057,0,0,1,9.712-11.642c3.76-3.461,8.645-5.877,13.6-5.425a3.653,3.653,0,0,1,1.7.482,4.628,4.628,0,0,1,1.317,1.607c1.991,3.347,6,7.956,5.948,12.361-8.506-1.613-17.8.467-25.319,5.008-5.61,3.39-9.433,10.225-9.987,10.165C1545.766,2785.647,1552.642,2776.051,1554.074,2773.676Z" transform="translate(-1549.078 -2756.555)" fill="#333762"/>
          </g>
          <g id="그룹_260" data-name="그룹 260" transform="translate(0 0.641)">
            <path id="패스_453" data-name="패스 453" d="M1507.048,2773.836a7.3,7.3,0,0,0,2.121,4.522c7.2,8.549,23,17.068,32.644,10.171-1.176-.123-4.184.149-6.593-.169-5.72-.756-9.86-6.2-13.3-11.1-2.106-3.01-3.262-11.994-6.978-12.936C1511.4,2763.42,1507.068,2770.4,1507.048,2773.836Z" transform="translate(-1507.048 -2758.824)" fill="#3c3781"/>
            <path id="패스_454" data-name="패스 454" d="M1539.266,2774.967a49.108,49.108,0,0,0-9.456-11.849c-3.685-3.542-8.516-6.063-13.48-5.719a3.68,3.68,0,0,0-1.706.444,4.665,4.665,0,0,0-1.351,1.579c-2.063,3.3-6.167,7.823-6.214,12.229,8.538-1.427,17.789.853,25.2,5.557,5.534,3.511,9.209,10.427,9.764,10.377C1547.312,2787.116,1540.644,2777.373,1539.266,2774.967Z" transform="translate(-1507.05 -2757.368)" fill="#333762"/>
          </g>
        </g>
        <path id="패스_455" data-name="패스 455" d="M1555.476,2816.912l-12.557-.136.236-21.684c0-.221.69-.391,1.537-.382l9.491.1c.847.009,1.532.195,1.528.415Z" transform="translate(-49.877 -17.058)" fill="#52569b"/>
        <rect id="사각형_15" data-name="사각형 15" width="115.343" height="21.587" transform="matrix(1, 0.011, -0.011, 1, 1443.006, 2777.18)" fill="#95a6d3"/>
        <path id="패스_465" data-name="패스 465" d="M1494.487,2907.009s-23.745-25-57.118-4.487l-18.611,12.179,9.626,7.693s25.671-28.206,56.476-9.615Z" transform="translate(-23.566 -38.192)" fill="#333762"/>
        <g id="그룹_264" data-name="그룹 264" transform="translate(1464.208 2763.356)">
          <path id="패스_466" data-name="패스 466" d="M1565.081,2816.142c-17.407,27.658-32.825,53.954-51.269,80.941-2.961,4.277-11.311,16.567-5.434,10.636,2.006-2.237,8.346-12.287,10.369-15.4,16.713-25.455,33.183-51.951,49.766-77.491" transform="translate(-1506.332 -2784.677)" fill="#6c8f81"/>
          <g id="그룹_263" data-name="그룹 263" transform="translate(49.407)">
            <path id="패스_467" data-name="패스 467" d="M1601.8,2797.332c-.011-8.867-12.692-2.356-18.515-7.749-4.587-3.889-3.546-16.749-11.466-8.245-3.735,4.063-3.349,18.055-1.064,26.313l-.315-.791c2.667,18.845,28.917,11.12,37.192,3.254C1614.676,2803.707,1615.008,2786.608,1601.8,2797.332Z" transform="translate(-1569.024 -2776.977)" fill="#edc4c2"/>
            <path id="패스_468" data-name="패스 468" d="M1580.658,2777.027c-9.616,1.144-3.746,6.72-3.241,12.41.185,4.706-3.1,9.53,1.337,13.206,3.961,3.042,7.26.741,11.065,4.132,3.167,2.265,6.515,8.389,11.231,5.467,2.514-1.39,1.713-3.852,2.963-5.81,2.034-2.867,2.67-1.742,5.183-3.974,4.4-3.908,6.111-6.916,1.825-11.783-1.114-1.763-3.639-2.057-4.909-3.468-1.909-2.538-2.4-5.7-4.145-7.745-5.4-6.629-10.093.508-17.519-1.57" transform="translate(-1570.329 -2776.571)" fill="#d18b8a"/>
            <g id="그룹_262" data-name="그룹 262" transform="translate(19.107 10.87)">
              <path id="패스_469" data-name="패스 469" d="M1597.249,2791.205c-1.092-1.376-5.06-1.2-3.7,1.525,1.217,1.74,3.524.656,3.819-1.372" transform="translate(-1593.269 -2790.364)" fill="#723b26"/>
              <path id="패스_470" data-name="패스 470" d="M1603.377,2793.771c-1.091-1.377-5.062-1.2-3.7,1.524,1.218,1.74,3.525.657,3.82-1.372" transform="translate(-1594.567 -2790.907)" fill="#723b26"/>
              <path id="패스_471" data-name="패스 471" d="M1597.96,2797.59c-1.09-1.378-5.06-1.2-3.7,1.524,1.218,1.739,3.525.657,3.819-1.371" transform="translate(-1593.42 -2791.717)" fill="#723b26"/>
            </g>
          </g>
        </g>
        <g id="그룹_267" data-name="그룹 267" transform="translate(1452.726 2765.45)">
          <path id="패스_472" data-name="패스 472" d="M1518.4,2818.854c6.286,28.184,12.974,54.276,18.191,82.682.8,4.526,3.211,17.431,3.209,10.056-.133-2.65-2.408-12.9-3.077-16.115-5.35-26.369-11.5-53.24-16.987-79.582" transform="translate(-1497.407 -2786.998)" fill="#6c8f81"/>
          <g id="그룹_266" data-name="그룹 266">
            <path id="패스_473" data-name="패스 473" d="M1520.561,2790.336c-5.529-5.563-9.439,6.4-16.454,6.633-5.3.407-12.654-8.317-12.335,1.943.184,4.872,9.138,13.421,15.714,17.188l-.69-.3c13.407,10.18,25.085-10.977,25.385-21.057C1532.615,2786.344,1522.179,2775.4,1520.561,2790.336Z" transform="translate(-1491.762 -2780.014)" fill="#edc4c2"/>
            <path id="패스_474" data-name="패스 474" d="M1494.182,2791c-5.327,6.69,1.83,6.547,5.689,9.807,3.046,2.842,3.987,7.911,9.062,7.464,4.381-.55,5.022-4.044,9.523-4.277,3.4-.545,9.315,1.221,10.458-3.543.713-2.435-1.323-3.483-1.756-5.49-.508-3.064.593-2.753.781-5.715.327-5.184-.468-8.14-6.19-8.534-1.8-.415-3.566.969-5.242.871-2.779-.408-5.055-2.089-7.425-2.29-7.519-.808-6.023,6.589-11.981,9.9" transform="translate(-1491.872 -2779.227)" fill="#d18b8a"/>
            <g id="그룹_265" data-name="그룹 265" transform="translate(14.835 9.173)">
              <path id="패스_475" data-name="패스 475" d="M1513.082,2793.071c-1.543-.187-3.923,2.393-1.374,3.256,1.847.336,2.623-1.776,1.545-3.235" transform="translate(-1510.586 -2791.332)" fill="#723b26"/>
              <path id="패스_476" data-name="패스 476" d="M1518.527,2790.876c-1.541-.187-3.923,2.393-1.374,3.255,1.847.337,2.623-1.776,1.545-3.233" transform="translate(-1511.74 -2790.866)" fill="#723b26"/>
              <path id="패스_477" data-name="패스 477" d="M1517.5,2796.64c-1.543-.188-3.922,2.392-1.374,3.255,1.848.336,2.623-1.777,1.545-3.233" transform="translate(-1511.523 -2792.088)" fill="#723b26"/>
            </g>
          </g>
        </g>
        <g id="그룹_270" data-name="그룹 270" transform="translate(1424.987 2788.116)">
          <path id="패스_478" data-name="패스 478" d="M1481.689,2834.924c17.549,11.162,34.238,21.053,51.355,32.871,2.713,1.9,10.508,7.247,6.753,3.491-1.417-1.282-7.793-5.347-9.77-6.644-16.149-10.712-32.961-21.273-49.164-31.9" transform="translate(-1461.715 -2813.233)" fill="#6c8f81"/>
          <g id="그룹_269" data-name="그룹 269" transform="translate(0)">
            <path id="패스_479" data-name="패스 479" d="M1469.792,2814.748c-5.647-.025-1.547,8.056-5,11.736-2.494,2.9-10.679,2.191-5.294,7.255,2.574,2.388,11.486,2.194,16.753.772l-.5.2c12.01-1.625,7.187-18.331,2.209-23.617C1473.9,2806.593,1463.011,2806.32,1469.792,2814.748Z" transform="translate(-1456.806 -2807.988)" fill="#edc4c2"/>
            <path id="패스_480" data-name="패스 480" d="M1456.8,2828.98c.693,6.112,4.266,2.406,7.891,2.1,3-.1,6.057,2,8.413-.8,1.952-2.505.5-4.61,2.673-7.015,1.453-2,5.365-4.109,3.522-7.116-.876-1.6-2.446-1.1-3.688-1.9-1.819-1.3-1.1-1.7-2.512-3.307-2.472-2.807-4.382-3.907-7.5-1.2-1.127.7-1.323,2.3-2.226,3.107-1.623,1.2-3.639,1.5-4.948,2.6-4.241,3.407.286,6.415-1.064,11.124" transform="translate(-1456.566 -2808.029)" fill="#d18b8a"/>
            <g id="그룹_268" data-name="그룹 268" transform="translate(6.902 9.75)">
              <path id="패스_481" data-name="패스 481" d="M1465.868,2824.318c-.88.689-.779,3.211.958,2.355,1.113-.767.432-2.237-.859-2.432" transform="translate(-1465.324 -2821.181)" fill="#723b26"/>
              <path id="패스_482" data-name="패스 482" d="M1467.524,2820.434c-.88.688-.78,3.212.958,2.356,1.113-.768.431-2.238-.86-2.432" transform="translate(-1465.675 -2820.359)" fill="#723b26"/>
              <path id="패스_483" data-name="패스 483" d="M1469.938,2823.889c-.882.688-.78,3.21.957,2.356,1.112-.767.431-2.237-.859-2.431" transform="translate(-1466.187 -2821.091)" fill="#723b26"/>
            </g>
          </g>
        </g>
        <rect id="사각형_16" data-name="사각형 16" width="101.469" height="85.483" transform="matrix(1, 0.011, -0.011, 1, 1449.941, 2820.847)" fill="#6167a6"/>
        <path id="패스_484" data-name="패스 484" d="M1541.934,2941.242h11.553s12.835-32.372,38.505-45.514c10.769-5.512,23.053-5.118,34.789-6.159a137.183,137.183,0,0,0,30.674-6.661l-1.284-9.936c-16.4,2.989-33.083,6.172-49.729,7.187a57.257,57.257,0,0,0-24.3,6.559c-7.718,3.988-15.2,9.139-20.973,15.685-8.675,9.834-15.647,27.837-21.485,39.479" transform="translate(-49.193 -33.643)" fill="#333762"/>
        <path id="패스_485" data-name="패스 485" d="M1553.025,2826.113l-3.944,6.925c.215-.068.423-.14.641-.213-.076-.766,1.14-2.054,8.927-4.895a3.152,3.152,0,0,1,3.313.808c.425.9-.292,1.708-1.009,2.181-2.9,1.915-10.021,3.489-11.068,2.313l-1.128.377-1.531,2.687-.4-.218,1.523-2.668a.142.142,0,0,1,.091-.157l.2-.354c-.1-.3-.192-.6-.292-.9-.028,0-.064,0-.1,0-1.245-.062-2.906-6.074-3.135-10.144-.017-.335-.024-.665-.017-.965,0-.259.008-.5.026-.731.066-.909.413-1.97,1.345-1.958a1.66,1.66,0,0,1,.89.517,4.23,4.23,0,0,1,.534.615,3.961,3.961,0,0,1,.712,1.746c1.007,7.987.68,10.194.121,10.752l.181.609,3.827-6.705c-.082-.32-.15-.641-.232-.962-.036,0-.087,0-.132.007-.971-.056-2.187-3.677-2.788-7.2-.061-.373-.121-.746-.167-1.111a17.568,17.568,0,0,1-.171-3.541,3.552,3.552,0,0,1,.24-1.09,1.177,1.177,0,0,1,1.1-.858.765.765,0,0,1,.337.111,3.5,3.5,0,0,1,1.292,1.342,3.765,3.765,0,0,1,.411.946,3.594,3.594,0,0,1,.091.475c.991,7.856.7,10.125.151,10.724.055.214.1.431.156.645l3.769-6.613a.12.12,0,0,1,.046-.083c-.119-.318-.229-.641-.328-.971-.012-.006-.017-.008-.02,0-1.184-.058-2.725-5.415-3.089-9.442a15.182,15.182,0,0,1-.046-2.41,4.359,4.359,0,0,1,.061-.465c.146-.729.49-1.431,1.191-1.478l0-.006c.033,0,.065,0,.1,0,.584.01,1.936,1.293,2.131,2.875.047.386.094.76.141,1.118.869,7.373.494,9.263-.084,9.688.064.22.128.432.2.641l2.464-4.318c-.318-1.158.215-3.5,1.182-6.032a28.244,28.244,0,0,1,4.881-8.525c.851-.9,2.212-1.738,3.453-.948.779.492,1.538,2.989.491,4.834-1.233,2.159-2.3,3.924-3.229,5.375-4.156,6.462-5.56,6.483-6.388,5.924a.751.751,0,0,1-.154-.132l-2.313,4.052c.167-.044.33-.1.5-.149.182-.8,1.824-2.088,8.9-4.666a3.132,3.132,0,0,1,3.317.8c.424.9-.3,1.705-1.006,2.174-2.991,1.984-10.443,3.586-11.141,2.21a.713.713,0,0,1-.037-.076c-.22.065-.445.142-.666.208.01.127-.117.178-.237.149l-3.811,6.691c.184-.036.352-.072.535-.109.008-.775,1.366-2.065,8.93-4.822a3.121,3.121,0,0,1,3.316.8c.425.9-.3,1.706-1.009,2.181-2.95,1.947-10.229,3.531-11.108,2.255-.3.061-.591.121-.889.173C1553.057,2826.118,1553.041,2826.123,1553.025,2826.113Z" transform="translate(-50.338 -17.74)" fill="#6c8f81"/>
        <g id="그룹_271" data-name="그룹 271" transform="translate(1453.145 2815.841)">
          <path id="패스_486" data-name="패스 486" d="M1525.718,2867.214l2.093.821,9.572-24.784-2.213-.081Z" transform="translate(-1499.377 -2843.169)" fill="#3d1b16"/>
          <rect id="사각형_17" data-name="사각형 17" width="43.431" height="29.979" transform="translate(0 49.105) rotate(-68.586)" fill="#fff"/>
        </g>
      </g>
    </g>
  </g>
</svg>
