<svg xmlns="http://www.w3.org/2000/svg" width="800" height="660" viewBox="0 0 800 660">
  <g id="card4" transform="translate(-18 -457)">
    <rect id="사각형_3" data-name="사각형 3" width="800" height="660" rx="24" transform="translate(18 457)" fill="#faefc9"/>
    <rect id="사각형_13" data-name="사각형 13" width="800" height="660" rx="24" transform="translate(18 457)" fill="#fbc6c6"/>
    <g id="그룹_288" data-name="그룹 288" transform="translate(-1995.121 -2141.665)">
      <path id="패스_498" data-name="패스 498" d="M2347.982,2696.514h0a30.306,30.306,0,0,0,3.981,9.591,9.132,9.132,0,0,0,3.247,3.051,9.368,9.368,0,0,0,3.875.846c4.893.185,9.672-1.493,14.084-3.617a40.1,40.1,0,0,0,11.077-7.456,21.815,21.815,0,0,0,6.34-11.58,3.738,3.738,0,0,0-.172-2.366,3.314,3.314,0,0,0-1.659-1.356c-3.968-1.767-8.567-.084-12.463,1.838a103.022,103.022,0,0,0-10.782,6.152c.808-.528-1.26-11.463-1.415-12.868q-.747-6.805-1.5-13.61c-.688-6.258.225-17.327-7.172-19.971-9.812-3.506-11.255,18.149-11.3,23.424A104.923,104.923,0,0,0,2347.982,2696.514Z" transform="translate(0 -2.742)" fill="#e82a5e"/>
      <g id="그룹_287" data-name="그룹 287" transform="translate(2377.827 2633.219)">
        <g id="그룹_286" data-name="그룹 286" transform="translate(0)">
          <path id="패스_499" data-name="패스 499" d="M2412.807,2649.133c-.253-7.311-4.009-16.731-12.914-15.858-8.513.835-10.7,10.351-11.314,17.347-.482,5.476-.524,11.908,1.32,17.426a20.35,20.35,0,0,0,2.413,4.98,8.264,8.264,0,0,0,13.174,1.47C2412.073,2668.641,2413.093,2657.37,2412.807,2649.133Zm-10.869,8.9a1.907,1.907,0,1,1-3.815,0,67.277,67.277,0,0,1,.277-11.274,1.962,1.962,0,0,1,1.908-1.907,1.912,1.912,0,0,1,1.907,1.907A67.3,67.3,0,0,0,2401.938,2658.033Z" transform="translate(-2388.296 -2633.219)" fill="#e82a5e"/>
        </g>
      </g>
      <path id="패스_500" data-name="패스 500" d="M2431.233,2672.2c.916,5.68,2.143,11.4,4.814,16.5a3.99,3.99,0,0,0,1.837,2.037c1.562.616,3.16-.736,4.255-2.01,9.256-10.78,14.77-24.259,18.973-37.832,1.151-3.718,2.156-7.99.12-11.307a4.424,4.424,0,0,0-2.354-2,4.27,4.27,0,0,0-3.871,1.007,11.882,11.882,0,0,0-2.49,3.318,136.054,136.054,0,0,0-9.448,20.094q-.3-8.874-.591-17.749h0c-.126-3.763-.453-8.493-4.323-10.342-2.46-1.175-5.2-.846-6.87,1.373-3.944,5.25-2.274,15.188-1.862,21.15Q2429.969,2664.348,2431.233,2672.2Z" transform="translate(-20.048 -0.004)" fill="#e82a5e"/>
      <path id="패스_501" data-name="패스 501" d="M2489.017,2641.121h0a8.638,8.638,0,0,0-4.937-.316c-2.371.783-3.628,3.31-4.586,5.616a185.772,185.772,0,0,0-11.7,40.807,8.048,8.048,0,0,0,.2,4.768c.838,1.759,2.78,2.671,4.61,3.339a101.756,101.756,0,0,0,17.218,4.1c2.02.359,4.149.71,6.08.018a6.006,6.006,0,0,0,3.638-3.78,2.957,2.957,0,0,0,.057-1.911,3.4,3.4,0,0,0-1.063-1.324c-4.451-3.781-10.743-4.168-16.37-5.727a3.508,3.508,0,0,1-2.082-1.18,3.428,3.428,0,0,1-.391-2.058,26.408,26.408,0,0,1,1.146-6.838,2.04,2.04,0,0,1,.751-1.225,2.123,2.123,0,0,1,1.5-.079l14.67,2.851a5.942,5.942,0,0,0,2.313.14c1.957-.4,2.96-2.583,3.37-4.539a3.572,3.572,0,0,0-.011-2.054c-.419-1.048-1.618-1.514-2.691-1.866l-9.4-3.086a7.883,7.883,0,0,1-2.612-1.23c-2.262-1.855-1.8-5.377-1.123-8.224a2.872,2.872,0,0,1,.779-1.624,2.837,2.837,0,0,1,2.25-.3,78.859,78.859,0,0,1,9.329,2c3.064.854,7.427,2.109,9.97-.585a5.325,5.325,0,0,0,.066-7.366c-2.085-2.046-5.569-2.837-8.2-3.89A119.509,119.509,0,0,0,2489.017,2641.121Z" transform="translate(-29.247 -1.739)" fill="#e82a5e"/>
    </g>
    <g id="그룹_328" data-name="그룹 328" transform="translate(-1995.026 -2157.799)">
      <path id="패스_502" data-name="패스 502" d="M2518.416,2766.078a5.513,5.513,0,0,0-.339-4.26,4.973,4.973,0,0,0-1.5-1.752,5.13,5.13,0,0,1-7.416-5.383,4.973,4.973,0,0,0-2.134-.885,5.489,5.489,0,0,0-4.146,1,7.7,7.7,0,0,0-2.9,5.356c-.48,3.2.087,6.285,1.623,12.44a.271.271,0,0,0,.1.158.263.263,0,0,0,.183.05c6.322-.444,9.433-.863,12.33-2.309A7.707,7.707,0,0,0,2518.416,2766.078Z" transform="translate(-24.102 -1.636)" fill="#d5284b"/>
      <path id="패스_503" data-name="패스 503" d="M2258.443,2845.882a5.511,5.511,0,0,0-3.615-2.28,4.99,4.99,0,0,0-2.3.151,5.129,5.129,0,0,1-8.751,2.715,4.98,4.98,0,0,0-1.987,1.18,5.488,5.488,0,0,0-1.683,3.917,7.7,7.7,0,0,0,2.553,5.53c2.273,2.3,5.086,3.694,10.936,6.15a.267.267,0,0,0,.189.011.259.259,0,0,0,.149-.117c3.432-5.329,4.958-8.071,5.535-11.257A7.7,7.7,0,0,0,2258.443,2845.882Z" transform="translate(0 -9.971)" fill="#d74072"/>
      <g id="그룹_327" data-name="그룹 327" transform="translate(2349.026 2758.603)">
        <path id="패스_504" data-name="패스 504" d="M2368.061,2868.053s13.14-81.247,36.52-107.107c0,0,58.669,23.888,89.181,57.882-.275,11.358-24.834,100.7-24.834,100.7Z" transform="translate(-2367.858 -2760.909)" fill="#a8c4b6"/>
        <g id="그룹_302" data-name="그룹 302" transform="translate(60.622 11.734)">
          <g id="그룹_289" data-name="그룹 289" transform="translate(11.792)">
            <path id="패스_505" data-name="패스 505" d="M2447.687,2777.242a3.348,3.348,0,0,0,3.259-.228,1.646,1.646,0,0,0-.02,1.662,2.248,2.248,0,0,0,1.367,1.275,2.16,2.16,0,0,0-.294-3.073c1.4-.351,1.907-.5,2.426-1.905-.912-.528-2.176.31-2.75,1a2.3,2.3,0,0,0-1.213-2.135s-1.059.737-.105,2.416c-.656-.561-2.192.379-2.7,1.027Z" transform="translate(-2447.659 -2773.84)" fill="#fff"/>
            <path id="패스_506" data-name="패스 506" d="M2451.5,2776.868a3.372,3.372,0,0,1,.508-.081,1.093,1.093,0,0,0-.455-.043c.008-.18.127-.19.125-.376-.124.086-.113.255-.258.294a1.785,1.785,0,0,1-.445-.105.625.625,0,0,1,.416.172,1.612,1.612,0,0,1-.306.251c.345-.052.434-.292.658.092a1.44,1.44,0,0,1-.209-.245" transform="translate(-2447.967 -2774.075)" fill="#fff"/>
          </g>
          <g id="그룹_290" data-name="그룹 290" transform="translate(7.318 14.452)">
            <path id="패스_507" data-name="패스 507" d="M2442.757,2793.177a3.334,3.334,0,0,0,3.26-.229,1.65,1.65,0,0,0-.028,1.664,2.259,2.259,0,0,0,1.373,1.269,2.154,2.154,0,0,0-.3-3.07c1.4-.353,1.9-.5,2.428-1.9-.913-.541-2.181.3-2.754.993a2.293,2.293,0,0,0-1.211-2.135s-1.06.741-.105,2.418c-.661-.562-2.188.386-2.694,1.022Z" transform="translate(-2442.728 -2789.77)" fill="#fff"/>
            <path id="패스_508" data-name="패스 508" d="M2446.573,2792.8a2.765,2.765,0,0,1,.5-.08,1.082,1.082,0,0,0-.457-.048c.011-.173.125-.187.129-.373-.128.083-.115.249-.26.3a2.3,2.3,0,0,1-.447-.112.65.65,0,0,1,.417.171,1.537,1.537,0,0,1-.306.251c.347-.051.43-.288.66.094a1.474,1.474,0,0,1-.213-.245" transform="translate(-2443.036 -2790.005)" fill="#fff"/>
          </g>
          <g id="그룹_291" data-name="그룹 291" transform="translate(9.451 5.719)">
            <path id="패스_509" data-name="패스 509" d="M2445.114,2780.7a2.445,2.445,0,0,0,1.971,1.6c-.563.121-.773.542-.993.97a1.762,1.762,0,0,0,.025,1.489,1.894,1.894,0,0,0,1.642-1.98,2.113,2.113,0,0,0,2.495.154c-.2-.8-1.41-.976-2.145-.868a1.878,1.878,0,0,0,.58-1.914s-1.033-.124-1.485,1.386c-.04-.689-1.462-.941-2.125-.826Z" transform="translate(-2445.079 -2780.144)" fill="#fff"/>
            <path id="패스_510" data-name="패스 510" d="M2447.664,2782.361a3.113,3.113,0,0,1,.334.221.8.8,0,0,0-.228-.264c.109-.1.18-.043.292-.157-.125-.021-.214.088-.318.039-.063-.03-.143-.238-.192-.3a.463.463,0,0,1,.137.322,1.376,1.376,0,0,1-.321-.008c.223.151.409.056.315.4a1.046,1.046,0,0,1,.023-.256" transform="translate(-2445.292 -2780.307)" fill="#fff"/>
          </g>
          <g id="그룹_292" data-name="그룹 292" transform="translate(5.006 10.25)">
            <path id="패스_511" data-name="패스 511" d="M2440.222,2785.687a2.445,2.445,0,0,0,1.979,1.6c-.575.12-.783.544-1,.974a1.729,1.729,0,0,0,.024,1.482,1.888,1.888,0,0,0,1.639-1.978,2.112,2.112,0,0,0,2.5.159c-.2-.8-1.415-.974-2.144-.865a1.879,1.879,0,0,0,.578-1.916s-1.034-.126-1.486,1.381c-.04-.689-1.466-.941-2.132-.829Z" transform="translate(-2440.179 -2785.138)" fill="#fff"/>
            <path id="패스_512" data-name="패스 512" d="M2442.775,2787.356a1.853,1.853,0,0,1,.333.22.736.736,0,0,0-.232-.271c.109-.1.183-.043.292-.152-.122-.017-.211.087-.315.034-.065-.033-.146-.237-.19-.3a.463.463,0,0,1,.135.323,1.547,1.547,0,0,1-.321-.012c.223.151.41.058.314.4a1.38,1.38,0,0,1,.025-.259" transform="translate(-2440.392 -2785.3)" fill="#fff"/>
          </g>
          <g id="그룹_293" data-name="그룹 293" transform="translate(2.674 3.723)">
            <path id="패스_513" data-name="패스 513" d="M2438.837,2777.956a2.311,2.311,0,0,0,.875,2.328,1.553,1.553,0,0,0-1.362.4,1.886,1.886,0,0,0-.741,1.33,1.99,1.99,0,0,0,2.43-.994c.587.94.815,1.272,2.063,1.3.246-.8-.708-1.519-1.395-1.764a2.03,2.03,0,0,0,1.482-1.427s-.824-.59-1.989.531c.319-.622-.774-1.508-1.4-1.717Z" transform="translate(-2437.609 -2777.944)" fill="#fff"/>
            <path id="패스_514" data-name="패스 514" d="M2440.3,2780.572a1.934,1.934,0,0,1,.174.353.725.725,0,0,0-.064-.345c.149-.042.185.043.333,0-.1-.074-.228-.028-.291-.119-.038-.055,0-.277-.008-.352a.46.46,0,0,1-.05.347,1.6,1.6,0,0,1-.27-.159c.117.239.327.244.063.5a1.309,1.309,0,0,1,.156-.213" transform="translate(-2437.843 -2778.145)" fill="#fff"/>
          </g>
          <g id="그룹_294" data-name="그룹 294" transform="translate(0 12.005)">
            <path id="패스_515" data-name="패스 515" d="M2434.7,2787.4a2.412,2.412,0,0,0,1.851,1.722c-.57.087-.811.5-1.058.911a1.757,1.757,0,0,0-.083,1.486,1.912,1.912,0,0,0,1.776-1.877,2.1,2.1,0,0,0,2.476.318c-.144-.809-1.338-1.063-2.073-1a1.9,1.9,0,0,0,.7-1.879s-1.017-.185-1.574,1.288c.01-.687-1.389-1.033-2.062-.959Z" transform="translate(-2434.661 -2787.073)" fill="#fff"/>
            <path id="패스_516" data-name="패스 516" d="M2437.124,2789.206a2.563,2.563,0,0,1,.316.245.734.734,0,0,0-.209-.283c.116-.089.184-.035.3-.136-.121-.021-.218.076-.321.017-.059-.029-.124-.247-.166-.31a.458.458,0,0,1,.11.325,1.447,1.447,0,0,1-.314-.027c.207.169.4.081.283.421a1.165,1.165,0,0,1,.045-.256" transform="translate(-2434.863 -2787.227)" fill="#fff"/>
          </g>
          <g id="그룹_295" data-name="그룹 295" transform="translate(12.096 9.593)">
            <path id="패스_517" data-name="패스 517" d="M2449.887,2784.428a2.451,2.451,0,0,0,.565,2.569,1.656,1.656,0,0,0-1.482.24,2.01,2.01,0,0,0-.976,1.293,2.128,2.128,0,0,0,2.695-.712c.465,1.065.66,1.438,1.952,1.643.375-.806-.513-1.695-1.188-2.048a2.17,2.17,0,0,0,1.761-1.295s-.775-.733-2.157.292c.426-.616-.578-1.694-1.206-2Z" transform="translate(-2447.994 -2784.414)" fill="#fff"/>
            <path id="패스_518" data-name="패스 518" d="M2451.086,2787.366a2.24,2.24,0,0,1,.128.4.745.745,0,0,0-.011-.37c.158-.022.183.071.344.039-.081-.085-.232-.051-.286-.164-.031-.057.043-.283.046-.367a.508.508,0,0,1-.109.358,1.333,1.333,0,0,1-.252-.2c.083.266.3.3-.009.538a1.651,1.651,0,0,1,.191-.21" transform="translate(-2448.267 -2784.645)" fill="#fff"/>
          </g>
          <g id="그룹_296" data-name="그룹 296" transform="translate(24.22 12.188)">
            <path id="패스_519" data-name="패스 519" d="M2461.385,2790.68a3.357,3.357,0,0,0,3.26-.229,1.641,1.641,0,0,0-.025,1.662,2.262,2.262,0,0,0,1.372,1.271,2.156,2.156,0,0,0-.295-3.068c1.4-.355,1.9-.5,2.424-1.907-.91-.533-2.176.313-2.749,1a2.3,2.3,0,0,0-1.217-2.135s-1.061.739-.1,2.416c-.654-.562-2.189.381-2.693,1.026Z" transform="translate(-2461.359 -2787.275)" fill="#fff"/>
            <path id="패스_520" data-name="패스 520" d="M2465.2,2790.3a2.781,2.781,0,0,1,.509-.078.96.96,0,0,0-.456-.042c.013-.177.125-.19.129-.381-.131.085-.115.255-.262.3a2.46,2.46,0,0,1-.446-.11.613.613,0,0,1,.42.176,2.149,2.149,0,0,1-.306.248c.346-.052.431-.288.66.092a1.608,1.608,0,0,1-.215-.246" transform="translate(-2461.666 -2787.51)" fill="#fff"/>
          </g>
          <g id="그룹_297" data-name="그룹 297" transform="translate(19.256 6.914)">
            <path id="패스_521" data-name="패스 521" d="M2455.927,2782.012a2.442,2.442,0,0,0,1.97,1.6c-.561.12-.77.543-.99.974a1.757,1.757,0,0,0,.026,1.486,1.9,1.9,0,0,0,1.642-1.982,2.111,2.111,0,0,0,2.493.161c-.2-.8-1.414-.977-2.138-.87a1.881,1.881,0,0,0,.571-1.911s-1.033-.125-1.482,1.38c-.042-.685-1.465-.942-2.131-.824Z" transform="translate(-2455.887 -2781.461)" fill="#fff"/>
            <path id="패스_522" data-name="패스 522" d="M2458.478,2783.677a2.336,2.336,0,0,1,.329.219.744.744,0,0,0-.227-.267c.112-.1.183-.043.3-.156-.121-.016-.214.089-.32.035-.064-.026-.143-.235-.189-.3a.444.444,0,0,1,.137.319,1.282,1.282,0,0,1-.325-.012c.227.154.416.058.317.406a1.063,1.063,0,0,1,.027-.258" transform="translate(-2456.1 -2781.624)" fill="#fff"/>
          </g>
          <g id="그룹_298" data-name="그룹 298" transform="translate(19.574 1.456)">
            <path id="패스_523" data-name="패스 523" d="M2457.464,2775.459a2.321,2.321,0,0,0,.874,2.327,1.531,1.531,0,0,0-1.352.4,1.857,1.857,0,0,0-.749,1.324,2,2,0,0,0,2.434-.989c.583.939.813,1.269,2.059,1.3.242-.8-.7-1.517-1.392-1.768a2.009,2.009,0,0,0,1.48-1.422s-.825-.59-1.985.532c.318-.623-.774-1.511-1.406-1.719Z" transform="translate(-2456.237 -2775.445)" fill="#fff"/>
            <path id="패스_524" data-name="패스 524" d="M2458.935,2778.073a2.18,2.18,0,0,1,.17.349.681.681,0,0,0-.06-.342c.149-.034.182.047.333,0-.094-.07-.228-.02-.3-.114a1.733,1.733,0,0,1,0-.354.463.463,0,0,1-.054.349,1.37,1.37,0,0,1-.268-.159c.113.24.327.243.063.5a1.225,1.225,0,0,1,.159-.214" transform="translate(-2456.471 -2775.646)" fill="#fff"/>
          </g>
          <g id="그룹_299" data-name="그룹 299" transform="translate(26.058 3.925)">
            <path id="패스_525" data-name="패스 525" d="M2463.425,2778.5a2.415,2.415,0,0,0,1.854,1.721c-.572.088-.815.5-1.061.909a1.742,1.742,0,0,0-.077,1.487,1.908,1.908,0,0,0,1.773-1.875,2.094,2.094,0,0,0,2.47.322c-.141-.815-1.336-1.07-2.071-1.009a1.887,1.887,0,0,0,.707-1.876s-1.019-.19-1.575,1.288c.011-.688-1.387-1.031-2.061-.96Z" transform="translate(-2463.385 -2778.167)" fill="#fff"/>
            <path id="패스_526" data-name="패스 526" d="M2465.851,2780.3a1.912,1.912,0,0,1,.311.248.685.685,0,0,0-.207-.288c.117-.092.188-.029.306-.132-.126-.028-.219.07-.325.015-.059-.035-.125-.25-.167-.315a.466.466,0,0,1,.114.333,1.225,1.225,0,0,1-.315-.033c.207.169.4.083.282.423a.9.9,0,0,1,.043-.256" transform="translate(-2463.588 -2778.32)" fill="#fff"/>
          </g>
          <g id="그룹_300" data-name="그룹 300" transform="translate(18.317 12.848)">
            <path id="패스_527" data-name="패스 527" d="M2454.888,2788.331a2.409,2.409,0,0,0,1.853,1.721c-.573.089-.812.5-1.059.912a1.775,1.775,0,0,0-.082,1.489,1.907,1.907,0,0,0,1.774-1.88,2.1,2.1,0,0,0,2.472.322c-.136-.815-1.333-1.067-2.067-1.006a1.9,1.9,0,0,0,.709-1.878s-1.022-.189-1.576,1.287c0-.691-1.392-1.036-2.06-.962Z" transform="translate(-2454.852 -2788.002)" fill="#fff"/>
            <path id="패스_528" data-name="패스 528" d="M2457.311,2790.134a2.424,2.424,0,0,1,.317.248.785.785,0,0,0-.21-.286c.121-.092.181-.031.306-.133-.122-.026-.22.076-.325.016-.058-.035-.124-.248-.164-.313a.471.471,0,0,1,.112.329,1.41,1.41,0,0,1-.317-.032c.213.167.4.085.284.424a1.373,1.373,0,0,1,.042-.253" transform="translate(-2455.054 -2788.157)" fill="#fff"/>
          </g>
          <g id="그룹_301" data-name="그룹 301" transform="translate(28.999 7.326)">
            <path id="패스_529" data-name="패스 529" d="M2468.517,2781.93a2.45,2.45,0,0,0,.566,2.571,1.632,1.632,0,0,0-1.479.236,1.994,1.994,0,0,0-.979,1.3,2.11,2.11,0,0,0,2.686-.713c.47,1.063.661,1.441,1.958,1.639.377-.806-.51-1.687-1.188-2.044a2.176,2.176,0,0,0,1.765-1.3s-.777-.734-2.158.291c.427-.614-.58-1.693-1.206-2Z" transform="translate(-2466.626 -2781.915)" fill="#fff"/>
            <path id="패스_530" data-name="패스 530" d="M2469.715,2784.874a2.074,2.074,0,0,1,.128.393.824.824,0,0,0-.014-.372c.159-.023.184.071.351.041-.091-.091-.239-.053-.291-.163-.032-.056.039-.288.043-.372a.5.5,0,0,1-.1.36,1.442,1.442,0,0,1-.26-.2c.082.263.3.3-.008.535a1.206,1.206,0,0,1,.193-.2" transform="translate(-2466.899 -2782.146)" fill="#fff"/>
          </g>
        </g>
        <g id="그룹_316" data-name="그룹 316" transform="translate(98.118 41.619)">
          <g id="그룹_303" data-name="그룹 303" transform="translate(4.895 5.938)">
            <path id="패스_531" data-name="패스 531" d="M2481.866,2819.713a3.337,3.337,0,0,0,2.129-2.475c.119.7.641.934,1.167,1.185a2.25,2.25,0,0,0,1.869-.077,2.159,2.159,0,0,0-2.39-1.95c.735-1.243.981-1.71.353-3.067-1.018.278-1.312,1.762-1.224,2.663a2.3,2.3,0,0,0-2.374-.645s-.22,1.273,1.645,1.779c-.861.07-1.27,1.825-1.167,2.638Z" transform="translate(-2481.388 -2813.328)" fill="#fff"/>
            <path id="패스_532" data-name="패스 532" d="M2484.1,2817.1a3.4,3.4,0,0,1,.3-.419,1.109,1.109,0,0,0-.351.295c-.121-.133-.044-.225-.176-.354-.029.151.1.26.027.393-.041.071-.309.183-.39.241a.613.613,0,0,1,.415-.174,1.5,1.5,0,0,1-.039.391c.208-.28.1-.511.529-.4a1.555,1.555,0,0,1-.321-.022" transform="translate(-2481.585 -2813.633)" fill="#fff"/>
          </g>
          <g id="그룹_304" data-name="그룹 304" transform="translate(12.014 19.292)">
            <path id="패스_533" data-name="패스 533" d="M2489.715,2834.433a3.348,3.348,0,0,0,2.128-2.482c.117.693.634.937,1.162,1.195a2.283,2.283,0,0,0,1.874-.082,2.157,2.157,0,0,0-2.391-1.949c.735-1.247.978-1.71.357-3.067-1.024.273-1.319,1.763-1.229,2.659a2.3,2.3,0,0,0-2.373-.641s-.217,1.277,1.648,1.775c-.866.074-1.27,1.825-1.172,2.636Z" transform="translate(-2489.235 -2828.047)" fill="#fff"/>
            <path id="패스_534" data-name="패스 534" d="M2491.948,2831.816a2.6,2.6,0,0,1,.3-.41,1.008,1.008,0,0,0-.355.284c-.117-.128-.044-.219-.176-.352-.029.151.1.256.029.394-.041.071-.307.181-.388.238a.631.631,0,0,1,.412-.176,1.984,1.984,0,0,1-.034.395c.2-.283.094-.51.528-.4a1.339,1.339,0,0,1-.324-.022" transform="translate(-2489.432 -2828.353)" fill="#fff"/>
          </g>
          <g id="그룹_305" data-name="그룹 305" transform="translate(5.75 13.076)">
            <path id="패스_535" data-name="패스 535" d="M2482.347,2824.123a2.443,2.443,0,0,0,2.526-.277,1.483,1.483,0,0,0-.009,1.39,1.764,1.764,0,0,0,1.076,1.033,1.907,1.907,0,0,0-.253-2.567c1.079-.333,1.47-.477,1.867-1.661-.709-.417-1.689.314-2.125.916a1.875,1.875,0,0,0-.956-1.759s-.813.648-.063,2.028c-.515-.457-1.693.378-2.079.931Z" transform="translate(-2482.33 -2821.196)" fill="#fff"/>
            <path id="패스_536" data-name="패스 536" d="M2485.3,2823.713a2.611,2.611,0,0,1,.39-.084.848.848,0,0,0-.353-.026c.008-.144.1-.156.1-.318-.1.079-.088.217-.2.256-.065.025-.267-.062-.348-.076a.431.431,0,0,1,.321.128,1.358,1.358,0,0,1-.229.222c.262-.051.328-.25.505.061a1.367,1.367,0,0,1-.163-.2" transform="translate(-2482.568 -2821.39)" fill="#fff"/>
          </g>
          <g id="그룹_306" data-name="그룹 306" transform="translate(5.835 19.415)">
            <path id="패스_537" data-name="패스 537" d="M2482.45,2831.108a2.444,2.444,0,0,0,2.527-.28,1.455,1.455,0,0,0-.01,1.393,1.739,1.739,0,0,0,1.07,1.029,1.9,1.9,0,0,0-.25-2.562c1.084-.333,1.472-.477,1.867-1.657-.708-.421-1.686.314-2.124.91a1.871,1.871,0,0,0-.952-1.757s-.818.643-.064,2.025c-.519-.452-1.7.381-2.089.934Z" transform="translate(-2482.424 -2828.183)" fill="#fff"/>
            <path id="패스_538" data-name="패스 538" d="M2485.4,2830.7a2.039,2.039,0,0,1,.392-.081.766.766,0,0,0-.354-.026c.005-.146.1-.16.1-.315-.1.073-.088.21-.2.25-.069.021-.267-.064-.345-.077a.454.454,0,0,1,.324.132,1.79,1.79,0,0,1-.234.219c.262-.052.328-.253.507.06a1.483,1.483,0,0,1-.166-.2" transform="translate(-2482.662 -2828.377)" fill="#fff"/>
          </g>
          <g id="그룹_307" data-name="그룹 307" transform="translate(0 16.626)">
            <path id="패스_539" data-name="패스 539" d="M2476.028,2826.665a2.312,2.312,0,0,0,2.266,1.017,1.549,1.549,0,0,0-.67,1.248,1.876,1.876,0,0,0,.42,1.459,1.989,1.989,0,0,0,1.007-2.422c1.08.242,1.475.316,2.372-.552-.392-.735-1.573-.565-2.232-.25a2.027,2.027,0,0,0,.029-2.058s-1,.17-1.021,1.786c-.218-.665-1.614-.511-2.207-.213Z" transform="translate(-2475.992 -2825.109)" fill="#fff"/>
            <path id="패스_540" data-name="패스 540" d="M2478.844,2827.686a1.812,1.812,0,0,1,.373.127.672.672,0,0,0-.289-.2c.076-.136.16-.1.236-.235-.121.017-.182.144-.29.119-.061-.011-.2-.189-.254-.24a.5.5,0,0,1,.212.283,1.907,1.907,0,0,1-.31.081c.257.081.407-.062.4.305a1.51,1.51,0,0,1-.04-.261" transform="translate(-2476.227 -2825.308)" fill="#fff"/>
          </g>
          <g id="그룹_308" data-name="그룹 308" transform="translate(3.404 24.199)">
            <path id="패스_541" data-name="패스 541" d="M2479.768,2836.236a2.4,2.4,0,0,0,2.523-.1,1.49,1.49,0,0,0-.094,1.391,1.735,1.735,0,0,0,1,1.1,1.912,1.912,0,0,0-.083-2.581c1.1-.258,1.5-.371,1.969-1.532-.68-.471-1.7.2-2.174.766a1.891,1.891,0,0,0-.836-1.823s-.851.593-.2,2.023c-.481-.491-1.71.261-2.129.789Z" transform="translate(-2479.744 -2833.457)" fill="#fff"/>
            <path id="패스_542" data-name="패스 542" d="M2482.743,2836.018a1.9,1.9,0,0,1,.4-.049.714.714,0,0,0-.346-.052c.018-.145.106-.156.115-.313-.1.071-.1.208-.211.239-.068.02-.266-.082-.342-.1a.463.463,0,0,1,.309.153,1.329,1.329,0,0,1-.242.205c.27-.034.345-.233.5.1a1.325,1.325,0,0,1-.147-.213" transform="translate(-2479.986 -2833.656)" fill="#fff"/>
          </g>
          <g id="그룹_309" data-name="그룹 309" transform="translate(11.268 13.975)">
            <path id="패스_543" data-name="패스 543" d="M2488.449,2823.364a2.454,2.454,0,0,0,2.224,1.4c-.559.225-.708.717-.873,1.221a2.017,2.017,0,0,0,.232,1.6,2.118,2.118,0,0,0,1.389-2.413c1.084.422,1.486.549,2.544-.229-.311-.834-1.568-.829-2.3-.6a2.163,2.163,0,0,0,.321-2.163s-1.066.036-1.309,1.738c-.137-.736-1.61-.777-2.27-.546Z" transform="translate(-2488.412 -2822.187)" fill="#fff"/>
            <path id="패스_544" data-name="패스 544" d="M2491.26,2824.809a2.189,2.189,0,0,1,.369.184.73.73,0,0,0-.269-.252c.1-.125.179-.078.271-.216-.118,0-.2.129-.317.093-.064-.022-.17-.233-.231-.3a.525.525,0,0,1,.18.329,1.2,1.2,0,0,1-.32.033c.243.136.418,0,.374.392a1.279,1.279,0,0,1-.012-.284" transform="translate(-2488.647 -2822.385)" fill="#fff"/>
          </g>
          <g id="그룹_310" data-name="그룹 310" transform="translate(22.302 5.691)">
            <path id="패스_545" data-name="패스 545" d="M2501.05,2819.441a3.361,3.361,0,0,0,2.133-2.479c.119.7.634.935,1.161,1.188a2.275,2.275,0,0,0,1.871-.078,2.153,2.153,0,0,0-2.391-1.948c.74-1.248.983-1.71.356-3.068-1.019.27-1.314,1.767-1.225,2.661a2.292,2.292,0,0,0-2.371-.643s-.226,1.272,1.642,1.774c-.86.069-1.271,1.83-1.168,2.639Z" transform="translate(-2500.575 -2813.055)" fill="#fff"/>
            <path id="패스_546" data-name="패스 546" d="M2503.282,2816.824a2.716,2.716,0,0,1,.3-.416,1.026,1.026,0,0,0-.352.291c-.119-.131-.046-.222-.176-.357-.032.153.1.263.025.4a2.578,2.578,0,0,1-.391.236.627.627,0,0,1,.415-.175,1.539,1.539,0,0,1-.035.394c.207-.282.1-.507.53-.4a1.3,1.3,0,0,1-.325-.022" transform="translate(-2500.771 -2813.36)" fill="#fff"/>
          </g>
          <g id="그룹_311" data-name="그룹 311" transform="translate(13.498 6.948)">
            <path id="패스_547" data-name="패스 547" d="M2490.891,2817.364a2.439,2.439,0,0,0,2.519-.277,1.488,1.488,0,0,0,0,1.388,1.741,1.741,0,0,0,1.072,1.028,1.9,1.9,0,0,0-.25-2.564c1.084-.329,1.468-.475,1.864-1.655-.7-.424-1.686.316-2.12.906a1.883,1.883,0,0,0-.96-1.749s-.814.644-.061,2.026c-.515-.455-1.7.377-2.083.932Z" transform="translate(-2490.871 -2814.441)" fill="#fff"/>
            <path id="패스_548" data-name="패스 548" d="M2493.845,2816.954a1.88,1.88,0,0,1,.387-.081.771.771,0,0,0-.351-.027c.007-.145.1-.159.1-.318-.1.073-.087.213-.2.251-.063.025-.268-.065-.346-.073a.457.457,0,0,1,.327.13,1.4,1.4,0,0,1-.24.218c.27-.048.335-.253.511.06a1.188,1.188,0,0,1-.163-.2" transform="translate(-2491.109 -2814.635)" fill="#fff"/>
          </g>
          <g id="그룹_312" data-name="그룹 312" transform="translate(10.284 3.024)">
            <path id="패스_549" data-name="패스 549" d="M2487.359,2811.674a2.328,2.328,0,0,0,2.273,1.016,1.53,1.53,0,0,0-.666,1.245,1.852,1.852,0,0,0,.415,1.465,2,2,0,0,0,1.007-2.427c1.08.247,1.473.314,2.375-.549-.4-.738-1.578-.567-2.235-.255a2.029,2.029,0,0,0,.034-2.055s-1,.176-1.021,1.786c-.222-.663-1.619-.514-2.213-.209Z" transform="translate(-2487.328 -2810.115)" fill="#fff"/>
            <path id="패스_550" data-name="패스 550" d="M2490.185,2812.7a2.153,2.153,0,0,1,.368.125.706.706,0,0,0-.288-.2c.08-.134.161-.1.235-.238-.116.017-.177.144-.291.124-.058-.011-.194-.192-.253-.244a.463.463,0,0,1,.209.283,1.125,1.125,0,0,1-.3.079c.245.087.4-.062.4.308a1.39,1.39,0,0,1-.04-.262" transform="translate(-2487.563 -2810.315)" fill="#fff"/>
          </g>
          <g id="그룹_313" data-name="그룹 313" transform="translate(16.005)">
            <path id="패스_551" data-name="패스 551" d="M2493.654,2809.561a2.418,2.418,0,0,0,2.526-.1,1.5,1.5,0,0,0-.1,1.394,1.735,1.735,0,0,0,1,1.1,1.91,1.91,0,0,0-.083-2.581c1.1-.255,1.493-.369,1.965-1.53-.678-.47-1.7.2-2.172.76a1.889,1.889,0,0,0-.833-1.819s-.853.589-.2,2.024c-.484-.491-1.71.26-2.13.788Z" transform="translate(-2493.634 -2806.782)" fill="#fff"/>
            <path id="패스_552" data-name="패스 552" d="M2496.635,2809.344a1.731,1.731,0,0,1,.4-.047.693.693,0,0,0-.352-.056c.018-.149.112-.157.122-.31-.106.069-.1.205-.217.239-.068.021-.269-.087-.343-.1a.478.478,0,0,1,.315.151,1.4,1.4,0,0,1-.242.205c.26-.028.342-.227.5.1a.989.989,0,0,1-.148-.211" transform="translate(-2493.876 -2806.981)" fill="#fff"/>
          </g>
          <g id="그룹_314" data-name="그룹 314" transform="translate(16.89 11.78)">
            <path id="패스_553" data-name="패스 553" d="M2494.636,2822.549a2.415,2.415,0,0,0,2.525-.106,1.489,1.489,0,0,0-.1,1.4,1.785,1.785,0,0,0,1,1.1,1.906,1.906,0,0,0-.085-2.582c1.1-.256,1.5-.372,1.966-1.531-.671-.476-1.7.2-2.169.765a1.9,1.9,0,0,0-.835-1.825s-.851.593-.2,2.023c-.485-.487-1.715.262-2.133.788Z" transform="translate(-2494.61 -2819.767)" fill="#fff"/>
            <path id="패스_554" data-name="패스 554" d="M2497.609,2822.33a3.6,3.6,0,0,1,.4-.053.793.793,0,0,0-.354-.047c.021-.149.108-.152.123-.311-.1.07-.1.207-.215.237-.066.02-.266-.082-.339-.1a.471.471,0,0,1,.312.15,1.382,1.382,0,0,1-.245.206c.269-.033.339-.227.5.093a.971.971,0,0,1-.15-.208" transform="translate(-2494.853 -2819.967)" fill="#fff"/>
          </g>
          <g id="그룹_315" data-name="그룹 315" transform="translate(21.551 0.373)">
            <path id="패스_555" data-name="패스 555" d="M2499.79,2808.372a2.435,2.435,0,0,0,2.222,1.4,1.614,1.614,0,0,0-.87,1.22,1.977,1.977,0,0,0,.231,1.6,2.117,2.117,0,0,0,1.383-2.411c1.085.418,1.488.549,2.545-.232-.308-.837-1.561-.827-2.292-.594a2.179,2.179,0,0,0,.324-2.167s-1.069.033-1.313,1.735c-.137-.733-1.608-.776-2.271-.546Z" transform="translate(-2499.748 -2807.193)" fill="#fff"/>
            <path id="패스_556" data-name="패스 556" d="M2502.6,2809.82a1.871,1.871,0,0,1,.365.18.846.846,0,0,0-.271-.25c.1-.127.178-.079.275-.221-.128,0-.2.132-.32.1-.064-.018-.174-.234-.23-.3a.51.51,0,0,1,.18.33,1.781,1.781,0,0,1-.327.042c.247.123.426,0,.378.38a1.179,1.179,0,0,1-.01-.28" transform="translate(-2499.982 -2807.391)" fill="#fff"/>
          </g>
        </g>
        <path id="패스_557" data-name="패스 557" d="M2409.3,2867.711s30.363,11.346,36.406,23.206" transform="translate(-2371.685 -2770.817)" fill="none" stroke="#679760" stroke-miterlimit="10" stroke-width="1"/>
        <path id="패스_558" data-name="패스 558" d="M2421.547,2805.717s33.795,55.277,33.8,90.976" transform="translate(-2372.822 -2765.064)" fill="none" stroke="#679760" stroke-miterlimit="10" stroke-width="1"/>
        <path id="패스_559" data-name="패스 559" d="M2471.348,2834.949s-1,31.555-5.147,45.543" transform="translate(-2376.966 -2767.777)" fill="none" stroke="#679760" stroke-miterlimit="10" stroke-width="1"/>
        <line id="선_2" data-name="선 2" x2="16.898" y2="17.903" transform="translate(57.792 77.915)" fill="none" stroke="#679760" stroke-miterlimit="10" stroke-width="1"/>
        <path id="패스_560" data-name="패스 560" d="M2389.482,2840.13c-5.656,7.792-4.381,18.37,2.855,23.628s17.687,3.2,23.348-4.582,4.382-18.371-2.851-23.627S2395.147,2832.343,2389.482,2840.13Z" transform="translate(-2369.518 -2767.562)" fill="#d6385b"/>
        <path id="패스_561" data-name="패스 561" d="M2376.379,2852.108c-4.394,10.045-1.3,21.1,6.895,24.678s18.4-1.667,22.782-11.715,1.3-21.091-6.891-24.668S2380.769,2842.06,2376.379,2852.108Z" transform="translate(-2368.444 -2768.178)" fill="#d42a3f"/>
        <path id="패스_562" data-name="패스 562" d="M2370.07,2844.172c-4.394,10.047-1.306,21.094,6.892,24.673s18.4-1.656,22.791-11.707,1.3-21.1-6.893-24.675S2374.462,2834.125,2370.07,2844.172Z" transform="translate(-2367.859 -2767.441)" fill="#d6385b"/>
        <path id="패스_563" data-name="패스 563" d="M2375.849,2855.819c-.943-7.645,5.651-14.751,14.728-15.871s17.2,4.162,18.142,11.812-5.646,14.745-14.723,15.865S2376.791,2863.46,2375.849,2855.819Z" transform="translate(-2368.572 -2768.227)" fill="#d5284b"/>
        <path id="패스_564" data-name="패스 564" d="M2388.217,2856.182c-.337-1.4,1.726-3.1,4.606-3.8s5.493-.113,5.833,1.295-1.724,3.1-4.61,3.8S2388.557,2857.585,2388.217,2856.182Z" transform="translate(-2369.725 -2769.368)" fill="#dfd5a8"/>
        <path id="패스_565" data-name="패스 565" d="M2394.612,2775.46c-3.584,10.875,1.693,22.387,11.79,25.723s21.189-2.78,24.777-13.65-1.691-22.39-11.785-25.716S2398.2,2764.591,2394.612,2775.46Z" transform="translate(-2370.218 -2760.906)" fill="#d74072"/>
        <path id="패스_566" data-name="패스 566" d="M2384.228,2793.721c-1.333,12.966,6.167,24.363,16.748,25.455,10.572,1.076,20.235-8.553,21.558-21.522s-6.164-24.354-16.743-25.44S2385.561,2780.753,2384.228,2793.721Z" transform="translate(-2369.344 -2761.947)" fill="#cf2b60"/>
        <path id="패스_567" data-name="패스 567" d="M2374.214,2787.024c-1.337,12.965,6.162,24.358,16.74,25.444s20.233-8.546,21.569-21.516-6.171-24.359-16.747-25.438C2385.2,2764.42,2375.542,2774.051,2374.214,2787.024Z" transform="translate(-2368.415 -2761.325)" fill="#cf2b60"/>
        <path id="패스_568" data-name="패스 568" d="M2384.757,2798.164c-3.842-8.314,1.051-18.749,10.922-23.3s20.989-1.518,24.823,6.8-1.053,18.743-10.923,23.3S2388.59,2806.482,2384.757,2798.164Z" transform="translate(-2369.286 -2762.004)" fill="#d74072"/>
        <path id="패스_569" data-name="패스 569" d="M2398.436,2794.607c-.893-1.472.881-4.172,3.95-6.032s6.281-2.185,7.178-.72-.881,4.173-3.953,6.036S2399.328,2796.075,2398.436,2794.607Z" transform="translate(-2370.655 -2763.321)" fill="#dfd5a8"/>
        <path id="패스_570" data-name="패스 570" d="M2462.558,2799.643c-8.349,5.957-10.637,17.066-5.106,24.823s16.775,9.213,25.122,3.265,10.635-17.073,5.109-24.819S2470.909,2793.7,2462.558,2799.643Z" transform="translate(-2375.873 -2764.161)" fill="#d43460"/>
        <path id="패스_571" data-name="패스 571" d="M2445.118,2807.368c-7.831,8.657-8.444,20.86-1.385,27.249s19.143,4.541,26.973-4.124,8.443-20.853,1.38-27.24S2452.952,2798.706,2445.118,2807.368Z" transform="translate(-2374.424 -2764.482)" fill="#d24468"/>
        <path id="패스_572" data-name="패스 572" d="M2441.434,2797.22c-7.835,8.661-8.45,20.858-1.384,27.245s19.142,4.544,26.973-4.119,8.444-20.86,1.379-27.242S2449.268,2788.557,2441.434,2797.22Z" transform="translate(-2374.082 -2763.54)" fill="#d6385b"/>
        <path id="패스_573" data-name="패스 573" d="M2444.009,2816.063c-1.621-8.042,4.808-16.117,14.354-18.037s18.6,3.04,20.22,11.079-4.812,16.111-14.362,18.031S2445.622,2824.1,2444.009,2816.063Z" transform="translate(-2374.883 -2764.312)" fill="#d5284b"/>
        <path id="패스_574" data-name="패스 574" d="M2457.163,2815.145c.135-1.536,2.5-2.576,5.281-2.333s4.931,1.684,4.8,3.218-2.5,2.574-5.284,2.333S2457.028,2816.677,2457.163,2815.145Z" transform="translate(-2376.126 -2765.719)" fill="#dfd5a8"/>
        <path id="패스_575" data-name="패스 575" d="M2501.22,2825.932l-5.777,95.765-62.975-19.115Z" transform="translate(-2373.835 -2766.94)" fill="#b1ccbd"/>
        <path id="패스_576" data-name="패스 576" d="M2367.837,2878.5l119.085,118.826,5.536-107.585S2449.846,2902.763,2367.837,2878.5Z" transform="translate(-2367.837 -2771.819)" fill="#b7d4c6"/>
        <path id="패스_577" data-name="패스 577" d="M2399.624,2889.057s19.646-8.309,31.746-8.935C2431.37,2880.122,2412.961,2864.224,2399.624,2889.057Z" transform="translate(-2370.787 -2771.504)" fill="#679760" stroke="#679760" stroke-miterlimit="10" stroke-width="1"/>
        <path id="패스_578" data-name="패스 578" d="M2454.628,2880.3s11.741-25.11,22.875-36.24C2477.5,2844.063,2445.91,2844.727,2454.628,2880.3Z" transform="translate(-2375.75 -2768.623)" fill="#679760" stroke="#679760" stroke-miterlimit="10" stroke-width="1"/>
        <path id="패스_579" data-name="패스 579" d="M2429.6,2819.1s4.765-14.08,10.22-20.342C2439.821,2798.763,2422.031,2799.214,2429.6,2819.1Z" transform="translate(-2373.395 -2764.419)" fill="#679760" stroke="#679760" stroke-miterlimit="10" stroke-width="1"/>
        <path id="패스_580" data-name="패스 580" d="M2404.786,2828.589s19.816,2.257,30.311,6.935C2435.1,2835.524,2425.556,2816.039,2404.786,2828.589Z" transform="translate(-2371.266 -2766.796)" fill="#679760" stroke="#679760" stroke-miterlimit="10" stroke-width="1"/>
        <g id="그룹_326" data-name="그룹 326" transform="translate(38.136 56.626)">
          <g id="그룹_317" data-name="그룹 317" transform="translate(0 16.724)">
            <path id="패스_581" data-name="패스 581" d="M2413.157,2850.881a4.307,4.307,0,0,0,.821-4.118,2.1,2.1,0,0,0,2.051.591,2.9,2.9,0,0,0,2.045-1.263,2.772,2.772,0,0,0-3.907-.677c.036-1.858.019-2.536-1.54-3.654-.966.949-.356,2.8.307,3.75a2.952,2.952,0,0,0-3.06.78s.56,1.562,2.966.947c-.922.623-.275,2.847.356,3.69Z" transform="translate(-2409.874 -2841.759)" fill="#fff"/>
            <path id="패스_582" data-name="패스 582" d="M2413.914,2846.728a3.632,3.632,0,0,1,.072-.654,1.336,1.336,0,0,0-.208.544c-.217-.076-.19-.218-.424-.285.063.188.279.228.281.423,0,.106-.231.4-.285.517a.774.774,0,0,1,.352-.457,2.131,2.131,0,0,1,.208.463c.052-.447-.212-.632.335-.784a1.92,1.92,0,0,1-.374.177" transform="translate(-2410.197 -2842.159)" fill="#fff"/>
          </g>
          <g id="그룹_318" data-name="그룹 318" transform="translate(6.041 24.099)">
            <path id="패스_583" data-name="패스 583" d="M2416.533,2855.5a3.141,3.141,0,0,0,2.651-1.907,1.92,1.92,0,0,0,.873,1.564,2.244,2.244,0,0,0,1.85.476,2.438,2.438,0,0,0-1.9-2.709c1-1.06,1.351-1.467,1.044-3.038-1.059-.024-1.694,1.414-1.807,2.365a2.415,2.415,0,0,0-2.174-1.372s-.5,1.24,1.211,2.309c-.867-.183-1.663,1.5-1.746,2.358Z" transform="translate(-2416.533 -2849.889)" fill="#fff"/>
            <path id="패스_584" data-name="패스 584" d="M2419.4,2853.386a3.474,3.474,0,0,1,.385-.337.956.956,0,0,0-.408.191c-.087-.165.006-.238-.1-.414-.065.148.038.295-.059.409-.06.067-.343.094-.436.133a.588.588,0,0,1,.445-.061,1.981,1.981,0,0,1-.122.395c.264-.226.208-.49.606-.253a1.612,1.612,0,0,1-.312-.119" transform="translate(-2416.742 -2850.161)" fill="#fff"/>
          </g>
          <g id="그룹_319" data-name="그룹 319" transform="translate(11.674 21.714)">
            <path id="패스_585" data-name="패스 585" d="M2422.77,2850.809a3.147,3.147,0,0,0,3.379.171,2.114,2.114,0,0,0-.207,1.914,2.6,2.6,0,0,0,1.272,1.652,2.73,2.73,0,0,0,.03-3.577c1.478-.221,2.008-.327,2.7-1.865-.876-.736-2.278.06-2.942.777a2.792,2.792,0,0,0-1.009-2.623s-1.173.714-.372,2.773c-.616-.738-2.294.144-2.883.819Z" transform="translate(-2422.742 -2847.259)" fill="#fff"/>
            <path id="패스_586" data-name="패스 586" d="M2426.769,2850.868a3.209,3.209,0,0,1,.531-.03.95.95,0,0,0-.462-.108c.031-.2.151-.2.171-.414-.138.077-.144.27-.3.3-.086.015-.341-.153-.442-.186a.685.685,0,0,1,.406.254,1.6,1.6,0,0,1-.338.246c.356-.011.472-.271.663.2a2.034,2.034,0,0,1-.194-.31" transform="translate(-2423.069 -2847.543)" fill="#fff"/>
          </g>
          <g id="그룹_320" data-name="그룹 320" transform="translate(19.328 5.467)">
            <path id="패스_587" data-name="패스 587" d="M2434.456,2838.467c1.041-1.579,1.182-2.071.826-4.119a2.118,2.118,0,0,0,2.051.6,2.905,2.905,0,0,0,2.042-1.269,2.778,2.778,0,0,0-3.9-.673c.039-1.861.02-2.531-1.534-3.651-.977.942-.357,2.8.3,3.744a2.955,2.955,0,0,0-3.059.78s.552,1.563,2.958.947c-.922.629-.272,2.849.358,3.692Z" transform="translate(-2431.179 -2829.35)" fill="#fff"/>
            <path id="패스_588" data-name="패스 588" d="M2435.212,2834.312a4,4,0,0,1,.079-.653,1.255,1.255,0,0,0-.211.551c-.214-.074-.194-.223-.419-.289.056.187.269.23.275.419,0,.114-.231.4-.288.519a.814.814,0,0,1,.355-.457,2.128,2.128,0,0,1,.208.461c.057-.441-.211-.632.337-.78a1.621,1.621,0,0,1-.375.171" transform="translate(-2431.501 -2829.75)" fill="#fff"/>
          </g>
          <g id="그룹_321" data-name="그룹 321" transform="translate(10.85 12.344)">
            <path id="패스_589" data-name="패스 589" d="M2421.837,2842.545a3.112,3.112,0,0,0,2.64-1.9,1.922,1.922,0,0,0,.876,1.563,2.256,2.256,0,0,0,1.848.474,2.432,2.432,0,0,0-1.9-2.71c1-1.058,1.342-1.46,1.043-3.038-1.058-.025-1.689,1.419-1.8,2.359a2.421,2.421,0,0,0-2.176-1.363s-.506,1.242,1.21,2.312c-.865-.183-1.662,1.5-1.745,2.355Z" transform="translate(-2421.834 -2836.931)" fill="#fff"/>
            <path id="패스_590" data-name="패스 590" d="M2424.7,2840.43a3.124,3.124,0,0,1,.385-.335.976.976,0,0,0-.407.189c-.086-.167.006-.238-.094-.416-.061.145.037.293-.063.411-.055.065-.343.1-.436.131a.605.605,0,0,1,.447-.058,1.964,1.964,0,0,1-.126.392c.265-.221.215-.489.607-.249a1.787,1.787,0,0,1-.309-.125" transform="translate(-2422.043 -2837.203)" fill="#fff"/>
          </g>
          <g id="그룹_322" data-name="그룹 322" transform="translate(3.904 10.299)">
            <path id="패스_591" data-name="패스 591" d="M2414.206,2838.434a2.977,2.977,0,0,0,3.182-.291,1.984,1.984,0,0,0,.039,1.814,2.4,2.4,0,0,0,1.386,1.374,2.562,2.562,0,0,0-.4-3.351c1.359-.4,1.848-.579,2.31-2.112-.91-.573-2.121.361-2.661,1.127a2.6,2.6,0,0,0-1.263-2.319s-1.012.822-.014,2.646c-.666-.612-2.137.445-2.61,1.156Z" transform="translate(-2414.177 -2834.676)" fill="#fff"/>
            <path id="패스_592" data-name="패스 592" d="M2417.92,2837.98a2.747,2.747,0,0,1,.488-.093.886.886,0,0,0-.447-.045c.008-.19.12-.205.115-.408-.12.093-.1.274-.245.323-.076.024-.339-.091-.441-.115a.622.622,0,0,1,.417.187,1.7,1.7,0,0,1-.289.277c.333-.06.412-.321.644.094a1.559,1.559,0,0,1-.213-.268" transform="translate(-2414.475 -2834.932)" fill="#fff"/>
          </g>
          <g id="그룹_323" data-name="그룹 323" transform="translate(9.176 3.157)">
            <path id="패스_593" data-name="패스 593" d="M2420,2832.085a3.119,3.119,0,0,0,2.764-1.707,1.921,1.921,0,0,0,.766,1.621,2.235,2.235,0,0,0,1.813.6,2.451,2.451,0,0,0-1.719-2.84c1.073-.981,1.435-1.354,1.238-2.951-1.057-.1-1.781,1.291-1.955,2.226a2.414,2.414,0,0,0-2.081-1.514s-.583,1.2,1.055,2.387c-.847-.244-1.747,1.373-1.888,2.229Z" transform="translate(-2419.989 -2826.803)" fill="#fff"/>
            <path id="패스_594" data-name="패스 594" d="M2423.023,2830.152a2.286,2.286,0,0,1,.406-.307.816.816,0,0,0-.422.162c-.075-.177.024-.246-.065-.423-.072.143.018.295-.09.4-.062.061-.352.069-.44.1a.593.593,0,0,1,.447-.029,1.819,1.819,0,0,1-.151.384c.277-.2.245-.478.618-.206a1.677,1.677,0,0,1-.3-.142" transform="translate(-2420.214 -2827.062)" fill="#fff"/>
          </g>
          <g id="그룹_324" data-name="그룹 324" transform="translate(17.604 15.784)">
            <path id="패스_595" data-name="패스 595" d="M2429.289,2846.008a3.106,3.106,0,0,0,2.761-1.712,1.911,1.911,0,0,0,.771,1.619,2.256,2.256,0,0,0,1.812.6,2.456,2.456,0,0,0-1.718-2.835c1.066-.984,1.432-1.361,1.231-2.955-1.055-.1-1.778,1.292-1.949,2.223a2.442,2.442,0,0,0-2.087-1.519s-.579,1.2,1.055,2.394c-.844-.241-1.748,1.374-1.886,2.225Z" transform="translate(-2429.279 -2840.723)" fill="#fff"/>
            <path id="패스_596" data-name="패스 596" d="M2432.31,2844.07a3.863,3.863,0,0,1,.414-.313,1.114,1.114,0,0,0-.426.166c-.074-.175.026-.235-.063-.419-.073.141.02.295-.087.4-.062.065-.349.073-.445.105a.594.594,0,0,1,.446-.031,1.743,1.743,0,0,1-.146.383c.279-.2.241-.469.624-.206a1.478,1.478,0,0,1-.3-.141" transform="translate(-2429.504 -2840.981)" fill="#fff"/>
          </g>
          <g id="그룹_325" data-name="그룹 325" transform="translate(14.603)">
            <path id="패스_597" data-name="패스 597" d="M2426.005,2826.875a3.139,3.139,0,0,0,3.374.168,2.125,2.125,0,0,0-.206,1.915,2.562,2.562,0,0,0,1.274,1.651,2.716,2.716,0,0,0,.026-3.576c1.479-.217,2.013-.33,2.7-1.865-.875-.739-2.272.06-2.939.779a2.792,2.792,0,0,0-1.01-2.623s-1.168.709-.374,2.771c-.612-.739-2.29.142-2.882.818Z" transform="translate(-2425.971 -2823.324)" fill="#fff"/>
            <path id="패스_598" data-name="패스 598" d="M2430.007,2826.928a3.05,3.05,0,0,1,.529-.027,1.075,1.075,0,0,0-.464-.108c.025-.2.149-.2.17-.42-.139.084-.145.274-.3.307-.083.016-.346-.152-.449-.184a.631.631,0,0,1,.412.249,1.785,1.785,0,0,1-.338.257c.354-.016.473-.278.662.192a1.824,1.824,0,0,1-.185-.311" transform="translate(-2426.298 -2823.607)" fill="#fff"/>
          </g>
        </g>
      </g>
      <path id="패스_599" data-name="패스 599" d="M2310.523,2894.429a10.3,10.3,0,0,0,1.275,4.013,2.023,2.023,0,1,1,0,3.816,10.219,10.219,0,0,0-1.275,4.019,8.527,8.527,0,0,0-1.28-4.019,3.881,3.881,0,0,0-2.7-1.905,3.989,3.989,0,0,0,2.7-1.911A8.765,8.765,0,0,0,2310.523,2894.429Z" transform="translate(-6.166 -14.694)" fill="none" stroke="#fcfcfc" stroke-linejoin="round" stroke-width="1"/>
      <path id="패스_600" data-name="패스 600" d="M2569.608,2736.095a17.36,17.36,0,0,0,2.143,6.73,8,8,0,0,0,4.518,3.2,7.914,7.914,0,0,0-4.518,3.2,17.131,17.131,0,0,0-2.143,6.731,14.222,14.222,0,0,0-2.147-6.731c-2.046-3.055-4.516-3.2-4.516-3.2a6.678,6.678,0,0,0,4.516-3.2A14.639,14.639,0,0,0,2569.608,2736.095Z" transform="translate(-29.961)" fill="none" stroke="#fcfcfc" stroke-linejoin="round" stroke-width="1"/>
      <path id="패스_601" data-name="패스 601" d="M2616,2789.87a11.714,11.714,0,0,0,1.442,4.54,5.411,5.411,0,0,0,3.048,2.158,5.338,5.338,0,0,0-3.048,2.156,11.529,11.529,0,0,0-1.442,4.538,9.6,9.6,0,0,0-1.449-4.538,4.375,4.375,0,0,0-3.046-2.156,4.508,4.508,0,0,0,3.046-2.158A9.882,9.882,0,0,0,2616,2789.87Z" transform="translate(-34.468 -4.991)" fill="none" stroke="#fcfcfc" stroke-linejoin="round" stroke-width="1"/>
      <path id="패스_602" data-name="패스 602" d="M2305.909,2814.672s.5,5.121,2.655,8.342a9.929,9.929,0,0,0,5.6,3.965,9.806,9.806,0,0,0-5.6,3.963c-2.178,3.248-2.655,8.341-2.655,8.341a17.624,17.624,0,0,0-2.66-8.341c-2.534-3.783-5.595-3.963-5.595-3.963s3.116-.266,5.595-3.965A18.146,18.146,0,0,0,2305.909,2814.672Z" transform="translate(-5.341 -7.292)" fill="none" stroke="#fcfcfc" stroke-linejoin="round" stroke-width="1"/>
      <path id="패스_603" data-name="패스 603" d="M2333.2,2864.232a10.669,10.669,0,0,0,1.311,4.126,2.077,2.077,0,1,1,0,3.917,10.477,10.477,0,0,0-1.311,4.126,8.7,8.7,0,0,0-1.314-4.126,3.978,3.978,0,0,0-2.767-1.961,4.094,4.094,0,0,0,2.767-1.956A8.977,8.977,0,0,0,2333.2,2864.232Z" transform="translate(-8.261 -11.892)" fill="none" stroke="#fcfcfc" stroke-linejoin="round" stroke-width="1"/>
      <path id="패스_604" data-name="패스 604" d="M2582.581,2820.452a8.63,8.63,0,0,0,1.064,3.346,1.687,1.687,0,1,1,0,3.182,8.531,8.531,0,0,0-1.064,3.35,7.055,7.055,0,0,0-1.066-3.35,3.226,3.226,0,0,0-2.247-1.593,3.324,3.324,0,0,0,2.247-1.589A7.268,7.268,0,0,0,2582.581,2820.452Z" transform="translate(-31.476 -7.829)" fill="none" stroke="#fcfcfc" stroke-linejoin="round" stroke-width="1"/>
      <path id="패스_605" data-name="패스 605" d="M2529.159,2875.412a10.639,10.639,0,0,0,1.309,4.119,2.074,2.074,0,1,1,0,3.911,10.464,10.464,0,0,0-1.309,4.12,8.688,8.688,0,0,0-1.311-4.12,3.974,3.974,0,0,0-2.763-1.959,4.088,4.088,0,0,0,2.763-1.952A8.97,8.97,0,0,0,2529.159,2875.412Z" transform="translate(-26.447 -12.929)" fill="none" stroke="#fcfcfc" stroke-linejoin="round" stroke-width="1"/>
      <path id="패스_606" data-name="패스 606" d="M2541.092,2799.886a9.828,9.828,0,0,0,1.21,3.807,1.918,1.918,0,1,1,0,3.618,9.685,9.685,0,0,0-1.21,3.81,8.03,8.03,0,0,0-1.212-3.81,3.67,3.67,0,0,0-2.556-1.811,3.781,3.781,0,0,0,2.556-1.807A8.275,8.275,0,0,0,2541.092,2799.886Z" transform="translate(-27.583 -5.92)" fill="none" stroke="#fcfcfc" stroke-linejoin="round" stroke-width="1"/>
      <path id="패스_607" data-name="패스 607" d="M2314.917,2747.042a8.453,8.453,0,0,0,1.039,3.269,3.89,3.89,0,0,0,2.194,1.553,3.836,3.836,0,0,0-2.194,1.55,8.318,8.318,0,0,0-1.039,3.268,6.922,6.922,0,0,0-1.04-3.268,3.155,3.155,0,0,0-2.193-1.55,3.264,3.264,0,0,0,2.193-1.553A7.13,7.13,0,0,0,2314.917,2747.042Z" transform="translate(-6.643 -1.016)" fill="none" stroke="#fcfcfc" stroke-linejoin="round" stroke-width="1"/>
      <path id="패스_608" data-name="패스 608" d="M2279.909,2770.848a9.7,9.7,0,0,0,1.194,3.764,1.9,1.9,0,1,1,0,3.574,9.561,9.561,0,0,0-1.194,3.765,7.962,7.962,0,0,0-1.2-3.765,3.632,3.632,0,0,0-2.526-1.79,3.735,3.735,0,0,0,2.526-1.784A8.192,8.192,0,0,0,2279.909,2770.848Z" transform="translate(-3.348 -3.225)" fill="none" stroke="#fcfcfc" stroke-linejoin="round" stroke-width="1"/>
      <path id="패스_609" data-name="패스 609" d="M2364.783,2917.978a4.03,4.03,0,0,0-2.031-2.375,3.641,3.641,0,0,0-1.64-.394,3.751,3.751,0,0,1-6.7,0,3.623,3.623,0,0,0-1.643.394,4.013,4.013,0,0,0-2.025,2.372,5.633,5.633,0,0,0,.585,4.416c1.089,2.1,2.752,3.682,6.306,6.666a.2.2,0,0,0,.13.048.193.193,0,0,0,.129-.049c3.552-2.979,5.213-4.564,6.306-6.665A5.635,5.635,0,0,0,2364.783,2917.978Z" transform="translate(-15.975 -13.623)" fill="#d24468"/>
    </g>
  </g>
</svg>
