<svg xmlns="http://www.w3.org/2000/svg" width="148" height="90" viewBox="0 0 148 90">
  <g id="thumb03" transform="translate(-344 -330)">
    <rect id="사각형_6" data-name="사각형 6" width="148" height="90" rx="8" transform="translate(344 330)" fill="#c9eaf2"/>
    <g id="그룹_353" data-name="그룹 353" transform="translate(-2815.716 -2395.444)">
      <g id="그룹_355" data-name="그룹 355" transform="translate(-0.666)">
        <g id="그룹_346" data-name="그룹 346" transform="translate(3207.382 2743.962)">
          <path id="패스_620" data-name="패스 620" d="M3319.233,2821.5c0,.364-1.532,32.86-1.532,32.86a3.305,3.305,0,0,0,3.558.121l-1.392-33.082Z" transform="translate(-3293.34 -2802.91)" fill="#9adb45"/>
          <g id="그룹_345" data-name="그룹 345">
            <g id="그룹_344" data-name="그룹 344">
              <g id="그룹_341" data-name="그룹 341" transform="translate(27.031)">
                <g id="그룹_340" data-name="그룹 340">
                  <path id="패스_621" data-name="패스 621" d="M3325.625,2785.448l-.007,0,0,0h0l.007,0c.111-.063.258-.555.307-.656,2.441-5.124,5.632-10.643,10.23-14.719,2.384-2.114,5.42-3.812,8.511-3.425a8.458,8.458,0,0,1,7.451,8.374c.174,6.571-6.81,9.406-13.011,10.273a54.59,54.59,0,0,1-9.188.43q-1.546-.047-3.073-.163C3326.655,2785.542,3325.813,2785.34,3325.625,2785.448Z" transform="translate(-3325.615 -2766.588)" fill="#9adb45"/>
                </g>
              </g>
              <g id="그룹_343" data-name="그룹 343" transform="translate(0 1.722)">
                <g id="그룹_342" data-name="그룹 342">
                  <path id="패스_622" data-name="패스 622" d="M3272.856,2788.814l.008,0,0,0h0l-.007,0c-.117-.053-.308-.528-.366-.625-2.907-4.875-6.6-10.074-11.555-13.7-2.571-1.883-5.751-3.291-8.792-2.619a8.459,8.459,0,0,0-6.64,9.03c.438,6.559,7.656,8.732,13.911,9.019a54.523,54.523,0,0,0,9.189-.427c1.023-.126,2.039-.273,3.045-.448C3271.839,2789,3272.659,2788.724,3272.856,2788.814Z" transform="translate(-3245.484 -2771.692)" fill="#9adb45"/>
                </g>
              </g>
            </g>
            <line id="선_3" data-name="선 3" x2="26.483" y2="12.181" transform="translate(0.896 6.666)" fill="none" stroke="#b8e880" stroke-miterlimit="10" stroke-width="4"/>
            <line id="선_4" data-name="선 4" y1="15.428" x2="24.616" transform="translate(27.041 3.432)" fill="none" stroke="#b8e880" stroke-miterlimit="10" stroke-width="4"/>
          </g>
        </g>
        <g id="그룹_347" data-name="그룹 347" transform="translate(3221.417 2781.124)">
          <path id="패스_623" data-name="패스 623" d="M3311.946,2910.079h-16.554l-2.434-25.8h21.422Z" transform="translate(-3290.979 -2881.737)" fill="#efede6"/>
          <rect id="사각형_18" data-name="사각형 18" width="25.381" height="4.23" fill="#fff"/>
        </g>
      </g>
      <path id="패스_624" data-name="패스 624" d="M3310.53,2840.935a.5.5,0,0,1,.146.188" transform="translate(-81.205 -71.893)" fill="none" stroke="#000" stroke-linecap="round" stroke-linejoin="round" stroke-width="1"/>
      <g id="그룹_349" data-name="그룹 349" transform="translate(3256.661 2769.003)">
        <g id="그룹_348" data-name="그룹 348">
          <path id="패스_625" data-name="패스 625" d="M3420.083,2841.28l.226,1.026a.591.591,0,0,0,.448.448l1.025.226a.589.589,0,0,1,0,1.149l-1.025.226a.588.588,0,0,0-.448.448l-.226,1.025a.588.588,0,0,1-1.149,0l-.227-1.025a.589.589,0,0,0-.448-.448l-1.026-.226a.589.589,0,0,1,0-1.149l1.026-.226a.592.592,0,0,0,.448-.448l.227-1.026a.588.588,0,0,1,1.149,0" transform="translate(-3408.27 -2840.818)" fill="#fff"/>
          <path id="패스_626" data-name="패스 626" d="M3394.042,2860.25a1.238,1.238,0,1,1-1.237-1.238A1.237,1.237,0,0,1,3394.042,2860.25Z" transform="translate(-3391.566 -2852.875)" fill="#fff"/>
        </g>
      </g>
      <g id="그룹_356" data-name="그룹 356">
        <path id="패스_627" data-name="패스 627" d="M3327.484,2737.427a2.6,2.6,0,0,1-5.2,0c0-1.434,2.6-4.385,2.6-4.385S3327.484,2735.992,3327.484,2737.427Z" transform="translate(-88.997 -0.396)" fill="#69cfe0"/>
        <path id="패스_628" data-name="패스 628" d="M3323.315,2772.587a2.254,2.254,0,0,1-4.508,0c0-1.245,2.254-3.8,2.254-3.8S3323.315,2771.342,3323.315,2772.587Z" transform="translate(-86.69 -24.08)" fill="#69cfe0"/>
        <path id="패스_629" data-name="패스 629" d="M3305.024,2734.9a1.02,1.02,0,0,1-1.27,1.068c-.667-.218-.813-.625-.762-1.325.1-1.358,2.58-2.2,2.58-2.2A5.244,5.244,0,0,0,3305.024,2734.9Z" transform="translate(-76.204 0)" fill="#69cfe0"/>
      </g>
      <path id="패스_630" data-name="패스 630" d="M3453.025,2760.535l.393,1.784a1.028,1.028,0,0,0,.779.779l1.784.394a1.024,1.024,0,0,1,0,2l-1.784.393a1.026,1.026,0,0,0-.779.78l-.393,1.784a1.024,1.024,0,0,1-2,0l-.395-1.784a1.024,1.024,0,0,0-.779-.78l-1.785-.393a1.024,1.024,0,0,1,0-2l1.785-.394a1.027,1.027,0,0,0,.779-.779l.395-1.784a1.024,1.024,0,0,1,2,0" transform="translate(-171.815 -18.082)" fill="#fff"/>
      <path id="패스_631" data-name="패스 631" d="M3483.89,2793.975a1.238,1.238,0,1,1-1.238-1.238A1.237,1.237,0,0,1,3483.89,2793.975Z" transform="translate(-194.444 -39.954)" fill="#fff"/>
      <g id="그룹_350" data-name="그룹 350" transform="translate(3255.423 2736.47)">
        <path id="패스_632" data-name="패스 632" d="M3390.373,2745.618a1.238,1.238,0,1,1-1.238-1.238A1.238,1.238,0,0,1,3390.373,2745.618Z" transform="translate(-3387.897 -2744.38)" fill="#fff"/>
      </g>
      <g id="그룹_351" data-name="그룹 351" transform="translate(3188.795 2752.511)">
        <path id="패스_633" data-name="패스 633" d="M3194.883,2792.558l.307,1.394a.8.8,0,0,0,.608.609l1.394.307a.8.8,0,0,1,0,1.563l-1.394.307a.8.8,0,0,0-.608.609l-.307,1.393a.8.8,0,0,1-1.562,0l-.308-1.393a.8.8,0,0,0-.608-.609l-1.394-.307a.8.8,0,0,1,0-1.562l1.394-.307a.8.8,0,0,0,.608-.609l.308-1.394a.8.8,0,0,1,1.562,0" transform="translate(-3190.384 -2791.931)" fill="#fff"/>
        <path id="패스_634" data-name="패스 634" d="M3216.151,2819.279a.967.967,0,1,1-.967-.967A.966.966,0,0,1,3216.151,2819.279Z" transform="translate(-3206.178 -2809.413)" fill="#fff"/>
      </g>
      <g id="그룹_352" data-name="그룹 352" transform="translate(3187.986 2777.615)">
        <path id="패스_635" data-name="패스 635" d="M3190.725,2866.731l.187.849a.489.489,0,0,0,.371.371l.849.187a.487.487,0,0,1,0,.951l-.849.187a.488.488,0,0,0-.371.37l-.187.848a.487.487,0,0,1-.951,0l-.187-.848a.487.487,0,0,0-.37-.37l-.849-.187a.487.487,0,0,1,0-.951l.849-.187a.489.489,0,0,0,.37-.371l.188-.849a.487.487,0,0,1,.951,0" transform="translate(-3187.986 -2866.349)" fill="#fff"/>
        <path id="패스_636" data-name="패스 636" d="M3233.721,2906.972a.967.967,0,1,1-.967-.967A.967.967,0,0,1,3233.721,2906.972Z" transform="translate(-3217.011 -2892.628)" fill="#fff"/>
      </g>
    </g>
  </g>
</svg>
