<svg xmlns="http://www.w3.org/2000/svg" width="148" height="90" viewBox="0 0 148 90">
  <g id="thumb02" transform="translate(-181 -330)">
    <rect id="사각형_5" data-name="사각형 5" width="148" height="90" rx="8" transform="translate(181 330)" fill="#fff5d2"/>
    <g id="그룹_256" data-name="그룹 256" transform="translate(-291.062 -2412.464)">
      <g id="그룹_255" data-name="그룹 255" transform="translate(520.061 2754.679)">
        <g id="그룹_251" data-name="그룹 251">
          <path id="패스_392" data-name="패스 392" d="M583.453,2860.472l.016.009v-.009Z" transform="translate(-583.453 -2827.428)" fill="#add4de"/>
          <path id="패스_393" data-name="패스 393" d="M752.682,2860.472h-.016v.009Z" transform="translate(-699.814 -2827.428)" fill="#add4de"/>
          <path id="패스_394" data-name="패스 394" d="M636.323,2826.034,609.889,2810.4l-26.434,15.631.019.007h0v.009l26.418,15.622,26.418-15.622v-.009h0Z" transform="translate(-583.455 -2792.998)" fill="#b6556d"/>
          <g id="그룹_248" data-name="그룹 248" transform="translate(0.339 12.261)">
            <path id="패스_395" data-name="패스 395" d="M619.368,2797.417l.035,1.413-5,2.152-3.387-3.639s-.971-2.074-.116-2.457l.283.381.086-.574.412.7.2-.8.182.559.147-.612.287.557.359-.658s.28.79.342.752a4.721,4.721,0,0,0,.338-.655l.26.806.222-.855.356.764.151-.542s.128.582.18.56.2-.961.241-.885l.379.706a5.059,5.059,0,0,1,.112-.824c.037.062.416.768.446.7s.125-1.086.162-1.024.5.878.5.878l.244-.544.583.782.429-.4.218.937.438-.575.157,1.095a3.638,3.638,0,0,1,.665-.077c0,.041-.211.43-.159.448s.428.083.428.083l-.23.392.38-.032-.1.452-.228.036" transform="translate(-602.423 -2793.934)" fill="#d64076"/>
            <path id="패스_396" data-name="패스 396" d="M598.417,2797.788l.928,1.123-1.538,4.977-4.314-.76s-1.9-1.056-1.644-1.917l.408.125-.318-.521.69.3-.395-.774.465.335-.307-.591.524.265-.212-.766s.67.461.682.389a6.345,6.345,0,0,0-.223-.748l.67.485-.42-.837.7.39-.261-.538s.447.388.464.336-.5-.908-.428-.873.674.328.674.328a6.619,6.619,0,0,1-.464-.74c.062.027.737.354.707.275s-.624-.962-.563-.934.855.388.855.388l-.207-.6.843.257,0-.6.728.617-.113-.748.8.785s.312-.527.336-.492.154.485.2.468.3-.212.3-.212l.117.467.2-.271.232.432-.11.175" transform="translate(-589.55 -2795.655)" fill="#c02c67"/>
            <path id="패스_397" data-name="패스 397" d="M605.334,2803.862l3.189,3.989,4.414-2.164-.451-2.046-.946-1.263-.014.8-.449-.9.048.906-.707-.947s.037,1.023-.043.947-.545-.855-.545-.855l-.094.809-.433-.726s-.066,1.129-.131,1.021-.46-.927-.46-.927l.108.836-.6-.435-.146.671-.365-1.09-.1.84-.423-.463-.039.684-.612-.875.068.813-.74-.531.162.739-.786-.641.145.654-.5-.242Z" transform="translate(-598.523 -2799.641)" fill="#dd4d7d"/>
            <path id="패스_398" data-name="패스 398" d="M625.925,2807.129s4.6-.788,3.866-3.144c0,0,2.355-2.938-.2-4.875l.141.69-.518-.631-.272.574-.237-.648-.047.56-.394-.755-.2.63-.347-.721-.094.612-.328-.545-.117.482-.548-.642-.339.517-.527-.58.063.631-.338-.588.067.476-.342-.432-.173.337-.191-.523-.267.595-.19-.434a4,4,0,0,0-.679,2.692l2.21,5.721" transform="translate(-611.456 -2797.112)" fill="#df6281"/>
            <path id="패스_399" data-name="패스 399" d="M626.258,2836.174" transform="translate(-613.227 -2822.981)" fill="#df618b"/>
            <path id="패스_400" data-name="패스 400" d="M626.935,2816.461s6.444-6.209,7.764-5.646l-.643.7,1.138,0-.6.666.961-.3-.14.591.883-.382-.247,1.034,1.379-.177-.423.529.792-.208s-.665,6.183-5.136,4.1c0,0-3.312-1.467-5.038-.251Z" transform="translate(-613.693 -2805.517)" fill="#d64076"/>
            <path id="패스_401" data-name="패스 401" d="M626.258,2836.174" transform="translate(-613.227 -2822.981)" fill="#df618b"/>
            <path id="패스_402" data-name="패스 402" d="M624.088,2811.766l1.584,1.139s4.071,1.074,5.673-1.352c0,0,2.422-1.522,2.3-3.678,0,0,1.241-1.231.679-1.764l-.792.231.065-.439-.577.628.382-.785-.787.661.112-.9-.815.9c.4-.073.418-1.294.418-1.294a11.715,11.715,0,0,1-.982.9,7.025,7.025,0,0,1-.227-1.032l-.326.645-.556-1.337-.357,1.366-.662-1.308-.508,2.168-.4-1.489-4.252,6.615" transform="translate(-611.715 -2801.049)" fill="#dd4d7d"/>
            <path id="패스_403" data-name="패스 403" d="M597.057,2821.041s-9.435-6.38-10.513-5.575l.978.725-1.156.14.923.691-1.114-.224.417.662-1.075-.335.731,1.16-1.482-.039.677.559-.9-.147s3.549,7.036,7.127,4.112c0,0,2.685-2.083,5-.888Z" transform="translate(-584.539 -2808.692)" fill="#dd4e7f"/>
            <path id="패스_404" data-name="패스 404" d="M604.4,2810.726s-2.569-2.264-3.817-1.791l.381.8-.936-.519.464.982-1.13-.641.506,1.072-.9-.643a3.559,3.559,0,0,0,0,2.044s.853,4.273,4.867,4.656l3.255.565.248-.226Z" transform="translate(-594.347 -2804.205)" fill="#df618b"/>
            <path id="패스_405" data-name="패스 405" d="M621.491,2814.809a7.378,7.378,0,0,0,1.591-8.19l-.233,1-.654-1.156-.419,1.326-.517-1.178-.365,1.185-.626-1.028-.157,1.35-.741-1.209a9.652,9.652,0,0,1-.8,1.187s-2.465,2.775-.591,5.594a16.54,16.54,0,0,1,1.593,1.8l1.059.415.86-1.1" transform="translate(-607.05 -2802.553)" fill="#e27e9e"/>
            <path id="패스_406" data-name="패스 406" d="M620.852,2829.584s.476,5.088-1.2,5.526l-1.949.307s-2.041.414-3.205-4.355l-.276-1.256s1.7,2.078,1.9-.552c0,0,1.936,2.907,2.973-.307C619.1,2828.947,619.835,2831.147,620.852,2829.584Z" transform="translate(-604.953 -2818.011)" fill="#83c267"/>
            <path id="패스_407" data-name="패스 407" d="M627.6,2849a66.437,66.437,0,0,0,5.16,23.445l-1.266.2s-4.661-12.68-4.949-23.478Z" transform="translate(-613.423 -2831.798)" fill="#83c267"/>
          </g>
          <g id="그룹_249" data-name="그룹 249" transform="translate(28.203)">
            <path id="패스_408" data-name="패스 408" d="M690.96,2757.589l.025,1.132,4.083,1.538,2.576-3.038s.7-1.7,0-1.969l-.213.313-.089-.455-.3.574-.19-.63-.124.454-.142-.483-.209.456-.312-.514s-.195.643-.246.615a3.7,3.7,0,0,1-.295-.511l-.177.656-.21-.677-.256.624-.141-.429s-.082.47-.126.454-.195-.761-.223-.7l-.278.579a4.1,4.1,0,0,0-.12-.656c-.027.052-.3.63-.331.573s-.141-.865-.167-.814-.368.722-.368.722l-.215-.427-.438.648-.358-.3-.14.757-.371-.444-.087.883a2.915,2.915,0,0,0-.535-.038c0,.032.185.335.144.354s-.34.082-.34.082l.2.306-.305-.012.1.358.183.021" transform="translate(-685.392 -2754.679)" fill="#d64076"/>
            <path id="패스_409" data-name="패스 409" d="M710.573,2757.035l-.7.933,1.415,3.926,3.424-.767s1.481-.916,1.244-1.6l-.321.115.235-.428-.54.266.285-.635-.358.286.223-.484-.41.232.142-.622s-.519.394-.532.338a5.253,5.253,0,0,1,.152-.608l-.518.414.3-.686-.543.337.188-.441s-.343.328-.359.287.367-.746.311-.714l-.528.287a5.2,5.2,0,0,0,.343-.609c-.047.023-.576.31-.555.246s.464-.792.416-.769-.671.343-.671.343l.144-.487-.666.237-.019-.479-.559.521.063-.6-.609.657s-.269-.41-.287-.381-.106.393-.14.381-.251-.157-.251-.157l-.076.377-.172-.21-.17.354.095.136" transform="translate(-698.589 -2755.503)" fill="#c02c67"/>
            <path id="패스_410" data-name="패스 410" d="M704.382,2762.234l-2.405,3.31-3.613-1.568.286-1.655.712-1.046.039.638.327-.737,0,.726.531-.783s.008.82.069.757.4-.705.4-.705l.107.645.319-.6s.094.9.143.812.333-.759.333-.759l-.055.673.467-.369.141.532.253-.887.112.669.323-.386.057.545.457-.723-.024.653.572-.451-.1.6.606-.542-.09.528.392-.212Z" transform="translate(-690.675 -2759.107)" fill="#dd4d7d"/>
            <path id="패스_411" data-name="패스 411" d="M689.661,2765.255s-3.713-.461-3.209-2.373c0,0-1.994-2.265-.025-3.909l-.088.556.391-.523.24.449.165-.526.059.446.287-.619.185.5.253-.59.1.487.243-.448.11.381.416-.534.289.4.4-.485-.026.508.248-.483-.035.383.258-.358.151.264.133-.425.235.465.137-.354a3.2,3.2,0,0,1,.643,2.129l-1.558,4.66" transform="translate(-681.869 -2757.207)" fill="#df6281"/>
            <path id="패스_412" data-name="패스 412" d="M702.754,2788.417" transform="translate(-693.694 -2777.879)" fill="#df618b"/>
            <path id="패스_413" data-name="패스 413" d="M682.555,2773.278s-5.385-4.731-6.421-4.232l.541.534-.912.044.508.509-.78-.2.135.468-.722-.273.235.818-1.109-.09.359.408-.642-.138s.76,4.925,4.261,3.1c0,0,2.6-1.3,4.023-.388Z" transform="translate(-673.748 -2764.533)" fill="#d64076"/>
            <path id="패스_414" data-name="패스 414" d="M702.754,2788.417" transform="translate(-693.694 -2777.879)" fill="#df618b"/>
            <path id="패스_415" data-name="패스 415" d="M685.414,2769.3l-1.227.972s-3.22,1.01-4.591-.875c0,0-1.994-1.128-1.978-2.858,0,0-1.04-.939-.61-1.387l.643.156-.068-.349.485.481-.333-.614.654.5-.123-.72.686.689c-.324-.044-.382-1.021-.382-1.021a9.246,9.246,0,0,0,.819.684,5.58,5.58,0,0,0,.144-.834l.283.5.4-1.092.336,1.081.483-1.073.486,1.717.268-1.207,3.648,5.137" transform="translate(-675.918 -2760.772)" fill="#dd4d7d"/>
            <path id="패스_416" data-name="패스 416" d="M703.97,2775.411s7.315-5.454,8.207-4.85l-.756.616.93.068-.714.589.885-.221-.31.546.848-.308-.542.955,1.185-.085-.52.473.716-.152s-2.582,5.762-5.553,3.555c0,0-2.224-1.568-4.037-.527Z" transform="translate(-694.53 -2765.568)" fill="#dd4e7f"/>
            <path id="패스_417" data-name="패스 417" d="M704.928,2767.415s1.973-1.906,2.99-1.573l-.274.656.728-.449-.334.8.881-.555-.366.875.7-.547a2.838,2.838,0,0,1,.076,1.636s-.526,3.452-3.723,3.906l-2.585.572-.207-.171Z" transform="translate(-693.733 -2762.329)" fill="#df618b"/>
            <path id="패스_418" data-name="패스 418" d="M694.634,2771.54a5.913,5.913,0,0,1-1.575-6.5l.225.8.48-.949.384,1.045.37-.961.336.933.462-.845.177,1.075.548-.994a7.7,7.7,0,0,0,.685.919s2.074,2.13.679,4.456a13.385,13.385,0,0,0-1.208,1.5l-.833.371-.729-.853" transform="translate(-686.738 -2761.701)" fill="#e27e9e"/>
            <path id="패스_419" data-name="패스 419" d="M695.191,2783.341s-.192,4.09,1.163,4.377l1.57.176s1.649.256,2.4-3.6l.175-1.015s-1.284,1.726-1.544-.372c0,0-1.442,2.4-2.391-.134C696.568,2782.769,696.064,2784.556,695.191,2783.341Z" transform="translate(-688.487 -2773.995)" fill="#83c267"/>
            <path id="패스_420" data-name="패스 420" d="M687.115,2798.815s.389,9.407-5.986,34.666l1.022.113s5.667-24.8,5.815-34.685Z" transform="translate(-678.824 -2785.03)" fill="#71a558"/>
          </g>
          <g id="그룹_250" data-name="그룹 250" transform="translate(21.054 28.46)">
            <path id="패스_421" data-name="패스 421" d="M684.741,2850.779l-.233,1.2-4.62.882-2.179-3.7s-.431-1.93.361-2.093l.168.372.178-.467.218.667.317-.634.049.5.238-.487.138.522.426-.488s.09.718.148.7a4.152,4.152,0,0,0,.406-.489l.069.728.347-.679.157.709.229-.429s0,.514.049.505.347-.773.366-.7l.19.665a4.435,4.435,0,0,1,.247-.674c.02.06.209.725.247.668s.308-.891.329-.832.256.833.256.833l.308-.414.346.769.437-.253.009.829.475-.4-.068.954a3.089,3.089,0,0,1,.573.058c-.01.034-.258.322-.218.348s.348.149.348.149l-.269.287.327.044-.168.363-.2-.013" transform="translate(-669.241 -2846.605)" fill="#d64076"/>
            <path id="패스_422" data-name="패스 422" d="M665.737,2847.329l.572,1.12-2.224,3.91-3.5-1.445s-1.4-1.243-1.029-1.922l.32.181-.171-.5.526.382-.188-.727.33.369-.149-.554.394.321-.037-.686s.479.513.5.457a5.562,5.562,0,0,0-.049-.674l.474.535-.2-.784.517.458-.12-.5s.305.411.329.37-.252-.859-.2-.816l.507.4a5.826,5.826,0,0,1-.253-.71c.047.033.555.434.546.363s-.348-.927-.3-.894l.648.488-.062-.543.662.374.109-.5.5.656.043-.651.526.81s.363-.386.376-.352.039.437.078.429.294-.12.294-.12l.012.415.221-.192.115.407-.124.128" transform="translate(-656.798 -2845.798)" fill="#c02c67"/>
            <path id="패스_423" data-name="패스 423" d="M671.988,2853.386l1.946,3.958,4.127-1v-1.81l-.563-1.242-.16.67-.211-.843-.128.772-.42-.931s-.159.87-.213.791-.3-.822-.3-.822l-.23.665-.23-.693s-.265.94-.3.836-.215-.868-.215-.868l-.065.725-.429-.479-.248.538-.1-.987-.242.688-.271-.468-.16.568-.354-.852-.095.7-.525-.586v.654l-.544-.688v.58l-.378-.3Z" transform="translate(-665.173 -2850.477)" fill="#dd4d7d"/>
            <path id="패스_424" data-name="패스 424" d="M688.143,2858.97s4.029.193,3.844-1.932c0,0,2.534-2.039.745-4.148l-.01.608-.319-.627-.337.433-.08-.59-.144.464-.192-.711-.288.494-.16-.672-.192.5-.176-.52-.188.384-.343-.644-.382.373-.336-.587-.064.544-.175-.559-.033.414-.207-.428-.209.252-.063-.476-.337.452-.079-.4a3.447,3.447,0,0,0-1.074,2.144l.8,5.236" transform="translate(-675.948 -2849.746)" fill="#df6281"/>
            <path id="패스_425" data-name="패스 425" d="M684.118,2883.047" transform="translate(-673.73 -2871.413)" fill="#df618b"/>
            <path id="패스_426" data-name="패스 426" d="M686.033,2869.612s6.591-4.037,7.6-3.315l-.671.467.958.214-.633.448.865-.07-.229.473.817-.158-.4.826,1.2.107-.456.368.708-.029s-1.713,5.093-5.1,2.505c0,0-2.521-1.856-4.2-1.152Z" transform="translate(-675.047 -2859.835)" fill="#d64076"/>
            <path id="패스_427" data-name="패스 427" d="M684.118,2883.047" transform="translate(-673.73 -2871.413)" fill="#df618b"/>
            <path id="패스_428" data-name="패스 428" d="M683.82,2864.286l1.124,1.257s3.233,1.664,5.037-.085c0,0,2.326-.833,2.627-2.672,0,0,1.277-.807.9-1.362l-.712.048.137-.359-.6.422.468-.591-.787.411.262-.742-.854.605c.353.014.594-1.014.594-1.014a10.4,10.4,0,0,1-1,.575,5.891,5.891,0,0,1,0-.912l-.395.483-.22-1.233-.555,1.086-.316-1.226-.833,1.733-.063-1.33-4.819,4.786" transform="translate(-673.525 -2854.863)" fill="#dd4d7d"/>
            <path id="패스_429" data-name="패스 429" d="M660.972,2865.745s-6.767-7.138-7.827-6.661l.688.794-1-.1.648.756-.9-.4.228.638-.845-.483.4,1.115-1.243-.309.466.6-.734-.292s1.682,6.6,5.245,4.8c0,0,2.651-1.256,4.383.183Z" transform="translate(-650.859 -2854.919)" fill="#dd4e7f"/>
            <path id="패스_430" data-name="패스 430" d="M669.358,2858.348s-1.745-2.388-2.885-2.22l.17.747-.693-.613.209.916-.834-.752.227,1-.64-.709a3.065,3.065,0,0,0-.38,1.724s-.077,3.764,3.237,4.835l2.64,1.083.251-.145Z" transform="translate(-660.235 -2852.896)" fill="#df618b"/>
            <path id="패스_431" data-name="패스 431" d="M681.865,2865.828a6.374,6.374,0,0,0,2.867-6.611l-.385.8-.335-1.1-.6,1.04-.215-1.088-.529.93-.336-.984-.385,1.11-.4-1.158a8.354,8.354,0,0,1-.9.852s-2.594,1.881-1.54,4.607a14.253,14.253,0,0,1,1.008,1.818l.815.547.932-.771" transform="translate(-670.113 -2854.721)" fill="#e27e9e"/>
            <path id="패스_432" data-name="패스 432" d="M680.432,2877.835s-.547,4.379-2.039,4.436l-1.7-.1s-1.8-.031-1.891-4.271l0-1.11s1.047,2.07,1.709-.11c0,0,1.09,2.811,2.564.295C679.076,2876.972,679.282,2878.964,680.432,2877.835Z" transform="translate(-667.323 -2867.032)" fill="#83c267"/>
            <path id="패스_433" data-name="패스 433" d="M680.94,2894.42a57.363,57.363,0,0,0-.017,20.735l-1.106-.067s-1.567-11.563.2-20.723Z" transform="translate(-670.332 -2879.195)" fill="#83c267"/>
          </g>
        </g>
        <g id="그룹_254" data-name="그룹 254" transform="translate(0.016 33.053)">
          <path id="패스_434" data-name="패스 434" d="M636.341,2860.5v32.515H583.505V2860.5l17.658,10.441,8.76,5.181,8.808-5.209Z" transform="translate(-583.505 -2860.501)" fill="#f3d4dd"/>
          <g id="그룹_252" data-name="그룹 252" transform="translate(0 10.413)">
            <path id="패스_435" data-name="패스 435" d="M636.341,2914.257v1.685H583.505v-1.67l17.658-20.4.005-.006,17.564-.022h.083Z" transform="translate(-583.505 -2893.841)" fill="#efc2ce"/>
          </g>
          <g id="그룹_253" data-name="그룹 253" transform="translate(3.089 10.443)">
            <path id="패스_436" data-name="패스 436" d="M640.053,2916.011l-15.633-22.073H609.029L593.4,2916.011Z" transform="translate(-593.395 -2893.938)" fill="#f3d4dd"/>
          </g>
        </g>
      </g>
      <path id="패스_437" data-name="패스 437" d="M502,2822.517c-1.6-2.65-2.174-6.68-2.226-9.751-.03-1.793-1.127-5.625-3.756-3.8-1.683,1.17-1.443,3.185-1.235,4.909a16.723,16.723,0,0,0-4.233-2.2c-1.346-.331-3.84.072-3.449,2.006,1.212,5.979,11.018,5.633,14.79,8.864" transform="translate(5 -37.001)" fill="#e27d9a"/>
      <path id="패스_438" data-name="패스 438" d="M792.957,2760.815a2.169,2.169,0,0,0-1.777,0,2.464,2.464,0,0,0-1.033,1.19,4.013,4.013,0,0,0-.557,1.426c-.178-1.168-.259-2.994-1.8-3.139-1.119-.1-1.44.824-1.54,1.669a4.869,4.869,0,0,0,.736,2.922,25.948,25.948,0,0,1,1.269,3.962,14.784,14.784,0,0,0,1.527-1.734c.669-.7,1.5-1.237,2.138-1.973.875-1.013,2.191-2.267,1.545-3.8A1.054,1.054,0,0,0,792.957,2760.815Z" transform="translate(-205.725 -3.857)" fill="#dd5576"/>
      <path id="패스_439" data-name="패스 439" d="M806.654,2842.846c1.882-3.111,2.552-7.844,2.614-11.45.035-2.106,1.323-6.6,4.41-4.46,1.976,1.374,1.695,3.74,1.45,5.764,1.592-.935,3.149-2.136,4.97-2.587,1.581-.388,4.509.085,4.05,2.356-1.423,7.02-12.938,6.614-17.367,10.408" transform="translate(-219.77 -49.299)" fill="#e27d9a"/>
    </g>
  </g>
</svg>
