<svg xmlns="http://www.w3.org/2000/svg" id="icon_60_web" width="60" height="60" viewBox="0 0 60 60">
    <defs>
        <style>
            .cls-2{fill:none;stroke:#333;stroke-linecap:round;stroke-linejoin:round;stroke-width:1.5px}
        </style>
    </defs>
    <path id="사각형_2" fill="#ffefef" d="M0 0H60V60H0z" opacity="0.15"/>
    <g id="그룹_27" transform="translate(6.667 9)">
        <circle id="타원_5" cx="11.5" cy="11.5" r="11.5" class="cls-2" transform="translate(23.333 19)"/>
        <path id="Shape_3077" d="M185.591 4543.721a.012.012 0 0 0-.012.012.011.011 0 0 0 .012.012.012.012 0 0 0 .012-.012.013.013 0 0 0-.012-.012" class="cls-2" transform="translate(-167.236 -4537.899)"/>
        <path id="Shape_3077-2" d="M180.513 4543.721a.012.012 0 0 0-.012.012.011.011 0 0 0 .012.012.012.012 0 0 0 .012-.012.013.013 0 0 0-.012-.012" class="cls-2" transform="translate(-168.082 -4537.899)"/>
        <path id="Shape_3077-3" d="M175.416 4543.711a.012.012 0 0 0-.012.012.011.011 0 0 0 .012.012.012.012 0 0 0 .012-.012.013.013 0 0 0-.012-.012" class="cls-2" transform="translate(-168.932 -4537.901)"/>
        <g id="그룹_23" transform="translate(.333 12)">
            <g id="그룹_22">
                <g id="그룹_21">
                    <g id="그룹_20">
                        <g id="그룹_19">
                            <path id="선_12" d="M0 0L39 0" class="cls-2"/>
                        </g>
                    </g>
                </g>
            </g>
        </g>
        <path id="패스_20" d="M209.522 4558.37v-14.97a4.667 4.667 0 0 0-4.667-4.667h-30.332a4.667 4.667 0 0 0-4.667 4.667v25.666a4.666 4.666 0 0 0 4.667 4.667h19.641" class="cls-2" transform="translate(-169.856 -4538.731)"/>
        <g id="그룹_26" transform="translate(29.814 27.741)">
            <g id="그룹_25">
                <g id="그룹_24">
                    <path id="패스_21" d="M205.782 4562.509l-6.481 6.481-3.889-3.889" class="cls-2" transform="translate(-195.412 -4562.509)"/>
                </g>
            </g>
        </g>
    </g>
</svg>
