<svg xmlns="http://www.w3.org/2000/svg" id="icon_60_shopping" width="60" height="60" viewBox="0 0 60 60">
    <defs>
        <style>
            .cls-2{fill:none;stroke:#333;stroke-linecap:round;stroke-linejoin:round;stroke-width:1.5px}
        </style>
    </defs>
    <g id="그룹_31" transform="translate(11 10)">
        <path id="패스_22" d="M1663.957 449.776l-.291-4.363a2.112 2.112 0 0 0-2.107-1.971h-25.6a2.111 2.111 0 0 0-2.106 1.971l-1.68 25.193a4.222 4.222 0 0 0 4.213 4.5h8.444" class="cls-2" transform="translate(-1632.158 -434.998)"/>
        <g id="그룹_28" transform="translate(19.528 28.236)">
            <path id="패스_23" fill="none" fill-rule="evenodd" stroke="#333" stroke-linecap="round" stroke-linejoin="round" stroke-width="1.5px" d="M1669.158 475.109h-16.472a1 1 0 0 1-1-1v-9.875a1 1 0 0 1 1-1h16.472a1 1 0 0 1 1 1v9.875a1 1 0 0 1-1 1z" transform="translate(-1651.686 -463.234)"/>
        </g>
        <g id="그룹_29" transform="translate(28.764 21.111)">
            <path id="패스_24" d="M1661.064 463.244a7.523 7.523 0 0 0 5.118-1.981 3.115 3.115 0 0 0 0-4.27 2.809 2.809 0 0 0-4.092 0c-1.729 1.807-1.026 6.251-1.026 6.251z" class="cls-2" transform="translate(-1660.923 -456.109)"/>
        </g>
        <g id="그룹_30" transform="translate(22.657 21.111)">
            <path id="패스_25" d="M1660.781 463.244a7.522 7.522 0 0 1-5.118-1.981 3.113 3.113 0 0 1 0-4.27 2.808 2.808 0 0 1 4.091 0c1.73 1.807 1.027 6.251 1.027 6.251z" class="cls-2" transform="translate(-1654.815 -456.109)"/>
        </g>
        <path id="패스_26" d="M1642.423 447.664v-6.333a6.333 6.333 0 0 1 6.334-6.333 6.333 6.333 0 0 1 6.333 6.333v6.333" class="cls-2" transform="translate(-1632.158 -434.998)"/>
    </g>
</svg>
