<svg xmlns="http://www.w3.org/2000/svg" width="64" height="64" viewBox="0 0 64 64">
    <g fill="none" fill-rule="evenodd">
        <g>
            <g>
                <g>
                    <g>
                        <path d="M0 0H64V64H0z" transform="translate(-688 -249) translate(526 249) translate(80) translate(82)"/>
                        <g transform="translate(-688 -249) translate(526 249) translate(80) translate(82) translate(0 1)">
                            <path stroke="#EF5350" stroke-width="2" d="M36.301 7.259L59.527 46.45c1.407 2.376.623 5.443-1.753 6.85-.772.458-1.652.699-2.549.699H8.775c-2.761 0-5-2.239-5-5 0-.897.241-1.777.698-2.549L27.7 7.259c1.407-2.376 4.474-3.16 6.85-1.753.722.428 1.325 1.03 1.752 1.753z"/>
                            <path fill="#EF5350" d="M32 22.667c.736 0 1.333.597 1.333 1.333v12c0 .736-.597 1.333-1.333 1.333s-1.333-.597-1.333-1.333V24c0-.736.597-1.333 1.333-1.333z"/>
                            <circle cx="32" cy="43.2" r="1.867" fill="#EF5350"/>
                        </g>
                    </g>
                </g>
            </g>
        </g>
    </g>
</svg>
