<svg xmlns="http://www.w3.org/2000/svg" xmlns:xlink="http://www.w3.org/1999/xlink" width="32" height="32" viewBox="0 0 32 32">
    <defs>
        <path id="prefix__a" d="M25.206 11.462c-.497-1.36-1.276-2.6-2.286-3.636-.874-.893-1.919-1.6-3.072-2.08-2.49-1.01-5.278-.994-7.756.046-1.21.52-2.295 1.287-3.188 2.255-.944 1.014-1.68 2.206-2.164 3.505-.501 1.384-.751 2.846-.739 4.318-.02 1.643.29 3.273.916 4.793.552 1.337 1.376 2.544 2.419 3.546.88.845 1.917 1.508 3.054 1.95 1.15.44 2.37.664 3.602.658 2.605.036 5.107-1.015 6.907-2.901.97-.985 1.728-2.157 2.231-3.444.587-1.457.883-3.015.87-4.585.007-1.514-.257-3.016-.78-4.437l-.014.012zm-2.941 8.328c-.411 1.016-1.027 1.936-1.808 2.704-.593.58-1.287 1.044-2.049 1.37-1.562.641-3.315.636-4.874-.015-.728-.31-1.397-.747-1.973-1.291-.824-.8-1.466-1.77-1.88-2.84-.896-2.405-.902-5.05-.018-7.458.4-1.085 1.025-2.074 1.832-2.902.586-.594 1.283-1.067 2.051-1.392 1.563-.625 3.305-.625 4.868 0 .728.314 1.392.76 1.959 1.314.885.863 1.552 1.925 1.944 3.099.425 1.217.642 2.497.643 3.787.016 1.25-.224 2.49-.707 3.644l.012-.02z"/>
    </defs>
    <g fill="none" fill-rule="evenodd">
        <path d="M0 0H32V32H0z"/>
        <use fill="#635447" xlink:href="#prefix__a"/>
    </g>
</svg>
