<svg xmlns="http://www.w3.org/2000/svg" width="48" height="48" viewBox="0 0 48 48">
    <g fill="none" fill-rule="evenodd">
        <g>
            <g>
                <g>
                    <path d="M0 0H48V48H0z" transform="translate(-33 -77) translate(16 77) translate(17)"/>
                    <path fill="#FFF" d="M24.2 10.25c3.728 0 6.75 3.022 6.75 6.75 0 2.393-1.246 4.496-3.124 5.694 5.94 1.487 10.324 6.539 10.324 12.563 0 .336-.014.671-.041 1.004l-.747.689H11.038l-.747-.689c-.027-.333-.041-.668-.041-1.004 0-6.024 4.384-11.076 10.325-12.563-1.88-1.198-3.125-3.3-3.125-5.694 0-3.728 3.022-6.75 6.75-6.75zm0 13.5c-6.888 0-12.45 5.165-12.45 11.507l.002.192h24.895l.003-.192c0-6.245-5.392-11.348-12.133-11.503zm0-12c-2.9 0-5.25 2.35-5.25 5.25s2.35 5.25 5.25 5.25 5.25-2.35 5.25-5.25-2.35-5.25-5.25-5.25z" transform="translate(-33 -77) translate(16 77) translate(17)"/>
                </g>
            </g>
        </g>
    </g>
</svg>
