<svg xmlns="http://www.w3.org/2000/svg" width="88" height="32" viewBox="0 0 88 32">
    <g fill="none" fill-rule="evenodd">
        <path fill="#E0E0E0" d="M58.325 22.027c1.906 0 3.11 1.173 3.194 3.14.054 1.527-.504 3.114-1.474 4.144-.787.837-1.877 1.296-3.076 1.282-1.945-.036-3.15-1.2-3.23-3.129-.078-1.896.89-4.34 2.83-5.136.503-.202 1.053-.301 1.756-.301zm20.96 0l.165.004c.527.032 1.03.174 1.411.402.006 0 .976.516.905 1.652-.063.903-.426 1.383-1.033 1.906-.945.812-2.634 1.302-4.527 1.302-.083 0-.177 0-.263-.003 0 .354.113 1.642 1.525 1.892.161.026.323.032.485.037 1.317-.058 2.488-.964 2.488-.964l.066.093c.28.457.137 1.174-.299 1.506-.893.674-2.152.744-2.707.739h-.103c-.194-.001-.314-.013-.314-.013-.854-.058-1.674-.354-2.238-.964-.62-.678-.912-1.59-.857-2.634.12-2.074 1.394-3.884 3.253-4.605.635-.243 1.272-.357 1.876-.346.112-.008.222-.003.332 0zm-50.79-6.23c.381 0 .343.338.277.687l-2.297 12.25c-.194 1.085.04 1.775.04 1.775s-.37.092-.823.081c-.243.01-.52-.009-.787-.084-.246-.075-.482-.218-.617-.466-.152-.28-.197-.566-.08-1.286l2.367-12.599 1.732-.333c.077-.019.136-.026.188-.026zm12.26 6.23l.223.01c.406.027 1.29.255 1.664 1.13.313.72.207 1.894-.085 3.256 0 0-.202.93-.346 1.792-.236 1.42-.214 1.953.018 2.207-.408.14-.725.175-.983.17h-.154c-.586-.025-.79-.319-.79-.319-.28-.342-.326-.672-.2-1.538.182-1.265.577-2.95.662-3.556.08-.442.073-.836.02-1.077-.086-.394-.315-.51-.44-.551-.516-.163-1.732.705-2.635 2.788 0 0-.472 1.092-.804 3.026l-.199 1.114h-1.565c-.403 0-.342-.366-.342-.366l.936-5.155c.098-.615.082-1.062-.082-1.244-.483-.524-2.08.421-3.099 2.73-.496 1.123-.632 1.917-.807 2.685-.042.194-.237 1.35-.237 1.35H29.94c-.402 0-.343-.366-.343-.366s1.003-5.524 1.016-5.618c.216-1.465.216-1.943-.02-2.198.41-.13.737-.175.991-.166h.154c.583.024.792.32.792.32.277.337.327.664.201 1.535l-.028.146C33.415 22.9 34.355 22 35.81 22.03c.532.006.988.164 1.314.479.337.315.544.786.607 1.386.616-.954 1.575-1.986 3.247-1.859zm28.966 0l.207.01c.332.027 1.186.255 1.542 1.13.29.72.193 1.895-.075 3.256 0 0-.196.93-.328 1.792-.224 1.42-.197 1.953.015 2.207-.373.14-.673.175-.906.17-.656.026-.884-.319-.884-.319-.253-.342-.294-.672-.18-1.538.172-1.265.54-2.95.612-3.556.076-.442.07-.835.02-1.077-.055-.276-.184-.46-.352-.54-.43-.196-1.805.522-2.74 2.852-.447 1.126-.636 1.947-.8 2.715-.035.194-.227 1.35-.227 1.35H64.18c-.373 0-.318-.366-.318-.366l.84-5.01c.035-.193.067-.408.093-.608.199-1.465.199-1.943-.017-2.198.379-.13 1.34-.372 1.796.155.235.266.297.663.183 1.534-.006.055-.017.107-.02.167.679-1.235 1.652-2.243 3.192-2.116zm-53.445.001c.661-.027.887.315.887.315.256.342.303.672.186 1.546-.168 1.26-.544 2.948-.627 3.553-.065.442-.065.835-.017 1.078.085.378.26.52.411.554.48.111 1.759-.56 2.711-2.866.306-.736.491-1.344.62-1.895.067-.327.132-.66.186-.965l.164-.99s.676-.057 1.229-.09c.491-.03.608.302.54.647l-.237 1.41-.536 3.193c-.032.196-.061.408-.09.608-.206 1.462-.206 1.937.014 2.194-.382.136-.685.178-.92.173-.659.024-.888-.318-.888-.318-.261-.345-.303-.675-.185-1.54.003-.04.012-.088.018-.134-.683 1.198-1.714 2.233-3.219 2.076-.95-.1-1.64-.799-1.711-1.818-.065-.824.09-1.729.235-2.567.132-.738.194-.926.33-1.785.222-1.422.196-1.955-.019-2.206.38-.133.682-.178.918-.173zm30.366 0c.668-.027.895.315.895.315.258.342.302.672.181 1.546-.173 1.26-.544 2.948-.625 3.553-.068.442-.068.835-.015 1.078.083.378.252.52.412.554.478.111 1.758-.56 2.705-2.866.308-.736.485-1.344.622-1.895.068-.327.13-.66.189-.965l.161-.99s.68-.057 1.224-.09c.496-.03.611.302.55.647l-.244 1.41-.536 3.193c-.03.196-.055.408-.09.608-.195 1.462-.204 1.937.017 2.194-.386.136-.688.178-.92.173-.662.024-.888-.318-.888-.318-.256-.345-.306-.675-.183-1.54.003-.04.009-.088.015-.134-.682 1.198-1.714 2.233-3.22 2.076-.949-.1-1.64-.799-1.71-1.818-.06-.824.09-1.729.234-2.567.132-.738.194-.926.33-1.785.227-1.422.197-1.955-.02-2.206.382-.133.681-.178.916-.173zm11.59 1.277c-.038 0-.067 0-.11.003-1.885.173-2.612 2.854-2.492 4.308.04.51.27 1.671 1.423 1.713.036-.007.068-.007.103-.01 1.848-.163 2.594-2.908 2.48-4.334-.055-.617-.306-1.647-1.405-1.68zM10.29 15.796c2.642.03 4.955 1.27 4.432 3.998-.376 1.916-2.304 3.848-5.513 3.857-.514.003-.96-.012-1.438-.038-.046.236-.739 4.011-.829 4.51-.116.652-.508.912-1.08.912h-1.19l2.384-13.01s1.09-.229 2.868-.229zm69.461 7.77c-.667-.5-1.759 0-2.24.324-.32.218-1.144 1.007-1.436 2.247.06 0 .14.006.24.009.585-.009 1.58-.109 2.534-.624.695-.373 1.104-.86 1.14-1.335.028-.246-.073-.508-.238-.622zm-69.71-6.394h-.108c-.647 0-1.001.095-1.001.095l-.89 4.86c.388.048 1.962.17 2.997-.407.711-.397 1.324-1.187 1.496-1.992.419-1.914-.976-2.484-2.267-2.55-.122-.006-.224-.006-.335-.006zM87.98 1.196c.044.116.021.259-.087.338-.064.06-.138.114-.216.165C77.112 8.354 61.486 12.68 44.003 12.68 26.506 12.681 10.89 8.347.323 1.7c-.078-.051-.147-.105-.225-.165-.097-.079-.125-.222-.071-.338.047-.124.168-.22.308-.191.088.022.197.054.275.082 11.711 4.028 26.877 6.304 43.393 6.304 16.506 0 31.675-2.276 43.386-6.304.08-.028.18-.06.284-.082.128-.028.247.067.306.19z"/>
    </g>
</svg>
