<svg xmlns="http://www.w3.org/2000/svg" width="14" height="14" viewBox="0 0 14 14">
    <g fill="none" fill-rule="evenodd">
        <path d="M0 0H14V14H0z"/>
        <g>
            <path fill="#B0FF67" d="M.539 6.841C1.924 9.794 5.484 11.06 8.49 9.667c3.007-1.393 4.321-4.917 2.936-7.87-.403-.608-.938-.758-1.605-.449l-8.57 3.97c-.77.357-1.008.865-.713 1.523z" transform="translate(0 1)"/>
            <path fill="#E6FFEE" d="M4 7.929C4 10.729 6.239 13 9 13s5-2.27 5-5.071c-.09-.62-.44-.929-1.052-.929H5.076C4.37 7 4.011 7.31 4 7.929z" style="mix-blend-mode:screen" transform="translate(0 1)"/>
        </g>
    </g>
</svg>
