<svg xmlns="http://www.w3.org/2000/svg" width="32" height="32" viewBox="0 0 32 32">
    <g fill="none" fill-rule="evenodd">
        <path d="M0 0H32V32H0z"/>
        <path fill="#333" d="M20.5 6C22.433 6 24 7.567 24 9.5S22.433 13 20.5 13c-.915 0-1.747-.35-2.37-.925l-4.398 3.08c.173.414.268.868.268 1.345s-.096.932-.269 1.347l4.398 3.078c.624-.574 1.456-.925 2.371-.925 1.933 0 3.5 1.567 3.5 3.5S22.433 27 20.5 27 17 25.433 17 23.5c0-.477.095-.931.268-1.346l-4.397-3.08c-.624.575-1.456.926-2.371.926C8.567 20 7 18.433 7 16.5S8.567 13 10.5 13c.915 0 1.747.35 2.37.925l4.399-3.078C17.096 10.432 17 9.977 17 9.5 17 7.567 18.567 6 20.5 6zm0 15.5c-1.105 0-2 .895-2 2s.895 2 2 2 2-.895 2-2-.895-2-2-2zm-10-7c-1.105 0-2 .895-2 2s.895 2 2 2 2-.895 2-2-.895-2-2-2zm10-7c-1.105 0-2 .895-2 2s.895 2 2 2 2-.895 2-2-.895-2-2-2z"/>
    </g>
</svg>
