<svg xmlns="http://www.w3.org/2000/svg" width="48" height="48" viewBox="0 0 48 48">
    <g fill="none" fill-rule="evenodd">
        <g>
            <g>
                <g>
                    <path d="M0 0H48V48H0z" transform="translate(-279 -77) translate(262 77) translate(17)"/>
                    <g fill="#FFF" fill-rule="nonzero">
                        <path d="M14 .25C21.594.25 27.75 6.406 27.75 14c0 3.935-2.676 8.72-7.997 14.415l-.367.39-.726.753-.374.381-.381.384-.786.774-.201.196-.203.196-.83.79c-1.013.953-2.568.994-3.63.123l-.141-.124-.42-.398-.207-.198-.205-.196-.8-.78c-.59-.58-1.153-1.153-1.691-1.716l-.53-.56-.68-.74C2.703 22.315.25 17.769.25 14 .25 6.406 6.406.25 14 .25zm0 1.5C7.235 1.75 1.75 7.235 1.75 14c0 2.852 1.695 6.38 5.103 10.552l.325.393.587.691c.967 1.118 2.05 2.28 3.25 3.485l.523.52.784.764.404.386.417.396c.482.452 1.232.452 1.714 0l.206-.195.205-.195.8-.77.77-.76c.704-.703 1.369-1.392 1.994-2.066l.461-.502.633-.709.603-.697C24.35 20.797 26.25 17.02 26.25 14c0-6.765-5.485-12.25-12.25-12.25zm0 11.511c.38 0 .693.282.743.648l.007.102v5.945c0 .414-.336.75-.75.75-.38 0-.693-.282-.743-.648l-.007-.102v-5.945c0-.414.336-.75.75-.75zM14 9c.663 0 1.2.537 1.2 1.2 0 .663-.537 1.2-1.2 1.2-.663 0-1.2-.537-1.2-1.2 0-.663.537-1.2 1.2-1.2z" transform="translate(-279 -77) translate(262 77) translate(17) translate(10 7)"/>
                    </g>
                </g>
            </g>
        </g>
    </g>
</svg>
