<svg id="Icon_32_Pulmuone_Filled" data-name="Icon/32/Pulmuone_Filled" xmlns="http://www.w3.org/2000/svg" xmlns:xlink="http://www.w3.org/1999/xlink" width="34" height="34" viewBox="0 0 34 34">
  <defs>
    <clipPath id="clip-path">
      <path id="Clip_4" data-name="Clip 4" d="M0,0H23.294V24.908H0Z" fill="none"/>
    </clipPath>
  </defs>
  <rect id="guidebox" width="34" height="34" fill="none"/>
  <g id="pulmuone_filled" transform="translate(5.313 4.319)">
    <g id="Group_8" data-name="Group 8">
      <path id="Fill_1" data-name="Fill 1" d="M8.933,6.379l.251-2.846c.108-1.295.183-2.2.2-2.4A1.078,1.078,0,0,0,9.357.823.893.893,0,0,0,9.113.4,1.956,1.956,0,0,0,7.267.067a2.773,2.773,0,0,0-.824.308,1.732,1.732,0,0,0-.575.544,3.216,3.216,0,0,0-.32,1.228L5.311,6.212l-.2,3.247S4.976,11.5,4.926,12.1c-.1,1.1-.214,2.528-.331,4.039l-3.278.152c-.208.012-1.3.107-1.318.78a.965.965,0,0,0,.009.123,1.469,1.469,0,0,0,.577,1.029c.068.052.168.115.191.129a3.8,3.8,0,0,0,1.75.417H4.411l-.273,3.95c-.016.276-.031.539-.044.786a2.339,2.339,0,0,0,.113,1.116.531.531,0,0,0,.463.252,1.877,1.877,0,0,0,2.036-.738,6.137,6.137,0,0,0,.867-2.788c.036-.26.1-.87.177-1.55l.805-9.136A1.2,1.2,0,0,1,9.7,9.475s.094,0,.213,0Z" transform="translate(0 0)" fill="#fff"/>
      <g id="Group_5" data-name="Group 5" transform="translate(0 0)">
        <path id="Clip_4-2" data-name="Clip 4" d="M0,0H23.294V24.908H0Z" fill="none"/>
        <g id="Group_5-2" data-name="Group 5" clip-path="url(#clip-path)">
          <path id="Fill_3" data-name="Fill 3" d="M21.976,6.983l-3.141-.146.321-4.644c.016-.276.031-.539.044-.786A2.338,2.338,0,0,0,19.087.291a.53.53,0,0,0-.463-.252,1.878,1.878,0,0,0-2.036.738,6.135,6.135,0,0,0-.867,2.788c-.036.26-.1.87-.177,1.55l-.138,1.562c-5.313-.246-11.971-.553-12.9-.593,0,0-.534-.014-.863.019A1.744,1.744,0,0,0,.131,7.152,3.156,3.156,0,0,0,.009,8.271a1.773,1.773,0,0,0,.185.678,1.387,1.387,0,0,0,1.151.51H9.059s2.28.034,2.321.036c0,0,3.911-.017,3.937,3.063a3.168,3.168,0,0,1-2.563,3.08,5.125,5.125,0,0,1-1.15.173l2.735,2.953-.23,2.61c-.108,1.295-.183,2.2-.2,2.4a1.08,1.08,0,0,0,.023.314.893.893,0,0,0,.243.426,1.957,1.957,0,0,0,1.847.33,2.775,2.775,0,0,0,.824-.308,1.733,1.733,0,0,0,.575-.544,3.217,3.217,0,0,0,.32-1.228l.233-4,.2-3.317c.07-1.088.136-2.045.185-2.637.082-.934.178-2.1.277-3.352h2.122a3.8,3.8,0,0,0,1.75-.417c.023-.014.123-.078.191-.129a1.468,1.468,0,0,0,.577-1.029.981.981,0,0,0,.009-.123c-.014-.673-1.11-.768-1.318-.78" transform="translate(0 0)" fill="#fff"/>
        </g>
      </g>
      <path id="Fill_6" data-name="Fill 6" d="M13.687,1.07A1.744,1.744,0,0,0,12.175.021C11.846-.011,11.312,0,11.312,0L8.7.121l-6.574.3c-.406.025-.781.012-.88.02C.935.459.243.568.185,1.238L0,3.377H12.472a1.387,1.387,0,0,0,1.151-.51,1.773,1.773,0,0,0,.185-.678,3.157,3.157,0,0,0-.122-1.119" transform="translate(9.476 15.388)" fill="#fff"/>
    </g>
  </g>
</svg>
