<svg xmlns="http://www.w3.org/2000/svg" width="48" height="48" viewBox="0 0 48 48">
    <g fill="none" fill-rule="evenodd">
        <g>
            <g>
                <g>
                    <path d="M0 0H48V48H0z" transform="translate(-33 -77) translate(16 77) translate(17)"/>
                    <path fill="#FFF" fill-rule="nonzero" d="M35 24.25c1.519 0 2.75 1.231 2.75 2.75v8c0 1.519-1.231 2.75-2.75 2.75H13c-1.519 0-2.75-1.231-2.75-2.75v-8c0-1.519 1.231-2.75 2.75-2.75zm0 1.5H13c-.69 0-1.25.56-1.25 1.25v8c0 .69.56 1.25 1.25 1.25h22c.69 0 1.25-.56 1.25-1.25v-8c0-.69-.56-1.25-1.25-1.25zm-11-16c3.176 0 5.75 2.574 5.75 5.75s-2.574 5.75-5.75 5.75-5.75-2.574-5.75-5.75S20.824 9.75 24 9.75zm0 1.5c-2.347 0-4.25 1.903-4.25 4.25s1.903 4.25 4.25 4.25 4.25-1.903 4.25-4.25-1.903-4.25-4.25-4.25z" transform="translate(-33 -77) translate(16 77) translate(17)"/>
                </g>
            </g>
        </g>
    </g>
</svg>
