<svg xmlns="http://www.w3.org/2000/svg" xmlns:xlink="http://www.w3.org/1999/xlink" width="42" height="42" viewBox="0 0 42 42">
    <defs>
        <filter id="8r6424lqra">
            <feColorMatrix in="SourceGraphic" values="0 0 0 0 1.000000 0 0 0 0 1.000000 0 0 0 0 1.000000 0 0 0 1.000000 0"/>
        </filter>
        <path id="c7izhpa4tb" d="M0 0.003L28.775 0.003 28.775 30.771 0 30.771z"/>
    </defs>
    <g fill="none" fill-rule="evenodd">
        <g>
            <g>
                <g>
                    <g>
                        <g>
                            <path d="M0 0H42V42H0z" transform="translate(-159 -441) translate(0 373) translate(0 55) translate(146) translate(13 13)"/>
                            <g filter="url(#8r6424lqra)" transform="translate(-159 -441) translate(0 373) translate(0 55) translate(146) translate(13 13)">
                                <g>
                                    <path fill="#FFF" d="M11.035 7.966l.31-3.516c.134-1.6.226-2.723.242-2.96.009-.133 0-.266-.029-.388-.074-.324-.3-.526-.3-.526-.27-.27-.913-.663-2.281-.407-.048.008-.568.11-1.018.38-.157.096-.521.342-.71.672-.114.21-.318.688-.395 1.517L6.561 7.76l-.247 4.01s-.168 2.528-.228 3.258c-.12 1.363-.264 3.123-.409 4.99l-4.049.188c-.256.015-1.611.132-1.628.963 0 .048.003.098.01.152.072.59.353.994.714 1.27.084.065.208.142.236.16.89.538 2.162.515 2.162.515H5.45l-.337 4.88c-.02.34-.038.665-.054.97-.026.5-.04 1.058.14 1.378.14.25.363.286.571.312.841.1 1.789.142 2.515-.913.655-.95.877-2.027 1.071-3.444.044-.32.129-1.074.22-1.914l.994-11.286c.148-1.257 1.065-1.437 1.417-1.459 0 0 .115-.005.263-.003l-1.214-3.821z" transform="translate(6.563 5.25)"/>
                                    <g transform="translate(6.563 5.25) translate(0 .083)">
                                        <mask id="j3j6dfi4qc" fill="#fff">
                                            <use xlink:href="#c7izhpa4tb"/>
                                        </mask>
                                        <path fill="#FFF" d="M27.147 8.629l-3.88-.18.396-5.737c.02-.34.038-.666.054-.971.026-.5.04-1.058-.14-1.378-.14-.25-.363-.286-.571-.311-.841-.102-1.789-.142-2.515.912-.655.95-.877 2.027-1.071 3.444-.045.32-.129 1.074-.22 1.914l-.17 1.93C12.467 7.948 4.243 7.57 3.095 7.52c0 0-.66-.017-1.067.023C.845 7.709.36 8.346.162 8.838c-.004.01-.21.642-.151 1.383 0 0 .039.546.229.838.18.251.58.597 1.422.63h9.53s2.816.041 2.866.044c0 0 4.831-.022 4.864 3.784 0 0 .119 2.955-3.166 3.805 0 0-.53.166-1.42.213l3.378 3.648-.284 3.224c-.134 1.6-.226 2.723-.242 2.96-.009.134 0 .266.028.388.075.324.301.526.301.526.27.27.913.663 2.281.407.047-.008.568-.11 1.018-.38.157-.096.521-.342.71-.672.114-.21.318-.688.395-1.517l.288-4.936.252-4.097c.086-1.344.167-2.527.228-3.257.102-1.154.22-2.593.342-4.14h2.621s1.273.022 2.163-.515c.028-.018.152-.096.236-.16.36-.277.642-.681.713-1.27.008-.055.01-.104.01-.152-.016-.832-1.37-.949-1.627-.963" mask="url(#j3j6dfi4qc)"/>
                                    </g>
                                    <path fill="#FFF" d="M28.613 20.416c-.198-.493-.683-1.13-1.867-1.295-.406-.04-1.066-.023-1.066-.023-.386.016-1.571.07-3.224.146l-8.12.374c-.502.03-.965.015-1.087.024-.387.019-1.242.154-1.314.98l-.229 2.644h15.407c.842-.032 1.242-.378 1.422-.63.19-.291.229-.838.229-.838.06-.74-.147-1.372-.15-1.382" transform="translate(6.563 5.25)"/>
                                </g>
                            </g>
                        </g>
                    </g>
                </g>
            </g>
        </g>
    </g>
</svg>
