<svg id="logos_Orga_white" data-name="logos/Orga_white" xmlns="http://www.w3.org/2000/svg" width="68" height="42" viewBox="0 0 68 42">
  <g id="logo_Orga" data-name="logo/Orga">
    <rect id="Rectangle" width="68" height="42" fill="none"/>
    <g id="Group" transform="translate(1.308 7.875)">
      <path id="Path" d="M8.718.24c-.5,1.295-.957,2.585-1.387,3.819s-.648,1.9-.67,1.957H6.051c-.017-.054-.175-.526-.472-1.41S4.872,2.637,4.4,1.332h0c-.429,1.079-.825,2.115-1.179,3.1s-.552,1.513-.578,1.574H1.976c-.017-.085-.21-.658-.561-1.722S.59,1.885,0,.289L.722.009c0,.042.186.555.516,1.553s.707,2.115,1.13,3.351l.026-.031c.455-1.135.844-2.174,1.179-3.118S4.082.327,4.1.28h.689c0,.054.186.585.531,1.61s.707,2.016,1.054,2.994h0Q7.077,2.966,7.548,1.52c.325-.968.5-1.473.507-1.52l.653.235Z" transform="translate(1.089 20.235)" fill="#fff"/>
      <path id="Path-2" data-name="Path" d="M4.892,6.016h-.7v-2.8H.7v2.8H0V0H.7V2.608H4.2V0h.7c0,.454,0,.973-.012,1.567s0,1.082,0,1.442V5.04c0,.471,0,.793.012.961Z" transform="translate(10.897 20.235)" fill="#fff"/>
      <path id="Shape" d="M2.7,6.015a2.584,2.584,0,0,1-.96-.184,2.459,2.459,0,0,1-.834-.54,2.8,2.8,0,0,1-.657-.976A3.294,3.294,0,0,1,0,2.993,3.4,3.4,0,0,1,.2,1.8,2.908,2.908,0,0,1,.793.831a2.426,2.426,0,0,1,.875-.6A2.657,2.657,0,0,1,2.735,0h.013A2.735,2.735,0,0,1,3.785.2a2.506,2.506,0,0,1,.837.576,2.9,2.9,0,0,1,.625,1l-.011-.009A3.513,3.513,0,0,1,5.449,3a3.283,3.283,0,0,1-.225,1.265,2.842,2.842,0,0,1-.606.949,2.662,2.662,0,0,1-.884.61,2.666,2.666,0,0,1-.981.188H2.7ZM2.719.581a1.734,1.734,0,0,0-.679.139,1.671,1.671,0,0,0-.6.41,2.3,2.3,0,0,0-.523.838A2.978,2.978,0,0,0,.734,3.013,2.848,2.848,0,0,0,.928,4.106a2.34,2.34,0,0,0,.54.822,1.839,1.839,0,0,0,.558.373,1.768,1.768,0,0,0,.695.141h.039a1.721,1.721,0,0,0,.671-.136,1.882,1.882,0,0,0,.588-.4,2.264,2.264,0,0,0,.518-.783l.009,0a2.568,2.568,0,0,0,.2-1.048,3.477,3.477,0,0,0-.18-1.085A2.3,2.3,0,0,0,4.006,1.1a1.953,1.953,0,0,0-.562-.38A1.705,1.705,0,0,0,2.77.581H2.719Z" transform="translate(17.435 20.235)" fill="#fff"/>
      <path id="Path-3" data-name="Path" d="M3.265,6.011H0Q0,5.24.013,4.443V0H.684C.684.387.669.833.663,1.342s0,.922,0,1.249V5.4H2.709l.56-.012v.632Z" transform="translate(24.519 20.235)" fill="#fff"/>
      <path id="Path-4" data-name="Path" d="M3.814,5.985H0c0-.17,0-.55.017-1.124s0-1.176,0-1.8V1.729C.017,1.179.017.591,0,0H3.745V.626H.735V2.6H3.752v.624H3.014c-.479,0-.9-.012-1.283-.012h-1V5.4H3.809v.612Z" transform="translate(28.878 20.235)" fill="#fff"/>
      <path id="Path-5" data-name="Path" d="M3.269.577H.664c0,.339,0,.721-.013,1.111s0,.755,0,1.055H3.222v.632H.644v1.5c0,.469.011.854.013,1.14H0V0H3.263V.63Z" transform="translate(37.051 20.235)" fill="#fff"/>
      <path id="Shape-2" data-name="Shape" d="M2.694,6.015a2.548,2.548,0,0,1-.954-.184,2.461,2.461,0,0,1-.833-.537A2.7,2.7,0,0,1,.255,4.32,3.252,3.252,0,0,1,0,3,3.324,3.324,0,0,1,.2,1.811,2.845,2.845,0,0,1,.794.846,2.428,2.428,0,0,1,1.663.227,2.653,2.653,0,0,1,2.722,0h.021A2.721,2.721,0,0,1,3.773.2a2.455,2.455,0,0,1,.838.574,2.763,2.763,0,0,1,.625,1v.009a3.585,3.585,0,0,1,.213,1.226,3.285,3.285,0,0,1-.236,1.261,2.765,2.765,0,0,1-.607.947,2.625,2.625,0,0,1-.878.608,2.649,2.649,0,0,1-.985.188H2.694ZM2.709.576a1.778,1.778,0,0,0-.688.139,1.7,1.7,0,0,0-.589.409,2.349,2.349,0,0,0-.526.835A2.955,2.955,0,0,0,.717,3a2.805,2.805,0,0,0,.2,1.09,2.23,2.23,0,0,0,.535.819,1.951,1.951,0,0,0,.571.375,1.781,1.781,0,0,0,.7.14h.032a1.728,1.728,0,0,0,.675-.136,1.9,1.9,0,0,0,.586-.4,2.423,2.423,0,0,0,.519-.781,2.626,2.626,0,0,0,.2-1.044,3.267,3.267,0,0,0-.183-1.082,2.24,2.24,0,0,0-.554-.892A1.925,1.925,0,0,0,3.425.715,1.691,1.691,0,0,0,2.752.576H2.709Z" transform="translate(41.409 20.234)" fill="#fff"/>
      <path id="Shape-3" data-name="Shape" d="M2.774,6.015H2.708a2.606,2.606,0,0,1-.963-.184A2.381,2.381,0,0,1,.91,5.291a2.843,2.843,0,0,1-.66-.976A3.322,3.322,0,0,1,0,2.993,3.442,3.442,0,0,1,.2,1.8,2.879,2.879,0,0,1,.791.831a2.462,2.462,0,0,1,.867-.6A2.688,2.688,0,0,1,2.724,0h.013A2.737,2.737,0,0,1,3.776.2a2.467,2.467,0,0,1,.84.576,2.783,2.783,0,0,1,.624,1l0-.009A3.431,3.431,0,0,1,5.448,3a3.268,3.268,0,0,1-.225,1.265,2.9,2.9,0,0,1-.6.949A2.549,2.549,0,0,1,2.774,6.015ZM2.707.578a1.743,1.743,0,0,0-1.273.548,2.289,2.289,0,0,0-.527.838,3.036,3.036,0,0,0,0,2.139,2.314,2.314,0,0,0,.541.822A1.878,1.878,0,0,0,2.02,5.3a1.751,1.751,0,0,0,.692.141h.039A1.711,1.711,0,0,0,3.422,5.3a1.975,1.975,0,0,0,.592-.4,2.309,2.309,0,0,0,.517-.783,2.6,2.6,0,0,0,.2-1.048,3.4,3.4,0,0,0-.181-1.085,2.335,2.335,0,0,0-.56-.894A1.892,1.892,0,0,0,3.431.717,1.723,1.723,0,0,0,2.753.578H2.707Z" transform="translate(47.948 20.235)" fill="#fff"/>
      <path id="Shape-4" data-name="Shape" d="M1.006,6.015H.932c-.1,0-.2,0-.295-.006H.624C.53,6.006.433,6,.338,6H.014V1.824c0-.225,0-.473-.006-.736V1.055C0,.74,0,.385,0,0H.864A7.383,7.383,0,0,1,2.38.159,4.181,4.181,0,0,1,3.629.683a2.771,2.771,0,0,1,.95,1.006L4.6,1.684A2.916,2.916,0,0,1,4.9,3.033a2.47,2.47,0,0,1-.379,1.38,2.924,2.924,0,0,1-.978.958A4.506,4.506,0,0,1,2.38,5.85,5.817,5.817,0,0,1,1.006,6.015ZM.727.593c-.012.474-.012.862-.012,1.174V5.431H.934A5.166,5.166,0,0,0,2.075,5.3a3.637,3.637,0,0,0,.968-.384,2.457,2.457,0,0,0,.8-.771h.012a2.024,2.024,0,0,0,.3-1.112,2.3,2.3,0,0,0-.232-1.051,2.157,2.157,0,0,0-.774-.817A3.171,3.171,0,0,0,2.057.719,5.27,5.27,0,0,0,.96.593Z" transform="translate(55.032 20.234)" fill="#fff"/>
      <path id="Path-6" data-name="Path" d="M3.269,4.282a1.466,1.466,0,0,1-.206.794,1.626,1.626,0,0,1-.541.543,2.418,2.418,0,0,1-.718.293,3.753,3.753,0,0,1-.886.1A3.894,3.894,0,0,1,.375,5.99L.033,5.964,0,5.348a2.628,2.628,0,0,0,.328.042,6.229,6.229,0,0,0,.629.023,2.915,2.915,0,0,0,.565-.066,1.75,1.75,0,0,0,.536-.157,1.046,1.046,0,0,0,.377-.307.78.78,0,0,0,.133-.469.894.894,0,0,0-.133-.5,1.466,1.466,0,0,0-.443-.394c-.133-.08-.3-.173-.505-.274a4.485,4.485,0,0,1-.563-.314,1.729,1.729,0,0,1-.6-.59,1.467,1.467,0,0,1-.186-.717A1.485,1.485,0,0,1,.3.925,1.753,1.753,0,0,1,.731.417,1.866,1.866,0,0,1,1.4.1,3.529,3.529,0,0,1,2.249,0c.171,0,.35,0,.523.012l.3.016.062.632A2.925,2.925,0,0,0,2.828.623C2.65.6,2.431.6,2.163.6a2.273,2.273,0,0,0-.476.052,1.31,1.31,0,0,0-.443.171.842.842,0,0,0-.281.286.754.754,0,0,0-.12.429.78.78,0,0,0,.12.405,1.481,1.481,0,0,0,.463.417c.113.068.266.155.443.248s.372.2.552.312a1.9,1.9,0,0,1,.625.588,1.463,1.463,0,0,1,.222.764Z" transform="translate(60.48 20.235)" fill="#fff"/>
      <path id="Shape-5" data-name="Shape" d="M8,17.5H7.857a7.708,7.708,0,0,1-2.809-.528,7.234,7.234,0,0,1-2.413-1.564A8.333,8.333,0,0,1,.724,12.563,9.854,9.854,0,0,1,0,8.719,10.026,10.026,0,0,1,.584,5.256a8.441,8.441,0,0,1,1.71-2.812A7.347,7.347,0,0,1,4.812.636,7.921,7.921,0,0,1,10.94.6a7.279,7.279,0,0,1,2.427,1.669,8.188,8.188,0,0,1,1.805,2.917l.012-.01A10.25,10.25,0,0,1,15.8,8.732a9.681,9.681,0,0,1-.687,3.677,8.162,8.162,0,0,1-1.762,2.762A7.387,7.387,0,0,1,8,17.5ZM7.884,2a5.086,5.086,0,0,0-1.923.376A4.981,4.981,0,0,0,4.341,3.5,6.577,6.577,0,0,0,2.894,5.823,8.745,8.745,0,0,0,2.908,11.8a6.417,6.417,0,0,0,1.486,2.279,5.245,5.245,0,0,0,1.559,1.036,4.967,4.967,0,0,0,3.85.011,5.232,5.232,0,0,0,1.618-1.1,6.367,6.367,0,0,0,1.429-2.169l-.01.017A7.382,7.382,0,0,0,13.4,8.956a9.34,9.34,0,0,0-.509-3.037,6.264,6.264,0,0,0-1.535-2.486A5.09,5.09,0,0,0,9.807,2.379,5.086,5.086,0,0,0,7.884,2Z" transform="translate(0 0)" fill="#fff"/>
      <path id="Path-7" data-name="Path" d="M1.339.026,0,.065V.232L.061,6.187V8.419l-.025,5.2L0,16.6H2.287l-.032-3.748L2.228,8.349V5.864s.043-3.572.05-3.885h.806l1.372.053a4.825,4.825,0,0,1,1.386.309A2.631,2.631,0,0,1,7.07,3.27a2.526,2.526,0,0,1,.451,1.5,3.313,3.313,0,0,1-.3,1.535,3.854,3.854,0,0,1-.729.975,5.981,5.981,0,0,1-1.217.85,5.481,5.481,0,0,1-1.153.513l-.115.03-.027.3,4.891,5.743,1.946,2.227.12-.114,1.591-1.366-2.178-2.348C9.119,11.8,7.977,10.492,6.941,9.243A9.3,9.3,0,0,0,8.794,7.617,4.345,4.345,0,0,0,9.873,4.633a4.2,4.2,0,0,0-.716-2.425A4.457,4.457,0,0,0,7.237.655,6.883,6.883,0,0,0,5.309.121,17.224,17.224,0,0,0,3.3,0L1.343.028Z" transform="translate(19.615 0.547)" fill="#fff"/>
      <path id="Path-8" data-name="Path" d="M8.113,14.284a9.932,9.932,0,0,1-2.636-.908A6.121,6.121,0,0,1,3.22,11.4a5.5,5.5,0,0,1-.867-3.178A5.34,5.34,0,0,1,3.19,5.364,5.954,5.954,0,0,1,5.5,3.23a9.561,9.561,0,0,1,2.566-.883,16.076,16.076,0,0,1,3.257-.3H12.42L12.246,0H11.091A17.985,17.985,0,0,0,7.466.361,11.918,11.918,0,0,0,4.344,1.45,8.5,8.5,0,0,0,1.161,4.245,6.974,6.974,0,0,0,0,8.19,7.917,7.917,0,0,0,.61,11.368a6.963,6.963,0,0,0,1.6,2.34A8.88,8.88,0,0,0,6,15.855a15.291,15.291,0,0,0,2.436.488,14.815,14.815,0,0,0,4.6-.293l-.014-1.462V11.926l.018-1.889.038-2.161H10.786l.05,5.005s0,1.151.011,1.444a7.615,7.615,0,0,1-2.709-.036Z" transform="translate(33.237 0.547)" fill="#fff"/>
      <path id="Shape-6" data-name="Shape" d="M1.929,16.954h0L.142,16.011,0,15.933l2.629-5.617L7.365,0H9.144l4.74,10.474-.009.007,2.471,5.367-2.025,1.02-.166.071-.836-1.932-1.837-4.138H4.652c-.083.193-1.875,4.171-1.892,4.209l-.831,1.875ZM8.1,3.173c-.187.406-.971,2.154-1.3,2.887L6.782,6.1,5.5,8.987h5.16c-.1-.229-.491-1.124-1.163-2.659l-.061-.14Z" transform="translate(47.948 0.547)" fill="#fff"/>
    </g>
  </g>
</svg>
