<svg xmlns="http://www.w3.org/2000/svg" width="52" height="32" viewBox="0 0 52 32">
    <defs>
        <filter id="prefix__a">
            <feColorMatrix in="SourceGraphic" values="0 0 0 0 1.000000 0 0 0 0 1.000000 0 0 0 0 1.000000 0 0 0 1.000000 0"/>
        </filter>
    </defs>
    <g fill="none" fill-rule="evenodd" filter="url(#prefix__a)">
        <path d="M0 0H52V32H0z"/>
        <g fill-rule="nonzero">
            <path fill="#718735" d="M7.5 15.6c-.379.986-.732 1.969-1.06 2.909-.329.94-.496 1.45-.512 1.491H5.46L5.1 18.926c-.227-.673-.541-1.5-.902-2.494-.328.822-.63 1.611-.901 2.361-.27.75-.422 1.153-.442 1.2h-.51c-.013-.065-.161-.501-.43-1.312-.268-.812-.63-1.828-1.082-3.044l.552-.213c0 .032.143.422.395 1.183.253.761.541 1.612.864 2.553l.02-.023c.348-.865.645-1.656.901-2.376s.39-1.095.4-1.131h.527c0 .04.143.446.406 1.226s.54 1.536.806 2.281c.36-.974.661-1.828.902-2.562.248-.738.378-1.123.387-1.158l.5.179.007.003zM12.075 20h-.54v-.76-1.37H8.873V20h-.539v-.732-1.77-.915-1.166h.54V17.403h2.671v-.952-1.034h.54c0 .346 0 .741-.01 1.194-.008.452 0 .824 0 1.098v1.548c0 .358 0 .604.01.732l-.01.011zM16.8 18.559c-.087.225-.222.428-.395.596-.13.13-.282.232-.449.304-.17.072-.353.107-.537.104-.184 0-.367-.036-.537-.108-.158-.067-.303-.164-.426-.284-.181-.176-.322-.39-.413-.626-.104-.265-.154-.548-.148-.832-.001-.273.047-.543.142-.798.085-.24.222-.458.4-.638.127-.136.283-.243.456-.312.17-.072.353-.108.538-.106.184-.002.366.034.535.106.16.07.305.168.43.29.195.19.341.423.429.68.09.267.136.547.138.828.004.274-.048.546-.155.798l-.007-.002zm.546-1.784c-.105-.286-.268-.546-.478-.765-.182-.188-.4-.338-.64-.439-.256-.103-.528-.156-.804-.154-.28.001-.558.06-.815.173-.254.102-.482.26-.67.46-.197.213-.35.463-.452.737-.105.291-.157.6-.153.91-.006.346.06.689.192 1.008.114.28.285.534.503.743.183.18.4.32.638.411.24.096.497.143.756.14.262.002.521-.047.765-.143.255-.107.485-.265.677-.465.2-.207.358-.453.462-.723.12-.307.18-.634.172-.964.003-.32-.052-.637-.161-.936l.008.007zM21.247 19.996H18.75c0-.391.003-.79.01-1.194v-1.188-1.482-.715h.513c0 .294-.011.635-.016 1.022-.005.388 0 .703 0 .952v2.137h1.565l.428-.01V20l-.003-.004zM25 19.976h-2.917c0-.129 0-.419.013-.856s0-.896 0-1.368v-1.018c0-.42 0-.867-.013-1.317H24.947v.477h-2.302V17.4h2.307v.476h-.564c-.366 0-.684-.01-.98-.01h-.766V19.535h2.354V20l.004-.024zM30.833 15.856H28.84c0 .259 0 .55-.009.847-.01.296 0 .575 0 .804H30.798v.482H28.825v1.143c0 .357.008.65.01.868h-.503v-.733-1.513-1.022-1.315h2.495v.48l.005-.04zM35.129 18.55c-.093.222-.227.424-.397.594-.13.128-.281.231-.448.303-.17.071-.353.106-.536.103-.184.001-.367-.035-.536-.107-.161-.068-.309-.165-.437-.285-.18-.175-.32-.388-.409-.624-.105-.264-.156-.546-.15-.83 0-.272.048-.541.143-.795.088-.239.225-.456.402-.636.127-.135.28-.24.45-.312.17-.07.353-.106.537-.105.184-.003.367.032.537.105.16.07.306.168.432.29.193.188.338.421.424.678.093.265.14.544.139.825.004.273-.047.544-.151.795zm.541-1.78c-.103-.285-.266-.545-.478-.762-.18-.189-.4-.338-.64-.437-.256-.104-.529-.156-.804-.154-.279.002-.554.06-.81.173-.254.105-.48.266-.664.472-.2.211-.355.461-.456.734-.105.291-.156.599-.15.908-.007.345.059.687.193 1.004.11.282.28.535.498.742.183.179.4.318.638.41.239.095.494.142.75.14.264.002.525-.047.77-.144.253-.107.482-.264.672-.463.202-.206.36-.451.464-.72.122-.306.183-.633.18-.962 0-.318-.055-.634-.163-.934v-.007zM40.132 18.559c-.09.224-.225.427-.396.596-.131.128-.285.23-.452.304-.17.07-.351.106-.534.104-.185.001-.368-.035-.539-.108-.162-.068-.31-.165-.437-.286-.18-.176-.322-.39-.413-.626-.199-.525-.199-1.105 0-1.63.085-.24.223-.458.403-.638.126-.135.279-.241.449-.312.17-.072.354-.108.539-.106.185-.002.368.034.538.106.16.07.306.168.43.29.194.19.34.424.43.681.09.266.137.546.137.827.004.274-.048.545-.153.798h-.002zm.54-1.785c-.103-.286-.265-.546-.476-.764-.182-.19-.4-.338-.642-.439-.256-.103-.529-.156-.804-.154-.28.002-.558.06-.816.173-.251.103-.477.26-.663.46-.198.212-.353.463-.454.737-.103.292-.154.6-.15.91-.005.345.06.688.191 1.007.115.281.287.535.504.744.182.18.4.32.64.411.239.095.494.143.751.14.546.01 1.07-.21 1.446-.608.2-.208.356-.454.462-.723.12-.307.178-.634.172-.964.003-.32-.053-.637-.164-.936l.004.006zM45.019 18.572c-.157.242-.365.443-.61.588-.231.133-.48.231-.739.292-.286.066-.579.1-.872.102h-.168v-1.522-1.27c0-.237 0-.533.01-.894h.177c.282.003.563.035.84.096.294.06.576.175.831.338.248.15.452.365.591.622.122.249.183.524.178.802.007.299-.073.594-.23.846h-.008zm.566-1.868c-.174-.315-.425-.579-.727-.767-.295-.184-.617-.32-.954-.4-.403-.084-.814-.124-1.226-.12h-.595c0 .547.011 1.006.011 1.389v3.185h.248c.144 0 .299.009.454.009.373.004.745-.038 1.108-.126.312-.08.611-.202.89-.365.303-.179.56-.43.748-.73.198-.313.3-.68.29-1.052.006-.357-.074-.71-.234-1.027l-.013.004zM48.75 18.68c.006.213-.05.424-.158.604-.105.171-.246.313-.414.414-.17.104-.356.18-.549.223-.222.053-.45.08-.677.079-.133 0-.277 0-.416-.02l-.26-.02-.026-.469c.083.016.167.027.25.032.136.015.297.018.482.018.145-.002.29-.019.432-.05.142-.017.28-.058.41-.12.112-.053.21-.133.288-.233.071-.104.107-.23.102-.357.004-.135-.031-.268-.102-.38-.092-.123-.207-.225-.339-.3-.101-.06-.227-.132-.386-.209-.148-.069-.292-.149-.43-.239-.187-.108-.345-.262-.461-.45-.093-.165-.143-.354-.143-.546-.002-.187.04-.371.126-.535.085-.15.197-.282.33-.388.153-.113.326-.195.509-.24.214-.053.432-.078.652-.077.13 0 .268 0 .4.009l.23.012.048.482c-.078-.014-.157-.023-.236-.029-.135-.014-.303-.017-.508-.017-.122 0-.244.013-.364.039-.12.022-.234.066-.34.13-.087.053-.16.128-.215.218-.062.096-.094.21-.091.327.002.11.033.217.091.308.096.131.217.24.355.318.086.052.203.118.339.19.135.07.284.15.422.237.189.109.352.262.477.447.11.173.168.375.17.582l.002.01z" transform="translate(1 6)"/>
            <path fill="#614E41" d="M11.603 3.949c-.3-.831-.77-1.588-1.38-2.222C9.693 1.181 9.062.75 8.366.456 6.862-.162 5.177-.151 3.68.484c-.73.317-1.386.787-1.925 1.378C1.185 2.482.74 3.21.447 4.004c-.303.846-.454 1.74-.446 2.639-.013 1.004.175 2 .553 2.929.334.817.831 1.555 1.461 2.167.532.516 1.159.921 1.846 1.191.694.27 1.432.406 2.176.403 1.573.022 3.085-.62 4.173-1.773.585-.602 1.044-1.318 1.348-2.105.355-.89.533-1.842.525-2.802.004-.925-.155-1.843-.47-2.711l-.01.007zm-1.776 5.09c-.249.62-.62 1.183-1.093 1.652-.358.354-.777.638-1.237.837-.944.392-2.003.389-2.945-.01-.44-.189-.844-.456-1.192-.788-.498-.489-.886-1.081-1.136-1.736-.541-1.47-.545-3.086-.01-4.557.241-.663.618-1.268 1.106-1.774.354-.363.775-.652 1.24-.85.943-.383 1.996-.383 2.94 0 .44.191.841.464 1.183.803.536.527.938 1.176 1.175 1.893.257.744.388 1.526.389 2.314.01.765-.136 1.523-.427 2.228l.007-.013zM16.024.436L15 .466v.128l.047 4.536v1.7l-.02 3.96L15 13.069h1.749l-.025-2.856-.02-3.434V4.884s.032-2.72.038-2.96h.616l1.05.04c.362.027.719.106 1.06.236.374.136.7.382.938.708.234.333.355.736.345 1.147.02.403-.058.804-.226 1.17-.146.276-.334.527-.557.742-.283.255-.596.472-.93.648-.28.164-.575.295-.883.39l-.088.024-.02.232 3.74 4.375 1.488 1.697.091-.086 1.217-1.04-1.665-1.79c-.945-1.012-1.818-2.006-2.61-2.958.523-.347 1-.763 1.417-1.239.55-.62.846-1.435.825-2.273.012-.66-.18-1.306-.547-1.848-.372-.527-.881-.938-1.47-1.183-.47-.207-.965-.344-1.473-.407-.511-.06-1.025-.092-1.54-.092l-1.493.02h-.003zM31.621 11.3c-.701-.135-1.38-.368-2.016-.692-.691-.35-1.284-.868-1.726-1.506-.439-.635-.663-1.448-.663-2.421.002-.772.224-1.528.64-2.178.434-.69 1.044-1.252 1.768-1.625.619-.317 1.28-.543 1.962-.673.82-.162 1.655-.24 2.491-.232h.837L34.781.417h-.883c-.931-.002-1.86.09-2.772.275-.83.164-1.634.444-2.388.83-.977.492-1.814 1.225-2.433 2.129-.592.889-.902 1.937-.888 3.005-.013.831.146 1.656.467 2.422.28.672.697 1.279 1.223 1.783.816.777 1.812 1.34 2.898 1.636.61.174 1.233.298 1.863.372 0 0 1.836.202 3.516-.224l-.01-1.113V9.503l.013-1.439.03-1.646h-1.752l.038 3.813s0 .877.008 1.1c-.894.21-2.071-.028-2.071-.028l-.019-.003zM47.284 8.397L43.66.417h-1.361l-3.622 7.86-2.01 4.28.109.058 1.366.718.636-1.428s1.383-3.06 1.447-3.207h5.222l1.405 3.152.64 1.473.126-.054 1.549-.778-1.89-4.089.007-.005zM40.87 7.264l.983-2.201s.835-1.857 1.007-2.229l1.02 2.297.936 2.133h-3.946z" transform="translate(1 6)"/>
        </g>
    </g>
</svg>
