<svg xmlns="http://www.w3.org/2000/svg" xmlns:xlink="http://www.w3.org/1999/xlink" width="128" height="32" viewBox="0 0 128 32">
    <defs>
        <path id="kpl8xf4k5b" d="M0.016 0.018L10.504 0.018 10.504 11.556 0.016 11.556z"/>
        <path id="2f78s73mfd" d="M0.211 0.012L10.452 0.012 10.452 11.528 0.211 11.528z"/>
        <path id="fayordd43f" d="M0 0.004L8.756 0.004 8.756 21.228 0 21.228z"/>
        <filter id="jl8n8chk1a">
            <feColorMatrix in="SourceGraphic" values="0 0 0 0 1.000000 0 0 0 0 1.000000 0 0 0 0 1.000000 0 0 0 1.000000 0"/>
        </filter>
    </defs>
    <g fill="none" fill-rule="evenodd">
        <g>
            <g>
                <g filter="url(#jl8n8chk1a)" transform="translate(-14 -49) translate(0 37) translate(14 12)">
                    <g>
                        <g transform="translate(2.667 5.333) translate(86.222 9.778)">
                            <mask id="3q4nnurshc" fill="#fff">
                                <use xlink:href="#kpl8xf4k5b"/>
                            </mask>
                            <path fill="#231F20" d="M2.57 7.55c-.161-1.959.823-5.576 3.355-5.809.051-.005.1-.005.148-.007 1.48.05 1.821 1.437 1.89 2.272.157 1.916-.852 5.61-3.338 5.839-.047.004-.092.004-.137.006-1.56-.052-1.862-1.618-1.918-2.3M6.2.018c-.948 0-1.685.133-2.366.408C1.218 1.496-.082 4.784.021 7.336c.106 2.602 1.73 4.176 4.348 4.219 1.617.026 3.086-.596 4.148-1.723 1.305-1.388 2.065-3.526 1.98-5.58C10.39 1.6 8.768.017 6.2.017" mask="url(#3q4nnurshc)"/>
                        </g>
                        <g transform="translate(2.667 5.333) translate(111.111 9.778)">
                            <mask id="hi1r1wut8e" fill="#fff">
                                <use xlink:href="#2f78s73mfd"/>
                            </mask>
                            <path fill="#231F20" d="M2.962 5.535C3.35 3.869 4.43 2.804 4.848 2.517c.638-.437 2.071-1.102 2.95-.443.217.162.35.512.323.84-.05.642-.599 1.296-1.503 1.796-1.26.695-2.565.827-3.337.836-.128-.002-.237-.007-.32-.011M9.26.558C8.762.258 8.104.068 7.403.02c-.144-.01-.29-.01-.437-.008C6.168-.002 5.334.154 4.5.484 2.053 1.452.373 3.881.221 6.673.144 8.08.534 9.303 1.349 10.21c.741.826 1.815 1.215 2.939 1.3 0 0 .214.02.556.016.728.01 2.383-.08 3.559-.996.608-.474.788-1.548.304-2.15l-.005.005-.003-.005s-1.534 1.224-3.27 1.3c-.206-.004-.418-.018-.637-.056C2.94 9.299 2.789 7.56 2.789 7.087c.118.001.236.002.353 0 2.485.005 4.707-.647 5.949-1.745.797-.703 1.275-1.348 1.355-2.561C10.547 1.259 9.264.56 9.26.558" mask="url(#hi1r1wut8e)"/>
                        </g>
                        <path fill="#231F20" d="M27.546 11.168c.005.002 1.172-6.53 1.172-6.53s.468-.12 1.325-.129c.137.002.282.006.436.014 1.703.088 3.541.854 2.99 3.43-.231 1.075-1.032 2.132-1.971 2.665-1.369.777-3.443.615-3.952.55m2.962-8.5c-.164-.002-.325-.002-.48 0-2.34 0-3.777.305-3.777.305l-3.14 17.471h1.566c.752 0 1.267-.346 1.424-1.221l1.087-6.064c.634.036 1.216.056 1.893.054 4.233-.01 6.772-2.605 7.263-5.179.698-3.66-2.348-5.33-5.836-5.366M69.64 9.792c-2.14-.172-3.361 1.224-4.15 2.507-.08-.806-.336-1.435-.767-1.87-.42-.424-1.007-.634-1.682-.648-1.854-.038-3.05 1.177-3.96 2.837.01-.065.02-.13.028-.193.16-1.176.097-1.618-.252-2.079 0 0-.312-.462-1.212-.425-.324-.012-.735.043-1.255.227.297.34.295.986.02 2.962-.018.13-1.294 7.572-1.294 7.572s-.082.506.434.506h1.997s.262-1.567.31-1.821c.225-1.039.397-2.117 1.03-3.632 1.301-3.111 3.336-4.392 3.953-3.679.21.243.234.843.112 1.677l-1.197 6.95s-.082.505.434.505h1.995l.256-1.517c.425-2.601 1.03-4.075 1.03-4.075 1.148-2.808 2.697-3.988 3.358-3.76.16.055.445.212.563.74.067.327.07.859-.027 1.455-.107.817-.615 3.09-.85 4.797-.159 1.175-.096 1.617.252 2.078 0 0 .313.463 1.212.425.323.012.735-.042 1.255-.227-.296-.34-.332-1.06-.029-2.974.185-1.165.449-2.414.449-2.414.373-1.847.5-3.425.107-4.396-.48-1.185-1.61-1.487-2.12-1.528M106.979 9.792c-2.109-.17-3.445 1.185-4.378 2.85l.032-.22c.159-1.175.07-1.712-.25-2.078-.619-.704-1.939-.382-2.456-.198.294.34.294.986.019 2.963-.037.268-.08.553-.129.818h.005l-1.15 6.755s-.082.506.432.506l1.983-.001s.26-1.566.308-1.82c.224-1.04.48-2.15 1.097-3.67 1.281-3.152 3.168-4.115 3.75-3.848.237.109.413.353.49.726.067.326.07.859-.027 1.454-.106.818-.612 3.092-.846 4.799-.158 1.175-.096 1.617.25 2.078 0 0 .312.463 1.208.425.322.012.731-.042 1.249-.227-.295-.34-.33-1.06-.028-2.974.184-1.166.446-2.415.446-2.415.372-1.848.506-3.43.107-4.397-.489-1.183-1.657-1.489-2.112-1.526M46.339 10.096c-.748.047-1.677.127-1.677.127l-.227 1.334c-.071.412-.16.861-.25 1.305-.186.74-.434 1.557-.85 2.549-1.306 3.11-3.054 4.014-3.712 3.87-.216-.048-.447-.237-.562-.75-.068-.326-.072-.858.026-1.453.108-.817.618-3.09.854-4.796.16-1.175.097-1.616-.253-2.077 0 0-.313-.463-1.216-.425-.325-.012-.738.042-1.26.227.297.34.333 1.06.029 2.973-.186 1.164-.274 1.417-.451 2.413-.201 1.131-.41 2.344-.327 3.459.103 1.381 1.045 2.326 2.35 2.46 2.057.211 3.468-1.19 4.405-2.802l-.025.173c-.16 1.175-.097 1.616.253 2.077 0 0 .313.463 1.216.425.325.012.738-.043 1.26-.227-.298-.34-.297-.985-.02-2.96.038-.268.082-.554.13-.818h-.005l.733-4.305.33-1.9c.086-.478-.073-.922-.751-.88M83.672 10.096c-.748.047-1.677.127-1.677.127l-.227 1.334c-.07.412-.16.861-.25 1.305-.186.74-.433 1.557-.85 2.549-1.306 3.11-3.054 4.014-3.712 3.87-.216-.048-.446-.237-.562-.75-.067-.326-.071-.858.027-1.453.107-.817.618-3.09.853-4.796.16-1.175.097-1.616-.252-2.077 0 0-.314-.463-1.217-.425-.325-.012-.738.042-1.26.227.298.34.334 1.06.029 2.973-.186 1.164-.274 1.417-.45 2.413-.202 1.131-.41 2.344-.328 3.459.103 1.381 1.046 2.326 2.35 2.46 2.058.211 3.468-1.19 4.406-2.802l-.026.173c-.16 1.175-.097 1.616.253 2.077 0 0 .314.463 1.217.425.324.012.737-.043 1.26-.227-.299-.34-.297-.985-.02-2.96.037-.268.081-.554.13-.818h-.005l.732-4.305.33-1.9c.086-.478-.073-.922-.751-.88M53.862 3.556c-.061-.002-.132.004-.215.02l-1.982.407-2.699 15.136c-.136.865-.083 1.21.086 1.55.165.294.424.462.708.553.305.095.621.117.895.11.521.014.943-.1.943-.1s-.268-.83-.045-2.139l2.62-14.717c.076-.42.12-.821-.311-.82" transform="translate(2.667 5.333)"/>
                        <g transform="translate(2.667 5.333)">
                            <mask id="6wrzo62wgg" fill="#fff">
                                <use xlink:href="#fayordd43f"/>
                            </mask>
                            <path fill="#80C342" d="M7.888 5.44l.222-2.425c.095-1.104.162-1.879.173-2.042.006-.092 0-.184-.02-.268-.054-.223-.215-.363-.215-.363-.193-.187-.653-.457-1.63-.28-.035.005-.407.076-.728.261-.113.066-.373.237-.508.464-.081.145-.228.474-.283 1.046L4.69 5.297l-.176 2.767s-.12 1.743-.164 2.247c-.085.94-.189 2.154-.292 3.442l-2.894.13c-.183.01-1.152.09-1.164.664 0 .033.002.068.008.105.05.407.252.685.51.877.06.044.148.097.168.11.637.37 1.546.355 1.546.355h1.663l-.24 3.365-.04.67c-.018.345-.028.73.1.95.1.173.26.198.409.215.601.07 1.279.098 1.798-.629.468-.656.627-1.398.766-2.375.031-.222.092-.742.156-1.32l.711-7.786c.106-.867.761-.991 1.013-1.006 0 0 .083-.004.188-.002l-.868-2.637z" mask="url(#6wrzo62wgg)"/>
                        </g>
                        <path fill="#009333" d="M18.449 5.98l-2.637-.124.27-3.978.036-.673c.018-.347.028-.733-.095-.956-.095-.173-.246-.198-.388-.215-.572-.07-1.216-.099-1.71.632-.444.66-.595 1.405-.727 2.388-.03.223-.088.745-.15 1.327l-.115 1.338c-4.46-.21-10.05-.473-10.83-.507 0 0-.448-.012-.725.016-.804.115-1.133.556-1.268.898-.003.007-.143.445-.103.958 0 0 .027.38.156.582.123.174.394.414.967.436h6.476l1.948.03s3.283-.014 3.305 2.624c0 0 .081 2.05-2.151 2.639 0 0-.36.115-.966.148l2.297 2.53-.193 2.234c-.091 1.11-.154 1.888-.165 2.052-.006.093 0 .185.02.27.05.224.204.364.204.364.183.188.62.46 1.55.283.032-.006.386-.077.692-.264.106-.066.354-.237.482-.466.078-.145.217-.477.269-1.052l.195-3.422.172-2.841c.058-.932.113-1.751.155-2.258.069-.8.15-1.798.232-2.87h1.781s.865.015 1.47-.358c.02-.012.103-.066.16-.11.246-.193.437-.473.485-.881.005-.038.007-.072.008-.106-.012-.576-.933-.657-1.107-.667" transform="translate(2.667 5.333)"/>
                        <path fill="#80C342" d="M19.446 14.178c-.134-.315-.462-.722-1.264-.828-.275-.025-.722-.014-.722-.014-.26.01-1.063.044-2.182.093l-5.498.239c-.34.02-.653.01-.736.016-.262.012-.84.098-.889.626L8 16h10.43c.57-.02.841-.242.963-.402.129-.187.155-.536.155-.536.04-.473-.1-.877-.102-.884" transform="translate(2.667 5.333)"/>
                    </g>
                </g>
            </g>
        </g>
    </g>
</svg>
