<svg xmlns="http://www.w3.org/2000/svg" xmlns:xlink="http://www.w3.org/1999/xlink" width="48" height="48" viewBox="0 0 48 48">
    <defs>
        <path id="prefix__a" d="M31 19.25c1.519 0 2.75 1.231 2.75 2.75v11c0 4.832-3.918 8.75-8.75 8.75h-8c-1.519 0-2.75-1.231-2.75-2.75V22c0-1.519 1.231-2.75 2.75-2.75zm0 1.5H17c-.69 0-1.25.56-1.25 1.25v4h4c.414 0 .75.336.75.75s-.336.75-.75.75h-4V32h4c.414 0 .75.336.75.75s-.336.75-.75.75h-4V39c0 .647.492 1.18 1.122 1.244l.128.006h8c4.004 0 7.25-3.246 7.25-7.25V22c0-.69-.56-1.25-1.25-1.25zm-7.322-15.5c1.518 0 2.75 1.231 2.75 2.75l-.001.538.228.058c3.218.872 5.522 3.33 6.198 6.621l.054.284.049.313.01.121.004.096c0 .875-.657 1.607-1.564 1.711l-.156.008H16.672c-.107 0-.214-.01-.319-.03-.85-.162-1.44-.936-1.372-1.836l.023-.163.052-.253c.69-3.146 2.852-5.686 5.838-6.716l.032-.011.002-.741c0-1.463 1.141-2.658 2.582-2.745zm0 1.5c-.69 0-1.25.56-1.25 1.25l-.002 1.87-.555.15c-2.73.736-4.732 2.952-5.348 5.76l-.04.19-.01.066c-.008.1.062.191.162.21.012.003.025.004.037.004l14.535.001.07-.003c.108-.012.193-.106.193-.19v-.047l-.043-.263c-.539-3.088-2.748-5.31-5.88-5.863l-.62-.11V8c0-.69-.559-1.25-1.25-1.25z"/>
    </defs>
    <g fill="none" fill-rule="evenodd">
        <path d="M0 0H48V48H0z"/>
        <use fill="#ADADAD" xlink:href="#prefix__a"/>
    </g>
</svg>
