<svg xmlns="http://www.w3.org/2000/svg" xmlns:xlink="http://www.w3.org/1999/xlink" width="48" height="48" viewBox="0 0 48 48">
    <defs>
        <path id="prefix__a" d="M26 5.572c1.519 0 2.75 1.231 2.75 2.75l.001 9.053c.208.055.392.13.58.23.456.245.819.608 1.063 1.064.264.494.356.969.356 1.895V32.47c0 2.643-.339 4.26-1.157 5.791-.767 1.434-1.898 2.565-3.332 3.332-1.53.818-3.148 1.157-5.79 1.157h-1.228c-.61 0-1.123-.115-1.574-.356-.456-.244-.819-.607-1.063-1.063-.241-.451-.356-.963-.356-1.574l.002-19.415c.014-.783.112-1.22.354-1.673.244-.456.607-.819 1.063-1.063.188-.1.373-.176.58-.231l.001-6.406c0-1.019.563-1.954 1.463-2.43l5-2.648c.397-.21.838-.32 1.287-.32zM29.25 24.5h-11.5v15.257c0 .313.042.553.124.751l.054.115c.105.195.254.344.449.449.22.118.49.178.866.178h1.227c2.413 0 3.791-.289 5.084-.98 1.173-.627 2.089-1.543 2.716-2.716.691-1.293.98-2.671.98-5.084V24.5zm-1.814-5.75l-8.052.001c-.563.008-.783.057-1.007.177-.195.105-.344.254-.449.449-.132.247-.178.487-.178 1.187V23h11.5v-2.436c0-.636-.038-.893-.145-1.12l-.033-.067c-.105-.195-.254-.344-.449-.449-.247-.132-.487-.178-1.187-.178zM26 7.072c-.204 0-.405.05-.585.145l-5 2.647-.118.071c-.34.231-.547.617-.547 1.034v6.281h7.5V8.322c0-.69-.56-1.25-1.25-1.25z"/>
    </defs>
    <g fill="none" fill-rule="evenodd">
        <path d="M0 0H48V48H0z"/>
        <use fill="#ADADAD" xlink:href="#prefix__a"/>
    </g>
</svg>
