<svg xmlns="http://www.w3.org/2000/svg" xmlns:xlink="http://www.w3.org/1999/xlink" width="28" height="28" viewBox="0 0 28 28">
    <defs>
        <path id="wbpvy8jofa" d="M20.692 6.424c.273-.189.65-.162.893.081.273.273.273.717 0 .99l-5.967 5.966 3.716 3.716 2.25 2.251c.634.634-.253 1.571-.909 1.061l-.08-.07-5.967-5.968-5.966 5.967-.097.081c-.273.189-.65.162-.893-.08-.274-.274-.274-.718 0-.99l5.967-5.968-5.967-5.966c-.274-.273-.274-.717 0-.99.273-.273.716-.273.99 0l.458.458 5.509 5.509 5.966-5.967z"/>
    </defs>
    <g fill="none" fill-rule="evenodd">
        <use fill="#333" xlink:href="#wbpvy8jofa"/>
    </g>
</svg>
