<svg xmlns="http://www.w3.org/2000/svg" width="48" height="48" viewBox="0 0 48 48">
    <g fill="none" fill-rule="evenodd">
        <path d="M0 0H48V48H0z"/>
        <path fill="#333333" d="M32.4 10.73c1.68 0 3.052 1.315 3.145 2.971l.005.179v12.089c3.88 1.232 6.69 4.863 6.69 9.151 0 5.302-4.298 9.6-9.6 9.6-4.065 0-7.54-2.527-8.94-6.095l-.082.005H10.8c-1.68 0-3.052-1.315-3.145-2.971l-.005-.179v-21.6c0-1.68 1.315-3.052 2.971-3.145l.179-.005h21.6zm.24 16.29c-4.474 0-8.1 3.626-8.1 8.1s3.626 8.1 8.1 8.1 8.1-3.626 8.1-8.1-3.626-8.1-8.1-8.1zm-.24-14.79l-10.051-.001.001 5.317c0 .414-.336.75-.75.75-.38 0-.693-.282-.743-.648l-.007-.102-.001-5.317-10.049.001c-.863 0-1.572.663-1.644 1.508l-.006.142v21.6c0 .863.663 1.572 1.508 1.644l.142.006h12.45c-.137-.648-.21-1.32-.21-2.01 0-5.302 4.298-9.6 9.6-9.6.479 0 .95.035 1.41.103V13.88c0-.863-.663-1.572-1.508-1.644l-.142-.006zm.24 17.985c.38 0 .693.282.743.648l.007.102-.001 3.404 2.797.001c.38 0 .694.282.743.648l.007.102c0 .38-.282.693-.648.743l-.102.007H32.64c-.38 0-.693-.282-.743-.648l-.007-.102v-4.155c0-.414.336-.75.75-.75z"/>
    </g>
</svg>
