<svg xmlns="http://www.w3.org/2000/svg" width="24" height="24" viewBox="0 0 24 24">
    <g fill="none" fill-rule="evenodd">
        <path d="M0 0H24V24H0z"/>
        <path fill="#333" d="M12.271 4.8C8.151 4.8 4.8 8.018 4.8 12s3.35 7.2 7.471 7.2c2.964 0 5.638-1.683 6.835-4.286.419-.912-.582-1.761-1.42-1.331l-.103.06c-.702.46-1.527.706-2.388.706-2.338 0-4.224-1.812-4.224-4.034 0-1.499.866-2.868 2.252-3.569.94-.475.64-1.853-.4-1.927-.184-.013-.367-.019-.552-.019zm-.15 1.202l-.132.09c-1.379.974-2.218 2.532-2.218 4.223 0 2.896 2.434 5.234 5.424 5.234l.327-.01c.76-.043 1.494-.238 2.163-.572l.055-.03-.119.197c-1.126 1.76-3.14 2.866-5.35 2.866C8.803 18 6 15.308 6 12c0-3.223 2.66-5.862 6.006-5.995l.115-.003z"/>
    </g>
</svg>
