<svg xmlns="http://www.w3.org/2000/svg" xmlns:xlink="http://www.w3.org/1999/xlink" width="20" height="20" viewBox="0 0 20 20">
    <defs>
        <path id="h5miodbgpa" d="M9.93 3.93c.275 0 .5.223.5.5l-.002 5h5.001c.276 0 .5.223.5.5 0 .275-.224.5-.5.5h-5v5c0 .275-.224.5-.5.5s-.5-.225-.5-.5v-5h-5c-.276 0-.5-.225-.5-.5 0-.277.224-.5.5-.5h5v-5c0-.277.224-.5.5-.5z"/>
    </defs>
    <g fill="none" fill-rule="evenodd">
        <use fill="#C2C2C2" transform="rotate(45 9.93 9.93)" xlink:href="#h5miodbgpa"/>
    </g>
</svg>
