<svg xmlns="http://www.w3.org/2000/svg" width="24" height="24" viewBox="0 0 24 24">
    <g fill="none" fill-rule="evenodd">
        <path d="M0 0H24V24H0z"/>
        <path d="M0 0H24V24H0z"/>
        <path fill="#333" d="M4.787 5.1c-.929 0-1.692.73-1.779 1.662L3 6.939v9.623c0 .301.21.551.489.603l.107.01 2.029.001c.285.997 1.181 1.724 2.242 1.724 1.065 0 1.964-.734 2.246-1.737h3.98c.282 1.003 1.181 1.737 2.247 1.737 1.06 0 1.957-.727 2.242-1.724h1.822c.293 0 .536-.218.586-.504l.01-.11v-4.784c0-.102-.024-.2-.07-.29l-.054-.084-3.148-3.962c-.09-.12-.22-.201-.362-.229l-.11-.01-3.381-.001V5.713c0-.3-.211-.551-.49-.603l-.106-.01H4.787zM16.34 15.315c.633 0 1.146.528 1.146 1.18 0 .65-.513 1.179-1.146 1.179-.633 0-1.146-.528-1.146-1.18 0-.651.513-1.18 1.146-1.18zm-8.473 0c.633 0 1.146.528 1.146 1.18 0 .65-.513 1.179-1.146 1.179-.633 0-1.146-.528-1.146-1.18 0-.651.513-1.18 1.146-1.18zm4.816-8.99v3.832c0 .339.267.613.596.613.292 0 .535-.216.586-.502l.01-.11v-1.73h3.089l2.845 3.558v3.963h-1.192c-.24-1.066-1.168-1.86-2.277-1.86-1.104 0-2.03.787-2.274 1.846H10.14c-.245-1.059-1.17-1.846-2.274-1.846-1.109 0-2.037.794-2.277 1.86H4.192v-9.01c0-.3.21-.551.488-.603l.107-.01h7.896z"/>
    </g>
</svg>
