<svg xmlns="http://www.w3.org/2000/svg" xmlns:xlink="http://www.w3.org/1999/xlink" width="48" height="48" viewBox="0 0 48 48">
    <defs>
        <path id="prefix__a" d="M35.637 18.25c1.13 0 2.146.692 2.56 1.745L41.338 28h1.911c.414 0 .75.336.75.75s-.336.75-.75.75h-1.568l-1.957 4.803c-1.307 3.205-4.374 5.33-7.815 5.442l-.288.005H12.354c-1.124 0-2.136-.685-2.553-1.728L6.39 29.5H4.75c-.414 0-.75-.336-.75-.75s.336-.75.75-.75h1.843l3.208-8.021c.394-.986 1.318-1.652 2.367-1.723l.186-.006zM19.25 29.5H8.005l3.188 7.964c.157.392.497.672.899.758l.135.022.127.006h19.268c2.947 0 5.601-1.784 6.714-4.513L40.06 29.5H28.75v.5c0 2.004-1.572 3.641-3.55 3.745l-.2.005h-4c-.966 0-1.75-.784-1.75-1.75v-2.5zm8 .25h-6.5V32c0 .118.082.217.193.243l.057.007h4c1.243 0 2.25-1.007 2.25-2.25v-.25zm8.387-10H12.354c-.511 0-.97.311-1.16.786L8.207 28h31.519L36.8 20.543c-.155-.395-.496-.678-.9-.765l-.136-.022-.127-.006zM24.479 4.46c.299-.287.773-.279 1.06.02.288.298.28.772-.018 1.06-1.327 1.279-1.771 2.099-1.771 3.96 0 1.9.544 2.926 1.733 3.926.317.267.358.74.09 1.057-.266.317-.74.358-1.056.09-1.508-1.269-2.267-2.7-2.267-5.073 0-2.33.636-3.504 2.23-5.04zm4.05 1.956c.323-.26.795-.209 1.055.114.26.322.209.795-.114 1.054l-.084.079c-.337.353-.636 1.156-.636 1.837 0 .683.373 1.57.776 1.965l.073.084c.22.291.2.708-.064.977-.29.295-.765.3-1.06.009-.69-.677-1.225-1.95-1.225-3.035 0-1.161.524-2.476 1.28-3.084zm-10 0c.323-.26.795-.209 1.055.114.26.322.209.795-.114 1.054l-.084.079c-.337.353-.636 1.156-.636 1.837 0 .683.373 1.57.776 1.965l.073.084c.22.291.2.708-.064.977-.29.295-.765.3-1.06.009-.69-.677-1.225-1.95-1.225-3.035 0-1.161.524-2.476 1.28-3.084z"/>
    </defs>
    <g fill="none" fill-rule="evenodd">
        <path d="M0 0H48V48H0z"/>
        <use fill="#ADADAD" xlink:href="#prefix__a"/>
    </g>
</svg>
