<svg xmlns="http://www.w3.org/2000/svg" width="12" height="12" viewBox="0 0 12 12">
    <g fill="none" fill-rule="evenodd">
        <path fill="#ADADAD" d="M4.72 6.77c.003-.237.066-.425.188-.565.121-.14.29-.21.507-.21.12 0 .252.027.395.082.143.056.294.115.453.18.158.066.322.125.492.178.17.053.342.08.515.08.213 0 .405-.037.575-.11.17-.073.313-.177.428-.31.114-.133.203-.293.264-.48.062-.187.093-.392.093-.615h-.72c-.003.233-.066.42-.188.563-.121.141-.29.212-.507.212-.12 0-.252-.028-.395-.083-.143-.054-.294-.115-.453-.18-.158-.064-.322-.124-.492-.18-.17-.054-.342-.082-.515-.082-.217 0-.41.037-.578.112-.168.075-.31.18-.425.313-.115.133-.203.293-.264.48C4.03 6.342 4 6.547 4 6.77h.72z"/>
    </g>
</svg>
