<svg xmlns="http://www.w3.org/2000/svg" width="32" height="32" viewBox="0 0 32 32">
    <g fill="none" fill-rule="evenodd">
        <path fill="#ADADAD" d="M22.847 7.907c-.225.668-.53 1.192-.924 1.599.802.067 1.604.15 2.406.246 1.381.166 2.421 1.339 2.421 2.73v11.985c0 1.38-1.023 2.546-2.39 2.726-2.815.371-5.614.557-8.396.557-2.776 0-5.552-.185-8.327-.554-1.366-.182-2.387-1.348-2.387-2.726V12.482c0-1.392 1.04-2.564 2.42-2.73.574-.07 1.148-.132 1.722-.187-.425-.412-.75-.956-.986-1.658-.53-2.391 1.81-3.702 3.646-2.984l.196.079c.718.314 1.356.89 1.986 1.687.162.204.318.417.486.658l.367.537.11.153c.127.165.274.327.43.476.154-.15.302-.311.428-.476l.11-.153.368-.537c.167-.24.324-.454.486-.658l.189-.232c.569-.677 1.15-1.172 1.796-1.455l.196-.079c1.837-.718 4.177.593 3.647 2.984zM15.99 10.75c-.596 0-1.192.008-1.788.024v15.45c.588.018 1.175.026 1.762.026.61 0 1.22-.01 1.833-.027V10.774c-.602-.016-1.204-.024-1.807-.024zm-3.287.08c-1.62.079-3.237.215-4.853.41-.628.076-1.1.61-1.1 1.242V24.47c0 .626.464 1.156 1.085 1.239 1.623.216 3.245.367 4.867.454zm6.595 0v15.33c1.616-.088 3.238-.24 4.865-.454.622-.082 1.087-.612 1.087-1.24V12.483c0-.632-.473-1.165-1.1-1.24-1.618-.195-3.235-.332-4.852-.411zm-7.904-4.548c-.826-.245-1.743.313-1.546 1.221.454 1.338 1.474 1.747 3.736 1.747h.668c-.099-.112-.19-.225-.276-.34l-.124-.173-.363-.532c-.152-.218-.29-.407-.432-.586-.534-.675-1.044-1.117-1.53-1.29zm8.352.038l-.021.008c-.486.174-.996.616-1.53 1.291-.094.12-.187.243-.284.377l-.53.769-.104.145c-.086.115-.178.228-.276.34h.668c2.262 0 3.282-.409 3.735-1.747.206-.949-.806-1.516-1.658-1.183z"/>
    </g>
</svg>
