<svg xmlns="http://www.w3.org/2000/svg" width="24" height="24">
    <defs>
        <style>
            .cls-2{fill:none;stroke:#000;stroke-linecap:round;stroke-linejoin:round;stroke-width:1.2px}
        </style>
    </defs>
    <g id="icon_24_allergy" data-name="icon/24/allergy" transform="translate(-.25 -.25)">
        <g id="그룹_12" data-name="그룹 12" transform="translate(2.984 2.985)">
            <path id="패스_1" data-name="패스 1" class="cls-2" d="M-143.672 5497.267a9.22 9.22 0 0 1-2.705 6.515 9.264 9.264 0 0 1-13.1 0 9.191 9.191 0 0 1-1.581-2.122" transform="translate(162.188 -5487.964)"/>
            <path id="패스_2" data-name="패스 2" class="cls-2" d="M-161.669 5501.361a9.228 9.228 0 0 1 2.707-6.4 9.264 9.264 0 0 1 13.1 0 9.234 9.234 0 0 1 1.582 2.122" transform="translate(161.669 -5492.247)"/>
            <path id="패스_3" data-name="패스 3" class="cls-2" d="M-154.2 5496.74h4.095v-4.093" transform="translate(168.039 -5491.905)"/>
            <path id="패스_4" data-name="패스 4" class="cls-2" d="M-157.258 5499.637h-4.095v4.1" transform="translate(161.939 -5485.941)"/>
        </g>
    </g>
</svg>
