<svg xmlns="http://www.w3.org/2000/svg" width="26" height="26">
    <defs>
        <style>
            .cls-2{fill:none;stroke:#70b5d9;stroke-miterlimit:10;stroke-width:1.2px}
        </style>
    </defs>
    <g id="Icon_26_eatsslim" data-name="Icon/26/eatsslim" transform="translate(-11)">
        <g id="icon_잇슬림도시락" data-name="icon 잇슬림도시락" transform="translate(-836.883 -150.842)">
            <path id="Rectangle" class="cls-2" d="M853.859 158.134a1.848 1.848 0 0 1 1.641-1.292h11.034a1.854 1.854 0 0 1 1.645 1.306l2.3 5.91-2.3 5.706a1.845 1.845 0 0 1-1.632 1.278H855.5a1.849 1.849 0 0 1-1.641-1.291l-2.3-5.808z" transform="translate(-.137)"/>
            <path id="Rectangle-2" class="cls-2" d="M859.7 162.842h3.942v.666a1.227 1.227 0 0 1-1.226 1.226h-1.489a1.226 1.226 0 0 1-1.226-1.226v-.666z" transform="translate(-.789 1.427)"/>
            <path id="선_13" data-name="선 13" transform="translate(849.862 163.942)" style="stroke-linecap:round;fill:none;stroke:#70b5d9;stroke-miterlimit:10;stroke-width:1.2px" d="M0 0h22.042"/>
        </g>
    </g>
</svg>
