<svg xmlns="http://www.w3.org/2000/svg" width="26" height="26">
    <defs>
        <style>
            .cls-2{fill:none;stroke:#70b5d9;stroke-miterlimit:10;stroke-width:1.2px}
        </style>
    </defs>
    <g id="Icon_26_Rice_B" data-name="Icon/26/Rice_B" transform="translate(-4 -4)">
        <g id="icon_32_Rice" data-name="icon/32/Rice" transform="translate(9 9)">
            <circle id="Oval-21" class="cls-2" cx="5.979" cy="5.979" r="5.979" transform="translate(1.958)"/>
            <path id="Rectangle-35" d="M651.177 866.109h15.318a.278.278 0 0 1 .278.279v1.21a7.937 7.937 0 0 1-7.937 7.937 7.936 7.936 0 0 1-7.936-7.935v-1.21a.278.278 0 0 1 .277-.281z" transform="translate(-650.899 -860.799)" style="fill:#f7f7f7;stroke:#70b5d9;stroke-miterlimit:10;stroke-width:1.2px"/>
            <path id="Rectangle-36" class="cls-2" d="M655.144 876.191h7.936v.861a.809.809 0 0 1-.744.861h-6.448a.809.809 0 0 1-.744-.861v-.861z" transform="translate(-651.175 -861.455)"/>
        </g>
    </g>
</svg>
