<svg xmlns="http://www.w3.org/2000/svg" width="12" height="12">
    <defs>
        <style>
            .cls-2{fill:none;stroke:#fff;stroke-linecap:round;stroke-linejoin:round}
        </style>
    </defs>
    <g id="Icon_12_Allergy_WLine" data-name="Icon/12/Allergy_WLine" transform="translate(-163 -346)">
        <g id="그룹_12" data-name="그룹 12" transform="translate(325.669 -5145.246)">
            <path id="패스_1" data-name="패스 1" class="cls-2" d="M-151.677 5497.266a4.977 4.977 0 0 1-1.46 3.516 5 5 0 0 1-7.071 0 4.973 4.973 0 0 1-.853-1.145"/>
            <path id="패스_2" data-name="패스 2" class="cls-2" d="M-161.669 5497.165a4.979 4.979 0 0 1 1.461-3.454 5 5 0 0 1 7.071 0 4.967 4.967 0 0 1 .854 1.145"/>
            <path id="패스_3" data-name="패스 3" class="cls-2" d="M-154.2 5494.855h2.21v-2.209"/>
            <path id="패스_4" data-name="패스 4" class="cls-2" d="M-159.143 5499.637h-2.21v2.21"/>
        </g>
    </g>
</svg>
