<svg xmlns="http://www.w3.org/2000/svg" width="40" height="40">
    <defs>
        <style>
            .cls-2,.cls-3{fill:none;stroke:#333;stroke-linejoin:round;stroke-width:1.2px}.cls-3{stroke-linecap:round}
        </style>
    </defs>
    <g id="icon-40-shrimp" transform="translate(-.01)">
        <g id="Shirimp" transform="translate(8.786 7.354)">
            <g id="Group_3-2" data-name="Group 3-2">
                <path id="Path_11-2" data-name="Path 11-2" class="cls-2" d="M602.858 604.015h12.107c3.951 0 9.277 1.228 9.815 7.561s-3.664 9.017-10.225 9.017c.593 0 3.967-.371 3.8-4.431s-5.671-3.858-5.671-3.858h-2.754a8.243 8.243 0 0 1-6.01-3.164 6.746 6.746 0 0 1-1.062-5.125z" transform="translate(-602.723 -599.319)"/>
                <path id="Path_12-2" data-name="Path 12-2" class="cls-3" d="M621.229 597.307h-10.046c-2.749 0-8.463 0-8.463 5.583" transform="translate(-602.72 -597.307)"/>
                <path id="Path_13" data-name="Path 13" class="cls-2" d="M615.191 627.694h-4.658c-.989 0-2.714.35-3.08 3.316h3.868c1.269 0 3.87-.552 3.87-3.316z" transform="translate(-604.139 -606.42)"/>
                <path id="Path_13-2" data-name="Path 13-2" class="cls-2" d="M607.456 622.958h4.658c.989 0 2.714.35 3.08 3.316h-3.871c-1.266 0-3.867-.552-3.867-3.316z" transform="translate(-604.14 -605)"/>
                <path id="Path_14" data-name="Path 14" class="cls-3" d="M621.091 604.46v8.254" transform="translate(-608.229 -599.452)"/>
                <path id="Path_15" data-name="Path 15" class="cls-3" d="m624.989 617.035 5.837-5.422" transform="translate(-609.398 -601.597)"/>
            </g>
            <circle id="Oval-18" cx=".715" cy=".715" r=".715" transform="translate(3.261 6.797)" style="fill:#333"/>
        </g>
    </g>
</svg>
