<svg xmlns="http://www.w3.org/2000/svg" width="26" height="26">
    <defs>
        <clipPath id="clip-path">
            <path id="Combined_Shape" data-name="Combined Shape" d="M1.186 10.685A2.357 2.357 0 0 1 1.1 6.648a8.485 8.485 0 0 1 16.52-.186 2.357 2.357 0 0 1-.094 4.391 8.485 8.485 0 0 1-16.339-.168z" style="stroke-width:1.5px;fill:none;stroke:#e6843e;stroke-miterlimit:10"/>
        </clipPath>
        <style>
            .cls-6{fill:#e6843e}
        </style>
    </defs>
    <g id="Icon_26_baby" data-name="Icon/26/baby" transform="translate(-11)">
        <g id="icon_32_Babymeal" data-name="icon/32/Babymeal" transform="translate(14 5)">
            <path id="Combined_Shape-2" data-name="Combined Shape" d="M1.186 10.685A2.357 2.357 0 0 1 1.1 6.648a8.485 8.485 0 0 1 16.52-.186 2.357 2.357 0 0 1-.094 4.391 8.485 8.485 0 0 1-16.339-.168z" style="stroke-width:1.2px;fill:none;stroke:#e6843e;stroke-miterlimit:10"/>
            <g id="icon_32_Babymeal-2" data-name="icon/32/Babymeal" style="clip-path:url(#clip-path)">
                <path id="Path_10" data-name="Path 10" d="M2.274 0s2.2 2.394 2.2 3.8a2.189 2.189 0 0 1-2.213 2.288A2.3 2.3 0 0 1 0 3.8" transform="translate(7.389 -.494)" style="stroke-linejoin:round;stroke-width:1.5px;fill:none;stroke:#e6843e;stroke-miterlimit:10"/>
                <circle id="Oval" class="cls-6" cx=".798" cy=".798" r=".798" transform="translate(7.389 2.412)"/>
                <circle id="Oval-2" data-name="Oval" class="cls-6" cx=".914" cy=".914" r=".914" transform="translate(5.477 7.943)"/>
                <circle id="Oval-3" data-name="Oval" class="cls-6" cx=".914" cy=".914" r=".914" transform="translate(11.76 7.943)"/>
            </g>
        </g>
    </g>
</svg>
