<svg xmlns="http://www.w3.org/2000/svg" width="18" height="18" viewBox="0 0 18 18">
    <g fill="none" fill-rule="evenodd">
        <path d="M0 0H18V18H0z"/>
        <path fill="#C2C2C2" d="M9 0c4.97 0 9 4.03 9 9s-4.03 9-9 9-9-4.03-9-9 4.03-9 9-9zm0 1C4.582 1 1 4.582 1 9s3.582 8 8 8 8-3.582 8-8-3.582-8-8-8zm.113 10.5c.372 0 .675.302.675.675 0 .373-.303.675-.675.675-.373 0-.675-.302-.675-.675 0-.373.302-.675.675-.675zm0-6.438c.31 0 .562.252.562.563v3.938c0 .31-.252.562-.563.562-.31 0-.562-.252-.562-.563V5.626c0-.31.252-.563.563-.563z"/>
    </g>
</svg>
