<svg xmlns="http://www.w3.org/2000/svg" width="30" height="30" viewBox="0 0 30 30">
    <g fill="none" fill-rule="evenodd">
        <path d="M0 0H30V30H0z"/>
        <path fill="#FFF" d="M18.813 14.625c3.003 0 5.437 2.434 5.437 5.438V23c0 1.38-1.12 2.5-2.5 2.5H8.875c-1.38 0-2.5-1.12-2.5-2.5v-2.938c0-3.003 2.434-5.437 5.438-5.437h7zm-4.195 1.2h-2.805c-2.27 0-4.123 1.784-4.233 4.026l-.005.211V23c0 .673.512 1.227 1.167 1.293l.133.007H21.75c.673 0 1.227-.512 1.293-1.167L23.05 23v-2.938c0-2.269-1.784-4.122-4.026-4.232l-.211-.005-2.906-.001c.022.054.037.111.046.17l.01.123v1.13c0 .414-.314.75-.7.75-.348 0-.637-.272-.691-.628l-.01-.122v-1.13c0-.104.02-.203.056-.292zm.645 2.925c.347 0 .636.272.69.628l.01.122v2.688c0 .414-.314.75-.7.75-.348 0-.637-.272-.691-.629l-.01-.122V19.5c0-.414.314-.75.7-.75zm.05-13.85c2.367 0 4.287 1.92 4.287 4.287 0 2.368-1.92 4.288-4.288 4.288-2.367 0-4.287-1.92-4.287-4.287 0-2.368 1.92-4.288 4.287-4.288zm0 1.2c-1.706 0-3.088 1.382-3.088 3.087 0 1.706 1.382 3.088 3.088 3.088 1.705 0 3.087-1.382 3.087-3.088 0-1.705-1.382-3.087-3.088-3.087z"/>
    </g>
</svg>
