<svg xmlns="http://www.w3.org/2000/svg" id="Logo_payco" width="80" height="30.222" viewBox="0 0 80 30.222">
    <defs>
        <style>
            .cls-2{fill:#de0015}
        </style>
    </defs>
    <g id="그룹_398" transform="translate(-461.799 -485.786)">
        <path id="패스_782" d="M471.8 495.651a1.433 1.433 0 0 1 1.444-1.444h3.92c3.132 0 5.026 1.856 5.026 4.538v.037c0 3.039-2.363 4.614-5.308 4.614h-2.194v2.719a1.444 1.444 0 0 1-2.888 0zm5.177 5.177a2.033 2.033 0 0 0 2.288-1.988v-.04c0-1.294-.9-1.988-2.345-1.988h-2.232v4.014z" class="cls-2" transform="translate(0 -0.308)"/>
        <path id="패스_783" d="M508.48 505.334L513.056 495a1.785 1.785 0 0 1 1.688-1.144h.169a1.76 1.76 0 0 1 1.669 1.144l4.576 10.334a1.407 1.407 0 0 1 .15.582 1.369 1.369 0 0 1-1.369 1.388 1.471 1.471 0 0 1-1.388-.994l-.881-2.063h-5.777l-.919 2.157a1.418 1.418 0 0 1-1.332.9 1.329 1.329 0 0 1-1.331-1.35 1.531 1.531 0 0 1 .169-.62zm8.12-3.634l-1.819-4.333-1.819 4.333z" class="cls-2" transform="translate(-26.751 -0.051)"/>
        <path id="패스_784" d="M555.761 502.333l-4.238-5.758a1.711 1.711 0 0 1-.356-1.032 1.41 1.41 0 0 1 1.444-1.388 1.662 1.662 0 0 1 1.425.881l3.189 4.6 3.243-4.636a1.655 1.655 0 0 1 1.388-.862 1.338 1.338 0 0 1 1.406 1.406 1.8 1.8 0 0 1-.375 1.013l-4.239 5.72v3.788a1.444 1.444 0 1 1-2.888 0z" class="cls-2" transform="translate(-58.149 -0.257)"/>
        <path id="패스_785" d="M596.743 500.613v-.038a6.672 6.672 0 0 1 6.846-6.789 6.952 6.952 0 0 1 4.389 1.332 1.444 1.444 0 0 1 .563 1.144 1.409 1.409 0 0 1-1.425 1.407 1.517 1.517 0 0 1-.863-.281 4.318 4.318 0 0 0-2.682-.938 3.89 3.89 0 0 0-3.807 4.089v.037a3.9 3.9 0 0 0 3.807 4.126 4.215 4.215 0 0 0 2.851-1.031 1.338 1.338 0 1 1 1.725 2.044 6.918 6.918 0 0 1-11.4-5.1z" class="cls-2" transform="translate(-91.541 0)"/>
        <path id="패스_786" d="M644.038 500.613v-.038a6.98 6.98 0 0 1 13.953-.037v.037a6.98 6.98 0 0 1-13.953.038zm10.934 0v-.038a3.989 3.989 0 0 0-3.972-4.126 3.926 3.926 0 0 0-3.938 4.089v.037a3.988 3.988 0 0 0 3.976 4.126 3.926 3.926 0 0 0 3.934-4.088z" class="cls-2" transform="translate(-126.193 0)"/>
    </g>
</svg>
