<svg xmlns="http://www.w3.org/2000/svg" width="32" height="28" viewBox="0 0 32 28">
    <g fill="none" fill-rule="evenodd">
        <path fill="#FFF" d="M24 5.833c1.473 0 2.667 1.045 2.667 2.334v11.666c0 1.289-1.194 2.334-2.667 2.334h-4.925l-1.723 1.508c-.521.456-1.365.456-1.886 0l-1.724-1.508H8c-1.473 0-2.667-1.045-2.667-2.334V8.167c0-1.289 1.194-2.334 2.667-2.334h16zm0 1.2H8c-.668 0-1.217.442-1.288 1.01l-.007.124v11.666c0 .585.505 1.065 1.154 1.127l.141.007h5.742c.312 0 .613.093.854.26l.116.091 1.697 1.484 1.697-1.484c.22-.193.508-.313.815-.344l.154-.007H24c.668 0 1.217-.442 1.288-1.01l.007-.124V8.167c0-.585-.505-1.065-1.154-1.127L24 7.033zm-12 5.8c.59 0 1.067.418 1.067.934 0 .515-.478.933-1.067.933-.59 0-1.067-.418-1.067-.933 0-.516.478-.934 1.067-.934zm4 0c.59 0 1.067.418 1.067.934 0 .515-.478.933-1.067.933-.59 0-1.067-.418-1.067-.933 0-.516.478-.934 1.067-.934zm4 0c.59 0 1.067.418 1.067.934 0 .515-.478.933-1.067.933-.59 0-1.067-.418-1.067-.933 0-.516.478-.934 1.067-.934z"/>
    </g>
</svg>
