<svg xmlns="http://www.w3.org/2000/svg" width="20" height="20" viewBox="0 0 20 20">
    <g fill="none" fill-rule="evenodd">
        <path d="M0 0H20V20H0z"/>
        <g stroke="#333" stroke-linecap="round" stroke-width="1.2">
            <path d="M0 2.571h1.513c.709 0 1.376.238 2.694 1.872 1.319 1.634 1.434 1.852 2.08 2.836.397.605 1.056 1.192 1.897 1.192h2.357" transform="translate(4 5)"/>
            <path d="M0 9.051h1.513c.709 0 1.376-.818 2.694-2.452l.85-1.078m1.23-1.758c.397-.605 1.056-1.192 1.897-1.192h2.357" transform="translate(4 5)"/>
            <path stroke-linejoin="round" d="M9.493.617L11.55 2.563 9.493 4.32M9.493 6.583L11.55 8.529 9.493 10.286" transform="translate(4 5)"/>
        </g>
    </g>
</svg>
