<svg xmlns="http://www.w3.org/2000/svg" width="48" height="48" viewBox="0 0 48 48">
    <g fill="none" fill-rule="evenodd">
        <path d="M0 0H48V48H0z"/>
        <path fill="#333333" d="M33.495 9.65c1.164 0 2.195.732 2.586 1.814l.057.174 2.113 7.324c.29 1.005.454 2.042.491 3.086l.008.448V36.9c0 1.463-1.142 2.658-2.582 2.745L36 39.65H12.011c-1.462 0-2.658-1.142-2.745-2.584l-.005-.168.08-14.494c.006-.992.127-1.98.361-2.943l.107-.411 2.06-7.389c.316-1.13 1.309-1.928 2.466-2.005l.184-.006h18.976zm3.674 11.5H10.92c-.033.28-.056.56-.068.84l-.01.422-.08 14.479c0 .656.492 1.188 1.122 1.253l.128.006H36c.647 0 1.18-.492 1.244-1.122l.006-.128V22.496c0-.45-.027-.9-.08-1.346zm-16.91 4.294l7.5.04c.414.001.748.339.746.753-.002.414-.34.748-.754.746l-7.5-.04c-.414-.001-.748-.339-.746-.753.002-.414.34-.748.754-.746zm2.99-14.294h-8.73c-.518 0-.978.319-1.164.793l-.04.121-2.06 7.389c-.019.065-.037.131-.054.197H23.25v-8.5zm10.246 0H24.75v8.5h12.132l-.072-.272-2.113-7.324c-.154-.536-.644-.904-1.2-.904z"/>
    </g>
</svg>
