<svg xmlns="http://www.w3.org/2000/svg" width="30" height="30" viewBox="0 0 30 30">
    <g fill="none" fill-rule="evenodd">
        <path d="M0 0H30V30H0z"/>
        <path fill="#FFF" d="M18.63 5c.331 0 .6.269.6.6l-.001 1.024 3.271.001c1.036 0 1.875.84 1.875 1.875v14.625c0 1.036-.84 1.875-1.875 1.875h-15c-1.036 0-1.875-.84-1.875-1.875V8.5c0-1.036.84-1.875 1.875-1.875l3.269-.001.001-1.024c0-.331.269-.6.6-.6.331 0 .6.269.6.6l-.001 1.024h6.061V5.6c0-.331.269-.6.6-.6zm4.545 6.85H6.824l.001 11.275c0 .339.25.62.575.668l.1.007h15c.339 0 .62-.25.668-.575l.007-.1V11.85zm-4.081 2.975c.203.213.218.537.05.767l-.071.081-4.747 4.522c-.212.202-.532.219-.762.055l-.081-.07-2.207-2.261c-.232-.237-.227-.617.01-.848.21-.206.534-.225.766-.06l.082.07 1.793 1.836 4.318-4.112c.24-.229.62-.22.849.02zm-8.325-7.001L7.5 7.825c-.339 0-.62.25-.668.575l-.007.1-.001 2.15h16.351V8.5c0-.339-.25-.62-.575-.668l-.1-.007-3.271-.001.001 1.076c0 .331-.269.6-.6.6-.331 0-.6-.269-.6-.6V7.824h-6.061L11.97 8.9c0 .331-.269.6-.6.6-.331 0-.6-.269-.6-.6l-.001-1.076z"/>
    </g>
</svg>
