<svg xmlns="http://www.w3.org/2000/svg" width="32" height="32" viewBox="0 0 32 32">
    <path fill="#333" fill-rule="evenodd" d="M13.349 5.867c.442 0 .8.358.8.8 0 .397-.29.727-.67.79l-.13.01h-3.81c-1.081 0-1.969.827-2.064 1.883l-.008.188v12.924c0 1.08.827 1.968 1.883 2.063l.188.008h12.924c1.08 0 1.968-.827 2.063-1.883l.008-.188v-3.796c0-.442.359-.8.8-.8.398 0 .728.29.79.67l.01.13v3.796c0 1.952-1.524 3.549-3.448 3.665l-.223.006H9.538c-1.952 0-3.549-1.524-3.665-3.448l-.006-.223V9.538c0-1.952 1.524-3.549 3.448-3.665l.223-.006h3.81zm11.984 0h.015c.025 0 .05.002.075.005l-.09-.005c.046 0 .09.003.133.01l.053.011c.022.006.043.011.063.018l.04.014.051.022.054.028.03.018c.02.012.039.025.057.04.029.02.056.044.082.07l.003.003.014.014c.02.021.04.044.057.067l-.071-.081c.035.035.065.071.092.11l.036.057.022.04.023.051c.008.019.015.037.02.056.006.014.01.028.014.043.005.02.01.04.013.059l.004.02.004.029c.003.024.005.05.006.074V13.333c0 .442-.358.8-.8.8-.397 0-.727-.29-.79-.67l-.01-.13V8.598l-8.634 8.634c-.312.313-.819.313-1.131 0-.313-.312-.313-.819 0-1.131l8.634-8.635h-4.735c-.398 0-.728-.29-.79-.67l-.01-.13c0-.397.29-.727.67-.789l.13-.01h6.666z"/>
</svg>
