<svg xmlns="http://www.w3.org/2000/svg" width="48" height="48" viewBox="0 0 48 48">
    <g fill="none" fill-rule="evenodd">
        <path d="M0 0H48V48H0z"/>
        <path fill="#333333" d="M29.962 8.65c2.446 0 4.143.742 5.079 2.551l3.652 5.975.231.4c.185.334.346.66.507 1.05.314.759.498 1.484.498 2.163 0 1.747-.917 3.67-2.554 4.848v10.73c0 1.537-1.292 2.765-2.89 2.851l-.18.005H13.545c-1.62 0-2.97-1.173-3.064-2.687l-.005-.17-.001-10.714c-1.539-1.055-2.549-2.842-2.549-4.868.008-1.379.373-2.363 1.118-3.506l.482-.728 3.289-5.35c1.117-1.816 2.7-2.523 5.086-2.55zM18.897 23.635l-.088.148c-1.027 1.647-2.853 2.79-4.882 2.868l-.219.004c-.604 0-1.187-.094-1.734-.268v9.98c0 .689.61 1.282 1.416 1.35l.154.006 9.675-.001V32.2c0-.414.336-.75.75-.75.38 0 .694.282.743.648l.007.102v5.522h9.587c.83 0 1.487-.552 1.562-1.228l.007-.128v-9.95c-.617.214-1.297.334-2.033.334-2.385 0-3.97-1.265-4.807-2.916l-.04-.081-.091.153c-.922 1.49-2.516 2.66-4.682 2.744l-.253.005c-2.155 0-4.036-1.176-5.033-2.948l-.04-.072zM29.962 10.15H17.917c-1.913.021-3.01.512-3.825 1.835l-3.293 5.356-.454.689-.188.293c-.501.819-.727 1.505-.732 2.466 0 2.414 1.92 4.366 4.283 4.366 2.392 0 4.472-2.022 4.472-4.366 0-1 1.5-1 1.5 0 0 2.452 1.92 4.366 4.29 4.366 1.564 0 2.689-.672 3.464-1.842.56-.846.888-1.943.888-2.524 0-1 1.5-1 1.5 0 0 .627.256 1.714.74 2.567.687 1.209 1.733 1.894 3.28 1.894 2.84 0 4.587-2.442 4.587-4.461 0-.45-.139-.997-.384-1.59-.171-.414-.346-.75-.562-1.123l-3.748-6.138c-.661-1.276-1.832-1.788-3.773-1.788z"/>
    </g>
</svg>
