<svg xmlns="http://www.w3.org/2000/svg" width="30" height="30" viewBox="0 0 30 30">
    <g fill="none" fill-rule="evenodd">
        <path d="M0 0H30V30H0z"/>
        <path fill="#FFF" d="M18.924 5.4c1.537 0 2.54.468 3.158 1.643 1.407 2.265 2.192 3.53 2.374 3.832l.15.264c.309.58.538 1.256.538 1.926 0 1.207-.543 2.457-1.597 3.188l.003.045v6.387c0 1.054-.84 1.907-1.895 1.983l-.152.005H8.547c-1.074 0-1.963-.806-2.041-1.839l-.006-.149v-6.387c0-.047.005-.093.016-.137-.976-.681-1.616-1.815-1.616-3.1.005-.886.245-1.522.728-2.251.022-.033.267-.393.325-.485l2.051-3.283c.731-1.169 1.77-1.625 3.312-1.642zm-7.083 9.704l-.04.063c-.646.955-1.716 1.604-2.933 1.667l-.194.005c-.337 0-.664-.044-.974-.127v5.973c0 .396.319.732.74.782l.107.006h5.877l.001-3.364c0-.332.269-.6.6-.6.331 0 .6.268.6.6l-.001 3.364h5.879c.437 0 .789-.305.84-.69l.007-.098v-5.9c-.303.074-.63.113-.98.113-1.45 0-2.508-.742-3.13-1.707l-.046-.076-.04.065c-.585.896-1.563 1.583-2.897 1.653l-.226.006c-1.302 0-2.455-.65-3.135-1.652l-.055-.083zM18.924 6.6h-7.595c-1.168.013-1.82.3-2.307 1.078-1.122 1.8-1.806 2.894-2.053 3.287l-.326.486-.129.201c-.284.469-.41.864-.414 1.413 0 1.422 1.152 2.574 2.574 2.574 1.412 0 2.574-1.169 2.574-2.574 0-.8 1.2-.8 1.2 0 0 1.443 1.156 2.574 2.583 2.574.942 0 1.6-.391 2.05-1.08.327-.5.515-1.148.515-1.494l.008-.109c.104-.69 1.192-.653 1.192.109l.006.105c.034.343.22.933.513 1.396.457.722 1.117 1.132 2.055 1.132 1.683 0 2.574-1.35 2.574-2.633 0-.488-.224-1.077-.49-1.53L21.04 7.64c-.404-.768-.987-1.04-2.117-1.04z"/>
    </g>
</svg>
