<svg xmlns="http://www.w3.org/2000/svg" width="20" height="20" viewBox="0 0 20 20">
    <defs>
        <filter id="2ls3m7749a">
            <feColorMatrix in="SourceGraphic" values="0 0 0 0 0.666667 0 0 0 0 0.505882 0 0 0 0 0.325490 0 0 0 1.000000 0"/>
        </filter>
    </defs>
    <g fill="none" fill-rule="evenodd" filter="url(#2ls3m7749a)" transform="translate(-20 -20)">
        <g>
            <path d="M0 0H20V20H0z" transform="translate(20 20)"/>
            <path fill="#ADADAD" d="M12.797 3.18c1.136 0 1.886.35 2.344 1.222.956 1.538 1.514 2.44 1.69 2.728l.152.265c.222.423.386.915.386 1.405 0 .89-.397 1.81-1.168 2.354l-.001 4.59c0 .788-.624 1.426-1.41 1.494l-.14.007h-9.4c-.803 0-1.472-.595-1.544-1.363l-.006-.137v-4.602l.008-.09c-.69-.51-1.139-1.33-1.139-2.256.004-.657.182-1.129.539-1.667.016-.025.193-.285.235-.35L4.828 4.4c.544-.867 1.317-1.207 2.455-1.22zm-5.133 7.214l-.056.08c-.48.639-1.225 1.07-2.069 1.12l-.17.006c-.23 0-.455-.028-.67-.08l.001 4.225c0 .24.19.448.45.491l.1.009h4.22V14c0-.276.223-.5.5-.5.245 0 .449.177.491.41l.008.09v2.244h4.181c.275 0 .496-.18.541-.411l.009-.088V11.58c-.197.04-.407.062-.63.062-1.008 0-1.76-.481-2.23-1.13l-.074-.106-.065.096c-.437.592-1.12 1.035-2.027 1.09l-.198.007c-.916 0-1.732-.433-2.245-1.112l-.067-.094zm5.133-6.214H7.294c-.826.01-1.278.208-1.617.75L4.189 7.314c-.053.084-.24.358-.247.37l-.102.161c-.187.315-.269.585-.27.956 0 .994.805 1.8 1.8 1.8.986 0 1.8-.817 1.8-1.8 0-.667 1-.667 1 0 0 1.01.807 1.8 1.806 1.8.66 0 1.116-.272 1.431-.753.23-.351.362-.809.362-1.047l.01-.105c.098-.56.99-.525.99.105 0 .8.66 1.843 1.8 1.843 1.177 0 1.8-.945 1.8-1.843 0-.34-.158-.756-.346-1.075l-1.75-2.826c-.28-.532-.68-.719-1.476-.719z" transform="translate(20 20)"/>
        </g>
    </g>
</svg>
