<svg xmlns="http://www.w3.org/2000/svg" width="18" height="18" viewBox="0 0 18 18">
    <g fill="none" fill-rule="evenodd">
        <path d="M0 0H18V18H0z"/>
        <path fill="#C2C2C2" d="M9 0c4.97 0 9 4.03 9 9s-4.03 9-9 9-9-4.03-9-9 4.03-9 9-9zm0 1.125C4.65 1.125 1.125 4.651 1.125 9c0 4.35 3.526 7.875 7.875 7.875 4.35 0 7.875-3.526 7.875-7.875 0-4.35-3.526-7.875-7.875-7.875zm-.157 10.686c.435 0 .756.313.756.726 0 .414-.32.738-.756.738-.424 0-.744-.324-.744-.738 0-.413.32-.726.744-.726zm.098-7.086c1.435 0 2.309.853 2.309 2.11v.115c0 .772-.322 1.28-1.165 2.121-.728.738-.821 1.003-.821 1.533 0 .288-.23.45-.479.45-.26 0-.499-.139-.499-.473 0-.784.125-1.21.936-2.006.8-.784.988-1.106.988-1.614v-.08c0-.646-.426-1.13-1.29-1.13-.624 0-1.06.254-1.445.6-.208.172-.447.115-.614-.116-.156-.207-.156-.519.052-.703.468-.45 1.165-.807 2.028-.807z"/>
    </g>
</svg>
