<svg xmlns="http://www.w3.org/2000/svg" width="20" height="20" viewBox="0 0 20 20">
    <g fill="none" fill-rule="evenodd">
        <path d="M0 0H20V20H0z"/>
        <path fill="#80C342" d="M11.704 2.11c.49 0 .933.297 1.119.751l.645 1.579h4.32c.277 0 .5.225.5.5 0 .277-.223.5-.5.5h-1.673l-.705 10.901c-.054.825-.703 1.477-1.513 1.547l-.144.006H6.246c-.827 0-1.52-.606-1.641-1.41l-.016-.143L3.883 5.44H2.21c-.276 0-.5-.223-.5-.5 0-.275.224-.5.5-.5h4.32l.646-1.579c.169-.413.55-.696.986-.744l.133-.007zm3.409 3.33H4.885l.702 10.837c.02.312.256.563.557.61l.102.007h7.507c.313 0 .578-.219.644-.516l.015-.101.701-10.837zm-3.409-2.33h-3.41c-.084 0-.16.051-.192.13l-.49 1.196h4.775l-.49-1.196c-.032-.079-.108-.13-.193-.13z"/>
    </g>
</svg>
