<svg xmlns="http://www.w3.org/2000/svg" width="16" height="16" viewBox="0 0 16 16">
    <g fill="none" fill-rule="evenodd">
        <path d="M0 0H16V16H0z"/>
        <path fill="#333" d="M9.278 2.1c.47 0 .894.284 1.072.72l.525 1.283h2.86c.277 0 .5.224.5.5s-.223.5-.5.5H12.72l-.514 7.512c-.046.677-.577 1.212-1.24 1.277l-.134.006H5.147c-.68 0-1.25-.493-1.359-1.15l-.016-.133-.514-7.512H2.26c-.276 0-.5-.224-.5-.5s.224-.5.5-.5h2.842l.526-1.283c.162-.396.526-.667.945-.713L6.7 2.1zm2.439 3.003H4.26l.51 7.443c.012.174.14.313.304.345l.073.007h5.684c.173 0 .321-.118.365-.28l.012-.072.509-7.443zM9.278 3.1H6.7c-.065 0-.122.039-.147.098l-.37.905h3.612l-.37-.905c-.025-.06-.083-.098-.147-.098z"/>
    </g>
</svg>
