<svg xmlns="http://www.w3.org/2000/svg" xmlns:xlink="http://www.w3.org/1999/xlink" width="16" height="16" viewBox="0 0 16 16">
    <defs>
        <filter id="hn7ti45jma">
            <feColorMatrix in="SourceGraphic" values="0 0 0 0 1.000000 0 0 0 0 1.000000 0 0 0 0 1.000000 0 0 0 1.000000 0"/>
        </filter>
        <path id="ud4jstxxob" d="M0 0.001L10.962 0.001 10.962 11.722 0 11.722z"/>
    </defs>
    <g fill="none" fill-rule="evenodd">
        <g>
            <g>
                <g>
                    <g>
                        <g>
                            <path d="M0 0H16V16H0z" transform="translate(-154 -392) translate(136 336) translate(0 40) translate(12 12) translate(6 4)"/>
                            <g filter="url(#hn7ti45jma)" transform="translate(-154 -392) translate(136 336) translate(0 40) translate(12 12) translate(6 4)">
                                <g>
                                    <path fill="#FFF" d="M4.204 3.035l.118-1.34c.05-.61.086-1.037.092-1.127.003-.051 0-.102-.01-.148-.03-.123-.115-.2-.115-.2-.103-.104-.348-.253-.87-.156-.017.004-.216.043-.387.145-.06.037-.199.13-.27.256-.044.08-.122.262-.151.578l-.112 1.913-.094 1.528s-.063.963-.087 1.241c-.045.52-.1 1.19-.155 1.901L.62 7.698c-.097.005-.614.05-.62.366 0 .019.001.038.004.058.027.225.134.379.272.484.032.025.079.054.09.061.339.205.824.196.824.196h.886l-.129 1.86-.02.369c-.01.19-.016.403.053.525.053.095.138.109.218.118.32.04.681.055.958-.347.25-.362.334-.772.408-1.312.017-.122.049-.41.083-.73l.38-4.299c.056-.479.405-.547.539-.555 0 0 .044-.002.1-.002l-.462-1.455z" transform="translate(2.5 2)"/>
                                    <g transform="translate(2.5 2) translate(0 .032)">
                                        <mask id="ped8dp5g2c" fill="#fff">
                                            <use xlink:href="#ud4jstxxob"/>
                                        </mask>
                                        <path fill="#FFF" d="M10.342 3.287l-1.479-.069.151-2.185c.008-.13.015-.253.02-.37.01-.19.016-.403-.052-.525C8.929.043 8.844.03 8.764.02c-.32-.039-.681-.054-.958.347-.25.362-.334.772-.408 1.312-.017.122-.049.41-.084.73l-.064.735-6.071-.28s-.251-.006-.406.01c-.451.063-.636.305-.711.493-.002.004-.08.245-.058.527 0 0 .015.208.087.319.07.096.221.227.542.24h3.63l1.092.017s1.84-.009 1.853 1.441c0 0 .046 1.126-1.206 1.45 0 0-.201.063-.54.08l1.286 1.39-.108 1.229c-.05.61-.086 1.037-.092 1.127-.004.051 0 .102.01.148.03.124.115.2.115.2.103.104.348.253.87.156.017-.003.215-.042.387-.145.06-.036.198-.13.27-.256.044-.08.122-.262.15-.578l.11-1.88.097-1.561c.032-.512.063-.963.087-1.241.038-.44.084-.988.13-1.577h.998s.485.008.824-.196c.01-.007.058-.037.09-.061.137-.106.245-.26.272-.484.003-.02.004-.04.004-.058-.007-.317-.523-.361-.62-.367" mask="url(#ped8dp5g2c)"/>
                                    </g>
                                    <path fill="#FFF" d="M10.9 7.777c-.075-.187-.26-.43-.71-.493-.156-.015-.407-.009-.407-.009l-1.228.056-3.094.142c-.19.012-.367.006-.414.01-.147.007-.473.058-.5.373L4.46 8.863h5.869c.32-.012.473-.144.542-.24.072-.11.087-.319.087-.319.022-.282-.056-.522-.058-.527" transform="translate(2.5 2)"/>
                                </g>
                            </g>
                        </g>
                    </g>
                </g>
            </g>
        </g>
    </g>
</svg>
