<svg xmlns="http://www.w3.org/2000/svg" width="24" height="25" viewBox="0 0 24 25">
    <g>
        <path fill="none" d="M0 0H24V24H0z" transform="translate(0 .4)"/>
        <g>
            <path fill="#fff" d="M8.735 14.8H2.489a2.489 2.489 0 0 1-2.484-2.326L0 12.31V2.489A2.489 2.489 0 0 1 2.326.005L2.489 0h9.823A2.49 2.49 0 0 1 14.8 2.325V8.15a4.8 4.8 0 1 1-6.065 6.65zm.665-2.2A3.6 3.6 0 1 0 13 9a3.6 3.6 0 0 0-3.6 3.6zM1.207 2.357l-.007.132v9.821a1.29 1.29 0 0 0 1.157 1.282l.132.006H8.3a4.8 4.8 0 0 1 5.3-5.763V2.489a1.288 1.288 0 0 0-1.157-1.282l-.132-.007H8v3.65a.6.6 0 0 1-1.193.1l-.007-.1V1.2H2.489a1.289 1.289 0 0 0-1.282 1.157zM12.92 13.16a.6.6 0 0 1-.592-.5l-.008-.1v-2.108a.6.6 0 0 1 1.192-.1l.008.1v1.507h1.172a.6.6 0 0 1 .591.5l.008.1a.6.6 0 0 1-.5.592l-.1.008z" transform="translate(3 4) translate(.8 .8)"/>
        </g>
    </g>
</svg>
