<svg xmlns="http://www.w3.org/2000/svg" width="16" height="16" viewBox="0 0 16 16">
    <g fill="none" fill-rule="evenodd">
        <g>
            <g>
                <g>
                    <g>
                        <g>
                            <g>
                                <path d="M0 0H16V16H0z" transform="translate(-554 -392) translate(136 336) translate(0 40) translate(400) translate(12 12) translate(6 4)"/>
                                <path fill="#FFF" d="M13.575 2.149c.03 1.847-.205 3.23-1.256 4.44-.891 1.097-2.282 1.72-4.17 1.87v5.118h-.572V8.46c-1.89-.15-3.28-.773-4.17-1.87-1.05-1.21-1.286-2.593-1.256-4.44 2.434.156 3.316.696 4.533 2.083.722.823 1.11 2.033 1.166 3.63h.026c.055-1.597.444-2.807 1.165-3.63 1.217-1.387 2.1-1.927 4.534-2.083z" transform="translate(-554 -392) translate(136 336) translate(0 40) translate(400) translate(12 12) translate(6 4)"/>
                            </g>
                        </g>
                    </g>
                </g>
            </g>
        </g>
    </g>
</svg>
