<svg xmlns="http://www.w3.org/2000/svg" width="327" height="36" viewBox="0 0 327 36">
    <g fill="none" fill-rule="evenodd">
        <g stroke-width="2.4">
            <g>
                <g>
                    <g>
                        <path stroke="#80C342" stroke-linecap="round" stroke-linejoin="round" d="M39.8 27.8L33.8 33.8" transform="translate(-557 -322) translate(504 265) translate(32 57) translate(21)"/>
                        <path stroke="#FFBD05" stroke-linecap="round" stroke-linejoin="round" d="M325.4 14.6L320.6 19.4" transform="translate(-557 -322) translate(504 265) translate(32 57) translate(21) matrix(-1 0 0 1 646 0)"/>
                        <path stroke="#FFBD05" d="M11.91 4.562c.138-.037.277-.015.391.051.265.407.263.506.235.599h0l-.72 2.324c-.214.693-.214 1.435 0 2.128h0l.715 2.31c.04.13.024.262-.034.373-.059.111-.16.2-.289.24-.09.027-.187.029-.279.002h0l-2.34-.668c-.647-.184-1.331-.184-1.977 0h0l-2.341.668c-.142.04-.286.02-.405-.046-.12-.066-.214-.178-.254-.32-.027-.095-.027-.197 0-.292h0l.67-2.34c.185-.648.185-1.334 0-1.982h0l-.674-2.354c-.042-.148-.02-.3.049-.425.07-.125.186-.223.335-.266.097-.028.2-.029.298-.002h0l2.38.636c.61.163 1.25.163 1.86 0h0z" transform="translate(-557 -322) translate(504 265) translate(32 57) translate(21) rotate(-45 8.6 8.6)"/>
                        <path stroke="#407DD1" d="M292.71 22.562c.138-.037.277-.015.391.051.265.407.263.506.235.599h0l-.72 2.324c-.214.693-.214 1.435 0 2.128h0l.715 2.31c.04.13.024.262-.034.373-.059.111-.16.2-.288.24-.091.027-.188.029-.28.002h0l-2.34-.668c-.647-.184-1.331-.184-1.977 0h0l-2.341.668c-.142.04-.286.02-.405-.046-.12-.066-.213-.178-.254-.32-.027-.095-.027-.197 0-.292h0l.67-2.34c.185-.648.185-1.334 0-1.982h0l-.674-2.354c-.042-.148-.02-.3.049-.425.07-.125.186-.223.335-.266.097-.028.2-.029.298-.002h0l2.38.636c.61.163 1.25.163 1.86 0h0z" transform="translate(-557 -322) translate(504 265) translate(32 57) translate(21) rotate(-45 289.4 26.6)"/>
                        <path stroke="#407DD1" stroke-linecap="round" stroke-linejoin="round" d="M71 5L66.2 9.8" transform="translate(-557 -322) translate(504 265) translate(32 57) translate(21) matrix(-1 0 0 1 137.2 0)"/>
                        <path stroke="#80C342" stroke-linecap="round" stroke-linejoin="round" d="M263 2.6L257 8.6" transform="translate(-557 -322) translate(504 265) translate(32 57) translate(21)"/>
                    </g>
                </g>
            </g>
        </g>
    </g>
</svg>
