<?xml version="1.0" encoding="utf-8"?>
<!-- Generator: Adobe Illustrator 25.4.0, SVG Export Plug-In . SVG Version: 6.00 Build 0)  -->
<svg version="1.1" id="레이어_1" xmlns="http://www.w3.org/2000/svg" xmlns:xlink="http://www.w3.org/1999/xlink" x="0px"
	 y="0px" viewBox="0 0 220 76" style="enable-background:new 0 0 220 76;" xml:space="preserve">
<g>
	<path style="fill:#231815;" d="M146.1,51.6c-1.9,0-3.3,0.3-4.6,0.8c-5.1,2-7.7,8.3-7.4,13.2c0.2,5,3.4,8,8.5,8.1
		c3.2,0.1,6-1.1,8.1-3.3c2.6-2.6,4-6.7,3.9-10.7C154.3,54.6,151.1,51.6,146.1,51.6z M139,65.9c-0.3-3.7,1.6-10.6,6.6-11.1
		c0.1,0,0.2,0,0.3,0c2.9,0.1,3.6,2.7,3.7,4.3c0.3,3.7-1.7,10.7-6.5,11.1c-0.1,0-0.2,0-0.3,0C139.7,70.2,139.2,67.2,139,65.9z"/>
	<path style="fill:#231815;" d="M198,52.6c-0.9-0.6-2.2-0.9-3.5-1c-0.3,0-0.5,0-0.8,0c-1.5,0-3.1,0.3-4.6,0.9
		c-4.6,1.8-7.7,6.5-8,11.8c-0.1,2.7,0.6,5,2.1,6.8c1.4,1.6,3.4,2.3,5.5,2.5c0,0,0.4,0,1,0c1.4,0,4.5-0.2,6.7-1.9
		c1.1-0.9,1.5-3,0.6-4.1c0,0,0,0,0,0c0,0,0,0,0,0c0,0-2.9,2.3-6.1,2.5c-0.4,0-0.8,0-1.2-0.1c-3.5-0.6-3.8-3.9-3.8-4.8
		c0.2,0,0.4,0,0.7,0c4.7,0,8.8-1.2,11.2-3.3c1.5-1.3,2.4-2.6,2.5-4.9C200.4,53.9,198,52.6,198,52.6z M186.2,62.1
		c0.7-3.2,2.8-5.2,3.5-5.8c1.2-0.8,3.9-2.1,5.5-0.8c0.4,0.3,0.7,1,0.6,1.6c-0.1,1.2-1.1,2.5-2.8,3.4c-2.4,1.3-4.8,1.6-6.3,1.6
		C186.5,62.1,186.3,62.1,186.2,62.1z"/>
	<path style="fill:#231815;" d="M29.3,39.2c-0.3,0-0.6,0-0.9,0c-4.3,0-7,0.6-7,0.6l-5.8,33.1c0,0,2.8,0,2.9,0c1.4,0,2.3-0.7,2.6-2.3
		c0.2-1.3,1.9-10.9,2-11.5c1.2,0.1,2.3,0.1,3.5,0.1c7.9,0,12.6-4.9,13.5-9.8C41.4,42.4,35.8,39.3,29.3,39.2z M23.8,55.3
		c0,0,2.2-12.4,2.2-12.4s0.9-0.2,2.5-0.2c0.3,0,0.5,0,0.8,0c3.2,0.2,6.6,1.6,5.5,6.5c-0.4,2-1.9,4-3.7,5
		C28.6,55.7,24.8,55.4,23.8,55.3z"/>
	<path style="fill:#231815;" d="M102.4,51.8c-4-0.3-6.3,2.3-7.8,4.6c-0.2-1.5-0.6-2.6-1.4-3.4c-0.8-0.8-1.9-1.2-3.2-1.2
		c-3.5-0.1-5.7,2.2-7.4,5.2c0-0.1,0-0.2,0.1-0.4c0.3-2.2,0.2-3-0.5-3.8c0,0-0.6-0.9-2.3-0.8c-0.6,0-1.4,0.1-2.4,0.4
		c0.6,0.6,0.6,1.8,0,5.5c0,0.2-2.4,14-2.4,14S75,72.8,76,72.8l3.7,0c0,0,0.5-2.9,0.6-3.4c0.4-1.9,0.7-3.9,1.9-6.7
		c2.4-5.7,6.3-8.1,7.4-6.8c0.4,0.4,0.4,1.6,0.2,3.1l-2.2,12.8c0,0-0.2,0.9,0.8,0.9l3.7,0l0.5-2.8c0.8-4.8,1.9-7.5,1.9-7.5
		c2.2-5.2,5.1-7.4,6.3-6.9c0.3,0.1,0.8,0.4,1.1,1.4c0.1,0.6,0.1,1.6,0,2.7c-0.2,1.5-1.2,5.7-1.6,8.8c-0.3,2.2-0.2,3,0.5,3.8
		c0,0,0.6,0.9,2.3,0.8c0.6,0,1.4-0.1,2.4-0.4c-0.6-0.6-0.6-2-0.1-5.5c0.3-2.1,0.8-4.5,0.8-4.5c0.7-3.4,0.9-6.3,0.2-8.1
		C105.5,52.4,103.4,51.9,102.4,51.8z"/>
	<path style="fill:#231815;" d="M173,51.8c-4-0.3-6.5,2.2-8.3,5.3c0-0.1,0-0.3,0.1-0.4c0.3-2.2,0.1-3.2-0.5-3.8
		c-1.2-1.3-3.7-0.7-4.6-0.4c0.6,0.6,0.6,1.8,0,5.5c-0.1,0.5-0.2,1-0.2,1.5h0l-2.2,12.4c0,0-0.2,0.9,0.8,0.9l3.7,0
		c0,0,0.5-2.9,0.6-3.4c0.4-1.9,0.9-4,2.1-6.8c2.4-5.8,6-7.6,7.1-7.1c0.4,0.2,0.8,0.7,0.9,1.3c0.1,0.6,0.1,1.6,0,2.7
		c-0.2,1.5-1.2,5.7-1.6,8.8c-0.3,2.2-0.2,3,0.5,3.8c0,0,0.6,0.9,2.3,0.8c0.6,0,1.4-0.1,2.4-0.4c-0.6-0.6-0.6-2-0.1-5.5
		c0.3-2.1,0.8-4.5,0.8-4.5c0.7-3.4,1-6.3,0.2-8.1C176.1,52.4,173.9,51.9,173,51.8z"/>
	<path style="fill:#231815;" d="M58.3,52.6c-1.4,0.1-3.1,0.2-3.1,0.2l-0.4,2.5c-0.1,0.8-0.3,1.6-0.5,2.4c-0.3,1.4-0.8,2.9-1.6,4.7
		c-2.4,5.7-5.7,7.4-6.9,7.1c-0.4-0.1-0.8-0.4-1.1-1.4c-0.1-0.6-0.1-1.6,0-2.7c0.2-1.5,1.2-5.7,1.6-8.8c0.3-2.2,0.2-3-0.5-3.8
		c0,0-0.6-0.9-2.3-0.8c-0.6,0-1.4,0.1-2.4,0.4c0.6,0.6,0.6,2,0.1,5.5c-0.3,2.1-0.5,2.6-0.8,4.5c-0.4,2.1-0.8,4.3-0.6,6.4
		c0.2,2.5,2,4.3,4.4,4.5c3.8,0.4,6.5-2.2,8.2-5.2c0,0.1,0,0.2,0,0.3c-0.3,2.2-0.2,3,0.5,3.8c0,0,0.6,0.9,2.3,0.8
		c0.6,0,1.4-0.1,2.4-0.4c-0.6-0.6-0.6-1.8,0-5.5c0.1-0.5,0.2-1,0.2-1.5h0l1.4-7.9l0.6-3.5C59.9,53.4,59.6,52.5,58.3,52.6z"/>
	<path style="fill:#231815;" d="M129.9,52.6c-1.4,0.1-3.1,0.2-3.1,0.2l-0.4,2.5c-0.1,0.8-0.3,1.6-0.5,2.4c-0.3,1.4-0.8,2.9-1.6,4.7
		c-2.4,5.7-5.7,7.4-6.9,7.1c-0.4-0.1-0.8-0.4-1.1-1.4c-0.1-0.6-0.1-1.6,0-2.7c0.2-1.5,1.2-5.7,1.6-8.8c0.3-2.2,0.2-3-0.5-3.8
		c0,0-0.6-0.9-2.3-0.8c-0.6,0-1.4,0.1-2.4,0.4c0.6,0.6,0.6,2,0.1,5.5c-0.3,2.1-0.5,2.6-0.8,4.5c-0.4,2.1-0.8,4.3-0.6,6.4
		c0.2,2.5,2,4.3,4.4,4.5c3.8,0.4,6.5-2.2,8.2-5.2c0,0.1,0,0.2,0,0.3c-0.3,2.2-0.2,3,0.5,3.8c0,0,0.6,0.9,2.3,0.8
		c0.6,0,1.4-0.1,2.4-0.4c-0.6-0.6-0.6-1.8,0-5.5c0.1-0.5,0.2-1,0.2-1.5h0l1.4-7.9l0.6-3.5C131.5,53.4,131.2,52.5,129.9,52.6z"/>
	<path style="fill:#231815;" d="M73,38.9c-0.1,0-0.3,0-0.4,0l-3.8,0.8l-5.1,29.1c-0.3,1.7-0.2,2.3,0.2,3c0.3,0.6,0.8,0.9,1.3,1.1
		c0.6,0.2,1.2,0.2,1.7,0.2c1,0,1.8-0.2,1.8-0.2s-0.5-1.6-0.1-4.1l5-28.3C73.8,39.7,73.9,38.9,73,38.9z"/>
</g>
<path style="fill:#8FC31F;" d="M110.4,29.5C68.2,29.5,30.6,19.2,5.2,3.4C5,3.3,4.8,3.2,4.6,3C4.4,2.8,4.3,2.5,4.4,2.2
	c0.1-0.3,0.4-0.5,0.7-0.4c0.2,0,0.5,0.1,0.7,0.2c28.2,9.6,64.7,15,104.5,15c39.8,0,76.3-5.4,104.5-15c0.2-0.1,0.4-0.1,0.7-0.2
	c0.3-0.1,0.6,0.1,0.7,0.4c0.1,0.3,0.1,0.6-0.2,0.8c-0.2,0.1-0.3,0.3-0.5,0.4C190.1,19.2,152.5,29.5,110.4,29.5z"/>
<g>
</g>
<g>
</g>
<g>
</g>
<g>
</g>
<g>
</g>
<g>
</g>
</svg>
