<?xml version="1.0" encoding="utf-8"?>
<!-- Generator: Adobe Illustrator 25.4.0, SVG Export Plug-In . SVG Version: 6.00 Build 0)  -->
<svg version="1.1" id="레이어_1" xmlns="http://www.w3.org/2000/svg" xmlns:xlink="http://www.w3.org/1999/xlink" x="0px"
	 y="0px" viewBox="0 0 220 220" style="enable-background:new 0 0 220 220;" xml:space="preserve">
<path style="fill:#7BC423;" d="M12.4,110.1c0-53.9,43.7-97.6,97.6-97.6c53.9,0,97.6,43.7,97.6,97.6c0,53.9-43.7,97.6-97.6,97.6
	C56.1,207.7,12.4,164,12.4,110.1 M218.5,110.1C218.5,50.2,169.9,1.6,110,1.6C50.1,1.6,1.5,50.2,1.5,110.1S50.1,218.6,110,218.6
	C169.9,218.6,218.5,170,218.5,110.1"/>
<path style="fill:#7BC423;" d="M34.1,110.1c0-41.9,34-75.9,75.9-75.9c41.9,0,75.9,34,75.9,75.9c0,41.9-34,75.9-75.9,75.9
	C68.1,186,34.1,152,34.1,110.1 M196.8,110.1c0-47.9-38.8-86.8-86.8-86.8c-47.9,0-86.8,38.8-86.8,86.8c0,47.9,38.8,86.8,86.8,86.8
	C157.9,196.9,196.8,158,196.8,110.1"/>
<path style="fill:#7BC423;" d="M55.8,110.1c0-29.9,24.2-54.2,54.2-54.2c29.9,0,54.2,24.2,54.2,54.2c0,29.9-24.3,54.2-54.2,54.2
	C80.1,164.2,55.8,140,55.8,110.1 M175,110.1c0-35.9-29.1-65-65-65c-35.9,0-65,29.1-65,65c0,35.9,29.1,65,65,65
	C145.9,175.1,175,146,175,110.1"/>
<path style="fill:#7BC423;" d="M77.5,110.1c0-17.9,14.5-32.5,32.5-32.5c18,0,32.5,14.6,32.5,32.5c0,17.9-14.5,32.5-32.5,32.5
	C92.1,142.6,77.5,128,77.5,110.1 M153.3,110.1c0-23.9-19.4-43.3-43.3-43.3c-23.9,0-43.3,19.4-43.3,43.3c0,23.9,19.4,43.3,43.3,43.3
	C133.9,153.4,153.3,134,153.3,110.1"/>
<path style="fill:#7BC423;" d="M99.2,110.1c0-6,4.9-10.8,10.8-10.8c6,0,10.8,4.8,10.8,10.8c0,6-4.8,10.8-10.8,10.8
	C104,120.9,99.2,116.1,99.2,110.1 M131.7,110.1c0-12-9.7-21.7-21.7-21.7c-12,0-21.7,9.7-21.7,21.7c0,12,9.7,21.7,21.7,21.7
	C122,131.7,131.7,122,131.7,110.1"/>
<g>
</g>
<g>
</g>
<g>
</g>
<g>
</g>
<g>
</g>
<g>
</g>
</svg>
