<svg xmlns="http://www.w3.org/2000/svg" width="24" height="24" viewBox="0 0 24 24">
    <g fill="none" fill-rule="evenodd">
        <g>
            <g>
                <g>
                    <g>
                        <path fill="#333" d="M11.965 3.15c1.676 0 3.146.975 3.732 2.397l.043.115.038-.004.25-.008c1.922 0 3.5 1.412 3.5 3.183 0 .86-.376 1.658-1.012 2.241l-.136.117.078.104c.29.409.465.877.5 1.371l.007.187c0 1.496-1.263 2.717-2.919 2.957l-.047.006.001 1.037c0 2.142-1.684 3.89-3.8 3.995l-.2.005c-2.21 0-4-1.791-4-4l-.001-1.028-.112-.013c-1.508-.215-2.713-1.26-2.898-2.618l-.018-.171-.006-.17c0-.571.186-1.114.521-1.579l.089-.116-.125-.11c-.572-.536-.927-1.248-.979-2.02l-.006-.195c0-1.771 1.579-3.183 3.5-3.183.075 0 .15.002.225.006l.048-.121c.564-1.357 1.935-2.303 3.52-2.38zm0 1c-1.425 0-2.638.917-2.932 2.165-.061.258-.313.424-.573.378-.162-.029-.327-.043-.495-.043-1.392 0-2.5.99-2.5 2.183 0 .738.424 1.419 1.124 1.822.301.174.338.594.071.817-.447.374-.695.864-.695 1.363l.004.134c.075 1.034 1.153 1.884 2.471 1.884l.034-.001c.286-.015.525.213.525.499L9 16.853c0 1.657 1.343 3 3 3s3-1.343 3-3l-.001-1.502c0-.272.218-.495.49-.5l.134-.002c1.33-.067 2.342-.96 2.342-1.996 0-.508-.24-.992-.674-1.362-.265-.226-.224-.647.08-.816.72-.402 1.158-1.093 1.158-1.842 0-1.192-1.108-2.183-2.5-2.183-.187 0-.369.018-.544.053-.265.053-.524-.114-.585-.377-.291-1.254-1.506-2.176-2.935-2.176zM12 9c.245 0 .45.177.492.41l.008.09-.001 2.064 2.224-1.48c.23-.153.54-.091.693.139.136.204.102.472-.068.636l-.07.057-2.779 1.851L12.5 17c0 .276-.224.5-.5.5-.245 0-.45-.177-.492-.41L11.5 17l-.001-4.233-2.776-1.851c-.23-.153-.292-.464-.139-.693.136-.205.397-.276.614-.182l.08.043 2.221 1.48L11.5 9.5c0-.276.224-.5.5-.5z" transform="translate(-156 -428) translate(136 172) translate(20 16) translate(0 240)"/>
                    </g>
                </g>
            </g>
        </g>
    </g>
</svg>
