<svg xmlns="http://www.w3.org/2000/svg" width="52" height="52" viewBox="0 0 52 52">
    <g fill="none" fill-rule="evenodd">
        <g>
            <g>
                <g>
                    <g>
                        <g>
                            <g>
                                <path d="M0 0H52V52H0z" opacity=".2" transform="translate(-621 -392) translate(136 320) translate(1 56) translate(438) translate(19 16) translate(27)"/>
                                <g fill="#333">
                                    <path d="M11.214.25c5.96 0 10.808 4.754 10.96 10.677l.005.287v17.643c0 5.803-4.509 10.554-10.215 10.94v4.846c0 .384-.312.696-.696.696h-.107c-.385 0-.697-.312-.697-.696v-4.847C4.854 39.417.4 34.816.254 29.145l-.004-.288V11.214C.25 5.16 5.159.25 11.214.25zm0 1.5c-5.137 0-9.318 4.092-9.46 9.195l-.004.27v17.642c0 5.227 4.237 9.464 9.464 9.464 5.137 0 9.318-4.092 9.46-9.194l.005-.27V11.214c0-5.227-4.238-9.464-9.465-9.464zm-.62 5.956l.04.094.03.075c.132.298.456.584 1.154.976l.182.1.412.228c1.419.812 1.874 1.4 1.874 2.64 0 1.201-.68 1.892-2.014 2.666l-.228.13-.202.105-.543.258c-.545.27-.727.458-.727.73 0 .607.24.935 1.233 1.491l.195.107.412.228c1.419.812 1.874 1.4 1.874 2.64 0 1.201-.68 1.892-2.014 2.666l-.228.13-.202.105-.479.227-.204.103c-.437.232-.588.41-.588.657 0 .608.241.936 1.234 1.492l.195.107.412.228c1.419.812 1.874 1.4 1.874 2.64 0 1.201-.68 1.892-2.014 2.666l-.228.13-.202.105-.479.227-.204.103c-.388.206-.55.37-.582.577l-.006.08-.006.102c-.05.366-.364.648-.744.648-.414 0-.75-.335-.75-.75 0-.937.492-1.504 1.38-1.98l.183-.094.497-.235.12-.06.256-.144c.87-.507 1.279-.915 1.279-1.376 0-.475-.106-.71-.695-1.087l-.145-.09-.298-.172-.58-.32c-1.43-.808-1.997-1.556-1.997-2.799v-.002c.002-.935.493-1.501 1.38-1.976l.183-.094.617-.295.256-.144c.87-.508 1.279-.915 1.279-1.376 0-.475-.106-.71-.695-1.087l-.145-.09-.298-.173-.58-.318c-1.43-.81-1.997-1.557-1.997-2.8v-.003c.002-.935.494-1.5 1.38-1.975l.184-.094.496-.235.12-.06.256-.144c.87-.507 1.279-.915 1.279-1.376 0-.54-.137-.77-.963-1.25l-.175-.1-.59-.324c-1.041-.589-1.592-1.115-1.845-1.863-.133-.392.078-.818.47-.95.36-.123.747.044.912.375z" transform="translate(-621 -392) translate(136 320) translate(1 56) translate(438) translate(19 16) translate(27) translate(14.786 4.714)"/>
                                </g>
                            </g>
                        </g>
                    </g>
                </g>
            </g>
        </g>
    </g>
</svg>
