<svg xmlns="http://www.w3.org/2000/svg" width="52" height="52" viewBox="0 0 52 52">
    <g fill="none" fill-rule="evenodd">
        <g>
            <g>
                <g>
                    <g>
                        <g>
                            <path d="M0 0H52V52H0z" transform="translate(-328 -392) translate(136 320) translate(0 56) translate(146) translate(46 16)"/>
                            <g fill="#AA8153">
                                <path d="M7.122.26c4.758-.17 8.133 1.838 10.016 5.936 1.385-1.898 3.708-2.872 6.92-2.872.413 0 .75.336.75.75 0 .415-.337.75-.75.75-4.468 0-6.7 2.003-6.919 6.228 1.47.163 2.801.788 3.844 1.726 1.249-1.125 2.879-1.768 4.611-1.768 3.81 0 6.899 3.089 6.899 6.899 0 3.044-1.971 5.627-4.707 6.543.064.374.096.756.096 1.142 0 3.044-1.972 5.628-4.708 6.544.064.373.096.756.096 1.142 0 3.81-3.089 6.899-6.899 6.899S9.473 37.09 9.473 33.28c0-.386.032-.768.094-1.144-2.734-.915-4.706-3.498-4.706-6.542 0-.386.032-.768.095-1.143C2.22 23.536.25 20.953.25 17.91c0-3.81 3.089-6.899 6.899-6.899 1.732 0 3.362.643 4.612 1.769 1.05-.947 2.393-1.574 3.877-1.73.033-.69.114-1.333.244-1.931-6.21.1-9.483-2.642-9.483-8.108 0-.404.32-.736.723-.75zm9.25 30.465c-.15.136-.307.264-.468.386l-.265.19-.11.072-.265.165-.267.15-.248.125-.251.115-.326.131-.269.094-.285.087-.334.084-.363.071-.29.043-.302.032-.241.015c-.11.005-.218.008-.328.008l.3-.006c-.1.004-.2.006-.3.006l-.186-.002-.218-.01c-.108-.006-.214-.015-.32-.026l-.03.226-.015.149-.01.15-.008.3c0 2.982 2.417 5.399 5.398 5.399 2.982 0 5.4-2.417 5.4-5.399 0-.134-.006-.268-.016-.4l-.018-.199-.032-.225-.16.014-.246.016-.157.005-.16.002-.26-.005-.209-.01-.273-.025-.189-.023-.282-.043-.294-.06-.284-.07-.3-.087-.309-.106-.26-.103-.232-.102-.336-.167-.217-.12-.229-.138-.28-.186-.248-.183-.196-.156-.212-.184zm-4.465-7.557l-.146-.129-.254.217-.168.133-.23.17-.237.159-.242.148-.189.106-.203.106-.111.055-.26.118-.165.068-.306.114-.187.061-.338.096-.278.066-.283.054-.288.042-.295.031c-.192.016-.384.024-.578.024l-.397-.011c-.11-.006-.219-.015-.327-.026l-.03.225-.015.149-.01.15-.009.3c0 2.594 1.83 4.76 4.268 5.28l.254.048.256.036.123.012c.081.008.164.013.247.017l.251.006.276-.007c1.281-.065 2.475-.578 3.396-1.434l-.061.053-.108-.154-.18-.279c-.206-.34-.384-.698-.53-1.073l-.119-.33-.096-.315-.084-.335-.025-.114-.037-.189c-.05-.28-.083-.564-.098-.854l-.005-.106c-.003-.087-.005-.174-.005-.262 0-.349.026-.694.078-1.035l.017-.107-.282-.102-.165-.066-.308-.137-.299-.15c-.19-.101-.373-.21-.551-.328l-.293-.204-.198-.152-.176-.145zm9.318.08l-.242-.209-.158.138-.215.175-.205.154-.302.206-.237.146-.309.171-.24.12c-.35.165-.716.302-1.096.407l-.344.086-.3.06-.267.042-.324.036-.243.017-.09.005c-.093.003-.187.005-.282.005l-.395-.01c-.11-.007-.22-.016-.328-.027-.043.27-.064.545-.064.824l.002.119.01.23.009.122.028.26c.024.178.057.354.099.528l.068.258.07.224c.06.175.129.347.206.514l.057.12.098.189.107.19.102.165.2.288c.089.12.183.238.282.35l.171.187.23.224.19.168.232.184.196.141.22.143.149.088.15.083.124.064.227.106.266.108.326.111.166.048c.185.05.372.09.563.12l.258.035-.15-.019c.16.022.321.037.485.045l.258.006.251-.006.249-.017.126-.013c2.686-.31 4.773-2.593 4.773-5.363 0-.134-.005-.268-.015-.4l-.018-.199-.032-.225-.162.015-.224.014-.168.006-.169.002-.302-.006c-.138-.006-.276-.016-.412-.03l-.226-.028-.323-.052-.28-.058-.31-.078-.278-.084-.331-.116-.331-.137-.266-.125-.353-.187-.288-.174-.31-.21-.139-.101-.22-.174zM7.149 12.51c-2.982 0-5.399 2.417-5.399 5.399 0 2.596 1.833 4.764 4.275 5.281.1.021.2.04.302.055l.268.034c.1.01.2.018.302.022l.252.006c.165 0 .33-.007.493-.022l.287-.034.305-.053.121-.026.146-.035c.086-.022.172-.047.258-.073l.128-.042.095-.034c.511-.184.991-.445 1.424-.774l.213-.17.139-.125-.132-.191-.165-.26-.1-.172-.187-.354-.123-.265-.077-.183-.106-.28-.091-.274-.052-.178-.094-.381c-.06-.27-.102-.546-.128-.827l-.014-.173.008.108c-.016-.191-.024-.385-.024-.58l.006-.284.024-.362c.016-.178.04-.354.07-.529l.07-.351.066-.27c.068-.252.15-.498.244-.738l.043-.107c.067-.162.14-.32.22-.476l.152-.284.139-.234.152-.234.101-.143-.14-.124c-.823-.691-1.835-1.125-2.922-1.235l-.273-.021-.276-.007zm18.445 0c-1.2 0-2.337.394-3.26 1.096l-.21.167-.141.122.174.255.119.188.147.256.143.275.142.308.12.299.105.296.083.275.036.134.07.3.025.126c.041.214.072.43.093.651l.006.067c.016.192.024.387.024.584l-.006.283-.022.339c-.016.184-.04.366-.07.545l-.07.352-.068.274c-.043.162-.092.322-.147.48l-.127.334c-.07.17-.145.336-.227.499l-.158.294-.1.17-.094.15.058-.09c-.08.13-.166.257-.255.381l.14.124c.821.691 1.834 1.126 2.921 1.236l.273.02.276.007.251-.005.215-.015.222-.023-.095.011c2.703-.295 4.806-2.585 4.806-5.366 0-2.982-2.417-5.399-5.399-5.399zm-9.223 0c-1.61 0-3.057.706-4.046 1.825l-.156.186-.146.188-.15.214-.18.29-.12.218-.124.258-.111.265-.043.113-.095.287-.075.276-.05.232-.049.287-.03.251c-.008.089-.014.178-.018.267l-.005.242.009.311.019.24.024.203.044.264.085.372.07.244.069.2c.064.177.136.35.218.518l.092.18.08.145.143.237.197.286c.043.058.088.116.133.173l.156.185.103.114.132.138.1.098c.098.094.2.183.304.269l.16.126.24.172.25.159.233.132c.173.092.35.175.533.248l.078.03c.082.032.166.061.25.089l.246.074.17.043.172.038c.088.018.177.034.267.048l.268.034c.1.01.2.018.302.022l.251.006.237-.005.271-.018.34-.043.172-.03.27-.059.237-.063.232-.075.107-.038.164-.063.16-.069c.702-.311 1.324-.768 1.83-1.331l.023-.028c.177-.2.336-.409.478-.625l.137-.22c.077-.13.148-.265.214-.402.055-.114.106-.23.152-.349l.085-.23.082-.26.027-.1c.05-.187.09-.377.12-.57l.03-.238.009-.086c.007-.086.013-.172.017-.26l.005-.236-.009-.312-.013-.184-.027-.235c-.025-.185-.06-.368-.103-.548l-.087-.316-.036-.112-.047-.135-.106-.27-.157-.336-.13-.24c-.051-.09-.105-.177-.162-.263l-.2-.285c-.985-1.313-2.554-2.163-4.322-2.163zM7.922 1.752l.022.266c.361 3.839 2.888 5.677 7.837 5.604l.326-.007-.11-.284c-1.43-3.515-3.923-5.343-7.569-5.56l-.324-.014-.182-.005z" transform="translate(-328 -392) translate(136 320) translate(0 56) translate(146) translate(46 16) translate(9.4 5.5)"/>
                            </g>
                        </g>
                    </g>
                </g>
            </g>
        </g>
    </g>
</svg>
