<svg xmlns="http://www.w3.org/2000/svg" width="52" height="52" viewBox="0 0 52 52">
    <g fill="none" fill-rule="evenodd">
        <g>
            <g>
                <g>
                    <g>
                        <g>
                            <g>
                                <path d="M0 0H52V52H0z" transform="translate(-767 -392) translate(136 320) translate(1 56) translate(584) translate(36 16) translate(10)"/>
                                <g fill="#80C342">
                                    <path d="M6.545.26c5.232-.185 8.825 2.175 10.642 6.973 1.29-2.158 3.655-3.269 7.027-3.269.414 0 .75.336.75.75s-.336.75-.75.75c-4.114 0-6.257 1.76-6.622 5.47 5.222-1.24 9.441-.02 12.54 3.676 4.325 5.159 1.858 14.577-2.952 19.66-3.216 3.4-7.176 4.52-10.678 3.086l-.181-.078-.195.084c-3.42 1.391-7.263.353-10.427-2.847l-.236-.244C.653 29.187-1.815 19.769 2.51 14.61c3.316-3.954 7.917-5.077 13.663-3.376l-.108-.031c.05-.743.16-1.43.329-2.06C9.475 9.521 5.82 6.77 5.82 1.01c0-.404.32-.736.724-.75zm9.197 12.41c-5.194-1.537-9.172-.567-12.081 2.904C-.06 20.01 2.2 28.64 6.552 33.24c2.874 3.037 6.273 3.955 9.208 2.648l.244-.114c.205-.096.443-.094.646.005 2.994 1.46 6.492.577 9.44-2.539 4.352-4.6 6.613-13.23 2.892-17.666-2.808-3.35-6.614-4.372-11.548-3.054-.13.223-.372.373-.648.373-.127 0-.247-.032-.351-.087-.11.016-.224.008-.333-.025zm9.4 13.58c.415 0 .75.336.75.75 0 2.978-2.414 5.393-5.392 5.393-.414 0-.75-.336-.75-.75s.336-.75.75-.75c2.15 0 3.893-1.743 3.893-3.893 0-.414.336-.75.75-.75zM7.347 1.752l.022.274c.378 3.953 3.073 5.806 8.362 5.645l.018-.002-.105-.265c-1.507-3.67-4.178-5.527-8.114-5.648l-.183-.004z" transform="translate(-767 -392) translate(136 320) translate(1 56) translate(584) translate(36 16) translate(10) translate(9.679 6.429)"/>
                                </g>
                            </g>
                        </g>
                    </g>
                </g>
            </g>
        </g>
    </g>
</svg>
