<svg xmlns="http://www.w3.org/2000/svg" width="24" height="24" viewBox="0 0 24 24">
    <g fill="none" fill-rule="evenodd">
        <g>
            <g>
                <g>
                    <g>
                        <path d="M0 0H24V24H0z" opacity=".2" transform="translate(-156 -308) translate(136 172) translate(20 16) translate(0 120)"/>
                        <path fill="#333" d="M12 7.5c4.004 0 7.25 3.246 7.25 7.25S16.004 22 12 22s-7.25-3.246-7.25-7.25S7.996 7.5 12 7.5zm0 1c-3.452 0-6.25 2.798-6.25 6.25S8.548 21 12 21s6.25-2.798 6.25-6.25S15.452 8.5 12 8.5zM15.3 2c.552 0 1 .448 1 1v1.5c0 1.105-.895 2-2 2h-1.5c-.552 0-1-.448-1-1V4c0-1.105.895-2 2-2zm0 1h-1.5c-.552 0-1 .448-1 1v1.5h1.5c.552 0 1-.448 1-1V3z" transform="translate(-156 -308) translate(136 172) translate(20 16) translate(0 120)"/>
                    </g>
                </g>
            </g>
        </g>
    </g>
</svg>
