<svg xmlns="http://www.w3.org/2000/svg" width="24" height="24" viewBox="0 0 24 24">
    <g fill="none" fill-rule="evenodd">
        <g>
            <g>
                <g>
                    <g>
                        <path d="M0 0H24V24H0z" opacity=".2" transform="translate(-156 -348) translate(136 172) translate(20 16) translate(0 160)"/>
                        <g fill="#333">
                            <path d="M17.355.5c1.853 0 3.355 1.502 3.355 3.355V4c0 .552-.448 1-1 1h-2.5v.5c0 4.61-3.669 8.361-8.245 8.496L8.71 14C4.114 14 .354 10.347.214 5.757L.21 5.5C.21 4.672.88 4 1.71 4h14.5V1.5c0-.513.386-.936.883-.993L17.21.5zM16.209 5h-14.5c-.275 0-.5.224-.5.492l.004.242C1.337 9.776 4.655 13 8.71 13c4.142 0 7.5-3.358 7.5-7.5l-.001-.5zM4.05 7c.414 0 .75.336.75.75s-.336.75-.75.75-.75-.336-.75-.75.336-.75.75-.75zm13.305-5.5h-.145L17.209 4h2.5v-.145c0-1.3-1.054-2.355-2.354-2.355z" transform="translate(-156 -348) translate(136 172) translate(20 16) translate(0 160) translate(1.5 5)"/>
                        </g>
                    </g>
                </g>
            </g>
        </g>
    </g>
</svg>
