<svg xmlns="http://www.w3.org/2000/svg" width="24" height="24" viewBox="0 0 24 24">
    <g fill="none" fill-rule="evenodd">
        <g>
            <g>
                <g>
                    <g>
                        <path d="M0 0H24V24H0z" opacity=".2" transform="translate(-156 -468) translate(136 172) translate(20 16) translate(0 280)"/>
                        <g fill="#333">
                            <path d="M9.5 12c.276 0 .5.224.5.5s-.224.5-.5.5h-3c-.276 0-.5-.224-.5-.5s.224-.5.5-.5h3zm8-12c.78 0 1.42.595 1.493 1.356L19 1.5v.25c0 1.463-1.142 2.658-2.582 2.745l-.168.005-.816.001C14.944 8.17 11.803 11 8 11 3.858 11 .5 7.642.5 3.5v-2C.5.672 1.172 0 2 0h15.5zm-3 1H2c-.276 0-.5.224-.5.5v2C1.5 7.09 4.41 10 8 10s6.5-2.91 6.5-6.5V1zm3 0h-2v2.5h.75c.918 0 1.671-.707 1.744-1.606L18 1.75V1.5c0-.245-.177-.45-.41-.492L17.5 1z" transform="translate(-156 -468) translate(136 172) translate(20 16) translate(0 280) translate(3 7)"/>
                        </g>
                    </g>
                </g>
            </g>
        </g>
    </g>
</svg>
