<svg xmlns="http://www.w3.org/2000/svg" width="24" height="24" viewBox="0 0 24 24">
    <g fill="none" fill-rule="evenodd">
        <g>
            <g>
                <g>
                    <g>
                        <path d="M0 0H24V24H0z" opacity=".2" transform="translate(-156 -508) translate(136 172) translate(20 16) translate(0 320)"/>
                        <g fill="#333">
                            <path d="M8.1.112c1.601 0 2.9 1.299 2.9 2.9V5.29c0 .055.005.11.014.165l1.203 7.216c.408 2.451-1.248 4.77-3.7 5.178-.244.041-.491.062-.74.062H2.182c-.829 0-1.5-.672-1.5-1.5 0-.083.007-.166.02-.248L2.486 5.477c.01-.054.014-.11.014-.164V3.025C2.5 1.416 3.804.112 5.412.112zm1.976 5.797h-6.65L1.689 16.327c-.003.014-.004.028-.005.041l-.002.042c0 .276.224.5.5.5h5.597c.193 0 .385-.016.575-.048 1.907-.318 3.195-2.121 2.877-4.028l-1.154-6.925zM7.35 1.111H6.1v1.103c0 .277-.224.5-.5.5-.245 0-.45-.176-.492-.41l-.008-.09V1.138c-.907.149-1.6.937-1.6 1.887v1.884H10V3.013c0-.965-.718-1.761-1.65-1.884v1.085c0 .277-.224.5-.5.5-.245 0-.45-.176-.492-.41l-.008-.09V1.111z" transform="translate(-156 -508) translate(136 172) translate(20 16) translate(0 320) translate(5.25 3.09)"/>
                        </g>
                    </g>
                </g>
            </g>
        </g>
    </g>
</svg>
