<svg xmlns="http://www.w3.org/2000/svg" width="24" height="24" viewBox="0 0 24 24">
    <g fill="none" fill-rule="evenodd">
        <g>
            <g>
                <g>
                    <g>
                        <path d="M0 0H24V24H0z" opacity=".2" transform="translate(-156 -588) translate(136 172) translate(20 16) translate(0 400)"/>
                        <path fill="#333" d="M18.357 3.5c.829 0 1.5.672 1.5 1.5 0 .067-.004.133-.013.2l-1.527 11.397c-.299 2.235-2.205 3.903-4.46 3.903h-6.34c-.75 0-1.386-.556-1.486-1.3l-1.875-14c-.11-.822.467-1.577 1.288-1.687.066-.009.132-.013.199-.013zm0 1H5.643l-.067.004c-.273.037-.465.289-.429.562l1.875 14c.034.249.245.434.496.434h6.34c1.753 0 3.235-1.297 3.468-3.035l1.53-11.432.001-.033c0-.276-.224-.5-.5-.5zm-8.607 10C8.231 14.5 7 13.269 7 11.75V10c0-.552.448-1 1-1h1.75c.93 0 1.754.462 2.251 1.17C12.496 9.462 13.32 9 14.25 9H16c.552 0 1 .448 1 1v1.75c0 1.519-1.231 2.75-2.75 2.75h-4.5zM16 10h-1.75c-.966 0-1.75.784-1.75 1.75v1.75h1.75c.918 0 1.671-.707 1.744-1.606L16 11.75V10zm-6.25 0H8v1.75l.006.144c.073.899.826 1.606 1.744 1.606h1.75v-1.75c0-.966-.784-1.75-1.75-1.75z" transform="translate(-156 -588) translate(136 172) translate(20 16) translate(0 400)"/>
                    </g>
                </g>
            </g>
        </g>
    </g>
</svg>
