<svg xmlns="http://www.w3.org/2000/svg" width="48" height="48" viewBox="0 0 48 48">
    <g fill="none" fill-rule="evenodd">
        <g>
            <g>
                <g>
                    <g>
                        <path fill="#AA8153" d="M28.58 11.143c4.932 0 8.263 1.599 10.32 4.153.67-1.915 2.067-2.884 4.115-2.756 1.983.15 3.261 1.68 3.261 3.513 0 1.853-1.309 3.32-3.318 3.32-.414 0-.75-.335-.75-.75 0-.413.336-.75.75-.75 1.14 0 1.818-.76 1.818-1.82 0-1.08-.71-1.929-1.865-2.016-1.657-.104-2.561.776-2.869 2.918l-.013.066c1.113 2.118 1.595 4.666 1.57 7.4l-.011.557c-.022.653-.072 1.315-.149 1.984l-.071.574-.085.577-.046.29c-.921 5.51-4.04 9.499-9.357 11.965-.132.061-.276.093-.42.093-.514 0-.936-.386-.994-.883l-.007-.117v-2.846c0-1.054-.816-1.918-1.85-1.994l-.15-.006h-8.285c-.44 0-.828.288-.956.71-.467 1.535-1.198 2.749-2.194 3.641-.795.713-1.659 1.2-2.592 1.463-.088.025-.18.038-.27.038-.513 0-.936-.386-.994-.883l-.007-.116v-4.6c-5.286.773-8.764-.262-10.436-3.106l-.005-.788.004-1.166c.001-.433.28-.812.684-.946l.113-.03.225-.05c1.608-.374 2.748-1.96 3.42-4.757l.074-.315-3.031-3.018c-.034-.034-.066-.07-.095-.11-.331-.442-.24-1.069.201-1.4 2.275-1.701 4.67-1.697 7.185.014l.559-.568.552-.55c.183-.18.366-.358.548-.532l.545-.514c3.99-3.699 7.907-5.89 14.877-5.89zm0 1.5c-6.595 0-10.14 1.734-15.358 6.945l-.648.655c-.508.52-1.315.602-1.917.193-1.784-1.213-3.327-1.345-4.882-.428l-.08.048 2.603 2.59c.327.327.484.783.432 1.237l-.026.15c-.748 3.384-2.169 5.521-4.403 6.155l-.079.02v1.11l.022.033c1.356 1.904 4.051 2.647 8.32 2.086l.38-.053c.861-.126 1.637.502 1.712 1.35l.006.136-.002 3.88.142-.063c.338-.166.665-.377.984-.635l.237-.203c.78-.7 1.369-1.676 1.76-2.961.302-.995 1.185-1.692 2.21-1.766l.181-.007h8.285c1.869 0 3.395 1.464 3.495 3.308l.005.192v2.046c4.322-2.216 6.866-5.56 7.732-10.132l.066-.374c1.59-9.518-2.067-15.512-11.176-15.512zM12.273 25.7c.69 0 1.25.56 1.25 1.25s-.56 1.25-1.25 1.25-1.25-.56-1.25-1.25.56-1.25 1.25-1.25z" transform="translate(-279 -197) translate(16 197) translate(246) translate(17)"/>
                    </g>
                </g>
            </g>
        </g>
    </g>
</svg>
