<svg xmlns="http://www.w3.org/2000/svg" width="48" height="48" viewBox="0 0 48 48">
    <g fill="none" fill-rule="evenodd">
        <g>
            <g>
                <g>
                    <g>
                        <path d="M0 0H48V48H0z" opacity=".2" transform="translate(-33 -283) translate(16 197) translate(0 86) translate(17)"/>
                        <path fill="#333" d="M38.29 11.25c3.568 0 6.46 2.892 6.46 6.46V18c0 .966-.784 1.75-1.75 1.75h-5.25V21c0 9.143-7.326 16.575-16.428 16.747L21 37.75c-9.128 0-16.57-7.309-16.747-16.428L4.25 21c0-1.519 1.231-2.75 2.75-2.75h29.25V13c0-.918.707-1.671 1.606-1.744L38 11.25zm-2.04 8.5H7c-.69 0-1.25.56-1.25 1.243l.003.307C5.913 29.595 12.69 36.25 21 36.25c8.422 0 15.25-6.828 15.25-15.25v-1.25zM11.5 23c.828 0 1.5.672 1.5 1.5s-.672 1.5-1.5 1.5-1.5-.672-1.5-1.5.672-1.5 1.5-1.5zm26.79-10.25H38c-.138 0-.25.112-.25.25v5.25H43c.118 0 .217-.082.243-.193L43.25 18v-.29c0-2.74-2.22-4.96-4.96-4.96z" transform="translate(-33 -283) translate(16 197) translate(0 86) translate(17)"/>
                    </g>
                </g>
            </g>
        </g>
    </g>
</svg>
