<svg xmlns="http://www.w3.org/2000/svg" width="52" height="52" viewBox="0 0 52 52">
    <g fill="none" fill-rule="evenodd">
        <g>
            <g>
                <g>
                    <g>
                        <g>
                            <path d="M0 0H52V52H0z" transform="translate(-1204 -392) translate(136 320) translate(0 56) translate(1022) translate(46 16)"/>
                            <path fill="#333" d="M44.265 9.696c.414 0 .75.336.75.75 0 .38-.282.694-.648.744l-.102.006H32.228V22l2.593.001c2.143 0 3.892 1.684 3.996 3.8l.004.2v5.571c0 4.55-3.174 8.358-7.428 9.331v.884c0 1.183-.96 2.143-2.143 2.143H17.179c-1.184 0-2.143-.96-2.143-2.143v-.884c-4.255-.973-7.429-4.781-7.429-9.33V26c0-1.969 1.422-3.605 3.295-3.938 1.26-3.605 4.682-6.098 8.598-6.098 1.347 0 2.637.295 3.8.83v-5.598H18.57c-.414 0-.75-.335-.75-.75 0-.38.283-.693.649-.743l.101-.007h25.694zM29.892 41.142H16.535v.644c0 .322.239.59.549.636l.095.007H29.25c.355 0 .643-.288.643-.643l-.001-.644zm4.93-17.642H11.606c-1.38 0-2.5 1.12-2.5 2.5v5.571c0 4.458 3.614 8.072 8.072 8.072H29.25c4.458 0 8.071-3.614 8.071-8.072V26c0-1.38-1.119-2.5-2.5-2.5zM19.5 17.464c-3.065 0-5.768 1.828-6.962 4.535h13.924c-1.195-2.71-3.9-4.535-6.962-4.535zm11.228-6.268h-2.214V22h2.214V11.196zm-3.714 0H24.8v6.469c.862.615 1.613 1.38 2.217 2.26l-.002-8.729z" transform="translate(-1204 -392) translate(136 320) translate(0 56) translate(1022) translate(46 16)"/>
                        </g>
                    </g>
                </g>
            </g>
        </g>
    </g>
</svg>
