<svg xmlns="http://www.w3.org/2000/svg" width="48" height="48" viewBox="0 0 48 48">
    <g fill="none" fill-rule="evenodd">
        <g>
            <g>
                <g>
                    <g>
                        <g>
                            <path d="M0 0H48V48H0z" opacity=".2" transform="translate(-115 -385) translate(16 197) translate(0 86) translate(82 102) translate(17)"/>
                            <path fill="#aa8153" d="M26.5 13.25c3.649 0 6.621 2.895 6.746 6.513l.004.237v12.045c0 5.674-5.454 10.705-12.75 10.705-.035 0-.068-.002-.102-.007l-.04-.009c-1.776.897-3.858 1.383-6.245 1.46l-.38.01c-.966.013-1.76-.76-1.775-1.726-.006-.446.159-.878.46-1.208l1.697-1.86 1.068-1.183 1.02-1.14c1.269-1.427 2.321-3.156 3.155-5.192.222-.541.351-1.115.384-1.698l.008-.292V20c0-3.728 3.022-6.75 6.75-6.75zm0 1.5c-2.827 0-5.132 2.234-5.246 5.034L21.25 20v1h3c.414 0 .75.336.75.75s-.336.75-.75.75h-3V25h3c.414 0 .75.336.75.75s-.336.75-.75.75h-3v3.405c0 .878-.171 1.747-.504 2.559-.896 2.187-2.037 4.062-3.423 5.62L16.3 39.23l-1.073 1.188-1.123 1.234c-.191.21-.385.42-.58.633-.043.047-.067.11-.066.173.002.138.116.248.254.246 5.179-.074 8.674-2.136 10.61-6.224.178-.374.625-.534 1-.357.373.178.533.625.356 1-.73 1.541-1.665 2.833-2.798 3.873l-.07.061.188-.03c5.08-.935 8.614-4.66 8.748-8.74l.004-.24V20c0-2.9-2.35-5.25-5.25-5.25zm6-11.31c.966 0 1.75.783 1.75 1.75v3c0 2.07-1.679 3.75-3.75 3.75h-3c-.966 0-1.75-.784-1.75-1.75v-3c0-2.072 1.679-3.75 3.75-3.75zm0 1.5h-3c-1.243 0-2.25 1.007-2.25 2.25v3c0 .138.112.25.25.25h3c1.243 0 2.25-1.008 2.25-2.25v-3c0-.139-.112-.25-.25-.25z" transform="translate(-115 -385) translate(16 197) translate(0 86) translate(82 102) translate(17)"/>
                        </g>
                    </g>
                </g>
            </g>
        </g>
    </g>
</svg>
