<svg xmlns="http://www.w3.org/2000/svg" width="52" height="52" viewBox="0 0 52 52">
    <g fill="none" fill-rule="evenodd">
        <g>
            <g>
                <g>
                    <g>
                        <g>
                            <path fill="#AA8153" d="M39.429 9.25c3.49 0 6.321 2.83 6.321 6.321V36.43c0 3.49-2.83 6.321-6.321 6.321H12.57c-3.49 0-6.321-2.83-6.321-6.321V15.57c0-3.49 2.83-6.321 6.321-6.321zm0 1.5H12.57c-2.662 0-4.821 2.159-4.821 4.821V36.43c0 2.662 2.159 4.821 4.821 4.821H39.43c2.662 0 4.821-2.159 4.821-4.821V15.57c0-2.662-2.159-4.821-4.821-4.821zm-14.49 3.256c.59-.589 1.546-.589 2.135 0l2.437 2.437c1.397 1.397 1.694 3.477.892 5.165 1.686-.8 3.764-.503 5.16.893l2.436 2.437c.59.59.59 1.545 0 2.134l-2.437 2.437c-1.394 1.394-3.47 1.693-5.155.896.797 1.685.498 3.76-.896 5.156l-2.437 2.436c-.59.59-1.545.59-2.134 0l-2.437-2.436c-1.396-1.397-1.694-3.475-.894-5.162-1.687.804-3.767.507-5.164-.89l-2.437-2.437c-.59-.59-.59-1.545 0-2.134l2.437-2.437c1.398-1.398 3.48-1.695 5.169-.89-.806-1.688-.509-3.77.889-5.168zM27.256 29c-.162.068-.33.123-.504.164l-.001 3.836c0 .414-.336.75-.75.75-.38 0-.693-.282-.743-.648l-.007-.102v-3.836c-.17-.04-.337-.094-.496-.16l-1.19 1.19c-1.19 1.19-1.19 3.118 0 4.307L26 36.937c.003.003.009.003.012 0L28.45 34.5c1.19-1.19 1.19-3.117 0-4.306l-.224-.224zm-5.444-5.437c-1.189-1.19-3.116-1.19-4.306 0l-2.436 2.436c-.004.004-.004.01 0 .013l2.436 2.437c1.19 1.19 3.117 1.19 4.306 0l.404-.404.788-.787c-.163-.386-.253-.811-.253-1.257 0-.443.089-.866.25-1.251l.008.01-.777-.777zm12.69 0c-1.189-1.19-3.116-1.19-4.306 0l-1.192 1.192c.159.384.247.805.247 1.246 0 .444-.09.867-.25 1.253l.243.242.534.535.418.418c1.19 1.19 3.117 1.19 4.306 0l2.437-2.437c.004-.003.004-.009 0-.013zM26 24.25c-.966 0-1.75.784-1.75 1.75s.784 1.75 1.75 1.75 1.75-.784 1.75-1.75-.784-1.75-1.75-1.75zm.007-9.186l-.006.003-2.437 2.437c-1.19 1.189-1.19 3.117 0 4.306l.42.42.37.37.321.322.077.076c.16-.066.327-.12.498-.161V19c0-.414.336-.75.75-.75.38 0 .693.282.743.648l.007.102v3.837c.176.042.345.097.508.165l1.192-1.192c1.19-1.19 1.19-3.117 0-4.306l-2.437-2.437c-.003-.004-.009-.004-.012 0z" transform="translate(-766 -506) translate(136 320) translate(0 170) translate(584) translate(46 16)"/>
                        </g>
                    </g>
                </g>
            </g>
        </g>
    </g>
</svg>
