<svg xmlns="http://www.w3.org/2000/svg" width="24" height="24" viewBox="0 0 24 24">
    <g fill="none" fill-rule="evenodd">
        <g>
            <g>
                <g>
                    <g>
                        <path d="M0 0H24V24H0z" opacity=".2" transform="translate(-156 -628) translate(136 172) translate(20 16) translate(0 440)"/>
                        <g fill="#333">
                            <path d="M5.75.5c.828 0 1.5.672 1.5 1.5l-.001.272.228.093c1.372.61 2.342 1.918 2.5 3.455l.017.194C10.595 6.36 11 7.007 11 7.75v6.75c0 2.485-2.015 4.5-4.5 4.5H2c-.828 0-1.5-.672-1.5-1.5V7.75c0-.743.405-1.392 1.007-1.736.092-1.687 1.176-3.145 2.727-3.736l.016-.006V2c0-.78.595-1.42 1.356-1.493zM9 6.75H2.5c-.552 0-1 .448-1 1V10h1.844c.276 0 .5.224.5.5 0 .245-.177.45-.41.492l-.09.008H1.5v2h1.844c.276 0 .5.224.5.5 0 .245-.177.45-.41.492l-.09.008H1.5v3.5c0 .245.177.45.41.492L2 18h4.5c1.933 0 3.5-1.567 3.5-3.5V7.75c0-.552-.448-1-1-1zM5.75 1.5c-.276 0-.5.224-.5.5v.634c0 .225-.15.423-.366.483-1.215.335-2.12 1.344-2.335 2.569l-.01.064H8.96l-.007-.054C8.75 4.526 7.92 3.554 6.797 3.172l-.18-.055c-.216-.06-.366-.257-.367-.482V2c0-.276-.224-.5-.5-.5z" transform="translate(-156 -628) translate(136 172) translate(20 16) translate(0 440) translate(6.25 2.25)"/>
                        </g>
                    </g>
                </g>
            </g>
        </g>
    </g>
</svg>
