<svg xmlns="http://www.w3.org/2000/svg" width="52" height="52" viewBox="0 0 52 52">
    <g fill="none" fill-rule="evenodd">
        <g>
            <g>
                <g>
                    <g>
                        <g>
                            <g>
                                <g>
                                    <g>
                                        <path fill="#80C342" d="M10.835.25c2.025 0 3.449 1.268 3.449 3.097 0 .703-.136 1.172-.466 1.91l-.15.342c-.135.33-.185.544-.185.812l.054.082.093.12.075.08.094.089.12.103.25.2.881.669c.872.672 1.384 1.188 1.602 1.781h.134c1.44 0 2.607 1.168 2.607 2.608v1.947c1.125.81 1.857 2.132 1.857 3.624v18.572c0 2.465-1.999 4.464-4.464 4.464H4.714C2.25 40.75.25 38.751.25 36.286V17.714c0-1.492.732-2.814 1.857-3.624v-1.947c0-1.44 1.167-2.607 2.607-2.607h.303c.235-.643.816-1.194 1.822-1.95l.438-.33.4-.31.194-.164.094-.09.074-.08.093-.12.054-.08c0-.314-.068-.554-.26-.989l-.178-.403c-.255-.608-.363-1.048-.363-1.673 0-1.751 1.31-3 3.236-3.092zm5.95 14.5H4.716c-1.638 0-2.965 1.327-2.965 2.964v4.357h6.983c.414 0 .75.336.75.75 0 .38-.282.694-.648.744l-.102.006H1.75v3.143h6.983c.414 0 .75.336.75.75 0 .38-.282.694-.648.743l-.102.007H1.75v3.143h6.983c.414 0 .75.336.75.75 0 .38-.282.694-.648.743l-.102.007H1.75v3.429c0 1.578 1.234 2.869 2.79 2.959l.174.005h12.072c1.637 0 2.964-1.327 2.964-2.964V17.714c0-1.637-1.327-2.964-2.964-2.964zm0-3.714H4.716c-.612 0-1.108.495-1.108 1.107v1.107h14.285v-1.107c0-.57-.43-1.04-.986-1.1l-.12-.007zm-5.95-9.286l-.16.004c-1.138.055-1.79.676-1.79 1.593 0 .446.084.736.336 1.298l.17.391c.204.497.295.88.295 1.375 0 .34-.12.653-.33.95l-.098.133-.096.12-.104.114-.057.058-.134.122-.165.14-.206.163-.963.732c-.263.205-.476.384-.643.542l-.034.033h7.956l-.143-.135c-.078-.07-.164-.143-.258-.22l-.308-.245-.93-.707-.293-.236-.148-.13-.121-.117-.104-.115-.096-.12-.098-.132c-.21-.297-.33-.61-.33-.95 0-.566.119-.986.389-1.595l.163-.37c.184-.438.249-.709.249-1.099 0-.96-.716-1.597-1.949-1.597z" transform="translate(-767 -506) translate(136 320) translate(1 56) translate(0 114) translate(584) translate(33 16) translate(13) translate(15.482 5.152)"/>
                                    </g>
                                </g>
                            </g>
                        </g>
                    </g>
                </g>
            </g>
        </g>
    </g>
</svg>
