<svg xmlns="http://www.w3.org/2000/svg" width="24" height="24" viewBox="0 0 24 24">
    <g fill="none" fill-rule="evenodd">
        <g>
            <g>
                <g>
                    <g>
                        <path d="M0 0H24V24H0z" opacity=".2" transform="translate(-156 -668) translate(136 172) translate(20 16) translate(0 480)"/>
                        <g fill="#333">
                            <path d="M15.818 7.5c.617 0 1.171.378 1.397.952l1.589 4.048h.696c.276 0 .5.224.5.5s-.224.5-.5.5h-.626l-.896 2.199c-.663 1.626-2.207 2.711-3.948 2.796l-.219.005H4.177c-.613 0-1.165-.373-1.393-.943L1.161 13.5H.5c-.276 0-.5-.224-.5-.5s.224-.5.5-.5h.661l1.623-4.057c.21-.526.697-.884 1.253-.936l.14-.007zm1.976 6H2.238l1.475 3.686c.054.135.163.238.296.285l.082.022.086.007h9.634c1.423 0 2.704-.861 3.241-2.179l.742-1.821zm-1.976-5H4.178c-.205 0-.39.124-.465.314L2.238 12.5h15.491l-1.445-3.683c-.054-.136-.164-.24-.297-.288l-.082-.021-.087-.008zM10.153.64c.199-.192.515-.186.707.013.192.199.186.515-.013.707-.64.618-.847.998-.847 1.89 0 .91.254 1.39.822 1.867.211.178.238.494.06.705-.177.211-.493.238-.704.06C9.398 5.226 9 4.477 9 3.25c0-1.204.334-1.82 1.153-2.61zm2.033.97c.216-.173.53-.139.703.076.174.216.14.53-.076.703l-.057.059c-.133.164-.256.51-.256.802 0 .308.173.72.35.893l.059.07c.137.193.12.462-.052.637-.194.197-.51.2-.707.007-.369-.362-.65-1.03-.65-1.607 0-.616.277-1.31.686-1.64zm-5 0c.216-.173.53-.139.703.076.174.216.14.53-.076.703l-.057.059c-.133.164-.256.51-.256.802 0 .308.173.72.35.893l.059.07c.137.193.12.462-.052.637-.194.197-.51.2-.707.007-.369-.362-.65-1.03-.65-1.607 0-.616.277-1.31.686-1.64z" transform="translate(-156 -668) translate(136 172) translate(20 16) translate(0 480) translate(2 1.5)"/>
                        </g>
                    </g>
                </g>
            </g>
        </g>
    </g>
</svg>
