<svg xmlns="http://www.w3.org/2000/svg" width="52" height="52" viewBox="0 0 52 52">
    <g fill="none" fill-rule="evenodd">
        <g>
            <g>
                <g>
                    <g>
                        <g>
                            <g>
                                <g>
                                    <path d="M0 0H52V52H0z" opacity=".2" transform="translate(-1059 -506) translate(136 320) translate(1 56) translate(0 114) translate(876) translate(19 16) translate(27)"/>
                                    <path fill="#80C342" d="M11.923 44.302c-.414 0-.75-.336-.75-.75 0-.113.025-.22.07-.316 1.116-8.115 3.72-13.462 7.853-15.95-3.736-.67-7.173-2.58-8.795-5.55-.73-1.334-1.017-2.887-.87-4.64.113-1.335 1.186-2.374 2.506-2.458l.173-.006h3.771c.614 0 1.188-.289 1.553-.774l.095-.137 1.054-1.679c1.271-2.023 3.49-3.243 5.868-3.243l.264.005.352.015.658.034.307.02.569.046.262.025.479.056.218.03c3.434.52 6.233 1.622 8.817 4.207 3.34 3.341 4.909 7.124 4.128 10.608-.252 1.121-1.054 2.148-2.4 3.101l-.294-.398c1.506 1.996 2.829 4.212 3.967 6.649 1.74 3.722 2.626 7.179 2.626 10.355 0 .38-.282.694-.648.743l-.102.007h-31.73zm9.48-16.469l-.097.037c-4.396 1.711-7.242 6.648-8.485 14.932h10.798v-2.779l.008-.108c.042-.285.244-.525.526-.61 2.067-.623 3.152-1.888 3.366-3.902.004-.043-.017-.085-.055-.107-.494-.283-.957-.562-1.388-.838-.177-.113-.299-.295-.335-.503-.357-2.037-1.573-3.275-3.765-3.805l-.098-.03c-.284-.112-.476-.387-.476-.7v-1.587zm-1.416-15.195l-.133.202-1.055 1.68c-.593.944-1.604 1.539-2.71 1.606l-.208.006h-3.77c-.618 0-1.133.473-1.185 1.089-.123 1.473.11 2.732.69 3.796 1.746 3.193 6.196 5.04 10.502 5.04h.015c.41-.01.77.319.77.75v2.043l.247.082c2.095.728 3.436 2.156 3.956 4.232l.045.198.372.229c.221.133.45.268.687.404.554.317.868.932.8 1.567l-.033.268c-.2 1.418-.777 2.57-1.71 3.44.872.4 1.478 1.281 1.478 2.304 0 .446-.115.864-.317 1.228h14.457l-.004-.098c-.136-2.569-.882-5.362-2.231-8.369l-.23-.503c-1.041-2.227-2.238-4.258-3.592-6.093-1.186.656-2.65 1.275-4.389 1.868-1.405.478-2.932-.273-3.41-1.678-.072-.21-.117-.426-.135-.646l-.01-.22v-8.616c0-.414.336-.75.75-.75.38 0 .694.282.744.648l.007.102v8.615c0 .13.021.26.063.383.212.621.886.953 1.507.742 4.394-1.497 6.736-3.11 7.086-4.67.653-2.91-.716-6.209-3.725-9.22-2.315-2.315-4.834-3.307-7.98-3.783l-.2-.028-.443-.052c-.158-.016-.326-.03-.505-.045l-.566-.04-.628-.032-.336-.014c-1.86-.071-3.619.814-4.671 2.335zm6.222 27.9c-.572 0-1.036.464-1.036 1.036 0 .572.464 1.036 1.036 1.036.572 0 1.036-.464 1.036-1.036 0-.572-.464-1.036-1.036-1.036zm-2.524-6.423c.441 0 .8.359.8.8 0 .442-.359.8-.8.8-.442 0-.8-.358-.8-.8 0-.441.358-.8.8-.8zM21.1 15.64c.608 0 1.1.493 1.1 1.1 0 .608-.492 1.1-1.1 1.1-.608 0-1.1-.492-1.1-1.1 0-.607.492-1.1 1.1-1.1z" transform="translate(-1059 -506) translate(136 320) translate(1 56) translate(0 114) translate(876) translate(19 16) translate(27)"/>
                                </g>
                            </g>
                        </g>
                    </g>
                </g>
            </g>
        </g>
    </g>
</svg>
