<svg xmlns="http://www.w3.org/2000/svg" width="24" height="24" viewBox="0 0 24 24">
    <g fill="none" fill-rule="evenodd">
        <g>
            <g>
                <g>
                    <g>
                        <g fill="#333">
                            <path d="M8.17.5c.928 0 1.684.555 2.247 1.586.132.243.042.546-.2.679-.242.132-.546.042-.678-.2-.37-.68-.781-1.012-1.25-1.06L8.17 1.5l-.147-.001V2.89l.083.012c.646.124 1.144.663 1.208 1.329l.007.144L9.32 5.5h.751c1.288 0 2.342 1.002 2.424 2.269l.005.16V14.5c0 2.485-2.015 4.5-4.5 4.5H2c-.828 0-1.5-.672-1.5-1.5V7.929C.5 6.587 1.587 5.5 2.929 5.5h.751V4.375c0-.731.523-1.34 1.215-1.473l.082-.012V1.499L3.65 1.5c-.276 0-.5-.224-.5-.5 0-.245.177-.45.41-.492L3.65.5h4.52zm1.901 6H2.93c-.79 0-1.429.64-1.429 1.429V17.5c0 .276.224.5.5.5h6c1.933 0 3.5-1.567 3.5-3.5V7.929c0-.79-.64-1.429-1.429-1.429zm-3.048-5H5.977v1.875c0 .245-.177.45-.41.492l-.09.008H5.18c-.245 0-.45.177-.492.41l-.008.09V5.5h3.64V4.375c0-.245-.176-.45-.41-.492l-.09-.008h-.297c-.245 0-.45-.177-.492-.41l-.008-.09V1.5z" transform="translate(-156 -748) translate(136 172) translate(20 16) translate(0 560) translate(5.5 2.25)"/>
                        </g>
                    </g>
                </g>
            </g>
        </g>
    </g>
</svg>
