<?xml version="1.0" encoding="utf-8"?>
<!-- Generator: Adobe Illustrator 25.4.1, SVG Export Plug-In . SVG Version: 6.00 Build 0)  -->
<svg version="1.1" id="Layer_1" xmlns="http://www.w3.org/2000/svg" xmlns:xlink="http://www.w3.org/1999/xlink" x="0px" y="0px"
	 viewBox="0 0 48 48" style="enable-background:new 0 0 48 48;" xml:space="preserve">
<style type="text/css">
	.st0{display:none;}
	.st1{display:inline;}
	.st2{fill:#DCFFCC;}
	.st3{fill:#333333;}
	.st4{fill:#CADCFF;}
	.st5{fill:#FFC2BD;}
	.st6{fill:#FFE6BB;}
	.st7{fill:#EFD9FF;}
	.st8{fill:#FFFFFF;}
	.st9{fill:#FFEB97;}
	.st10{fill:#B3E6FF;}
	.st11{fill:#7BDAFF;}
</style>
<g id="icon_00000034050312297897079980000007272313622953461435_" class="st0">
	<g class="st1">
		<path class="st2" d="M32.4,42.2H15.6c-5.4,0-9.9-4.4-9.9-9.9V15.6c0-5.4,4.4-9.9,9.9-9.9h16.7c5.4,0,9.9,4.4,9.9,9.9v16.7
			C42.2,37.8,37.8,42.2,32.4,42.2z"/>
		<path class="st3" d="M32.4,43H15.6C9.8,43,5,38.2,5,32.4V15.6C5,9.8,9.8,5,15.6,5h16.7C38.2,5,43,9.8,43,15.6v16.7
			C43,38.2,38.2,43,32.4,43z M15.6,6.6c-5,0-9.1,4.1-9.1,9.1v16.7c0,5,4.1,9.1,9.1,9.1h16.7c5,0,9.1-4.1,9.1-9.1V15.6
			c0-5-4.1-9.1-9.1-9.1H15.6z"/>
	</g>
	<g class="st1">
		<g>
			<g>
				<path class="st4" d="M24.8,21.4c-0.3-0.8-0.8-1.5-1.2-1.9c-1.1-1.1-7-5.2-8.1-4c-1.1,1.1,2.9,7,4,8.2c0.4,0.4,1.2,0.9,1.9,1.2
					C21.6,23,23,21.6,24.8,21.4z"/>
				<path class="st3" d="M17.2,17.2c0.5,0.2,1.3,0.6,2.2,1.2c1.4,0.9,2.7,1.9,3.1,2.2c-0.8,0.5-1.4,1.1-1.9,1.9
					c-0.4-0.4-1.3-1.7-2.2-3.2C17.8,18.4,17.4,17.7,17.2,17.2 M16.1,15.3c-0.3,0-0.5,0.1-0.6,0.2c-1.1,1.1,2.9,7,4,8.2
					c0.4,0.4,1.2,0.9,1.9,1.2c0.2-1.8,1.6-3.2,3.4-3.4c-0.3-0.8-0.8-1.5-1.2-1.9C22.6,18.5,18,15.3,16.1,15.3L16.1,15.3z"/>
			</g>
		</g>
		<g>
			<g>
				<path class="st5" d="M23.2,21.4c0.3-0.8,0.8-1.5,1.2-1.9c1.1-1.1,7-5.2,8.1-4c1.1,1.1-2.9,7-4,8.2c-0.4,0.4-1.2,0.9-1.9,1.2
					C26.4,23,25,21.6,23.2,21.4z"/>
				<path class="st3" d="M30.8,17.2c-0.2,0.5-0.6,1.2-1.1,2.2c-0.9,1.5-1.9,2.8-2.2,3.2c-0.5-0.8-1.1-1.4-1.9-1.9
					c0.4-0.4,1.7-1.3,3.1-2.2C29.6,17.8,30.3,17.4,30.8,17.2 M31.9,15.3c-1.9,0-6.5,3.2-7.5,4.2c-0.4,0.4-0.9,1.1-1.2,1.9
					c1.8,0.2,3.2,1.6,3.4,3.4c0.8-0.3,1.5-0.8,1.9-1.2c1.1-1.1,5.1-7,4-8.2C32.4,15.3,32.2,15.3,31.9,15.3L31.9,15.3z"/>
			</g>
		</g>
		<g>
			<g>
				<path class="st6" d="M23.2,26.6c0.3,0.8,0.8,1.5,1.2,1.9c1.1,1.1,7,5.2,8.1,4c1.1-1.1-2.9-7-4-8.2c-0.4-0.4-1.2-0.9-1.9-1.2
					C26.4,25,25,26.4,23.2,26.6z"/>
				<path class="st3" d="M27.4,25.5c0.4,0.4,1.3,1.7,2.2,3.2c0.6,0.9,0.9,1.6,1.1,2.2c-0.5-0.2-1.3-0.6-2.2-1.2
					c-1.4-0.9-2.7-1.9-3.1-2.2C26.3,26.9,27,26.3,27.4,25.5 M26.6,23.2c-0.2,1.8-1.6,3.2-3.4,3.4c0.3,0.8,0.8,1.5,1.2,1.9
					c1,1,5.6,4.2,7.5,4.2c0.3,0,0.5-0.1,0.6-0.2c1.1-1.1-2.9-7-4-8.2C28.1,23.9,27.4,23.5,26.6,23.2L26.6,23.2z"/>
			</g>
		</g>
		<g>
			<g>
				<path class="st7" d="M24.8,26.6c-0.3,0.8-0.8,1.5-1.2,1.9c-1.1,1.1-7,5.2-8.1,4c-1.1-1.1,2.9-7,4-8.2c0.4-0.4,1.2-0.9,1.9-1.2
					C21.6,25,23,26.4,24.8,26.6z"/>
				<path class="st3" d="M20.6,25.5c0.5,0.8,1.1,1.4,1.9,1.9c-0.4,0.4-1.7,1.3-3.1,2.2c-0.9,0.6-1.6,0.9-2.2,1.2
					c0.2-0.5,0.6-1.2,1.1-2.2C19.2,27.2,20.2,25.9,20.6,25.5 M21.4,23.2c-0.8,0.3-1.5,0.8-1.9,1.2c-1.1,1.1-5.1,7-4,8.2
					c0.1,0.1,0.3,0.2,0.6,0.2c1.9,0,6.5-3.2,7.5-4.2c0.4-0.4,0.9-1.1,1.2-1.9C23,26.4,21.6,25,21.4,23.2L21.4,23.2z"/>
			</g>
		</g>
		<g>
			<circle class="st8" cx="24" cy="24" r="3.7"/>
			<path class="st3" d="M24,21.9c1.2,0,2.1,0.9,2.1,2.1c0,1.2-0.9,2.1-2.1,2.1c-1.2,0-2.1-0.9-2.1-2.1C21.9,22.9,22.9,21.9,24,21.9
				 M24,20.4c-2,0-3.7,1.6-3.7,3.7c0,2,1.6,3.7,3.7,3.7c2,0,3.7-1.6,3.7-3.7C27.7,22,26.1,20.4,24,20.4L24,20.4z"/>
		</g>
	</g>
</g>
<g>
	<g>
		<ellipse class="st9" cx="24" cy="21.6" rx="14.5" ry="14.8"/>
		<path class="st3" d="M24,37.1c-8.4,0-15.2-7-15.2-15.6S15.6,6,24,6s15.2,7,15.2,15.6S32.4,37.1,24,37.1z M24,7.5
			c-7.6,0-13.7,6.3-13.7,14.1S16.4,35.6,24,35.6c7.6,0,13.7-6.3,13.7-14.1S31.6,7.5,24,7.5z"/>
	</g>
	<g>
		<path class="st10" d="M40,29.5H27c-1.8,0-3.3,1.2-3.3,2.6v1.2c0,0.6,0.3,1.2,0.7,1.6h-2.1c-1.8,0-3.3,1.2-3.3,2.6v1.2
			c0,1.4,1.5,2.6,3.3,2.6h13.1c1.8,0,3.3-1.2,3.3-2.6v-1.2c0-0.6-0.3-1.2-0.7-1.6H40c1.8,0,3.3-1.2,3.3-2.6v-1.2
			C43.3,30.7,41.8,29.5,40,29.5z"/>
		<path class="st3" d="M35.3,42H22.3c-2.2,0-4-1.5-4-3.3v-1.2c0-1.8,1.8-3.3,4-3.3h0.9C23,33.9,23,33.6,23,33.3v-1.2
			c0-1.8,1.8-3.3,4-3.3H40c2.2,0,4,1.5,4,3.3v1.2c0,1.8-1.8,3.3-4,3.3h-0.9c0.1,0.3,0.1,0.6,0.1,0.9v1.2C39.3,40.5,37.5,42,35.3,42z
			 M22.3,35.6c-1.4,0-2.5,0.9-2.5,1.9v1.2c0,1,1.2,1.9,2.5,1.9h13.1c1.4,0,2.5-0.9,2.5-1.9v-1.2c0-0.5-0.3-0.9-0.5-1.1l-1.2-1.2H40
			c1.4,0,2.5-0.9,2.5-1.9v-1.2c0-1-1.2-1.9-2.5-1.9H27c-1.4,0-2.5,0.9-2.5,1.9v1.2c0,0.5,0.3,0.9,0.5,1.1l1.2,1.2H22.3z"/>
	</g>
	<g>
		<path class="st11" d="M16.2,28H7.7c-1.6,0-3-1.3-3-3v-0.2c0-1.6,1.3-3,3-3h8.5c1.6,0,3,1.3,3,3V25C19.2,26.7,17.9,28,16.2,28z"/>
		<path class="st3" d="M16.4,28.7H7.6c-2,0-3.6-1.6-3.6-3.6v-0.3c0-2,1.6-3.6,3.6-3.6h8.8c2,0,3.6,1.6,3.6,3.6v0.3
			C19.9,27.1,18.3,28.7,16.4,28.7z M7.6,22.6c-1.2,0-2.1,1-2.1,2.2v0.3c0,1.2,1,2.2,2.1,2.2h8.8c1.2,0,2.1-1,2.1-2.2v-0.3
			c0-1.2-1-2.2-2.1-2.2H7.6z"/>
	</g>
</g>
</svg>
