<svg xmlns="http://www.w3.org/2000/svg" xmlns:xlink="http://www.w3.org/1999/xlink" width="20" height="20" viewBox="0 0 20 20">
    <defs>
        <path id="pu4gzulnua" d="M9.93 3.93c.275 0 .5.223.5.5l-.002 5h5.001c.276 0 .5.223.5.5 0 .275-.224.5-.5.5h-5v5c0 .275-.224.5-.5.5s-.5-.225-.5-.5v-5h-5c-.276 0-.5-.225-.5-.5 0-.277.224-.5.5-.5h5v-5c0-.277.224-.5.5-.5z"/>
    </defs>
    <g fill="none" fill-rule="evenodd">
        <g>
            <g>
                <g>
                    <g>
                        <g transform="translate(-312 -316) translate(0 120) translate(16 76) translate(0 108) translate(296 12)">
                            <use fill="#ADADAD" transform="rotate(45 9.93 9.93)" xlink:href="#pu4gzulnua"/>
                        </g>
                    </g>
                </g>
            </g>
        </g>
    </g>
</svg>
