<svg xmlns="http://www.w3.org/2000/svg" xmlns:xlink="http://www.w3.org/1999/xlink" width="16" height="16" viewBox="0 0 16 16">
    <defs>
        <path id="gn49bl832a" d="M10.905 7.392l.106.001c.286.024.536.202.65.465.115.263.075.568-.102.793l-.399.558-1.749 2.062c-.044.073-.06.16-.043.245.002.016.013.035.013.053.133.575.002 1.18-.356 1.65-.582.815-1.553 1.109-2.17.676-.617-.434-.644-1.455-.064-2.273.32-.476.828-.794 1.396-.872h.106c.079-.013.151-.052.205-.11l1.398-2.336.398-.558c.156-.24.432-.376.717-.353zM7.793 6.303c.229-.001.45.09.611.251.163.162.254.382.253.611 0 .476-.386.862-.862.863-.476 0-.862-.385-.863-.861 0-.476.385-.863.86-.864zM5.958 2.5c1.033 0 1.88.797 1.96 1.811l.006.147c0 1.032-.798 1.879-1.812 1.956l-.146.005C4.884 6.422 4.005 5.548 4 4.466c-.001-1.034.797-1.882 1.811-1.96l.147-.006zm.002 1.048c-.505.003-.913.413-.912.918.002.468.356.852.81.903l.106.006c.468 0 .852-.353.905-.807l.006-.106c0-.469-.354-.855-.809-.908l-.106-.006z"/>
    </defs>
    <g fill="none" fill-rule="evenodd">
        <g>
            <g>
                <g>
                    <g>
                        <g>
                            <g transform="translate(-154 -730) translate(136 336) translate(0 40) translate(0 338) translate(12 12) translate(6 4)">
                                <path d="M0 0H16V16H0z"/>
                                <use fill="#FFF" xlink:href="#gn49bl832a"/>
                            </g>
                        </g>
                    </g>
                </g>
            </g>
        </g>
    </g>
</svg>
