<svg xmlns="http://www.w3.org/2000/svg" width="48" height="48" viewBox="0 0 48 48">
    <g fill="none" fill-rule="evenodd">
        <g>
            <g>
                <g>
                    <path d="M0 0H48V48H0z" transform="translate(-279 -77) translate(262 77) translate(17)"/>
                    <path fill="#FFF" d="M24 11.25c6.94 0 12.584 5.57 12.746 12.5l.004.307V33.6c0 .254-.128.488-.336.625l-.094.053-9.6 4.534c-.067.031-.137.052-.21.063l-.11.008h-2.295c-.414 0-.75-.335-.75-.75 0-.38.282-.693.648-.743l.102-.007h2.126l8.252-3.897H31.2c-.38 0-.693-.282-.743-.648l-.007-.102v-7.2c0-.414.336-.75.75-.75h4.05v-.729c0-6.148-4.881-11.149-10.96-11.303L24 12.75c-6.115 0-11.092 4.905-11.246 11.016l-.004.291v.729h4.05c.38 0 .693.282.743.648l.007.102v7.2c0 .414-.336.75-.75.75H12c-.414 0-.75-.336-.75-.75v-8.679c0-7.072 5.708-12.807 12.75-12.807zm-7.95 15.036h-3.3v5.7h3.3v-5.7zm19.2 0h-3.3v5.7h3.3v-5.7z" transform="translate(-279 -77) translate(262 77) translate(17)"/>
                </g>
            </g>
        </g>
    </g>
</svg>
