<svg xmlns="http://www.w3.org/2000/svg" width="48" height="48" viewBox="0 0 48 48">
    <g fill="none" fill-rule="evenodd">
        <g>
            <g>
                <g>
                    <path d="M0 0H48V48H0z" transform="translate(-197 -77) translate(180 77) translate(17)"/>
                    <path fill="#FFF" d="M32.354 12.25c2.444 0 4.784.992 6.484 2.75 1.624 1.68 2.564 3.902 2.643 6.231l.005.318v11.515c0 .38-.282.693-.648.743l-.102.007h-2.49c-.35 1.806-1.939 3.168-3.846 3.168s-3.496-1.362-3.846-3.167H19.238c-.35 1.805-1.939 3.167-3.846 3.167s-3.496-1.362-3.846-3.167L9 33.814c-.918 0-1.671-.707-1.744-1.606l-.006-.144v-6.272c0-.562.172-1.108.49-1.567l.127-.168 4.676-5.75c.482-.592 1.187-.956 1.943-1.008l.19-.007h5.533V14c0-.918.707-1.671 1.606-1.744l.144-.006h10.395zM15.392 30.646c-1.335 0-2.418 1.083-2.418 2.418 0 1.335 1.083 2.418 2.418 2.418 1.335 0 2.418-1.083 2.418-2.418 0-1.335-1.083-2.418-2.418-2.418zm19.008 0c-1.335 0-2.418 1.083-2.418 2.418 0 1.335 1.083 2.418 2.418 2.418 1.335 0 2.418-1.083 2.418-2.418 0-1.335-1.083-2.418-2.418-2.418zM32.354 13.75H21.959c-.118 0-.217.082-.243.193l-.007.057v15.116c0 .414-.336.75-.75.75-.38 0-.693-.283-.743-.649l-.007-.101V18.792h-5.533c-.329 0-.643.13-.875.358l-.094.104-4.677 5.75c-.15.185-.245.41-.272.645l-.008.143v6.272c0 .118.082.217.193.243l.057.007h2.546c.35-1.805 1.939-3.168 3.846-3.168s3.496 1.363 3.846 3.168h11.316c.35-1.805 1.939-3.168 3.846-3.168s3.496 1.363 3.846 3.168h1.74V21.549c0-1.952-.72-3.831-2.017-5.281l-.21-.225c-1.346-1.392-3.174-2.209-5.1-2.287l-.305-.006z" transform="translate(-197 -77) translate(180 77) translate(17)"/>
                </g>
            </g>
        </g>
    </g>
</svg>
