<svg xmlns="http://www.w3.org/2000/svg" width="32" height="32" viewBox="0 0 32 32">
    <path fill="none" d="M0 0H32V32H0z" opacity="0.3"/>
    <g>
        <path fill="#fff" d="M5.683 18.775v-.094H1.1a1.1 1.1 0 0 1-.853-1.8 4.673 4.673 0 0 0 1.285-2.562v-4.135a6.814 6.814 0 0 1 5.249-6.622V2.533A2.537 2.537 0 0 1 9.314 0h.337a2.537 2.537 0 0 1 2.534 2.533v1.029a6.815 6.815 0 0 1 5.248 6.623v4.135a4.673 4.673 0 0 0 1.284 2.562 1.1 1.1 0 0 1-.853 1.8h-4.583v.094a3.8 3.8 0 1 1-7.6 0zm1.5 0a2.3 2.3 0 1 0 4.6 0v-.094h-4.6v.094zm-4.149-8.59v4.135a4.987 4.987 0 0 1-1.077 2.79l-.05.07h15.152l-.049-.07a5.231 5.231 0 0 1-1.07-2.594l-.006-.2v-4.132a5.308 5.308 0 0 0-5.3-5.3h-2.3a5.308 5.308 0 0 0-5.3 5.3zm5.252-7.764l-.005.112v.849h2.4v-.849a1.033 1.033 0 0 0-.921-1.028L9.652 1.5h-.338a1.033 1.033 0 0 0-1.028.921z" transform="translate(6 4.535) translate(.665)"/>
    </g>
</svg>
