<svg xmlns="http://www.w3.org/2000/svg" width="32" height="32" viewBox="0 0 32 32">
    <g fill="none" fill-rule="evenodd">
        <path fill="#FFFFFF" d="M16 4.25c.552 0 1.26.077 2.134.229.774.134 1.413.681 1.677 1.458l.048.17.159.679c.758.331 1.464.75 2.112 1.25l.019.015.77-.186c.757-.182 1.55.06 2.075.622l.109.125c.476.596.833 1.098 1.073 1.513.276.478.563 1.13.869 1.962.27.738.116 1.564-.425 2.182l-.123.126-.51.479.034.36c.01.127.017.255.022.382l.007.384c0 .584-.05 1.162-.149 1.73l.039-.257.019-.122.545.574c.537.564.724 1.37.5 2.108l-.055.156c-.278.711-.534 1.271-.773 1.686-.276.478-.697 1.053-1.265 1.733-.504.604-1.297.883-2.102.724l-.17-.044-.671-.203-.296.212c-.42.288-.862.544-1.322.765l-.332.152-.16.68c-.183.783-.787 1.393-1.557 1.591l-.167.036c-.874.152-1.582.229-2.134.229-.48 0-1.092-.058-1.846-.173-.825-.126-1.503-.717-1.739-1.517l-.225-.758-.398-.173c-.619-.286-1.206-.634-1.761-1.044l-.67.203c-.77.233-1.6.016-2.157-.553l-.115-.127c-.568-.68-.989-1.255-1.265-1.733-.24-.415-.495-.975-.773-1.686-.304-.777-.13-1.66.445-2.264l.544-.574-.04-.335c-.019-.192-.032-.385-.04-.579L5.95 16c0-.257.01-.512.029-.766l.033-.36-.51-.479c-.586-.55-.813-1.379-.6-2.145l.053-.163c.306-.832.593-1.484.87-1.962.239-.415.596-.917 1.072-1.513.521-.651 1.373-.942 2.183-.747l.769.185c.718-.554 1.503-1.009 2.342-1.354l.224-.755c.22-.748.825-1.313 1.576-1.487l.163-.031c.754-.115 1.367-.173 1.846-.173zm0 1.5c-.294 0-.673.029-1.133.087l-.488.069c-.25.038-.454.217-.525.459l-.328 1.11c-.067.228-.238.41-.462.492-.93.34-1.791.84-2.55 1.474-.182.153-.426.21-.657.155L8.73 9.324c-.245-.06-.503.028-.66.225-.434.542-.75.986-.946 1.326-.226.392-.481.97-.76 1.729-.09.244-.024.519.166.698l.79.742c.18.169.266.415.229.66-.065.425-.098.859-.098 1.296 0 .498.043.991.127 1.475.04.234-.032.473-.196.645l-.799.839c-.173.183-.226.45-.134.684.252.647.48 1.142.675 1.482.227.392.6.902 1.117 1.522.167.2.438.281.687.206l1.039-.314c.237-.072.493-.022.686.133.725.581 1.539 1.041 2.411 1.36.223.082.395.265.462.492l.329 1.111c.071.242.276.421.525.46.686.104 1.229.155 1.621.155.453 0 1.081-.068 1.877-.206.257-.045.462-.239.521-.493l.248-1.054c.056-.24.227-.438.458-.527.81-.316 1.566-.754 2.244-1.298.193-.155.45-.205.686-.133l1.003.304.098.025c.233.046.472-.038.625-.221.517-.62.89-1.13 1.117-1.522.147-.255.311-.597.49-1.025l.185-.456c.092-.235.04-.502-.135-.685l-.798-.84c-.164-.172-.236-.412-.195-.645.083-.483.126-.976.126-1.474 0-.437-.033-.87-.098-1.297-.037-.244.049-.49.228-.66l.764-.716.072-.072c.155-.178.202-.428.12-.651-.278-.759-.533-1.337-.76-1.729-.195-.34-.511-.784-.945-1.326-.157-.197-.415-.285-.66-.225l-1.128.272c-.231.055-.475-.002-.657-.155-.713-.596-1.517-1.073-2.382-1.41-.23-.09-.402-.288-.458-.528l-.238-1.018-.028-.099c-.076-.223-.269-.389-.503-.43-.796-.138-1.424-.206-1.877-.206zm0 5.5c2.623 0 4.75 2.127 4.75 4.75s-2.127 4.75-4.75 4.75-4.75-2.127-4.75-4.75 2.127-4.75 4.75-4.75zm0 1.5c-1.795 0-3.25 1.455-3.25 3.25s1.455 3.25 3.25 3.25 3.25-1.455 3.25-3.25-1.455-3.25-3.25-3.25z"/>
    </g>
</svg>
