<svg xmlns="http://www.w3.org/2000/svg" width="48" height="48" viewBox="0 0 48 48">
    <g fill="none" fill-rule="evenodd">
        <g>
            <g>
                <g>
                    <path d="M0 0H48V48H0z" transform="translate(-115 -77) translate(98 77) translate(17)"/>
                    <g fill="#FFF" fill-rule="nonzero">
                        <path d="M24.5-.75c.918 0 1.671.707 1.744 1.606L26.25 1v14.55c.71-.534 1.593-.85 2.55-.85 1.93 0 3.56 1.287 4.078 3.05h2.134c.118 0 .217-.082.243-.193l.007-.057-.001-6.572-3.26-4.318c-.035-.047-.085-.08-.141-.093l-.058-.007H28.8c-.414 0-.75-.335-.75-.75 0-.38.282-.693.648-.743l.102-.007h3.002c.494 0 .962.21 1.292.57l.105.126 3.411 4.52c.079.103.129.226.145.354l.007.097V17.5c0 .918-.707 1.671-1.607 1.744l-.143.006H33.04c-.154 2.207-1.994 3.95-4.24 3.95-2.247 0-4.087-1.744-4.24-3.952l-.06.002-15.56.001C8.785 21.458 6.946 23.2 4.7 23.2c-2.276 0-4.134-1.79-4.245-4.038-.657-.214-1.141-.806-1.2-1.518L-.75 17.5V1C-.75.082-.043-.671.856-.744L1-.75h23.5zM4.7 16.2c-1.519 0-2.75 1.231-2.75 2.75S3.181 21.7 4.7 21.7s2.75-1.231 2.75-2.75S6.219 16.2 4.7 16.2zm24.1 0c-1.519 0-2.75 1.231-2.75 2.75s1.231 2.75 2.75 2.75 2.75-1.231 2.75-2.75-1.231-2.75-2.75-2.75zM24.5.75H1C.882.75.783.832.757.943L.75 1v16.379c.625-1.57 2.158-2.679 3.95-2.679 1.93 0 3.56 1.288 4.078 3.05H24.5c.118 0 .217-.082.243-.193l.007-.057V1c0-.118-.082-.217-.193-.243L24.5.75z" transform="translate(-115 -77) translate(98 77) translate(17) translate(6.5 12.95)"/>
                    </g>
                </g>
            </g>
        </g>
    </g>
</svg>
