<svg xmlns="http://www.w3.org/2000/svg" width="48" height="48" viewBox="0 0 48 48">
    <g fill="none" fill-rule="evenodd">
        <g>
            <g>
                <g>
                    <path d="M0 0H48V48H0z" transform="translate(-197 -77) translate(180 77) translate(17)"/>
                    <g fill="#FFF" fill-rule="nonzero">
                        <path d="M15.318.25c2.637 0 4.784 2.103 4.895 4.735l.005.215v1.883h7.184c1.463 0 2.659 1.142 2.745 2.582l.005.168c0 .093-.004.185-.014.278L28.61 25.182c-.205 2.017-1.903 3.552-3.93 3.552H5.994c-2.023 0-3.718-1.527-3.929-3.539L.485 10.12c-.158-1.51.938-2.864 2.449-3.022.095-.01.19-.015.287-.015h7.196V5.2c0-2.732 2.192-4.95 4.9-4.95zm12.084 8.333h-7.185v2.675c0 .414-.335.75-.75.75-.38 0-.693-.282-.743-.648l-.006-.102V8.583l-6.8.001v2.674c0 .414-.336.75-.75.75-.38 0-.694-.282-.744-.648l-.006-.102V8.584H3.154l-.065.006c-.686.072-1.185.687-1.113 1.373l1.58 15.076c.13 1.248 1.182 2.195 2.437 2.195H24.68c1.257 0 2.31-.952 2.437-2.203l1.534-15.135.001-.063c0-.69-.56-1.25-1.25-1.25zM15.318 1.75c-1.814 0-3.298 1.441-3.395 3.26l-.005.19v1.883h6.8V5.2c0-1.907-1.525-3.45-3.4-3.45z" transform="translate(-197 -77) translate(180 77) translate(17) translate(9 8)"/>
                    </g>
                </g>
            </g>
        </g>
    </g>
</svg>
