<svg xmlns="http://www.w3.org/2000/svg" xmlns:xlink="http://www.w3.org/1999/xlink" width="36" height="36" viewBox="0 0 36 36">
    <defs>
        <path id="zdthkwi59a" d="M28.356 12.895c-.558-1.53-1.435-2.924-2.572-4.09-.982-1.006-2.157-1.802-3.455-2.34-2.801-1.138-5.938-1.119-8.726.051-1.36.584-2.582 1.448-3.586 2.537-1.062 1.141-1.89 2.481-2.435 3.943-.563 1.557-.845 3.202-.83 4.857-.024 1.849.326 3.683 1.03 5.393.62 1.504 1.548 2.862 2.721 3.989.99.95 2.157 1.696 3.436 2.193 1.293.496 2.667.747 4.052.741 2.93.04 5.745-1.142 7.77-3.264 1.09-1.108 1.945-2.426 2.51-3.875.661-1.638.993-3.39.979-5.157.008-1.703-.29-3.393-.877-4.991l-.017.013zm-3.308 9.368c-.462 1.144-1.155 2.18-2.034 3.043-.666.652-1.448 1.174-2.305 1.54-1.758.722-3.73.717-5.483-.016-.82-.349-1.571-.84-2.22-1.453-.927-.9-1.649-1.99-2.115-3.195-1.007-2.705-1.014-5.68-.02-8.39.45-1.22 1.153-2.332 2.06-3.264.66-.669 1.444-1.201 2.308-1.567 1.758-.703 3.719-.703 5.477 0 .818.354 1.565.855 2.203 1.479.997.97 1.747 2.166 2.187 3.486.478 1.37.723 2.81.724 4.26.018 1.407-.252 2.803-.795 4.1l.013-.023z"/>
    </defs>
    <g fill="none" fill-rule="evenodd">
        <g>
            <g>
                <g>
                    <g transform="translate(-162 -680) translate(0 614) translate(152 56) translate(10 10)">
                        <path d="M0 0H36V36H0z"/>
                        <use fill="#FFF" xlink:href="#zdthkwi59a"/>
                    </g>
                </g>
            </g>
        </g>
    </g>
</svg>
