<svg xmlns="http://www.w3.org/2000/svg" width="20" height="20" viewBox="0 0 20 20">
    <g fill="none" fill-rule="evenodd">
        <g>
            <g>
                <g>
                    <g>
                        <path d="M0 0H20V20H0z" transform="translate(-16 -1455) translate(0 1180) translate(0 244) translate(16 31)"/>
                        <path fill="#E0E0E0" d="M10 0c5.523 0 10 4.477 10 10s-4.477 10-10 10S0 15.523 0 10 4.477 0 10 0zm.125 12.778c-.414 0-.75.336-.75.75s.336.75.75.75.75-.336.75-.75-.336-.75-.75-.75zm0-7.153c-.345 0-.625.28-.625.625v4.375c0 .345.28.625.625.625s.625-.28.625-.625V6.25c0-.345-.28-.625-.625-.625z" transform="translate(-16 -1455) translate(0 1180) translate(0 244) translate(16 31)"/>
                    </g>
                </g>
            </g>
        </g>
    </g>
</svg>
