<svg xmlns="http://www.w3.org/2000/svg" xmlns:xlink="http://www.w3.org/1999/xlink" width="16" height="16" viewBox="0 0 16 16">
    <defs>
        <path id="c12tran8wa" d="M10.267 8.551H6.15c-.003.46.096.914.289 1.327.325.715 1.02 1.166 1.775 1.151.233.003.465-.028.69-.092.215-.064.42-.161.606-.29.192-.128.376-.27.549-.424.163-.152.377-.357.639-.614.131-.106.295-.158.46-.146.193-.007.38.061.526.192.138.135.211.328.2.526-.015.249-.091.49-.222.698-.178.298-.408.559-.677.768-.342.268-.724.474-1.131.609-.507.17-1.036.252-1.568.243-1.351 0-2.402-.404-3.152-1.213-.75-.808-1.129-1.908-1.135-3.299-.005-.617.09-1.23.278-1.814.17-.532.446-1.02.81-1.433.363-.407.812-.721 1.31-.918.55-.22 1.136-.328 1.726-.32.738-.022 1.469.166 2.114.545.558.331 1.017.82 1.323 1.412.283.54.434 1.145.439 1.76 0 .557-.152.917-.456 1.079-.4.188-.838.274-1.277.253zM6 7.5h4c-.054-.836-.257-1.459-.608-1.875-.364-.42-.872-.646-1.396-.623-.513-.016-1.007.217-1.353.637C6.29 6.056 6.075 6.676 6 7.5z"/>
    </defs>
    <g fill="none" fill-rule="evenodd">
        <g>
            <g>
                <g>
                    <g>
                        <g>
                            <g transform="translate(-954 -392) translate(136 336) translate(0 40) translate(800) translate(12 12) translate(6 4)">
                                <path d="M0 0H16V16H0z"/>
                                <use fill="#FFF" xlink:href="#c12tran8wa"/>
                            </g>
                        </g>
                    </g>
                </g>
            </g>
        </g>
    </g>
</svg>
