<svg xmlns="http://www.w3.org/2000/svg" width="253" height="31" viewBox="0 0 253 31">
    <g fill="none" fill-rule="evenodd">
        <g stroke-width="2">
            <g>
                <g>
                    <path stroke="#80C342" stroke-linecap="round" stroke-linejoin="round" d="M29 24L24 29" transform="translate(-54 -316) translate(36 289) translate(18 27)"/>
                    <path stroke="#FFBD05" stroke-linecap="round" stroke-linejoin="round" d="M252 13L248 17" transform="translate(-54 -316) translate(36 289) translate(18 27) matrix(-1 0 0 1 500 0)"/>
                    <path stroke="#FFBD05" d="M10.758 4.635c.115-.031.231-.012.326.043.221.339.22.421.196.499h0l-.6 1.936c-.178.578-.178 1.196 0 1.774h0l.596 1.925c.033.107.02.218-.029.31-.048.093-.132.167-.24.2-.076.023-.156.024-.232.003h0l-1.951-.557c-.539-.154-1.11-.154-1.648 0h0l-1.95.557c-.118.033-.239.016-.338-.04-.1-.054-.178-.148-.211-.265-.023-.08-.023-.165 0-.244h0l.558-1.95c.154-.54.154-1.112 0-1.652h0l-.561-1.961c-.036-.124-.018-.25.04-.354.058-.105.155-.187.28-.222.08-.023.166-.024.248-.002h0l1.983.53c.508.136 1.042.136 1.55 0h0z" transform="translate(-54 -316) translate(36 289) translate(18 27) rotate(-45 8 8)"/>
                    <path stroke="#407DD1" d="M229.758 19.635c.115-.031.231-.012.326.043.221.339.22.421.196.499h0l-.6 1.936c-.178.578-.178 1.196 0 1.774h0l.596 1.925c.033.107.02.218-.029.31-.048.093-.132.167-.24.2-.076.023-.156.024-.232.003h0l-1.951-.557c-.539-.154-1.11-.154-1.648 0h0l-1.95.557c-.118.033-.239.016-.338-.04-.1-.054-.178-.148-.211-.265-.023-.08-.023-.165 0-.244h0l.558-1.95c.154-.54.154-1.112 0-1.652h0l-.561-1.961c-.036-.124-.018-.25.04-.354.058-.105.155-.187.28-.222.08-.023.166-.024.248-.002h0l1.983.53c.508.136 1.042.136 1.55 0h0z" transform="translate(-54 -316) translate(36 289) translate(18 27) rotate(-45 227 23)"/>
                    <path stroke="#407DD1" stroke-linecap="round" stroke-linejoin="round" d="M50 5L46 9" transform="translate(-54 -316) translate(36 289) translate(18 27) matrix(-1 0 0 1 96 0)"/>
                    <path stroke="#80C342" stroke-linecap="round" stroke-linejoin="round" d="M210 3L205 8" transform="translate(-54 -316) translate(36 289) translate(18 27)"/>
                </g>
            </g>
        </g>
    </g>
</svg>
