<svg xmlns="http://www.w3.org/2000/svg" xmlns:xlink="http://www.w3.org/1999/xlink" width="14" height="14" viewBox="0 0 14 14">
    <defs>
        <filter id="ttweiga1ra">
            <feColorMatrix in="SourceGraphic" values="0 0 0 0 1.000000 0 0 0 0 1.000000 0 0 0 0 1.000000 0 0 0 1.000000 0"/>
        </filter>
        <path id="cicssesd3b" d="M0 0.001L9.592 0.001 9.592 10.257 0 10.257z"/>
    </defs>
    <g fill="none" fill-rule="evenodd">
        <g>
            <g>
                <g>
                    <g>
                        <g>
                            <path d="M0 0H14V14H0z" transform="translate(-34 -316) translate(0 169) translate(16 131) translate(12 12) translate(6 4)"/>
                            <g filter="url(#ttweiga1ra)" transform="translate(-34 -316) translate(0 169) translate(16 131) translate(12 12) translate(6 4)">
                                <g>
                                    <path fill="#FFF" d="M3.678 2.655l.104-1.172c.044-.533.075-.907.08-.986.003-.045 0-.09-.01-.13-.024-.108-.1-.175-.1-.175-.09-.09-.304-.221-.76-.136-.016.003-.189.037-.339.127-.052.032-.174.114-.237.224-.038.07-.106.23-.131.506l-.098 1.674-.082 1.336s-.056.843-.076 1.086c-.04.455-.088 1.041-.137 1.664l-1.35.062C.458 6.74.007 6.78 0 7.056c0 .016.001.033.004.051.023.196.117.331.237.424.028.02.07.047.08.053.296.179.72.171.72.171h.775l-.112 1.627-.018.323c-.009.167-.014.353.046.46.047.083.122.095.191.104.28.033.596.047.838-.305.219-.316.293-.675.357-1.148.015-.107.043-.358.073-.638l.332-3.762c.05-.419.355-.479.472-.486 0 0 .039-.002.088 0l-.405-1.275z" transform="translate(2.188 1.75)"/>
                                    <g transform="translate(2.188 1.75) translate(0 .028)">
                                        <mask id="a8zawhzfjc" fill="#fff">
                                            <use xlink:href="#cicssesd3b"/>
                                        </mask>
                                        <path fill="#FFF" d="M9.049 2.876l-1.294-.06.133-1.912.018-.324c.008-.166.013-.352-.047-.46-.047-.082-.12-.094-.19-.103-.28-.034-.597-.047-.839.304-.218.317-.292.676-.357 1.148-.015.107-.043.358-.073.638l-.057.644c-2.187-.102-4.929-.228-5.311-.244 0 0-.22-.006-.356.007-.394.056-.556.268-.622.432-.001.004-.07.214-.05.46 0 0 .013.183.076.28.06.084.193.2.474.21H3.73l.956.015s1.61-.007 1.621 1.261c0 0 .04.985-1.055 1.269 0 0-.177.055-.473.07l1.126 1.217-.095 1.074c-.045.534-.075.908-.08.987-.004.045 0 .089.009.13.025.107.1.175.1.175.09.09.304.22.76.135.016-.002.19-.036.34-.126.052-.032.173-.114.236-.224.038-.07.106-.23.132-.506l.096-1.645.084-1.366c.029-.448.056-.842.076-1.086.034-.384.074-.864.114-1.38h.874s.424.008.72-.171c.01-.006.051-.032.08-.054.12-.092.213-.227.237-.423.003-.018.003-.035.004-.05-.006-.278-.458-.317-.543-.322" mask="url(#a8zawhzfjc)"/>
                                    </g>
                                    <path fill="#FFF" d="M9.538 6.805c-.066-.164-.228-.376-.623-.431-.135-.014-.355-.008-.355-.008l-1.075.049-2.706.124c-.168.01-.322.005-.363.008-.129.007-.414.052-.438.327l-.076.881h5.136c.28-.01.414-.126.474-.21.063-.097.076-.279.076-.279.02-.247-.05-.457-.05-.46" transform="translate(2.188 1.75)"/>
                                </g>
                            </g>
                        </g>
                    </g>
                </g>
            </g>
        </g>
    </g>
</svg>
