<svg xmlns="http://www.w3.org/2000/svg" width="44" height="44" viewBox="0 0 44 44">
    <g fill="none" fill-rule="evenodd">
        <g>
            <g>
                <g>
                    <g>
                        <path d="M0 0H44V44H0z" transform="translate(-260 -674) translate(136 320) translate(0 340) translate(124 14)"/>
                        <path fill="#AA8153" d="M13.976 4.759c4.006-.144 6.875 1.523 8.503 4.915 1.204-1.533 3.163-2.323 5.831-2.323.414 0 .75.336.75.75 0 .415-.336.75-.75.75-3.68 0-5.52 1.614-5.733 5.054 1.19.153 2.27.658 3.131 1.406 1.069-.928 2.443-1.456 3.903-1.456 3.287 0 5.952 2.665 5.952 5.952 0 2.593-1.657 4.798-3.97 5.615.046.291.068.588.068.889 0 2.592-1.657 4.798-3.97 5.614.046.291.068.589.068.889 0 3.288-2.665 5.953-5.952 5.953-3.288 0-5.953-2.665-5.953-5.953 0-.3.022-.597.066-.89-2.31-.815-3.968-3.02-3.968-5.613 0-.3.022-.597.066-.89-2.31-.816-3.968-3.021-3.968-5.614 0-3.287 2.665-5.952 5.953-5.952 1.459 0 2.834.528 3.902 1.457.871-.757 1.965-1.265 3.171-1.413.028-.498.086-.97.174-1.413-5.222.04-7.997-2.324-7.997-6.978 0-.404.32-.735.723-.75zm7.83 26.046l-.037.033c-1.062.909-2.422 1.425-3.864 1.425l-.161-.002-.047-.002h-.035l-.079-.004-.046-.003-.146-.01-.01.077-.012.123-.008.123-.007.249c0 2.46 1.994 4.453 4.453 4.453 2.459 0 4.452-1.994 4.452-4.453l-.007-.249-.02-.246-.01-.077-.149.01-.045.003-.042.002-.138.005-.14.001-.223-.004h-.026l-.083-.005c-.064-.003-.127-.008-.19-.013l-.052-.005c-.077-.007-.152-.016-.227-.026l-.026-.004c-.175-.024-.347-.056-.516-.095l-.032-.008.012.003-.097-.023-.117-.031-.073-.02-.172-.053-.065-.022c-.158-.052-.313-.111-.465-.177l-.051-.022c-.057-.025-.112-.05-.166-.076l-.129-.064-.064-.033c-.139-.073-.275-.152-.408-.235l-.043-.028-.162-.107-.085-.06-.138-.102-.134-.105.086.066-.085-.065c-.058-.047-.115-.095-.172-.144zm-3.902-6.503c-.212.185-.431.35-.661.5l-.022.013-.121.076-.101.061-.035.02c-.143.082-.29.159-.44.229l-.095.043c-.048.022-.097.043-.147.064l-.116.046-.136.052-.117.04c-.048.017-.096.032-.144.047l-.127.038-.117.032-.16.04-.1.023-.16.032-.117.02c-.053.01-.105.017-.158.025l-.11.014c-.054.007-.11.012-.165.018-.052.004-.104.009-.157.012l-.156.007-.24.006c-.107 0-.214-.003-.32-.009l-.032-.001c-.053-.003-.107-.007-.16-.012l-.01.078-.013.123-.008.123-.007.249c0 2.135 1.503 3.919 3.508 4.352.066.013.13.026.196.037l.005.001.03.005.035.006h.007l.027.005.081.011-.05-.008.06.008h-.01.008l.045.005-.03-.002.076.008-.041-.005.071.008.035.003-.036-.003.104.01.117.006.215.005c.083 0 .167-.002.25-.007l.072-.004.039-.004.02-.002h.013l-.007-.001.071-.006-.021.002.066-.006.11-.014-.066.008.069-.009.028-.004-.025.004.125-.019.12-.022-.073.013.072-.012.087-.019-.004.001.033-.007.004-.001.005-.001.054-.013-.055.013.12-.029.063-.017.05-.014.081-.024.039-.012.007-.001.097-.033-.095.031.106-.034.078-.029-.074.028.109-.04.053-.021.054-.02.015-.007.048-.021.045-.019.021-.009.041-.019.035-.016.02-.009.004-.002.005-.002.023-.01-.009.003-.014.007.001-.001.013-.006.08-.038.037-.02.041-.022-.064.033.098-.051.021-.011.011-.006.035-.02.074-.043.02-.012.091-.056.057-.036.003-.001.122-.084-.05.035.034-.022.055-.04.048-.034.194-.15.07-.062c-.075-.11-.147-.221-.215-.336l-.061-.105c-.026-.045-.05-.09-.075-.136l-.032-.061c-.12-.232-.226-.472-.315-.72l-.024-.068c-.054-.154-.1-.31-.141-.47l-.028-.111-.034-.153-.019-.097c-.032-.17-.057-.343-.075-.517l-.007-.075-.004-.048.002.017-.014-.204-.002-.04-.004-.126-.001-.126.004-.222.003-.069.004-.08.011-.146.014-.144.032-.228c-.123-.044-.244-.091-.364-.142l-.025-.012c-.185-.08-.365-.17-.54-.267l-.05-.029c-.072-.041-.143-.084-.213-.128l-.038-.024c-.08-.053-.16-.106-.239-.162l-.058-.043-.177-.135.04.032-.056-.043-.015-.012-.029-.023-.156-.132zm7.805 0c-.055.048-.11.095-.167.14l-.032.026-.045.036c-.055.042-.11.084-.166.124l-.015.012-.063.044-.14.096-.031.02c-.077.05-.153.097-.23.142l-.029.017-.165.092-.1.053c-.15.077-.306.15-.465.214l-.03.012c-.073.03-.146.058-.22.084l-.044.015c-.081.029-.164.056-.247.08l-.037.011c-.07.021-.14.04-.211.058l-.087.021c-.164.04-.33.071-.499.096l-.011.002-.068.01-.166.02c-.046.004-.091.009-.137.012l-.127.01-.133.005-.237.006c-.108 0-.215-.003-.322-.009l-.03-.001c-.054-.003-.108-.007-.16-.012-.027.187-.039.38-.039.573l.006.24.02.24.001.016.004.031-.003-.024.007.062.005.036.004.027.003.021.005.036.009.055.007.04-.011-.069c.01.07.024.14.038.209l-.02-.105.047.226c.021.086.044.172.07.256l.022.07.018.056.016.047.016.043.012.035-.012-.035c.025.07.052.139.08.207l.015.035.019.043.016.037.054.113c.049.1.102.2.158.296l.011.019.01.016.021.036.007.01.001.002.017.027.027.044.006.009.003.005.055.082.006.009.003.005.043.061.023.033.058.078.064.083.135.16.147.163.075.076.076.074.086.08.032.027.02.018.016.013.003.003.064.054.038.031-.03-.025.082.066-.002-.001.016.012.03.025.037.027.008.005.031.023-.009-.006.009.007.035.025-.035-.026.123.087c.104.071.211.138.322.2l.035.02.005.003.024.013.002.001.015.008.004.002.058.03.038.02.068.033.002.001.027.013.057.027.063.028.044.019-.043-.019.059.025.069.029.21.079.247.076.076.019.117.029.057.013-.028-.006.069.016-.035-.009.054.012.011.002-.012-.002.012.003.083.015.115.02c.146.022.295.037.445.045l.235.006.215-.005.073-.004.043-.003.115-.01c.077-.007.153-.017.229-.028l-.127.016.199-.028c2.103-.356 3.705-2.186 3.705-4.39l-.007-.249-.02-.246-.01-.078c-.052.005-.104.008-.156.011l-.038.002-.022.002c-.098.005-.198.007-.297.007-1.346 0-2.62-.45-3.648-1.248l-.216-.176-.038-.034zm-11.706-8.947c-2.46 0-4.453 1.993-4.453 4.452 0 2.133 1.5 3.916 3.502 4.351l.207.04.061.01-.043-.008.054.008.166.023-.025-.003.04.005-.007-.001.01.001.054.005.135.011.06.005.239.006.241-.007c.956-.05 1.851-.405 2.573-.996l.14-.122-.055.047-.105-.158c-.034-.054-.068-.108-.1-.162-.025-.04-.048-.08-.07-.12-.022-.037-.043-.075-.063-.113l-.052-.099c-.036-.07-.071-.141-.105-.213l-.018-.04c-.03-.066-.06-.133-.087-.2l-.023-.057c-.025-.06-.048-.123-.07-.185l-.029-.08c-.029-.082-.055-.166-.08-.25l-.015-.049-.001-.003-.002-.008-.003-.01-.004-.015-.005-.018.03.103c-.022-.072-.042-.144-.06-.217l-.028-.112-.034-.153-.019-.097c-.032-.168-.057-.34-.075-.512l-.007-.076-.001-.012-.002-.026-.01-.156v.01-.01l-.002-.023V20.1l-.003-.04c-.003-.083-.005-.168-.005-.253 0-.088.002-.176.006-.263l.003-.074c.004-.07.01-.14.016-.21l.006-.059c.027-.273.073-.54.136-.801l.013-.051c.017-.07.036-.137.056-.205l.035-.116c.018-.06.038-.12.059-.179l.022-.062c.12-.335.27-.656.447-.96l.05-.085.034-.055-.01.015.009-.013.028-.046.027-.043.023-.035.003-.005.002-.004.085-.125-.07-.061c-.66-.544-1.465-.89-2.329-.987l-.26-.022-.242-.006zm12.833 7.635l.007-.01-.025.041-.022.032-.086.13.07.062.194.151.202.14.007.005.022.014.003.002.009.006.004.002.057.036.09.054.055.031.066.037.023.012.015.008.061.033.044.021-.033-.016.073.036.033.016.002.001.105.048.034.014-.023-.01.066.028-.01-.004.054.023.105.041.055.02-.017-.006.022.008.003.001.014.005.03.011.02.007.057.019.05.016.057.017.069.02.036.01.077.021.106.025-.012-.003.028.006.003.001h-.001l.004.001.005.001.019.004.005.001.084.018.003.001-.002-.001.003.001h-.001l.007.001.102.018-.012-.002.029.005.046.007.04.006-.027-.004.06.01.124.015.245.02.242.006.24-.006.105-.007.104-.01.113-.013.185-.026c2.103-.356 3.705-2.186 3.705-4.39 0-2.46-1.993-4.453-4.452-4.453-.965 0-1.879.308-2.63.858l-.2.156-.073.062h.002l.082.121.005.008c.09.14.176.283.255.43l.034.064c.08.153.153.31.22.471l.033.082c.095.237.174.482.238.733l.02.086c.013.05.024.099.035.149l.019.095c.032.165.057.334.075.504l.014.153v.001l.001.015.001.016.001.009-.001-.003.002.025.004.067.001.013.002.025.001.012v.008l.002.031c.003.087.005.174.005.261 0 .085-.001.17-.005.254l-.006.121-.009.119-.012.127c-.018.176-.044.35-.077.52l-.01.054-.043.191-.018.073c-.064.254-.144.502-.24.742l-.033.082c-.064.154-.134.304-.21.45l-.053.1-.054.098-.075.127-.003.005-.018.031-.025.039.03-.049-.062.099zM14.782 6.256l.017.18c.327 3.098 2.379 4.588 6.4 4.554l.216-.005-.08-.2c-1.224-2.914-3.34-4.397-6.436-4.526l-.117-.003zm7.888 17.919l.012-.001.012-.004.022-.004.021-.003-.014.001-.007.002-.017.003.024-.005.025-.005-.011.004.049-.012-.035.007.235-.056c.082-.022.163-.047.243-.074l.006-.002.017-.006.064-.022-.044.015.054-.019c.033-.011.065-.023.097-.036l-.1.036.116-.043-.007.003.078-.03.087-.038-.026.01c.29-.125.565-.28.82-.462l.003-.004.084-.06.061-.048-.066.052.069-.051.067-.055-.046.037c.215-.17.413-.359.593-.564l.142-.17.036-.046.046-.062.005-.005.024-.034.004-.006.008-.011.062-.088.001-.002h.001l.005-.008.009-.014h.002l.041-.066h.002l.007-.013.025-.039.01-.016.012-.019.017-.026.036-.062-.014.023.062-.106c.063-.113.122-.23.175-.35l.007-.016.005-.011.012-.026.002-.008.01-.023.008-.02.006-.013.005-.012.008-.021.008-.018.003-.008.001-.001.003-.009.012-.033-.006.018.009-.024.016-.042.003-.008.005-.015.005-.01c.058-.162.108-.329.147-.499l.007-.033.018-.084.003-.015.004-.019.006-.032.004-.022.012-.069.003-.016.021-.139.004-.04.002-.015.004-.035V20.3l.002-.014.002-.009.001-.02.001-.014.002-.007-.001-.008h.001l.003-.046.004-.028v-.01l.003-.029-.002.006.007-.091.005-.223c0-.076-.002-.153-.005-.229l-.003-.033v-.008l-.002-.023-.003-.044-.003-.039-.006-.064-.001-.004.001.002v-.006l-.002-.016v-.006l-.002-.009-.003-.025-.003-.026-.002-.017-.003-.029-.001-.009-.002-.011-.001-.01-.002-.015-.005-.033-.002-.009-.002-.022-.005-.026-.011-.067-.005-.028-.003-.017-.011-.055-.002-.009-.003-.017-.025-.117-.055-.21c-.02-.069-.04-.136-.063-.203l-.002-.004-.008-.021-.003-.009-.016-.046-.009-.026-.002-.004-.007-.018-.026-.067-.004-.011-.004-.01-.006-.014-.028-.071-.007-.016c-.074-.172-.159-.34-.253-.5l-.02-.034-.011-.019.01.018-.023-.038-.02-.032-.012-.019-.036-.056-.034-.052-.019-.027-.001-.002-.02-.029-.047-.066-.108-.143-.014-.019-.139-.165c-.816-.93-2.013-1.518-3.348-1.518-1.328 0-2.52.58-3.335 1.501-.163.187-.306.377-.432.577-.131.206-.244.423-.34.648l-.002.004-.001.003-.001.002-.011.03-.01.023-.006.015-.004.009-.004.011-.013.034-.019.051-.023.063-.015.044-.002.004-.004.015-.028.084-.035.118-.057.224c-.016.07-.03.142-.043.215l-.006.033h-.001l-.005.034-.004.025-.004.031-.005.031v.002l-.002.015-.002.01-.001.011v.002l-.001.007-.004.029-.002.017c-.02.175-.031.352-.031.53l.006.24.02.24.007.066.002.014.003.025.001.008.002.013.002.015.005.036.001.008.02.116.005.033v-.004l.004.022.044.207c.02.085.043.17.068.252l.001.002.023.075.018.057v-.002l.02.058.016.044.008.022.013.036.005.012.013.033.014.036.014.033.005.013.006.015.012.028.015.034.005.011.007.016.043.093c.055.116.115.23.18.34l.013.023.006.011.002.002.015.026.003.005.009.014.004.007.023.035-.011-.016.035.055.051.078-.011-.018.03.044.037.054.011.016.012.017.013.017.024.033.028.037c.021.029.043.057.065.084l.137.163.137.15.088.09.09.086.026.024.147.128.001.001.023.019.192.15c.069.051.139.1.21.147h.001l.007.005.036.023.04.025.006.004.046.028-.034-.021.078.048.049.027.123.069c.057.03.114.059.172.087l.177.08.11.044.044.016-.043-.017.088.034-.037-.014.026.01.016.006.011.004-.007-.003.03.011.168.057c.063.02.126.038.19.054l.165.04-.01-.002.037.008-.026-.006.023.006.205.039.061.01-.043-.008.054.008.166.023-.025-.003.04.005-.007-.001.01.001.054.005.135.011.06.005.239.006.233-.006.064-.005.013-.001-.01.001h-.003l-.008.002.011-.002.015-.001h.006l.146-.012.094-.012-.021.003.038-.005-.018.002.14-.02.062-.01.021-.004.036-.005.044-.01-.022.004-.058.011-.018.003.076-.014.037-.007-.015.003z" transform="translate(-260 -674) translate(136 320) translate(0 340) translate(124 14)"/>
                    </g>
                </g>
            </g>
        </g>
    </g>
</svg>
