<svg id="Icon_24_Daily_Line_24" data-name="Icon/24/Daily_Line_24" xmlns="http://www.w3.org/2000/svg" width="24" height="25" viewBox="0 0 24 25">
  <defs>
    <style>
      .cls-1 {
        fill: none;
      }

      .cls-2 {
        fill: #fff;
      }
    </style>
  </defs>
  <g id="Icon_24_Daily_Line_24-2" data-name="Icon/24/Daily_Line_24">
    <rect id="guidebox" class="cls-1" width="24" height="24" transform="translate(0 0.4)"/>
    <g id="Group_7" data-name="Group 7" transform="translate(3 4)">
      <path id="Combined_Shape" data-name="Combined Shape" class="cls-2" d="M8.735,14.8H2.489A2.489,2.489,0,0,1,.005,12.474L0,12.31V2.489A2.489,2.489,0,0,1,2.326.005L2.489,0h9.823A2.49,2.49,0,0,1,14.8,2.325l0,.164V8.15A4.8,4.8,0,1,1,8.735,14.8ZM9.4,12.6A3.6,3.6,0,1,0,13,9,3.6,3.6,0,0,0,9.4,12.6ZM1.207,2.357,1.2,2.489V12.31a1.29,1.29,0,0,0,1.157,1.282l.132.006H8.3a4.8,4.8,0,0,1,5.3-5.763V2.489a1.288,1.288,0,0,0-1.157-1.282L12.311,1.2H8v3.65a.6.6,0,0,1-1.193.1l-.007-.1V1.2H2.489A1.289,1.289,0,0,0,1.207,2.357ZM12.92,13.16a.6.6,0,0,1-.592-.5l-.008-.1V10.452a.6.6,0,0,1,1.192-.1l.008.1v1.507h1.172a.6.6,0,0,1,.591.5l.008.1a.6.6,0,0,1-.5.592l-.1.008Z" transform="translate(0.8 0.8)"/>
    </g>
  </g>
</svg>
