<svg xmlns="http://www.w3.org/2000/svg" width="64" height="64" viewBox="0 0 64 64">
    <g fill="none" fill-rule="evenodd">
        <g>
            <g>
                <g>
                    <g>
                        <g>
                            <g>
                                <g stroke="#333" stroke-width="2">
                                    <g stroke-linecap="round">
                                        <path d="M34.304 0c2.21 0 4 1.79 4 4h0v24.76l-3.045 1.56.001-.293h-3.222l-3.797-2.713c-.945-.675-2.078-1.038-3.24-1.038H22.42c-.93 0-1.696.727-1.747 1.655l-.005.099c-.053.966.4 1.891 1.196 2.442l1.623 1.123-3.574-2.32c-1.065-.691-2.489-.388-3.18.677-.33.508-.446 1.125-.323 1.718l.635 3.065c.306 1.48 1.235 2.757 2.548 3.506l.101.056-.013.007h0H4c-2.21 0-4-1.79-4-4h0V4c0-2.21 1.79-4 4-4h0z" transform="translate(-861 -3807) translate(136 540) translate(100 3059) translate(400 186) translate(223 22) translate(2) translate(10 12)"/>
                                        <path stroke-linejoin="round" d="M19.152 0L19.152 10.415" transform="translate(-861 -3807) translate(136 540) translate(100 3059) translate(400 186) translate(223 22) translate(2) translate(10 12)"/>
                                    </g>
                                    <g stroke-linejoin="round">
                                        <g transform="translate(-861 -3807) translate(136 540) translate(100 3059) translate(400 186) translate(223 22) translate(2) translate(10 12) matrix(0 -1 -1 0 41.5 41.5)">
                                            <path d="M3.26 21.908L.971 17.893c-.467-.82-.625-1.78-.445-2.707l1.063-5.46c.034-.176.051-.354.051-.533V6.24h9.832v3.222l2.713 3.797c.675.945 1.038 2.078 1.038 3.24v2.582c0 .93-.727 1.696-1.655 1.747l-.099.005c-.966.053-1.891-.4-2.442-1.196l-1.123-1.623h0l2.32 3.574c.691 1.065.388 2.489-.677 3.18-.508.33-1.125.446-1.718.323l-3.065-.635c-1.48-.306-2.757-1.235-3.506-2.548z"/>
                                            <rect width="12.48" height="6.24" x=".189" y=".294" rx="1.321"/>
                                        </g>
                                    </g>
                                </g>
                            </g>
                        </g>
                    </g>
                </g>
            </g>
        </g>
    </g>
</svg>
