<svg xmlns="http://www.w3.org/2000/svg" width="56" height="56" viewBox="0 0 56 56">
    <g fill="none" fill-rule="evenodd">
        <g>
            <g>
                <g>
                    <g>
                        <g>
                            <g>
                                <path d="M0 0H56V56H0z" opacity=".2" transform="translate(-665 -1368) translate(0 304) translate(0 1055) translate(136 1) translate(390) translate(139 8)"/>
                                <g>
                                    <path stroke="#333" stroke-width="1.44" d="M11.149.16h25.853c.763 0 1.46.43 1.802 1.112l5.436 10.84h0l-5.43 10.48c-.346.668-1.036 1.088-1.79 1.088H11.15c-.758 0-1.452-.425-1.796-1.1L3.92 11.923h0L9.353 1.26C9.697.585 10.39.16 11.149.16z" transform="translate(-665 -1368) translate(0 304) translate(0 1055) translate(136 1) translate(390) translate(139 8) translate(4 16)"/>
                                    <path stroke="#333" stroke-width="1.44" d="M19.88 11.92h8.4v2.688c0 .742-.602 1.344-1.344 1.344h-5.712c-.742 0-1.344-.602-1.344-1.344V11.92h0z" transform="translate(-665 -1368) translate(0 304) translate(0 1055) translate(136 1) translate(390) translate(139 8) translate(4 16)"/>
                                    <path fill="#333" d="M1.31 11.17h45.54c.414 0 .75.336.75.75s-.336.75-.75.75H1.31c-.414 0-.75-.336-.75-.75s.336-.75.75-.75z" transform="translate(-665 -1368) translate(0 304) translate(0 1055) translate(136 1) translate(390) translate(139 8) translate(4 16)"/>
                                </g>
                            </g>
                        </g>
                    </g>
                </g>
            </g>
        </g>
    </g>
</svg>
