<svg xmlns="http://www.w3.org/2000/svg" width="72" height="72" viewBox="0 0 72 72">
    <g fill="none" fill-rule="evenodd">
        <g>
            <g>
                <g>
                    <g>
                        <g>
                            <g stroke="#333" stroke-linecap="round" stroke-width="2" transform="translate(-685 -774) translate(136 540) translate(100 214) translate(400) translate(49 20) translate(15 13)">
                                <g>
                                    <path d="M38.118 20.087V8.294c0-1.717-1.393-3.11-3.11-3.11H8.293c-1.717 0-3.11 1.393-3.11 3.11v34.947c0 1.717 1.393 3.11 3.11 3.11h18.683"/>
                                    <path d="M32.934 0H4C1.79 0 0 1.79 0 4v37.167h0M13.214 14.607L30.088 14.607M13.214 20.367L30.088 20.367M13.214 26.127L21.016 26.127"/>
                                </g>
                                <circle cx="36.5" cy="35.5" r="10.5" fill="#80C342"/>
                                <path stroke-linejoin="round" d="M32 35.19L34.983 38.381 41.657 32"/>
                            </g>
                        </g>
                    </g>
                </g>
            </g>
        </g>
    </g>
</svg>
