<svg xmlns="http://www.w3.org/2000/svg" width="56" height="56" viewBox="0 0 56 56">
    <g fill="none" fill-rule="evenodd">
        <g>
            <g>
                <g>
                    <g>
                        <g>
                            <path d="M0 0H56V56H0z" opacity=".2" transform="translate(-260 -1368) translate(0 304) translate(0 1055) translate(136 1) translate(124 8)"/>
                            <g stroke="#80C342" stroke-width="1.5">
                                <path d="M2.421.167H32.58c1.16 0 2.1.94 2.1 2.1 0 .099-.007.198-.021.297l-4.4 30.8c-.148 1.034-1.034 1.803-2.08 1.803H6.822c-1.045 0-1.93-.769-2.079-1.803l-4.4-30.8C.178 1.416.976.352 2.124.188c.099-.014.198-.021.297-.021z" transform="translate(-260 -1368) translate(0 304) translate(0 1055) translate(136 1) translate(124 8) translate(10.5 10.333)"/>
                                <path d="M18.433 13.292h3.442c2.416 0 4.375 1.958 4.375 4.375v4.375h0-4.375c-2.416 0-4.375-1.96-4.375-4.375v-3.442c0-.515.418-.933.933-.933z" transform="translate(-260 -1368) translate(0 304) translate(0 1055) translate(136 1) translate(124 8) translate(10.5 10.333) rotate(90 21.875 17.667)"/>
                                <path d="M9.683 13.292h3.442c2.416 0 4.375 1.958 4.375 4.375v4.375h0-4.375c-2.416 0-4.375-1.96-4.375-4.375v-3.442c0-.515.418-.933.933-.933z" transform="translate(-260 -1368) translate(0 304) translate(0 1055) translate(136 1) translate(124 8) translate(10.5 10.333) matrix(0 1 1 0 -4.542 4.542)"/>
                            </g>
                        </g>
                    </g>
                </g>
            </g>
        </g>
    </g>
</svg>
