<svg xmlns="http://www.w3.org/2000/svg" width="20" height="20" viewBox="0 0 20 20">
    <g fill="none" fill-rule="evenodd">
        <g>
            <g>
                <g>
                    <g>
                        <g>
                            <g>
                                <path d="M0 0H20V20H0z" transform="translate(-624 -3668) translate(136 3224) translate(0 56) translate(400) translate(8 380) translate(80 8)"/>
                                <g fill="#775541" fill-rule="nonzero">
                                    <path d="M7 .5c3.59 0 6.5 2.91 6.5 6.5 0 1.336-.405 2.611-1.143 3.683l-.199.271.524 1.914c.098.358-.212.683-.56.626l-.081-.02-2.07-.694-.063.035c-.805.403-1.687.635-2.602.678L7 13.5C3.41 13.5.5 10.59.5 7S3.41.5 7 .5zm0 1C3.962 1.5 1.5 3.962 1.5 7s2.462 5.5 5.5 5.5c.954 0 1.871-.243 2.684-.698.123-.07.27-.083.403-.038l1.382.463-.342-1.253c-.035-.126-.018-.26.043-.372l.055-.08C12.045 9.54 12.5 8.305 12.5 7c0-3.038-2.462-5.5-5.5-5.5zm2.04 6.3c.276 0 .5.224.5.5 0 .245-.177.45-.41.492l-.09.008H5.2c-.276 0-.5-.224-.5-.5 0-.245.177-.45.41-.492L5.2 7.8h3.84zm0-2.5c.276 0 .5.224.5.5 0 .245-.177.45-.41.492l-.09.008H5.2c-.276 0-.5-.224-.5-.5 0-.245.177-.45.41-.492L5.2 5.3h3.84z" transform="translate(-624 -3668) translate(136 3224) translate(0 56) translate(400) translate(8 380) translate(80 8) translate(3 3)"/>
                                </g>
                            </g>
                        </g>
                    </g>
                </g>
            </g>
        </g>
    </g>
</svg>
