<svg xmlns="http://www.w3.org/2000/svg" width="64" height="64" viewBox="0 0 64 64">
    <g fill="none" fill-rule="evenodd">
        <g>
            <g>
                <g>
                    <g>
                        <g>
                            <g>
                                <g>
                                    <g stroke="#333" stroke-width="2" transform="translate(-976 -3807) translate(136 540) translate(100 3059) translate(400 186) translate(223 22) translate(104) translate(13) translate(5.111 13.222)">
                                        <path stroke-linecap="round" stroke-linejoin="round" d="M32.987 13.485V5.45c0-3.01-2.44-5.45-5.45-5.45-3.01 0-5.45 2.44-5.45 5.45v8.035"/>
                                        <path d="M43.875 9.343c1.149 0 2.08.931 2.08 2.08 0 .083-.005.167-.015.25l-1.278 10.54c-.874-.283-1.806-.435-2.773-.435-4.97 0-9 4.03-9 9 0 1.54.387 2.99 1.069 4.258h-20.15c-1.052 0-1.938-.786-2.064-1.83l-2.61-21.533c-.139-1.14.674-2.177 1.814-2.315.083-.01.167-.015.25-.015h32.677z"/>
                                        <circle cx="41.889" cy="30.778" r="9" stroke-linecap="round"/>
                                        <path stroke-linecap="round" stroke-linejoin="round" d="M17.21 22.222L3.379 22.222M14.26 26.156L.428 26.156M41.889 26.889L41.889 30.778 46.222 30.778"/>
                                    </g>
                                </g>
                            </g>
                        </g>
                    </g>
                </g>
            </g>
        </g>
    </g>
</svg>
