<svg xmlns="http://www.w3.org/2000/svg" width="24" height="24" viewBox="0 0 24 24">
    <g fill="none" fill-rule="evenodd">
        <g>
            <g>
                <g>
                    <g>
                        <path d="M0 0H24V24H0z" transform="translate(-436 -727) translate(0 261) translate(256 458) translate(180 8)"/>
                        <g fill="#525252">
                            <path d="M6.74.6c1.816 0 3.58.722 4.853 2.007C12.756 3.783 13.5 5.432 13.5 7.422c0 3.127-1.776 6.415-5.328 9.863l-.417.399c-.57.534-1.458.534-2.027-.002C1.91 14.088 0 10.668 0 7.422c0-2.007.736-3.656 1.89-4.827C3.158 1.31 4.922.6 6.74.6zm.009 3.75c-.827 0-1.577.335-2.12.878-.544.545-.879 1.295-.879 2.122 0 .83.335 1.58.88 2.122.542.543 1.292.878 2.119.878.829 0 1.579-.335 2.121-.878.543-.543.88-1.293.88-2.122 0-.827-.337-1.577-.88-2.122-.542-.543-1.292-.878-2.121-.878z" transform="translate(-436 -727) translate(0 261) translate(256 458) translate(180 8) translate(5.25 3)"/>
                        </g>
                    </g>
                </g>
            </g>
        </g>
    </g>
</svg>
