<svg xmlns="http://www.w3.org/2000/svg" xmlns:xlink="http://www.w3.org/1999/xlink" width="56" height="56" viewBox="0 0 56 56">
    <defs>
        <path id="0zvx7udf4a" d="M18.953.595c7.776 0 14.3 5.367 16.066 12.6 1.664.69 2.834 2.33 2.834 4.243 0 1.983-1.257 3.673-3.017 4.316-2 6.884-8.354 11.916-15.883 11.916-7.65 0-14.085-5.193-15.975-12.245-1.382-.79-2.313-2.28-2.313-3.987 0-1.633.853-3.068 2.138-3.882C4.437 6.142 11.047.595 18.953.595z"/>
    </defs>
    <g fill="none" fill-rule="evenodd">
        <g>
            <g>
                <g>
                    <g>
                        <g>
                            <g>
                                <g>
                                    <g transform="translate(-1048 -1368) translate(0 304) translate(0 1055) translate(136 1) translate(780) translate(132 8) translate(8.75 10.625) translate(0 .368)">
                                        <mask id="bo6auewlxb" fill="#fff">
                                            <use xlink:href="#0zvx7udf4a"/>
                                        </mask>
                                        <use fill="#fff" stroke="#80c342" stroke-width="1.5" xlink:href="#0zvx7udf4a"/>
                                        <path stroke="#80c342" stroke-width="3.2" d="M19.751 2.34C21.317 4.237 22.2 5.791 22.2 7.044c0 .851-.279 1.561-.761 2.059-.504.52-1.211.797-1.959.797-.746 0-1.455-.333-1.975-.859-.418-.422-.716-.975-.805-1.601h0z" mask="url(#bo6auewlxb)"/>
                                        <path fill="#80c342" d="M16.121 8.039c.58 0 1.05-.47 1.05-1.05 0-.58-.47-1.05-1.05-1.05-.58 0-1.05.47-1.05 1.05 0 .58.47 1.05 1.05 1.05zM13.125 19.932c1.063 0 1.925-.862 1.925-1.925 0-1.063-.862-1.925-1.925-1.925-1.063 0-1.925.862-1.925 1.925 0 1.063.862 1.925 1.925 1.925z" mask="url(#bo6auewlxb)"/>
                                        <circle cx="25.375" cy="18.007" r="1.925" fill="#80c342" mask="url(#bo6auewlxb)"/>
                                    </g>
                                </g>
                            </g>
                        </g>
                    </g>
                </g>
            </g>
        </g>
    </g>
</svg>
