<svg xmlns="http://www.w3.org/2000/svg" xmlns:xlink="http://www.w3.org/1999/xlink" width="30" height="30" viewBox="0 0 30 30">
    <defs>
        <path id="4o8t4xv43a" d="M21.063 11.693c.273-.276.718-.278.994-.005.251.248.276.639.073.915l-.068.08-6.496 6.562c-.248.25-.639.275-.915.072l-.08-.067-6.628-6.563c-.276-.273-.278-.718-.005-.994.248-.251.639-.276.915-.073l.08.068 6.128 6.067 6.002-6.062z"/>
    </defs>
    <g fill="none" fill-rule="evenodd">
        <g>
            <g>
                <g>
                    <g transform="translate(-1128 -665) translate(0 260) translate(1004 400) matrix(-1 0 0 1 154 5)">
                        <use fill="#FFF" transform="matrix(0 -1 -1 0 30.469 30.469)" xlink:href="#4o8t4xv43a"/>
                    </g>
                </g>
            </g>
        </g>
    </g>
</svg>
