<svg xmlns="http://www.w3.org/2000/svg" width="400" height="400" viewBox="0 0 400 400">
    <defs>
        <style>
            .cls-1{fill:none}.cls-2{fill:#e0e0e0}.cls-4{fill:#f5f5f5}
        </style>
    </defs>
    <g id="Img_400_map_02" transform="translate(8 -13)">
        <g id="Img_400_map" transform="translate(1 10)">
            <path id="guide_box" d="M0 0H400V400H0z" class="cls-1" transform="translate(-9 3)"/>
            <g id="Img" transform="translate(-148.927 -154.649)">
                <g id="Bottom" transform="translate(144.956 167.512)">
                    <path id="패스_56" d="M400.632 414.152a1.65 1.65 0 0 0-1.7-1.6h-.194l-14.261 2.063a8.14 8.14 0 0 0-5.226 3l-25.379 31.912a1.223 1.223 0 0 0-.268.791v.138a.463.463 0 0 0 0 .137v.131a.464.464 0 0 0 0 .138v.275a.464.464 0 0 0 0 .138v.131a.464.464 0 0 0 0 .138v.275a.464.464 0 0 0 0 .138v.1a.464.464 0 0 0 0 .138v.55a.464.464 0 0 0 0 .138v.55a.464.464 0 0 0 0 .138v.55a.464.464 0 0 0 0 .138v.55a.464.464 0 0 0 0 .138v.55a.464.464 0 0 0 0 .138v.55a.464.464 0 0 0 0 .138v.55a.464.464 0 0 0 0 .138v.413a.464.464 0 0 0 0 .138v.543a.464.464 0 0 0 0 .138v.543a.464.464 0 0 0 0 .138v.543a.464.464 0 0 0 0 .138v.131a.463.463 0 0 0 0 .137v.275a.463.463 0 0 0 0 .137v7.415a.464.464 0 0 0 0 .138v.131a.463.463 0 0 0 0 .137v.275a.464.464 0 0 0 0 .138v.131a.464.464 0 0 0 0 .138v.275a.464.464 0 0 0 0 .138v.131a.464.464 0 0 0 0 .138v.275a.464.464 0 0 0 0 .138v.131a.464.464 0 0 0 0 .138v.275a.464.464 0 0 0 0 .138v.131a.464.464 0 0 0 0 .138 1.286 1.286 0 0 0 1.141 1.416h10.315a2.613 2.613 0 0 0 2.613-2.613v-2.75a6.188 6.188 0 0 1 4.126-5.838l16.743-5.927a7.334 7.334 0 0 0 4.126-3.692c1.98-4.029 5.721-11.689 7.742-15.815a1.552 1.552 0 0 0 .158-.914.46.46 0 0 0 0-.138.46.46 0 0 0 0-.138v-.275a.46.46 0 0 0 0-.138v-.131a.46.46 0 0 0 0-.138v-.275a.46.46 0 0 0 0-.138v-.131a.46.46 0 0 0 0-.138v-7.13a.46.46 0 0 0 0-.138v-.131a.46.46 0 0 0 0-.138v-.282a.46.46 0 0 0 0-.138v-.131a.459.459 0 0 0 0-.137v-.282a.46.46 0 0 0 0-.138v-.131a.459.459 0 0 0 0-.137v-.282a.46.46 0 0 0 0-.138v-.131a.459.459 0 0 0 0-.137v-.282a.46.46 0 0 0 0-.138v-.14a.46.46 0 0 0 0-.138v-.282a.46.46 0 0 0 0-.138v-.131a.46.46 0 0 0 0-.138v-.273a.46.46 0 0 0 0-.138v-.131a.46.46 0 0 0 0-.138v-.282a.46.46 0 0 0 0-.138v-.131a.46.46 0 0 0 0-.138.46.46 0 0 0 0-.138v-.144a.46.46 0 0 0 0-.138v-.131a.46.46 0 0 0 0-.138.46.46 0 0 0 0-.138v-.144a.46.46 0 0 0 0-.138v-.131a.46.46 0 0 0 0-.138.46.46 0 0 0 0-.138v-.138a.46.46 0 0 0 0-.138v-.131a.46.46 0 0 0 0-.138.46.46 0 0 0 0-.138v-.138a.46.46 0 0 0 0-.138v-.131a.46.46 0 0 0 0-.138.459.459 0 0 0 0-.137v-.138a.46.46 0 0 0 0-.138v-.131a.46.46 0 0 0 0-.138.46.46 0 0 0 0-.138v-.137a.46.46 0 0 0 0-.138v-.131a.46.46 0 0 0 0-.138.46.46 0 0 0 0-.138v-.138a.46.46 0 0 0 0-.138v-.131a.46.46 0 0 0 0-.138.459.459 0 0 0 0-.137v-.138a.46.46 0 0 0 0-.138v-.131a.46.46 0 0 0 0-.138.46.46 0 0 0 0-.138v-.137a.46.46 0 0 0 0-.138v-.118a.46.46 0 0 0 0-.138.46.46 0 0 0 0-.138v-.138a1.282 1.282 0 0 0 .064-.134z" class="cls-2" transform="translate(-204.629 -237.293)"/>
                    <path id="패스_57" d="M419.945 392.751a4.128 4.128 0 0 0-.261-1.32l-2.51-6.656a3.8 3.8 0 0 0-3.548-2.455H403.38a7.463 7.463 0 0 0-2.544.447l-10.568 3.816a3.714 3.714 0 0 0-2.448 3.486v17.589c0 1.093.351 10.768.99 11.648l2.269 3.108a4.214 4.214 0 0 0 4.016 1.692l20.7-2.977a4.435 4.435 0 0 0 3.672-3.349l.378-1.568c.1-.4.131-9.434.1-9.846v-.138a.459.459 0 0 1 0-.137v-.131a.46.46 0 0 1 0-.138v-.275a.46.46 0 0 1 0-.138v-.131a.46.46 0 0 1 0-.138v-.275a.46.46 0 0 1 0-.138v-.127a.46.46 0 0 1 0-.138v-.275a.46.46 0 0 1 0-.138v-.131a.46.46 0 0 1 0-.138v-.28a.46.46 0 0 1 0-.138v-.131a.46.46 0 0 1 0-.138v-.275a.46.46 0 0 1 0-.138v-.131a.46.46 0 0 1 0-.138v-.275a.46.46 0 0 1 0-.138v-.131a.46.46 0 0 1 0-.138v-.275a.46.46 0 0 1 0-.138v-.131a.46.46 0 0 1 0-.138v-.275a.46.46 0 0 1 0-.138v-.131a.46.46 0 0 1 0-.138v-.265a.46.46 0 0 1 0-.138v-.131a.46.46 0 0 1 0-.138.46.46 0 0 1 0-.138v-.138a.46.46 0 0 1 0-.138.46.46 0 0 1 0-.138v-.131a.46.46 0 0 1 0-.138v-.272a.46.46 0 0 1 0-.138v-.131a.46.46 0 0 1 0-.138v-.282a.46.46 0 0 1 0-.138v-.131a.459.459 0 0 1 0-.137v-.282a.46.46 0 0 1 0-.138v-.131a.46.46 0 0 1 0-.138v-.282a.46.46 0 0 1 0-.138v-.131a.46.46 0 0 1 0-.138v-.282a.46.46 0 0 1 0-.138v-.131a.46.46 0 0 1 0-.138v-.275a.46.46 0 0 1 0-.138v-.125a.46.46 0 0 1 0-.138v-.275a.46.46 0 0 1 0-.138v-.131a.46.46 0 0 1 0-.138v-.275a.46.46 0 0 1 0-.138v-.131a.46.46 0 0 1 0-.138v-.275a.46.46 0 0 1 0-.138v-.241z" class="cls-2" transform="translate(-214.692 -229.009)"/>
                    <path id="패스_58" d="M520.424 379.929a4.715 4.715 0 0 0 0 .626 4.714 4.714 0 0 0 0 .626 4.715 4.715 0 0 0 0 .626 4.715 4.715 0 0 0 0 .626 4.714 4.714 0 0 0 0 .626 4.715 4.715 0 0 0 0 .626 4.715 4.715 0 0 0 0 .626 4.714 4.714 0 0 0 0 .626 4.716 4.716 0 0 0 0 .626 4.612 4.612 0 0 0 0 .619 4.714 4.714 0 0 0 0 .626 4.715 4.715 0 0 0 0 .626 4.714 4.714 0 0 0 0 .626 4.715 4.715 0 0 0 0 .626 4.715 4.715 0 0 0 0 .626 4.715 4.715 0 0 0 0 .626 4.715 4.715 0 0 0 0 .626 4.714 4.714 0 0 0 0 .626 4.715 4.715 0 0 0 0 .626v11.318a2.338 2.338 0 0 0-.474.653l4.242.413 9.97-11.689L524.88 377l-4.373.578a3.666 3.666 0 0 0-.1.825v.282a4.653 4.653 0 0 0 0 .619 4.739 4.739 0 0 0 .017.625z" class="cls-2" transform="translate(-253.095 -227.721)"/>
                    <path id="패스_59" d="M606.664 553.856a1.863 1.863 0 0 0-1.231-1.877l-3.513-1.279a3.1 3.1 0 0 1-.413-.172 8.616 8.616 0 0 0 .158-1.327v-13.615a8.849 8.849 0 0 0-2.022-6.188l-8.506-10.211a8.7 8.7 0 0 0-3.19-2.42L562.2 505.27a13.016 13.016 0 0 1-7.708-11.882v-13.752a5.7 5.7 0 0 0-5.7-5.7h-11.857v5.57h-23.956v-30.942h14.852a3.273 3.273 0 0 0-1.912-2.331l-8.939-3.857a12.776 12.776 0 0 0-13.511 2.125l-5.157 4.518a4.125 4.125 0 0 1-5.556-.144l-1.808-1.753a8.808 8.808 0 0 0-7.708-2.345l-21.879 3.323a19.938 19.938 0 0 1-11.944-1.52l-29-13.436a2.434 2.434 0 0 0-3.231 1.187l-.008.016a.4.4 0 0 1-.034.083l-1.6 3.864a2.421 2.421 0 0 0-.179 1.1v13.615a2.461 2.461 0 0 0 .784 1.753l20.841 18.613v4.71l-1.2 7.481a5.661 5.661 0 0 0-.069.763v.275a.464.464 0 0 1 0 .138v.131a.464.464 0 0 1 0 .138v.275a.464.464 0 0 1 0 .138v.131a.464.464 0 0 1 0 .138v.275a.464.464 0 0 1 0 .138v.131a.464.464 0 0 1 0 .138v.275a.464.464 0 0 1 0 .138v.131a.464.464 0 0 1 0 .138v.275a.464.464 0 0 1 0 .138v.131a.464.464 0 0 1 0 .138v.275a.464.464 0 0 1 0 .138v.131a.464.464 0 0 1 0 .138v.275a.464.464 0 0 1 0 .138v.131a.464.464 0 0 1 0 .138v.275a.464.464 0 0 1 0 .138v.131a.464.464 0 0 1 0 .138v.275a.464.464 0 0 1 0 .138v.131a.464.464 0 0 1 0 .138v.275a.464.464 0 0 1 0 .138v.12a.464.464 0 0 1 0 .138v.275a.463.463 0 0 1 0 .137v.131a.464.464 0 0 1 0 .138v.275a.464.464 0 0 1 0 .138v.131a.463.463 0 0 1 0 .137v.275a.464.464 0 0 1 0 .138v.131a.464.464 0 0 1 0 .138v.275a.464.464 0 0 1 0 .138v.131a.464.464 0 0 1 0 .138v.275a.464.464 0 0 1 0 .138v.131a.464.464 0 0 1 0 .138v.275a.464.464 0 0 1 0 .138v.131a.464.464 0 0 1 0 .138v.275a.463.463 0 0 1 0 .137v.131a.464.464 0 0 1 0 .138v.543a.464.464 0 0 1 0 .138v.543a.463.463 0 0 1 0 .137v.413a.464.464 0 0 1 0 .138v.131a5.87 5.87 0 0 0 1.375 4.091l4.208 4.978a4.122 4.122 0 0 0 3.074 1.444l18.256.2c3.349.041 7.708 3.239 7.708 3.239v8.134l-11.689 11.689a7.69 7.69 0 0 1-5.5 2.29h-.908a2.517 2.517 0 0 0-2.51 2.4v.131a.461.461 0 0 1 0 .137v.138a.462.462 0 0 1 0 .138.462.462 0 0 1 0 .138v.131a.462.462 0 0 1 0 .138v.138a.462.462 0 0 1 0 .138.462.462 0 0 1 0 .138v.131a.462.462 0 0 1 0 .138v.138a.466.466 0 0 1 0 .138.462.462 0 0 1 0 .138v.131a.462.462 0 0 1 0 .138v.138a.462.462 0 0 1 0 .138.462.462 0 0 1 0 .138v.131a.462.462 0 0 1 0 .138v.138a.462.462 0 0 1 0 .138.462.462 0 0 1 0 .138v.131a.462.462 0 0 1 0 .138v.138a.462.462 0 0 1 0 .138.462.462 0 0 1 0 .138v.131a.462.462 0 0 1 0 .138v.137a.462.462 0 0 1 0 .138.462.462 0 0 1 0 .138v.131a.462.462 0 0 1 0 .138v.138a.461.461 0 0 1 0 .137.462.462 0 0 1 0 .138v.131a.462.462 0 0 1 0 .138v.138a.462.462 0 0 1 0 .138.461.461 0 0 1 0 .137v.131a.462.462 0 0 1 0 .138.462.462 0 0 1 0 .138v.138a.462.462 0 0 1 0 .138v.131a.461.461 0 0 1 0 .137.462.462 0 0 1 0 .138v.138a.462.462 0 0 1 0 .138v.131a.461.461 0 0 1 0 .137.462.462 0 0 1 0 .138v.138a.462.462 0 0 1 0 .138v.131a.462.462 0 0 1 0 .138.461.461 0 0 1 0 .137v.138a.462.462 0 0 1 0 .138v.131a.462.462 0 0 1 0 .138.462.462 0 0 1 0 .138v.137a.462.462 0 0 1 0 .138v.131a.462.462 0 0 1 0 .138.462.462 0 0 1 0 .138v.138a.461.461 0 0 1 0 .137.462.462 0 0 1 0 .138v.131a.462.462 0 0 1 0 .138v.138a.462.462 0 0 1 0 .138.462.462 0 0 1 0 .138v.131a.462.462 0 0 1 0 .138v.138a.462.462 0 0 1 0 .138.462.462 0 0 1 0 .138v.131a.462.462 0 0 1 0 .138v.138a.462.462 0 0 1 0 .138.462.462 0 0 1 0 .138v.131a.461.461 0 0 1 0 .137v.138a.462.462 0 0 1 0 .138.462.462 0 0 1 0 .138v.131a.462.462 0 0 1 0 .138v.138a.462.462 0 0 1 0 .138 2.517 2.517 0 0 0 0 .557l2.427 20.38a2.214 2.214 0 0 0 1.925 1.932l32.613 4.016a6.269 6.269 0 0 0 5.9-2.627c1.712-2.448 4.077-5.831 5.7-8.162a6.959 6.959 0 0 1 5.411-2.957l1.85-.083a16.005 16.005 0 0 0 9.792-3.878l1.011-.88a6.19 6.19 0 0 0 2.132-4.978v-.543a.464.464 0 0 1 0-.138v-.413a.464.464 0 0 1 0-.138v-.543a.464.464 0 0 1 0-.138v-.543a.464.464 0 0 1 0-.138v-.543a.464.464 0 0 1 0-.138v-.145a.464.464 0 0 1 0-.138v-.275a.464.464 0 0 1 0-.138v-.138a.464.464 0 0 1 0-.138v-.275a.464.464 0 0 1 0-.138v-.138a.464.464 0 0 1 0-.138v-.275a.464.464 0 0 1 0-.138v-.131a.464.464 0 0 1 0-.138v-.275a.463.463 0 0 1 0-.137v-.131a.464.464 0 0 1 0-.138v-.275a.464.464 0 0 1 0-.138v-.131a.464.464 0 0 1 0-.138v-.306a.464.464 0 0 1 0-.138v-.131a.464.464 0 0 1 0-.138v-.138a.262.262 0 0 1 0-.1l.089-.048 3.864-1.795a2.751 2.751 0 0 1 3.369.818l16.991 20.855c.144.186.3.364.461.536a11.944 11.944 0 0 0 10.74 3.6l23.64-3.734a12.437 12.437 0 0 1 8.664 1.822l9.888 6.367a5.191 5.191 0 0 0 7.2-1.443 4.355 4.355 0 0 0 .248-.433l2.867-5.618a1.834 1.834 0 0 0 .2-.873v-13.653z" class="cls-2" transform="translate(-216.742 -238.045)"/>
                    <path id="패스_60" fill="#b4d887" d="M491.817 397.485a3.953 3.953 0 0 0-.179-1.416l-4.394-13.58a4.813 4.813 0 0 0-4.579-3.328h-14.44a9.515 9.515 0 0 0-2.29.282l-10.953 2.7a8.558 8.558 0 0 0-4.016 2.262l-5.226 5.24a5.809 5.809 0 0 1-3.44 1.655l-4.181.5a3.741 3.741 0 0 0-3.119 2.577l-.873 2.75a5.137 5.137 0 0 1-3.287 3.328 4.687 4.687 0 0 0-2.805 2.558l-2.833 6.422a2.6 2.6 0 0 0-.213 1.073v13.614a2.564 2.564 0 0 0 1.478 2.441l29.5 13.752a10.152 10.152 0 0 0 6.188.784l4.614-.859a11.786 11.786 0 0 0 5.549-2.7l13.565-11.84a2.9 2.9 0 0 0 .99-2.125l2.063-5.556.688-3.541a3.83 3.83 0 0 0 2.193-3.376.415.415 0 0 0 0-.131.46.46 0 0 0 0-.138.46.46 0 0 0 0-.138.46.46 0 0 0 0-.138.46.46 0 0 0 0-.138.415.415 0 0 0 0-.131.46.46 0 0 0 0-.138.46.46 0 0 0 0-.138.46.46 0 0 0 0-.138.46.46 0 0 0 0-.138.415.415 0 0 0 0-.131.46.46 0 0 0 0-.138.46.46 0 0 0 0-.138.46.46 0 0 0 0-.138.46.46 0 0 0 0-.138.415.415 0 0 0 0-.131.46.46 0 0 0 0-.138.46.46 0 0 0 0-.138.46.46 0 0 0 0-.138.46.46 0 0 0 0-.138.415.415 0 0 0 0-.131.459.459 0 0 0 0-.137.46.46 0 0 0 0-.138.46.46 0 0 0 0-.138.459.459 0 0 0 0-.137.46.46 0 0 0 0-.138.415.415 0 0 0 0-.131.46.46 0 0 0 0-.138.46.46 0 0 0 0-.138.459.459 0 0 0 0-.137.46.46 0 0 0 0-.138.415.415 0 0 0 0-.131.46.46 0 0 0 0-.138.46.46 0 0 0 0-.138.46.46 0 0 0 0-.138.46.46 0 0 0 0-.138.415.415 0 0 0 0-.131.46.46 0 0 0 0-.138.46.46 0 0 0 0-.138.46.46 0 0 0 0-.138.46.46 0 0 0 0-.138.415.415 0 0 0 0-.131.459.459 0 0 0 0-.137.46.46 0 0 0 0-.138.46.46 0 0 0 0-.138.46.46 0 0 0 0-.138.415.415 0 0 0 0-.131.46.46 0 0 0 0-.138.459.459 0 0 0 0-.137.46.46 0 0 0 0-.138.464.464 0 0 0 0-.138.415.415 0 0 0 0-.131.46.46 0 0 0 0-.138.46.46 0 0 0 0-.138.46.46 0 0 0 0-.138.46.46 0 0 0 0-.138.415.415 0 0 0 0-.131.46.46 0 0 0 0-.138.46.46 0 0 0 0-.138.459.459 0 0 0 0-.137.46.46 0 0 0 0-.138.415.415 0 0 0 0-.131.46.46 0 0 0 0-.138.46.46 0 0 0 0-.138.459.459 0 0 0 0-.137.46.46 0 0 0 0-.138.415.415 0 0 0 0-.131.46.46 0 0 0 0-.138.46.46 0 0 0 0-.138.46.46 0 0 0 0-.138.459.459 0 0 0 0-.137.415.415 0 0 0 0-.131.46.46 0 0 0 0-.138.46.46 0 0 0 0-.138.46.46 0 0 0 0-.138.46.46 0 0 0 0-.138.415.415 0 0 0 0-.131.46.46 0 0 0 0-.138.46.46 0 0 0 0-.138.46.46 0 0 0 0-.138.46.46 0 0 0 0-.138.415.415 0 0 0 0-.131.46.46 0 0 0 0-.138.459.459 0 0 0 0-.137.46.46 0 0 0 0-.138.46.46 0 0 0 0-.138.415.415 0 0 0 0-.131.46.46 0 0 0 0-.138.459.459 0 0 0 0-.137.46.46 0 0 0 0-.138.46.46 0 0 0 0-.138.415.415 0 0 0 0-.131.46.46 0 0 0 0-.138.46.46 0 0 0 0-.138.46.46 0 0 0 0-.138.46.46 0 0 0 0-.138.415.415 0 0 0 0-.131.46.46 0 0 0 0-.138.46.46 0 0 0 0-.138z" transform="translate(-224.571 -227.738)"/>
                    <path id="패스_61" d="M625.833 422.6a4.736 4.736 0 0 0 0-.626 4.736 4.736 0 0 0 0-.626 4.632 4.632 0 0 0 0-.619 4.736 4.736 0 0 0 0-.626 4.736 4.736 0 0 0 0-.626 4.736 4.736 0 0 0 0-.626 4.736 4.736 0 0 0 0-.626 4.736 4.736 0 0 0 0-.626 4.736 4.736 0 0 0 0-.626 4.736 4.736 0 0 0 0-.626 4.736 4.736 0 0 0 0-.626 4.736 4.736 0 0 0 0-.626 4.736 4.736 0 0 0 0-.626 4.633 4.633 0 0 0 0-.619 4.736 4.736 0 0 0 0-.626 4.736 4.736 0 0 0 0-.626 4.736 4.736 0 0 0 0-.626 4.736 4.736 0 0 0 0-.626 4.736 4.736 0 0 0 0-.626 3.707 3.707 0 0 0 0-.688 3.437 3.437 0 0 0-.97-2.75l-4.524-4.524a5.982 5.982 0 0 0-6.663-1.231 5.42 5.42 0 0 1-6.051-1.114l-15.815-15.805v-.408a4.632 4.632 0 0 0 0-.619 4.736 4.736 0 0 0 0-.626 4.736 4.736 0 0 0 0-.626 4.736 4.736 0 0 0 0-.626 4.736 4.736 0 0 0 0-.626 4.736 4.736 0 0 0 0-.626 4.736 4.736 0 0 0 0-.626 4.736 4.736 0 0 0 0-.626 4.736 4.736 0 0 0 0-.626 4.735 4.735 0 0 0 0-.626 4.736 4.736 0 0 0 0-.626 4.632 4.632 0 0 0 0-.619 4.736 4.736 0 0 0 0-.626 4.736 4.736 0 0 0 0-.626 4.736 4.736 0 0 0 0-.626 4.736 4.736 0 0 0 0-.626 4.736 4.736 0 0 0 0-.626 11.613 11.613 0 0 0-.158-2.248l-4.084-14.811a5.927 5.927 0 0 0-5.721-4.359H568.7a8.1 8.1 0 0 0-5.934 2.592l-1.114 1.2a5.356 5.356 0 0 1-5.769 1.375l-1.066-.392a5.087 5.087 0 0 0-5.363 1.183l-6.34 6.34a7.956 7.956 0 0 1-5.625 2.331h-17.464a3.844 3.844 0 0 0-3.747 3.019l4.373-.578 9.283 15.471-9.97 11.689-4.242-.413a2.12 2.12 0 0 0-.213 1.258 1.908 1.908 0 0 0 0 .626 1.909 1.909 0 0 0 0 .626 1.909 1.909 0 0 0 0 .626 1.908 1.908 0 0 0 0 .626 1.908 1.908 0 0 0 0 .626 1.867 1.867 0 0 0 0 .619 1.908 1.908 0 0 0 0 .626 1.909 1.909 0 0 0 0 .626 1.909 1.909 0 0 0 0 .626 1.909 1.909 0 0 0 0 .626 1.908 1.908 0 0 0 0 .626 1.908 1.908 0 0 0 0 .626 1.47 1.47 0 0 0 0 .248l-8.76 8.189a1.011 1.011 0 0 0-.282 1.08 1.078 1.078 0 0 0 0 .626 1.054 1.054 0 0 0 0 .619 1.078 1.078 0 0 0 0 .626 1.078 1.078 0 0 0 0 .626 1.078 1.078 0 0 0 0 .626 1.078 1.078 0 0 0 0 .626 1.078 1.078 0 0 0 0 .626 1.078 1.078 0 0 0 0 .626 1.078 1.078 0 0 0 0 .626 1.078 1.078 0 0 0 0 .626 1.078 1.078 0 0 0 0 .626 1.078 1.078 0 0 0 0 .626 1.054 1.054 0 0 0 0 .619 1.078 1.078 0 0 0 0 .626 1.078 1.078 0 0 0 0 .626 1.078 1.078 0 0 0 0 .626 1.078 1.078 0 0 0 0 .626 1.078 1.078 0 0 0 0 .626 1.078 1.078 0 0 0 0 .626 1.078 1.078 0 0 0 0 .626 1.078 1.078 0 0 0 0 .626 1.052 1.052 0 0 0 .67 1.328l.017.005a1.094 1.094 0 0 0 .516.041l4.242-.688a7.089 7.089 0 0 1 4.545.736l7.385 3.961a1.217 1.217 0 0 0 1.623 0l4.518-4.126a15.994 15.994 0 0 1 16.97-2.331l8.251 3.754-5.755 22.2 10.52-.055v.468a1.8 1.8 0 0 0 0 .385v.241a1.8 1.8 0 0 0 0 .385v.241a1.8 1.8 0 0 0 0 .385v.241a1.8 1.8 0 0 0 0 .385v.248a1.8 1.8 0 0 0 0 .385v.241a1.8 1.8 0 0 0 0 .385v.241a1.8 1.8 0 0 0 1.678 1.912h20.326a12.092 12.092 0 0 0 7.763-2.826l34.944-29.381a3.439 3.439 0 0 0 1.19-2.915 4.744 4.744 0 0 0-.037-.629z" class="cls-2" transform="translate(-245.186 -219.189)"/>
                    <path id="패스_62" d="M376.024 515.863h-17.486a5.294 5.294 0 0 1-3.761-1.561l-5.136-5.13a5.323 5.323 0 0 0-3.761-1.561h-44.007a11.641 11.641 0 0 1-10.534-6.7l-6.639-14.168a4.767 4.767 0 0 0-1.554-1.85l-4.126-2.9a3.907 3.907 0 0 0-3.651-.433l-27.318 10.685a5.309 5.309 0 0 1-4.579-.33l-11.153-6.34a1.993 1.993 0 0 0-2.187.124l-7.907 5.8a2.476 2.476 0 0 0-1.011 1.994.46.46 0 0 0 0 .138v.275a.46.46 0 0 0 0 .138v.117a.46.46 0 0 0 0 .138v.275a.46.46 0 0 0 0 .138v.138a.46.46 0 0 0 0 .138v.275a.46.46 0 0 0 0 .138v.138a.46.46 0 0 0 0 .138v.275a.459.459 0 0 0 0 .137v.138a.46.46 0 0 0 0 .138v.275a.46.46 0 0 0 0 .138v.138a.46.46 0 0 0 0 .138v.275a.46.46 0 0 0 0 .138v.138a.46.46 0 0 0 0 .138v.275a.46.46 0 0 0 0 .138v.138a.46.46 0 0 0 0 .138v.275a.46.46 0 0 0 0 .138v.138a.46.46 0 0 0 0 .138v.275a.459.459 0 0 0 0 .137.46.46 0 0 0 0 .138v.131a.46.46 0 0 0 0 .138v.138a.46.46 0 0 0 0 .138.459.459 0 0 0 0 .137v.131a.46.46 0 0 0 0 .138v.193a5.279 5.279 0 0 1-2.063 1.884l-.777.385a5.334 5.334 0 0 1-4.621.027l-24.506-11.235a13.752 13.752 0 0 0-12.177.358l-10.376 5.5a17.274 17.274 0 0 0-7.949 8.953l-13.411 34.053a5.452 5.452 0 0 0-.364 2.015v13.615a5.4 5.4 0 0 0 .358 2.008l5.288 13.587a7.027 7.027 0 0 0 11.112 2.8l19.844-16.942a5.312 5.312 0 0 1 1.85-1.025l20.91-6.6a5.321 5.321 0 0 1 6.285 2.537l1.458 2.688-3.438 2.448a5.343 5.343 0 0 1-5.886.234l-2.448-1.471a7.708 7.708 0 0 0-9.131.88l-5.556 5a5.317 5.317 0 0 0-1.753 4.2v.131a.462.462 0 0 0 0 .138v.275a.462.462 0 0 0 0 .138v.131a.462.462 0 0 0 0 .138v.275a.462.462 0 0 0 0 .138v.131a.462.462 0 0 0 0 .138v.275a.462.462 0 0 0 0 .138v.131a.462.462 0 0 0 0 .138v.275a.461.461 0 0 0 0 .137v.131a.462.462 0 0 0 0 .138v.275a.462.462 0 0 0 0 .138v.131a.462.462 0 0 0 0 .138v.275a.462.462 0 0 0 0 .138v.131a.462.462 0 0 0 0 .138v.275a.462.462 0 0 0 0 .138v.131a.462.462 0 0 0 0 .138v.275a.462.462 0 0 0 0 .138v.131a.462.462 0 0 0 0 .138v.275a.462.462 0 0 0 0 .138v.131a.462.462 0 0 0 0 .138v.275a.462.462 0 0 0 0 .138v.131a.462.462 0 0 0 0 .138v.275a.461.461 0 0 0 0 .137v.131a.462.462 0 0 0 0 .138v.275a.462.462 0 0 0 0 .138v.131a.461.461 0 0 0 0 .137v.275a.462.462 0 0 0 0 .138v.131a.462.462 0 0 0 0 .138v.275a.462.462 0 0 0 0 .138v.131a.462.462 0 0 0 0 .138v.275a.462.462 0 0 0 0 .138v.131a.462.462 0 0 0 0 .138v.275a.462.462 0 0 0 0 .138v.131a.462.462 0 0 0 0 .138v.275a.462.462 0 0 0 0 .138v.131a.462.462 0 0 0 0 .138v.276a.462.462 0 0 0 0 .138v.131a.462.462 0 0 0 0 .138v.406l-14.577 24.479a5.307 5.307 0 0 0-.749 2.633v.275a.462.462 0 0 1 0 .138v.131a.462.462 0 0 1 0 .138v.275a.462.462 0 0 1 0 .138v.131a.462.462 0 0 1 0 .138v.275a.462.462 0 0 1 0 .138v.131a.462.462 0 0 1 0 .138v.275a.462.462 0 0 1 0 .138v.131a.462.462 0 0 1 0 .138v.275a.461.461 0 0 1 0 .137v.131a.462.462 0 0 1 0 .138v.275a.462.462 0 0 1 0 .138v.131a.461.461 0 0 1 0 .137v.275a.462.462 0 0 1 0 .138v.131a.462.462 0 0 1 0 .138v.275a.462.462 0 0 1 0 .138v.131a.462.462 0 0 1 0 .138v.275a.462.462 0 0 1 0 .138v.131a.462.462 0 0 1 0 .138v.275a.462.462 0 0 1 0 .138v.131a.462.462 0 0 1 0 .138v.275a.462.462 0 0 1 0 .138v.131a.462.462 0 0 1 0 .138v.275a.462.462 0 0 1 0 .138v.131a.462.462 0 0 1 0 .138v.275a.462.462 0 0 1 0 .138v.131a.462.462 0 0 1 0 .138v.543a.462.462 0 0 1 0 .138v.413a.462.462 0 0 1 0 .138v.543a.462.462 0 0 1 0 .138v.131a.462.462 0 0 1 0 .138v.275a.462.462 0 0 1 0 .138v.131a.462.462 0 0 1 0 .138v.275a.461.461 0 0 1 0 .137V619a.462.462 0 0 1 0 .138v.275a.461.461 0 0 1 0 .137v.131a.462.462 0 0 1 0 .138v.275a.462.462 0 0 1 0 .138v.131a5.341 5.341 0 0 0 2.6 4.813 58.657 58.657 0 0 0 30.034 8.251h12.579a5.306 5.306 0 0 0 3.9-1.7l21.694-23.378a22.694 22.694 0 0 1 16.612-7.247h36.869a9.406 9.406 0 0 0 9.255-7.66l3.493-18.352a5.322 5.322 0 0 1 3.273-3.927l8.416-3.369a5.336 5.336 0 0 0 3.349-5.1v-13.613a5.354 5.354 0 0 0-.88-2.915l-2.455-3.582 4.5-5.906a5.323 5.323 0 0 1 3.761-1.561H336.7a5.914 5.914 0 0 1 5.906 5.906v1.636a4.766 4.766 0 0 0 1.678 3.631l15.368 13.11c.963.818 4.353 1.478 5.611 1.478v-7.22c1.375 0 5.5 6.457 6.477 5.46l12.583-12.583a5.322 5.322 0 0 0 1.561-3.761v-17.058a9.86 9.86 0 0 0-9.86-9.853z" class="cls-2" transform="translate(-144.969 -253.155)"/>
                    <path id="패스_63" d="M415.633 499.777v-8.306l1.272-8.382v-10.871a1.444 1.444 0 0 0-.474-1.2l-23.1-20.559a5.919 5.919 0 0 0-5.955-1.155l-14.515 5.185a3.59 3.59 0 0 0-2.379 3.383v3.528a4.32 4.32 0 0 1-1.272 3.053l-.894.9a4.327 4.327 0 0 1-3.06 1.265h-10.675a2.475 2.475 0 0 0-2.173 1.3l-1.114 2.063a2.651 2.651 0 0 0-.3 1.258v13.621a2.537 2.537 0 0 0 .268 1.251l8.8 17.5a5.665 5.665 0 0 0 5.061 3.115h41.992a3.969 3.969 0 0 0 4.05-3l4.628 3z" class="cls-2" transform="translate(-203.555 -247.706)"/>
                    <path id="패스_64" d="M401.517 578.358a4.128 4.128 0 0 1 .529 1.547v5.081a4 4 0 0 0 .385 1.712l1.148 2.414a8.114 8.114 0 0 0 7.316 4.607h16.5a3.982 3.982 0 0 0 2.929-1.279l4.9-4.813a3.99 3.99 0 0 0 1.052-2.661v-13.615h.048a4.009 4.009 0 0 0-1.375-3.191l-16.035-14.309a13.49 13.49 0 0 1-1.375-2.682l-1.059-3.039c0-2.881-.853-3.651-3.974-3.651h-6.876a3.983 3.983 0 0 0-2.819 1.169l-6.106 6.106a3.98 3.98 0 0 0-1.155 3.08v.138a.459.459 0 0 0 0 .137v.543a.46.46 0 0 0 0 .138v.131a.46.46 0 0 0 0 .138v.275a.46.46 0 0 0 0 .138v.131a.46.46 0 0 0 0 .138v.275a.46.46 0 0 0 0 .138v.131a.46.46 0 0 0 0 .138v.275a.46.46 0 0 0 0 .138v.131a.459.459 0 0 0 0 .137v.275a.46.46 0 0 0 0 .138v.131a.46.46 0 0 0 0 .138v.275a.46.46 0 0 0 0 .138v.131a.46.46 0 0 0 0 .138v.275a.46.46 0 0 0 0 .138v.131a.46.46 0 0 0 0 .138v.275a.46.46 0 0 0 0 .138v.131a.46.46 0 0 0 0 .138v.275a.459.459 0 0 0 0 .137v.1a.459.459 0 0 0 0 .137v.275a.46.46 0 0 0 0 .138v.138a.459.459 0 0 0 0 .137v.138l2.455 3.582a5.354 5.354 0 0 1 .88 2.915v5.673z" class="cls-2" transform="translate(-216.748 -275.205)"/>
                    <path id="패스_65" d="M352.793 433.69a2.857 2.857 0 0 0-.488-1.726l-1.6-2.352A4.5 4.5 0 0 0 347 427.66h-1.918a6.743 6.743 0 0 0-4.187 1.451l-27.085 21.316a1.7 1.7 0 0 0-.646 1.327v13.744a1.7 1.7 0 0 0 1.691 1.7H335l.536 11a4.5 4.5 0 0 0 3.521-1.7l.943-12.161 12.177-15.23a2.861 2.861 0 0 0 .612-1.753V433.69z" class="cls-2" transform="translate(-193.163 -241.803)"/>
                    <path id="패스_66" d="M370.052 405.858a1.884 1.884 0 0 0-.564-1.375l-3.527-3.438a3.865 3.865 0 0 1-1.155-2.75v-3.631a1.671 1.671 0 0 0-1.671-1.671h-6.67a1.183 1.183 0 0 1-1.19-1.176v-1.571a1.829 1.829 0 0 0-1.822-1.829h-.921a2.751 2.751 0 0 0-1.85.722l-13.635 12.466a4.332 4.332 0 0 1-2.936 1.141h-3.576a2.187 2.187 0 0 0-2.187 2.187 1.117 1.117 0 0 0 0 .151v13.621a2.4 2.4 0 0 0 .089.626l2.8 9.014a5.554 5.554 0 0 0 1.2 2.1l2.132 2.352a1.63 1.63 0 0 0 2.2.2l8.251-6.367a4.051 4.051 0 0 1 2.462-.839h6.628a3.184 3.184 0 0 1 2.62 1.375l2.132 3.163a1.616 1.616 0 0 0 2.244.429 1.69 1.69 0 0 0 .33-.3l8.155-9.675a1.852 1.852 0 0 0 .44-1.375.462.462 0 0 0 0-.138V419a.462.462 0 0 0 0-.138v-.131a.462.462 0 0 0 0-.138v-.275a.462.462 0 0 0 0-.138v-.131a.462.462 0 0 0 0-.138v-.275a.462.462 0 0 0 0-.138v-.131a.462.462 0 0 0 0-.138v-.275a.462.462 0 0 0 0-.138v-.131a.462.462 0 0 0 0-.138v-.234a.462.462 0 0 0 0-.138v-.131a.461.461 0 0 0 0-.137v-.282a.462.462 0 0 0 0-.138v-.131a.462.462 0 0 0 0-.138v-.543a.462.462 0 0 0 0-.138v-.543a.462.462 0 0 0 0-.138v-.543a.462.462 0 0 0 0-.138v-.413a.462.462 0 0 0 0-.138v-.131a.462.462 0 0 0 0-.138v-.275a.462.462 0 0 0 0-.138v-.131a.462.462 0 0 0 0-.138v-.275a.462.462 0 0 0 0-.138v-.131a.462.462 0 0 0 0-.138v-.275a.461.461 0 0 0 0-.137v-.131a.462.462 0 0 0 0-.138v-.275a.462.462 0 0 0 0-.138v-.131a.461.461 0 0 0 0-.137v-.275a.462.462 0 0 0 0-.138v-.116a.462.462 0 0 0 0-.138v-.275a.461.461 0 0 0 0-.137v-.131a.462.462 0 0 0 0-.138v-.275a.462.462 0 0 0 0-.138v-.131a.462.462 0 0 0 0-.138v-.275a.462.462 0 0 0 0-.138v-.131a.462.462 0 0 0 0-.138v-.275a.462.462 0 0 0 0-.138v-.131a.462.462 0 0 0 0-.138v-.275a.35.35 0 0 0 .021-.102z" class="cls-2" transform="translate(-197.485 -230.7)"/>
                    <path id="패스_67" d="M308.057 459.577l-1.018-1.066a1.6 1.6 0 0 0-1.135-.474h-6.876l-1.884 4.6h-14.2v-9.173l10.025-4.813 4.428 2.255.1-.076a1.437 1.437 0 0 0 .571-1.19v-13.613a1.451 1.451 0 0 0-.454-1.176l-1.114-1.038a2.167 2.167 0 0 0-2.5-.337l-7.041 3.672a7.068 7.068 0 0 1-6.752-.117l-2.482-1.41a3.982 3.982 0 0 0-3.259-.3l-9.73 3.342a19.588 19.588 0 0 1-6.133 1.066l-6.381.089a21.111 21.111 0 0 0-16.571 8.382 7.219 7.219 0 0 1-5.686 2.847h-2.138a8.638 8.638 0 0 0-6.072 2.53l-4.621 4.621a2.3 2.3 0 0 0-.688 1.767v13.621a2.338 2.338 0 0 0 1.912 2.317l24.506 2.75a8.516 8.516 0 0 1 4.628 2.015 3.548 3.548 0 0 0 4.545.076 3.562 3.562 0 0 1 4.126-.248l10.857 6.718a3.741 3.741 0 0 0 3.328.3l26.4-10.376a4.815 4.815 0 0 1 4.126.275l3.1 1.719a1.534 1.534 0 0 0 2.015-.488l2.248-3.328a1.589 1.589 0 0 0 .268-.894v-13.614a1.576 1.576 0 0 0-.448-1.231z" class="cls-2" transform="translate(-167.298 -243.301)"/>
                    <path id="패스_68" d="M468.784 249.753a2.856 2.856 0 0 0-.55-2.118 2.957 2.957 0 0 0-.791-.688l-3.335-2a2.849 2.849 0 0 0-2.324-.268l-17.369 5.556a6.725 6.725 0 0 1-4.813-.261l-5.15-2.3a6.367 6.367 0 0 0-5.845.351l-3.885 2.331a2.819 2.819 0 0 0-1.375 2.826 2.873 2.873 0 0 0 0 .729 2.819 2.819 0 0 0 0 .722 2.819 2.819 0 0 0 0 .722 2.873 2.873 0 0 0 0 .729 2.8 2.8 0 0 0 0 .688 2.819 2.819 0 0 0 0 .722 2.8 2.8 0 0 0 0 .688 2.873 2.873 0 0 0 0 .729 2.819 2.819 0 0 0 0 .722 2.805 2.805 0 0 0 0 .688 2.819 2.819 0 0 0 0 .722 2.873 2.873 0 0 0 0 .729 2.819 2.819 0 0 0 0 .722 2.8 2.8 0 0 0 0 .688 2.819 2.819 0 0 0 0 .722 2.873 2.873 0 0 0 0 .729 2.8 2.8 0 0 0 0 .688 6.2 6.2 0 0 0 .371 2.5l.131.2 4.428 6.154a4.077 4.077 0 0 0 2.063 1.485l15.127 4.978a2.8 2.8 0 0 0 2.579-.44l19.631-15a4.5 4.5 0 0 0 1.08-3.3 2.819 2.819 0 0 0 0-.722 2.873 2.873 0 0 0 0-.729 2.8 2.8 0 0 0 0-.688 2.819 2.819 0 0 0 0-.722 2.819 2.819 0 0 0 0-.722 2.873 2.873 0 0 0 0-.729 2.8 2.8 0 0 0 0-.688 2.819 2.819 0 0 0 0-.722 2.873 2.873 0 0 0 0-.729 2.8 2.8 0 0 0 0-.688 2.819 2.819 0 0 0 0-.722 2.819 2.819 0 0 0 0-.722 2.873 2.873 0 0 0 0-.729 2.819 2.819 0 0 0 0-.722 2.819 2.819 0 0 0 0-.722 2.805 2.805 0 0 0 0-.688 2.865 2.865 0 0 0 .027-.701z" class="cls-2" transform="translate(-224.601 -191.577)"/>
                    <path id="패스_69" d="M257.717 293.1a2.283 2.283 0 0 0-1.272-2.248l-30.88-15.182.784-3.52a4.452 4.452 0 0 0 .55-2.132v-.275a.461.461 0 0 0 0-.138v-.131a.461.461 0 0 0 0-.138v-.275a.461.461 0 0 0 0-.138v-.123a.46.46 0 0 0 0-.137v-.275a.461.461 0 0 0 0-.138v-.131a.46.46 0 0 0 0-.137v-.282a.46.46 0 0 0 0-.137v-.131a.461.461 0 0 0 0-.138v-.275a.461.461 0 0 0 0-.138v-.131a.461.461 0 0 0 0-.138v-.275a.461.461 0 0 0 0-.138v-.131a.461.461 0 0 0 0-.138v-.275a.461.461 0 0 0 0-.138v-.131a.461.461 0 0 0 0-.138v-.275a.461.461 0 0 0 0-.138v-.131a.461.461 0 0 0 0-.138v-.266a.461.461 0 0 0 0-.138v-.131a.461.461 0 0 0 0-.138v-.275a.461.461 0 0 0 0-.138.461.461 0 0 0 0-.138v-.542a.461.461 0 0 0 0-.138v-.131a.461.461 0 0 0 0-.138v-.275a.461.461 0 0 0 0-.138v-.131a.461.461 0 0 0 0-.138v-.275a.461.461 0 0 0 0-.138v-.131a.46.46 0 0 0 0-.137v-.275a.461.461 0 0 0 0-.138v-.131a.461.461 0 0 0 0-.138v-.275a.46.46 0 0 0 0-.137v-.131a.461.461 0 0 0 0-.138v-.267a.461.461 0 0 0 0-.138v-.131a.461.461 0 0 0 0-.138v-.275a.461.461 0 0 0 0-.138v-.131a.461.461 0 0 0 0-.138v-.275a.461.461 0 0 0 0-.138v-.131a.461.461 0 0 0 0-.138v-.275a.461.461 0 0 0 0-.138v-.131a.46.46 0 0 0 0-.137v-.275a.461.461 0 0 0 0-.138v-.131a4.123 4.123 0 0 0-.144-1.293l-2.709-10.094a3.033 3.033 0 0 0-2.929-2.242h-5.975a4.563 4.563 0 0 0-1.63.3l-12.8 4.868a3.658 3.658 0 0 1-2.75-.069l-19.7-8.657a2.386 2.386 0 0 0-3.08 1.073l-2.53 4.813a2.651 2.651 0 0 0-.3 1.3v12.171l-4.483 10.864a2 2 0 0 0-.138.749v.131a.461.461 0 0 0 0 .138v.275a.461.461 0 0 0 0 .138V271a.461.461 0 0 0 0 .138v.275a.461.461 0 0 0 0 .138v.131a.461.461 0 0 0 0 .138v.275a.461.461 0 0 0 0 .138v.131a.461.461 0 0 0 0 .138v.275a.461.461 0 0 0 0 .138v.131a.461.461 0 0 0 0 .138v.275a.461.461 0 0 0 0 .138v.131a.461.461 0 0 0 0 .138v.275a.461.461 0 0 0 0 .138v.131a.461.461 0 0 0 0 .138v.275a.461.461 0 0 0 0 .138v.131a.461.461 0 0 0 0 .138v.275a.461.461 0 0 0 0 .138v.131a.461.461 0 0 0 0 .138v.275a.461.461 0 0 0 0 .138v.131a.461.461 0 0 0 0 .138v.275a.461.461 0 0 0 0 .138v.131a.461.461 0 0 0 0 .138v.543a.461.461 0 0 0 0 .138v.543a.46.46 0 0 0 0 .137v.543a.46.46 0 0 0 0 .137v.413a.461.461 0 0 0 0 .138v.131a.46.46 0 0 0 0 .137v.275a.46.46 0 0 0 0 .137v.131a.461.461 0 0 0 0 .138v.275a.461.461 0 0 0 0 .138v.131a.461.461 0 0 0 0 .138v.275a.461.461 0 0 0 0 .138v.131a.461.461 0 0 0 0 .138v.275a.461.461 0 0 0 0 .138v.131a.461.461 0 0 0 0 .138v.275a.461.461 0 0 0 0 .138v.131a.461.461 0 0 0 0 .138v.275a1.933 1.933 0 0 0 .034.523v8.031a2.585 2.585 0 0 0 .151.887l7.11 19.714a2.476 2.476 0 0 0 3.179 1.465l.018-.007 18.283-6.807a7.91 7.91 0 0 0 1.6-.832l14.048-9.723a3.547 3.547 0 0 1 3.864-.117l11.112 6.7a3.555 3.555 0 0 1 1.375 1.575l1.375 3.122a3.44 3.44 0 0 0 2.42 1.967l17.046 3.775a2.8 2.8 0 0 0 2.579-.749l5.074-5.02a2.22 2.22 0 0 0 .688-1.582.461.461 0 0 0 0-.137v-.131a.462.462 0 0 0 0-.138v-.275a.462.462 0 0 0 0-.138v-.131a.462.462 0 0 0 0-.138v-.275a.462.462 0 0 0 0-.138v-.141a.462.462 0 0 0 0-.138v-.275a.462.462 0 0 0 0-.138v-.131a.462.462 0 0 0 0-.138V304a.462.462 0 0 0 0-.138v-.131a.462.462 0 0 0 0-.138v-.275a.462.462 0 0 0 0-.138v-.131a.462.462 0 0 0 0-.138v-.275a.461.461 0 0 0 0-.137v-.131a.462.462 0 0 0 0-.138v-.275a.462.462 0 0 0 0-.138v-.131a.462.462 0 0 0 0-.138v-.275a.462.462 0 0 0 0-.138v-.131a.462.462 0 0 0 0-.138v-.266a.461.461 0 0 0 0-.137v-.131a.462.462 0 0 0 0-.138v-.543a.462.462 0 0 0 0-.138v-.543a.462.462 0 0 0 0-.138v-.543a.462.462 0 0 0 0-.138v-.413a.462.462 0 0 0 0-.138v-.543a.462.462 0 0 0 0-.138v-.543a.462.462 0 0 0 0-.138v-.538a.462.462 0 0 0 0-.138v-.131a.462.462 0 0 0 0-.138v-.275a.461.461 0 0 0 0-.137v-.131a.462.462 0 0 0 0-.138v-.275a.462.462 0 0 0 0-.138v-.131a.462.462 0 0 0 0-.138v-.275a.462.462 0 0 0 0-.138v-.131a.462.462 0 0 0 0-.138.514.514 0 0 0 .03-.148z" class="cls-2" transform="translate(-152.08 -189.848)"/>
                    <path id="패스_70" d="M450.515 206.426l-30.674-8.664a2.414 2.414 0 0 1-1.692-2.867l.536-2.3a2.393 2.393 0 0 0-1.781-2.86l-8.492-1.967a2.482 2.482 0 0 0-2.5.873c-2.847 3.582-11.132 14.3-14.1 18.118a3.52 3.52 0 0 1-2.805 1.375h-4.724a2.812 2.812 0 0 0-2.709 2.063l-3.122 10.83c-.11.385-.186.358-.076.743l.076 11.627h4.724l-.034 5.79-4.49 11.827c-.447 1.176.186 16.234 1.375 16.619l4.353 1.375a2.977 2.977 0 0 0 2.5-.33l5.906-3.775a3.281 3.281 0 0 1 2.482-.433l7.289 1.65a3.85 3.85 0 0 0 3.5-.97l4.064-3.864c.447-.419.688-5.1.688-9.406v-6.092c-.241-.33-1.465 2.51-1.581.151l-4.057 4.676a5.1 5.1 0 0 1 1.36-7.086l.015-.01a4.511 4.511 0 0 1 .688-.406l2.063.633c0-2.063.048-5.57 0-8.939a7.2 7.2 0 0 1 1.32-2.187l3.9-2.331a6.367 6.367 0 0 1 5.845-.351l5.15 2.3a6.757 6.757 0 0 0 4.813.261l17.362-5.57a2.849 2.849 0 0 1 2.324.268l2.785 1.671V209.5a3.191 3.191 0 0 0-2.281-3.074z" class="cls-2" transform="translate(-211.143 -173.821)"/>
                    <path id="패스_71" d="M255.5 245.546l42.287-3.266a7.731 7.731 0 0 1 2.53-.426h23.653a4.465 4.465 0 0 1 3.479 1.664l1.148 1.437a1.623 1.623 0 0 0 1.258.6 1.6 1.6 0 0 0 1.052-.4l6.14-5.343a3.748 3.748 0 0 1 2.482-.935h3.438a1.066 1.066 0 0 0 1.011-.729l.646-1.932a114.7 114.7 0 0 0 0-13.752c-.11-1.121-.633-1.375-.77-1.375l-5.5-1.306c-1.863-.447-2.964 11.373-2.386 9.544l4.126-7.206-.083-6.91c.688-2.2 2.991-3.335 5.295-3.335h2.413a5.557 5.557 0 0 0 4.3-2.063l11.091-13.463a19.581 19.581 0 0 1 7.35-5.542l7.33-3.184c1.705-.736 1.65-16.922-.082-17.582l-5.576-2.118a6.371 6.371 0 0 0-4.077-.144l-25.3 7.564a8.434 8.434 0 0 1-4.3.144l-23.963-5.46a8.562 8.562 0 0 0-3.981.055l-27.36 6.945a8.5 8.5 0 0 0-5.267 3.988l-21.655 37.494a5.377 5.377 0 0 0-.529 4.126z" class="cls-2" transform="translate(-175.696 -167.512)"/>
                    <path id="패스_72" d="M319.33 379.085l-10.43-10.534a1.21 1.21 0 0 0-1.65-.076l-5.5 4.607a4.565 4.565 0 0 1-4.648.736l-.8-.33a1.313 1.313 0 0 0-1.582.5l-1.121 1.712a2.025 2.025 0 0 0-.144.268c-.034.062-.117.241-.247.275-.853.227-.859-2.2-.859-2.2V372.1a1.12 1.12 0 0 0-.371-.887.482.482 0 0 0-.069-.089L290.354 370l1.788-3.631a1.692 1.692 0 0 0 .165-.743v-13.612a1.649 1.649 0 0 0-.915-1.6l-.089-.041-12.315-5.233a1.939 1.939 0 0 0-2.248.529l-8.774 10.273a1.947 1.947 0 0 0-.488 1.43.924.924 0 0 0 0 .138.923.923 0 0 0 0 .137.834.834 0 0 0 0 .131.924.924 0 0 0 0 .138.923.923 0 0 0 0 .138.923.923 0 0 0 0 .138.924.924 0 0 0 0 .138.834.834 0 0 0 0 .131.923.923 0 0 0 0 .138.923.923 0 0 0 0 .138.923.923 0 0 0 0 .138.923.923 0 0 0 0 .138.834.834 0 0 0 0 .131.924.924 0 0 0 0 .138.923.923 0 0 0 0 .138.923.923 0 0 0 0 .138.924.924 0 0 0 0 .138.834.834 0 0 0 0 .131.923.923 0 0 0 0 .138.923.923 0 0 0 0 .138.923.923 0 0 0 0 .138.923.923 0 0 0 0 .138.834.834 0 0 0 0 .131.924.924 0 0 0 0 .138.923.923 0 0 0 0 .138.923.923 0 0 0 0 .138.924.924 0 0 0 0 .138.834.834 0 0 0 0 .131.923.923 0 0 0 0 .137.924.924 0 0 0 0 .138.923.923 0 0 0 0 .138.923.923 0 0 0 0 .138.834.834 0 0 0 0 .131.924.924 0 0 0 0 .138.923.923 0 0 0 0 .137.924.924 0 0 0 0 .138.923.923 0 0 0 0 .137.834.834 0 0 0 0 .131.923.923 0 0 0 0 .138.924.924 0 0 0 0 .138.923.923 0 0 0 0 .138.924.924 0 0 0 0 .138.834.834 0 0 0 0 .131.923.923 0 0 0 0 .137.923.923 0 0 0 0 .138.924.924 0 0 0 0 .138.923.923 0 0 0 0 .138.834.834 0 0 0 0 .131.933.933 0 0 0 0 .138.923.923 0 0 0 0 .138.924.924 0 0 0 0 .138.923.923 0 0 0 0 .137.924.924 0 0 0 0 .138.833.833 0 0 0 0 .131.923.923 0 0 0 0 .138.923.923 0 0 0 0 .138.924.924 0 0 0 0 .138.923.923 0 0 0 0 .138.834.834 0 0 0 0 .131.924.924 0 0 0 0 .138.923.923 0 0 0 0 .137.923.923 0 0 0 0 .138.924.924 0 0 0 0 .138.834.834 0 0 0 0 .131.923.923 0 0 0 0 .138.924.924 0 0 0 0 .138.923.923 0 0 0 0 .138.923.923 0 0 0 0 .138.834.834 0 0 0 0 .131.923.923 0 0 0 0 .138.923.923 0 0 0 0 .138.924.924 0 0 0 0 .138.923.923 0 0 0 0 .138.834.834 0 0 0 0 .131.923.923 0 0 0 0 .138.924.924 0 0 0 0 .138.923.923 0 0 0 0 .138.923.923 0 0 0 0 .138.833.833 0 0 0 0 .131.924.924 0 0 0 0 .138.923.923 0 0 0 0 .138.924.924 0 0 0 0 .138.923.923 0 0 0 0 .138.834.834 0 0 0 0 .131.923.923 0 0 0 0 .137.924.924 0 0 0 0 .138.923.923 0 0 0 0 .137.924.924 0 0 0 0 .138.834.834 0 0 0 0 .131.923.923 0 0 0 0 .138.923.923 0 0 0 0 .138.924.924 0 0 0 0 .138.923.923 0 0 0 0 .137.834.834 0 0 0 0 .131.924.924 0 0 0 0 .138.923.923 0 0 0 0 .138.923.923 0 0 0 0 .138.924.924 0 0 0 0 .138.834.834 0 0 0 0 .131.923.923 0 0 0 0 .138 1.964 1.964 0 0 0 .248.99c1.341 2.317 4.311 7.33 5.927 10.046a5.5 5.5 0 0 0 3.149 2.468l12.067 3.686v7.151h5.4l2.063 8.155a2.751 2.751 0 0 0 1.478 1.822l7.461 3.637a1.169 1.169 0 0 0 1.079 0c.206-.117.378 3.892.488 3.665a1.132 1.132 0 0 0 .117-.6v-.371a4.482 4.482 0 0 1 2.854-2.75c.433-.144.894-9.365 1.375-9.365h2.991a2.82 2.82 0 0 0 1.994-.832l3.163-3.232a1.828 1.828 0 0 0 .523-1.375v-13.65a1.863 1.863 0 0 0-.525-1.382z" class="cls-2" transform="translate(-179.947 -217.921)"/>
                    <path id="패스_73" d="M362.492 277.578a1.128 1.128 0 0 0-.88-1.19l-5.377-1.224a2.276 2.276 0 0 0-1.726.3l-4.724 3a7.282 7.282 0 0 1-6.1.8l-4.861-1.52v-4.5l2.324-1.719a1 1 0 0 0 .069-.468v-13.605a.921.921 0 0 0-.887-.942h-1.9a1.43 1.43 0 0 0-1.025.426l-6.188 6.188a2.391 2.391 0 0 1-1.678.688h-2.063a2.432 2.432 0 0 1-1.719-.688L322.625 260a2.25 2.25 0 0 0-1.588-.688h-19.418a15.5 15.5 0 0 0-5.033.846l-34.077 11.689a3.947 3.947 0 0 1-2.7-.041l-4.263-1.623a1.678 1.678 0 0 0-2.063.8c-.688 1.416-1.705 3.562-2.283 4.813a1.106 1.106 0 0 0-.1.536.416.416 0 0 0 0 .131.461.461 0 0 0 0 .138.461.461 0 0 0 0 .138.461.461 0 0 0 0 .138.46.46 0 0 0 0 .137.416.416 0 0 0 0 .131.461.461 0 0 0 0 .138.461.461 0 0 0 0 .138.461.461 0 0 0 0 .138.461.461 0 0 0 0 .138.416.416 0 0 0 0 .131.46.46 0 0 0 0 .137.461.461 0 0 0 0 .138.461.461 0 0 0 0 .138.461.461 0 0 0 0 .138.416.416 0 0 0 0 .131.461.461 0 0 0 0 .138.46.46 0 0 0 0 .137.461.461 0 0 0 0 .138.46.46 0 0 0 0 .137.416.416 0 0 0 0 .131.461.461 0 0 0 0 .138.461.461 0 0 0 0 .138.46.46 0 0 0 0 .137.461.461 0 0 0 0 .138.416.416 0 0 0 0 .131.461.461 0 0 0 0 .138.461.461 0 0 0 0 .138.461.461 0 0 0 0 .138.461.461 0 0 0 0 .138.416.416 0 0 0 0 .131.461.461 0 0 0 0 .138.461.461 0 0 0 0 .138.461.461 0 0 0 0 .138.461.461 0 0 0 0 .138.416.416 0 0 0 0 .131.461.461 0 0 0 0 .138.461.461 0 0 0 0 .138.461.461 0 0 0 0 .138.461.461 0 0 0 0 .138.416.416 0 0 0 0 .131.461.461 0 0 0 0 .138.461.461 0 0 0 0 .138.461.461 0 0 0 0 .138.461.461 0 0 0 0 .138.416.416 0 0 0 0 .131.461.461 0 0 0 0 .138.461.461 0 0 0 0 .138.461.461 0 0 0 0 .138.46.46 0 0 0 0 .137.416.416 0 0 0 0 .131.461.461 0 0 0 0 .138.461.461 0 0 0 0 .138.461.461 0 0 0 0 .138.461.461 0 0 0 0 .138.416.416 0 0 0 0 .131.461.461 0 0 0 0 .138.461.461 0 0 0 0 .138.461.461 0 0 0 0 .138.461.461 0 0 0 0 .138.416.416 0 0 0 0 .131.46.46 0 0 0 0 .137.461.461 0 0 0 0 .138.461.461 0 0 0 0 .138.461.461 0 0 0 0 .138.416.416 0 0 0 0 .131.461.461 0 0 0 0 .138.46.46 0 0 0 0 .137.461.461 0 0 0 0 .138.461.461 0 0 0 0 .138.46.46 0 0 0 0 .137.416.416 0 0 0 0 .131.461.461 0 0 0 0 .138.46.46 0 0 0 0 .137.461.461 0 0 0 0 .138.461.461 0 0 0 0 .138.416.416 0 0 0 0 .131.461.461 0 0 0 0 .138.461.461 0 0 0 0 .138.46.46 0 0 0 0 .137.461.461 0 0 0 0 .138.416.416 0 0 0 0 .131.461.461 0 0 0 0 .138.461.461 0 0 0 0 .138.461.461 0 0 0 0 .138.461.461 0 0 0 0 .138.416.416 0 0 0 0 .131.461.461 0 0 0 0 .138.461.461 0 0 0 0 .138.461.461 0 0 0 0 .138.461.461 0 0 0 0 .138.416.416 0 0 0 0 .131.461.461 0 0 0 0 .138.461.461 0 0 0 0 .138.461.461 0 0 0 0 .138.461.461 0 0 0 0 .138.416.416 0 0 0 0 .131.461.461 0 0 0 0 .138.461.461 0 0 0 0 .138.461.461 0 0 0 0 .138 1.155 1.155 0 0 0 .639 1.121l36.23 17.7a2.173 2.173 0 0 0 2.125-.131 5.927 5.927 0 0 1 7.405.749l9.7 9.626a2.833 2.833 0 0 0 3.025.633l12.638-4.93a4.771 4.771 0 0 0 2.668-2.592l4.593-10.864a7.04 7.04 0 0 1 5.219-4.187l8.038-1.451a9.5 9.5 0 0 1 10.32 5.245 1 1 0 0 0 1.141.536l1.6-.406a.991.991 0 0 0 .749-1v-3.651l4.978-4.27a1.106 1.106 0 0 0 .392-.915v-13.609z" class="cls-2" transform="translate(-174.639 -192.827)"/>
                    <path id="패스_74" d="M286.21 416.635a1.955 1.955 0 0 0-.083-.743l-.337-1.114a2.063 2.063 0 0 0-1.128-1.258l-11.572-5.054a3.946 3.946 0 0 1-2.262-2.675l-2.572-10.39a2.8 2.8 0 0 0-1.918-2l-12.2-3.6a2.682 2.682 0 0 0-2.448.474l-27.538 22a3.872 3.872 0 0 0-1.444 2.647l-.385 3.837a4.626 4.626 0 0 1-2.991 3.885l-17.6 6.58a2.379 2.379 0 0 0-1.54 2.248v13.615a2.329 2.329 0 0 0 .543 1.636l6.3 7.564a2.751 2.751 0 0 0 3.871.358l.11-.1 5.79-5.329a7.832 7.832 0 0 1 5.329-2.063h3.287a2.683 2.683 0 0 0 1.98-.88l3.067-3.4a19.646 19.646 0 0 1 14.6-6.5h5.329a27.612 27.612 0 0 0 10.314-2l6.5-2.62a9.187 9.187 0 0 1 7.9.488l3.067 1.7a2.972 2.972 0 0 0 2.75.076l4.126-2a2.063 2.063 0 0 0 1.135-1.808V416.6z" class="cls-2" transform="translate(-162.221 -230.662)"/>
                    <path id="패스_75" d="M544.269 340.966l-9.159-2.1a3.26 3.26 0 0 1-2.537-3.177v-2.919a3.8 3.8 0 0 0-2.187-3.438l-16-7.495a2.4 2.4 0 0 0-2.5.282l-5.233 4.126a2.379 2.379 0 0 0-.763 2.709l1.87 5.074a2.847 2.847 0 0 1-.956 3.252l-11.043 8.361a2.9 2.9 0 0 0-1.025 1.506l-1.912 6.931c-.323 1.183.564 16.111 1.795 16.111h11.3a2.044 2.044 0 0 0 .3-.034v7.818h9.228v-14.619h-2.977l-.337-1.135a3.844 3.844 0 0 1 3.679-4.958h17.438a7.956 7.956 0 0 0 5.625-2.331l6.278-6.285c-.107-3.822-.416-7.562-.884-7.679z" class="cls-2" transform="translate(-244.273 -211.441)"/>
                    <path id="패스_76" d="M568.047 271.035l-21.522-21.529a6.678 6.678 0 0 0-4.7-1.946h-11.418a4.592 4.592 0 0 0-2.063.509l-4.744 2.489a6.4 6.4 0 0 1-3.2.729c-5.563-.22-23.378 0-29.209.041a5.756 5.756 0 0 0-3.376 1.162c-4.05 3.087-15.313 11.627-20.676 15.32-1.506 1.038-1.705 16.943-.406 18.235a2.9 2.9 0 0 1 .859 2.063v7.2a1.926 1.926 0 0 0 1.925 1.925h15.939a3.245 3.245 0 0 1 3.245 3.245v4.937a3.436 3.436 0 0 0 1 2.427l4.5 4.5a2.91 2.91 0 0 0 .433.351l9.063 7.261 1.719-5.68-4.813-4.16.523-.454a5.5 5.5 0 0 1 5.941-.791l18.311 8.822a3.286 3.286 0 0 1 1.85 2.95v3.232a3.109 3.109 0 0 0 2.338 3.012l8.506 2.18a2.82 2.82 0 0 1 2.111 2.75 2.846 2.846 0 0 0 2.475 2.826 6.188 6.188 0 0 0 4.813-1.375 2.062 2.062 0 0 0 .729-1.554v-2.063a3.932 3.932 0 0 1 1.341-2.957l8.251-7.261a9.02 9.02 0 0 0 3.053-6.759v-4.71a6.408 6.408 0 0 1 1.877-4.531l5.583-5.576a4.6 4.6 0 0 0 1.375-3.252V275a5.657 5.657 0 0 0-1.633-3.965z" class="cls-2" transform="translate(-232.52 -192.519)"/>
                    <path id="패스_77" d="M492.714 321.232a1.725 1.725 0 0 0-.468-1.588l-5.9-5.893a3.264 3.264 0 0 1-.956-2.31v-2.991a3.287 3.287 0 0 0-3.28-3.28h-7.784a3.286 3.286 0 0 0-3.232 2.654 3.393 3.393 0 0 0-.034.983 3.234 3.234 0 0 0 0 .729 3.2 3.2 0 0 0 0 .688 3.173 3.173 0 0 0 0 .722 3.234 3.234 0 0 0 0 .729 3.2 3.2 0 0 0 0 .688 3.173 3.173 0 0 0 0 .722 3.174 3.174 0 0 0 0 .722 3.234 3.234 0 0 0 0 .729 3.173 3.173 0 0 0 0 .722 3.174 3.174 0 0 0 0 .722 3.2 3.2 0 0 0 0 .688 3.234 3.234 0 0 0 0 .729 3.173 3.173 0 0 0 0 .722 3.2 3.2 0 0 0 0 .688 3.811 3.811 0 0 0 0 .626l-3.046 3.184a2.6 2.6 0 0 0-.688 2.159 2.544 2.544 0 0 0 0 .722 2.561 2.561 0 0 0 0 .688 2.543 2.543 0 0 0 0 .722 2.592 2.592 0 0 0 0 .729 2.56 2.56 0 0 0 0 .688 2.543 2.543 0 0 0 0 .722 2.544 2.544 0 0 0 0 .722 2.592 2.592 0 0 0 0 .729 2.56 2.56 0 0 0 0 .688 2.544 2.544 0 0 0 0 .722 2.592 2.592 0 0 0 0 .729 2.56 2.56 0 0 0 0 .688 2.543 2.543 0 0 0 0 .722 2.543 2.543 0 0 0 0 .722 2.592 2.592 0 0 0 0 .729 2.544 2.544 0 0 0 0 .722 2.543 2.543 0 0 0 0 .722 2.56 2.56 0 0 0 0 .688 2.6 2.6 0 0 0 .688 2.159l2.338 2.468a2.784 2.784 0 0 0 3.046.688l18.249-7.007a1.74 1.74 0 0 0 1.079-1.98 1.857 1.857 0 0 0 0-.729 1.835 1.835 0 0 0 0-.688 1.822 1.822 0 0 0 0-.722 1.835 1.835 0 0 0 0-.688 1.857 1.857 0 0 0 0-.729 1.822 1.822 0 0 0 0-.722 1.834 1.834 0 0 0 0-.688 1.822 1.822 0 0 0 0-.722 1.856 1.856 0 0 0 0-.729 1.822 1.822 0 0 0 0-.722 1.835 1.835 0 0 0 0-.688 1.857 1.857 0 0 0 0-.729 1.822 1.822 0 0 0 0-.722 1.835 1.835 0 0 0 0-.688 1.822 1.822 0 0 0 0-.722 1.857 1.857 0 0 0 0-.729 1.835 1.835 0 0 0 0-.688 1.815 1.815 0 0 0-.012-.621z" class="cls-2" transform="translate(-237.666 -206.964)"/>
                    <path id="패스_78" d="M472.84 309.02v13.5h10.2l-3.582-11.174-4.882-2.324h-1.74" class="cls-2" transform="translate(-239.597 -208.32)"/>
                </g>
                <g id="Top" transform="translate(144.928 167.512)">
                    <path id="패스_79" d="M448.085 266.613l19.631-15a2.833 2.833 0 0 0 .532-3.971 2.958 2.958 0 0 0-.791-.688l-3.335-2a2.849 2.849 0 0 0-2.324-.268l-17.369 5.556a6.725 6.725 0 0 1-4.813-.261l-5.15-2.3a6.367 6.367 0 0 0-5.845.351l-3.885 2.331a2.827 2.827 0 0 0-.978 3.875l.131.2 4.428 6.154a4.076 4.076 0 0 0 2.063 1.485l15.127 4.978a2.8 2.8 0 0 0 2.578-.442z" class="cls-4" transform="translate(-224.582 -191.577)"/>
                    <path id="패스_80" d="M507.091 295.136l18.311 8.822a3.286 3.286 0 0 1 1.85 2.95v3.232a3.109 3.109 0 0 0 2.338 3.012l8.506 2.18a2.82 2.82 0 0 1 2.111 2.75 2.846 2.846 0 0 0 2.475 2.826 6.188 6.188 0 0 0 4.813-1.375 2.062 2.062 0 0 0 .729-1.554v-2.063a3.934 3.934 0 0 1 1.341-2.957l8.251-7.261a9.02 9.02 0 0 0 3.053-6.759v-4.71a6.408 6.408 0 0 1 1.877-4.531l5.583-5.576a4.6 4.6 0 0 0 1.375-3.252v-5.845a5.659 5.659 0 0 0-1.657-4.009l-21.522-21.529a6.678 6.678 0 0 0-4.7-1.946h-11.417a4.594 4.594 0 0 0-2.063.509l-4.744 2.489a6.4 6.4 0 0 1-3.2.729c-5.563-.22-23.378 0-29.209.041a5.756 5.756 0 0 0-3.376 1.162c-4.05 3.087-15.313 11.627-20.676 15.32a2.936 2.936 0 0 0-.749 4.077 3.278 3.278 0 0 0 .344.406 2.892 2.892 0 0 1 .859 2.063v7.213a1.926 1.926 0 0 0 1.925 1.925h15.939a3.245 3.245 0 0 1 3.245 3.245v4.937a3.435 3.435 0 0 0 1 2.427l4.5 4.5a2.751 2.751 0 0 0 3.514.316l3.438-3a5.5 5.5 0 0 1 5.936-.764z" class="cls-4" transform="translate(-232.492 -190.086)"/>
                    <path id="패스_81" d="M411.175 490l2.028-11c.371-2.242 1.128-4.456 3.039-5.7a1.437 1.437 0 0 0 .419-1.987 1.244 1.244 0 0 0-.248-.289l-23.1-20.559a5.919 5.919 0 0 0-5.955-1.155l-14.495 5.178a3.59 3.59 0 0 0-2.379 3.383v3.534a4.32 4.32 0 0 1-1.272 3.053l-.894.9a4.327 4.327 0 0 1-3.06 1.265h-10.673a2.475 2.475 0 0 0-2.173 1.3l-1.114 2.063a2.59 2.59 0 0 0 0 2.379l8.8 17.5a5.665 5.665 0 0 0 5.061 3.115h41.992a3.929 3.929 0 0 0 4.024-2.98z" class="cls-4" transform="translate(-203.529 -247.71)"/>
                    <path id="패스_82" d="M367.719 449v-2.75a6.188 6.188 0 0 1 4.126-5.838l16.743-5.927a7.355 7.355 0 0 0 4.126-3.692c1.98-4.029 5.721-11.689 7.742-15.815a1.664 1.664 0 0 0-1.733-2.372l-14.261 2.063a8.14 8.14 0 0 0-5.226 3l-25.359 31.87a1.279 1.279 0 0 0 .227 1.795 1.267 1.267 0 0 0 .777.268h10.211a2.613 2.613 0 0 0 2.627-2.6z" class="cls-4" transform="translate(-204.603 -237.452)"/>
                    <path id="패스_83" d="M339.055 451.726l13.126-16.42a2.805 2.805 0 0 0 .124-3.342l-1.6-2.352A4.5 4.5 0 0 0 347 427.66h-1.918a6.743 6.743 0 0 0-4.187 1.451l-27.085 21.316a1.7 1.7 0 0 0-.646 1.327 1.7 1.7 0 0 0 1.691 1.7h20.683a4.511 4.511 0 0 0 3.517-1.728z" class="cls-4" transform="translate(-193.133 -242.037)"/>
                    <path id="패스_84" d="M336.806 419.252l8.251-6.367a4.051 4.051 0 0 1 2.462-.839h6.628a3.184 3.184 0 0 1 2.62 1.375l2.132 3.163a1.616 1.616 0 0 0 2.228.426 1.689 1.689 0 0 0 .33-.3l8.155-9.675a1.9 1.9 0 0 0-.124-2.578l-3.527-3.438a3.864 3.864 0 0 1-1.155-2.75v-3.61a1.671 1.671 0 0 0-1.671-1.671h-6.67a1.183 1.183 0 0 1-1.19-1.176v-1.566a1.829 1.829 0 0 0-1.822-1.829h-.921a2.751 2.751 0 0 0-1.85.722l-13.621 12.466a4.332 4.332 0 0 1-2.936 1.141h-3.576a2.186 2.186 0 0 0-2.159 2.213 2.122 2.122 0 0 0 .1.619l2.8 9.014a5.553 5.553 0 0 0 1.2 2.1l2.132 2.352a1.63 1.63 0 0 0 2.184.208z" class="cls-4" transform="translate(-197.468 -230.701)"/>
                    <path id="패스_85" d="M388.81 396.938l2.269 3.108a4.214 4.214 0 0 0 4.016 1.691l20.7-2.977a4.435 4.435 0 0 0 3.672-3.349l.378-1.568a4.077 4.077 0 0 0-.158-2.413l-2.51-6.656a3.8 3.8 0 0 0-3.548-2.455H403.38a7.463 7.463 0 0 0-2.544.447l-10.568 3.816a3.714 3.714 0 0 0-2.448 3.486v3.837a5.158 5.158 0 0 0 .99 3.033z" class="cls-4" transform="translate(-214.662 -229.154)"/>
                    <path id="패스_86" d="M150.581 558.2l-5.288-13.587a5.336 5.336 0 0 1 0-3.885l13.436-34.071a17.248 17.248 0 0 1 7.962-8.939l10.376-5.5a13.752 13.752 0 0 1 12.177-.358l24.492 11.222a5.344 5.344 0 0 0 4.6-.082l.777-.385a5.315 5.315 0 0 0 2.785-6.051l-.619-2.482a2.488 2.488 0 0 1 .942-2.62l7.907-5.8a1.993 1.993 0 0 1 2.187-.124l11.1 6.34a5.307 5.307 0 0 0 4.579.33l27.318-10.685a3.907 3.907 0 0 1 3.651.433l4.126 2.9a4.767 4.767 0 0 1 1.554 1.85l6.642 14.171a11.641 11.641 0 0 0 10.534 6.7h44.006a5.323 5.323 0 0 1 3.761 1.561l5.136 5.13a5.293 5.293 0 0 0 3.761 1.561h17.527a9.867 9.867 0 0 1 9.853 9.853v3.307a5.323 5.323 0 0 1-1.561 3.761l-12.582 12.588a5.316 5.316 0 0 1-3.761 1.554h-4.889a5.353 5.353 0 0 1-3.438-1.272l-15.368-13.106a4.767 4.767 0 0 1-1.678-3.631v-1.643a5.914 5.914 0 0 0-5.906-5.906h-11.16a5.323 5.323 0 0 0-3.761 1.561l-7.405 7.419a5.329 5.329 0 0 0-.688 6.7l6.037 9.138a5.322 5.322 0 0 1-1.5 7.375 5.588 5.588 0 0 1-.963.5l-8.4 3.369a5.341 5.341 0 0 0-3.252 3.947l-3.501 18.357a9.414 9.414 0 0 1-9.276 7.66h-36.876a22.691 22.691 0 0 0-16.612 7.247l-21.694 23.383a5.308 5.308 0 0 1-3.9 1.7h-12.575a58.664 58.664 0 0 1-30.034-8.251 5.329 5.329 0 0 1-1.857-7.275l16.578-27.807a5.328 5.328 0 0 0-.612-6.292 5.322 5.322 0 0 1 .385-7.515l5.556-5a7.708 7.708 0 0 1 9.131-.88l2.434 1.423a5.335 5.335 0 0 0 5.81-.22l6.36-4.49a3.438 3.438 0 0 0 1.038-4.442l-5.391-9.956a5.321 5.321 0 0 0-6.285-2.537l-20.9 6.6a5.335 5.335 0 0 0-1.857 1.024L161.693 561a7.035 7.035 0 0 1-9.908-.784 7.119 7.119 0 0 1-1.204-2.016z" class="cls-4" transform="translate(-144.928 -253.146)"/>
                    <path id="패스_87" d="M396.657 551.755l6.106-6.106a3.983 3.983 0 0 1 2.819-1.169h6.876c3.122 0 3.974.77 3.974 3.651l1.086 3.053a13.51 13.51 0 0 0 1.375 2.682l16.035 14.309a3.981 3.981 0 0 1 .4 5.616l-.008.008a.472.472 0 0 1-.076.089l-4.9 4.813a3.982 3.982 0 0 1-2.929 1.279h-16.5a8.114 8.114 0 0 1-7.316-4.607l-1.148-2.413a4 4 0 0 1-.385-1.712l.048-4.476a4.027 4.027 0 0 0-.639-2.166l-5.336-7.845a3.988 3.988 0 0 1 .518-5.006z" class="cls-4" transform="translate(-216.7 -275.205)"/>
                    <path id="패스_88" d="M441.324 495.259l-4.2-4.978a5.839 5.839 0 0 1-1.313-4.717l1.843-11.455a3.712 3.712 0 0 1 2.51-2.936 4.064 4.064 0 0 0 1.492-6.876l-25.482-23.289a2.427 2.427 0 0 1-.605-2.716l1.6-3.864a2.427 2.427 0 0 1 3.168-1.321l.1.041 29 13.436a19.936 19.936 0 0 0 11.937 1.52l21.914-4a8.809 8.809 0 0 1 7.708 2.345l1.804 1.751a4.125 4.125 0 0 0 5.556.144l5.136-4.518A12.775 12.775 0 0 1 517 441.7l8.939 3.857a3.307 3.307 0 0 1 1.987 3.28l-1.588 21.185a3.631 3.631 0 0 0 3.342 3.892 1.933 1.933 0 0 0 .282 0h18.848a5.7 5.7 0 0 1 5.7 5.7v13.752a13.016 13.016 0 0 0 7.708 11.882l25.744 11.5a8.7 8.7 0 0 1 3.19 2.42l8.506 10.231a8.849 8.849 0 0 1 1.616 8.354l-2.255 6.986a4.765 4.765 0 0 0 2.915 5.941l3.514 1.279a1.87 1.87 0 0 1 1.128 2.392 2.157 2.157 0 0 1-.1.22l-2.874 5.611a4.345 4.345 0 0 1-.247.433 5.192 5.192 0 0 1-7.2 1.445l-9.888-6.367a12.438 12.438 0 0 0-8.664-1.822l-23.64 3.734a11.943 11.943 0 0 1-10.72-3.61c-.158-.172-.316-.351-.461-.536l-16.963-20.779a2.75 2.75 0 0 0-3.307-.756l-3.864 1.795a2.75 2.75 0 0 0-1.43 3.438l.97 2.634a6.188 6.188 0 0 1-1.76 6.8l-1.011.88a16.009 16.009 0 0 1-9.791 3.878l-1.85.083a6.957 6.957 0 0 0-5.411 2.957c-1.623 2.331-3.988 5.714-5.7 8.162a6.272 6.272 0 0 1-5.9 2.627l-32.613-4.016a2.213 2.213 0 0 1-1.925-1.932l-2.455-20.36a2.517 2.517 0 0 1 2.193-2.8h1.224a7.72 7.72 0 0 0 5.5-2.29l12.535-12.611a9.625 9.625 0 0 0 2.805-6.8v-5.92a11.5 11.5 0 0 0-11.38-11.524l-18.256-.2a4.126 4.126 0 0 1-3.069-1.466z" class="cls-4" transform="translate(-216.72 -238.045)"/>
                    <path id="패스_89" d="M281.147 449.446L297.5 437.07a1.458 1.458 0 0 0 .3-2.039l-.018-.023a1.058 1.058 0 0 0-.165-.186l-1.114-1.038a2.167 2.167 0 0 0-2.5-.337l-7.041 3.692a7.068 7.068 0 0 1-6.752-.117l-2.482-1.41a3.981 3.981 0 0 0-3.259-.3l-9.73 3.342a19.589 19.589 0 0 1-6.133 1.066l-6.381.089a21.111 21.111 0 0 0-16.571 8.382 7.219 7.219 0 0 1-5.686 2.847h-2.138a8.637 8.637 0 0 0-6.072 2.53l-4.621 4.621a2.338 2.338 0 0 0 1.224 3.954l24.506 2.75a8.517 8.517 0 0 1 4.633 2.007 3.548 3.548 0 0 0 4.545.076 3.562 3.562 0 0 1 4.126-.248l10.857 6.718a3.741 3.741 0 0 0 3.328.3l26.4-10.376a4.815 4.815 0 0 1 4.126.275l3.1 1.719a1.534 1.534 0 0 0 2.015-.488l2.248-3.328a1.581 1.581 0 0 0-.179-1.987l-1.018-1.066a1.6 1.6 0 0 0-1.135-.474h-21.878a4.813 4.813 0 0 1-2.888-8.581z" class="cls-4" transform="translate(-167.272 -243.293)"/>
                    <path id="패스_90" d="M305.29 386.255l1.121-1.712a1.313 1.313 0 0 1 1.581-.5l.8.33a4.565 4.565 0 0 0 4.648-.736l5.5-4.607a1.21 1.21 0 0 1 1.65.076l10.431 10.534a1.849 1.849 0 0 1 0 2.592l-3.163 3.232a2.82 2.82 0 0 1-1.994.832h-2.991a4.49 4.49 0 0 0-4.49 4.49v.323l.254 3.514a1.162 1.162 0 0 1-1.058 1.257h-.014a1.117 1.117 0 0 1-.612-.117l-7.515-3.651a2.751 2.751 0 0 1-1.478-1.822l-3-12.109a2.441 2.441 0 0 1 .33-1.926z" class="cls-4" transform="translate(-190.917 -228)"/>
                    <path id="패스_91" d="M224.126 412.326l27.538-22a2.682 2.682 0 0 1 2.448-.474l12.2 3.6a2.8 2.8 0 0 1 1.918 2l2.572 10.39a3.946 3.946 0 0 0 2.262 2.675l11.572 5.019a2.063 2.063 0 0 1 1.128 1.258l.337 1.114a2.063 2.063 0 0 1-1.052 2.413l-4.126 2a2.971 2.971 0 0 1-2.75-.076l-3.067-1.7a9.187 9.187 0 0 0-7.9-.488l-6.5 2.62a27.613 27.613 0 0 1-10.314 2h-5.329a19.646 19.646 0 0 0-14.6 6.5l-3.053 3.369a2.683 2.683 0 0 1-1.98.88h-3.287a7.832 7.832 0 0 0-5.329 2.063l-5.79 5.308a2.751 2.751 0 0 1-3.885-.151l-.1-.11-6.3-7.564a2.379 2.379 0 0 1 .309-3.349 2.466 2.466 0 0 1 .688-.4l17.575-6.532a4.626 4.626 0 0 0 2.991-3.885l.385-3.837a3.876 3.876 0 0 1 1.439-2.643z" class="cls-4" transform="translate(-162.192 -230.677)"/>
                    <path id="패스_92" d="M267.7 358.237c1.341 2.317 4.311 7.33 5.927 10.046a5.5 5.5 0 0 0 3.149 2.469l12.727 3.885a1.114 1.114 0 0 0 1.169-.323l1.375-1.5a1.135 1.135 0 0 0-.083-1.6.483.483 0 0 0-.069-.089l-3.988-2.895a3.74 3.74 0 0 1-1.155-4.676l5.384-10.933a1.657 1.657 0 0 0-.749-2.207l-.089-.041-12.315-5.233a1.939 1.939 0 0 0-2.248.529l-8.774 10.273a1.987 1.987 0 0 0-.261 2.295z" class="cls-4" transform="translate(-180.167 -218.296)"/>
                    <path id="패스_93" fill="#d1f9ac" d="M425.219 409.435l2.833-6.422a4.687 4.687 0 0 1 2.805-2.558 5.151 5.151 0 0 0 3.287-3.328l.873-2.75a3.739 3.739 0 0 1 3.122-2.579l4.181-.5a5.809 5.809 0 0 0 3.438-1.664l5.226-5.24a8.559 8.559 0 0 1 4.016-2.257l10.953-2.7a9.515 9.515 0 0 1 2.29-.282h14.44a4.813 4.813 0 0 1 4.579 3.328l4.394 13.58a3.83 3.83 0 0 1-2.015 4.655l-4.579 2.159a1.918 1.918 0 0 0-.921 2.544 2.008 2.008 0 0 0 .3.454l1.74 1.967a2.915 2.915 0 0 1-.243 4.116l-.011.01-13.559 11.852a11.788 11.788 0 0 1-5.563 2.675l-4.614.86a10.153 10.153 0 0 1-6.191-.785l-29.5-13.752a2.571 2.571 0 0 1-1.281-3.383z" transform="translate(-224.544 -227.738)"/>
                    <path id="패스_94" d="M338.59 277.709l5.054 1.588a7.282 7.282 0 0 0 6.1-.8l4.724-3a2.276 2.276 0 0 1 1.726-.3l5.4 1.224a1.135 1.135 0 0 1 .488 1.967l-5.906 5.061.88 2.613a.991.991 0 0 1-.616 1.258h-.072l-1.6.406a1 1 0 0 1-1.141-.536 9.5 9.5 0 0 0-10.314-5.281l-8.038 1.451a7.04 7.04 0 0 0-5.219 4.187l-4.593 10.864A4.771 4.771 0 0 1 322.8 301l-12.652 4.951a2.833 2.833 0 0 1-3.025-.633l-9.7-9.592a5.928 5.928 0 0 0-7.405-.75 2.173 2.173 0 0 1-2.125.131l-36.2-17.7a1.155 1.155 0 0 1-.543-1.52c.578-1.258 1.568-3.438 2.283-4.813a1.678 1.678 0 0 1 2.063-.8l4.263 1.623a3.947 3.947 0 0 0 2.7.041l34.077-11.689a15.5 15.5 0 0 1 5.033-.846H321a2.249 2.249 0 0 1 1.588.688l3.129 3.129a2.432 2.432 0 0 0 1.719.688h2.064a2.391 2.391 0 0 0 1.678-.688l6.188-6.188a1.43 1.43 0 0 1 1.025-.426h1.829a.921.921 0 0 1 .914.914.9.9 0 0 1-.076.358l-5.618 13.064a5.061 5.061 0 0 0 2.741 6.611h.009c.153.06.256.108.4.156z" class="cls-4" transform="translate(-174.597 -192.853)"/>
                    <path id="패스_95" d="M423.7 226.47l3.761 1.712a4.257 4.257 0 0 0 3.053.186l19.473-6.188a4.125 4.125 0 0 0 2.86-3.912V209.5a3.2 3.2 0 0 0-2.324-3.074l-30.674-8.664a2.414 2.414 0 0 1-1.692-2.867l.536-2.3a2.393 2.393 0 0 0-1.781-2.86l-8.492-1.967a2.482 2.482 0 0 0-2.5.873c-2.847 3.582-11.132 14.3-14.1 18.118a3.52 3.52 0 0 1-2.805 1.375H384.3a2.812 2.812 0 0 0-2.709 2.063l-3.122 10.83a2.173 2.173 0 0 0 1.4 2.734l.054.017h.124l5.377 1.3a2.551 2.551 0 0 1 1.885 3.076.97.97 0 0 1-.1.3l-8.561 22.574a2.194 2.194 0 0 0 1.267 2.832h.108l4.352 1.375a2.977 2.977 0 0 0 2.5-.33l5.906-3.775a3.281 3.281 0 0 1 2.482-.433l7.289 1.65a3.85 3.85 0 0 0 3.5-.97l4.064-3.864a2.3 2.3 0 0 0 .323-2.964l-5.246-7.708a5.1 5.1 0 0 1 1.36-7.086l.015-.01a4.513 4.513 0 0 1 .688-.406l6.12-2.847a12.26 12.26 0 0 1 10.324-.022z" class="cls-4" transform="translate(-211.123 -173.821)"/>
                    <path id="패스_96" d="M330.891 231.4l6.14-5.343a3.748 3.748 0 0 1 2.482-.935h3.438a1.066 1.066 0 0 0 1.011-.729l.646-1.932a1.073 1.073 0 0 0-.66-1.366l-.028-.009h-.083l-5.5-1.306a3.307 3.307 0 0 1-2.449-3.985l.062-.22 4.3-13.752a5.273 5.273 0 0 1 5.033-3.7h2.417a5.557 5.557 0 0 0 4.3-2.063l11.112-13.46a19.582 19.582 0 0 1 7.35-5.542l7.33-3.184a2.063 2.063 0 0 0-.083-3.83l-5.576-2.118a6.371 6.371 0 0 0-4.078-.144l-25.3 7.564a8.434 8.434 0 0 1-4.3.144l-23.963-5.46a8.562 8.562 0 0 0-3.981.055l-27.36 6.945a8.5 8.5 0 0 0-5.267 3.988l-21.653 37.492a5.377 5.377 0 0 0-.529 4.126l3.4 12.287a2.113 2.113 0 0 1-.179 1.568 2.111 2.111 0 0 0 .849 2.862l.01.005.131.069 1.967.887a2.152 2.152 0 0 0 1.561.076l34.38-11.861a7.731 7.731 0 0 1 2.53-.426H324a4.463 4.463 0 0 1 3.479 1.664l1.148 1.437a1.623 1.623 0 0 0 1.258.6 1.6 1.6 0 0 0 1.006-.404z" class="cls-4" transform="translate(-175.667 -167.512)"/>
                    <path id="패스_97" d="M256.431 290.855l-33.782-16.605a4.263 4.263 0 0 1-1.939-5.707c0-.062.062-.124.1-.186l5.5-9.956a4.413 4.413 0 0 0 .406-3.287L224 245.02a3.032 3.032 0 0 0-2.929-2.242H215.1a4.548 4.548 0 0 0-1.63.3l-12.77 4.864a3.658 3.658 0 0 1-2.75-.069l-19.7-8.657a2.386 2.386 0 0 0-3.08 1.073l-2.53 4.813a2.648 2.648 0 0 0 0 2.482l1.76 3.19a2.8 2.8 0 0 1 .131 2.413l-6.7 16.248a1.974 1.974 0 0 0 .605 2.3l1.526 1.169a1.637 1.637 0 0 1 .275 2.3 1.7 1.7 0 0 1-.213.227l-1.375 1.176a2.634 2.634 0 0 0-.756 2.888l7.11 19.714a2.482 2.482 0 0 0 3.184 1.478h.055l18.283-6.807a7.91 7.91 0 0 0 1.6-.832l14.048-9.723a3.547 3.547 0 0 1 3.864-.117l11.084 6.684a3.555 3.555 0 0 1 1.375 1.575l1.375 3.122a3.44 3.44 0 0 0 2.42 1.967l17.046 3.775a2.8 2.8 0 0 0 2.578-.749l5.075-5.02a2.29 2.29 0 0 0 .056-3.238l-.008-.008a2.334 2.334 0 0 0-.607-.461z" class="cls-4" transform="translate(-152.037 -189.848)"/>
                    <path id="패스_98" d="M494.55 356.4h11.3a3.548 3.548 0 0 0 2.455-.983l1.52-1.458a3.307 3.307 0 0 1 2.283-.915h18.16a8.111 8.111 0 0 0 5.377-2.063l9.07-8.017a1.189 1.189 0 0 0-.516-2.063l-9.159-2.1a3.26 3.26 0 0 1-2.537-3.177v-2.914a3.8 3.8 0 0 0-2.187-3.438l-16-7.495a2.4 2.4 0 0 0-2.5.282l-5.233 4.126a2.379 2.379 0 0 0-.763 2.709l1.87 5.074a2.847 2.847 0 0 1-.956 3.252l-11.043 8.361a2.9 2.9 0 0 0-1.025 1.506l-1.912 6.931a1.856 1.856 0 0 0 1.253 2.307h.012a2 2 0 0 0 .531.075z" class="cls-4" transform="translate(-244.217 -211.526)"/>
                    <path id="패스_99" d="M474.32 305.17h7.791a3.287 3.287 0 0 1 3.28 3.28v2.991a3.264 3.264 0 0 0 .956 2.31l5.893 5.893a1.739 1.739 0 0 1-.612 2.847l-18.25 7.009a2.784 2.784 0 0 1-3.046-.688l-2.338-2.468a2.606 2.606 0 0 1 0-3.589l6.5-6.78a2.063 2.063 0 0 0-.076-2.909l-2.358-2.221a3.3 3.3 0 0 1-.969-3.019 3.286 3.286 0 0 1 3.229-2.656z" class="cls-4" transform="translate(-237.63 -206.961)"/>
                    <path id="패스_100" d="M511.889 414.255l-4.249.688a1.059 1.059 0 0 1-1.217-.859 1.045 1.045 0 0 1 .323-.949l9.173-8.588a4.311 4.311 0 0 0 .2-6.085l-.041-.041a2.18 2.18 0 0 1 .062-3.08 2.209 2.209 0 0 1 .626-.419l2.021-.9a4.731 4.731 0 0 0 2.606-5.707l-5.047-16.592a3.844 3.844 0 0 1 3.679-4.958h17.438a7.956 7.956 0 0 0 5.625-2.331l6.36-6.34a5.087 5.087 0 0 1 5.363-1.183l1.066.392a5.356 5.356 0 0 0 5.769-1.375l1.114-1.2a8.1 8.1 0 0 1 5.934-2.592h13.147a5.921 5.921 0 0 1 5.714 4.359l4.064 14.8a4.917 4.917 0 0 1-1.458 4.964 4.462 4.462 0 0 0-.351 6.3 2.19 2.19 0 0 0 .172.186l17.644 17.651a5.418 5.418 0 0 0 6.051 1.114 5.982 5.982 0 0 1 6.663 1.231l4.518 4.524a3.438 3.438 0 0 1 0 4.861l-.179.165-34.944 29.381a12.091 12.091 0 0 1-7.763 2.826h-20.238a1.808 1.808 0 0 1-1.808-1.795v-.124l1.341-20.346a4.579 4.579 0 0 0-2.675-4.483l-11.648-5.315a15.993 15.993 0 0 0-17 2.352l-4.518 4.126a1.217 1.217 0 0 1-1.623 0l-7.364-3.919a7.073 7.073 0 0 0-4.55-.739z" class="cls-4" transform="translate(-245.156 -219.183)"/>
                </g>
            </g>
            <g id="그룹_12" transform="translate(-1 -1)">
                <text id="파주" fill="#608333" font-family="NotoSansCJKkr-Medium, Noto Sans CJK KR" font-size="12px" font-weight="500" letter-spacing="-0.033em" transform="translate(234 188.028)">
                    <tspan x="-16.16" y="0">성남시</tspan><tspan x="-16.16" y="14">분당구</tspan>
                </text>
            </g>
        </g>
        <g id="mark1" transform="translate(50 -59.2)">
            <g id="Icon_42_Pin_42" transform="translate(167 199.2)">
                <path id="guide_box-2" d="M0 0H42V42H0z" class="cls-1" transform="translate(0 1)"/>
                <g id="icon" transform="translate(6 3)">
                    <path id="Shape" fill="#635447" d="M14.979 0a15.217 15.217 0 0 1 10.782 4.46A14.934 14.934 0 0 1 30 15.159q0 10.425-11.839 21.919l-.928.886a3.288 3.288 0 0 1-4.5 0Q0 25.981 0 15.159A14.961 14.961 0 0 1 4.2 4.434 15.157 15.157 0 0 1 14.979 0z"/>
                </g>
            </g>
            <text id="수원" fill="#fff" font-family="PulmuoneLOHASOTFBold, Pulmuone LOHAS OTF Bold" font-size="9px" transform="translate(188 222.2)">
                <tspan x="-10.989" y="0">ORGA</tspan>
            </text>
        </g>
    </g>
</svg>
