<svg xmlns="http://www.w3.org/2000/svg" width="44" height="44" viewBox="0 0 44 44">
    <g fill="none" fill-rule="evenodd">
        <g>
            <g>
                <g>
                    <g>
                        <g>
                            <path fill="#333" d="M25.903 9.308c4.589 0 7.697 1.478 9.625 3.844.637-1.793 1.96-2.705 3.89-2.584 1.884.142 3.099 1.597 3.099 3.336 0 1.76-1.246 3.157-3.155 3.157-.414 0-.75-.336-.75-.75s.336-.75.75-.75c1.04 0 1.655-.69 1.655-1.657 0-.986-.646-1.76-1.702-1.84-1.524-.095-2.35.71-2.635 2.692-.006.04-.015.08-.027.118l.122.243c.882 1.818 1.293 3.95 1.315 6.234l-.001.535c-.009.538-.038 1.083-.088 1.634l-.055.552c-.031.277-.067.555-.108.834l-.087.56c-.847 5.07-3.682 8.763-8.504 11.08-.15.073-.313.11-.48.11-.57 0-1.04-.431-1.1-.986l-.006-.12v-2.055c0-1.17-.906-2.127-2.055-2.208l-.158-.005h-7.29c-.482 0-.909.313-1.054.773-.439 1.386-1.112 2.486-2.02 3.3-.667.598-1.386 1.027-2.158 1.287-.113.038-.232.058-.352.058-.57 0-1.04-.431-1.1-.986l-.007-.12v-4.076c-4.948.724-8.205-.245-9.77-2.907l-.004-.575.003-1.117c.001-.479.31-.897.755-1.046l.114-.031.088-.02c1.503-.35 2.57-1.832 3.2-4.443l.07-.307-2.695-2.684c-.046-.045-.087-.095-.125-.148-.35-.5-.23-1.19.27-1.541 2.073-1.456 4.253-1.407 6.54.147l.543-.552.537-.534c4.1-4.028 7.816-6.452 14.91-6.452zm0 1.5c-6.132 0-9.427 1.604-14.275 6.437l-.642.649c-.507.52-1.315.602-1.917.193-1.57-1.068-2.922-1.222-4.278-.503l-.158.087 2.35 2.338c.327.326.484.783.43 1.236l-.024.151c-.683 3.085-1.962 5.083-3.961 5.762l-.234.072v.933l.017.025c1.248 1.733 3.727 2.413 7.666 1.898l.374-.052c.86-.126 1.637.502 1.711 1.35l.006.136-.002 3.484.202-.105c.235-.131.465-.288.69-.47l.224-.19c.635-.57 1.133-1.34 1.489-2.332l.102-.305c.325-1.026 1.245-1.742 2.307-1.814l.178-.006h6.65c-1.339-1.772-1.487-3.951-.427-6.438.163-.381.603-.558.984-.396.381.162.558.603.396.984-1.136 2.664-.611 4.664 1.614 6.233.123.086.212.204.264.334l.09.066c.823.642 1.369 1.622 1.427 2.732l.005.198v1.415l.15-.077c3.832-2.053 6.101-5.1 6.892-9.236l.068-.379c1.48-8.858-1.908-14.41-10.368-14.41zm-16.037 12.4c.514 0 .93.418.93.932s-.416.93-.93.93-.931-.416-.931-.93.417-.931.93-.931z" transform="translate(-1136 -674) translate(136 320) translate(0 340) translate(876) translate(124 14)"/>
                        </g>
                    </g>
                </g>
            </g>
        </g>
    </g>
</svg>
