<svg xmlns="http://www.w3.org/2000/svg" width="44" height="44" viewBox="0 0 44 44">
    <g fill="none" fill-rule="evenodd">
        <g>
            <g>
                <g>
                    <g>
                        <g>
                            <path d="M0 0H44V44H0z" transform="translate(-844 -674) translate(136 320) translate(0 340) translate(584) translate(124 14)"/>
                            <path fill="#333" d="M31.013 7.893c.414 0 .75.336.75.75 0 .38-.282.693-.648.743l-.102.007H18.508l-.715.007-.327.007-.605.02c-.77.036-1.407.103-2.104.224-2.792.484-4.565 1.672-5.15 3.917l13.831.001c7.057 0 12.02 2.88 12.61 9.824.64 7.526-3.975 11.494-12.403 11.703l-.368.007h-.28c-.108.001-.205-.016-.29-.048-.335 2.767-2.693 4.057-5.382 4.057H12.65c-.45 0-.8-.394-.744-.841.25-2.039.991-3.326 2.059-4.02-1.245-.761-2.065-2.048-2.065-3.903 0-.38.282-.694.648-.744l.102-.006h5.63c2.18 0 3.842 1.166 4.375 4.078.06-.028.126-.049.2-.06l.115-.012h.038c.687-.03 1.558-.276 2.261-.783 1.025-.74 1.59-1.94 1.514-3.79-.113-2.734-1.922-4.03-5.805-3.953l-.296.009h-3.329c-2.628 0-5.972-1.61-7.863-4.123-1.074-1.428-1.644-3.794-1.607-5.465l.01-.273.004-.118c.107-4.101 2.578-6.237 6.604-6.935.618-.107 1.185-.175 1.814-.217l.555-.03c.096-.005.194-.008.294-.011l.63-.015.698-.006 12.52-.001zm-9.837 27.21l-4.806.002-.159.002c-1.307.046-2.23.674-2.653 2.42l-.018.084h3.785c1.904 0 3.469-.788 3.841-2.457l.01-.05zm-7.702-4.006l.01.05c.358 1.605 1.819 2.396 3.623 2.454l.218.004 3.785-.001-.018-.084c-.404-1.67-1.267-2.317-2.485-2.41l-.168-.01-.159-.002-4.806-.001zm20.85-9.125l-6.2 5.76c.087.386.14.798.158 1.236.07 1.694-.304 3.002-.963 3.967l-.135.188-.097.122.133-.025c5.026-1.012 7.594-4.026 7.374-9.083l-.017-.312-.023-.305c-.046-.545-.124-1.061-.23-1.548zm-9.385-6.855v9.03c1.165.44 2.038 1.135 2.6 2.08l6.293-5.846c-1.384-3.353-4.547-4.972-8.893-5.264zm-1.5-.048H9.418l-.013.178c-.02.346-.018.738.013 1.144.106 1.378.512 2.664 1.27 3.671 1.543 2.052 4.287 3.42 6.42 3.52l.244.005h3.302c1.027-.037 1.956.016 2.784.16v-8.678zm-9.755 1.789c.608 0 1.1.492 1.1 1.1 0 .607-.492 1.1-1.1 1.1-.607 0-1.1-.493-1.1-1.1 0-.608.493-1.1 1.1-1.1z" transform="translate(-844 -674) translate(136 320) translate(0 340) translate(584) translate(124 14)"/>
                        </g>
                    </g>
                </g>
            </g>
        </g>
    </g>
</svg>
