<svg xmlns="http://www.w3.org/2000/svg" width="44" height="44" viewBox="0 0 44 44">
    <g fill="none" fill-rule="evenodd">
        <g>
            <g>
                <g>
                    <g>
                        <g>
                            <path fill="#AA8153" d="M21.916 5.851l.204.003c1.854.064 3.249.822 4.112 2.234l.12.207.05.096.057-.022c2.809-1.03 6.265 1.292 6.753 4.528l.027.208.017.174.091.025c4.196 1.178 5.538 6.357 3.348 9.723l-.125.185-.098.135.058.136c1.035 2.468.842 4.666-.35 6.384l-.143.196-.164.207c-.897 1.082-2.186 1.847-3.354 2.092l-.232.041-.211.026-.148.191c-1.77 2.239-4.136 3.223-7.017 2.92l.031.415.008.222c0 1.688-1.311 3.073-2.95 3.073-1.639 0-2.95-1.385-2.95-3.073l.002-.096.022-.37.018-.199c-2.988.383-5.436-.592-7.254-2.892l-.147-.191-.212-.026c-1.226-.185-2.628-.979-3.585-2.133l-.165-.207c-1.318-1.746-1.567-4.017-.493-6.58l.059-.136-.098-.135c-2.364-3.358-1.052-8.708 3.223-9.908l.091-.025.016-.174c.368-3.344 3.912-5.789 6.78-4.736l.057.022.051-.096c.85-1.546 2.29-2.374 4.231-2.44l.204-.004h.066zM22 22.86l-.084.717-.996 8.71-.284 2.739-.073.868-.012.243.005.185c.068.808.697 1.428 1.444 1.428.791 0 1.45-.695 1.45-1.573l-.013-.283-.038-.483-.096-1.01-.223-2.114-.44-3.923L22 22.86zm-.117-15.511l-.21.005c-1.66.062-2.695.81-3.236 2.318-.164.458-.713.64-1.119.373-2.098-1.385-5.457.876-5.318 3.807.018.382-.253.716-.63.776-3.813.614-4.968 5.473-2.637 8.113.2.228.245.553.112.826-1.124 2.302-.986 4.179.081 5.592.782 1.035 2.062 1.73 2.969 1.783l.165.002c.254-.008.495.113.64.321 1.588 2.28 3.719 3.169 6.515 2.714l.02-.003.315-2.951.24-2.107c-.082-.015-.163-.044-.238-.088l-.091-.063-5.628-4.483c-.324-.258-.378-.73-.12-1.054.235-.295.646-.366.963-.182l.091.063 5.21 4.15.064-.557.433-3.668-3.12-2.666c-.315-.269-.353-.742-.084-1.057.245-.286.659-.343.968-.149l.09.066 2.357 2.014.57-4.833c.1-.841 1.27-.88 1.468-.115l.022.115.568 4.834 2.36-2.015.089-.066c.31-.194.723-.137.968.149.244.286.236.703-.004.979l-.08.078-3.122 2.668.497 4.224 5.212-4.151.091-.063c.317-.184.728-.113.963.182.234.294.211.711-.038.978l-.082.076-5.628 4.483-.091.063c-.075.043-.155.073-.237.088l.481 4.34.074.752.072.011c2.656.35 4.695-.555 6.228-2.756.125-.179.32-.293.532-.317l.108-.004.166-.002c.907-.054 2.187-.748 2.968-1.783 1.067-1.413 1.205-3.29.082-5.592-.133-.273-.09-.598.111-.826 2.331-2.64 1.177-7.5-2.637-8.113-.377-.06-.648-.394-.63-.776.14-2.931-3.22-5.192-5.318-3.807-.405.267-.955.085-1.119-.373-.565-1.576-1.67-2.322-3.465-2.322l.019-.001z" transform="translate(-552 -674) translate(136 320) translate(0 340) translate(292) translate(124 14)"/>
                        </g>
                    </g>
                </g>
            </g>
        </g>
    </g>
</svg>
