<svg version="1.1" id="expand" xmlns="http://www.w3.org/2000/svg" xmlns:xlink="http://www.w3.org/1999/xlink" x="0px"
	 y="0px" viewBox="0 0 48 48" style="enable-background:new 0 0 48 48;" xml:space="preserve">
<path fill="#040000" d="M1.6,14.4c0.9,0,1.7-0.8,1.7-1.7V5.6l10.8,10.8c0.3,0.3,0.8,0.5,1.2,0.5c0.4,0,0.9-0.2,1.2-0.5
	c0.7-0.7,0.7-1.7,0-2.4L5.7,3.2h7.1c0.9,0,1.7-0.8,1.7-1.7s-0.8-1.7-1.7-1.7H1.6c-0.9,0-1.7,0.8-1.7,1.7v11.2
	C-0.1,13.7,0.7,14.4,1.6,14.4z"/>
<path fill="#040000" d="M46.4,33.5c-0.9,0-1.7,0.8-1.7,1.7v7.1L33.6,31.2c-0.7-0.7-1.7-0.7-2.4,0c-0.7,0.7-0.7,1.7,0,2.4l11.1,11.1
	h-7.1c-0.9,0-1.7,0.8-1.7,1.7s0.8,1.7,1.7,1.7h11.2c0.9,0,1.7-0.8,1.7-1.7V35.1C48.1,34.2,47.3,33.5,46.4,33.5z"/>
<path fill="#040000" d="M14.4,31.2L3.3,42.3v-7.1c0-0.9-0.8-1.7-1.7-1.7s-1.7,0.8-1.7,1.7v11.2c0,0.9,0.8,1.7,1.7,1.7h11.2
	c0.9,0,1.7-0.8,1.7-1.7s-0.8-1.7-1.7-1.7H5.7l11.1-11.1c0.7-0.7,0.7-1.7,0-2.4C16.1,30.5,15.1,30.5,14.4,31.2z"/>
<path fill="#040000" d="M46.4-0.1H35.2c-0.9,0-1.7,0.8-1.7,1.7s0.8,1.7,1.7,1.7h7.1L31.5,14c-0.7,0.7-0.7,1.7,0,2.4
	c0.3,0.3,0.8,0.5,1.2,0.5c0.4,0,0.9-0.2,1.2-0.5L44.7,5.6v7.1c0,0.9,0.8,1.7,1.7,1.7c0.9,0,1.7-0.8,1.7-1.7V1.6
	C48.1,0.6,47.3-0.1,46.4-0.1z"/>
</svg>
