<svg xmlns="http://www.w3.org/2000/svg" width="64" height="64" viewBox="0 0 64 64">
    <g fill="none" fill-rule="evenodd">
        <g>
            <g>
                <g>
                    <g>
                        <path fill="#333" d="M18.36 15.556l5.714 9.898c.835 1.445.588 3.217-.49 4.38l2.078 3.459.066.136H34.8c.017-.046.038-.09.063-.135 1.126-1.95 2.726-3.529 4.785-4.727.409-.238.933-.1 1.172.31.238.409.1.934-.31 1.172-1.54.896-2.772 2.02-3.706 3.38h8.987l.104-.19c1.118-2.12 1.642-5.313 1.542-9.57l-.007-.236h-.365c-5.19.015-9.2.95-12.034 2.78l-.31.208c-1.15.793-2.013 1.74-2.601 2.846-.223.418-.742.577-1.16.355-.418-.222-.576-.741-.354-1.16.72-1.354 1.77-2.506 3.14-3.452 3.392-2.341 8.239-3.422 14.531-3.28.451.01.817.368.837.819.21 4.674-.248 8.297-1.406 10.88h4.292c.476 0 .861.389.857.865l-.004.352c-.209 10.437-9.235 18.783-20.282 18.783-11.192 0-20.286-8.559-20.286-19.143 0-.474.384-.857.857-.857h10.601l-1.583-2.64c-1.67.629-3.598-.024-4.52-1.62l-5.714-9.898c-1.026-1.777-.417-4.048 1.36-5.074 1.776-1.026 4.047-.417 5.073 1.36zm32.76 19.587H14.024l.01.19c.578 9.128 8.647 16.381 18.539 16.381l.38-.003c9.708-.183 17.592-7.36 18.159-16.384l.01-.184zM14.144 15.682c-.956.552-1.284 1.775-.732 2.732l5.715 9.897c.552.957 1.775 1.284 2.732.732.956-.552 1.284-1.775.732-2.732l-5.715-9.897c-.552-.957-1.775-1.285-2.732-.732zm16.095-.274c.297-.311.772-.35 1.114-.108l.097.08 3.287 3.143.085.094c.257.33.24.807-.057 1.118-.298.31-.773.349-1.114.108l-.098-.081-3.287-3.142-.085-.095c-.257-.33-.24-.806.058-1.117zm-6.343-2.506c.411-.139.854.052 1.042.43l.044.108 1.546 4.57.03.113c.08.415-.157.835-.568.974-.41.14-.854-.051-1.041-.43l-.045-.107-1.546-4.571-.03-.113c-.08-.414.157-.835.568-.974zm12.178-3.891c.343-.24.818-.198 1.114.115.295.313.31.79.05 1.118l-.085.093-2.42 2.286-.098.08c-.342.24-.818.198-1.113-.114-.296-.313-.31-.79-.051-1.118l.085-.094 2.42-2.286.098-.08z" transform="translate(-468 -630) translate(136 320) translate(72 310) translate(260) matrix(-1 0 0 1 64.286 0)"/>
                    </g>
                </g>
            </g>
        </g>
    </g>
</svg>
