<svg xmlns="http://www.w3.org/2000/svg" width="64" height="64" viewBox="0 0 64 64">
    <g fill="none" fill-rule="evenodd">
        <g>
            <g>
                <g>
                    <g fill="#333">
                        <path d="M19.524 32.26c.83 1.255 1.47 2.609 1.92 4.062.14.453-.113.933-.565 1.073-.452.14-.932-.114-1.072-.566-.326-1.052-.764-2.047-1.315-2.985-7.153 3.238-13.165.44-16.327-6.034l-.15-.316-.214-.477-.108-.258-.196-.495-.176-.488-.168-.514-.15-.503-.13-.493-.122-.517-.102-.504-.086-.49-.04-.262-.063-.498-.046-.467-.019-.252c-.03-.42.249-.801.66-.898 1.31-.307 2.552-.533 3.727-.678l.581-.066.724-.064c8.752-.649 13.347 3.631 13.437 12.69zM42.615 5.066l.105.551.194 1.087.09.535.169 1.054.077.519.14 1.02.064.503.113.988c.035.326.067.648.096.966l.077.945c.958 13.064-3.396 19.652-13.142 19.332-.473-.015-.844-.412-.829-.885.016-.473.412-.844.885-.828 8.101.266 11.953-4.905 11.487-15.881l-.044-.856-.029-.436-.07-.89c-.026-.301-.055-.605-.087-.914l-.104-.936c-.037-.316-.078-.635-.121-.959l-.138-.982-.076-.5-.163-1.017-.224-1.275-.29.05C31.869 7.83 26.189 11.32 23.66 16.699l-.15.331c-2.32 5.27-1.522 9.565 2.437 13.083.628-4.607 2.426-8.58 5.396-11.9.315-.352.857-.382 1.21-.066.353.315.383.857.067 1.21-3.9 4.358-5.612 9.94-5.133 16.799.033.472-.323.881-.795.914-.472.033-.882-.323-.915-.795-.099-1.415-.109-2.782-.03-4.102l-.31-.245c-5.051-4.098-6.234-9.37-3.497-15.588 2.819-6.403 9.424-10.376 19.703-11.96.456-.07.885.233.972.686zM2.678 21.778l-.505.105.05.378.11.665.095.467.105.444.12.457.14.469.145.443.163.452.181.46.089.211.203.453c2.67 5.735 7.602 8.241 13.72 5.713l.225-.096c-1.63-2.13-3.932-3.928-6.917-5.397-.424-.209-.6-.723-.39-1.148.209-.424.723-.6 1.147-.39 2.546 1.253 4.651 2.747 6.31 4.48l-.03-.245c-.949-7.18-5.813-9.767-14.961-7.921zM13.111.682c.327-.578 1.16-.58 1.49-.003l.725 1.288.445.813.415.778.475.919.432.873.38.81.336.76.126.3.217.546c.462 1.208.698 2.165.698 2.904 0 2.802-2.231 5.08-4.993 5.08-2.762 0-4.994-2.278-4.994-5.08 0-.672.195-1.524.581-2.59l.122-.325.297-.737.173-.404.352-.776.404-.84.355-.707.483-.93.535-.99.46-.83.486-.859zm.745 2.17l-.188.342-.423.782-.57 1.094-.345.685-.316.654-.141.303-.352.787-.15.355-.208.524c-.394 1.03-.586 1.805-.586 2.292 0 1.863 1.472 3.366 3.28 3.366 1.807 0 3.279-1.503 3.279-3.366 0-.442-.158-1.123-.48-2.01l-.101-.272-.209-.524-.11-.264-.255-.58-.134-.294-.298-.63-.418-.846-.462-.894-.406-.76-.407-.744z" transform="translate(-208 -630) translate(136 320) translate(72 310) rotate(2 -430.946 310.933)"/>
                    </g>
                </g>
            </g>
        </g>
    </g>
</svg>
