<svg xmlns="http://www.w3.org/2000/svg" width="64" height="64" viewBox="0 0 64 64">
    <g fill="none" fill-rule="evenodd">
        <g>
            <g>
                <g>
                    <g>
                        <path fill="#333" d="M32 9.143c4.233 0 7.706 3.123 7.852 7.06l.005.259v1.68h6.14c.948 0 1.735.713 1.844 1.638l.012.165.973 33c.03.972-.693 1.79-1.641 1.9l-.16.011-29.995.001c-.972 0-1.77-.746-1.85-1.708l-.007-.162.974-33.042c.028-.948.763-1.713 1.69-1.795l.166-.007h6.139v-1.681c0-4.058 3.533-7.32 7.858-7.32zm-7.858 10.714h-6.139c-.062 0-.114.04-.134.095l-.009.044L16.887 53c0 .063.041.117.098.136l.045.007h29.94l.05-.009c.041-.015.074-.05.087-.093l.006-.045-.973-33c-.002-.062-.043-.114-.099-.132l-.044-.007h-6.14V24c0 .473-.384.857-.857.857-.434 0-.793-.322-.85-.74L38.144 24l-.001-4.143H25.856L25.857 24c0 .473-.384.857-.857.857-.434 0-.793-.322-.85-.74L24.144 24l-.001-4.143zm11.345 15.334c.237.41.096.934-.314 1.17-6.22 3.587-9.366 7.212-9.561 10.814-.024.433-.365.773-.786.808l-.117.001c-.472-.026-.835-.43-.81-.902.065-1.176.372-2.332.92-3.469-.023-.036-.044-.076-.063-.117-2.144-4.931-1.45-8.78 2.142-11.259 3.392-2.341 8.238-3.422 14.53-3.28.07.002.136.012.2.028l.116.04.048.022c.06.03.115.066.165.108l.08.076.073.09.044.068.03.056.045.118.028.124.009.089c.318 7.064-.891 11.756-3.76 14.048-2.809 2.243-6.191 2.937-10.071 2.088-.463-.101-.755-.558-.654-1.02.101-.463.558-.756 1.02-.655 3.391.743 6.244.157 8.635-1.753 2.145-1.713 3.233-5.407 3.162-11.105l-.016-.718-.365-.001c-5.19.015-9.2.95-12.035 2.78l-.31.208c-2.616 1.806-3.282 4.445-1.952 8.138l.107-.147c1.73-2.327 4.5-4.577 8.29-6.762.41-.237.934-.096 1.17.314zM32 10.857c-3.32 0-6.002 2.397-6.137 5.369l-.006.236v1.68h12.285v-1.68c0-3.08-2.735-5.605-6.142-5.605z" transform="translate(-988 -630) translate(136 320) translate(72 310) translate(780)"/>
                    </g>
                </g>
            </g>
        </g>
    </g>
</svg>
