<svg xmlns="http://www.w3.org/2000/svg" width="24" height="24" viewBox="0 0 24 24">
    <g>
        <path fill="none" d="M0 0H24V24H0z"/>
        <g>
            <path fill="#000" d="M6.742 17.484a1.474 1.474 0 0 1-1.014-.4 22.578 22.578 0 0 1-4.3-5.26A10.278 10.278 0 0 1 0 6.821 6.707 6.707 0 0 1 1.89 2a6.881 6.881 0 0 1 9.7.012 6.688 6.688 0 0 1 1.91 4.809 10.14 10.14 0 0 1-1.332 4.812 21.49 21.49 0 0 1-4 5.052l-.418.4a1.474 1.474 0 0 1-1.008.399zM6.749 3.75a3 3 0 1 0 2.121.878 2.978 2.978 0 0 0-2.121-.878z" transform="translate(5.25 3) translate(0 .6)"/>
        </g>
    </g>
</svg>
