<svg xmlns="http://www.w3.org/2000/svg" width="28" height="28" viewBox="0 0 28 28">
    <g fill="none" fill-rule="evenodd">
        <g>
            <g>
                <g>
                    <g>
                        <path fill="#80C342" d="M21.182 23.976c.428-.403.53-.982.1-1.386l-1.587-1.587c1.109-1.411 1.714-3.503 1.714-6.275v-1.184c0-5.872-2.646-8.644-7.485-8.644-4.838 0-7.484 2.772-7.484 8.644v1.184c0 5.872 2.646 8.644 7.484 8.644 1.714 0 3.1-.353 4.158-1.008l1.714 1.713c.428.429.983.303 1.386-.1zm-7.258-2.923c-3.326 0-4.939-1.865-4.939-6.527v-.78c0-4.663 1.613-6.553 4.94-6.553 3.326 0 4.939 1.89 4.939 6.552v.781c0 2.067-.328 3.579-.983 4.662l-1.966-1.965c-.428-.429-.983-.303-1.386.1-.403.404-.529.958-.1 1.387l1.814 1.84c-.58.327-1.361.503-2.319.503z" transform="translate(-437 -2400) translate(-1 172) translate(437 2228) translate(1)"/>
                    </g>
                </g>
            </g>
        </g>
    </g>
</svg>
