<svg xmlns="http://www.w3.org/2000/svg" width="110.291" height="26.001" viewBox="0 0 110.291 26.001">
    <defs>
        <linearGradient id="linear-gradient" x1=".349" x2="0" y1=".183" y2=".902" gradientUnits="objectBoundingBox">
            <stop offset="0" stop-color="#00c2ff"/>
            <stop offset="0" stop-color="#00c4ff"/>
            <stop offset="1" stop-color="#00e3ff"/>
        </linearGradient>
        <linearGradient id="linear-gradient-2" x1=".853" x2="0" y1=".5" y2=".5" gradientUnits="objectBoundingBox">
            <stop offset="0" stop-color="#ffda00"/>
            <stop offset="1" stop-color="#ffbd00"/>
        </linearGradient>
        <linearGradient id="linear-gradient-3" x1=".799" x2=".126" y1=".562" y2=".497" gradientUnits="objectBoundingBox">
            <stop offset="0" stop-color="#fd3945"/>
            <stop offset="1" stop-color="#dd2353"/>
        </linearGradient>
        <linearGradient id="linear-gradient-4" x1=".5" x2=".5" y2="1" gradientUnits="objectBoundingBox">
            <stop offset="0" stop-color="#0fd974"/>
            <stop offset="1" stop-color="#00f076"/>
        </linearGradient>
        <clipPath id="clip-path">
            <path id="패스_20" d="M52.139 60.821l-3.928-3.931v-.277l3.929-3.929 4.743 2.7c1.329.756 1.329 1.991 0 2.745l-4.655 2.645-.09.052" class="cls-1" transform="translate(-48.211 -52.683)"/>
        </clipPath>
        <clipPath id="clip-path-2">
            <path id="패스_21" d="M57.76 58.871l-4.018-4.018-11.855 11.856a1.545 1.545 0 0 0 1.976.058l13.9-7.9" class="cls-1" transform="translate(-41.887 -54.853)"/>
        </clipPath>
        <clipPath id="clip-path-3">
            <path id="패스_22" d="M57.76 56.544l-13.9-7.9a1.547 1.547 0 0 0-1.976.058l11.859 11.859 4.018-4.018" class="cls-1" transform="translate(-41.887 -48.328)"/>
        </clipPath>
        <style>
            .cls-1{fill:none}.cls-2{fill:#fff}
        </style>
    </defs>
    <g id="goole" transform="translate(-41.652 -48.132)">
        <path id="패스_5" d="M63.364 51.4a2.578 2.578 0 0 1-.711 1.907 2.768 2.768 0 0 1-2.1.846 2.984 2.984 0 1 1 0-5.967 2.978 2.978 0 0 1 1.174.238 2.391 2.391 0 0 1 .894.639l-.5.5a1.931 1.931 0 0 0-1.565-.677A2.162 2.162 0 0 0 59 49.52a2.385 2.385 0 0 0 0 3.294 2.273 2.273 0 0 0 3.155 0 1.806 1.806 0 0 0 .478-1.159h-2.079v-.684h2.771a2.669 2.669 0 0 1 .039.429" class="cls-2" transform="translate(13.94 0.045)"/>
        <path id="패스_6" d="M63.41 51.443h-.1a2.482 2.482 0 0 1-.682 1.839 2.669 2.669 0 0 1-2.03.816 2.888 2.888 0 1 1 0-5.776 2.847 2.847 0 0 1 1.134.231 2.255 2.255 0 0 1 .859.613l.075-.062-.069-.067-.5.5.067.066.071-.06a2.021 2.021 0 0 0-1.637-.712 2.377 2.377 0 1 0 1.665 4.087 1.891 1.891 0 0 0 .506-1.215l.008-.1h-2.082v-.5h2.675v-.094l-.1.015a2.51 2.51 0 0 1 .039.414h.191a2.477 2.477 0 0 0-.038-.438l-.013-.079H60.5v.876h2.171v-.1l-.094-.007a1.714 1.714 0 0 1-.454 1.1 2.181 2.181 0 0 1-3.022 0 2.185 2.185 0 0 1 1.499-3.764 1.826 1.826 0 0 1 1.492.643l.066.079.577-.576.062-.062-.056-.066a2.456 2.456 0 0 0-.932-.666 3.053 3.053 0 0 0-1.209-.247 3.079 3.079 0 1 0 0 6.159 2.873 2.873 0 0 0 2.169-.874l-.069-.067.067.069a2.687 2.687 0 0 0 .739-1.976h-.1" class="cls-2" transform="translate(13.895 0)"/>
        <path id="패스_7" d="M64.564 48.953h-2.6v1.812h2.345v.686h-2.346v1.813h2.6v.7H61.23v-5.713h3.334v.7" class="cls-2" transform="translate(17.126 0.104)"/>
        <path id="패스_8" d="M64.609 49v-.1h-2.7v2h2.345v.5h-2.342v2h2.6v.511H61.37v-5.52h3.143V49h.2v-.8H61.18v5.9h3.52v-.892h-2.6V51.59h2.345v-.877H62.1v-1.621h2.6V49h-.1" class="cls-2" transform="translate(17.082 0.06)"/>
        <path id="패스_9" d="M65.748 53.964h-.736v-5.011h-1.595v-.7h3.925v.7h-1.594v5.011" class="cls-2" transform="translate(19.039 0.104)"/>
        <path id="패스_10" d="M65.792 54.008v-.1h-.641V48.9h-1.594v-.511h3.737v.511H65.7v5.106h.2v-4.914h1.594V48.2h-4.128v.891h1.6V54.1h.925V54h-.1" class="cls-2" transform="translate(18.994 0.06)"/>
        <path id="사각형_60" d="M0 0H0.734V5.712H0z" class="cls-2" transform="translate(89.223 48.356)"/>
        <path id="패스_11" d="M67.071 54.008h.1v-5.617h.542v5.522h-.637v.2h.824V48.2h-.925v5.9h.1V54" class="cls-2" transform="translate(22.152 0.06)"/>
        <path id="패스_12" d="M70.242 53.964h-.734v-5.011h-1.6v-.7h3.925v.7h-1.591v5.011" class="cls-2" transform="translate(22.97 0.104)"/>
        <path id="패스_13" d="M70.286 54.008v-.1h-.639V48.9h-1.6v-.511h3.735v.511h-1.591v5.106h.2v-4.914h1.595V48.2H67.86v.891h1.6V54.1h.925V54h-.1" class="cls-2" transform="translate(22.926 0.06)"/>
        <path id="패스_14" d="M76.316 53.286a2.971 2.971 0 0 1-4.19 0 3.092 3.092 0 0 1 0-4.237 2.956 2.956 0 0 1 4.184 0 3.079 3.079 0 0 1 .006 4.233m-3.648-.48a2.2 2.2 0 0 0 3.1 0 2.427 2.427 0 0 0 0-3.279 2.2 2.2 0 0 0-3.1 0 2.443 2.443 0 0 0 0 3.279z" class="cls-2" transform="translate(25.922 0.045)"/>
        <path id="패스_15" d="M76.361 53.331l-.067-.067a2.874 2.874 0 0 1-4.053 0 2.992 2.992 0 0 1 0-4.1 2.86 2.86 0 0 1 4.049 0 2.987 2.987 0 0 1 0 4.1l.135.133a3.172 3.172 0 0 0 0-4.364 3.048 3.048 0 0 0-4.321 0 3.182 3.182 0 0 0 0 4.368 3.062 3.062 0 0 0 4.325 0l-.067-.066m-3.648-.48l-.067.067a2.292 2.292 0 0 0 3.241 0 2.53 2.53 0 0 0 0-3.412 2.292 2.292 0 0 0-3.241 0 2.535 2.535 0 0 0 0 3.412l.139-.133a2.335 2.335 0 0 1 0-3.146 2.1 2.1 0 0 1 2.97 0 2.34 2.34 0 0 1 0 3.146 2.1 2.1 0 0 1-2.97 0z" class="cls-2" transform="translate(25.878 0)"/>
        <path id="패스_16" d="M74.967 53.964v-5.713h.9l2.775 4.444h.031l-.031-1.1v-3.344h.734v5.712H78.6L75.7 49.3h-.033l.033 1.1v3.557h-.734" class="cls-2" transform="translate(29.142 0.104)"/>
        <path id="패스_17" d="M75.011 54.008h.1v-5.617h.745l2.775 4.444h.183l-.033-1.2v-3.244h.544v5.522H78.7l-2.9-4.66h-.179l.033 1.2v3.461h-.639v.2h.829v-3.666l-.033-1.1h-.1v.1h.033v-.1l-.081.05L78.6 54.1h.914v-5.9h-.925v3.44l.031 1.1h.1v-.094h-.031v.094l.081-.049-2.8-4.489h-1.054v5.9h.1v-.1" class="cls-2" transform="translate(29.098 0.06)"/>
        <path id="패스_18" d="M83.227 57.834a4.049 4.049 0 1 0 4.061 4.049 3.99 3.99 0 0 0-4.061-4.049m0 6.5a2.46 2.46 0 1 1 2.282-2.452 2.342 2.342 0 0 1-2.282 2.453zm-8.868-6.5a4.049 4.049 0 1 0 4.064 4.049 3.992 3.992 0 0 0-4.064-4.049zm0 6.5a2.459 2.459 0 1 1 2.285-2.452 2.343 2.343 0 0 1-2.285 2.453zM63.81 59.077v1.717h4.111a3.594 3.594 0 0 1-.935 2.163 4.219 4.219 0 0 1-3.176 1.256 4.571 4.571 0 0 1 0-9.141 4.379 4.379 0 0 1 3.1 1.228l1.213-1.213a6 6 0 0 0-4.312-1.734 6.29 6.29 0 1 0 0 12.58 5.748 5.748 0 0 0 4.389-1.765 6.2 6.2 0 0 0 1.4-5.092zm43.138 1.333a3.767 3.767 0 0 0-3.468-2.576 3.848 3.848 0 0 0-3.819 4.049 3.963 3.963 0 0 0 4.019 4.049 4.02 4.02 0 0 0 3.373-1.8l-1.38-.921a2.3 2.3 0 0 1-1.993 1.119 2.061 2.061 0 0 1-1.965-1.224l5.414-2.24zm-5.523 1.35a2.22 2.22 0 0 1 2.117-2.36 1.559 1.559 0 0 1 1.5.859zm-4.4 3.928H98.8v-11.9h-1.775zm-2.917-6.948h-.06a2.8 2.8 0 0 0-2.132-.906 4.053 4.053 0 0 0 0 8.1 2.764 2.764 0 0 0 2.132-.921h.06v.581c0 1.55-.827 2.379-2.162 2.379a2.239 2.239 0 0 1-2.04-1.442l-1.549.645a3.856 3.856 0 0 0 3.588 2.39c2.087 0 3.849-1.226 3.849-4.216v-7.273h-1.686zm-2.04 5.6a2.462 2.462 0 0 1 0-4.906 2.472 2.472 0 0 1 0 4.906zm23.213-10.551h-4.256v11.9h1.775v-4.513h2.48a3.7 3.7 0 1 0 0-7.392zm.045 5.737H112.8v-4.085h2.525a2.04 2.04 0 1 1 0 4.079zm10.98-1.71a3.339 3.339 0 0 0-3.17 1.822l1.577.658a1.684 1.684 0 0 1 1.624-.874 1.714 1.714 0 0 1 1.869 1.534v.122a3.912 3.912 0 0 0-1.854-.459c-1.7 0-3.429.934-3.429 2.679a2.748 2.748 0 0 0 2.955 2.619 2.505 2.505 0 0 0 2.267-1.164h.062v.919h1.715V61.1c-.001-2.11-1.58-3.289-3.616-3.289zm-.214 6.522c-.585 0-1.395-.289-1.395-1.009 0-.919 1.012-1.271 1.882-1.271a3.162 3.162 0 0 1 1.625.4 2.153 2.153 0 0 1-2.111 1.875zm10.075-6.262l-2.036 5.159h-.062l-2.113-5.159h-1.916l3.172 7.212L131.4 69.3h1.854l4.884-11.224zm-16 7.615h1.775v-11.9h-1.775z" class="cls-2" transform="translate(13.802 4.567)"/>
        <path id="패스_19" fill="url(#linear-gradient)" d="M42.093 48.56a1.893 1.893 0 0 0-.441 1.337v21.039a1.89 1.89 0 0 0 .441 1.337l.069.069 11.786-11.787v-.277L42.162 48.493l-.069.067" transform="translate(0 0.316)"/>
        <g id="그룹_8" transform="translate(53.948 56.664)">
            <g id="그룹_7" clip-path="url(#clip-path)">
                <path id="사각형_61" fill="url(#linear-gradient-2)" d="M0 0H10.002V8.138H0z" transform="translate(0 0)"/>
            </g>
        </g>
        <g id="그룹_10" transform="translate(42.093 60.732)">
            <g id="그룹_9" clip-path="url(#clip-path-2)">
                <path id="사각형_62" fill="url(#linear-gradient-3)" d="M0 0H19.976V19.976H0z" transform="matrix(0.707, -0.707, 0.707, 0.707, -6.189, 6.189)"/>
            </g>
        </g>
        <g id="그룹_12" transform="translate(42.093 48.499)">
            <g id="그룹_11" clip-path="url(#clip-path-3)">
                <path id="사각형_63" fill="url(#linear-gradient-4)" d="M0 0H19.976V19.976H0z" transform="translate(-6.189 6.045) rotate(-44.998)"/>
            </g>
        </g>
    </g>
</svg>
