<svg xmlns="http://www.w3.org/2000/svg" width="76" height="76" viewBox="0 0 76 76">
    <g fill="none" fill-rule="evenodd">
        <g>
            <g>
                <g>
                    <g>
                        <g>
                            <g>
                                <path fill="#CCE7B3" d="M14.262 41.925l.358-34.528c0-.076.037-.146.098-.19l.49-.356c.106-.077.129-.226.052-.332l-.028-.032-.537-.513c-.047-.044-.074-.107-.074-.171V2.682c0-.63.493-1.15 1.122-1.186 3.71-.206 7.746-.308 12.108-.308s8.398.102 12.108.308c.63.035 1.122.556 1.122 1.186v3.127c0 .061-.024.12-.066.164l-.498.523c-.09.095-.087.245.008.336l.015.013.453.362c.055.044.088.111.089.183l.429 34.532c.008.656-.517 1.194-1.173 1.202H15.45c-.656 0-1.188-.531-1.188-1.187v-.012z" transform="translate(-376 -984) translate(376 232) translate(0 220) translate(0 459) translate(0 73) translate(10.688 11.875) rotate(-4 27.888 22.156)"/>
                                <path fill="#80C342" d="M11.186 9.405c-.708 0-1.282-.574-1.282-1.283V5.557c0-.708.574-1.282 1.282-1.282H17.6c.708 0 1.282.574 1.282 1.282v2.565c0 .709-.574 1.283-1.282 1.283v1.282l2.725 2.18c.304.244.481.612.481 1.002V32.49c0 .708-.574 1.283-1.282 1.283H9.263c-.709 0-1.283-.575-1.283-1.283V13.869c0-.39.177-.758.481-1.002l2.725-2.18V9.405z" transform="translate(-376 -984) translate(376 232) translate(0 220) translate(0 459) translate(0 73) translate(10.688 11.875) rotate(-40 14.393 19.024)"/>
                                <path fill="#91D255" d="M31.516 15.533c-.354 0-.641-.288-.641-.642 0-.354.287-.641.641-.641H48.19c.354 0 .641.287.641.641 0 .354-.287.642-.641.642h-1.924v10.26c0 1.416-1.148 2.565-2.565 2.565h-7.695c-1.417 0-2.565-1.149-2.565-2.565v-10.26h-1.924z" transform="translate(-376 -984) translate(376 232) translate(0 220) translate(0 459) translate(0 73) translate(10.688 11.875) rotate(12 39.852 21.304)"/>
                                <path fill="#EBCCAA" d="M7.547 20.909l3.033 1.36c.361.161.78.132 1.116-.078l2.575-1.613c.382-.24.867-.241 1.251-.005l2.578 1.582c.374.23.844.234 1.222.012l2.769-1.623c.374-.22.839-.218 1.21.006l2.7 1.618c.37.222.83.225 1.204.01l2.852-1.65c.365-.211.814-.213 1.18-.005l2.97 1.682c.355.2.787.206 1.146.013l3.204-1.717c.363-.195.8-.188 1.157.019l2.937 1.704c.329.19.73.212 1.077.058l3.116-1.382c.54-.24 1.171.004 1.41.543.07.157.1.327.09.498l-1.852 30.848c-.034.564-.502 1.005-1.067 1.005H8.963c-.566 0-1.033-.44-1.067-1.005L6.043 21.95c-.035-.59.414-1.096 1.003-1.132.172-.01.344.022.501.092z" transform="translate(-376 -984) translate(376 232) translate(0 220) translate(0 459) translate(0 73) translate(10.688 11.875)"/>
                            </g>
                        </g>
                    </g>
                </g>
            </g>
        </g>
    </g>
</svg>
