<svg xmlns="http://www.w3.org/2000/svg" width="48" height="48" viewBox="0 0 48 48">
    <g fill="none" fill-rule="evenodd">
        <path d="M0 0H48V48H0z"/>
        <path fill="#333" d="M34.706 7.72c1.462 0 2.658 1.142 2.745 2.583l.005.168v9.499c0 .414-.336.75-.75.75-.38 0-.694-.282-.743-.648l-.007-.102v-9.5c0-.647-.492-1.179-1.122-1.243l-.128-.006H13.294c-.647 0-1.18.491-1.243 1.122l-.007.128v27.764c0 .648.492 1.18 1.122 1.244l.128.006H30.51c.414 0 .75.336.75.75 0 .38-.282.694-.648.743l-.102.007H13.294c-1.462 0-2.658-1.141-2.745-2.582l-.005-.168V10.471c0-1.463 1.142-2.659 2.583-2.745l.167-.005h21.412zM33.04 23.01c3.866 0 7 3.134 7 7 0 1.7-.607 3.26-1.615 4.473l5.116 5.228c.29.296.285.77-.011 1.06-.296.29-.771.285-1.061-.011l-5.121-5.232c-1.188.929-2.683 1.482-4.308 1.482-3.866 0-7-3.134-7-7s3.134-7 7-7zm0 1.5c-3.038 0-5.5 2.462-5.5 5.5s2.462 5.5 5.5 5.5 5.5-2.462 5.5-5.5-2.462-5.5-5.5-5.5zm-9.53-.29c.414 0 .75.336.75.75 0 .38-.282.693-.648.743l-.102.007h-6.02c-.414 0-.75-.336-.75-.75 0-.38.282-.693.648-.743l.102-.007h6.02zm7-5c.414 0 .75.336.75.75 0 .38-.282.693-.648.743l-.102.007H17.49c-.414 0-.75-.336-.75-.75 0-.38.282-.693.648-.743l.102-.007h13.02zm0-5c.414 0 .75.336.75.75 0 .38-.282.693-.648.743l-.102.007H17.49c-.414 0-.75-.336-.75-.75 0-.38.282-.693.648-.743l.102-.007h13.02z"/>
    </g>
</svg>
