<svg xmlns="http://www.w3.org/2000/svg" width="48" height="48" viewBox="0 0 48 48">
    <g fill="none" fill-rule="evenodd">
        <path d="M0 0H48V48H0z"/>
        <path fill="#333" d="M38.583 26.177c.684-.684 1.792-.684 2.475 0l2.116 2.115c.626.626.684 1.618.115 2.347l-.115.128-9.746 9.746c-.125.125-.29.202-.466.217l-3.287.28c-.688.059-1.293-.451-1.352-1.14-.007-.084-.005-.168.005-.253l.398-3.355c.02-.167.095-.323.214-.442zM34.706 7.72c1.462 0 2.658 1.141 2.745 2.582l.005.168V23c0 .414-.336.75-.75.75-.38 0-.694-.282-.743-.648L35.956 23V10.47c0-.647-.492-1.179-1.122-1.243l-.128-.006H13.294c-.647 0-1.18.491-1.243 1.122l-.007.128v27.764c0 .648.492 1.18 1.122 1.244l.128.006H23.51c.414 0 .75.336.75.75 0 .38-.282.694-.648.743l-.102.007H13.294c-1.462 0-2.658-1.141-2.745-2.582l-.005-.168V10.471c0-1.463 1.142-2.659 2.583-2.745l.167-.005h21.412zm5.292 19.516c-.098-.097-.256-.097-.354 0l-9.46 9.46-.332 2.792 2.71-.231 9.52-9.518.053-.058c.076-.098.067-.24-.022-.33zM23.51 24.22c.414 0 .75.336.75.75 0 .38-.282.693-.648.743l-.102.007h-6.02c-.414 0-.75-.336-.75-.75 0-.38.282-.693.648-.743l.102-.007h6.02zm7-5c.414 0 .75.336.75.75 0 .38-.282.693-.648.743l-.102.007H17.49c-.414 0-.75-.336-.75-.75 0-.38.282-.693.648-.743l.102-.007h13.02zm0-5c.414 0 .75.336.75.75 0 .38-.282.693-.648.743l-.102.007H17.49c-.414 0-.75-.336-.75-.75 0-.38.282-.693.648-.743l.102-.007h13.02z"/>
    </g>
</svg>
