<svg xmlns="http://www.w3.org/2000/svg" width="40" height="40" viewBox="0 0 40 40">
    <g fill="none" fill-rule="evenodd">
        <g>
            <g>
                <g>
                    <g>
                        <g>
                            <path fill="#FFF" d="M11.25 21.775c2.651 0 4.8 2.149 4.8 4.8s-2.149 4.8-4.8 4.8-4.8-2.149-4.8-4.8 2.149-4.8 4.8-4.8zm17.611 7.336c.368 0 .667.299.667.667 0 .368-.299.666-.667.666h-5.333c-.368 0-.667-.298-.667-.666 0-.368.299-.667.667-.667h5.333zm-11.959-18v4.007l.01.112c.054.292.309.513.616.513s.562-.221.615-.513l.01-.112-.001-4.007h6.154c.92 0 1.666.746 1.666 1.667v13.334c0 .107-.01.21-.029.31h7.363c.368 0 .666.299.666.667 0 .368-.298.667-.666.667h-8.727c-.089.015-.18.023-.273.023H17.2c.07-.367.106-.747.106-1.135 0-3.375-2.736-6.11-6.112-6.11-.65 0-1.278.101-1.867.29l.025-8.051c.003-.919.748-1.662 1.666-1.662h5.884zm-5.708 12.464c-.306 0-.562.221-.614.513l-.01.112v2.444l.01.113c.046.255.247.456.502.502l.112.01h2l.113-.01c.255-.046.456-.247.502-.502l.01-.113-.01-.112c-.046-.255-.247-.456-.502-.502l-.113-.01-1.376-.002.001-1.818-.01-.112c-.053-.292-.308-.513-.615-.513zm24.334.191c.368 0 .666.299.666.667 0 .368-.298.667-.666.667h-6.445c-.368 0-.666-.299-.666-.667 0-.368.298-.667.666-.667h6.445z" transform="translate(-280 -1692) translate(0 261) translate(256 536) translate(0 881) translate(24 14)"/>
                        </g>
                    </g>
                </g>
            </g>
        </g>
    </g>
</svg>
