<svg xmlns="http://www.w3.org/2000/svg" width="40" height="40" viewBox="0 0 40 40">
    <g fill="none" fill-rule="evenodd">
        <g>
            <g>
                <g>
                    <g>
                        <g>
                            <g fill="#FFF">
                                <path d="M6.595 6.332v6.015c0 1.23.97 2.229 2.165 2.229h12.738v1.336c0 .585-.425 1.067-.974 1.138l-.14.009h-3.503l.007.134c0 .954-.707 1.738-1.61 1.826l-.173.009c-.984 0-1.782-.821-1.782-1.835l.005-.135H7.27l.007.135c0 .954-.707 1.738-1.61 1.826l-.172.009c-.984 0-1.782-.821-1.782-1.835l.004-.135h-2.25c-.567 0-1.036-.437-1.105-1.002l-.008-.144v-3.584c0-.169.036-.334.104-.486l.08-.146 3.109-4.848c.18-.282.47-.465.79-.507l.14-.008 2.018-.001zm7.424-5.95V3.7l.01.115c.053.297.306.522.61.522.303 0 .556-.225.609-.522l.01-.115-.001-3.319 4.64.001c.855 0 1.548.713 1.548 1.593v10.007h7.62c.352 0 .637.294.637.656 0 .362-.285.655-.637.655l-7.62-.001v.009H9.379c-.854 0-1.546-.713-1.546-1.593V1.975c0-.88.692-1.593 1.546-1.593h4.64zm16.107 8.98c.352 0 .637.293.637.655 0 .362-.285.655-.637.655h-6.152c-.352 0-.637-.293-.637-.655 0-.362.285-.655.637-.655h6.152z" transform="translate(-280 -1328) translate(0 261) translate(256 536) translate(0 517) translate(24 14) translate(6.364 10)"/>
                            </g>
                        </g>
                    </g>
                </g>
            </g>
        </g>
    </g>
</svg>
