<svg xmlns="http://www.w3.org/2000/svg" width="40" height="40" viewBox="0 0 40 40">
    <g fill="none" fill-rule="evenodd">
        <g>
            <g>
                <g>
                    <g>
                        <g>
                            <path fill="#FFF" d="M31.499 20.926c2.423 0 4.387 1.964 4.387 4.387 0 2.342-1.835 4.255-4.146 4.38l-.241.007-12.495.002-.15.004h-4.92v-2.794c0-.307-.22-.562-.512-.615l-.112-.01c-.307 0-.562.22-.615.512l-.01.113v2.793h-4.92c-.972 0-1.78-.72-1.872-1.652l-.009-.177v-4.484c.59.323 1.268.507 1.99.507l.235-.007c.84-.047 1.616-.348 2.251-.826l.224-.182.108.092c.717.579 1.63.923 2.623.923l.275-.008c.992-.056 1.803-.418 2.422-.953l.095.086c.668.56 1.55.925 2.634.925.77 0 1.435-.171 1.995-.463l-.001 4.929h10.764c1.714 0 3.103-1.388 3.103-3.102 0-1.645-1.28-2.991-2.899-3.096l-.204-.007h-5.363c-.354 0-.642-.287-.642-.642 0-.315.228-.577.527-.632l.115-.01H31.5zm-14.852-7.589c1.18 0 1.96.327 2.467 1.15l.105.184 1.909 3.078.258.44c.247.471.431 1.02.431 1.555 0 1.522-1.058 3.127-3.076 3.127-1.186 0-2.053-.614-2.559-1.409l-.103-.172-.055-.108-.053.101c-.42.75-1.158 1.36-2.18 1.504l-.242.026-.234.007c-1.079 0-2.03-.545-2.582-1.384l-.112-.184-.036-.07-.025.053c-.528.942-1.536 1.585-2.687 1.585-1.699 0-3.076-1.377-3.076-3.078.004-.634.153-1.11.458-1.621l.14-.222.243-.36L7.43 14.67c.556-.887 1.324-1.267 2.458-1.325l.249-.008h6.51zm8.775-3.731c2.02 0 3.659 1.638 3.659 3.66 0 1.653-1.085 3.446-3.254 5.38-.202.18-.495.202-.72.067l-.091-.067-.303-.276c-1.967-1.828-2.95-3.53-2.95-5.105 0-2.02 1.638-3.659 3.659-3.659zm0 1.83c-.842 0-1.525.682-1.525 1.524s.683 1.525 1.525 1.525c.842 0 1.524-.683 1.524-1.525 0-.842-.682-1.524-1.524-1.524z" transform="translate(-280 -1963) translate(0 261) translate(256 536) translate(0 1152) translate(24 14)"/>
                        </g>
                    </g>
                </g>
            </g>
        </g>
    </g>
</svg>
