<svg xmlns="http://www.w3.org/2000/svg" width="22" height="22" viewBox="0 0 22 22">
    <g fill="none" fill-rule="evenodd">
        <g>
            <g>
                <g>
                    <g>
                        <g>
                            <g>
                                <path d="M0 0H22V22H0z" transform="translate(-250 -879) translate(136 540) translate(100 214) translate(0 30) translate(0 88) translate(14 7)"/>
                                <g fill="#FFF">
                                    <path d="M6.179.55c1.664 0 3.281.662 4.447 1.84 1.067 1.078 1.749 2.59 1.749 4.413 0 2.867-1.628 5.88-4.884 9.042l-.383.365c-.522.49-1.336.49-1.857-.001C1.75 12.914 0 9.779 0 6.803c0-1.84.674-3.351 1.733-4.424C2.895 1.2 4.512.55 6.179.55zm.007 3.438c-.758 0-1.445.307-1.942.804-.5.5-.806 1.187-.806 1.946 0 .76.307 1.447.806 1.945.497.497 1.184.805 1.942.805.76 0 1.448-.308 1.945-.805.497-.498.806-1.185.806-1.946 0-.758-.309-1.445-.806-1.945-.497-.497-1.184-.804-1.945-.804z" transform="translate(-250 -879) translate(136 540) translate(100 214) translate(0 30) translate(0 88) translate(14 7) translate(4.813 2.75)"/>
                                </g>
                            </g>
                        </g>
                    </g>
                </g>
            </g>
        </g>
    </g>
</svg>
