<svg xmlns="http://www.w3.org/2000/svg" width="44" height="44" viewBox="0 0 44 44">
    <g fill="none" fill-rule="evenodd">
        <g>
            <g>
                <g>
                    <g>
                        <g>
                            <g fill="#FFF">
                                <path d="M8.2 7.532v6.941l.005.156c.079 1.342 1.167 2.417 2.526 2.494l.158.005h14.559l.158-.005c.518-.03.996-.203 1.394-.482l-.001 1.956c0 .937-.734 1.705-1.666 1.773l-.134.005h-1.407l.003.057c0 1.173-.925 2.134-2.094 2.208l-.147.005c-1.188 0-2.16-.913-2.236-2.068l-.005-.145v-.057H8.91l.002.057c0 1.173-.925 2.134-2.094 2.208l-.147.005c-1.188 0-2.16-.913-2.237-2.068l-.004-.145v-.057H1.8c-.948 0-1.725-.726-1.794-1.645L0 18.597v-3.54c0-.283.069-.561.2-.812l.085-.147 3.731-5.747c.303-.468.809-.766 1.363-.812l.152-.007h2.67zM17.538 0v4.152l.006.085c.042.303.305.537.624.537.32 0 .583-.234.625-.537l.005-.085V0h6.65c.745 0 1.356.564 1.422 1.283l.006.128v13.062l-.006.129c-.062.676-.607 1.215-1.292 1.276l-.13.006h-14.56l-.13-.006c-.684-.061-1.23-.6-1.292-1.276l-.005-.129V1.411l.005-.128C9.528.606 10.074.068 10.76.007l.13-.006L17.538 0z" transform="translate(-50 -305) translate(20 183) translate(23 114) translate(0 1) translate(7.2 7.2) translate(8.1 10.8)"/>
                            </g>
                        </g>
                    </g>
                </g>
            </g>
        </g>
    </g>
</svg>
