<svg xmlns="http://www.w3.org/2000/svg" width="44" height="44" viewBox="0 0 44 44">
    <g fill="none" fill-rule="evenodd">
        <g>
            <g>
                <g>
                    <g>
                        <g>
                            <path d="M0 0H43.2V43.2H0z" transform="translate(-266 -305) translate(20 183) translate(23 114) translate(215.859 .994) translate(7.201 7.206)"/>
                            <g fill="#FFF">
                                <path d="M8.45 13.074l.116.12c1.039 1.024 2.47 1.65 4.046 1.65l.245-.004c1.614-.06 2.889-.702 3.799-1.63l.072-.077.03.033c.96 1.037 2.345 1.755 4.122 1.755.957 0 1.798-.193 2.52-.527v7.078c0 1.065-.883 1.928-1.972 1.928H13.23v-3.87c0-.319-.237-.583-.545-.624L12.6 18.9c-.319 0-.583.237-.624.545l-.006.085v3.87H3.772c-1.089 0-1.972-.863-1.972-1.928v-7.21c.76.373 1.615.582 2.52.582l.209-.004c1.525-.055 2.901-.714 3.897-1.74l.023-.026zM17.69 0c1.565 0 2.717.372 3.454 1.762 1.964 3.14 3.007 4.813 3.128 5.017.182.307.748 1.36.748 2.376 0 1.017-.748 4.19-4.14 4.19-3.392 0-4.14-3.478-4.14-4.19 0 .814-.753 4.113-4.128 4.113-2.25 0-4.152-1.77-4.152-4.113 0 2.238-1.853 4.113-4.14 4.113-2.286 0-4.14-1.842-4.14-4.113.009-1.574.772-2.376 1.254-3.136.32-.507 1.213-1.926 2.675-4.257C4.975.39 6.196.017 7.775 0z" transform="translate(-266 -305) translate(20 183) translate(23 114) translate(215.859 .994) translate(7.201 7.206) translate(9 9.9)"/>
                            </g>
                        </g>
                    </g>
                </g>
            </g>
        </g>
    </g>
</svg>
