<svg xmlns="http://www.w3.org/2000/svg" width="40" height="40" viewBox="0 0 40 40">
    <g fill="none" fill-rule="evenodd">
        <g>
            <g>
                <g>
                    <g>
                        <path fill="#FFF" d="M30.552 13.055c.275 0 .502.2.545.462l.007.09v1.55l7.589.001c.38 0 .69.309.69.69 0 .38-.31.69-.69.69l-7.59-.001h-.227c-.349 0-.637.26-.683.596l-.006.094c0 .35.26.638.596.683l.093.007h3.219c.38 0 .69.308.69.69 0 .38-.31.689-.69.689h-6.667c-.349 0-.638.26-.683.596l-.006.094c0 .349.259.637.596.683l.093.006h3.674l.002 4.759c0 .274-.2.502-.462.544l-.09.008H27.79c.005.055.007.11.007.165 0 1.067-.865 1.931-1.931 1.931-1.067 0-1.931-.864-1.931-1.93 0-.056.002-.111.007-.166h-6.083c.005.055.007.11.007.165 0 1.067-.865 1.931-1.931 1.931-1.067 0-1.931-.864-1.931-1.93 0-.056.002-.111.007-.166h-1.552c-.592 0-1.085-.424-1.192-.985L11.25 25v-.127l-.006-.101v-3.125l.003-.084.003-.313.173-.234.048-.076 2.644-3.69c.202-.282.515-.462.857-.499l.13-.007 1.763-.001v-2.475c0-.58.408-1.066.953-1.185l.119-.02.142-.008h12.473zM9.004 5.848l-.103.068c-1.08.747-1.738 1.941-1.738 3.237 0 2.22 1.907 4.012 4.25 4.012l.255-.008c.595-.033 1.17-.183 1.694-.439l.043-.023-.093.151c-.882 1.349-2.459 2.197-4.19 2.197-2.717 0-4.912-2.063-4.912-4.599 0-2.47 2.084-4.492 4.704-4.594l.09-.002zm4 1.47c.037.028.066.065.082.11l.26.722c.024.067.078.12.146.141l.732.235c.12.039.187.168.148.29-.014.043-.041.082-.078.11l-.607.472c-.056.043-.09.11-.089.182l.003.769c0 .126-.102.23-.23.23-.046 0-.091-.013-.13-.04l-.635-.432c-.059-.04-.133-.05-.2-.028l-.73.24c-.122.04-.251-.026-.291-.146-.015-.044-.015-.092-.003-.136l.215-.738c.02-.069.007-.143-.035-.2l-.454-.62c-.075-.103-.053-.247.05-.322.037-.027.082-.042.128-.044l.768-.024c.071-.002.138-.037.18-.095l.449-.624c.074-.102.218-.126.32-.052zm3.731-4.251l1.018.523c.064.033.139.034.203.004l1.036-.488c.115-.054.252-.005.306.11.02.042.027.089.02.135l-.184 1.13c-.012.07.01.142.06.194l.783.835c.087.092.083.238-.01.325-.034.031-.076.052-.122.06l-1.132.174c-.07.011-.132.054-.166.117l-.552 1.003c-.06.111-.2.152-.312.09-.04-.021-.073-.055-.094-.097l-.516-1.022c-.033-.064-.092-.109-.163-.122l-1.124-.215c-.125-.023-.207-.144-.183-.268.009-.046.03-.088.064-.12l.812-.807c.051-.05.075-.121.066-.192L16.402 3.3c-.016-.126.073-.241.199-.257.046-.006.093.002.134.024z" transform="translate(-280 -811) translate(0 261) translate(256 536) translate(24 14)"/>
                    </g>
                </g>
            </g>
        </g>
    </g>
</svg>
