<svg xmlns="http://www.w3.org/2000/svg" width="24" height="24" viewBox="0 0 24 24">
    <g fill="none" fill-rule="evenodd">
        <g>
            <g>
                <g>
                    <g>
                        <path fill="#FFF" d="M10.742 2.375c4.621 0 8.367 3.746 8.367 8.367 0 1.87-.613 3.597-1.65 4.99l4.603 4.011c.308.268.34.735.072 1.042-.247.284-.664.333-.968.128l-.074-.056-4.615-4.022c-1.497 1.41-3.515 2.274-5.735 2.274-4.62 0-8.367-3.746-8.367-8.367 0-4.62 3.746-8.367 8.367-8.367zm0 1.477c-3.805 0-6.89 3.085-6.89 6.89 0 3.806 3.085 6.89 6.89 6.89 3.806 0 6.89-3.084 6.89-6.89 0-3.805-3.084-6.89-6.89-6.89z" transform="translate(-111 -401) translate(16 319) translate(0 70) translate(95 12)"/>
                    </g>
                </g>
            </g>
        </g>
    </g>
</svg>
