<svg xmlns="http://www.w3.org/2000/svg" width="20" height="20" viewBox="0 0 20 20">
    <g fill="none" fill-rule="evenodd">
        <g>
            <g>
                <g>
                    <g>
                        <path d="M0 0H20V20H0z" transform="translate(-247 -563) translate(16 559) translate(231 2) translate(0 2)"/>
                        <path fill="#333" d="M10 3c3.866 0 7 3.134 7 7s-3.134 7-7 7-7-3.134-7-7 3.134-7 7-7zm0 1c-3.314 0-6 2.686-6 6s2.686 6 6 6 6-2.686 6-6-2.686-6-6-6zm0 1.993c.273 0 .5.199.543.46l.007.09v3.395l2.576 2.12c.208.172.258.464.131.692l-.056.082c-.171.209-.464.258-.692.131l-.082-.056-2.776-2.284c-.102-.084-.17-.2-.192-.328l-.009-.097V6.543c0-.304.246-.55.55-.55z" transform="translate(-247 -563) translate(16 559) translate(231 2) translate(0 2)"/>
                    </g>
                </g>
            </g>
        </g>
    </g>
</svg>
