<svg xmlns="http://www.w3.org/2000/svg" width="64" height="64" viewBox="0 0 64 64">
    <g fill="none" fill-rule="evenodd">
        <g>
            <g>
                <g>
                    <g>
                        <g>
                            <g>
                                <g transform="translate(-284 -2686) translate(136 540) translate(100 1832) translate(0 258) translate(0 56) translate(48) translate(8.889 12.444)">
                                    <path stroke="#333" stroke-linecap="round" stroke-linejoin="round" stroke-width="2" d="M15.213 35.752h16.21m8.125 0h3.697c1.23 0 2.226-.996 2.226-2.225V23.459c0-.744-.276-1.46-.775-2.012l-7.968-8.813c-.568-.629-1.377-.988-2.225-.988h-5.766v11.73c0 1.657-1.343 3-3 3H0v7.15c0 1.23.996 2.226 2.225 2.226h4.828"/>
                                    <circle cx="11.133" cy="35.629" r="4.08" stroke="#333" stroke-linecap="round" stroke-linejoin="round" stroke-width="2"/>
                                    <circle cx="35.513" cy="35.629" r="4.08" stroke="#333" stroke-linecap="round" stroke-linejoin="round" stroke-width="2"/>
                                    <path stroke="#333" stroke-linecap="round" stroke-linejoin="round" stroke-width="2" d="M3 0h22.737c1.657 0 3 1.343 3 3v20.376c0 1.657-1.343 3-3 3H0h0V3c0-1.657 1.343-3 3-3z"/>
                                    <g fill="#333" font-weight="bold">
                                        <text font-family="Lato-Bold, Lato" font-size="13" letter-spacing="-.2" transform="translate(5 4)">
                                            <tspan x=".33" y="13">5</tspan>
                                        </text>
                                        <text font-family="NotoSansCJKkr-Bold, Noto Sans CJK KR" font-size="12" letter-spacing="-.4" transform="translate(5 4)">
                                            <tspan x="8" y="15">회</tspan>
                                        </text>
                                    </g>
                                </g>
                            </g>
                        </g>
                    </g>
                </g>
            </g>
        </g>
    </g>
</svg>
