<svg xmlns="http://www.w3.org/2000/svg" width="64" height="68" viewBox="0 0 64 68">
    <g fill="none" fill-rule="evenodd">
        <g>
            <g>
                <g>
                    <g>
                        <g>
                            <g>
                                <g>
                                    <g stroke="#333" stroke-linecap="round" stroke-linejoin="round" transform="translate(-576 -2686) translate(136 540) translate(100 1832) translate(0 258) translate(0 56) translate(48) translate(292) translate(6.222 15.111)">
                                        <rect width="51.556" height="25.778" y="8.222" stroke-width="2" rx="2"/>
                                        <path stroke-width="2" d="M3.556 4.778H48 3.556zM7.111.889h37.333H7.111z"/>
                                        <path stroke-width="1.5" d="M38.049 21.763L46.078 21.763" transform="rotate(-90 42.063 21.763)"/>
                                        <path stroke-width="1.5" d="M40.587 15.265L43.539 18.217 40.587 21.17" transform="rotate(-90 42.063 18.217)"/>
                                    </g>
                                    <g fill="#333" font-weight="bold">
                                        <text font-family="Lato-Bold, Lato" font-size="13" letter-spacing="-.2" transform="translate(-576 -2686) translate(136 540) translate(100 1832) translate(0 258) translate(0 56) translate(48) translate(292) translate(11 27)">
                                            <tspan x=".33" y="13">4</tspan>
                                        </text>
                                        <text font-family="NotoSansCJKkr-Bold, Noto Sans CJK KR" font-size="12" letter-spacing="-.4" transform="translate(-576 -2686) translate(136 540) translate(100 1832) translate(0 258) translate(0 56) translate(48) translate(292) translate(11 27)">
                                            <tspan x="9" y="15">만원</tspan>
                                        </text>
                                    </g>
                                </g>
                            </g>
                        </g>
                    </g>
                </g>
            </g>
        </g>
    </g>
</svg>
