<svg xmlns="http://www.w3.org/2000/svg" width="24" height="24" viewBox="0 0 24 24">
    <path fill="none" d="M0 0H24V24H0z"/>
    <path fill="#fff" d="M3.038 15.658A1.74 1.74 0 0 1 1.286 14.1l-.006-.149V8.838v-.057a3.162 3.162 0 0 1-.68-4.4L.861 4 2.5 1.37A2.948 2.948 0 0 1 5.252 0h6.088a2.617 2.617 0 0 1 2.628 1.372c1.219 1.96 1.849 2.977 1.927 3.11l.11.2a3.491 3.491 0 0 1 .431 1.573 3.341 3.341 0 0 1-.8 2.174 2.915 2.915 0 0 1-.479.438v5.083a1.729 1.729 0 0 1-1.606 1.7l-.151.006zm10.364-1.2a.545.545 0 0 0 .551-.429l.007-.081v-4.57a3.55 3.55 0 0 1-.664.06 3.013 3.013 0 0 1-2.488-1.249l-.053-.077-.045.065a3 3 0 0 1-2.278 1.208l-.207.006a3.129 3.129 0 0 1-2.5-1.222l-.054-.076-.041.059a3.14 3.14 0 0 1-2.313 1.234l-.177.005a3.177 3.177 0 0 1-.659-.069v4.626a.526.526 0 0 0 .465.5l.092.007H7.62v-2.448a.6.6 0 1 1 1.2 0v2.452zm-2.045-8.206a2.107 2.107 0 0 0 .509 1.316 1.857 1.857 0 0 0 1.429.67 1.924 1.924 0 0 0 1.939-1.986 2.573 2.573 0 0 0-.375-1.163l-1.932-3.122c-.3-.567-.714-.768-1.588-.768H5.265a1.78 1.78 0 0 0-1.746.806c-.928 1.49-1.45 2.326-1.643 2.631l-.226.338-.15.226a1.9 1.9 0 0 0-.3 1.052 1.94 1.94 0 0 0 3.879 0 .6.6 0 1 1 1.2 0 1.922 1.922 0 0 0 1.946 1.939 1.713 1.713 0 0 0 1.54-.809 2.457 2.457 0 0 0 .391-1.129l.008-.109a.6.6 0 0 1 1.193.109z" transform="translate(3.78 4.12)"/>
</svg>
