<svg id="Icon_24_Pin_Fiiled_gray_24" data-name="Icon/24/Pin_Fiiled_gray_24" xmlns="http://www.w3.org/2000/svg" width="24" height="24" viewBox="0 0 24 24">
  <defs>
    <style>
      .cls-1 {
        fill: none;
      }

      .cls-2 {
        fill: #adadad;
      }
    </style>
  </defs>
  <g id="Icon_24_Pin_Fiiled_24" data-name="Icon/24/Pin_Fiiled_24">
    <rect id="guide_box" data-name="guide box" class="cls-1" width="24" height="24"/>
    <g id="icon" transform="translate(5.25 3)">
      <path id="Shape" class="cls-2" d="M6.742,17.484a1.474,1.474,0,0,1-1.014-.4,22.578,22.578,0,0,1-4.3-5.26A10.278,10.278,0,0,1,0,6.821,6.707,6.707,0,0,1,1.89,2a6.881,6.881,0,0,1,9.7.012A6.688,6.688,0,0,1,13.5,6.821a10.14,10.14,0,0,1-1.332,4.812,21.49,21.49,0,0,1-4,5.052l-.418.4A1.474,1.474,0,0,1,6.742,17.484ZM6.749,3.75a3,3,0,1,0,2.121.878A2.978,2.978,0,0,0,6.749,3.75Z" transform="translate(0 0.6)"/>
    </g>
  </g>
</svg>
