<svg xmlns="http://www.w3.org/2000/svg" xmlns:xlink="http://www.w3.org/1999/xlink" width="32" height="32" viewBox="0 0 32 32">
    <defs>
        <path id="8pchswv4ra" d="M21.88 14.781l.143.005c.571.047 1.07.405 1.3.93.228.526.15 1.135-.205 1.586l-.797 1.116-3.499 4.123c-.089.147-.12.322-.085.49.004.034.024.07.024.107l.046.231c.184 1.08-.088 2.192-.757 3.067-1.165 1.631-3.106 2.22-4.34 1.353-1.235-.866-1.288-2.91-.127-4.545.64-.953 1.655-1.587 2.791-1.745h.213c.157-.025.301-.103.409-.22l2.795-4.672.797-1.116c.312-.48.863-.752 1.435-.705zm-6.294-2.175c.458-.002.898.179 1.223.502.324.324.506.764.505 1.223 0 .952-.771 1.724-1.723 1.724-.952.001-1.725-.77-1.726-1.722-.002-.952.769-1.725 1.72-1.727zM11.916 5c2.097 0 3.812 1.643 3.925 3.714l.006.201c0 2.096-1.644 3.81-3.714 3.918l-.201.006C9.768 12.843 8.009 11.095 8 8.932c-.002-2.099 1.642-3.815 3.714-3.926L11.915 5zm.003 2.097c-1.01.004-1.825.825-1.822 1.835.004.957.743 1.739 1.681 1.813l.15.005c.957-.002 1.74-.74 1.816-1.677l.006-.15c-.002-.959-.741-1.744-1.68-1.82l-.15-.006z"/>
    </defs>
    <g fill="none" fill-rule="evenodd">
        <g>
            <g>
                <g>
                    <g>
                        <g transform="translate(-202 -547) translate(0 37) translate(36 496) translate(152) translate(14 14)">
                            <path d="M0 0H32V32H0z"/>
                            <use fill="#E6843E" xlink:href="#8pchswv4ra"/>
                        </g>
                    </g>
                </g>
            </g>
        </g>
    </g>
</svg>
