<svg xmlns="http://www.w3.org/2000/svg" width="22" height="22" viewBox="0 0 22 22">
    <g fill="none" fill-rule="evenodd">
        <g>
            <g>
                <g>
                    <g>
                        <g>
                            <g>
                                <path fill="#333" d="M9.4 2.078c4.043 0 7.32 3.278 7.32 7.321 0 1.636-.536 3.147-1.443 4.366l4.028 3.51c.269.235.297.643.062.912-.216.248-.58.291-.847.112l-.064-.05-4.038-3.519c-1.31 1.234-3.076 1.99-5.019 1.99-4.043 0-7.32-3.277-7.32-7.32 0-4.044 3.277-7.322 7.32-7.322zm0 1.292c-3.33 0-6.03 2.7-6.03 6.03s2.7 6.029 6.03 6.029 6.029-2.7 6.029-6.03-2.7-6.029-6.03-6.029z" transform="translate(-867 -208) translate(504 100) translate(32 97) translate(120) translate(208 8) translate(3.5 3.5)"/>
                            </g>
                        </g>
                    </g>
                </g>
            </g>
        </g>
    </g>
</svg>
