<svg xmlns="http://www.w3.org/2000/svg" width="64" height="64" viewBox="0 0 64 64">
    <g fill="none" fill-rule="evenodd">
        <g>
            <g>
                <g>
                    <g>
                        <g fill="#333">
                            <path d="M19.411.286c.972 0 1.77.746 1.85 1.697l.008.16v2.233c0 .864-.59 1.59-1.389 1.798l-.106.023v4.054c0 .15.281.575.812 1.12l.151.152c.201.198.428.406.682.628l.46.39 1.581 1.29.57.49.312.277.258.237.206.2.155.162c.315.353.284.895-.069 1.21-.353.316-.895.285-1.21-.068l-.2-.202-.202-.188-.567-.5-.47-.399-1.465-1.194-.205-.172c-.393-.334-.736-.642-1.038-.938-.882-.868-1.398-1.594-1.467-2.326l-.008-.17V5.377c0-.434.322-.792.74-.849l.117-.008h.494c.064 0 .117-.04.136-.097l.007-.046V2.143c0-.063-.04-.117-.097-.136L19.41 2H9.236c-.063 0-.116.04-.135.098l-.007.045v2.233c0 .064.04.117.097.136l.045.007h.673c.434 0 .793.323.85.741l.007.116v4.875c0 .375-.088.725-.269 1.058-.253.466-.657.874-1.383 1.44l-.383.29-2.945 2.137-.633.474-.194.151-.365.294c-.174.144-.337.285-.489.425l-.29.278c-1.057 1.062-1.507 2.115-1.687 3.982l-.041.506-.03.546-.029.902-.01 1.01v1.25c.748-.088 1.249-.37 2.001-1.01l.244-.21c1.384-1.216 2.305-1.68 4.09-1.68 1.631 0 2.597.376 4.117 1.39l.335.228c1.462 1.006 2.174 1.315 3.516 1.315 1.908 0 3.205-.618 3.997-1.882.078-.156.162-.307.249-.457l.045-.092c.036-.078.081-.147.134-.208 2.521-4.07 7.368-6.635 14.46-7.724.454-.07.882.23.971.68l.093.478.173.94.08.46.145.908.067.446.119.876.053.43.092.845.074.823.057.802c.58 9.626-2.814 14.52-10.255 14.276-.474-.015-.845-.411-.83-.884.016-.473.413-.844.886-.829 6.899.226 9.661-4.78 8.187-15.561l-.129-.887-.147-.912-.166-.938-.025-.124-.18.031c-6.21 1.116-10.318 3.453-12.396 6.984l.097-.2c-.116.253-.243.492-.382.717l-.152.304-.135.294c-1.69 3.826-1.187 6.941 1.546 9.525.531-3.405 1.91-6.356 4.135-8.836.316-.353.858-.382 1.21-.066.353.316.382.858.066 1.21-2.954 3.292-4.252 7.508-3.888 12.703.01.138-.013.27-.063.389l.003.081c0 .434-.322.793-.74.85l-.117.007H5.278c-2.215 0-3.594-.451-4.345-1.455-.519-.693-.647-1.31-.646-2.608l.016-1.155v-11.55l.009-.74.017-.692.027-.647.019-.308.045-.585c.235-2.545.883-3.946 2.453-5.415l.364-.328c.127-.11.26-.221.397-.333l.428-.342.463-.352 3.327-2.42c.685-.518 1.012-.832 1.139-1.065.03-.055.047-.103.055-.156l.006-.084V6.223l-.132-.016c-.824-.142-1.462-.825-1.534-1.67l-.007-.16V2.142c0-.972.747-1.77 1.697-1.85l.16-.007h10.175zM8.353 23.809c-1.204 0-1.779.249-2.746 1.069l-.247.214c-1.186 1.041-2.014 1.519-3.343 1.626l-.004 8.933-.009.497v.432l.01.36c.029.543.114.827.292 1.065.336.449 1.14.732 2.675.764l.297.003H22.83v-.019c-.044-.867-.043-1.711.002-2.532-3.42-2.69-4.664-6.059-3.702-9.967-.817.324-1.757.487-2.81.487-1.66 0-2.638-.379-4.173-1.403l-.339-.23c-1.444-.994-2.145-1.299-3.456-1.299z" transform="translate(-728 -630) translate(136 320) translate(72 310) translate(520) translate(15.857 12.857)"/>
                        </g>
                    </g>
                </g>
            </g>
        </g>
    </g>
</svg>
