<svg xmlns="http://www.w3.org/2000/svg" xmlns:xlink="http://www.w3.org/1999/xlink" width="260" height="260" viewBox="0 0 260 260">
    <defs>
        <ellipse id="prefix__a" cx="91.739" cy="23.789" rx="91.739" ry="22.792"/>
    </defs>
    <g fill="none" fill-rule="evenodd">
        <path d="M0 0H260V260H0z"/>
        <g transform="translate(10 31)">
            <g transform="translate(22.192 125.842)">
                <path fill="#F7F9F9" fill-rule="nonzero" d="M150.686.884l52.327 25.296-.74 1.5c-.235.473-.509 1.016-.819 1.626l-.718 1.403c-.982 1.91-2.066 3.966-3.243 6.142-4.215 7.79-8.796 15.595-13.652 22.995-7.506 11.441-15.003 20.943-22.865 28.168-6.027 5.539-12.29 9.789-19.311 12.458l-.705.262-19.808-54.641c-.378.137-.692.272-.946.397l-.27.14.01-.008c.375-.251.963-.722 1.702-1.402 3.699-3.399 8.492-9.473 13.599-17.257 3.863-5.888 7.639-12.32 11.126-18.767l.72-1.337c.703-1.316 1.358-2.566 1.96-3.737l.743-1.454.89-1.784z"/>
                <mask id="prefix__b" fill="#fff">
                    <use xlink:href="#prefix__a"/>
                </mask>
                <use fill="#333" xlink:href="#prefix__a"/>
                <path fill="#796375" d="M62.428 46.801c11.604-18.604 21.482-25.22 29.635-19.846 4.825 5.313 1.973 11.85-8.556 19.612l-21.08.234z" mask="url(#prefix__b)"/>
                <path stroke="#333" stroke-linecap="round" d="M91.17 30.78c.76 3.783-1.35 6.987-6.33 9.612-.47 1.262 4.085.274-3.305 4.205" mask="url(#prefix__b)"/>
            </g>
            <circle cx="108.803" cy="131.296" r="12.536" fill="#F19B5E"/>
            <path fill="#A4CE44" d="M115.776 128.683c1.228-3.258.218-6.53-1.938-8.212-4.385-1.983-7.16-4.518-4.901-5.504 1.506-.658 2.93 1.132 4.27 5.37-.546 2.23-1.053 3.698-1.521 4.4-1.405 2.111-1.379 1.81-2.13 3.002-1.153 1.813-1.146 3.189.02 4.127.74.62 1.654.813 2.744.583 1.472-.312 2.894-2.275 3.456-3.766z"/>
            <path stroke="#333" d="M117.669 127.906c.523-3.443-1.145-6.433-3.603-7.63-4.702-1.028-7.944-2.93-5.939-4.365 1.337-.956 3.101.499 5.294 4.365-.071 2.296-.262 3.836-.574 4.621-.935 2.357-.972 2.056-1.459 3.379-.75 2.013-.458 3.357.878 4.032.852.452 1.787.452 2.805 0 1.375-.61 2.358-2.827 2.598-4.402z"/>
            <path fill="#A4CE44" d="M113.422 119.971c-4.169 2.092-6.99 3.137-8.465 3.134-1.475-.002-2.106-.347-1.894-1.037-.167-1 .703-1.486 2.611-1.455"/>
            <path stroke="#333" stroke-linecap="round" d="M113.42 119.998c-3.927 2.516-6.624 3.85-8.09 4.003-1.467.152-2.13-.126-1.992-.834-.271-.978.544-1.551 2.445-1.72 2.85-.253 14.476-.89 20.913-10.653"/>
            <path fill="#EFCC7A" d="M155.392 125.357l-.002 10.068-12.684-9.895c.667-.684 1.078-1.625 1.078-2.663 0-2.092-1.67-3.787-3.731-3.787-1.372 0-2.57.75-3.219 1.87l-5.375-4.193c4.499-9.11 12.302-13.897 23.408-14.363l.523-.018.002 5.43c-.605-.543-1.404-.872-2.28-.872-1.888 0-3.419 1.53-3.419 3.419 0 1.888 1.53 3.419 3.419 3.419.876 0 1.676-.33 2.28-.872v7.477c-.135-.023-.273-.035-.414-.035-1.374 0-2.487 1.13-2.487 2.525 0 1.394 1.113 2.525 2.487 2.525.141 0 .28-.012.414-.035z"/>
            <path stroke="#333" stroke-linecap="round" stroke-linejoin="round" d="M133.1 111.11c1.016-1.438 2.143-2.728 3.383-3.872 4.453-4.107 10.355-6.317 17.708-6.631l.557-.02.002 5.43c-.605-.542-1.404-.872-2.28-.872-1.888 0-3.42 1.53-3.42 3.419 0 1.888 1.532 3.419 3.42 3.419.876 0 1.675-.33 2.28-.872l-.002 7.477c-.134-.023-.272-.035-.412-.035-1.374 0-2.488 1.13-2.488 2.525 0 1.394 1.114 2.525 2.488 2.525.14 0 .278-.012.412-.035l-.055 6.757"/>
            <path fill="#E18888" fill-rule="nonzero" d="M201.416 108.45c-8.651 1.408-15.833 4.564-21.34 9.577-2.14 1.948-3.12 4.695-2.9 7.372-2.948-1.014-6.344-.458-8.85 1.753-5.635 4.972-10.955 12.48-16.172 22.56-1.518 2.933-1.258 6.315.387 8.917-2.323.676-4.366 2.285-5.526 4.623-1.278 2.577-2.26 5.22-2.946 7.917l.023-.03c11.058-1.161 17.646-1.909 19.763-2.242.426-2.253-.04-4.564-1.237-6.46 2.273-.66 4.282-2.216 5.456-4.485 4.15-8.02 8.136-13.712 11.761-17.042l.35-.315c2.208-1.947 3.228-4.74 3.003-7.465 2.9.997 6.223.473 8.708-1.63l.247-.217c2.756-2.508 6.739-4.258 12.153-5.14 4.886-.795 8.202-5.4 7.407-10.286-.795-4.886-5.4-8.202-10.287-7.407z"/>
            <path fill="#333" d="M209.221 115.152c1.97-1.534 3.085-2.66 3.346-3.381.391-1.08-.162-2.174-1.236-2.441-1.073-.268-2.262.391-2.653 1.472-.261.72-.08 2.17.543 4.35zm5.25.91c1.112-.4 1.772-1.56 1.474-2.59-.298-1.032-1.44-1.545-2.552-1.146-.741.266-1.887 1.364-3.437 3.294 2.27.56 3.774.707 4.515.441zm-3.585 4.303c.787.731 2.1.648 2.934-.185.834-.834.872-2.102.085-2.833-.525-.488-1.966-.856-4.324-1.106.345 2.262.78 3.637 1.305 4.124z"/>
            <path stroke="#333" stroke-linecap="round" d="M178.022 128.876c-1.514 0-2.951.65-4.313 1.95M155.227 158.085c-.7-2.342-.242-4.758 1.374-7.25M160.548 154.915c-.875 1.673-1.867 2.81-2.976 3.412"/>
            <ellipse cx="62.489" cy="126.016" fill="#E7755B" rx="27.606" ry="27.724" transform="rotate(-46 62.49 126.016)"/>
            <path fill="#A4CE44" d="M22.174 70.232c-.555 3.92-.598 7.733-.13 11.436.394 3.117 1.878 11.816 3.355 16.629 1.223 3.986 4.01 9.877 8.362 17.672l.227-26.275c.06-7.072-1.484-14.065-4.517-20.454l-.054-.113c-.906-1.908-3.188-2.72-5.097-1.815-1.16.551-1.966 1.648-2.146 2.92z"/>
            <path stroke="#333" stroke-linecap="round" d="M55.403 145.243c-5.532-2.463-9.097-6.505-10.695-12.127-.924-3.25-1.237-7.97.74-8.284 1.556.19 2.753 1.225 3.933 2.46 1.959 2.049 2.396 4.913.389 4.413-2.474-.617-20.52-14.39-29.2-42.765-2.835-10.5-4.379-22.1 2.036-21.442 4.934 1.142 7.144 11.041 7.308 22.486.144 11.104 1.679 20.052 4.604 26.846"/>
            <path fill="#A76464" fill-rule="nonzero" d="M68.601 80.96c2.505-.652 5.035-.31 7.456.972 1.39.737 1.92 2.46 1.184 3.851-.706 1.335-2.324 1.878-3.682 1.268l-.168-.083c-1.102-.583-2.1-.752-3.102-.552l-.25.058c-1.523.397-3.08-.516-3.476-2.038-.397-1.523.516-3.079 2.038-3.476z"/>
            <path stroke="#333" stroke-linecap="round" d="M67.576 79.365c2.504-.653 5.034-.31 7.455.972 1.39.736 1.921 2.46 1.185 3.85-.707 1.336-2.324 1.878-3.683 1.268l-.168-.082c-1.102-.583-2.1-.752-3.102-.552l-.25.058c-1.523.396-3.079-.516-3.476-2.039"/>
            <path fill="#A76464" fill-rule="nonzero" d="M80.782 76.946c1.379-.757 3.11-.253 3.868 1.126 1.149 2.093 1.393 4.336.681 6.543-.482 1.498-2.087 2.321-3.585 1.839-1.438-.463-2.254-1.961-1.89-3.405l.052-.18c.2-.622.165-1.188-.14-1.835l-.112-.219c-.758-1.38-.254-3.111 1.126-3.869z"/>
            <path stroke="#333" stroke-linecap="round" d="M85.66 75.894c1.148 2.092 1.392 4.335.68 6.543-.482 1.497-2.087 2.32-3.585 1.838"/>
            <path fill="#A76464" fill-rule="nonzero" d="M82.765 93.527c1.36-.651 2.98-.128 3.71 1.166l.09.173c.344.72.672 1.006 1.159 1.096l.125.018c1.563.178 2.686 1.59 2.508 3.153-.178 1.564-1.59 2.687-3.153 2.509-2.59-.295-4.59-1.833-5.779-4.315-.679-1.42-.08-3.12 1.34-3.8z"/>
            <path stroke="#333" stroke-linecap="round" d="M88.89 94.929l.125.018c1.563.178 2.687 1.59 2.509 3.153-.178 1.563-1.59 2.686-3.153 2.509-2.59-.295-4.59-1.833-5.78-4.316"/>
            <path fill="#F3E7DD" fill-rule="nonzero" d="M199.512 19.42l23.22 5.794-3.866 15.487c-1.433 5.742-5.827 10.279-11.52 11.895l-5.863 1.672c-17.823 5.104-31.73 9.3-41.685 12.575l-2.183.725c-4.818 1.614-8.532 2.966-11.087 4.028l-.518.218-.456.197-.344.61c-5.411 9.484-12.141 17.893-20.164 25.19l-.756.681-15.93-17.86c6.975-6.22 12.685-13.49 17.165-21.864l.43-.813.448-.86.58-.777c3.28-4.385 8.755-6.696 23.677-11.66l2.22-.732c10.227-3.351 24.18-7.557 41.888-12.63l1.915-.548 2.829-11.329z"/>
            <path stroke="#333" d="M96.781 80.468c12.284-8.112 21.669-16.412 28.154-24.9M99.855 86.69c9.942-5.643 16.66-10.799 20.151-15.467M106.065 90.718c9.76-5.46 16.596-10.628 20.509-15.503M114.94 94.252c7.59-4.915 13.52-10.332 17.793-16.253M125.217 93.956c11.176-9.253 19.074-20.136 23.695-32.648 2.041-2.73 24.461-10.173 67.26-22.328 1.703-.484 2.975-1.908 3.264-3.655l3.393-20.51h0"/>
            <path stroke="#333" d="M145.34 41.505c-14.47-2.035-36.508 10.093-36.537 12.368-.02 1.517-.926 4.995-2.718 10.435-.643 1.935-.281 2.965 1.084 3.088 4.75-1.139 7.463-4.804 8.136-10.997h0c.068-.626.63-1.08 1.256-1.014 7.833.817 17.248-.135 28.244-2.856M155.088 42.93c21.526-16.146 36.163-25.675 43.913-28.587L197.465.588"/>
            <path stroke="#333" stroke-linecap="round" d="M22.501 149.53c.733 25.171 2.082 41.099 4.047 47.782M205.098 149.53c-.733 25.171-2.082 41.099-4.046 47.782"/>
            <path stroke="#333" stroke-linecap="round" d="M204.756 160.3c1.823-9.54 5.685-16.55 11.585-21.027 8.85-6.716 17.314-7.044 20.818-2.541 3.505 4.503-.563 11.741-10.108 16.84-9.545 5.098-34.672 15.075-42.284 41.215"/>
            <path stroke="#333" d="M23.457 165.991c-3.699-15.992-6.853-25.755-9.462-29.287-3.914-5.298-6.68-8.77-10.814-6.2-4.134 2.57-1.76 10.44 1.515 15.413 3.275 4.973 19.463 23.585 19.463 34.523 0 10.938-2.969 14.36-6.883 14.36s-5.114-.34-8.397-4.961"/>
            <path stroke="#333" stroke-linecap="round" d="M154.666 161.026c-1.088.319-1.94 1.165-2.558 2.54M180.532 125.487c.288-1.442.712-2.482 1.273-3.12M184.025 129.866c1.79.072 3.138-.085 4.046-.47M182.581 127.952c.369-.094.998-.366 1.89-.817.89-.45 1.75-1.187 2.579-2.211M180.321 130.146c-.164.529-.358.913-.58 1.153-.437.47-.7.683-1.444.997"/>
        </g>
    </g>
</svg>
